<svg xmlns="http://www.w3.org/2000/svg" xmlns:xlink="http://www.w3.org/1999/xlink" width="199" height="79" viewBox="0 0 199 79"><defs><style>.a{opacity:0.81;}.b,.c,.d{fill:#fff;}.b{font-size:10px;opacity:0.7;}.b,.c{font-family:Poppins-Light, Poppins;font-weight:300;}.c{font-size:17px;}.e{filter:url(#a);}</style><filter id="a" x="0" y="0" width="199" height="79" filterUnits="userSpaceOnUse"><feOffset dx="3" dy="3" input="SourceAlpha"/><feGaussianBlur stdDeviation="4" result="b"/><feFlood flood-opacity="0.369"/><feComposite operator="in" in2="b"/><feComposite in="SourceGraphic"/></filter></defs><g transform="translate(-94 -10494.469)"><g class="e" transform="matrix(1, 0, 0, 1, 94, 10494.47)"><rect class="a" width="175" height="55" rx="9" transform="translate(9 9)"/></g><text class="b" transform="translate(162 10521.468)"><tspan x="0" y="0">Download on the</tspan></text><text class="c" transform="translate(162 10543.468)"><tspan x="0" y="0">App store</tspan></text><path class="d" d="M21.273,18.039a6.227,6.227,0,0,1,3.335-5.656,7.167,7.167,0,0,0-5.65-2.975c-2.368-.187-4.956,1.381-5.9,1.381-1,0-3.3-1.314-5.1-1.314C4.237,9.534.281,12.442.281,18.359a16.625,16.625,0,0,0,.961,5.416c.854,2.448,3.935,8.451,7.151,8.351,1.681-.04,2.868-1.194,5.056-1.194,2.121,0,3.222,1.194,5.1,1.194,3.242-.047,6.03-5.5,6.844-7.958a6.612,6.612,0,0,1-4.116-6.13ZM17.5,7.086A6.282,6.282,0,0,0,19.1,2.25a7.073,7.073,0,0,0-4.529,2.328,6.381,6.381,0,0,0-1.708,4.8A5.6,5.6,0,0,0,17.5,7.086Z" transform="translate(118.335 10513.621)"/></g></svg>