<svg xmlns="http://www.w3.org/2000/svg" width="170.5" height="60.476" viewBox="0 0 170.5 60.476"><defs><style>.a,.c,.d{fill:#fff;}.b{fill:#675e5e;}.c{font-size:12px;font-family:Poppins-Regular, Poppins;}.d{font-size:5px;font-family:Poppins-Medium, Poppins;font-weight:500;}</style></defs><g transform="translate(13148.5 15704.476)"><g transform="translate(-13586.118 -15864.342)"><g transform="translate(437.618 159.866)"><g transform="translate(0 4.548)"><path class="a" d="M466.943,170.389a3.548,3.548,0,0,0-1.761-.709H446.4a3.4,3.4,0,0,0-3.262,3.267l-1.784,13.337a.448.448,0,0,1,.264.4.285.285,0,0,1,0,.065l-.4,3.063a.447.447,0,0,1-.385.389l-.232,1.752a.456.456,0,0,1,.116.3.285.285,0,0,1,0,.065l-.4,3.068a.438.438,0,0,1-.213.324l-2.433,18.17a3.285,3.285,0,0,0,.547,2.4,2.54,2.54,0,0,0,1.928.9h18.341a.76.76,0,0,0,0-1.52l-18.3,0a1.032,1.032,0,0,1-.783-.329,1.8,1.8,0,0,1-.236-1.233l5.491-40.979c.213-1.807,1.506-1.928,1.752-1.937h2.544l-.07.343c-.449,1.687.329,2.025,1.427,2.025h11.122a1.675,1.675,0,0,0,1.631-1.311l.227-1.057h1.9a2.4,2.4,0,0,1,.867.417.755.755,0,0,0,1.057-.162A.748.748,0,0,0,466.943,170.389Zm-7.924,1.14a.143.143,0,0,1-.139.079h-5.723a.162.162,0,0,1-.139-.079.146.146,0,0,1-.032-.088.162.162,0,0,1,.167-.162h5.723a.158.158,0,0,1,.162.162A.145.145,0,0,1,459.019,171.529Z" transform="translate(-437.618 -169.68)"/><g transform="translate(2.466 22.28)"><path class="a" d="M443.561,218.061a.281.281,0,0,1,0,.065l-.4,3.068a.438.438,0,0,1-.213.324l.505-3.758A.478.478,0,0,1,443.561,218.061Z" transform="translate(-442.94 -217.76)"/></g><g transform="translate(3.207 16.599)"><path class="a" d="M445.328,205.908a.285.285,0,0,1,0,.065l-.4,3.063a.447.447,0,0,1-.385.389l.528-3.925A.464.464,0,0,1,445.328,205.908Z" transform="translate(-444.54 -205.5)"/></g></g><g transform="translate(3.017 43.013)"><path class="a" d="M444.89,265.315a.758.758,0,0,1,0-1.515l18.828-.065c1.8.046,1.932-.612,2.03-1.149l1.316-9.249a.758.758,0,0,1,1.5.213l-1.321,9.277c-.306,1.705-1.478,2.5-3.55,2.428l-18.8.06Z" transform="translate(-444.13 -252.685)"/></g><g transform="translate(29.59)"><path class="a" d="M502.236,175.192a.9.9,0,0,1-.111-.009.759.759,0,0,1-.644-.862l1.793-12.415a.759.759,0,0,1,.561-.626l5.315-1.39a.759.759,0,1,1,.385,1.469l-4.829,1.265-1.719,11.919A.761.761,0,0,1,502.236,175.192Z" transform="translate(-501.473 -159.866)"/></g><g transform="translate(4.491 56.528)"><path class="a" d="M449.284,281.85a1.831,1.831,0,0,0-.714.139,1.746,1.746,0,0,0-.649.417,1.652,1.652,0,0,0-.357.459,1.913,1.913,0,0,0-.255.959,1.969,1.969,0,0,0,3.888.45.524.524,0,0,0,.019-.07c.014-.079.023-.158.032-.236a.4.4,0,0,0,0-.074v-.065A1.964,1.964,0,0,0,449.284,281.85Zm1.437,1.969c0,.023,0,.051,0,.07a1.008,1.008,0,0,1-.037.236c0,.019-.009.046-.014.069a1.425,1.425,0,0,1-2.8-.38,1.17,1.17,0,0,1,0-.125,1.924,1.924,0,0,1,.046-.269,1.59,1.59,0,0,1,.236-.468,1.541,1.541,0,0,1,.334-.315,1.362,1.362,0,0,1,.8-.25,1.433,1.433,0,0,1,1.432,1.418Z" transform="translate(-447.31 -281.85)"/><g transform="translate(13.953)"><path class="a" d="M479.57,281.859c-.065,0-.12-.009-.181-.009a2.049,2.049,0,0,0-1.033.3,1.764,1.764,0,0,0-.329.259,2.211,2.211,0,0,0-.255.292c-.037.051-.07.111-.1.167a1.91,1.91,0,0,0-.25.959,1.969,1.969,0,0,0,3.888.45c0-.023.009-.051.014-.07.014-.079.023-.158.032-.236a.4.4,0,0,0,0-.074v-.065A1.968,1.968,0,0,0,479.57,281.859Zm1.247,2.034a1.006,1.006,0,0,1-.037.236.416.416,0,0,1-.009.069,1.43,1.43,0,0,1-2.808-.38c0-.042,0-.079,0-.125a1.981,1.981,0,0,1,.056-.269,1.474,1.474,0,0,1,.232-.468,1.654,1.654,0,0,1,.334-.315,1.372,1.372,0,0,1,.8-.25,1.426,1.426,0,0,1,1.427,1.418Z" transform="translate(-477.42 -281.85)"/></g><g transform="translate(15.112 1.177)"><path class="a" d="M481.584,285.224a.854.854,0,0,1-.023.19.342.342,0,0,1-.019.065.831.831,0,0,1-1.622-.2v-.051a.811.811,0,0,1,.019-.185c0-.019.009-.032.014-.051a.852.852,0,0,1,.111-.236.831.831,0,0,1,1.511.375.35.35,0,0,1,0,.07A.059.059,0,0,1,481.584,285.224Z" transform="translate(-479.92 -284.39)"/></g><g transform="translate(1.145 1.177)"><path class="a" d="M451.444,285.224a.852.852,0,0,1-.023.19.342.342,0,0,1-.019.065.831.831,0,0,1-1.622-.2v-.051a.811.811,0,0,1,.019-.185c0-.019.009-.032.014-.051a.85.85,0,0,1,.111-.236.831.831,0,0,1,1.511.375.35.35,0,0,1,0,.07A.058.058,0,0,1,451.444,285.224Z" transform="translate(-449.78 -284.39)"/></g></g><g transform="translate(3.8 13.738)"><path class="a" d="M447.126,189.96a.287.287,0,0,1,0,.065l-.4,3.063a.447.447,0,0,1-.385.389.564.564,0,0,1-.125,0,.446.446,0,0,1-.389-.505l.4-3.068a.456.456,0,0,1,.51-.389.306.306,0,0,1,.13.042A.448.448,0,0,1,447.126,189.96Z" transform="translate(-445.819 -189.512)"/></g><g transform="translate(30.901 10.212)"><path class="a" d="M504.7,185.877h0a.455.455,0,0,1-.394-.51l.4-3.068a.455.455,0,0,1,.51-.394h0a.455.455,0,0,1,.394.51l-.4,3.068A.455.455,0,0,1,504.7,185.877Z" transform="translate(-504.302 -181.902)"/></g><g transform="translate(2.888 19.316)"><path class="a" d="M445.162,201.995a.285.285,0,0,1,0,.065l-.4,3.068a.438.438,0,0,1-.213.324.417.417,0,0,1-.292.065.457.457,0,0,1-.394-.51l.4-3.063a.453.453,0,0,1,.51-.389.419.419,0,0,1,.278.144A.456.456,0,0,1,445.162,201.995Z" transform="translate(-443.852 -201.549)"/></g><g transform="translate(9.38 15.957)"><g transform="translate(0 2.78)"><path class="a" d="M475.659,205.226,470.441,216.6l-1.705-16.3h-6.914l-3.962,22.633h4.4l3.119-17.989,1.761,17.989h4.337l6.858-15.246.38-2.428Zm3.415,2.952-2.836,14.755h4.226l2.683-14.755Z" transform="translate(-457.86 -200.3)"/></g><g transform="translate(18.17)"><path class="a" d="M505.55,197.252l.514-2.952h-4.083l-.524,2.952h-2.577l-1.812,3.9h3.707l-.524,2.933h4.087l.514-2.933h2.859l.69-3.9Z" transform="translate(-497.07 -194.3)"/></g></g></g><g transform="translate(476.35 212.964)"><g transform="translate(14.509 0)"><path class="b" d="M552.825,276.888l.171-.825a.077.077,0,0,0,0-.056l-.482-1.3h.227c.125.352.357.973.412,1.145.12-.181.6-.783.885-1.145h.236l-1.038,1.311a.13.13,0,0,0-.023.051l-.176.816Z" transform="translate(-552.51 -274.59)"/><path class="b" d="M559.36,276.589a.9.9,0,0,1-.82.992.55.55,0,0,1-.57-.626c0-.44.264-1.006.82-1.006A.564.564,0,0,1,559.36,276.589Zm-1.186.366c0,.278.139.454.389.454.408,0,.593-.463.593-.816,0-.287-.125-.468-.389-.468C558.373,276.126,558.174,276.589,558.174,276.956Z" transform="translate(-555.44 -275.255)"/><path class="b" d="M565.1,277.169c-.032.139-.06.3-.083.422h-.195a2.632,2.632,0,0,1,.051-.292.6.6,0,0,1-.537.32c-.283,0-.477-.153-.385-.584l.222-1.015h.195l-.213,1c-.046.218-.046.426.241.426.264,0,.491-.2.593-.672l.162-.751h.2Z" transform="translate(-558.638 -275.292)"/><path class="b" d="M569.922,276.446c.032-.153.065-.32.093-.463h.19c0,.042-.032.213-.06.348a.64.64,0,0,1,.561-.38l-.046.209a.728.728,0,0,0-.612.635l-.158.755h-.2Z" transform="translate(-561.729 -275.255)"/><path class="b" d="M578.543,276.229a.481.481,0,0,0,.547.473c.306,0,.519-.148.519-.436,0-.209-.093-.343-.468-.491s-.524-.3-.524-.547a.6.6,0,0,1,.681-.589c.477,0,.663.283.658.589h-.209a.41.41,0,0,0-.473-.408.393.393,0,0,0-.445.385c0,.162.069.264.412.394.45.171.584.366.584.635,0,.338-.218.644-.765.644a.649.649,0,0,1-.732-.653h.213Z" transform="translate(-566.365 -274.552)"/><path class="b" d="M584.853,276.784a1.211,1.211,0,0,0-.014.171c0,.3.148.454.385.454a.476.476,0,0,0,.449-.287h.2a.69.69,0,0,1-.681.459c-.385,0-.556-.259-.556-.616,0-.454.246-1.015.811-1.015a.5.5,0,0,1,.537.542,1.112,1.112,0,0,1-.037.287h-1.1Zm.931-.162a.611.611,0,0,0,.009-.13.323.323,0,0,0-.357-.371c-.26,0-.454.181-.542.5Z" transform="translate(-569.751 -275.255)"/><path class="b" d="M591.475,277.154c-.023.12-.065.32-.074.389h-.195c0-.06.028-.162.046-.264a.58.58,0,0,1-.552.3.382.382,0,0,1-.431-.394c0-.449.436-.542.737-.57.176-.014.32-.014.394-.018l.023-.121c.032-.162.019-.366-.315-.366a.394.394,0,0,0-.426.287h-.2a.589.589,0,0,1,.649-.454c.352,0,.565.167.491.528Zm-.107-.4c-.079,0-.19,0-.343.014-.264.023-.542.088-.542.389a.241.241,0,0,0,.273.241c.366,0,.524-.283.6-.621Z" transform="translate(-572.772 -275.249)"/><path class="b" d="M596.352,276.446c.032-.153.065-.32.093-.463h.19c0,.042-.032.213-.06.348a.64.64,0,0,1,.561-.38l-.046.209a.728.728,0,0,0-.612.635l-.158.755h-.2Z" transform="translate(-575.911 -275.255)"/><path class="b" d="M601.948,277.1a.683.683,0,0,1-.672.482c-.38,0-.556-.259-.556-.616,0-.477.264-1.015.8-1.015a.476.476,0,0,1,.524.524h-.195a.322.322,0,0,0-.348-.352c-.389,0-.575.454-.575.829,0,.329.153.463.38.463a.5.5,0,0,0,.445-.315Z" transform="translate(-578.379 -275.255)"/><path class="b" d="M606.96,274.455l-.213,1a.618.618,0,0,1,.542-.3c.213,0,.5.1.394.589l-.213,1.01h-.195l.2-.978c.06-.292,0-.445-.26-.445a.625.625,0,0,0-.565.561l-.185.857h-.2l.487-2.294h.2Z" transform="translate(-581.358 -274.45)"/><path class="b" d="M617.89,275.827h-1.029l-.181.88h1.177l-.07.181H616.43l.459-2.178h1.3l-.037.181H617.06l-.162.751h1.029Z" transform="translate(-586.809 -274.59)"/><path class="b" d="M622.735,276.386c.028-.139.056-.269.079-.4h.195c0,.051-.042.25-.056.3a.6.6,0,0,1,.547-.324c.3,0,.487.167.389.607l-.209.992h-.195l.2-.982c.056-.259,0-.436-.264-.436-.324,0-.51.31-.579.644l-.167.774h-.2Z" transform="translate(-590.056 -275.26)"/><path class="b" d="M630.238,274.455l-.394,1.854c-.032.148-.065.3-.088.44h-.19c0-.042.023-.162.046-.273a.582.582,0,0,1-.542.3c-.338,0-.5-.259-.5-.607,0-.454.269-1.024.816-1.024a.436.436,0,0,1,.449.273l.2-.969h.2Zm-1.46,1.7c0,.306.139.44.357.44.352,0,.537-.324.607-.681s-.037-.584-.361-.584C628.982,275.326,628.779,275.785,628.779,276.155Z" transform="translate(-593.324 -274.45)"/><path class="b" d="M634.655,277.085a.356.356,0,0,0,.4.329c.227,0,.357-.116.357-.283s-.111-.241-.343-.329c-.324-.12-.426-.236-.426-.412,0-.227.176-.44.538-.44.394,0,.533.232.528.445h-.2c-.014-.12-.07-.278-.352-.278-.185,0-.31.1-.31.25,0,.121.093.181.324.269.315.12.454.246.454.463,0,.3-.222.482-.6.482-.394,0-.565-.218-.57-.5Z" transform="translate(-596.484 -275.255)"/><path class="b" d="M644.65,274.455l-.213,1a.618.618,0,0,1,.542-.3c.213,0,.5.1.394.589l-.213,1.01h-.195l.2-.978c.06-.292,0-.445-.26-.445a.625.625,0,0,0-.565.561l-.185.857h-.2l.487-2.294h.2Z" transform="translate(-601.582 -274.45)"/><path class="b" d="M650.273,276.784a1.212,1.212,0,0,0-.014.171c0,.3.148.454.385.454a.476.476,0,0,0,.449-.287h.2a.69.69,0,0,1-.681.459c-.385,0-.556-.259-.556-.616,0-.454.246-1.015.811-1.015a.5.5,0,0,1,.537.542,1.115,1.115,0,0,1-.037.287h-1.1Zm.927-.162a.611.611,0,0,0,.009-.13.323.323,0,0,0-.357-.371c-.26,0-.454.181-.542.5Z" transform="translate(-604.855 -275.255)"/><path class="b" d="M655.982,276.446c.032-.153.065-.32.093-.463h.19c0,.042-.032.213-.06.348a.64.64,0,0,1,.561-.38l-.046.209a.728.728,0,0,0-.612.635l-.158.755h-.2Z" transform="translate(-607.908 -275.255)"/><path class="b" d="M660.563,276.784a1.211,1.211,0,0,0-.014.171c0,.3.148.454.385.454a.476.476,0,0,0,.449-.287h.2a.69.69,0,0,1-.681.459c-.385,0-.556-.259-.556-.616,0-.454.246-1.015.811-1.015a.5.5,0,0,1,.537.542,1.11,1.11,0,0,1-.037.287h-1.1Zm.927-.162a.611.611,0,0,0,.009-.13.323.323,0,0,0-.357-.371c-.26,0-.454.181-.542.5Z" transform="translate(-610.377 -275.255)"/></g><g transform="translate(0 1.186)"><rect class="b" width="12.767" height="0.269"/></g><g transform="translate(67.485 1.186)"><rect class="b" width="12.767" height="0.269"/></g></g><g transform="translate(476.387 193.172)"><g transform="translate(40.212 4.192)"><path class="a" d="M611.347,240.788a1.611,1.611,0,0,0-1.622,1.311L608.1,249.56a1.677,1.677,0,0,0,1.45,2.048,1.611,1.611,0,0,0,1.622-1.311l1.626-7.461A1.649,1.649,0,0,0,611.347,240.788Zm1.2,2.016-.825,3.712a2.75,2.75,0,0,1-2.3-.449l0,.028-.334,1.534-.334,1.534c-.051.25-.116.519-.158.76a1.665,1.665,0,0,0,.1.922,1.225,1.225,0,0,1-.352-.955c.051-.273.111-.514.162-.774l.334-1.534.334-1.534.023-.111.042-.2.755-3.545a1.338,1.338,0,0,1,1.348-1.089A1.37,1.37,0,0,1,612.543,242.8Z" transform="translate(-608.055 -240.786)"/></g><g transform="translate(0 0.829)"><path class="a" d="M533.634,242.274c.5-2.391,1.126-5.195,1.506-6.775h-.079c-1.228,2.836-3.508,7.651-5.663,12.03h-2.484c-.195-3.448-.528-9.412-.519-12.067H526.3c-.222,1.622-.811,4.643-1.316,7.048l-1.061,5.023H521.28l2.97-14h4.314c.218,3.411.445,8.2.445,10.274h.023c.741-1.9,3.091-6.451,4.926-10.274h4.324l-2.97,14h-2.79Z" transform="translate(-521.28 -233.53)"/></g><g transform="translate(17.317 4.11)"><path class="a" d="M561.5,246.694a3.153,3.153,0,0,0-.065.63c0,1.117.417,2.076,1.664,2.076a2.033,2.033,0,0,0,1.965-1.274h2.873a5.008,5.008,0,0,1-5.074,3.406c-2.827,0-4.208-1.775-4.208-4.319,0-2.771,1.52-6.6,5.7-6.6,3.1,0,4.175,1.891,4.175,4.041a7.064,7.064,0,0,1-.278,2.044Zm4.342-1.84a2.13,2.13,0,0,0,.046-.468,1.5,1.5,0,0,0-1.622-1.7c-1.265,0-2.039.811-2.4,2.169Z" transform="translate(-558.65 -240.61)"/></g><g transform="translate(28.467)"><path class="a" d="M594.87,231.74l-2.526,11.979c-.2.959-.426,1.9-.589,2.85h-2.669a9.423,9.423,0,0,1,.167-1.247,3.474,3.474,0,0,1-3.049,1.45c-2.247,0-3.494-1.6-3.494-4.171,0-3.207,1.937-6.752,5.584-6.752a3.023,3.023,0,0,1,2.7,1.108l1.112-5.218ZM585.6,242.292c0,1.4.547,2.187,1.705,2.187,1.687,0,2.572-1.432,2.97-3.559.348-1.789-.153-2.771-1.7-2.771C586.644,238.144,585.6,240.415,585.6,242.292Z" transform="translate(-582.71 -231.74)"/></g><g transform="translate(45.589 4.106)"><path class="a" d="M621.254,243.756c.2-.992.422-2.007.589-2.952h2.706c-.037.25-.111.811-.2,1.223a3.412,3.412,0,0,1,2.924-1.427c1.488,0,2.2.663,2.4,1.691A4.2,4.2,0,0,1,633.1,240.6c1.784,0,3.133,1.015,2.521,3.869l-1.455,6.849h-2.688l1.381-6.5c.2-.95.158-1.928-1.145-1.928-1.26,0-1.83.908-2.164,2.507l-1.256,5.918h-2.725l1.39-6.548c.213-1.006.046-1.858-1.126-1.858-1.233,0-1.867.857-2.238,2.637l-1.214,5.769H619.66Z" transform="translate(-619.66 -240.6)"/></g><g transform="translate(62.689 4.115)"><path class="a" d="M665.689,248.757c-.232,1.084-.459,2.266-.468,2.577h-2.688c.023-.3.093-.848.148-1.186a3.452,3.452,0,0,1-3.179,1.39,2.7,2.7,0,0,1-2.943-2.7c0-2.929,2.563-3.707,4.88-3.962.876-.083,1.691-.083,2.349-.1l.093-.491c.153-.76.158-1.752-1.335-1.752a1.662,1.662,0,0,0-1.789,1.223h-2.818c.4-1.691,1.566-3.137,4.833-3.137,2.558,0,4.444,1.057,3.851,3.818Zm-2.294-2.15a15.906,15.906,0,0,0-1.816.12c-1.552.232-2.159.746-2.159,1.631,0,.607.394,1.08,1.284,1.08,1.9,0,2.386-1.548,2.651-2.665Z" transform="translate(-656.56 -240.62)"/></g><g transform="translate(73.926)"><path class="a" d="M680.81,246.569l3.133-14.829H686.7l-3.133,14.829Z" transform="translate(-680.81 -231.74)"/></g><g transform="translate(79.311)"><path class="a" d="M692.43,246.569l3.133-14.829h2.762l-3.133,14.829Z" transform="translate(-692.43 -231.74)"/></g><g transform="translate(42.88 0.031)"><g transform="translate(0 1.358)"><path class="a" d="M616.638,235.226l-2.748-.487a.067.067,0,0,0-.074.051,1.489,1.489,0,0,0,1.14,1.5l.111.019a1.481,1.481,0,0,0,.927-.171,1.521,1.521,0,0,0,.686-.839A.05.05,0,0,0,616.638,235.226Z" transform="translate(-613.813 -234.739)"/></g><g transform="translate(0.069)"><path class="a" d="M614.012,232.911l2.757.487a.067.067,0,0,0,.074-.051,1.485,1.485,0,0,0-1.149-1.506l-.111-.019a1.465,1.465,0,0,0-.931.171,1.482,1.482,0,0,0-.686.843A.055.055,0,0,0,614.012,232.911Z" transform="translate(-613.961 -231.807)"/></g></g></g></g><text class="c" transform="translate(-13020 -15657)"><tspan x="0" y="0">Career</tspan></text><text class="d" transform="translate(-13022 -15674)"><tspan x="-3.615" y="0">TM</tspan></text></g></svg>