<svg xmlns="http://www.w3.org/2000/svg" width="25.154" height="24.145" viewBox="0 0 25.154 24.145">
  <g id="medicine_1_" data-name="medicine (1)" transform="translate(0 -10.27)">
    <g id="Group_13996" data-name="Group 13996" transform="translate(9.519 12.104)">
      <g id="Group_13995" data-name="Group 13995" transform="translate(0 0)">
        <path id="Path_49600" data-name="Path 49600" d="M196.889,47.979a.491.491,0,0,0-.6-.354A3.974,3.974,0,0,0,193.81,49.5a.491.491,0,1,0,.851.491,3,3,0,0,1,1.874-1.411A.491.491,0,0,0,196.889,47.979Z" transform="translate(-193.744 -47.609)" fill="#fff"/>
      </g>
    </g>
    <g id="Group_13998" data-name="Group 13998" transform="translate(13.148 12.039)">
      <g id="Group_13997" data-name="Group 13997" transform="translate(0 0)">
        <path id="Path_49601" data-name="Path 49601" d="M268.215,46.3l-.023,0a.494.494,0,1,0,.023,0Z" transform="translate(-267.628 -46.286)" fill="#fff"/>
      </g>
    </g>
    <g id="Group_14000" data-name="Group 14000" transform="translate(0 10.27)">
      <g id="Group_13999" data-name="Group 13999" transform="translate(0 0)">
        <path id="Path_49602" data-name="Path 49602" d="M22.647,24.642c-.362-.1-.753-.195-1.167-.274a.5.5,0,0,0-.072-.013,22.663,22.663,0,0,0-4.075-.347c-.811,0-1.6.038-2.353.109l3.036-5.258A5.727,5.727,0,0,0,8.1,13.132L4.431,19.479v0L.765,25.829A5.721,5.721,0,0,0,5.71,34.415a5.772,5.772,0,0,0,4.139-1.751,4.557,4.557,0,0,0,2.166,1.118,20.2,20.2,0,0,0,5.318.632,20.2,20.2,0,0,0,5.318-.632c1.661-.475,2.5-1.132,2.5-1.953V26.6s0,0,0,0C25.154,25.774,24.311,25.117,22.647,24.642Zm-5.314.349c.773,0,1.527.035,2.24.1l-6.241,2.754c-.37-.072-.72-.154-1.043-.246-1.472-.421-1.795-.87-1.795-1.007s.322-.587,1.795-1.007A19.189,19.189,0,0,1,17.333,24.991ZM8.946,13.624a4.745,4.745,0,0,1,8.218,4.745l-3.407,5.9-.04.006L5.527,19.546Zm.565,12.968v4.957A4.78,4.78,0,0,1,3.353,32.8,4.76,4.76,0,0,1,1.616,26.32L5.036,20.4l7.233,4.177c-.085.022-.168.045-.25.068C10.357,25.117,9.513,25.772,9.511,26.591Zm14.66,5.238c0,.138-.322.589-1.791,1.009a19.212,19.212,0,0,1-5.048.595,19.213,19.213,0,0,1-5.048-.595c-1.469-.42-1.791-.87-1.791-1.009V27.935a6.745,6.745,0,0,0,1.525.611c.385.11.805.206,1.25.289a.487.487,0,0,0,.066.012,22.794,22.794,0,0,0,4,.333,20.178,20.178,0,0,0,5.314-.634,6.745,6.745,0,0,0,1.525-.61Zm0-5.236h0c0,.139-.327.587-1.795,1.006a19.19,19.19,0,0,1-5.044.6c-.74,0-1.462-.032-2.148-.094l6.226-2.748c.342.068.666.145.966.231,1.47.42,1.794.868,1.795,1.007Z" transform="translate(0 -10.27)" fill="#fff"/>
      </g>
    </g>
  </g>
</svg>
