<svg xmlns="http://www.w3.org/2000/svg" width="138.771" height="94.828" viewBox="0 0 138.771 94.828"><defs><style>.a{fill:#eaeaea;}.b{fill:#466eb6;}.c{fill:#86b1f2;}.d{fill:#9bc1f9;}.e{fill:#f7cc7f;}.f{fill:#f47458;}.g{fill:#fae0b2;}.h{fill:#fe978e;}.i{fill:#ff7446;}.j{fill:#001653;}.k{fill:#fff;}.l{fill:#957447;}.m{fill:#f8a492;}.n{fill:#00a9e9;}.o{fill:#021f6e;}.p{fill:#021753;}.q{fill:#5d70a2;}.r{fill:#01b9ff;}.s{fill:#ef8f7b;opacity:0.6;}.t{fill:#00424c;}.u{fill:#fcc332;}.v{fill:#f29913;}.w{fill:#50bfa5;}.x{fill:#100062;}.y{fill:#0c004a;}.z{fill:#f29783;}.aa{fill:#f7a491;}.ab{fill:#184655;}.ac{fill:#355389;}.ad{fill:#3c8f7c;}.ae{fill:#fe875e;}.af{fill:#13375b;}.ag{fill:#96d9c9;}</style></defs><g transform="translate(0)"><rect class="a" width="38.177" height="87.829" transform="translate(46.7 93.017) rotate(180)"/><g transform="translate(8.634 0)"><rect class="b" width="2.496" height="93.042" transform="translate(25.584 93.042) rotate(180)"/><g transform="translate(0 0.001)"><path class="c" d="M78.624,449.47c0,.236.017,93,.017,93H55.534V454.6Z" transform="translate(-55.534 -449.47)"/><path class="d" d="M100.231,586.572l.114,24.562a2.365,2.365,0,0,1,.289-.018,2.331,2.331,0,0,1,2.327,2.32l12.824-1.578a2.331,2.331,0,0,1,2.046-2.324l-.115-25.708a2.327,2.327,0,0,1-2.815-2.269l-12.822,2.725A2.331,2.331,0,0,1,100.231,586.572Zm.9.635a3.253,3.253,0,0,0,1.758-2.181l11.3-2.4a3.238,3.238,0,0,0,2.634,2.125l.108,24.1a3.234,3.234,0,0,0-1.944,2.208l-11.29,1.39a3.241,3.241,0,0,0-2.459-2.166Z" transform="translate(-97.586 -573.741)"/><path class="d" d="M100.9,1381.047l.052,29.273h0a2.331,2.331,0,0,1,2.331,2.327l3.351-.006a2.331,2.331,0,0,1,2.327-2.331v-29.561q-.1.009-.2.009a2.331,2.331,0,0,1-2.327-2.331l-3.4.293A2.331,2.331,0,0,1,100.9,1381.047Zm.9.711a3.268,3.268,0,0,0,2.02-2.205l1.866-.161a3.237,3.237,0,0,0,2.384,2.188v27.962a3.243,3.243,0,0,0-2.2,2.2l-1.813,0a3.243,3.243,0,0,0-2.208-2.2Z" transform="translate(-98.22 -1323.457)"/><path class="d" d="M262.431,1367.716v30.08h0a2.331,2.331,0,0,1,2.331,2.331l2.737,0a2.331,2.331,0,0,1,2.327-2.313l.232-30.331q-.1.009-.2.009a2.331,2.331,0,0,1-2.327-2.349l-2.969.256A2.331,2.331,0,0,1,262.431,1367.716Zm.9.716a3.2,3.2,0,0,0,2.024-2.206l1.422-.122a3.24,3.24,0,0,0,2.384,2.2l-.219,28.733a3.253,3.253,0,0,0-2.2,2.187l-1.2,0a3.24,3.24,0,0,0-2.208-2.2Z" transform="translate(-250.188 -1310.954)"/></g></g><g transform="translate(22.886 43.8)"><ellipse class="e" cx="0.941" cy="1.826" rx="0.941" ry="1.826" transform="translate(2.621 0.926)"/><path class="f" d="M325.767,1225.282v1.44h1.973a3.313,3.313,0,0,0,.091-.784,3.35,3.35,0,0,0-.063-.656Z" transform="translate(-324.028 -1223.173)"/><path class="g" d="M302.809,1192.392c0,1.52.635,2.752,1.419,2.752s1.419-1.232,1.419-2.752-.635-2.752-1.419-2.752S302.809,1190.872,302.809,1192.392Z" transform="translate(-302.428 -1189.64)"/><ellipse class="g" cx="1.419" cy="2.752" rx="1.419" ry="2.752" transform="translate(0 0)"/></g><g transform="translate(0 92.98)"><path class="h" d="M-89.746,2022.6H47.761c.349,0,.632-.413.632-.924s-.283-.924-.632-.924H-89.746c-.349,0-.632.414-.632.924S-90.1,2022.6-89.746,2022.6Z" transform="translate(90.378 -2020.756)"/></g><g transform="translate(88.611 17.134)"><path class="i" d="M1947.763,1880.682s.01.089.01.236a3.136,3.136,0,0,1-.779,2.14c-.924.961-.929,2.156.047,2.36a15.534,15.534,0,0,0,3.3-.065s.526-.914.167-3.356-.568-5.12-.568-5.12l-2.651-.414Z" transform="translate(-1914.398 -1809.156)"/><path class="j" d="M1940.413,1963.179a15.127,15.127,0,0,0-1.214,1.892,3.522,3.522,0,0,0,0,2.084c1.59,1.256,4.605.126,4.605.126a17.969,17.969,0,0,0,.312-2.051c.1-1.13.046-2.183-.312-2.183s-.42.593-1.237.425A4.778,4.778,0,0,0,1940.413,1963.179Z" transform="translate(-1907.567 -1890.616)"/><path class="k" d="M1944.056,2009.449a10.558,10.558,0,0,1-2.219.63,5.79,5.79,0,0,1-2.777-.619,2.7,2.7,0,0,0,.141,1.352c1.59,1.255,4.606.125,4.606.125S1943.948,2010.307,1944.056,2009.449Z" transform="translate(-1907.568 -1934.272)"/><path class="l" d="M1944.276,2009.449c-2.282.686-2.7.807-5,.011a6.981,6.981,0,0,0,1.2.507,3.419,3.419,0,0,0,1.953.126A8.457,8.457,0,0,0,1944.276,2009.449Z" transform="translate(-1907.788 -1934.272)"/><path class="m" d="M1506.566,1109.238c.653.245,1.518.61,1.518.61.112-.269-2.043-.73-2.345-1.386-.162-.351,2.472.941,2.655.787.076-.064-2.979-1.058-2.838-1.3.118-.2,3.212.889,3.229.738.024-.21-2.679-.752-2.437-1.054a31.615,31.615,0,0,1,3.758.784c.433,0-1.134-1.064-.6-1.207.725-.193,2.545,1.893,2.687,1.923.412.085,3.92.515,5.638-.609a7.438,7.438,0,0,0,3.063-3.5,8.28,8.28,0,0,0,.388-4.159,17.044,17.044,0,0,1,4.665-.1c.1,1.949-2.237,9.673-3.213,10.309-2.147,1.4-5.977,1.056-8.677.834a16.691,16.691,0,0,1-6.268-1.6,4.546,4.546,0,0,1-1.364-.858A.128.128,0,0,1,1506.566,1109.238Z" transform="translate(-1499.725 -1079.247)"/><path class="n" d="M1756.153,956.668c-1.163,1.2-2.338,8.4-1.905,10.114.746,1.394,4.126,1.634,5.219,2.295,2.521-1.037.794-5.686.794-5.686l.919-9.056A7.8,7.8,0,0,0,1756.153,956.668Z" transform="translate(-1733.619 -941.594)"/><path class="i" d="M1749.963,1893.588a2.766,2.766,0,0,1-.878,2.988,4.64,4.64,0,0,1-1.058.653c-1.544.675-3.545.523-3.824,1.91s9.793-.389,9.793-.389-.7-3.373-.744-3.938.062-2.64.062-2.64l-3.89-.279Z" transform="translate(-1724.249 -1823.672)"/><path class="j" d="M1751.348,1956.588s.123.536.405,1.444a3.938,3.938,0,0,1,.106,1.763s-9.434.447-9.816.148-.186-1.386-.089-1.483,1.294-.42,1.908-.8,2.711-1.812,3.419-1.754,1.036.581,2.381.641S1751.014,1956.327,1751.348,1956.588Z" transform="translate(-1722.011 -1883.897)"/><path class="k" d="M1742.044,2000.558c.382.3,9.816-.148,9.816-.148a3.952,3.952,0,0,0,.009-1.257,29.929,29.929,0,0,1-9.914-.078C1741.858,1999.171,1741.662,2000.259,1742.044,2000.558Z" transform="translate(-1722.011 -1924.512)"/><path class="l" d="M1754.045,1999.153a25.737,25.737,0,0,1-9.914-.078,34.515,34.515,0,0,0,8.989.2Z" transform="translate(-1724.187 -1924.512)"/><path class="o" d="M1761.393,1304.846c1.619,5.918-.391,32.468-.391,32.468l-4.846-.332s-1.1-26.411-1.9-27.211a.488.488,0,0,0-.678-.027,1.05,1.05,0,0,0-.4.563c-.5,1.63-3.349,11.116-2.774,13.193.629,2.274,3.437,14.46,3.437,14.46l-4.066.162s-5.575-9.309-5.575-15.808.907-15.114,3.541-18.619c1.2-1.6,7.1-2.83,7.1-2.83S1760.887,1303,1761.393,1304.846Z" transform="translate(-1724.249 -1267.619)"/><g transform="translate(24.873 35.999)"><path class="p" d="M1830.951,1471.986s-2.808-12.993-3.437-15.418c-.457-1.761,1.252-8.517,2.222-12.085a1.558,1.558,0,0,1,2.456-.824h0s-4.1,11.6-3.476,13.878,3.437,14.46,3.437,14.46l-4.066.162-.03-.05Z" transform="translate(-1827.438 -1437.654)"/><path class="p" d="M2008.5,1347.364a2.686,2.686,0,0,1,1.006,1.228c1.618,5.919-.391,32.468-.391,32.468l-1.2-.082C2007.985,1380.018,2009.724,1355.028,2008.5,1347.364Z" transform="translate(-1997.237 -1347.364)"/></g><path class="p" d="M1788.309,1341.688a9.034,9.034,0,0,1,.931-1.587,2.593,2.593,0,0,1,.591-.54,18.233,18.233,0,0,0,2.893,1.116,17.613,17.613,0,0,0,9.813-.048,1.684,1.684,0,0,1,.357.623,13.583,13.583,0,0,1,.343,1.975c-.869.646-5.919,2.207-10.514.745C1789.808,1343.043,1788.721,1342.481,1788.309,1341.688Z" transform="translate(-1765.751 -1304.024)"/><path class="q" d="M1941.449,1903.21a11.6,11.6,0,0,1-4.944,0c-.658-.279-.7-2.727,0-2.86a23.174,23.174,0,0,1,4.944,0C1942.156,1900.451,1942.129,1902.989,1941.449,1903.21Z" transform="translate(-1904.698 -1831.504)"/><path class="q" d="M1816.924,1884.73a11.6,11.6,0,0,1-4.944,0c-.658-.279-.7-2.727,0-2.86a23.161,23.161,0,0,1,4.944,0C1817.631,1881.972,1817.6,1884.51,1816.924,1884.73Z" transform="translate(-1787.541 -1814.118)"/><path class="r" d="M1787.306,947s4.041-.208,5.693,1.749,1.517,22.518.848,23.092-6.412,2.307-10.973.957-4.852-3.2-4.852-3.2,1.214-13.827,1.214-17.607S1782.926,945.978,1787.306,947Z" transform="translate(-1756.073 -934.456)"/><path class="n" d="M1958.947,983.249c.357-.993-.025-4.151-.432-6.435-.318.061-.624.133-.913.217a36.05,36.05,0,0,1-.933-7.9c-.027-4.625,2.314-5.97,2.314-5.97.464-.106,1.206.331,2.367,1.539,1.341,3.667,1.06,20.73.432,21.269-.268.23-.792,1.672-2.143,1.958C1959.288,986.549,1958.616,984.167,1958.947,983.249Z" transform="translate(-1924.149 -949.883)"/><path class="n" d="M1864.67,946.668c.876.805.944.821.034,1.878s-3.925,2.258-4.354,2.055c-1.067-.5-.074-2.185.636-3.395C1861.207,946.829,1863.793,945.863,1864.67,946.668Z" transform="translate(-1833.088 -934.087)"/><path class="m" d="M1872.957,795.76s-.236,5.565,0,5.808,3.618-.934,3.913-1.625-1.232-10.75-1.232-10.75Z" transform="translate(-1845.291 -786.223)"/><path class="s" d="M1872.9,823.954a2.809,2.809,0,0,0,1.264-.431c1.38-1.558.346-4.087.454-4.745.216-1.309.655-2.39.435-3.518L1873,820.285S1872.917,822.3,1872.9,823.954Z" transform="translate(-1845.337 -810.749)"/><g transform="translate(0 11.527)"><path class="t" d="M1567.222,1001.474c-.23.579.248,1.141.749.892a.541.541,0,0,0,.256-.286c.231-.58-.248-1.142-.749-.893A.542.542,0,0,0,1567.222,1001.474Z" transform="translate(-1557.691 -997.142)"/><path class="t" d="M1557.719,938.406l.171.24.1-.287c.135-.375,1.284-3.683.016-4.435a.666.666,0,0,0-.968.2C1556.486,934.916,1556.658,936.919,1557.719,938.406Zm-.425-4.052a.35.35,0,0,1,.44-.158.71.71,0,0,1,.128.061c.771.458.285,2.566-.063,3.652A3.974,3.974,0,0,1,1557.293,934.354Z" transform="translate(-1547.877 -933.796)"/><g transform="translate(10.002 2.107)"><path class="t" d="M1576.119,971.726l.265.057a3.393,3.393,0,0,0,.715.076,2.6,2.6,0,0,0,2.454-1.311.827.827,0,0,0-.289-.974c-1.056-.821-2.783,1.626-2.977,1.908Zm.6-.264c.494-.656,1.409-1.68,2.049-1.68a.489.489,0,0,1,.31.1.427.427,0,0,1,.17.521A2.488,2.488,0,0,1,1576.724,971.462Z" transform="translate(-1576.119 -969.407)"/></g><path class="u" d="M7.187,0h4.675a7.187,7.187,0,0,1,7.187,7.187v0a7.187,7.187,0,0,1-7.187,7.187H7.187A7.187,7.187,0,0,1,0,7.187v0A7.187,7.187,0,0,1,7.187,0Z" transform="translate(19.049 19.059) rotate(180)"/><path class="v" d="M1408.344,1012.965h5.953v14.374h-5.953c-.688,0-1.247-.892-1.247-1.992v-10.39C1407.1,1013.857,1407.656,1012.965,1408.344,1012.965Z" transform="translate(-1407.098 -1008.28)"/><path class="t" d="M1619.261,1012.965h.47c2.541,4.587.984,12.622.6,14.374h-.367c.263-1.18,2.078-9.92-.682-14.332A.278.278,0,0,1,1619.261,1012.965Z" transform="translate(-1606.706 -1008.28)"/><path class="t" d="M1458.8,1027.285a.454.454,0,0,1,0,.054h-.348c-1.025-8.189.106-12.521.87-14.374h.431C1459.058,1014.513,1457.725,1018.781,1458.8,1027.285Z" transform="translate(-1455.028 -1008.28)"/></g><g transform="translate(31.362 37.608)"><path class="w" d="M4.259,0H8.421A4.259,4.259,0,0,1,12.68,4.259v0A4.258,4.258,0,0,1,8.422,8.517H4.258A4.258,4.258,0,0,1,0,4.259v0A4.259,4.259,0,0,1,4.259,0Z" transform="translate(12.951 8.517) rotate(180)"/><rect class="k" width="10.74" height="6.555" transform="translate(11.495 7.536) rotate(180)"/><rect class="v" width="1.132" height="3.748" rx="0.566" transform="translate(1.132 6.133) rotate(180)"/></g><path class="m" d="M1998.918,1126.917c-.8,2.432,2.016,7.694.872,9.378a2.944,2.944,0,0,0,.818,4.329c1.386.876,3.108-.352,2.969-1.019l-.684-3.285c-.171-.821,3.052-7.4.783-11.392-1.346-2.368.644-6.443-.407-9.077-.941,1.754-5.4.658-5.14,2.582C1998.536,1120.077,1999.367,1125.55,1998.918,1126.917Z" transform="translate(-1963.146 -1093.552)"/><path class="m" d="M1831.854,798.428a15.665,15.665,0,0,0-.58,3.635c0,1.638.039,4.474,1.2,4.474a2.9,2.9,0,0,0,3.209-2.636c.387-2.317,0-4.873-1.16-5.472A3.679,3.679,0,0,0,1831.854,798.428Z" transform="translate(-1806.174 -794.661)"/><path class="x" d="M1818.932,765.265a.431.431,0,0,1,.575.491c-.1.547-.072,1.147.44,1.272.986.241,1.452,0,1.613.167s-.466,1.055,0,1.222.717-1.426,1.129-1.426.5,2.3,0,2.814.072,1.222.735,1.222-.084.833.81,1.111,1.61.278,1.9-.852a6.451,6.451,0,0,1,.681-3.882,8.54,8.54,0,0,0-.723-1.642,15.458,15.458,0,0,1-.586-1.975c-.126-.722-1.9-1.444-3.12-1.574s-.608-.87-1.63-.87-1.162,1.349-1.162,1.349a14.7,14.7,0,0,0-1.527-.831c-.849.517-.143,1.426-.143,1.426a1.051,1.051,0,0,0-.842.981c-.143.907.448,1.463,1.38,1.166C1818.636,765.381,1818.793,765.323,1818.932,765.265Z" transform="translate(-1792.799 -760.023)"/><path class="y" d="M1831.591,771.834a5.148,5.148,0,0,1,.7.167c.437.243.969.561.969.561a24.017,24.017,0,0,1,3,1.053,33.556,33.556,0,0,1,3.447,1.862c.034.1.055.154.055.154s.218.388.419.824a25.41,25.41,0,0,1-4.445-1.741A14.006,14.006,0,0,1,1831.591,771.834Z" transform="translate(-1806.467 -769.891)"/><path class="z" d="M1899.135,845.848s.493-.908.932-.4.208,2.648-.466,2.648S1898.9,846.422,1899.135,845.848Z" transform="translate(-1869.892 -839.004)"/><path class="r" d="M1972.224,962.363s-1.374,1.046-1.349,5.671a39.868,39.868,0,0,0,1.183,8.154,11.358,11.358,0,0,1,6.351,0,32.147,32.147,0,0,0-.58-7.715C1977.04,965.052,1974.188,961.581,1972.224,962.363Z" transform="translate(-1937.514 -949.041)"/><path class="r" d="M1851.585,741.189a3.883,3.883,0,0,1,7.01,3.341c-.035.074-.073.145-.113.216l-6.995-3.334C1851.518,741.337,1851.55,741.263,1851.585,741.189Z" transform="translate(-1825.192 -739.005)"/><path class="n" d="M1853.039,742.064c.03-.075.062-.149.1-.223a3.854,3.854,0,0,1,4.181-2.12,3.935,3.935,0,0,0-.572-.334,3.865,3.865,0,0,0-5.16,1.8c-.035.074-.067.148-.1.223l6.995,3.334C1858.5,744.723,1853.039,742.064,1853.039,742.064Z" transform="translate(-1825.192 -739.005)"/><path class="n" d="M1798.667,755.949a39.187,39.187,0,0,1,6.045,2.439c2.328,1.11,4.155,2.136,4.081,2.292a22.935,22.935,0,0,1-6.265-1.86A9.964,9.964,0,0,1,1798.667,755.949Z" transform="translate(-1775.495 -754.936)"/></g><g transform="translate(38.132 16.69)"><path class="aa" d="M563.088,1882.586s-.823.814-.842,1.113-.073,3.5.263,3.8,1.323.51,1.006.847c-.24.254-2.085.2-3.307.132-.357-.02-.8-2.906-.946-3.331-.205-.616-.854-2.166-.667-2.6.091-.209.676-.477,1.289-.878a5.65,5.65,0,0,0,1.262-1.362Z" transform="translate(-558.293 -1812.328)"/><path class="aa" d="M805.1,1951.884s-.737,2.109-.737,2.114c-.055.334-.27,1.16-.27,1.463,0,1.141,5.077-.969,3.939-1.474a1.222,1.222,0,0,1-.46-.8,2.7,2.7,0,0,1,.428-1.349Z" transform="translate(-789.291 -1879.627)"/><g transform="translate(2.066 31.696)"><path class="ab" d="M602.257,1284.934,599.629,1288l-2.577,16.042-8.111,14.965s1.22,1.872,2.529,2.167l11.512-15.125,6.239-18.935-.219-4.207Z" transform="translate(-588.941 -1281.974)"/><path class="ac" d="M779,1267.139l1.817,5.6s1.6,16.69,1.372,17.84c-.555,2.8-6.162,18.077-6.162,18.077l-3.592-.458,3.943-18.057-6.569-16.964Z" transform="translate(-759.107 -1267.139)"/></g><path class="m" d="M895.838,936.617a2.771,2.771,0,0,0-.777,1.167,23.615,23.615,0,0,1-2.6.664s-7.255,1.6-7.65,1.67l-7.526-1.712-1.832,3.647s8.233,1.635,8.677,1.642,10-3.348,10.847-3.615c0,0,1.131.074,1.843.1a5.753,5.753,0,0,0,1.593-.314,6.069,6.069,0,0,0,1.468-.516c.667-.331-.115-.338-.115-.338s-1.345.381-1.357.265c-.009-.09.738-.252,1.48-.611.191-.092.379-.184.551-.269.452-.225.445-.58-.064-.424a4.839,4.839,0,0,0-.678.257,3.982,3.982,0,0,1-.649.2,5.244,5.244,0,0,1-.671.2c0-.026-.09-.058.109-.162a12.225,12.225,0,0,0,1.147-.487c.192-.121.609-.348.609-.348s.7-.454.627-.548c-.148-.205-.634,0-.874.2a3.258,3.258,0,0,0-.648.3s-.985.3-1.03.158a6.842,6.842,0,0,1,1-.7c.536-.372.905-.667.854-.786-.081-.191-.534.074-.534.074s-.4.233-.537.3c-.162.078-.665.274-.665.274a8.069,8.069,0,0,1-1.813.455.96.96,0,0,1,.124-.612c.1-.077.349-.119.446-.2s.292-.263.209-.4-.824.045-.824.045A1.96,1.96,0,0,0,895.838,936.617Z" transform="translate(-856.436 -923.993)"/><path class="ad" d="M777.581,956.806s-.259,1.6-.426,2.19c-.138.491-1.112,2.513-1.112,2.513s-3.49-1.144-5.139-1.8c-2-.794-4.313-2.5-4.163-2.72a3.7,3.7,0,0,1,2.061-1.556C772.124,954.6,777.581,956.806,777.581,956.806Z" transform="translate(-754.148 -942.007)"/><path class="w" d="M759.435,973.47c-3.329,1.314-11.155.556-11.155.556s.5-3.417.671-5.724-1.293-5.958-1.914-12.294c-.131-1.344.394-4.973,2.278-6.112a3.117,3.117,0,0,1,1.067-.452,10.836,10.836,0,0,1,3.906-.121,11.049,11.049,0,0,1,2.206,2.416,22.257,22.257,0,0,1,1.772,3.767c.759,2.513,1.081,9.788,1.081,11.16S759.435,973.47,759.435,973.47Z" transform="translate(-735.599 -936.29)"/><path class="aa" d="M809.953,891.637s-.005,0-.009,0c-1.279.4-6.1-2.285-6.1-2.285l0-.014.585-3.827s3.012-.709,2.837.379a11.026,11.026,0,0,0,.408,3.259c.019.02.044.042.075.069A11.05,11.05,0,0,1,809.953,891.637Z" transform="translate(-789.057 -876.187)"/><path class="ae" d="M815.811,885.9c.175-1.087-2.837-.378-2.837-.378l-.049.318a1.77,1.77,0,0,0,.327.535,3.978,3.978,0,0,0,2.634,1.184A5.887,5.887,0,0,1,815.811,885.9Z" transform="translate(-797.605 -876.194)"/><g transform="translate(12.173 0)"><path class="aa" d="M799.9,769.045c-.092-.033-.739,4.737.489,6.05s3.62,1.742,4.478.708c.949-1.143.9-6.27-1.008-7.621S799.9,769.045,799.9,769.045Z" transform="translate(-797.288 -765.601)"/><path class="af" d="M765.593,731.531a5.308,5.308,0,0,0-2.783,1.576c-.67.078-1.581.446-2.521,1.993a3.852,3.852,0,0,0,1.044,5.043,3.025,3.025,0,0,1,1.331,2.234s2.281-1.171,2.059-2.974c-.093-.757-.421-.928-.175-1.521a8.855,8.855,0,0,0,.112-2.4l.137-.524a2.645,2.645,0,0,1,1.89-.53C767.621,734.636,767.487,731.148,765.593,731.531Z" transform="translate(-759.747 -731.502)"/><path class="aa" d="M827.213,830.983c.01.582-.109,1.048-.447,1.054s-.434-.222-.714-1.043c-.263-.77.056-1.059.395-1.064S827.2,830.4,827.213,830.983Z" transform="translate(-822.038 -824.105)"/></g><path class="ad" d="M555.663,1902.985s1.719,5.281,2.461,5.542c.2.069,1.321.378,1.5.8a.219.219,0,0,1,.011.038.442.442,0,0,1-.443.517H555.67s-.5-2.385-.7-3.433a15.708,15.708,0,0,1-.93-2.793C554.159,1903.425,555.663,1902.985,555.663,1902.985Z" transform="translate(-554.033 -1833.664)"/><path class="ad" d="M799.208,1989.827l.581-1.862a4.99,4.99,0,0,0,1.831.437,18.329,18.329,0,0,0,1.8-.437c2.437.813,4.433,1.208,4.07,1.862h-8.285Z" transform="translate(-784.7 -1913.615)"/><path class="m" d="M867.014,1033.2a6.532,6.532,0,0,0-1.2.845,26.874,26.874,0,0,1-2.837-.018s-7.856-.293-8.28-.324l-7.245-3.514-2.855,3.016s7.989,3.618,8.441,3.736,11.132-.688,12.075-.729c0,0,1.138.353,1.861.552a6.54,6.54,0,0,0,1.715.1,6.9,6.9,0,0,0,1.641-.124c.772-.149-.026-.351-.026-.351a6.244,6.244,0,0,1-1.46-.088c.015-.087.823-.055,1.679-.211.22-.04.437-.08.637-.119.523-.1.612-.441.048-.42a5.461,5.461,0,0,0-.763.075,4.511,4.511,0,0,1-.719.029,5.557,5.557,0,0,1-.717.025c.012-.023-.1-.077.131-.127.279-.059.9-.059,1.3-.177.229-.067.717-.179.717-.179a4.013,4.013,0,0,0,.574-.391c-.021-.248-.434-.13-.734,0a3.675,3.675,0,0,0-.743.12s-1.09.043-1.1-.107c0-.057.626-.1,1.274-.306.742-.236.926-.569.905-.7-.032-.2-.451-.013-.451-.013a6.384,6.384,0,0,1-.732.29,12.751,12.751,0,0,1-2.63-.063c.006-.142.242-.329.363-.378s.35-.115.471-.164a.422.422,0,0,0,.155-.447c-.049-.148-.582-.068-.582-.068A2.485,2.485,0,0,0,867.014,1033.2Z" transform="translate(-827.402 -1012.515)"/><path class="ag" d="M771.09,983.581s1.426-1.8,1.923-2.526a31.058,31.058,0,0,0,1.772-3.006s-3.972-2.288-5.452-3.068c-5.432-2.863-5.305,1.407-5.053,2.354C764.844,979.455,771.09,983.581,771.09,983.581Z" transform="translate(-751.75 -959.658)"/><path class="ae" d="M1221.452,958.989a1.154,1.154,0,0,0,.714-1.216C1222.568,958.191,1222.061,958.964,1221.452,958.989Z" transform="translate(-1181.958 -944.384)"/></g></g></svg>