<svg xmlns="http://www.w3.org/2000/svg" width="89.981" height="139.92" viewBox="0 0 89.981 139.92"><defs><style>.a{fill:#01baff;}</style></defs><g transform="translate(-634.061 -116.764)"><g transform="translate(634.061 116.764)"><g transform="translate(0)"><g transform="translate(0 10.521)"><path class="a" d="M747.927,163.16a8.164,8.164,0,0,0-4.078-1.641h-43.47c-2.308,0-6.844,1.582-7.548,7.559l-4.125,30.859a1.045,1.045,0,0,1,.609.938.613.613,0,0,1-.012.152l-.926,7.091a1.045,1.045,0,0,1-.891.9l-.539,4.055a1.06,1.06,0,0,1,.27.691.629.629,0,0,1-.012.153l-.938,7.1a1.034,1.034,0,0,1-.492.75L680.15,263.81a7.578,7.578,0,0,0,1.266,5.544,5.842,5.842,0,0,0,4.465,2.086h42.438a1.758,1.758,0,0,0,0-3.516l-42.333.012a2.435,2.435,0,0,1-1.816-.762,4.152,4.152,0,0,1-.551-2.848l12.7-94.814c.492-4.184,3.481-4.465,4.055-4.477h5.883l-.164.8c-1.043,3.9.761,4.688,3.305,4.688H735.14a3.873,3.873,0,0,0,3.774-3.036l.527-2.449h4.407a5.518,5.518,0,0,1,2,.961,1.757,1.757,0,0,0,2.075-2.836ZM729.585,165.8a.343.343,0,0,1-.317.188H716.025a.343.343,0,0,1-.317-.188.319.319,0,0,1-.07-.2.38.38,0,0,1,.386-.375h13.244a.371.371,0,0,1,.375.375A.4.4,0,0,1,729.585,165.8Z" transform="translate(-680.061 -161.519)"/><path class="a" d="M696.037,293.323a.623.623,0,0,1-.012.153l-.937,7.1a1.034,1.034,0,0,1-.492.75l1.172-8.7A1.06,1.06,0,0,1,696.037,293.323Z" transform="translate(-688.88 -241.076)"/><path class="a" d="M700.774,260.158a.619.619,0,0,1-.012.152l-.926,7.091a1.045,1.045,0,0,1-.891.9l1.219-9.083A1.045,1.045,0,0,1,700.774,260.158Z" transform="translate(-691.52 -220.802)"/></g><g transform="translate(6.999 99.505)"><path class="a" d="M699.619,417.05a1.758,1.758,0,0,1-.006-3.516l43.565-.146c4.175.111,4.469-1.421,4.694-2.659l3.041-21.4a1.759,1.759,0,0,1,3.482.494l-3.052,21.465c-.712,3.941-3.421,5.774-8.211,5.614l-43.508.148Z" transform="translate(-697.861 -387.818)"/></g><g transform="translate(68.478)"><path class="a" d="M855.968,170.225a1.758,1.758,0,0,1-1.742-2.01l4.149-28.725a1.757,1.757,0,0,1,1.294-1.449l12.3-3.219a1.758,1.758,0,1,1,.891,3.4l-11.169,2.924-3.983,27.572A1.758,1.758,0,0,1,855.968,170.225Z" transform="translate(-854.208 -134.764)"/></g><g transform="translate(10.415 130.791)"><path class="a" d="M711.106,467.38a4.324,4.324,0,0,0-1.653.316,4.082,4.082,0,0,0-.75.363,4.54,4.54,0,0,0-.75.6,3.873,3.873,0,0,0-.82,1.066,4.432,4.432,0,0,0-.586,2.215,4.56,4.56,0,0,0,9,1.043,1.121,1.121,0,0,0,.047-.164,4.334,4.334,0,0,0,.07-.551.869.869,0,0,0,.012-.176v-.152A4.567,4.567,0,0,0,711.106,467.38Zm3.317,4.559c0,.059-.012.117-.012.164a2.831,2.831,0,0,1-.082.551c-.011.047-.023.105-.035.164a3.3,3.3,0,0,1-6.481-.879,2.627,2.627,0,0,1,.011-.293,6.226,6.226,0,0,1,.106-.621,3.607,3.607,0,0,1,.551-1.078,3.261,3.261,0,0,1,.773-.727,3.154,3.154,0,0,1,1.852-.574,3.314,3.314,0,0,1,3.317,3.281Z" transform="translate(-706.547 -467.38)"/><g transform="translate(32.276)"><path class="a" d="M793.6,467.4c-.152-.011-.281-.023-.422-.023a4.367,4.367,0,0,0-1.653.316,3.949,3.949,0,0,0-.738.363,4.175,4.175,0,0,0-.762.6,4.718,4.718,0,0,0-.586.679,4.249,4.249,0,0,0-.234.387,4.421,4.421,0,0,0-.574,2.215,4.56,4.56,0,0,0,9,1.043c.012-.059.023-.117.035-.164a4.379,4.379,0,0,0,.071-.551.9.9,0,0,0,.012-.176v-.152A4.552,4.552,0,0,0,793.6,467.4Zm2.883,4.7a2.841,2.841,0,0,1-.082.551.949.949,0,0,1-.023.164,3.313,3.313,0,0,1-6.5-.879c0-.094.011-.188.011-.293a4.239,4.239,0,0,1,.129-.621,3.331,3.331,0,0,1,.539-1.078,3.511,3.511,0,0,1,.773-.727,3.182,3.182,0,0,1,1.852-.574,3.3,3.3,0,0,1,3.3,3.281Z" transform="translate(-788.63 -467.38)"/></g><path class="a" d="M799.278,476.233a1.928,1.928,0,0,1-.05.439c-.012.051-.026.1-.042.152a1.927,1.927,0,0,1-3.757-.472c0-.039,0-.079,0-.119a1.912,1.912,0,0,1,.047-.424c.008-.038.018-.075.03-.113a1.926,1.926,0,0,1,3.763.315,1.5,1.5,0,0,1,.011.159C799.278,476.19,799.278,476.211,799.278,476.233Z" transform="translate(-760.477 -471.583)"/><path class="a" d="M717.1,476.233a1.928,1.928,0,0,1-.05.439c-.011.051-.026.1-.043.152a1.927,1.927,0,0,1-3.757-.472c0-.039,0-.079,0-.119a1.934,1.934,0,0,1,.047-.424c.008-.038.019-.075.03-.113a1.9,1.9,0,0,1,.258-.548,1.926,1.926,0,0,1,3.5.863,1.5,1.5,0,0,1,.011.159A.5.5,0,0,1,717.1,476.233Z" transform="translate(-710.613 -471.583)"/></g><path class="a" d="M705.451,216.644a.629.629,0,0,1-.012.153l-.926,7.09a1.045,1.045,0,0,1-.891.9,1.26,1.26,0,0,1-.293,0,1.036,1.036,0,0,1-.9-1.172l.926-7.1a1.063,1.063,0,0,1,1.184-.9.921.921,0,0,1,.3.094A1.046,1.046,0,0,1,705.451,216.644Z" transform="translate(-693.626 -183.817)"/><rect class="a" width="9.26" height="2.105" rx="1.052" transform="translate(71.39 32.685) rotate(-82.504)"/><path class="a" d="M700.1,249.444a.624.624,0,0,1-.012.152l-.938,7.1a1.034,1.034,0,0,1-.492.75.967.967,0,0,1-.68.152,1.065,1.065,0,0,1-.914-1.184l.937-7.091a1.054,1.054,0,0,1,1.184-.9,1.012,1.012,0,0,1,.645.328A1.064,1.064,0,0,1,700.1,249.444Z" transform="translate(-690.375 -203.725)"/></g><g transform="translate(21.713 36.914)"><path class="a" d="M776.463,256.425l-12.072,26.323-3.949-37.715h-16L735.279,297.4h10.173l7.22-41.618L756.75,297.4h10.032l15.869-35.277.879-5.614Zm7.9,6.833L777.8,297.4h9.775l6.212-34.14Z" transform="translate(-735.279 -238.587)"/><g transform="translate(42.039)"><path class="a" d="M861.809,235.473l1.2-6.833h-9.446l-1.207,6.833h-5.965l-4.2,9.013h8.579l-1.207,6.786h9.458l1.2-6.786h6.61l1.594-9.013Z" transform="translate(-842.19 -228.64)"/></g></g></g></g></svg>