<svg xmlns="http://www.w3.org/2000/svg" width="74.272" height="80.989" viewBox="0 0 74.272 80.989"><defs><style>.a{fill:#e7a561;}.b{fill:#ffcbbe;}.c{fill:#e49542;}.d{fill:#f9f6f9;}.e{fill:#dddaec;}.f{fill:#9bc4f9;}.g{fill:#7fb2f9;}.h{fill:#61a2f9;}.i{fill:#365e7d;}.j{fill:#ffddce;}.k{fill:#475959;}</style></defs><path class="a" d="M146.178,37.381l-.054-.117a21.174,21.174,0,0,1-1.925-8.91l0-6.448a20.675,20.675,0,0,0-14.279-19.66,20.142,20.142,0,0,0-16.359,19.781l0,6.282a20.631,20.631,0,0,1-1.876,8.681l-.053.114a10.054,10.054,0,0,0,7.7,14.136,14.463,14.463,0,0,0,1.969.134h19.07A10.347,10.347,0,0,0,146.178,37.381Z" transform="translate(-93.201 -1.891)"/><g transform="translate(20.354 20.562)"><path class="b" d="M133.294,129.993h3.924v9.234h-3.924a4.617,4.617,0,1,1,0-9.234Z" transform="translate(-128.677 -129.993)"/></g><path class="c" d="M249.339,35.214l-.053-.114a20.628,20.628,0,0,1-1.875-8.681l0-6.282A20.15,20.15,0,0,0,221.874.733a20.144,20.144,0,0,1,14.738,19.4l0,6.282A20.631,20.631,0,0,0,238.49,35.1l.052.114a10.053,10.053,0,0,1-7.7,14.136,14.463,14.463,0,0,1-1.969.134h10.8a14.463,14.463,0,0,0,1.969-.134A10.053,10.053,0,0,0,249.339,35.214Z" transform="translate(-186.778)"/><path class="b" d="M190.365,241.637a15.462,15.462,0,0,0,11.874-5.542,1.972,1.972,0,0,0-1.147-3.2,3.94,3.94,0,0,1-3.2-3.869V218.206H182.833v10.822a3.94,3.94,0,0,1-3.2,3.869,1.972,1.972,0,0,0-1.147,3.2A15.462,15.462,0,0,0,190.365,241.637Z" transform="translate(-149.87 -183.69)"/><path class="d" d="M163.424,321.937V341.6l1.335,1.424h26.618l1.335-1.424V321.937a25.064,25.064,0,0,0-.337-4.08,24.092,24.092,0,0,0-5.953-3.223,12.212,12.212,0,0,1-19.238-3.361l-1.51.291A25.069,25.069,0,0,0,163.424,321.937Z" transform="translate(-137.573 -262.035)"/><path class="e" d="M307.02,311.445l-.081-.171a12.279,12.279,0,0,1-3.358,4.072,23.175,23.175,0,0,1,5.5,2.811A24.192,24.192,0,0,0,307.02,311.445Z" transform="translate(-255.56 -262.036)"/><path class="f" d="M42.461,334.738V339a3.861,3.861,0,0,0,3.861,3.861h6.007v-.609h2.444v.609H62.93V321.959a24.2,24.2,0,0,1,2.582-10.875l-4.177.8A23.269,23.269,0,0,0,42.461,334.738Z" transform="translate(-35.744 -261.876)"/><path class="f"/><path class="f" d="M336.8,346.316a24.2,24.2,0,0,1,.528,5.018v21.19h8.157v-.609h2.444v.609h.208v-5.716A24.186,24.186,0,0,0,336.8,346.316Z" transform="translate(-283.524 -291.535)"/><path class="g" d="M328.829,312.048l-.087-.017-3.934-.757.081.171a24.2,24.2,0,0,1,2.06,6.712,23.267,23.267,0,0,1,10.025,19.134v5.126h.86v.609h6.007a3.861,3.861,0,0,0,3.861-3.861V334.9A23.271,23.271,0,0,0,328.829,312.048Z" transform="translate(-273.43 -262.036)"/><g transform="translate(16.584 72.431)"><path class="h" d="M107.286,466.417v-7.294a1.222,1.222,0,1,0-2.444,0v7.294c0,.014,0,.028,0,.042h2.44C107.284,466.445,107.286,466.431,107.286,466.417Z" transform="translate(-104.842 -457.901)"/><path class="h" d="M392.929,457.9a1.222,1.222,0,0,0-1.222,1.222v7.335h2.444v-7.335A1.222,1.222,0,0,0,392.929,457.9Z" transform="translate(-346.33 -457.901)"/></g><path class="i" d="M331.058,132.522H336a3.8,3.8,0,0,0,3.8-3.8v-4.745a3.8,3.8,0,0,0-3.8-3.8h-4.94Z" transform="translate(-278.691 -101.174)"/><path class="j" d="M195.139,101.5a21.269,21.269,0,0,1-1.669-8.334l0-6.448a20.622,20.622,0,0,0-1.254-7.1,6.693,6.693,0,0,0-6.984,1.619,7.705,7.705,0,0,1-5.49,2.3h-6.028a4.47,4.47,0,0,0-4.47,4.47v7.371a13.724,13.724,0,0,0,25.9,6.128Z" transform="translate(-142.471 -66.703)"/><path class="b" d="M311.631,86.22a6.692,6.692,0,0,0-5.849-6.637,20.072,20.072,0,0,1,1.466,7.548l0,6.282a20.631,20.631,0,0,0,1.875,8.681l.053.114c.1.22.191.442.275.665a13.663,13.663,0,0,0,2.178-7.21Z" transform="translate(-257.413 -66.994)"/><path class="d" d="M314.5,197.382h-1.32v3.643a1.746,1.746,0,0,1-1.745,1.744h-4.728a1.186,1.186,0,0,0,0,2.373h4.728a4.122,4.122,0,0,0,4.117-4.117v-3.792A3.8,3.8,0,0,1,314.5,197.382Z" transform="translate(-257.195 -166.034)"/><g transform="translate(42.147 35.36)"><path class="k" d="M272.716,228.662H269.01a2.562,2.562,0,0,1,0-5.123h3.707a2.562,2.562,0,0,1,0,5.123Z" transform="translate(-266.448 -223.539)"/></g></svg>