<svg xmlns="http://www.w3.org/2000/svg" width="73.27" height="73.27" viewBox="0 0 73.27 73.27"><defs><style>.a{fill:#56788b;}.b{fill:#415e6f;}.c{fill:#d9f0f4;}.d{fill:#bae1e5;}.e{fill:#4dd4f7;}.f{fill:#ff6b81;}.g{fill:#ed2061;}.h{fill:#fff;}.i{fill:#fbdf63;}.j{fill:#ffa402;}.k{fill:#90abbd;}</style></defs><path class="a" d="M136.483,7.656V65.613a7.66,7.66,0,0,1-7.646,7.656H96.256a7.66,7.66,0,0,1-7.646-7.656V7.656A7.66,7.66,0,0,1,96.256,0h32.581A7.66,7.66,0,0,1,136.483,7.656Z" transform="translate(-75.93)"/><path class="b" d="M360.218,7.656V65.613a7.66,7.66,0,0,1-7.646,7.656H349.71a7.66,7.66,0,0,0,7.646-7.656V7.656A7.66,7.66,0,0,0,349.71,0h2.862A7.66,7.66,0,0,1,360.218,7.656Z" transform="translate(-299.665)"/><path class="c" d="M157.868,31.9V90.212a3.4,3.4,0,0,1-3.4,3.4H121.966a3.4,3.4,0,0,1-3.4-3.4V31.9a3.4,3.4,0,0,1,3.4-3.4h3.393a1.074,1.074,0,0,1,1.022.744l.84,2.609a1.555,1.555,0,0,0,1.484,1.083h19.029a1.556,1.556,0,0,0,1.484-1.083l.84-2.609a1.073,1.073,0,0,1,1.022-.744h3.393a3.4,3.4,0,0,1,3.4,3.4Z" transform="translate(-101.602 -24.422)"/><path class="d" d="M355.708,31.9V90.212a3.4,3.4,0,0,1-3.4,3.4H349.45a3.4,3.4,0,0,0,3.4-3.4V31.9a3.4,3.4,0,0,0-3.4-3.4h2.862A3.4,3.4,0,0,1,355.708,31.9Z" transform="translate(-299.442 -24.422)"/><path class="b" d="M220.456,21.985H208.831a1.073,1.073,0,0,0,0,2.147h11.625a1.073,1.073,0,1,0,0-2.147Z" transform="translate(-178.027 -18.839)"/><path class="a" d="M220.456,434.722H208.831a1.073,1.073,0,0,0,0,2.147h11.625a1.073,1.073,0,1,0,0-2.147Z" transform="translate(-178.027 -372.511)"/><g transform="translate(26.77 28.454)"><g transform="translate(0 6.082)"><path class="a" d="M191.2,241.337H188.14a1.073,1.073,0,1,0,0,2.147H191.2a1.073,1.073,0,1,0,0-2.147Z" transform="translate(-187.067 -241.337)"/><path class="a" d="M228.066,266.03a1.073,1.073,0,0,0-1.073,1.073v5.171a1.073,1.073,0,0,0,2.147,0V267.1A1.073,1.073,0,0,0,228.066,266.03Z" transform="translate(-221.279 -262.496)"/></g><path class="e" d="M210.819,208.421a2.752,2.752,0,0,0-2.376,2.719v3.431a2.752,2.752,0,0,0,2.376,2.719l11.829,1.675V206.847Z" transform="translate(-205.384 -205.701)"/><path class="a" d="M291.011,200.984V211a2.143,2.143,0,1,1-4.287,0V200.984a2.143,2.143,0,1,1,4.287,0Z" transform="translate(-272.463 -198.837)"/></g><path class="f" d="M24.578,101.051v10.822a3.284,3.284,0,0,1-3.279,3.281H7.381l-5.658,4.3a1.065,1.065,0,0,1-.65.219,1.054,1.054,0,0,1-.477-.112A1.073,1.073,0,0,1,0,118.6V101.051A3.284,3.284,0,0,1,3.279,97.77H21.3A3.284,3.284,0,0,1,24.578,101.051Z" transform="translate(0 -83.779)"/><path class="g" d="M134.981,101.051v10.822a3.284,3.284,0,0,1-3.279,3.281H128.84a3.284,3.284,0,0,0,3.279-3.281V101.051a3.284,3.284,0,0,0-3.279-3.281H131.7A3.284,3.284,0,0,1,134.981,101.051Z" transform="translate(-110.402 -83.779)"/><g transform="translate(5.5 19.096)"><path class="h" d="M50.939,133.444H39.507a1.073,1.073,0,0,0,0,2.147H50.939a1.073,1.073,0,0,0,0-2.147Z" transform="translate(-38.434 -133.444)"/><path class="h" d="M49.51,167.444h-10a1.073,1.073,0,1,0,0,2.147h10a1.073,1.073,0,0,0,0-2.147Z" transform="translate(-38.434 -162.578)"/></g><path class="i" d="M320.235,338a4.631,4.631,0,0,1-4.622,4.628H299.8l-2.416,3.334a1.074,1.074,0,0,1-1.739,0l-2.416-3.334h-.4a4.627,4.627,0,0,1,0-9.255h22.781A4.629,4.629,0,0,1,320.235,338Z" transform="translate(-246.966 -285.663)"/><path class="j" d="M467.184,338a4.631,4.631,0,0,1-4.622,4.628H459.7a4.627,4.627,0,0,0,0-9.255h2.862A4.629,4.629,0,0,1,467.184,338Z" transform="translate(-393.915 -285.663)"/><g transform="translate(23.357 14.887)"><path class="k" d="M164.292,356.547h4.6a1.073,1.073,0,0,0,0-2.147h-4.6a1.073,1.073,0,0,0,0,2.147Z" transform="translate(-163.219 -318.571)"/><path class="k" d="M171.751,389.4h-7.458a1.073,1.073,0,1,0,0,2.147h7.458a1.073,1.073,0,0,0,0-2.147Z" transform="translate(-163.22 -348.562)"/><path class="k" d="M306.773,139.03h-4.6a1.073,1.073,0,1,0,0,2.147h4.6a1.073,1.073,0,1,0,0-2.147Z" transform="translate(-281.369 -134.021)"/><path class="k" d="M290.734,105.1a1.073,1.073,0,0,0-1.073-1.073H282.2a1.073,1.073,0,0,0,0,2.147h7.458A1.073,1.073,0,0,0,290.734,105.1Z" transform="translate(-264.256 -104.03)"/></g></svg>