<svg xmlns="http://www.w3.org/2000/svg" width="65.207" height="69" viewBox="0 0 65.207 69"><defs><style>.a{fill:#eeefee;}.b{fill:#e1e6e9;}.c{fill:#fcd462;}.d{fill:#323c6b;}.e{fill:#fff;}.f{fill:#fe7058;}.g{fill:#27ccbc;}.h{fill:#05afd6;}.i{fill:#ea6453;}.j{fill:#21b3a9;}.k{fill:#27a2db;}.l{fill:#707583;}.m{fill:#f7be56;}</style></defs><g transform="translate(-4.397 -2.5)"><path class="a" d="M43.265,42.592h.822a11.189,11.189,0,0,1,11.1,11.521v3.469h-35.5V54.113a11.189,11.189,0,0,1,11.1-11.521H31.6"/><path class="b" d="M55.19,54.11v3.47H19.68V54.86H51.77V51.39a11.852,11.852,0,0,0-2.71-7.63,10.708,10.708,0,0,1,2.96,2.21,11.784,11.784,0,0,1,3.17,8.14Z"/><path class="c" d="M27.97,28.017H27.6a2.131,2.131,0,0,0-1.886,2.308,2.58,2.58,0,0,0,.551,1.634,3.536,3.536,0,0,0,1.709,1.023"/><path class="d" d="M27.971,33.482a.468.468,0,0,1-.122-.015A4.094,4.094,0,0,1,25.9,32.308a3.1,3.1,0,0,1-.693-1.983A2.626,2.626,0,0,1,27.6,27.517h.374a.5.5,0,0,1,0,1H27.6a1.642,1.642,0,0,0-1.386,1.808,2.078,2.078,0,0,0,.438,1.317,3.05,3.05,0,0,0,1.443.856.5.5,0,0,1-.12.984Z"/><path class="c" d="M47.168,28.017h.375a2.131,2.131,0,0,1,1.885,2.308,2.58,2.58,0,0,1-.55,1.634,5.026,5.026,0,0,1-2.3,1.268"/><path class="d" d="M46.58,33.727a.5.5,0,0,1-.121-.985A4.538,4.538,0,0,0,48.524,31.6a2.074,2.074,0,0,0,.4-1.28,1.641,1.641,0,0,0-1.386-1.808h-.374a.5.5,0,0,1,0-1h.374a2.625,2.625,0,0,1,2.386,2.808,3.078,3.078,0,0,1-.663,1.95A5.505,5.505,0,0,1,46.7,33.711.457.457,0,0,1,46.58,33.727Z"/><path class="c" d="M43.265,42.591l-.729-2.337h-10.2l-.729,2.337,5.829,2.887Z"/><path class="d" d="M37.437,45.978a.492.492,0,0,1-.222-.052L31.386,43.04a.5.5,0,0,1-.256-.6l.73-2.337a.5.5,0,0,1,.477-.351h10.2a.5.5,0,0,1,.478.351l.729,2.337a.5.5,0,0,1-.256.6l-5.829,2.886a.491.491,0,0,1-.222.052Zm-5.225-3.645,5.225,2.587,5.224-2.587-.493-1.579H32.7Z"/><path class="e" d="M31.608,42.592l5.829,2.886-4.3,2.886Z"/><path class="d" d="M33.136,48.864a.489.489,0,0,1-.176-.032.5.5,0,0,1-.307-.34L31.125,42.72a.5.5,0,0,1,.7-.576l5.828,2.886a.5.5,0,0,1,.057.863l-4.3,2.886a.5.5,0,0,1-.274.085Zm-.763-5.335,1.067,4.029,3-2.015Z"/><path class="e" d="M43.265,42.592l-5.828,2.886,4.3,2.886Z"/><path class="d" d="M41.737,48.864a.5.5,0,0,1-.279-.085l-4.3-2.886a.5.5,0,0,1,.057-.863l5.828-2.886a.5.5,0,0,1,.706.576L42.22,48.492a.5.5,0,0,1-.307.34.489.489,0,0,1-.176.032Zm-3.306-3.321,3,2.015L42.5,43.529Z"/><path class="f" d="M40.129,47.285l-1.37,1.957H36.105l-1.442-1.9,2.774-1.861Z"/><path class="d" d="M38.759,49.742H36.1a.5.5,0,0,1-.4-.2l-1.442-1.9a.5.5,0,0,1,.119-.718l2.774-1.861a.5.5,0,0,1,.557,0L40.4,46.87a.5.5,0,0,1,.131.7l-1.371,1.957a.5.5,0,0,1-.4.215Zm-2.4-1H38.5l.928-1.326-1.99-1.336-2.056,1.379Z"/><path class="f" d="M38.759,49.242l.977,8.34H34.882l1.223-8.34Z"/><path class="d" d="M39.735,58.083H34.882a.5.5,0,0,1-.494-.573l1.222-8.341a.5.5,0,0,1,.495-.427h2.654a.5.5,0,0,1,.5.442l.977,8.34a.5.5,0,0,1-.5.559Zm-4.274-1h3.712l-.859-7.341H36.537Z"/><path class="d" d="M26.708,58.083a.5.5,0,0,1-.5-.5V51.245a.5.5,0,1,1,1,0v6.338A.5.5,0,0,1,26.708,58.083Z"/><path class="d" d="M48.166,58.083a.5.5,0,0,1-.5-.5V51.245a.5.5,0,1,1,1,0v6.338A.5.5,0,0,1,48.166,58.083Z"/><path class="d" d="M6.137,44.609a.5.5,0,0,1-.494-.425,32.545,32.545,0,0,1-.361-4.839A32.155,32.155,0,0,1,33.563,7.422a.5.5,0,0,1,.116.993A31.191,31.191,0,0,0,6.632,44.034a.5.5,0,0,1-.42.57.63.63,0,0,1-.075.005Z"/><path class="d" d="M37.437,71.5a31.915,31.915,0,0,1-25.71-12.84.5.5,0,1,1,.8-.6A31.16,31.16,0,0,0,56.6,63.914a.5.5,0,1,1,.615.788,31.832,31.832,0,0,1-19.778,6.8Z"/><path class="d" d="M66.564,52.26a.484.484,0,0,1-.2-.04.5.5,0,0,1-.264-.656,30.959,30.959,0,0,0,2.487-12.219A31.284,31.284,0,0,0,48.24,10.114a.5.5,0,0,1,.347-.937,32.286,32.286,0,0,1,21,30.168A31.942,31.942,0,0,1,67.02,51.957a.5.5,0,0,1-.456.3Z"/><circle class="f" cx="4.69" cy="4.69" r="4.69" transform="translate(33.62 3)"/><path class="g" d="M13.65,52.07a4.693,4.693,0,1,1-6.41-1.72,4.693,4.693,0,0,1,6.41,1.72Z"/><path class="h" d="M68.48,58.27a4.693,4.693,0,1,1-1.72-6.4,4.693,4.693,0,0,1,1.72,6.4Z"/><path class="i" d="M43,7.69a4.69,4.69,0,0,1-2.58,4.19,4.541,4.541,0,0,0,.46-2.02,4.69,4.69,0,0,0-4.69-4.69,4.607,4.607,0,0,0-2.12.51A4.692,4.692,0,0,1,43,7.69Z"/><path class="j" d="M11.93,58.48c-.08.05-.16.09-.24.13A4.681,4.681,0,0,0,5.36,52.4a4.639,4.639,0,0,1,1.88-2.05,4.693,4.693,0,1,1,4.69,8.13Z"/><path class="k" d="M68.48,58.27a4.618,4.618,0,0,1-1.96,1.84,4.679,4.679,0,0,0-6.34-6.19,3.589,3.589,0,0,1,.17-.34,4.693,4.693,0,1,1,8.13,4.69Z"/><path class="d" d="M24.784,26.458a.5.5,0,0,1-.5-.479l-.01-.189c-.006-.123-.013-.245-.014-.37a.5.5,0,0,1,.5-.5.479.479,0,0,1,.5.5c0,.108.007.214.013.32l.01.2a.5.5,0,0,1-.479.52Z"/><path class="d" d="M24.832,24.25h-.048a.5.5,0,0,1-.451-.545,12.155,12.155,0,0,1,1.346-4.746,12.485,12.485,0,0,1,2.308-2.992.5.5,0,1,1,.693.721,11.46,11.46,0,0,0-2.125,2.753A11.172,11.172,0,0,0,25.329,23.8a.5.5,0,0,1-.5.45Z"/><path class="d" d="M43.813,61.083H33.125a.5.5,0,0,1,0-1H43.813a.5.5,0,0,1,0,1Z"/><path class="d" d="M30.75,61.083h-.937a.5.5,0,1,1,0-1h.937a.5.5,0,0,1,0,1Z"/><path class="l" d="M46.87,27.36l-.29,1.8c-3.41-.75-5.37-3.17-6.71-5.73a26.136,26.136,0,0,1-5.22,3.82,15.837,15.837,0,0,1-6.35,1.79c-.82-2.44-.8-6.14.44-8.39a9.582,9.582,0,0,1,8.39-4.83c4.1-.13,7.53,1.69,9.18,4.95C47.33,22.8,47.22,25.04,46.87,27.36Z"/><path class="d" d="M46.58,29.66a.481.481,0,0,1-.107-.012c-2.848-.626-5-2.356-6.742-5.427a24.725,24.725,0,0,1-4.849,3.472,16.46,16.46,0,0,1-6.544,1.846.51.51,0,0,1-.512-.34c-.8-2.387-.908-6.279.476-8.79a10.083,10.083,0,0,1,8.812-5.089c4.317-.14,7.918,1.817,9.642,5.224,1.114,2.216.951,4.621.609,6.891l-.29,1.8a.5.5,0,0,1-.494.42Zm-6.71-6.73a.526.526,0,0,1,.089.008.5.5,0,0,1,.354.26c1.537,2.937,3.409,4.649,5.86,5.344l.2-1.259A10.363,10.363,0,0,0,45.863,21c-1.544-3.051-4.787-4.8-8.717-4.676A9.109,9.109,0,0,0,29.178,20.9c-1.136,2.061-1.151,5.387-.52,7.616a15.121,15.121,0,0,0,5.759-1.7,25.2,25.2,0,0,0,5.12-3.75.5.5,0,0,1,.333-.132Z"/><path class="c" d="M46.58,29.16v3.41a9.14,9.14,0,0,1-18.28,0V29.04a15.837,15.837,0,0,0,6.35-1.79,26.136,26.136,0,0,0,5.22-3.82C41.21,25.99,43.17,28.41,46.58,29.16Z"/><path class="m" d="M46.58,29.16v3.41a9.136,9.136,0,0,1-15.6,6.46,8.6,8.6,0,0,1-1.41-1.83,9.031,9.031,0,0,0,6.41,2.64,9.137,9.137,0,0,0,9.14-9.14v-2a8.908,8.908,0,0,0,1.46.46Z"/><path class="d" d="M55.19,58.083H19.683a.5.5,0,0,1-.5-.5v-3.47a11.693,11.693,0,0,1,11.6-12.021H31.6a.5.5,0,0,1,0,1h-.821a10.7,10.7,0,0,0-10.6,11.021v2.97H54.69v-2.97a10.7,10.7,0,0,0-10.6-11.021h-.821a.5.5,0,0,1,0-1h.821a11.693,11.693,0,0,1,11.6,12.021v3.47a.5.5,0,0,1-.5.5Z"/><path class="d" d="M37.44,42.21a9.65,9.65,0,0,1-9.64-9.64V29.04a.5.5,0,0,1,.462-.5,15.284,15.284,0,0,0,6.155-1.734,25.2,25.2,0,0,0,5.12-3.75.5.5,0,0,1,.776.14c1.643,3.139,3.668,4.879,6.375,5.474a.5.5,0,0,1,.392.488v3.41A9.652,9.652,0,0,1,37.44,42.21ZM28.8,29.5v3.07a8.64,8.64,0,1,0,17.28,0V29.554c-2.655-.7-4.691-2.4-6.349-5.333a24.725,24.725,0,0,1-4.849,3.472A16.322,16.322,0,0,1,28.8,29.5Z"/><path class="d" d="M38.31,12.88A5.19,5.19,0,1,1,43.5,7.69a5.19,5.19,0,0,1-5.19,5.19Zm0-9.38A4.19,4.19,0,1,0,42.5,7.69,4.19,4.19,0,0,0,38.31,3.5Z"/><path class="d" d="M9.6,59.6a5.188,5.188,0,1,1,4.491-2.6A5.192,5.192,0,0,1,9.6,59.6Zm-.024-9.379a4.19,4.19,0,1,0,3.645,2.094,4.19,4.19,0,0,0-3.645-2.094Z"/><path class="d" d="M64.406,61.124a5.192,5.192,0,1,1,4.507-2.6,5.214,5.214,0,0,1-4.507,2.6Zm.013-9.387A4.189,4.189,0,1,0,68.346,54.5,4.19,4.19,0,0,0,64.419,51.737Z"/></g></svg>