<svg xmlns="http://www.w3.org/2000/svg" width="72.805" height="72.805" viewBox="0 0 72.805 72.805"><defs><style>.a{fill:#02b4ff;}.b{fill:#0090f1;}.c{fill:#ffd45a;}.d{fill:#febe07;}.e{fill:#ffe5cf;}.f{fill:#633f0e;}.g{fill:#754b11;}.h{fill:#e8d0bc;}.i{fill:#8cbeff;}</style></defs><g transform="translate(-3 -3)"><path class="a" d="M73.294,33.126H69.521a2.49,2.49,0,0,1-2.4-1.785,28.662,28.662,0,0,0-2.419-5.834,2.492,2.492,0,0,1,.429-2.961l2.67-2.67a2.51,2.51,0,0,0,0-3.55L62.479,11a2.51,2.51,0,0,0-3.55,0l-2.67,2.67A2.491,2.491,0,0,1,53.3,14.1a28.662,28.662,0,0,0-5.834-2.419,2.488,2.488,0,0,1-1.785-2.4V5.511A2.51,2.51,0,0,0,43.168,3H35.637a2.51,2.51,0,0,0-2.511,2.511V9.284a2.49,2.49,0,0,1-1.785,2.4A28.662,28.662,0,0,0,25.507,14.1a2.492,2.492,0,0,1-2.961-.429L19.876,11a2.51,2.51,0,0,0-3.55,0L11,16.326a2.51,2.51,0,0,0,0,3.55l2.67,2.67a2.491,2.491,0,0,1,.429,2.961,28.662,28.662,0,0,0-2.419,5.834,2.488,2.488,0,0,1-2.4,1.785H5.511A2.51,2.51,0,0,0,3,35.637v7.532a2.51,2.51,0,0,0,2.511,2.511H9.284a2.49,2.49,0,0,1,2.4,1.785A28.662,28.662,0,0,0,14.1,53.3a2.492,2.492,0,0,1-.429,2.961L11,58.929a2.51,2.51,0,0,0,0,3.55L16.326,67.8a2.51,2.51,0,0,0,3.55,0l2.67-2.67a2.491,2.491,0,0,1,2.961-.429,28.662,28.662,0,0,0,5.834,2.419,2.488,2.488,0,0,1,1.785,2.4v3.773A2.51,2.51,0,0,0,35.637,75.8h7.532a2.51,2.51,0,0,0,2.511-2.511V69.521a2.49,2.49,0,0,1,1.785-2.4A28.662,28.662,0,0,0,53.3,64.706a2.492,2.492,0,0,1,2.961.429l2.67,2.67a2.51,2.51,0,0,0,3.55,0L67.8,62.479a2.51,2.51,0,0,0,0-3.55l-2.67-2.67a2.491,2.491,0,0,1-.429-2.961,28.662,28.662,0,0,0,2.419-5.834,2.488,2.488,0,0,1,2.4-1.785h3.773A2.51,2.51,0,0,0,75.8,43.168V35.637a2.51,2.51,0,0,0-2.511-2.511ZM39.4,60.742A21.339,21.339,0,1,1,60.742,39.4,21.339,21.339,0,0,1,39.4,60.742Z"/><g transform="translate(3 39.402)"><path class="b" d="M11.68,40.061a28.611,28.611,0,0,0,2,5.017A2.488,2.488,0,0,0,14.1,42.13,28.662,28.662,0,0,1,11.679,36.3a2.485,2.485,0,0,0-2.4-1.785H5.511A2.51,2.51,0,0,1,3,32v3.766a2.51,2.51,0,0,0,2.511,2.511H9.284a2.488,2.488,0,0,1,2.4,1.785Z" transform="translate(-3 -32)"/><path class="b" d="M31.649,54.4a2.49,2.49,0,0,0-1.785-2.4,28.662,28.662,0,0,1-5.834-2.419,2.492,2.492,0,0,0-2.961.429l-2.67,2.67a2.51,2.51,0,0,1-3.55,0L9.63,47.47l-.108.108a2.51,2.51,0,0,0,0,3.55l5.326,5.326a2.51,2.51,0,0,0,3.55,0l2.67-2.67a2.491,2.491,0,0,1,2.961-.429,28.662,28.662,0,0,0,5.834,2.419,2.488,2.488,0,0,1,1.785,2.4Z" transform="translate(-1.523 -28.051)"/><path class="b" d="M60.809,34.511H57.035a2.49,2.49,0,0,0-2.4,1.785A28.662,28.662,0,0,1,52.22,42.13a2.488,2.488,0,0,0,.421,2.949,28.611,28.611,0,0,0,2-5.017,2.491,2.491,0,0,1,2.4-1.785h3.773a2.51,2.51,0,0,0,2.511-2.511V32A2.51,2.51,0,0,1,60.809,34.511Z" transform="translate(9.486 -32)"/><path class="b" d="M59.02,47.471,53.8,52.689a2.51,2.51,0,0,1-3.55,0l-2.671-2.671a2.491,2.491,0,0,0-2.961-.429,28.662,28.662,0,0,1-5.834,2.419A2.488,2.488,0,0,0,37,54.4V58.17a2.49,2.49,0,0,1,1.785-2.4,28.661,28.661,0,0,0,5.834-2.419,2.492,2.492,0,0,1,2.961.429l2.67,2.67a2.51,2.51,0,0,0,3.55,0l5.326-5.326a2.51,2.51,0,0,0,0-3.55Z" transform="translate(5.679 -28.051)"/><path class="b" d="M37.042,58.51H29.51A2.51,2.51,0,0,1,27,56v3.766a2.51,2.51,0,0,0,2.511,2.511h7.532a2.51,2.51,0,0,0,2.511-2.511V56A2.51,2.51,0,0,1,37.042,58.51Z" transform="translate(3.126 -25.874)"/></g><path class="c" d="M75.047,11.29l-6.773,6.773H60.742V10.532l6.773-6.773A12.524,12.524,0,0,0,51.458,19.815L19.815,51.458A12.524,12.524,0,0,0,3.758,67.515l6.773-6.773h7.532v7.532L11.29,75.047A12.524,12.524,0,0,0,27.347,58.989L58.989,27.347A12.524,12.524,0,0,0,75.047,11.29Z" transform="translate(0 0)"/><path class="d" d="M58.3,22.17a12.5,12.5,0,0,1-4.263-.758L22.4,53.054a12.663,12.663,0,0,1,.7,3.069L54.04,25.176A12.52,12.52,0,0,0,70.854,13.383,12.256,12.256,0,0,0,70.7,11.5,12.544,12.544,0,0,1,58.3,22.17Z" transform="translate(4.951 2.169)"/><path class="d" d="M13.867,60.17c-.4,0-.8-.024-1.194-.062L9.6,63.177A12.524,12.524,0,0,0,26.419,51.383a12.256,12.256,0,0,0-.156-1.884,12.544,12.544,0,0,1-12.4,10.671Z" transform="translate(1.686 11.869)"/><path class="e" d="M38.4,38.992a5,5,0,0,1-1.551-3.618V33.535a11.136,11.136,0,0,1-1.787.992,5.022,5.022,0,0,1-3.955,0,11.083,11.083,0,0,1-1.787-.992v1.839a5,5,0,0,1-1.551,3.618l5.316,2.659Z" transform="translate(6.321 7.794)"/><path class="f" d="M36.3,22.083v-.062l.27,1.351a6.284,6.284,0,0,0,6.006,5.049V24.532A7.531,7.531,0,0,0,35.042,17H32.532A7.531,7.531,0,0,0,25,24.532v3.89l5.084-.055A6.285,6.285,0,0,0,36.3,22.083Z" transform="translate(5.616 3.574)"/><path class="e" d="M35.765,37.726a11.083,11.083,0,0,0,1.787-.992A11.22,11.22,0,0,0,42.574,27.4a6.284,6.284,0,0,1-6.006-5.049L36.3,21v.062a6.283,6.283,0,0,1-6.214,6.283L25,27.4a11.446,11.446,0,0,0,6.808,10.326A5.025,5.025,0,0,0,35.765,37.726Z" transform="translate(5.616 4.595)"/><path class="g" d="M35.042,17H32.532A7.531,7.531,0,0,0,25,24.532v2.386a7.531,7.531,0,0,1,7.532-7.532h2.511a7.531,7.531,0,0,1,7.532,7.532V24.532A7.531,7.531,0,0,0,35.042,17Z" transform="translate(5.616 3.574)"/><path class="h" d="M35.1,40.484l2.986-1.494a4.991,4.991,0,0,1-1.551-3.616V33.535a11.137,11.137,0,0,1-1.787.992,5.022,5.022,0,0,1-3.955,0A11.083,11.083,0,0,1,29,33.535V35Z" transform="translate(6.637 7.794)"/><path class="i" d="M29.491,37.882a5,5,0,0,1-3.47,1.4A5.074,5.074,0,0,0,21,44.306v2.511H34.808V40.541Z" transform="translate(4.595 8.904)"/><path class="i" d="M37.317,37.882a5,5,0,0,0,3.47,1.4,5.074,5.074,0,0,1,5.021,5.021v2.511H32V40.541Z" transform="translate(7.402 8.904)"/></g></svg>