<svg xmlns="http://www.w3.org/2000/svg" width="109.953" height="109.255" viewBox="0 0 109.953 109.255"><defs><style>.a{fill:none;stroke:#6a98c0;}</style></defs><g transform="translate(0.5 -1.138)"><g transform="translate(6.84 1.638)"><g transform="translate(23.818 0)"><path class="a" d="M191.709,49.274H144.073V3.322a1.684,1.684,0,0,1,1.684-1.684h44.266a1.686,1.686,0,0,1,1.686,1.686v45.95Z" transform="translate(-144.073 -1.638)"/><path class="a" d="M345.778,3.326V49.278h-4.3V3.326a1.685,1.685,0,0,0-1.684-1.684h4.3a1.686,1.686,0,0,1,1.684,1.684Z" transform="translate(-298.143 -1.641)"/><path class="a" d="M234.963,1.638h-5.687v12.65a1,1,0,0,0,1.459.891l3.771-1.933a1,1,0,0,1,.914,0l3.771,1.933a1,1,0,0,0,1.459-.891V1.638Z" transform="translate(-211.145 -1.638)"/><path class="a" d="M266.814,1.642V14.291a1,1,0,0,1-1.461.893l-2.841-1.456V1.642Z" transform="translate(-237.308 -1.641)"/><path class="a" d="M230.77,155.238H214.722a.965.965,0,0,1-.965-.965v-6.886a.965.965,0,0,1,.965-.965H230.77a.965.965,0,0,1,.965.965v6.886a.965.965,0,0,1-.965.965Z" transform="translate(-198.928 -115.611)"/><path class="a" d="M278.447,147.383v6.886a.966.966,0,0,1-.966.966H273.1a.966.966,0,0,0,.966-.966v-6.886a.966.966,0,0,0-.966-.966h4.386A.966.966,0,0,1,278.447,147.383Z" transform="translate(-245.639 -115.608)"/></g><g transform="translate(47.636 47.15)"><path class="a" d="M303.636,270.847H256V223.211h45.95a1.686,1.686,0,0,1,1.686,1.686Z" transform="translate(-256 -223.211)"/><path class="a" d="M457.705,224.9v45.952h-4.3V224.9a1.685,1.685,0,0,0-1.684-1.684h4.3A1.685,1.685,0,0,1,457.705,224.9Z" transform="translate(-410.07 -223.214)"/><path class="a" d="M346.89,223.211H341.2v12.65a1,1,0,0,0,1.459.891l3.771-1.933a1,1,0,0,1,.914,0l3.771,1.933a1,1,0,0,0,1.459-.891v-12.65Z" transform="translate(-323.072 -223.211)"/><path class="a" d="M378.741,223.215v12.648a1,1,0,0,1-1.461.893l-2.841-1.456V223.215Z" transform="translate(-349.235 -223.214)"/><path class="a" d="M342.7,376.81H326.649a.965.965,0,0,1-.965-.965v-6.886a.965.965,0,0,1,.965-.965H342.7a.965.965,0,0,1,.965.965v6.886A.965.965,0,0,1,342.7,376.81Z" transform="translate(-310.855 -337.184)"/><path class="a" d="M390.375,368.956v6.886a.966.966,0,0,1-.966.966h-4.386a.966.966,0,0,0,.966-.966v-6.886a.966.966,0,0,0-.966-.966h4.386A.966.966,0,0,1,390.375,368.956Z" transform="translate(-357.567 -337.181)"/></g><g transform="translate(0 47.15)"><path class="a" d="M80.744,270.847h-48.6V224.9a1.686,1.686,0,0,1,1.686-1.686H80.744v47.636Z" transform="translate(-32.145 -223.211)"/><path class="a" d="M233.851,223.215v47.636h-4.3V224.9a1.686,1.686,0,0,0-1.684-1.684Z" transform="translate(-186.216 -223.214)"/><path class="a" d="M123.035,223.211h-5.687v12.65a1,1,0,0,0,1.459.891l3.771-1.933a1,1,0,0,1,.914,0l3.771,1.933a1,1,0,0,0,1.459-.891v-12.65Z" transform="translate(-99.217 -223.211)"/><path class="a" d="M154.886,223.215v12.648a1,1,0,0,1-1.461.893l-2.841-1.456V223.215Z" transform="translate(-125.38 -223.214)"/><path class="a" d="M118.843,376.81H102.8a.965.965,0,0,1-.965-.965v-6.886a.965.965,0,0,1,.965-.965h16.048a.965.965,0,0,1,.965.965v6.886A.965.965,0,0,1,118.843,376.81Z" transform="translate(-87.001 -337.184)"/><path class="a" d="M166.52,368.956v6.886a.966.966,0,0,1-.966.966h-4.386a.966.966,0,0,0,.966-.966v-6.886a.966.966,0,0,0-.966-.966h4.386A.966.966,0,0,1,166.52,368.956Z" transform="translate(-133.712 -337.181)"/></g></g><g transform="translate(6.315 101.369)"><path class="a" d="M453.9,478.828h-4.779a1.28,1.28,0,0,1-1.28-1.28V470.3h7.338v7.245A1.279,1.279,0,0,1,453.9,478.828Z" transform="translate(-358.857 -470.303)"/><path class="a" d="M35.732,478.828H30.954a1.28,1.28,0,0,1-1.28-1.28V470.3h7.338v7.245A1.279,1.279,0,0,1,35.732,478.828Z" transform="translate(-29.674 -470.303)"/></g><g transform="translate(8.809 102.556)"><path class="a" d="M464.412,475.881v6.058a1.279,1.279,0,0,1-1.279,1.279h-3.564a1.279,1.279,0,0,0,1.279-1.279v-6.058Z" transform="translate(-370.583 -475.881)"/><path class="a" d="M46.241,475.881v6.058a1.278,1.278,0,0,1-1.279,1.279H41.4a1.279,1.279,0,0,0,1.279-1.279v-6.058Z" transform="translate(-41.398 -475.881)"/></g><path class="a" d="M108.144,452.255H.808A.808.808,0,0,1,0,451.447v-4.769a.808.808,0,0,1,.808-.808H108.144a.808.808,0,0,1,.808.808v4.769A.808.808,0,0,1,108.144,452.255Z" transform="translate(0 -349.7)"/><path class="a" d="M492.8,446.675v4.77a.808.808,0,0,1-.808.808h-4.38a.808.808,0,0,0,.808-.808v-4.77a.808.808,0,0,0-.808-.808H492A.808.808,0,0,1,492.8,446.675Z" transform="translate(-383.852 -349.698)"/></g></svg>