<svg xmlns="http://www.w3.org/2000/svg" width="514.871" height="112.384" viewBox="0 0 514.871 112.384"><defs><style>.a{fill:#f79524;}.b{fill:#a3cc3a;}.c{fill:#f79625;}.d{fill:#3fc5f1;}</style></defs><path class="a" d="M637.611,167.132c0,6.309-.083,12.434.048,18.555.042,1.99-.579,2.5-2.508,2.51-7.74.059-7.74.123-7.74-7.707,0-15.6.08-31.2-.075-46.8-.028-2.747.808-3.57,3.327-3.146a5.5,5.5,0,0,0,.894.007c4.913,0,4.913,0,6.217,4.833,4.976-5.327,11.033-6.78,17.868-5.36a19.321,19.321,0,0,1,11.417,7.044c6.471,8.053,6,22.055-1.11,29.131A21.057,21.057,0,0,1,637.611,167.132ZM650,162.366a11.42,11.42,0,0,0,11.533-11.8c-.106-6.7-4.823-11.273-11.633-11.279a11.1,11.1,0,0,0-11.563,11.665A11.444,11.444,0,0,0,650,162.366Z" transform="translate(-336 -113.256)"/><path class="a" d="M847.537,124.324c0-6.444.09-12.663-.047-18.878-.05-2.261.457-3.1,2.933-3.057,7.239.12,7.241,0,7.241,7.318,0,15.905-.042,31.811.049,47.716.012,2.166-.441,3.087-2.764,2.829-1.868-.207-3.828.224-5.655-.12-2.645-.5-.241-3.517-1.987-4.622-9.162,7.422-20.977,7.181-28.256-.582-7.391-7.884-7.469-22.435-.162-30.331C825.977,116.937,837.948,116.724,847.537,124.324Zm-.669,15.721c.016-6.743-4.933-12.008-11.325-12.048-6.9-.043-11.913,4.837-11.978,11.649A11.716,11.716,0,0,0,835.5,151.771C841.621,151.833,846.853,146.437,846.868,140.045Z" transform="translate(-410.837 -102.35)"/><path class="b" d="M797.989,257.605c-7.061,0-14.123-.047-21.184.033-1.805.02-2.615-.3-2.632-2.4-.06-7.335-.149-7.335,7.2-7.335,9.15,0,18.3-.1,27.449.062,2.661.047,3.632-.549,3.562-3.4-.261-10.645-.2-21.3-.432-31.944-.056-2.535.612-3.241,3.215-3.2,14.281.205,28.565.227,42.849.225,1.791,0,2.367.454,2.382,2.319.057,7.383.127,7.383-7.1,7.383-9.548,0-19.1.065-28.643-.051-2.126-.026-2.645.6-2.627,2.666.1,11.027,0,22.056.09,33.083.017,2.048-.532,2.755-2.654,2.72-7.157-.117-14.318-.044-21.477-.044Z" transform="translate(-395.036 -145.387)"/><path class="a" d="M377.774,135.715c.409-5.11.409-5.11,5.295-5.11,4.713,0,4.713,0,4.713,4.683,0,11.025-.053,22.05.046,33.075.019,2.135-.424,3.241-2.761,2.817a6.768,6.768,0,0,0-1.192-.01c-5.354,0-5.354,0-6.263-5.081-5.98,7.021-13.551,7.786-21.567,4.912-8.082-2.9-11.668-9.367-12.26-17.688-.4-5.57.364-10.847,3.607-15.594C353.329,129.029,369.546,125.891,377.774,135.715Zm-12.146,2.852a11.819,11.819,0,0,0-11.982,12.141c.1,7.326,5.373,12.783,12.2,12.621,6.78-.161,11.762-5.366,11.834-12.365A11.9,11.9,0,0,0,365.628,138.567Z" transform="translate(-221.952 -113.309)"/><path class="a" d="M961.1,135.2c1.237-4.521,1.237-4.521,6.185-4.52,4.114,0,4.114,0,4.114,4.038,0,11.317-.056,22.635.05,33.952.02,2.108-.572,2.927-2.649,2.581a5.784,5.784,0,0,0-.893-.007c-1.788-.016-3.763.438-5.314-.176-1.694-.67-.24-3.126-1.58-4.673-4.292,5.226-10.042,6.7-16.484,5.949a18.53,18.53,0,0,1-12-5.943c-7.088-7.844-7.059-22.8.021-30.48C939.788,128.069,951.658,127.769,961.1,135.2Zm.069,15.862a11.923,11.923,0,0,0-12.079-12.419c-6.728-.044-11.673,5.021-11.732,12.014-.062,7.447,4.662,12.614,11.645,12.735C955.892,163.509,961.121,158.209,961.174,151.058Z" transform="translate(-456.582 -113.381)"/><path class="a" d="M150.264,137.988a9.745,9.745,0,0,0-2.134-.126c-2.9.5-3.75-.649-3.576-3.534.259-4.3.072-4.48,4.559-4.261,2.506.122,3.75-.636,3.876-3.137a4.853,4.853,0,0,1,.244-.857c1.574-6.419,1.573-6.341,8.147-6.259,1.948.025,2.505.585,1.965,2.411-.477,1.615-.752,3.3-1.309,4.881-.743,2.112-.453,3.022,2.113,2.952,4.657-.127,4.66.013,5.785-4.5,1.593-6.4,1.59-6.343,8.429-5.98,1.656.088,2.1.6,1.673,2.161-.553,2.005-.956,4.052-1.491,6.062-.376,1.411-.276,2.474,1.543,2.184,2.555-.408,3.106.876,2.832,3.042a6.2,6.2,0,0,0,0,1.785c.426,2.53-.668,3.44-3.1,3.036-2.793-.464-4.377.389-4.688,3.534a34.1,34.1,0,0,1-1.815,6.886c-.487,1.519-.286,2.381,1.482,2.083,2.921-.492,3.732.672,3.557,3.542-.259,4.258-.068,4.392-4.569,4.26-2.117-.062-3.205.558-3.3,2.7a3.017,3.017,0,0,1-.163.572c-1.763,6.835-1.759,6.793-8.913,6.175-1.36-.117-1.757-.549-1.455-1.818.46-1.925.885-3.858,1.3-5.792.1-.474.3-1.33.167-1.39-1.771-.809-3.669-.221-5.513-.38-.984-.085-1.767.185-1.983,1.319-.111.583-.317,1.147-.459,1.726-1.7,6.908-1.692,6.855-8.664,6.34-1.58-.116-1.876-.706-1.506-2.04.292-1.051.564-2.108.835-3.165.907-3.535.911-3.571-2.75-4.179-.828-.137-1.291-.371-1.277-1.246.008-.5-.007-.994-.012-1.491-.054-5-.054-5.048,4.855-5.082,1.467-.01,2.329-.215,2.679-1.912C148.35,145,149.346,141.58,150.264,137.988Zm17.251-.5c-8.263-.995-8.263-.995-10.188,6.648-.048.191-.127.375-.176.567-1.755,6.852-1.758,6.819,5.418,6.211a1.924,1.924,0,0,0,2.05-1.65C165.553,145.339,166.542,141.428,167.516,137.489Z" transform="translate(-140.089 -109.207)"/><path class="c" d="M747.364,135.867c3.438-3.1,6.912-5.29,11.264-5.663,9.836-.843,17.4,5.295,18.772,15.425,1.087,8,.329,16.067.537,24.1.028,1.079-.3,1.729-1.5,1.635a4.845,4.845,0,0,0-.6,0c-8.293.375-8.29.375-8.293-7.964,0-4.569.143-9.144-.06-13.7-.283-6.344-4.032-10.441-9.2-10.422-6.047.022-10.556,4.436-10.717,10.781-.158,6.253-.129,12.513-.057,18.769.021,1.83-.338,2.584-2.419,2.6-7.635.047-7.635.133-7.635-7.454,0-10.131.084-20.263-.062-30.391-.035-2.435.754-3.212,3.015-2.868a8.008,8.008,0,0,0,1.192.008C746.378,130.717,746.378,130.717,747.364,135.867Z" transform="translate(-380.254 -113.504)"/><path class="a" d="M580.832,166.816c-3.342,2.679-6.586,4.875-10.675,5.458-10.191,1.454-18.484-4.737-19.371-15.4-.665-8-.213-16.089-.291-24.139-.011-1.155.441-1.646,1.578-1.54a4.624,4.624,0,0,0,.6,0c7.992-.285,7.987-.285,8,7.667,0,4.764-.036,9.53.056,14.292.114,5.922,3.7,9.811,9.179,10.1a10.077,10.077,0,0,0,10.582-9.521c.314-6.645.257-13.312.172-19.967-.027-2.137.669-2.631,2.706-2.621,7.314.036,7.314-.039,7.314,7.182,0,10.238-.075,20.478.057,30.714.029,2.285-.651,3.086-2.838,2.727a7.48,7.48,0,0,0-1.192-.009C582.033,171.761,582.033,171.761,580.832,166.816Z" transform="translate(-305.073 -113.899)"/><path class="c" d="M240.964,172.587a24.818,24.818,0,0,1-16.383-5.279c-1.56-1.235-2.188-2.356-.646-4.11,1.236-1.406,1.9-3.7,3.379-4.4,1.5-.711,2.773,1.666,4.371,2.356a33.028,33.028,0,0,0,8.81,2.583,9.284,9.284,0,0,0,6.261-1.442,3.965,3.965,0,0,0,2.014-3.729c-.081-1.758-1.293-2.589-2.766-3.119-2.271-.817-4.688-.746-7.041-1.046a25.369,25.369,0,0,1-9.076-2.68,11.063,11.063,0,0,1-.81-19.169c6.894-4.628,19.311-4.312,26,.581,1.385,1.012,2.042,1.855.439,3.18a4.27,4.27,0,0,0-.948,1.143c-1.809,3.132-3.727,3.806-7.125,1.586-3.134-2.048-7.045-1.808-10.688-.643-1.616.517-2.875,1.517-2.866,3.373.01,1.795,1.129,2.851,2.746,3.5,2.55,1.018,5.283.8,7.919,1.217a34.278,34.278,0,0,1,6.107,1.305c4.747,1.679,7.623,4.942,8.111,10.008a11.981,11.981,0,0,1-5.852,11.881C249.291,172.033,245.174,172.566,240.964,172.587Z" transform="translate(-173.445 -113.157)"/><path class="a" d="M497.292,143.176c0-2.883-.07-5.767.022-8.647.053-1.649-.5-2.235-2.208-2.292-5.419-.18-5.3-.253-5.429-5.781-.053-2.233.545-2.869,2.8-2.8,4.812.15,4.816.018,4.816-4.829,0-5.345,0-5.345,5.214-6.03,4.761-.625,4.761-.625,4.761,4.153,0,6.764,0,6.764,6.822,6.764a11.9,11.9,0,0,0,1.789-.014c2.093-.321,2.683.514,2.659,2.609-.069,5.967.029,5.968-5.9,5.968-5.495,0-5.495,0-5.495,5.513,0,3.877-.041,7.754.01,11.63.069,5.2,3.188,7.561,8.041,5.876,1.838-.638,2.541-.26,2.841,1.493a5.97,5.97,0,0,0,.294.842c2.064,6.2,1.979,6.328-4.625,7.164-9.683,1.226-16.009-4.1-16.385-13.868C497.212,148.348,497.3,145.761,497.292,143.176Z" transform="translate(-280.65 -106.42)"/><path class="a" d="M296.539,143.5c0-2.98-.085-5.963.032-8.938.072-1.824-.581-2.381-2.4-2.407-5.2-.075-5.027-.162-5.261-5.355-.121-2.683.685-3.612,3.277-3.186.774.127,1.6-.054,2.382.034,1.634.183,2.138-.6,1.973-2.084a10.576,10.576,0,0,1-.006-1.192c.019-7.656.021-7.622,7.72-8.053,1.593-.089,2.382.2,2.286,2.019-.13,2.476.028,4.966-.051,7.447-.046,1.433.493,1.922,1.91,1.872,2.483-.086,4.972.039,7.455-.045,1.406-.048,1.829.433,1.909,1.854.377,6.734.425,6.7-6.31,6.74-5.986.033-5-.663-5.061,5.025-.042,4.17-.11,8.347.072,12.511.213,4.878,3.1,6.936,7.815,5.492,2.083-.637,2.66.066,3.247,1.854,2.181,6.636,2.038,6.917-5.073,7.657-9.315.969-15.432-4.242-15.774-13.5-.1-2.577-.014-5.16-.014-7.74Z" transform="translate(-199.924 -106.337)"/><path class="c" d="M437.587,135.1c6.428-6.383,14.039-7.345,20.455-3.335,1.519.949,2.268,1.839,1.034,3.5a13.107,13.107,0,0,0-.835,1.575c-.853,1.559-1.356,3.688-2.674,4.508-1.3.81-2.892-1.119-4.5-1.559-6.608-1.8-12.6,2.25-12.893,9.215-.277,6.541-.185,13.1-.081,19.653.032,2-.624,2.446-2.52,2.45-7.58.016-7.58.081-7.58-7.519,0-10.127.075-20.255-.057-30.38-.03-2.3.683-3.051,2.863-2.733a11.573,11.573,0,0,0,2.382.011C435.946,130.309,438.7,130.117,437.587,135.1Z" transform="translate(-255.826 -113.199)"/><path class="c" d="M720.6,151.436c0,5.953-.079,11.909.044,17.859.041,1.973-.575,2.474-2.5,2.481-7.631.028-7.631.1-7.631-7.435,0-10.22.057-20.441-.047-30.66-.021-2.091.578-2.659,2.657-2.654,7.482.02,7.482-.059,7.482,7.311Z" transform="translate(-369.422 -113.866)"/><path class="d" d="M911.314,131.239c.005,12.586-.047,25.172.069,37.757.021,2.237-.589,2.822-2.811,2.8-7.393-.077-7.394.016-7.394-7.383,0-10.108-.016-20.216.025-30.325,0-1.014-.5-2.2.608-3.026Z" transform="translate(-446.073 -113.879)"/><path class="c" d="M714.864,102.341a5.559,5.559,0,0,1,5.846,5.748,5.891,5.891,0,0,1-5.659,6.058,6.067,6.067,0,0,1-6.074-6.024A5.675,5.675,0,0,1,714.864,102.341Z" transform="translate(-368.827 -102.331)"/><path class="b" d="M911.677,107.979c.05,3.666-1.932,5.762-5.543,5.862-3.775.1-5.945-1.809-6.025-5.312-.084-3.689,2.138-6.136,5.634-6.2A5.59,5.59,0,0,1,911.677,107.979Z" transform="translate(-445.676 -102.325)"/></svg>