<svg xmlns="http://www.w3.org/2000/svg" xmlns:xlink="http://www.w3.org/1999/xlink" width="138.48" height="132.05" viewBox="0 0 138.48 132.05"><defs><style>.a{fill:none;stroke:#6a98c0;}.b{opacity:0.1;}.c{filter:url(#e);}.d{filter:url(#c);}.e{filter:url(#a);}</style><filter id="a" x="0" y="74.327" width="138.48" height="57.723" filterUnits="userSpaceOnUse"><feOffset dy="3" input="SourceAlpha"/><feGaussianBlur stdDeviation="3" result="b"/><feFlood flood-opacity="0.161"/><feComposite operator="in" in2="b"/><feComposite in="SourceGraphic"/></filter><filter id="c" x="42.08" y="59.214" width="54.309" height="40.478" filterUnits="userSpaceOnUse"><feOffset dy="3" input="SourceAlpha"/><feGaussianBlur stdDeviation="3" result="d"/><feFlood flood-opacity="0.161"/><feComposite operator="in" in2="d"/><feComposite in="SourceGraphic"/></filter><filter id="e" x="33.802" y="0.193" width="70.902" height="91.808" filterUnits="userSpaceOnUse"><feOffset dy="3" input="SourceAlpha"/><feGaussianBlur stdDeviation="3" result="f"/><feFlood flood-opacity="0.161"/><feComposite operator="in" in2="f"/><feComposite in="SourceGraphic"/></filter></defs><g transform="translate(9.5 -0.448)"><g class="e" transform="matrix(1, 0, 0, 1, -9.5, 0.45)"><path class="a" d="M119.48,366.143v17.972H0V366.143A11.528,11.528,0,0,1,7.341,355.39l25.193-9.907L52.2,367.091l6.171-12.57V354.5l1.371-2.815,1.4,2.815,6.173,12.6,19.637-21.608,25.218,9.907a11.569,11.569,0,0,1,7.316,10.753" transform="translate(9.5 -264.57)"/></g><g class="d" transform="matrix(1, 0, 0, 1, -9.5, 0.45)"><path class="a" d="M215.6,295.661h.025V285.431a55.1,55.1,0,0,1-4.59,6l-2.439,2.688a11.923,11.923,0,0,1-8.737,3.858H196.13a11.91,11.91,0,0,1-8.737-3.858l-2.439-2.688a54.1,54.1,0,0,1-4.632-6.069v10.278l.04.02,15.358,8.662,2.265,1.269,2.265-1.269Z" transform="translate(-128.74 -218.48)"/></g><g class="b" transform="translate(53.236 67.454)"><path class="a" d="M228.337,297.453l-.045-.015c-.025-.01-.052-.017-.077-.025s-.052-.015-.087-.027l9.387,6.972,14.741-8.314h.015l.01-10.178c-.025.037-3.5,4.59-4.59,5.947l-2.439,2.691a11.923,11.923,0,0,1-8.737,3.858h-3.734a10.623,10.623,0,0,1-2.218-.236,11.531,11.531,0,0,1-2.226-.672" transform="translate(-228.128 -285.866)"/></g><g transform="translate(31.122 38.933)"><path class="a" d="M144.513,171.27c.388,4.468-1.78,8.309-4.842,8.573s-5.867-3.139-6.263-7.607,1.78-8.3,4.846-8.573,5.869,3.136,6.258,7.607" transform="translate(-133.364 -163.648)"/><path class="a" d="M341.922,172.249c-.388,4.468-3.194,7.873-6.258,7.6s-5.237-4.1-4.842-8.573,3.194-7.876,6.258-7.607,5.235,4.1,4.842,8.575" transform="translate(-284.708 -163.657)"/></g><g class="c" transform="matrix(1, 0, 0, 1, -9.5, 0.45)"><path class="a" d="M196.693,66.842c-.47,5-2.84,16.028-12.344,26.831l-2.439,2.688a11.917,11.917,0,0,1-8.737,3.861h-3.734a11.9,11.9,0,0,1-8.737-3.861l-2.439-2.688c-9.509-10.8-11.848-21.83-12.349-26.831a96.482,96.482,0,0,1,0-17.922,25.74,25.74,0,0,1,50.779,0,96.515,96.515,0,0,1,0,17.922" transform="translate(-102.05 -20.72)"/></g><path class="a" d="M136.933,13.431s.174-16.76,24.541-11.405A42.178,42.178,0,0,1,181.342,17.06s7.3,10.6,3.331,19.515c-1.289,2.895-2.673,6.208-2.514,8.869,0,0-1.352-5.648-2.158-10.355a22.034,22.034,0,0,0-4.978-10.669l-.077-.092a17.06,17.06,0,0,0-17.068-5.561,30.655,30.655,0,0,0-10.1,4.931s-10.151-6.813-15.169,5.113c0,0-2.235,8.717-1.919,15.6,0,0-13.972-29.255,6.243-30.983" transform="translate(-96.586 0)"/><path class="a" d="M343.4,334.8c-.05-.423-.147-4.3-.943-5.872a8.926,8.926,0,0,0-6.671-4.854l-8.015-1.618V324.1h-.025l-1.147.647,8.789,1.792a6.379,6.379,0,0,1,4.829,3.507,6.286,6.286,0,0,1,.675,3.836l-.052.647c-10.529,9.135-13.516,17.374-13.641,17.748-.792,2.365-.744,4.232.127,5.576a3.844,3.844,0,0,0,2.76,1.718l.249-2.489a1.437,1.437,0,0,1-.943-.622c-.4-.65-.351-1.842.174-3.363a37,37,0,0,1,5.974-9.586,5.335,5.335,0,0,1,7.044,2.089c.5,7.2-.6,11.428-.622,11.453-.475,1.543-1.123,2.564-1.842,2.838a1.215,1.215,0,0,1-1.1-.05l-.622,1.093-.647,1.078a3.777,3.777,0,0,0,1.892.5,3.419,3.419,0,0,0,1.347-.274c1.494-.57,2.641-2.066,3.383-4.456.1-.373,2.414-9.063-.973-22.977m-3.306,6.447a7.274,7.274,0,0,0-2.3-.3c1.075-1.172,2.265-2.365,3.612-3.582.373,1.74.647,3.408.846,4.978a7.389,7.389,0,0,0-2.163-1.1" transform="translate(-250.386 -246.461)"/><g transform="translate(79.241 110.121)"><path class="a" d="M342.217,470.881a1.853,1.853,0,0,1-2.173,1.456c-1-.2-.286-3.823.714-3.627a1.851,1.851,0,0,1,1.459,2.17" transform="translate(-339.565 -468.703)"/><path class="a" d="M367.672,479.824a1.848,1.848,0,0,0,.908,2.449c.929.426,2.469-2.932,1.541-3.36a1.85,1.85,0,0,0-2.449.911" transform="translate(-360.984 -476.401)"/></g><path class="a" d="M111.973,324.086l-.04-.02v-1.623l-5.382,1.108a19.313,19.313,0,0,0-13.793,26.686l2.28-1a16.823,16.823,0,0,1,12.01-23.244l6.081-1.252Z" transform="translate(-69.857 -246.454)"/><g transform="translate(32.533 77.607)"><path class="a" d="M283.207,333.135l-18.368,24.1L256,339.333l2.265-1.269,15.358-8.662h.025l.025-.025Z" transform="translate(-228.793 -329.376)"/><path class="a" d="M139.413,333.135l18.4,24.1,8.809-17.9-2.265-1.269L149,329.4l-.05-.025Z" transform="translate(-139.413 -329.376)"/></g><path class="a" d="M218.251,404.477l5.026-11.45-2.168-3.186-1.588-2.39,6.168-12.593,1.371-2.815,1.4,2.815v.025l6.173,12.568-1.618,2.367-2.168,3.209,5.056,11.45Z" transform="translate(-167.32 -284.479)"/><path class="a" d="M238.8,387.451l-1.618,2.367-5.927-12.125-5.977,12.147-1.588-2.39,6.168-12.593,1.371-2.815,1.4,2.815v.025Z" transform="translate(-171.49 -284.479)"/><path class="a" d="M98.06,439.737a5.638,5.638,0,1,1-5.641-5.635,5.643,5.643,0,0,1,5.641,5.635" transform="translate(-66.532 -332.056)"/><path class="a" d="M102.284,445.813a3.787,3.787,0,1,1-3.783-3.786,3.784,3.784,0,0,1,3.783,3.786" transform="translate(-72.608 -338.132)"/><path class="a" d="M104.881,449.542a2.653,2.653,0,1,1-2.648-2.651,2.65,2.65,0,0,1,2.648,2.651" transform="translate(-76.337 -341.86)"/></g></svg>