<svg xmlns="http://www.w3.org/2000/svg" width="252.921" height="196.46" viewBox="0 0 252.921 196.46"><defs><style>.a{fill:#355389;}.b{fill:#466eb6;}.c{fill:#13375b;}.d{fill:#f7a491;}.e{fill:#3c8f7c;}.f{fill:#50bfa5;}.g{fill:#f47458;}.h{fill:#f7cc7f;}.i{fill:#f47257;}.j{fill:#e0973f;}.k{fill:#ffce00;}.l{fill:#fae0b2;}.m{fill:#b75742;}.n{fill:#184655;}.o{fill:#fff;}.p{fill:#f8a492;}.q{fill:#9bc1f9;}.r{fill:#f48c7f;}.s{fill:#07345a;}.t{fill:#96d9c9;}.u{fill:#f79c8d;}.v{fill:#fff3d9;}.w{fill:#fed333;}</style></defs><g transform="translate(152.783 136.289)"><g transform="translate(0.367 0)"><path class="a" d="M1500.585,1398.462s24.808-12.232,29.074-18.612-2.005-6.741-2.005-6.741,11.071-10.767,9.513-15.3-7.292-.375-7.292-.375,7.118-15.846,3.762-17.439c-6.252-2.967-15.022,14.082-15.022,14.082s1.885-7.406-2.42-7.166c-6.492.363-6.224,17.117-6.224,17.117s-.733-6.424-4.646-4.337C1498.3,1363.435,1500.585,1398.462,1500.585,1398.462Z" transform="translate(-1500.231 -1339.649)"/></g><path class="b" d="M1501.526,1357.1c3.056-1.7,6.1,3.26,6.1,3.26s-.308-13.086,6.184-13.448c4.3-.241,2.42,7.165,2.42,7.165s8.77-17.049,15.022-14.082l-33.08,58.194C1497.937,1394.125,1495.473,1360.458,1501.526,1357.1Z" transform="translate(-1497.479 -1339.648)"/><g transform="translate(1.3 30.957)"><g transform="translate(0.062 1.908)"><path class="a" d="M1507.7,1612.307s20.29,2.52,25.543.274,1.489-5.02,1.489-5.02,11.28-2.217,12.15-5.677-4.333-3.184-4.333-3.184,10.816-7,9.37-9.362c-2.694-4.391-15.092,2.68-15.092,2.68s4.185-3.854,1.4-5.453c-4.2-2.411-10.837,8.147-10.837,8.147s.412-2.6-2.876-2.891C1518.612,1591.3,1507.7,1612.307,1507.7,1612.307Z" transform="translate(-1507.697 -1586.208)"/></g><path class="b" d="M1523.979,1577.525c3.288.288,3.009,4.782,3.009,4.782s6.76-12.516,10.957-10.1c2.783,1.6-.51,6.851-.51,6.851s11.386-6.511,14.079-2.12l-44.28,22.856C1508.74,1597.16,1518.467,1577.042,1523.979,1577.525Z" transform="translate(-1507.235 -1571.894)"/></g></g><g transform="translate(56.119 135.649)"><g transform="translate(8.259 0)"><path class="a" d="M870.975,1393.664s-24.808-12.232-29.074-18.612,2.005-6.741,2.005-6.741-11.07-10.767-9.513-15.3,7.37-.2,7.37-.2-7.2-16.02-3.839-17.612c6.252-2.968,15.022,14.082,15.022,14.082s-1.885-7.407,2.42-7.166c6.492.363,6.224,17.117,6.224,17.117s.733-6.424,4.646-4.337C873.256,1358.637,870.975,1393.664,870.975,1393.664Z" transform="translate(-834.242 -1334.851)"/><path class="b" d="M891.581,1352.3c-3.056-1.7-6.1,3.26-6.1,3.26s.309-13.085-6.184-13.448c-4.305-.241-2.42,7.166-2.42,7.166s-8.77-17.05-15.022-14.082l33.08,58.194C895.17,1389.327,897.634,1355.661,891.581,1352.3Z" transform="translate(-858.175 -1334.851)"/></g><g transform="translate(0 30.877)"><g transform="translate(0 1.989)"><path class="a" d="M816.635,1607.51s-20.289,2.52-25.543.274-1.488-5.02-1.488-5.02-11.28-2.217-12.151-5.677,4.515-3.12,4.515-3.12-11-7.068-9.552-9.426c2.694-4.391,15.092,2.679,15.092,2.679s-4.185-3.854-1.4-5.453c4.2-2.412,10.837,8.147,10.837,8.147s-.412-2.6,2.876-2.891C805.72,1586.507,816.635,1607.51,816.635,1607.51Z" transform="translate(-772.285 -1581.41)"/></g><path class="b" d="M800.326,1570.569a3.438,3.438,0,0,0-3.237,3.483s-6.053-9.583-10.25-7.172c-2.783,1.6.51,6.851.51,6.851s-11.385-6.511-14.079-2.121l44.28,22.856C816.043,1591.838,805.838,1570.086,800.326,1570.569Z" transform="translate(-773.138 -1566.491)"/></g></g><g transform="translate(204.314 100.377)"><path class="c" d="M1985.328,1303.975c.61-1.469,1.231-2.941,2.815-3.685a3.544,3.544,0,0,1,3.759.481c3.227,2.426.415,5.1,4.088,9.7,1.141,1.43,2.522,2.584,3.206,4.259.957,2.345-.183,3.471-2.01,4.594-8.743,5.374-13.325-5.66-13.161-8.184A40.622,40.622,0,0,1,1985.328,1303.975Z" transform="translate(-1970.698 -1269.332)"/><path class="d" d="M1937.874,1697.2a24.761,24.761,0,0,0,1.2,3.856c.044.1.446.44.494.538a6.561,6.561,0,0,1-3,4.938,29.673,29.673,0,0,0,.814-2.891,34.274,34.274,0,0,0-2.041-4.765C1936.53,1698.7,1936.929,1697.956,1937.874,1697.2Z" transform="translate(-1928.508 -1613.625)"/><path class="a" d="M1905.715,1483.308l7.443,5.653s-3.685,3.545-5.067,4.863-9.911,7.454-10.032,7.756c-.089.224,1.941,7.278,3.25,11.044a9.1,9.1,0,0,1-3.545,1.852c-2.58-4.925-5.751-13.327-5.751-14.468C1892.012,1498.15,1905.715,1483.308,1905.715,1483.308Z" transform="translate(-1890.953 -1428.247)"/><path class="d" d="M2119.43,1548.988a33.918,33.918,0,0,0-2.474,5.069,13.6,13.6,0,0,0-2.45-1.623,25.22,25.22,0,0,0,2.467-4.567c.3-1.56.656-1.789.656-1.789s5.229,1.769,5.577,2.265S2120.408,1548.035,2119.43,1548.988Z" transform="translate(-2083.79 -1482.65)"/><path class="e" d="M2131.462,1543.309c-.406,0,.034-1.833.128-2.255a.79.79,0,0,1,.448-.634,43.394,43.394,0,0,1,6.978,2.626,1.162,1.162,0,0,1,.2.233c.537,1-4.253,1.194-4.942.755A3.952,3.952,0,0,0,2131.462,1543.309Z" transform="translate(-2098.339 -1477.746)"/><path class="b" d="M1982.886,1478.762l6.5-2.625c-.026.011.039.264.044.284.61,2.372,3.861,1.457,5.2,5.577.948,2.911,2.336,13.8,2.336,13.8a31.326,31.326,0,0,1,4.04-5.315c.237-.267,3.248,1.8,3.248,1.8-2.239,5.937-7.739,10.761-8.483,10.42-5.031-2.308-11.073-20.518-11.065-20.517C1984.134,1481.072,1982.886,1478.762,1982.886,1478.762Z" transform="translate(-1969.714 -1422.032)"/><path class="d" d="M1935.531,1226.061a55.362,55.362,0,0,1-3.577-6.428c-.53-1.6,0-9.248.046-9.791s1.892-2.028,1.6-2.455-2.832-.775-3.259-.692-1.256.007-1.6.351c-.044.044.809,2.057.791,2.369-.121,2.13-1.331,8.91-.935,10.744.455,2.108,4.98,8.846,4.98,8.846Z" transform="translate(-1922.599 -1188.495)"/><path class="d" d="M2064.1,1355.976s8.151.2,9.94.35,8.283-.394,8.535-.423,1.915-2.846,2.191-2.544-.926,1.4-.554,1.681,4.366-.352,4.313-.057c-.1.552-2.429.482-2.427.749s2.439-.149,2.6.293-2.344.181-2.443.378,2.327.56,2.078.971c-.135.224-2.15-.373-2.141-.069s1.48,1,1.3,1.241-1.154-.745-2.007-.757-1.465-.457-2.826-.084-6,2.246-8.91,2.108-9.327-.424-9.327-.424Z" transform="translate(-2040.099 -1315.6)"/><path class="f" d="M1958.481,1360.716c-.111-1.344-.3-4.972-.239-5.418a23.085,23.085,0,0,0-2.2-4.052s2.013-2.28,3.5-2.261a12.516,12.516,0,0,0,2.766,2.62,2.936,2.936,0,0,0,.592.177,48.417,48.417,0,0,1,5.855.093l-.42,6.144c-.214.352-.473,7.416-.913,8s-6.839,3.228-7.9,2.545C1959.486,1368.533,1958.706,1363.434,1958.481,1360.716Z" transform="translate(-1946.448 -1311.829)"/><path class="f" d="M2035.93,1369.527c.733-.35,6.091-.339,6.091-.339s.741,3.7.142,4.584c0,0-4.745.706-4.61,1.1Z" transform="translate(-2015.687 -1329.34)"/><path class="d" d="M2005.514,1345.766a16.387,16.387,0,0,0-.329,2.972c.083.841-.314,3.55-2.094,3.559s-.338-3.445-.17-4.269a31.554,31.554,0,0,0,.207-3.374Z" transform="translate(-1986.463 -1308.075)"/><path class="g" d="M2008.815,1345.933c.028-.7.036-1.279.036-1.279l2.386,1.111s-.084.436-.169.991A2.084,2.084,0,0,1,2008.815,1345.933Z" transform="translate(-1992.186 -1308.075)"/><path class="d" d="M2006.226,1307.035a2.955,2.955,0,0,1,1.256,1.616c.336,1.105-.046,3.959-2.422,4.647s-3.4-1.571-2.915-3.337S2003.7,1305.958,2006.226,1307.035Z" transform="translate(-1986.303 -1275.226)"/><path class="d" d="M2000.644,1319.768c.047.474.308.837.584.81s.463-.433.416-.908-.308-.837-.584-.81S2000.6,1319.293,2000.644,1319.768Z" transform="translate(-1985.099 -1285.718)"/><path class="e" d="M1944.5,1726.055c.137-.382,1.692.766,2.058,1a.789.789,0,0,1,.444.637c-.019.185-3.707,5.063-4.811,5.757a.646.646,0,0,1-.4.052c-.634-.219.251-4.136,1.045-4.931A4.987,4.987,0,0,0,1944.5,1726.055Z" transform="translate(-1933.916 -1638.571)"/><g transform="translate(0 0)"><path class="h" d="M1908.187,1084.841l-6.544,2.326a1.076,1.076,0,0,0-.678.736l-1.791,6.728a1.073,1.073,0,0,1-1.891.377l-4.237-5.525a1.076,1.076,0,0,0-.909-.42l-6.936.361a1.079,1.079,0,0,1-.944-1.687l3.925-5.741a1.081,1.081,0,0,0,.116-1l-2.5-6.5a1.075,1.075,0,0,1,1.307-1.42l6.663,1.977a1.072,1.072,0,0,0,.981-.2l5.394-4.381a1.076,1.076,0,0,1,1.752.81l.193,6.963a1.082,1.082,0,0,0,.49.876l5.829,3.8A1.079,1.079,0,0,1,1908.187,1084.841Z" transform="translate(-1884.067 -1070.234)"/></g><path class="d" d="M1951.486,1211.961c.244.358-1.079,1.494-1.445,2.121l-.83-1.131C1949.62,1212.872,1951.208,1211.552,1951.486,1211.961Z" transform="translate(-1940.528 -1193.002)"/><path class="c" d="M2031.445,1307.785s.431,3.183,1.46,3.757.6,1.986.6,1.986.933-3.279.119-4.331A4.527,4.527,0,0,0,2031.445,1307.785Z" transform="translate(-2011.8 -1276.12)"/><path class="d" d="M2036.468,1336.252c-.279.415-.278.9,0,1.092s.734.006,1.013-.409.278-.9,0-1.092S2036.747,1335.838,2036.468,1336.252Z" transform="translate(-2015.973 -1300.375)"/><path class="i" d="M1946.516,1214.475l.02.022.3.392a1.2,1.2,0,0,0-1.055.1A1.283,1.283,0,0,1,1946.516,1214.475Z" transform="translate(-1937.555 -1195.248)"/></g><g transform="translate(13.259 97.318)"><g transform="translate(7.66 57.647)"><path class="d" d="M533.377,1479.764a13.044,13.044,0,0,1-2.17,2.542,9.487,9.487,0,0,0-2.024,3.9c-.44,2.205-.074,13.1-.457,13.876-3.286,3.213-5.666,11.275-6.334,13.735a2.63,2.63,0,0,1-.76,1.248h0l.146,2.78,1.633,1.5a8.328,8.328,0,0,1,.362-3.945s8.274-12.53,8.765-13.488c.938-2.727,4.355-16.7,4.355-16.7l.793-3.212Z" transform="translate(-519.844 -1479.764)"/><path class="g" d="M508.215,1745.221a9.876,9.876,0,0,1,1.122,2.213c.088.621.639,2.028,1.247,2.117.138.02,2.506.194,2.489-.1-.013-.226-.87-.549-1.268-.824-.688-.475-1.755-4.344-1.755-4.344S508.26,1744.726,508.215,1745.221Z" transform="translate(-508.215 -1709.023)"/></g><path class="d" d="M630.2,1500.276s5.329,11.394,5.363,13.4c.029,1.717-.932,11.352-.663,19.375.01.29.377.675.91.919.3.138,1.752.786,1.752.786l.2.519-5-.356-.071-1.364s-1.989-12-1.786-15.4c.032-.533.291-3.726.291-3.726l-6.01-11.6,3.78-4.967Z" transform="translate(-601.934 -1437.801)"/><path class="a" d="M573.012,1289.375a4.613,4.613,0,0,0-5.114-3.052,4.82,4.82,0,0,0-3.021-2.157c-2.412-.517-5.674.436-5.586,2.99-.936,1.716-.972,4.168.46,5.473-.5,2.307,1.663,4.538,4.471,4.457a4.966,4.966,0,0,0,4.695,2.429,11.333,11.333,0,0,1,1.236-.136c-.141-.026,2.977,2.364,5.619-1.312C578.469,1294.316,576.575,1289.776,573.012,1289.375Z" transform="translate(-544.248 -1252.474)"/><path class="d" d="M628.161,1211.411a4.98,4.98,0,0,1,.48-.879l.208-.3a1.344,1.344,0,0,0,.056-.13,4.854,4.854,0,0,0,.021-1.135l-1.823.441-.4,1.052c-.406-.187-1.1-1.6-1.352-1.259-.3.4.827,2.134.916,2.6s-.968,7.76-1.274,9.207a39.344,39.344,0,0,1-2.368,5.49l1.887,2.394s3.024-6.162,3.224-8.043c.021-.2.044-.494.07-.861Z" transform="translate(-599.715 -1187.414)"/><path class="d" d="M466.627,1384.148l-2.241-1.9s-1.814,3.024-3.267,5.491a45.892,45.892,0,0,1-5.35-3.061c-.184-.112-.593-2.856-.908-2.711s.243,1.448-.14,1.546-3.251-1.819-3.31-1.563c-.11.479,1.712,1.242,1.62,1.456s-1.832-.978-2.109-.681,1.748.97,1.758,1.164-1.985-.369-1.932.049c.029.227,1.786.457,1.675.7s-1.48.282-1.423.54,1.143-.193,1.805.1,1.285.147,2.21.927,5.468,5.227,6.884,4.846C463.136,1390.714,466.627,1384.148,466.627,1384.148Z" transform="translate(-450.747 -1337.321)"/><g transform="translate(11.692 38.541)"><path class="g" d="M571.155,1618.67s0,0,0,0Z" transform="translate(-566.797 -1581.048)"/><path class="g" d="M550.443,1341.884a25.406,25.406,0,0,1,1.713-3.606s-1.572-2-2.848-1.846c0,0-1.715,2.843-2.689,2.938s-4.4.244-5,.609-3.152,4.281-3.152,4.281,2.292,2.341,3.214,2.336a9.666,9.666,0,0,1,.685-1.176c.139.448,2.274,7.367,2.271,8.934l.016.013a4.484,4.484,0,0,0,6.448-.828h0a35.65,35.65,0,0,1-.078-4.146C551.18,1346.276,551.811,1344.62,550.443,1341.884Z" transform="translate(-538.463 -1336.423)"/><path class="b" d="M586.145,1479.925l-10.46-15.111a10.264,10.264,0,0,1-1.945.621,20.167,20.167,0,0,1-4.52.194,1.145,1.145,0,0,1-.009.148c-.175,1.246-1.827,3.175-2.168,6.955a92.464,92.464,0,0,0-.022,12.234C573.976,1484.121,584.172,1482,586.145,1479.925Z" transform="translate(-563.051 -1447.7)"/></g><g transform="translate(14.224 0)"><path class="g" d="M652.76,1218.47a1.809,1.809,0,0,1-1.216.3,2.281,2.281,0,0,1-.815-.349,2.292,2.292,0,0,0,.764.808C652.28,1219.649,652.76,1218.47,652.76,1218.47Z" transform="translate(-638.297 -1195.608)"/><path class="h" d="M558.949,1067.03l6.082-1.255a.934.934,0,0,1,.857.266l4.447,4.521a.95.95,0,0,0,1.622-.6l.726-6.429a1,1,0,0,1,.505-.768l5.485-3.011a1.022,1.022,0,0,0-.047-1.8l-5.633-2.718a1,1,0,0,1-.544-.74l-1.057-6.382a.949.949,0,0,0-1.651-.512l-4.207,4.749a.935.935,0,0,1-.842.31l-6.138-.933a.994.994,0,0,0-.974,1.48l3.033,5.653a1.041,1.041,0,0,1,.024.932L557.9,1065.6A.993.993,0,0,0,558.949,1067.03Z" transform="translate(-557.454 -1047.285)"/></g><path class="d" d="M586.419,1332.909a15.815,15.815,0,0,1,.294,2.763c-.074.782.281,3.3,1.869,3.308s.3-3.2.152-3.968a30.47,30.47,0,0,1-.185-3.136Z" transform="translate(-568.335 -1293.942)"/><path class="g" d="M588.582,1333.065c-.025-.648-.033-1.189-.033-1.189l-2.13,1.033s.075.405.151.922A1.825,1.825,0,0,0,588.582,1333.065Z" transform="translate(-568.335 -1293.942)"/><path class="d" d="M572.679,1296.906a2.72,2.72,0,0,0-1.121,1.5c-.3,1.028.041,3.68,2.162,4.319s3.039-1.46,2.6-3.1S574.935,1295.905,572.679,1296.906Z" transform="translate(-555.373 -1263.406)"/><path class="d" d="M604.05,1308.741c-.041.441-.275.778-.522.753s-.413-.4-.371-.844.275-.778.522-.753S604.091,1308.3,604.05,1308.741Z" transform="translate(-582.835 -1273.158)"/><path class="d" d="M569.646,1324.066c.249.385.248.84,0,1.015s-.655.005-.9-.38-.248-.84,0-1.016S569.4,1323.68,569.646,1324.066Z" transform="translate(-552.851 -1286.783)"/><path class="d" d="M654.118,1200.626a4.824,4.824,0,0,0-2.136,1.49c.016.212,1.714-.662,1.762-.523.038.109-1.9.617-1.8.812.069.133,1.809-.234,1.855-.148.072.133-1.451.19-1.353.338.114.17,1.565.1,1.565.1a3.3,3.3,0,0,0,.322-.646,1.437,1.437,0,0,0,.007-.3c-.006-.1.037-.18.024-.289C654.31,1201.021,654.346,1200.67,654.118,1200.626Z" transform="translate(-625.123 -1180.184)"/><path class="d" d="M643.8,1207.879l-.648.8-.427-.319a.212.212,0,0,1,.014-.178C642.792,1208.072,643.789,1207.583,643.8,1207.879Z" transform="translate(-617.127 -1186.391)"/><path class="g" d="M681.067,1768.081h6.314c.234-.021.29-.209.209-.325a7.69,7.69,0,0,0-1.731-.8,10.781,10.781,0,0,1-4.843-1.174A6.144,6.144,0,0,0,681.067,1768.081Z" transform="translate(-650.256 -1670.014)"/><path class="d" d="M645.936,1214.079a4.136,4.136,0,0,1,1.212,1.135,1.474,1.474,0,0,1,.191,1.119l-1.468-1.807Z" transform="translate(-619.862 -1191.846)"/></g><g transform="translate(68.348 43.657)"><path class="j" d="M1493.583,678.232a6.407,6.407,0,0,1-.664,2.058q-.961,1.161-1.821,2.393c.4-.028.793-.047,1.2-.047a15.134,15.134,0,0,1,10.36,3.921,10.69,10.69,0,0,1,0,16.312,15.649,15.649,0,0,1-20.7.02c-.2.587-.4,1.17-.594,1.757a4.562,4.562,0,0,0-2.27,4.123c0,2.469,1.657,4.47,3.7,4.47a3.817,3.817,0,0,0,3.482-2.97,19.009,19.009,0,0,0,6.019.972c9.844,0,17.825-7.4,17.825-16.528C1510.119,685.987,1502.825,678.845,1493.583,678.232Z" transform="translate(-1397.107 -673.763)"/><path class="j" d="M880.568,678.232a6.4,6.4,0,0,0,.664,2.058q.961,1.161,1.821,2.393c-.4-.028-.794-.047-1.2-.047a15.133,15.133,0,0,0-10.36,3.921,10.689,10.689,0,0,0,0,16.312,15.649,15.649,0,0,0,20.7.02c.2.587.4,1.17.593,1.757a4.562,4.562,0,0,1,2.27,4.123c0,2.469-1.657,4.47-3.7,4.47a3.817,3.817,0,0,1-3.482-2.97,19.007,19.007,0,0,1-6.019.972c-9.845,0-17.825-7.4-17.825-16.528C864.032,685.987,871.326,678.845,880.568,678.232Z" transform="translate(-864.032 -673.763)"/><path class="k" d="M1056.141,664.112v4.563a37.347,37.347,0,0,1-37.344,37.344c-9.5-.126-16.015.856-25.034-3.137a37.355,37.355,0,0,1-22.349-34.207v-4.563Z" transform="translate(-957.1 -661.526)"/><path class="l" d="M1065.723,702.882l.028.013,13.424-38.783H1065.2l-10.76,31.091A37.39,37.39,0,0,0,1065.723,702.882Z" transform="translate(-1029.06 -661.526)"/><path class="l" d="M1162.721,705.5l14.165-41.387h-7.02l-13.586,39.7A33.888,33.888,0,0,0,1162.721,705.5Z" transform="translate(-1117.325 -661.526)"/><path class="l" d="M1029.088,693.782l10.593-29.67h-3.337l-9.584,26.846Q1027.856,692.428,1029.088,693.782Z" transform="translate(-1005.069 -661.526)"/><path class="h" d="M1043.607,644.708H966.491c-2.814,0-5.109,1.566-5.271,3.54h87.657C1048.716,646.274,1046.422,644.708,1043.607,644.708Z" transform="translate(-948.266 -644.708)"/><path class="h" d="M1181.815,970.312l4.363,22.4h19.08l5.406-22.4Z" transform="translate(-1139.456 -926.911)"/><path class="m" d="M1210.669,970.324l-1.22,5.054h-26.643l-.986-5.054Z" transform="translate(-1139.461 -926.921)"/><path class="h" d="M1210.669,1200.588H1181.82l2.163-11.118,2.2-11.281h19.083l2.724,11.281Z" transform="translate(-1139.461 -1107.078)"/><path class="m" d="M1210.669,1273.942H1181.82l2.163-11.118h24.005Z" transform="translate(-1139.461 -1180.432)"/><path class="l" d="M2.655,0H27.237a2.655,2.655,0,0,1,2.655,2.655v0A2.655,2.655,0,0,1,27.236,5.31H2.655A2.655,2.655,0,0,1,0,2.655v0A2.655,2.655,0,0,1,2.655,0Z" transform="translate(41.316 65.8)"/><g transform="translate(27.998 84.679)"><path class="h" d="M7.314,0H26.761a7.314,7.314,0,0,1,7.314,7.314v0a0,0,0,0,1,0,0H0a0,0,0,0,1,0,0v0A7.314,7.314,0,0,1,7.314,0Z" transform="translate(11.261)"/><path class="h" d="M1130.676,1337.459v2.225h-56.6v-2.225c0-2.564,1.565-4.645,3.493-4.645h49.611C1129.111,1332.814,1130.676,1334.895,1130.676,1337.459Z" transform="translate(-1074.078 -1325.772)"/><path class="l" d="M1147.045,1332.813l-1.791,6.87h-2.362l1.791-6.87Z" transform="translate(-1133.72 -1325.772)"/><path class="l" d="M1121.655,1332.813l-1.791,6.87H1117.5l1.794-6.87Z" transform="translate(-1111.712 -1325.772)"/><path class="l" d="M1169.583,1332.813l-1.79,6.87h-2.365l1.794-6.87Z" transform="translate(-1153.251 -1325.772)"/></g><g transform="translate(10.828 144.778)"><path class="h" d="M1040.109,1735.5v2.225h-94.84V1735.5c0-2.564,2.622-4.645,5.854-4.645h83.133C1037.487,1730.857,1040.109,1732.938,1040.109,1735.5Z" transform="translate(-945.269 -1730.857)"/><path class="l" d="M1067.538,1730.857l-3,6.87h-3.958l3-6.87Z" transform="translate(-1045.21 -1730.857)"/><path class="l" d="M1024.993,1730.857l-3,6.87h-3.963l3.005-6.87Z" transform="translate(-1008.331 -1730.857)"/><path class="l" d="M1105.306,1730.857l-3,6.87h-3.963l3.005-6.87Z" transform="translate(-1077.939 -1730.857)"/></g><path class="h" d="M1155.837,938.563v1.679a5.26,5.26,0,0,1-5.258,5.263h-37.992a5.261,5.261,0,0,1-5.262-5.263v-1.679Z" transform="translate(-1074.894 -899.394)"/><path class="e" d="M1093.995,1430.55h-71.37l.87-46.186h69.543Z" transform="translate(-1001.485 -1285.772)"/><path class="f" d="M1187.379,1430.55h-37.426l.457-46.186h36.467Z" transform="translate(-1111.841 -1285.772)"/></g><path class="n" d="M589.241,1782.4H351.811a.538.538,0,0,0-.538.538h0a.538.538,0,0,0,.538.538h237.43a.538.538,0,0,0,.537-.538h0A.538.538,0,0,0,589.241,1782.4Z" transform="translate(-351.273 -1587.093)"/><g transform="translate(115.975 116.775)"><g transform="translate(6.701 15.861)"><path class="m" d="M1285.586,1366.7l-5.659-9.24-8.317,6.945,8.558-52.108,13.976,2.3Z" transform="translate(-1271.61 -1312.286)"/><path class="m" d="M1423.15,1364.334l-8.333-6.926-5.638,9.254-8.678-52.088,13.971-2.328Z" transform="translate(-1383.32 -1312.246)"/></g><path class="g" d="M1279.38,1221.115c0,3.01-2.654,5.564-3.536,8.281-.914,2.815-.3,6.436-2.005,8.779-1.722,2.367-5.367,2.893-7.734,4.615-2.343,1.705-3.96,5.019-6.776,5.933-2.716.882-5.959-.819-8.97-.819s-6.254,1.7-8.97.819c-2.815-.914-4.432-4.228-6.776-5.933-2.367-1.722-6.011-2.249-7.734-4.615-1.706-2.343-1.091-5.964-2-8.779-.882-2.716-3.536-5.271-3.536-8.281s2.654-5.564,3.536-8.281c.914-2.815.3-6.436,2-8.779,1.722-2.367,5.367-2.893,7.734-4.615,2.343-1.706,3.961-5.019,6.776-5.933,2.716-.882,5.96.819,8.97.819s6.254-1.7,8.97-.819c2.815.914,4.432,4.228,6.776,5.933,2.367,1.722,6.011,2.248,7.734,4.615,1.705,2.343,1.091,5.964,2,8.779C1276.726,1215.551,1279.38,1218.1,1279.38,1221.115Z" transform="translate(-1221.339 -1193.254)"/><path class="h" d="M1271.284,1260.566a15.47,15.47,0,0,1-3.1-.48,14.713,14.713,0,0,0-8.268,0,15.465,15.465,0,0,1-3.1.479,3.487,3.487,0,0,1-1.088-.151c-1.16-.377-2.2-1.558-3.3-2.81a18.332,18.332,0,0,0-2.883-2.822,18.589,18.589,0,0,0-3.61-1.9c-1.52-.661-2.956-1.286-3.66-2.253-.692-.951-.844-2.5-1.005-4.145a18.919,18.919,0,0,0-.7-4.045,18,18,0,0,0-1.768-3.563c-.856-1.444-1.665-2.808-1.665-4.068s.809-2.623,1.665-4.067a18,18,0,0,0,1.768-3.563,18.919,18.919,0,0,0,.7-4.045c.161-1.643.313-3.194,1.005-4.145.7-.967,2.14-1.591,3.66-2.253a18.609,18.609,0,0,0,3.611-1.9,18.352,18.352,0,0,0,2.883-2.822c1.1-1.252,2.143-2.434,3.3-2.81a3.5,3.5,0,0,1,1.087-.151,15.457,15.457,0,0,1,3.1.48,14.716,14.716,0,0,0,8.268,0,15.45,15.45,0,0,1,3.1-.48,3.5,3.5,0,0,1,1.088.151c1.161.377,2.2,1.559,3.3,2.81a18.35,18.35,0,0,0,2.883,2.822,18.615,18.615,0,0,0,3.61,1.9c1.52.661,2.956,1.286,3.66,2.252.692.951.844,2.5,1.005,4.145a18.938,18.938,0,0,0,.7,4.045,18,18,0,0,0,1.769,3.563c.856,1.444,1.665,2.808,1.665,4.067s-.809,2.624-1.665,4.068a17.97,17.97,0,0,0-1.768,3.563,18.919,18.919,0,0,0-.7,4.045c-.161,1.643-.314,3.194-1.005,4.145-.7.967-2.14,1.591-3.66,2.253a18.587,18.587,0,0,0-3.61,1.9,18.331,18.331,0,0,0-2.883,2.822c-1.1,1.252-2.143,2.434-3.3,2.81A3.487,3.487,0,0,1,1271.284,1260.566Z" transform="translate(-1235.032 -1206.949)"/><ellipse class="g" cx="21.14" cy="21.14" rx="21.14" ry="21.14" transform="translate(5.157 45.87) rotate(-82.04)"/><ellipse class="o" cx="20.087" cy="20.087" rx="20.087" ry="20.087" transform="translate(8.934 7.775)"/><ellipse class="h" cx="18.211" cy="18.211" rx="18.211" ry="18.211" transform="translate(9.106 44.191) rotate(-84.351)"/><g transform="translate(17.729 18.603)"><path class="o" d="M1355.806,1349.76l.678-5.11h-2.137v-1.538h2.372l.495-3.78h-2.242v-1.538h2.477l.678-4.98h1.512l-.652,4.98h2.711l.678-4.98h1.538l-.652,4.98h2.138v1.538h-2.373l-.469,3.78h2.242v1.538h-2.477l-.678,5.11h-1.564l.678-5.11h-2.711l-.678,5.11Zm5.188-6.648.5-3.78h-2.712l-.5,3.78Z" transform="translate(-1354.346 -1332.814)"/><path class="o" d="M1468.105,1334.951h-.052l-2.946,1.59-.443-1.747,3.7-1.981h1.955v16.946h-2.216Z" transform="translate(-1449.959 -1332.814)"/></g></g><g transform="translate(136.311 0)"><g transform="translate(13.348 11.144)"><path class="p" d="M1569.016,405.99c-.2.817-.558,2.109-.558,2.109.028.355.133,1.833.258,3.644l-2.662-1.065a28.769,28.769,0,0,0-.087-3.132c-.1-.153-.269.038-1.085-1.13a2.281,2.281,0,0,1-.28-.939s-.048-.741.118-.81a.346.346,0,0,1,.417.17c.06.128.045.427.1.555a.921.921,0,0,0,.608.274,9.912,9.912,0,0,0-.02-2.193s-.09-.62-.137-.822c-.039-.173-.2-.68-.2-.68s-.184-.735.044-.791c.135-.033.478.564.713,1.2a12.94,12.94,0,0,0,.469,1.4c.17-.023.08-1.221.08-1.221a3.834,3.834,0,0,1-.165-.808c-.16-.317-.266-.906.015-.954a4.884,4.884,0,0,1,.423.739s.146.526.231.772c.15.434.172,1.119.251,1.421.065.251.124.148.151.158a6.274,6.274,0,0,0-.057-.815,4.794,4.794,0,0,0-.06-.79,5.785,5.785,0,0,1-.114-.834c-.046-.62.344-.556.479.01.051.216.105.451.159.69.209.929.2,1.823.3,1.831a6.741,6.741,0,0,0,.045-1.619s.2-.9.4-.065a7.282,7.282,0,0,1,.2,1.8A7.031,7.031,0,0,1,1569.016,405.99Z" transform="translate(-1552.525 -400.791)"/><path class="e" d="M1514.281,463.145s-3-.718-3.028-.477c-.63,5.277-.913,7.185-1.02,7.24-.364.187-5.183-4.22-6.042-4.518a3.588,3.588,0,0,0-1.287-.106c-1.022.03-1.224.034-1.224.034l-.037,0,.005.961c1.151,1.036,3.788,16.729,4.01,16.719.248-.012,5.458,1.3,5.366.861-.015-.071-3.532-2.95-4.53-7.1-.335-1.394-.5-2.9-.682-4.21,1.157.58,5.679,2.806,6.4,2.512C1514.439,474.143,1514.281,463.145,1514.281,463.145Z" transform="translate(-1497.964 -454.377)"/><path class="d" d="M1663.774,664.589s4.848,3.8,5.01,4.47c.233.97,4.672-.305,3.6-.5-.246-.045-1.034-.245-1.1-.28-.347-.185-4.66-5.383-4.66-5.383Z" transform="translate(-1638.483 -627.957)"/><path class="m" d="M1705.907,703.742l-3.1-.252a4.388,4.388,0,0,1-2.585.767,3.968,3.968,0,0,0-.143,1.685c.022.157.049.63.207.619.572-.039,2.1-.418,3.831-.765a14.956,14.956,0,0,0,3.681-1.3C1709.15,703.689,1705.907,703.742,1705.907,703.742Z" transform="translate(-1669.924 -663.142)"/><path class="c" d="M1492.843,592.2a21.192,21.192,0,0,0,7.476-.322c4.543-1.063,9.567-2.046,11.039-1.19,1.185.689,8.583,11.868,8.583,11.868l-2.857,2.085-8.146-9.122s-10.393,3.835-12.727,3.41C1490.894,597.963,1490.818,593.717,1492.843,592.2Z" transform="translate(-1489.274 -565.095)"/><path class="c" d="M1504.7,587.224l3.552,4.221-6.589,2.008-.844-3.973Z" transform="translate(-1497.246 -562.374)"/><path class="d" d="M1581.782,731.879s-.216,5.863-.35,6.856,2.488,3.966,2.153,2.931c-.077-.238-.276-1.027-.276-1.1,0-.393.972-7.082.972-7.082Z" transform="translate(-1567.113 -687.747)"/><path class="m" d="M1569.063,788.438l-1.936-3.147a4.388,4.388,0,0,1-1.9-1.91,3.957,3.957,0,0,0-1.55.675c-.127.094-.995.728-.934.874a16.657,16.657,0,0,0,2.694,2.952,34.761,34.761,0,0,0,3.179,2.279C1569.963,790.962,1569.063,788.438,1569.063,788.438Z" transform="translate(-1550.914 -732.383)"/><path class="a" d="M1495.708,589.256c-1.241-1.655-11.26-3.228-11.26-3.228l-2.794-5.369-6.177,3.809a55.861,55.861,0,0,0,1.081,6.229c.618,1.75,4.769,1.84,7.3,1.813,2.333-.024,6.594.452,6.594.452l-1.442,12.715a19.906,19.906,0,0,0,3.63.541C1492.735,606.206,1497.253,591.315,1495.708,589.256Z" transform="translate(-1475.285 -556.683)"/><path class="q" d="M1477.754,482.949l-3.485.195s-.08.025-.1.029c-.284.053-.026,10.209.227,14a25.356,25.356,0,0,0,.767,5.387,56.77,56.77,0,0,0,6.177-1.4,10.652,10.652,0,0,0,2.059-2.055,15.286,15.286,0,0,1-2.238-5.252c-.578-2.507-1.292-6.952-1.7-7.879A13.226,13.226,0,0,0,1477.754,482.949Z" transform="translate(-1474.041 -471.998)"/></g><path class="d" d="M1475.854,458.225l-.1,3.077s2.256,3.888,3.414,3.346c.972-.455.109-3.412.109-3.412s-.168-.678-.4-1.457a5.643,5.643,0,0,1-.289-1.566C1478.613,457.162,1475.854,458.225,1475.854,458.225Z" transform="translate(-1462.179 -439.013)"/><path class="g" d="M1479.169,458.213c.024-1.052-2.734.012-2.734.012l-.01.3a1.561,1.561,0,0,0,.308.35,3.8,3.8,0,0,0,2.686.773A5.293,5.293,0,0,1,1479.169,458.213Z" transform="translate(-1462.759 -439.013)"/><g transform="translate(9.948 10.538)"><path class="n" d="M1479.314,408.669a8.03,8.03,0,0,1,1.236,3.192,7.565,7.565,0,0,1-.223,2.454l-3.689-4.41Z" transform="translate(-1472.891 -407.013)"/><path class="r" d="M1501.809,424.707c.052.511-.146.949-.443.98s-.58-.359-.632-.87.147-.949.443-.98S1501.757,424.2,1501.809,424.707Z" transform="translate(-1493.769 -420.158)"/><path class="d" d="M1467.482,413.683c-.084-.018-.076,4.228,1.154,5.227s3.373,1.087,4,.081c.692-1.113.034-5.587-1.8-6.537S1467.482,413.683,1467.482,413.683Z" transform="translate(-1464.929 -410.085)"/><path class="n" d="M1450.771,397.208a6.819,6.819,0,0,0-2.03,2.89c-.781,1.8.769,3.666,2.07,4.408a2.505,2.505,0,0,1,1.408,1.638l.053-.552a1.382,1.382,0,0,0-.017-.508,2.392,2.392,0,0,0-.185-.448c-.111-.237-.466-1.047-.6-1.261-.366-.564-.438-.686-.258-1.223.139-.413-.022-1.323.193-2l1.75-.378a3.663,3.663,0,0,0,1.648-.9C1456.388,397.035,1453.248,394.992,1450.771,397.208Z" transform="translate(-1448.53 -396.242)"/><path class="d" d="M1464.483,439.843c.216.466.171.945-.1,1.07s-.665-.151-.881-.617-.171-.945.1-1.07S1464.267,439.377,1464.483,439.843Z" transform="translate(-1461.388 -433.47)"/></g><path class="p" d="M1381.639,322.384c.2.817.558,2.109.558,2.109-.028.355-.133,1.833-.258,3.644l2.662-1.065a28.738,28.738,0,0,1,.087-3.132c.1-.153.269.038,1.085-1.13a2.277,2.277,0,0,0,.28-.939s.049-.741-.118-.81a.345.345,0,0,0-.418.17c-.06.128-.045.426-.1.554a.922.922,0,0,1-.608.275,9.913,9.913,0,0,1,.02-2.193s.091-.619.136-.822c.039-.173.2-.68.2-.68s.185-.735-.043-.792c-.135-.033-.478.564-.713,1.2a12.842,12.842,0,0,1-.469,1.4c-.17-.023-.08-1.221-.08-1.221a3.838,3.838,0,0,0,.165-.808c.16-.317.266-.906-.016-.954a4.881,4.881,0,0,0-.423.739s-.146.526-.231.772c-.15.434-.173,1.119-.251,1.421-.065.251-.124.148-.151.158a6.314,6.314,0,0,1,.057-.815,4.818,4.818,0,0,1,.06-.79,5.789,5.789,0,0,0,.114-.834c.046-.62-.344-.556-.479.01-.051.216-.105.451-.159.69-.209.929-.2,1.823-.3,1.831a6.736,6.736,0,0,1-.044-1.619s-.2-.9-.4-.065a7.288,7.288,0,0,0-.2,1.8A7.041,7.041,0,0,0,1381.639,322.384Z" transform="translate(-1380.523 -317.186)"/><path class="e" d="M1387.479,392.06a21.932,21.932,0,0,1-4.347-.564c-.541-.245-4.98-3.822-4.98-3.822l.05-9.579-3.122-.238s-1.619,10.588-1.058,11.747c.579,1.2,7.078,6.124,8.378,8.262.748,1.232,2.31,17.984,2.547,18.135,1.682.875,6.875,1.749,6.752,1.218A192.58,192.58,0,0,1,1387.479,392.06Z" transform="translate(-1373.902 -369.77)"/></g><g transform="translate(87.789 58)"><path class="p" d="M1009.978,773.663c.2.817.558,2.109.558,2.109-.028.355-.133,1.833-.258,3.644l2.662-1.065a28.7,28.7,0,0,1,.087-3.132c.1-.153.269.038,1.085-1.13a2.28,2.28,0,0,0,.28-.939s.048-.741-.118-.81a.346.346,0,0,0-.418.17c-.06.128-.045.426-.1.555a.923.923,0,0,1-.608.274,9.9,9.9,0,0,1,.02-2.192s.091-.62.136-.822c.039-.173.2-.68.2-.68s.185-.735-.044-.791c-.135-.033-.478.564-.713,1.2a12.8,12.8,0,0,1-.469,1.4c-.17-.023-.08-1.221-.08-1.221a3.838,3.838,0,0,0,.165-.808c.16-.317.266-.906-.016-.954a4.873,4.873,0,0,0-.423.739s-.146.526-.231.772c-.15.434-.173,1.119-.251,1.421-.065.251-.124.148-.151.158a6.253,6.253,0,0,1,.057-.815,4.847,4.847,0,0,1,.06-.79,5.737,5.737,0,0,0,.114-.834c.046-.62-.344-.556-.479.01-.051.216-.105.451-.16.69-.209.929-.2,1.823-.3,1.831a6.741,6.741,0,0,1-.044-1.619s-.2-.9-.4-.065a7.289,7.289,0,0,0-.2,1.8A7.037,7.037,0,0,0,1009.978,773.663Z" transform="translate(-1009.88 -766.312)"/><path class="p" d="M1193.849,757.512c-.2.817-.558,2.109-.558,2.109.028.355.133,1.833.258,3.644l-2.662-1.065a28.7,28.7,0,0,0-.087-3.132c-.1-.153-.269.038-1.085-1.13a2.281,2.281,0,0,1-.28-.939s-.048-.741.118-.81a.346.346,0,0,1,.418.17c.06.128.045.426.1.554a.922.922,0,0,0,.608.275,9.92,9.92,0,0,0-.02-2.193s-.09-.62-.136-.822c-.039-.173-.2-.679-.2-.679s-.185-.735.043-.791c.135-.033.478.564.713,1.2a12.819,12.819,0,0,0,.469,1.4c.17-.023.08-1.221.08-1.221a3.846,3.846,0,0,1-.165-.807c-.16-.317-.266-.906.016-.955a4.909,4.909,0,0,1,.423.739s.146.526.231.772a14.386,14.386,0,0,1,.251,1.421c.065.251.124.148.151.158a6.276,6.276,0,0,0-.057-.815,4.739,4.739,0,0,0-.06-.79,5.768,5.768,0,0,1-.114-.834c-.045-.619.344-.556.479.011.051.216.106.451.159.69.209.929.2,1.824.3,1.831a6.742,6.742,0,0,0,.044-1.619s.2-.9.4-.065a7.285,7.285,0,0,1,.2,1.8A7.031,7.031,0,0,1,1193.849,757.512Z" transform="translate(-1165.496 -752.313)"/><path class="s" d="M1075.187,859.678a1.457,1.457,0,0,1,2.445.309,1.083,1.083,0,0,1,1.429.368s1.517-.457,1.885,1.811c0,0,.781-.147.883.781a2.3,2.3,0,0,1-.368,1.546s.438.329.239,1.182a1.055,1.055,0,0,1-.77.836s-.162,1.222-.692,1.591a1.729,1.729,0,0,1-1.252.191.817.817,0,0,1-.81.6c-.619-.059-1.385-.648-2.077-.383a7.4,7.4,0,0,1-2.489-.015,2.509,2.509,0,0,1-1.414-2.96,1.508,1.508,0,0,1-.132-2.106,2.624,2.624,0,0,1,.663-2.857A3.5,3.5,0,0,1,1075.187,859.678Z" transform="translate(-1063.446 -844.888)"/><path class="d" d="M1154,1312.246a20.334,20.334,0,0,0,1.844,2.055c.368.225-.164,2.884-1.166,3.059-.565.1-.878-.523-.878-.523l.162-.766-2.109-2.173Z" transform="translate(-1132.928 -1237.61)"/><path class="d" d="M1095.694,1315.637a20.3,20.3,0,0,0,1.566,2.274c.336.27-.531,2.839-1.547,2.884-.573.026-.8-.631-.8-.631l.258-.739-1.814-2.425Z" transform="translate(-1082.227 -1240.549)"/><path class="s" d="M1096,1332.106a15.535,15.535,0,0,1-1.092,1.26,13.007,13.007,0,0,1-1.135.915s-.722,1.31-.919,1.768a7.623,7.623,0,0,0-.861,2.721c.023.183.434.377.776.271,1.426-.438,5.072-3.773,5.532-4.668C1098.832,1333.341,1096,1332.106,1096,1332.106Z" transform="translate(-1081.042 -1254.823)"/><path class="m" d="M1034.8,1096.422c.132-.371.259-.714.382-1.036,1.517.331,3.23.7,4.992,1.071l.214,6.458c0-.5-1.324,10.3-1.324,10.3s3.424,7.581,5.765,12a8.077,8.077,0,0,1-2.8,2.4c-3.635-4.358-8.392-12.331-8.59-13.658C1033.317,1113.2,1033.215,1100.869,1034.8,1096.422Z" transform="translate(-1030.242 -1049.656)"/><path class="g" d="M1092.514,1105.25c-.463,5.032-1.493,14.653-1.407,15.427.259.965,4.841,9.868,5.666,11.163a5.558,5.558,0,0,1-2.759,2.347c-.215.058-7.778-10.7-8.19-11.558-.466-.965-1.243-6.233-1.257-12.754l-.215-6.458C1087.289,1104.043,1089.988,1104.657,1092.514,1105.25Z" transform="translate(-1074.426 -1056.617)"/><path class="t" d="M1041.173,945.072l3.456.474s2.77.068,3.113.068,2.513,12.606,3.141,17.35.141,5.584.141,5.584a30.405,30.405,0,0,1-7.623.7,24.862,24.862,0,0,1-7.163-2.119s2.881-9.117,3.452-11.963S1041.173,945.072,1041.173,945.072Z" transform="translate(-1032.725 -919.378)"/><path class="c" d="M1009.949,827.277s-.222,9.4.133,10.118c.516,1.046,6.318,8.461,6.318,8.461s-2.772,11.6-3.937,15.606c-.117.4-.637,3.009-.637,3.263,0,.563,2.452,1.278,2.743,1.236.261-.038,2.4-11.073,3.766-16.472a15.444,15.444,0,0,1,2.343-5.1l.95-1.35-7.29-7.307s-.9-8.133-.9-8.807C1013.44,826.746,1010.3,826.614,1009.949,827.277Z" transform="translate(-1009.881 -816.854)"/><path class="c" d="M1104.439,825.865l9.091-9.262s1.266-8.759,1.357-9.089,2.346-.5,3.256-.588c.292-.028-.153,9.329-.588,10.9-.514,1.853-7.385,10.3-7.385,10.3a28.083,28.083,0,0,0-.935,7.927c.493,5.571,1.821,13.235,1.583,13.475-1.477.931-7.147,1.03-7.506.452C1099.347,843.591,1104.439,825.865,1104.439,825.865Z" transform="translate(-1089.548 -799.646)"/><path class="d" d="M1096.763,917.4l-.245,1.82s-.549,2.621.157,3.127,3.006-3.2,3.006-3.2l-.243-4.611Z" transform="translate(-1084.793 -892.907)"/><path class="g" d="M1101.081,916.024a5.23,5.23,0,0,1-2.962,2.914l.208-1.543L1101,914.53Z" transform="translate(-1086.358 -892.907)"/><path class="s" d="M1136.373,882.753c0,.7-.4,1.271-.892,1.271s-.892-.569-.892-1.271.4-1.272.892-1.272S1136.373,882.05,1136.373,882.753Z" transform="translate(-1117.966 -864.264)"/><ellipse class="s" cx="1.085" cy="0.731" rx="1.085" ry="0.731" transform="translate(13.561 15.025)"/><path class="d" d="M1085.515,877.334a2.432,2.432,0,0,0-3.183,1.938,18.421,18.421,0,0,0-.2,2.334c-.038,2.125,1.062,4.194,2.027,4.194a4.554,4.554,0,0,0,3.729-4.393A4.023,4.023,0,0,0,1085.515,877.334Z" transform="translate(-1072.503 -860.555)"/><path class="d" d="M1119.984,905.016a.708.708,0,1,0,.694-.849A.783.783,0,0,0,1119.984,905.016Z" transform="translate(-1105.308 -883.926)"/><path class="s" d="M1069.294,866.034c-1,.79-1.346,1.99-.78,2.68s1.833.61,2.83-.18,1.346-1.99.78-2.68S1070.291,865.244,1069.294,866.034Z" transform="translate(-1060.464 -850.313)"/><ellipse class="s" cx="0.926" cy="0.621" rx="0.926" ry="0.621" transform="translate(11.437 15.747)"/><path class="s" d="M1075.021,889.732a.79.79,0,1,0,.79-.8A.795.795,0,0,0,1075.021,889.732Z" transform="translate(-1066.338 -870.722)"/><path class="s" d="M1160.632,1327.149a15.625,15.625,0,0,1-.922,1.389,13,13,0,0,1-1.009,1.053s-.548,1.392-.686,1.871a8.081,8.081,0,0,0-.507,2.908c.046.179.439.52.763.309a24.144,24.144,0,0,0,4.932-5.574C1163.6,1328.012,1160.632,1327.149,1160.632,1327.149Z" transform="translate(-1137.801 -1250.526)"/></g><path class="l" d="M882.379,1171.476a13.917,13.917,0,0,1,6.931,3.551,24.763,24.763,0,0,1,4.7,7.653l-6.03,1.758S890.394,1178.815,882.379,1171.476Z" transform="translate(-811.585 -1057.603)"/><path class="h" d="M826.827,1121.366l.432-3.4,3.043-1.569a.471.471,0,0,0-.015-.844l-3.1-1.46-.552-3.379a.471.471,0,0,0-.807-.247l-2.346,2.494-3.384-.519a.471.471,0,0,0-.484.692l1.647,3-1.539,3.058a.471.471,0,0,0,.508.674l3.364-.639,2.433,2.409A.471.471,0,0,0,826.827,1121.366Z" transform="translate(-757.138 -1004.601)"/><path class="b" d="M1871.441,1028.835l.933-1.575-.769-1.661a.251.251,0,0,1,.283-.351l1.786.4,1.342-1.245a.252.252,0,0,1,.422.161l.171,1.822,1.6.892a.251.251,0,0,1-.023.45l-1.68.726-.354,1.8a.252.252,0,0,1-.436.118L1873.5,1029l-1.817.218A.252.252,0,0,1,1871.441,1028.835Z" transform="translate(-1668.779 -930.077)"/><path class="u" d="M1196.322,486.618l1.177-1.987-.97-2.1a.318.318,0,0,1,.358-.443l2.254.5,1.693-1.57a.317.317,0,0,1,.532.2l.216,2.3,2.017,1.125a.318.318,0,0,1-.029.569l-2.12.916L1201,488.4a.317.317,0,0,1-.549.148l-1.526-1.733-2.293.275A.317.317,0,0,1,1196.322,486.618Z" transform="translate(-1083.642 -459.114)"/><path class="r" d="M1812.005,560.56l-3.106,2.073,1.737,3.016-2.97,2.177,1.3,3.087-1.956,1.993,1.009.99,2.616-2.665-1.237-2.926,3.09-2.265-1.708-2.966,2.815-1.879Z" transform="translate(-1612.972 -528.12)"/><path class="f" d="M733.733,620.681l-2.263.23-.772-3.6-3.351-.072-1.018-2.6-1.316.516,1.362,3.478,3.176.068.8,3.746,3.406-.346Z" transform="translate(-675.195 -574.988)"/><g transform="translate(49.818 59.364)"><path class="v" d="M735.676,764.3a6.3,6.3,0,1,1-8.909.186A6.3,6.3,0,0,1,735.676,764.3Z" transform="translate(-725.013 -762.544)"/><path class="w" d="M747.4,781.449l-2.681.824-.841,2.676a.273.273,0,0,1-.484.075l-1.612-2.3-2.8.027a.273.273,0,0,1-.221-.438l1.685-2.243-.892-2.659a.273.273,0,0,1,.348-.346l2.654.909,2.253-1.671a.273.273,0,0,1,.436.224l-.045,2.8,2.285,1.626A.274.274,0,0,1,747.4,781.449Z" transform="translate(-736.878 -774.428)"/></g><g transform="translate(214.43 69.851)"><path class="v" d="M1970.623,842.975a6.3,6.3,0,1,1-8.909.186A6.3,6.3,0,0,1,1970.623,842.975Z" transform="translate(-1959.96 -841.222)"/><path class="w" d="M1982.351,860.128l-2.681.824-.842,2.676a.273.273,0,0,1-.484.075l-1.612-2.3-2.805.027a.274.274,0,0,1-.221-.438l1.685-2.243-.892-2.659a.273.273,0,0,1,.347-.346l2.654.909,2.253-1.67a.273.273,0,0,1,.436.224l-.045,2.8,2.285,1.627A.273.273,0,0,1,1982.351,860.128Z" transform="translate(-1971.825 -853.106)"/></g><path class="f" d="M1781.012,1101.224a1.276,1.276,0,1,1-1.276-1.277A1.277,1.277,0,0,1,1781.012,1101.224Z" transform="translate(-1588.222 -995.609)"/><g transform="translate(114.432 2.559)"><path class="t" d="M1211.028,339.677l1.676.331s2.449-1.144,2.636-1.7.1-1.823.459-1.9a1.108,1.108,0,0,1,1.35.794c.2.612-.494,2.538-.326,2.714a8.87,8.87,0,0,0,1.765.475,1.264,1.264,0,0,1,.956.909h0a.7.7,0,0,1-.339.8l-.441.236.207.46a.7.7,0,0,1-.33.911l-.343.165.151.277a.7.7,0,0,1-.332.968l-.3.13.023.082a.7.7,0,0,1-.406.834l-.3.12-4.463-.882a3.086,3.086,0,0,1-1.165-.5l-1.517-.574a.357.357,0,0,1-.219-.409l.848-3.965A.356.356,0,0,1,1211.028,339.677Z" transform="translate(-1209.758 -336.381)"/></g></svg>