<svg xmlns="http://www.w3.org/2000/svg" xmlns:xlink="http://www.w3.org/1999/xlink" width="121.141" height="128.433" viewBox="0 0 121.141 128.433"><defs><style>.a{fill:none;stroke:#6a98c0;}.b{filter:url(#e);}.c{filter:url(#c);}.d{filter:url(#a);}</style><filter id="a" x="47.688" y="21.784" width="73.453" height="85.158" filterUnits="userSpaceOnUse"><feOffset dy="3" input="SourceAlpha"/><feGaussianBlur stdDeviation="3" result="b"/><feFlood flood-opacity="0.161"/><feComposite operator="in" in2="b"/><feComposite in="SourceGraphic"/></filter><filter id="c" x="0" y="21.784" width="70.071" height="84.561" filterUnits="userSpaceOnUse"><feOffset dy="3" input="SourceAlpha"/><feGaussianBlur stdDeviation="3" result="d"/><feFlood flood-opacity="0.161"/><feComposite operator="in" in2="d"/><feComposite in="SourceGraphic"/></filter><filter id="e" x="23.282" y="68.641" width="75.024" height="59.792" filterUnits="userSpaceOnUse"><feOffset dy="3" input="SourceAlpha"/><feGaussianBlur stdDeviation="3" result="f"/><feFlood flood-opacity="0.071"/><feComposite operator="in" in2="f"/><feComposite in="SourceGraphic"/></filter></defs><g transform="translate(-19.153 0.5)"><g class="d" transform="matrix(1, 0, 0, 1, 19.15, -0.5)"><path class="a" d="M295.391,149.773c-1.374-16.6-13.465-26.561-27.1-26.561-11.34,0-19.331,7.224-23.962,15.568l-3.383,4.994v39.415l3.383,5.573,28.18.6Z" transform="translate(-183.76 -94.93)"/></g><g class="c" transform="matrix(1, 0, 0, 1, 19.15, -0.5)"><path class="a" d="M56.62,123.212c-13.591,0-25.719,9.91-27.1,26.561l23.334,38.4,27.725.592V138.78c-4.631-8.344-12.625-15.568-23.962-15.568Z" transform="translate(-20.01 -94.93)"/></g><g class="b" transform="matrix(1, 0, 0, 1, 19.15, -0.5)"><path class="a" d="M160.724,331A30.538,30.538,0,0,0,133,349.1l2.244,3.693c5.974,5.162,12.87,11.081,19.179,16.444a9.353,9.353,0,0,0,6.3,2.553c2.6-.019,5.266-1.211,8.331-3.069,5.842-5.057,13.169-11.609,18.968-16.9l.882-1.526A30.507,30.507,0,0,0,160.724,331Z" transform="translate(-100.15 -255.86)"/></g><path class="a" d="M264.28,368.724c5.842-5.057,13.169-11.609,18.968-16.9l.882-1.526A30.508,30.508,0,0,0,255.949,331v40.792C258.552,371.773,261.215,370.581,264.28,368.724Z" transform="translate(-176.225 -256.36)"/><path class="a" d="M350.147,245.525c0,6.877-3.855,12.995-18.376,26.188a6.81,6.81,0,0,0-.277,9.827,6.906,6.906,0,0,0,8.744.576c16.753-15.289,24.01-24.821,24.01-38.283,0-.977-.171-1.887-.25-2.834H353.53a3.383,3.383,0,0,0-3.382,3.382v1.143Z" transform="translate(-233.215 -186.655)"/><g transform="translate(35.751)"><path class="a" d="M74.479,27.285a13.543,13.543,0,0,1-13.53-13.53,13.532,13.532,0,1,1,27.06,0,13.543,13.543,0,0,1-13.53,13.53Z" transform="translate(-60.949)"/></g><g transform="translate(96.636)"><path class="a" d="M344.479,27.285a13.543,13.543,0,0,1-13.53-13.53,13.532,13.532,0,1,1,27.06,0A13.543,13.543,0,0,1,344.479,27.285Z" transform="translate(-330.949)"/></g><path class="a" d="M54.243,283.09a6.912,6.912,0,0,0,6.927-1.55,6.81,6.81,0,0,0-.277-9.827C46.371,258.52,42.517,252.4,42.517,245.525v-1.143A3.383,3.383,0,0,0,39.134,241H28.665c-.078.948-.25,1.857-.25,2.834C28.415,258.589,38.421,269.422,54.243,283.09Z" transform="translate(0 -186.655)"/><circle class="a" cx="13.53" cy="13.53" r="13.53" transform="translate(66.194 47.58)"/><path class="a" d="M269.479,224.53A13.543,13.543,0,0,0,255.949,211v27.06A13.543,13.543,0,0,0,269.479,224.53Z" transform="translate(-176.225 -163.42)"/></g></svg>