<svg xmlns="http://www.w3.org/2000/svg" width="198.865" height="177.612" viewBox="0 0 198.865 177.612"><defs><style>.a{fill:#f7f0e3;}.b{fill:#fff;}.c{fill:#e9ddca;}.d{fill:#e49b31;}.e{fill:#fbc343;}.f{fill:#d3dfff;}.g{fill:#102048;}.h{fill:#f9b384;}.i{fill:#e28b6d;}.j{fill:#3a6bea;}.k{opacity:0.8;}.l{fill:#eb5d60;opacity:0.4;}.m{fill:#1f3c88;}</style></defs><g transform="translate(-0.001)"><g transform="translate(0.714 60.845)"><g transform="translate(0 22.943)"><path class="a" d="M477.939,1036.539a32.07,32.07,0,0,0-17-16.609c-7.815-3.165-16.789-2.013-25.02-3.073a23.265,23.265,0,0,1-16.576-9.787c-4.09-5.437-7.758-11.458-14.445-13.974-5.284-1.987-11.292-1.436-16.544.634-9.678,3.816-16.987,11.929-23.143,20.012-5.62,7.38-10.2,15.46-20.6,15.724s-20.306-5.67-30.78-4.1c-13.843,2.078-25.372,13.6-27.788,27.322a33.74,33.74,0,0,0,13.178,32.656H466.985C479.283,1072.3,485.737,1054.276,477.939,1036.539Z" transform="translate(-285.545 -991.86)"/><g transform="translate(5.367 2.594)"><path class="b" d="M555.466,1300.024h.462a35.4,35.4,0,0,0,7.312-12.542,32.95,32.95,0,0,0-.307-22.695,65.408,65.408,0,0,0-5.4-9.959,63.917,63.917,0,0,1-5.445-10.1,22.513,22.513,0,0,1-1.261-4.665c-.116-.015-.231-.028-.347-.041a22.831,22.831,0,0,0,1.294,4.83,64.177,64.177,0,0,0,5.473,10.15,65.136,65.136,0,0,1,5.371,9.906,32.613,32.613,0,0,1,.3,22.462A35.015,35.015,0,0,1,555.466,1300.024Z" transform="translate(-520.096 -1209.132)"/><path class="b" d="M865.589,1087.345c3.457.737,6.788,1.4,10.009,1.813.055-.106.109-.213.163-.32-3.248-.413-6.61-1.078-10.1-1.823-5.317-1.133-11.071-2.359-16.779-2.359a29.781,29.781,0,0,0-10.432,1.724,21.276,21.276,0,0,0-3.692,1.794c-3.053-1.3-6.123-2.722-9.164-4.282q3.31-2.494,6.69-4.864c16.73-11.682,32.17-18.306,47.087-20.185-.03-.109-.061-.219-.092-.328-14.957,1.9-30.431,8.535-47.188,20.236-2.3,1.607-4.579,3.271-6.83,4.969a113.112,113.112,0,0,1-10.069-5.852,87.705,87.705,0,0,1-19.149-16.806c23.878-2.679,48.189-6.054,68.042-19.323.754-.5,1.589-1.1,2.454-1.772l-.289-.2c-.829.642-1.629,1.209-2.353,1.693-19.848,13.265-44.2,16.615-68.113,19.293a65.625,65.625,0,0,1-10.948-18.615c-4.211-11.156-3.989-22.1.61-30.035.2-.345.411-.684.628-1.019-.192.088-.382.18-.573.271q-.177.287-.347.579c-4.65,8.021-4.881,19.073-.634,30.324a65.876,65.876,0,0,0,10.863,18.54q-2.076.232-4.149.46c-4.979.55-10.127,1.118-15.126,1.761-1.825.235-3.681.509-5.527.852-3.958-8.354-8.306-16.5-13.927-23.493-.08.08-.162.158-.243.237,5.573,6.936,9.893,15.026,13.828,23.321-8.054,1.536-15.874,4.423-20.049,11.144-3.9,6.276-3.9,14.952.01,25.786q.2.562.415,1.111h.361c-.155-.4-.309-.807-.46-1.226-3.87-10.732-3.884-19.309-.041-25.493,4.126-6.64,11.9-9.489,19.912-11.007,1.4,2.956,2.747,5.936,4.089,8.9l.146.322c4.659,10.285,9.478,20.211,15.788,28.505h.421c-6.367-8.31-11.213-18.295-15.9-28.645l-.146-.322c-1.33-2.937-2.669-5.892-4.054-8.823,1.811-.335,3.631-.6,5.421-.833,5-.643,10.143-1.211,15.12-1.761q2.181-.241,4.369-.484a87.929,87.929,0,0,0,19.365,17.042,113.244,113.244,0,0,0,9.956,5.8c-5.739,4.341-11.321,8.907-16.771,13.367q-2.831,2.316-5.72,4.663H803q2.722-2.209,5.4-4.4c5.489-4.49,11.111-9.09,16.89-13.456,3.024,1.556,6.077,2.974,9.114,4.274a25.149,25.149,0,0,0-9.589,11.7c-.256.622-.48,1.25-.687,1.881h.355c.2-.587.405-1.173.644-1.752a24.762,24.762,0,0,1,9.655-11.671,222.922,222.922,0,0,0,24,8.406l.27.08a46.369,46.369,0,0,1,8.845,3.28l.229-.261a46.252,46.252,0,0,0-8.979-3.342l-.27-.08a223.337,223.337,0,0,1-23.745-8.3,20.916,20.916,0,0,1,3.425-1.641C847.319,1083.453,857.026,1085.521,865.589,1087.345Z" transform="translate(-690.327 -1011.084)"/><path class="b" d="M334.47,1337.685a27.028,27.028,0,0,1-1.824,18.072,31.11,31.11,0,0,1-7.328,9.464c.061.1.124.19.186.285a31.459,31.459,0,0,0,7.444-9.6,27.368,27.368,0,0,0,1.849-18.3,23.229,23.229,0,0,0-6.822-11.868l-.218.259A22.9,22.9,0,0,1,334.47,1337.685Z" transform="translate(-325.318 -1283.276)"/></g></g><path class="a" d="M822.915,824.527a12.611,12.611,0,0,1,2.636,12.727,20.425,20.425,0,0,1-9.141,10.663c-3.325,1.935-7.662,3-10.932.976a8.863,8.863,0,0,1-3.781-7.359,19.128,19.128,0,0,1,2.091-8.29c1.684-3.686,3.95-7.26,7.326-9.5C815.767,820.653,820.09,821.64,822.915,824.527Z" transform="translate(-732.042 -821.845)"/></g><g transform="translate(12.462 0)"><path class="c" d="M514.264,381.826H489.928V370.954h24.336Zm-23.83-.506h23.324v-9.86H490.434Z" transform="translate(-474.096 -370.954)"/><path class="c" d="M396.943,458.869H372.607V448h24.336Zm-23.83-.506h23.324V448.5H373.113Z" transform="translate(-372.607 -437.6)"/></g><g transform="translate(85.263 2.624)"><g transform="translate(0 0)"><path class="d" d="M1059.016,424.3a37.609,37.609,0,0,0-8.315-14.449q-5.963-6.6-16.266-10.9t-26.181-4.307a102.43,102.43,0,0,0-25.818,3.416,76.72,76.72,0,0,0-22.844,9.762l8.4,23.073-4.5,3.649,6.532,1.92a95.926,95.926,0,0,1,17.624-7.352,60.936,60.936,0,0,1,16.88-2.277q8.933,0,13.527,4.307a13.747,13.747,0,0,1,4.59,10.4,19.95,19.95,0,0,1-4.711,13.054q-4.727,5.706-10.432,11.536-3.964,4.048-7.693,8.359a60.005,60.005,0,0,0-6.578,9.258,50.333,50.333,0,0,0-4.59,10.644,43.689,43.689,0,0,0-1.737,12.8c0,1.526.032,3.342.121,5.454.015.39.035.77.059,1.145h-6.175l6.739,4.557h32.767a21.762,21.762,0,0,1-.25-3.548v-3.045a22.006,22.006,0,0,1,1.737-8.491,43.9,43.9,0,0,1,4.347-7.988,59,59,0,0,1,5.834-7.22q3.224-3.429,6.206-6.469,3.964-4.047,8.186-8.615a67.724,67.724,0,0,0,7.45-9.63,54.112,54.112,0,0,0,5.333-11.032,38.843,38.843,0,0,0,2.117-13.054A52.206,52.206,0,0,0,1059.016,424.3Z" transform="translate(-953.182 -394.07)"/><path class="e" d="M956.5,421.552a61.41,61.41,0,0,0-16.682,2.2,95.933,95.933,0,0,0-17.417,7.115l-10.31-27.719a76.662,76.662,0,0,1,22.576-9.447,103.247,103.247,0,0,1,25.514-3.306q15.692,0,25.874,4.169t16.076,10.549a36.223,36.223,0,0,1,8.217,13.983,49.56,49.56,0,0,1,2.332,14.47,36.88,36.88,0,0,1-2.092,12.634,51.919,51.919,0,0,1-5.271,10.677,65.742,65.742,0,0,1-7.363,9.319q-4.169,4.42-8.089,8.337-2.947,2.947-6.133,6.261a57.33,57.33,0,0,0-5.766,6.987,42.22,42.22,0,0,0-4.3,7.73,20.921,20.921,0,0,0-1.717,8.217v2.947a20.629,20.629,0,0,0,.248,3.434H939.819a34.305,34.305,0,0,1-.615-5.518c-.088-2.044-.12-3.8-.12-5.279a41.464,41.464,0,0,1,1.717-12.386,48.191,48.191,0,0,1,4.536-10.3,58.1,58.1,0,0,1,6.5-8.96q3.677-4.169,7.6-8.09,5.642-5.642,10.31-11.164a19.067,19.067,0,0,0,4.656-12.634,13.181,13.181,0,0,0-4.536-10.062Q965.329,421.552,956.5,421.552Z" transform="translate(-912.092 -390.399)"/></g><g transform="translate(25.642 137.569)"><path class="d" d="M1187.031,1429.71q0,8.861-5.737,13.682a19.86,19.86,0,0,1-25.955,0q-5.727-4.824-5.731-13.682t5.731-13.682a19.938,19.938,0,0,1,21.491-2.588A18.424,18.424,0,0,1,1187.031,1429.71Z" transform="translate(-1143.198 -1411.202)"/><path class="e" d="M1139.531,1428.357q0,8.861-5.737,13.682a19.86,19.86,0,0,1-25.956,0q-5.727-4.824-5.731-13.682t5.731-13.682a19.86,19.86,0,0,1,25.956,0Q1139.531,1419.508,1139.531,1428.357Z" transform="translate(-1102.108 -1409.848)"/></g></g><g transform="translate(10.945 36.885)"><g transform="translate(8.553 0)"><ellipse class="f" cx="3.529" cy="3.529" rx="3.529" ry="3.529" transform="matrix(0.184, -0.983, 0.983, 0.184, 24.239, 40.235)"/><ellipse class="f" cx="1.985" cy="1.999" rx="1.985" ry="1.999" transform="translate(29.216 45.91) rotate(-79.386)"/><g transform="translate(0)"><circle class="f" cx="13.894" cy="13.894" r="13.894" transform="translate(0 19.649) rotate(-45)"/><g transform="translate(12.564 17.899)"><ellipse class="b" cx="1.751" cy="1.751" rx="1.751" ry="1.751"/><ellipse class="b" cx="1.751" cy="1.751" rx="1.751" ry="1.751" transform="translate(5.335)"/><ellipse class="b" cx="1.751" cy="1.751" rx="1.751" ry="1.751" transform="translate(10.67)"/></g></g></g><g transform="translate(0 50.016)"><g transform="translate(8.138 55.269)"><g transform="translate(10.026 22.757)"><path class="g" d="M496.046,1598.465l1.3,5a2.868,2.868,0,0,0,3,2.092c4.257-.289,13.1-1.332,18.176-5.073l-1.443-7.213c-6.979-.394-13.506-.006-19.157,1.9A2.764,2.764,0,0,0,496.046,1598.465Z" transform="translate(-495.961 -1593.136)"/><path class="b" d="M544.62,1619.972a.169.169,0,0,1-.162-.124l-1.743-6.241a.169.169,0,0,1,.325-.09l1.743,6.241a.169.169,0,0,1-.163.214Z" transform="translate(-536.4 -1610.66)"/><path class="b" d="M572.536,1613.721a.169.169,0,0,1-.162-.123l-1.743-6.241a.169.169,0,0,1,.325-.091l1.743,6.241a.169.169,0,0,1-.117.208A.172.172,0,0,1,572.536,1613.721Z" transform="translate(-560.549 -1605.252)"/></g><path class="e" d="M513.231,1425.53l-16.221,4.814,12.046,16.506,17.294,1.375,23.854-10.087-9.065-13.64Z" transform="translate(-486.843 -1424.498)"/><path class="e" d="M641.034,1435.387c35.622-10.545,41.347,20.938-14.233,26.669a26.888,26.888,0,0,1-5.168-9.246l29.351-13.564Z" transform="translate(-594.649 -1432.063)"/><path class="h" d="M719,1606.158a15.414,15.414,0,0,1-3.262-1.587l-5.725,1.8,1.312,6.228,5.947,1.208A12.786,12.786,0,0,0,719,1606.158Z" transform="translate(-671.106 -1580.271)"/><path class="d" d="M620.945,1483.276l-.254-.437c6.123-3.559,21.807-12.108,35.17-14.629l.094.5C642.669,1471.214,627.046,1479.731,620.945,1483.276Z" transform="translate(-593.834 -1462.311)"/><path class="e" d="M448.055,1426.876c-33.157-6.3-41.745,25.561,13.835,31.292a20.192,20.192,0,0,0,4.413-8.024,253.017,253.017,0,0,0-28.545-16.315Z" transform="translate(-421.667 -1425.845)"/><path class="d" d="M546.26,1482.244c-1.577-1-3.221-2.065-4.961-3.189-8.735-5.639-18.635-12.031-27.046-15.676l.2-.464c8.449,3.661,18.368,10.065,27.119,15.716,1.739,1.123,3.382,2.184,4.958,3.187Z" transform="translate(-501.76 -1457.731)"/><path class="d" d="M434.1,1518.7l-.443-.245a9.3,9.3,0,0,1,5.925-4.517l.135.488A8.7,8.7,0,0,0,434.1,1518.7Z" transform="translate(-432.037 -1501.869)"/><path class="d" d="M913.761,1504.484a8.705,8.705,0,0,0-5.617-4.274l.135-.487a9.3,9.3,0,0,1,5.925,4.517Z" transform="translate(-842.496 -1489.571)"/><path class="d" d="M694.36,1600.971l-.37-.345a18.953,18.953,0,0,0,4.98-9.168l.5.1A19.444,19.444,0,0,1,694.36,1600.971Z" transform="translate(-657.241 -1568.928)"/><g transform="translate(46.171 23.218)"><path class="g" d="M782.077,1597.365c-4.248-2.625-12.484,1.91-14.551,2.14a4.976,4.976,0,0,1-1.985-.285,12.785,12.785,0,0,1-1.728,7.645l1.01.205a29.74,29.74,0,0,0,14.392,1.07C786.052,1606.764,785.416,1599.429,782.077,1597.365Z" transform="translate(-763.812 -1596.551)"/><path class="b" d="M850.3,1619.167a.176.176,0,0,1-.051-.008.169.169,0,0,1-.11-.212c.5-1.6.725-4.742-.737-6.853a.169.169,0,1,1,.277-.192c1.531,2.211,1.306,5.486.781,7.147A.169.169,0,0,1,850.3,1619.167Z" transform="translate(-837.829 -1609.767)"/><path class="b" d="M825.615,1623.855a.168.168,0,0,1-.161-.219c.5-1.6.725-4.742-.737-6.854a.169.169,0,1,1,.277-.192c1.531,2.211,1.306,5.485.781,7.147A.169.169,0,0,1,825.615,1623.855Z" transform="translate(-816.473 -1613.823)"/></g></g><g transform="translate(18.799 0.298)"><path class="h" d="M510.532,1032.054s8.351-7.1,8.041-8.451c-.221-.964-2.586.45-2.586.45s3.317-3.936,3.149-4.414c-.3-.854-2.6.738-2.6.738s1.551-2.232.809-2.6-2.358,1.012-2.358,1.012.944-1.239.5-1.564-2.358,1.012-2.358,1.012.687-1.563-.773-.97-11.691,9.982-11.691,9.982Z" transform="translate(-500.671 -1017.136)"/><g transform="translate(9.398 0.936)"><path class="i" d="M574.192,1049.318a.169.169,0,0,1-.114-.044,7.659,7.659,0,0,0-3.647-2.114.169.169,0,0,1,.1-.322,7.927,7.927,0,0,1,3.775,2.188.169.169,0,0,1-.114.293Z" transform="translate(-570.312 -1043.758)"/><path class="i" d="M579.336,1076.948l-.024,0a.169.169,0,0,1-.144-.19,2.83,2.83,0,0,1,1.13-2.243,2.189,2.189,0,0,1,1.971.087.169.169,0,0,1-.134.31,1.882,1.882,0,0,0-1.672-.1,2.576,2.576,0,0,0-.961,2A.169.169,0,0,1,579.336,1076.948Z" transform="translate(-577.972 -1067.537)"/><path class="i" d="M576.419,1026.382a.169.169,0,0,1-.116-.291l2.1-1.975a.169.169,0,1,1,.231.245l-2.1,1.975A.167.167,0,0,1,576.419,1026.382Z" transform="translate(-575.449 -1024.07)"/><path class="i" d="M590.794,1030.6a.169.169,0,0,1-.122-.285l2.013-2.1a.169.169,0,0,1,.243.234l-2.013,2.1A.168.168,0,0,1,590.794,1030.6Z" transform="translate(-587.884 -1027.612)"/><path class="i" d="M605.481,1041.934a.169.169,0,0,1-.123-.284l1.579-1.694a.169.169,0,0,1,.247.23l-1.579,1.694A.169.169,0,0,1,605.481,1041.934Z" transform="translate(-600.589 -1037.767)"/></g></g><g transform="translate(0 8.544)"><path class="j" d="M590.155,1221.572l-30.531,1.181-3.374-27.832s10.221-9.695,14.154-13.265l6.639-.341C597.639,1190.677,594.266,1202.37,590.155,1221.572Z" transform="translate(-529.951 -1167.406)"/><path class="j" d="M710.329,1181.315s23.564,2.015,30.993,18.16c7.269,15.8-22.6,21.422-22.6,21.422Z" transform="translate(-663.238 -1167.406)"/><path class="j" d="M381.52,1095.613l9.738-11.85-9.106-5.519a118.766,118.766,0,0,0-17.369,15.4,12.858,12.858,0,0,0-2.988,5.165,11.113,11.113,0,0,0-.286,4.849h0a9.362,9.362,0,0,0,8.273,7.838c3.71.434,17.88-.675,29.35-4.048l3.374-13.021C400.773,1093.441,387.889,1093.271,381.52,1095.613Z" transform="translate(-361.364 -1078.245)"/></g><g class="k" transform="translate(4.977 12.463)"><path class="b" d="M782.1,1198.992l.152-.035c-.106-.063-.213-.124-.32-.186a51.083,51.083,0,0,1-5.265,1.016c-1.055.127-4.582.36-5.613-1.99a3.682,3.682,0,0,1,.455-3.382l-.253-.072a3.906,3.906,0,0,0-.434,3.555c1.1,2.51,4.775,2.272,5.875,2.139A52.2,52.2,0,0,0,782.1,1198.992Z" transform="translate(-720.317 -1182.595)"/><path class="b" d="M888.774,1358.676a7.82,7.82,0,0,0-3.511-.769,4.928,4.928,0,0,0-4.091,4.727,7.415,7.415,0,0,0,1.744,4.868l.215-.136a7.172,7.172,0,0,1-1.706-4.721,4.669,4.669,0,0,1,3.862-4.488,7.551,7.551,0,0,1,3.4.754c.41.158.827.318,1.251.454.022-.081.043-.163.063-.246C889.583,1358.987,889.175,1358.831,888.774,1358.676Z" transform="translate(-815.997 -1324.071)"/><path class="b" d="M421.46,1296.273c-1.471-1.217-3.757-1.542-6.271-.892a10.822,10.822,0,0,0-5.482,3.246c.087.028.172.06.259.085a10.61,10.61,0,0,1,5.286-3.086c2.434-.63,4.638-.322,6.046.842a5.491,5.491,0,0,1,1.487,2.048l.262-.03A5.783,5.783,0,0,0,421.46,1296.273Z" transform="translate(-408.16 -1269.715)"/><path class="b" d="M398.243,1117.112a30.519,30.519,0,0,0,7.928-3.076,8.662,8.662,0,0,0,2.741-2.239,3.846,3.846,0,0,0,.7-3.425,2.679,2.679,0,0,0-.686-1.083l-.195.16a2.441,2.441,0,0,1,.641,1,3.594,3.594,0,0,1-.667,3.2,8.428,8.428,0,0,1-2.663,2.17,29.9,29.9,0,0,1-7.472,2.954Z" transform="translate(-398.243 -1107.289)"/></g><g transform="translate(30.287)"><path class="h" d="M671.693,1132.719l0,.432-.068,6.711-.009.727a4.179,4.179,0,0,1-8.358,0l-.081-8.293Z" transform="translate(-652.732 -1116.454)"/><path class="g" d="M692.088,1138.662l-.068,6.711a10.631,10.631,0,0,1-5.265-5.556Z" transform="translate(-673.131 -1121.965)"/><path class="h" d="M667.639,1048.11c1.337,1.6,5.24,10.693,1.283,13.794-4.452,3.49-11.228-2.245-11.228-2.245l-.909-10.586,5.881-1.55Z" transform="translate(-647.207 -1043.124)"/><path class="g" d="M592.384,1047.559s-13.045,6.8-2.408,26.415a5.343,5.343,0,0,0,6.981,2.389h0a5.291,5.291,0,0,0,2.32-7.389c-1.74-3.091-3.419-7.071-2.7-10.032Z" transform="translate(-585.801 -1043.156)"/><circle class="e" cx="3.529" cy="3.529" r="3.529" transform="translate(2.825 7.624) rotate(-45)"/><path class="g" d="M634.085,1026.794c-.381-2.2-.614-3.711,1.611-4.846,0,0,7.841,1.426,9.339-1.533s-.784-7.628-5.56-4.384c-12.225-2.388-13.865,9.053-10.158,12.867l3.659-.562A1.332,1.332,0,0,0,634.085,1026.794Z" transform="translate(-621.929 -1014.931)"/><g transform="translate(15.776 7.848)"><ellipse class="g" cx="0.521" cy="0.521" rx="0.521" ry="0.521" transform="translate(1.929 3.501)"/><ellipse class="g" cx="0.521" cy="0.521" rx="0.521" ry="0.521" transform="translate(5.458 1.763)"/><path class="g" d="M737.058,1099.349a.147.147,0,0,1-.107-.249c.209-.22.438-.53.342-.754s-.523-.333-.716-.333c-.416,0-.616-.74-.651-.888a.148.148,0,0,1,.287-.069c.076.313.248.662.364.662.2,0,.808.094.987.512.128.3-.006.66-.4,1.073A.146.146,0,0,1,737.058,1099.349Z" transform="translate(-731.439 -1093.722)"/><path class="g" d="M729.887,1125.281a.146.146,0,0,1-.083-.026,1.973,1.973,0,0,0-1.982-.1.148.148,0,0,1-.147-.256,2.244,2.244,0,0,1,2.295.113.148.148,0,0,1-.083.27Z" transform="translate(-724.242 -1117.676)"/><path class="g" d="M704.932,1084.6c.3.558-.22.67-.826.992s-1.225.44-1.367.173.235-.743.84-1.065S704.7,1084.163,704.932,1084.6Z" transform="translate(-702.71 -1082.831)"/><path class="g" d="M735.446,1073.842c.13.5.5.28,1.042.139s.977-.413.915-.651-.551-.316-1.091-.174S735.345,1073.456,735.446,1073.842Z" transform="translate(-731.016 -1073.085)"/></g><circle class="l" cx="1.537" cy="1.537" r="1.537" transform="matrix(0.735, -0.678, 0.678, 0.735, 13.649, 14.214)"/><ellipse class="h" cx="2.082" cy="2.366" rx="2.082" ry="2.366" transform="matrix(0.611, -0.792, 0.792, 0.611, 6.839, 14.511)"/><path class="g" d="M654.453,1115.668a.148.148,0,0,1-.148-.148,1.294,1.294,0,0,0-.568-1.078,1.042,1.042,0,0,0-.97-.129.148.148,0,0,1-.111-.273,1.336,1.336,0,0,1,1.246.157,1.588,1.588,0,0,1,.7,1.323A.148.148,0,0,1,654.453,1115.668Z" transform="translate(-643.554 -1100.588)"/></g><g transform="translate(14.705 25.797)"><rect class="g" width="7.846" height="0.337" transform="translate(0 5.762) rotate(-47.248)"/><path class="g" d="M787.234,1343.545l-.1-.323c3.877-1.182,7.64-2.6,11.05-6.86l.263.211C794.979,1340.912,791.164,1342.347,787.234,1343.545Z" transform="translate(-744.385 -1318.784)"/></g><g transform="translate(24.781 37.494)"><path class="f" d="M580.131,1292.776H547.148A2.241,2.241,0,0,0,545,1295.1v23.549a2.241,2.241,0,0,0,2.148,2.324h32.983a2.241,2.241,0,0,0,2.148-2.324V1295.1A2.241,2.241,0,0,0,580.131,1292.776Z" transform="translate(-545 -1292.776)"/><g transform="translate(15.997 11.935)"><path class="m" d="M667.926,1381.893a.237.237,0,0,1,.227.245v2.486a.237.237,0,0,1-.227.245h-3.482a.237.237,0,0,1-.227-.245v-2.486a.236.236,0,0,1,.227-.245h3.482m0-.675h-3.482a.912.912,0,0,0-.9.92v2.486a.912.912,0,0,0,.9.92h3.482a.912.912,0,0,0,.9-.92v-2.486a.912.912,0,0,0-.9-.92Z" transform="translate(-663.542 -1381.218)"/></g></g></g></g><rect class="g" width="198.865" height="0.675" transform="translate(0.001 176.937)"/><rect class="g" width="120.754" height="0.675" transform="translate(198.865 56.184) rotate(90)"/><rect class="g" width="120.754" height="0.675" transform="translate(0.714 56.184) rotate(90)"/></g></svg>