<svg xmlns="http://www.w3.org/2000/svg" xmlns:xlink="http://www.w3.org/1999/xlink" width="113.24" height="111.474" viewBox="0 0 113.24 111.474"><defs><style>.a{fill:none;stroke:#6a98c0;}.b{filter:url(#e);}.c{filter:url(#c);}.d{filter:url(#a);}</style><filter id="a" x="5.292" y="3.34" width="102.657" height="104.794" filterUnits="userSpaceOnUse"><feOffset dy="3" input="SourceAlpha"/><feGaussianBlur stdDeviation="3" result="b"/><feFlood flood-opacity="0.161"/><feComposite operator="in" in2="b"/><feComposite in="SourceGraphic"/></filter><filter id="c" x="0.001" y="0" width="113.239" height="25.679" filterUnits="userSpaceOnUse"><feOffset dy="3" input="SourceAlpha"/><feGaussianBlur stdDeviation="3" result="d"/><feFlood flood-opacity="0.161"/><feComposite operator="in" in2="d"/><feComposite in="SourceGraphic"/></filter><filter id="e" x="0" y="85.794" width="113.239" height="25.679" filterUnits="userSpaceOnUse"><feOffset dy="3" input="SourceAlpha"/><feGaussianBlur stdDeviation="3" result="f"/><feFlood flood-opacity="0.161"/><feComposite operator="in" in2="f"/><feComposite in="SourceGraphic"/></filter></defs><g transform="translate(9.5 4.514)"><g class="d" transform="matrix(1, 0, 0, 1, -9.5, -4.51)"><path class="a" d="M69.877,27.391h42.529v85.794H28.748V27.391h11.52" transform="translate(-13.96 -17.55)"/></g><path class="a" d="M69.877,27.391h42.529v8.821H28.748V27.391h11.52" transform="translate(-23.457 -22.065)"/><g class="c" transform="matrix(1, 0, 0, 1, -9.5, -4.51)"><path class="a" d="M35.021,15.925H92.708a1.534,1.534,0,0,0,1.534-1.534V10.78a1.534,1.534,0,0,0-1.534-1.534H1.537A1.534,1.534,0,0,0,0,10.78v3.611a1.534,1.534,0,0,0,1.534,1.534H25.583" transform="translate(9.5 -2.75)"/></g><circle class="a" cx="17.332" cy="17.332" r="17.332" transform="translate(14.284 2.271)"/><circle class="a" cx="17.332" cy="17.332" r="17.332" transform="translate(14.284 0.348)"/><path class="a" d="M133.617,42.841h-5.952a.767.767,0,0,1-.767-.767V36.122a.767.767,0,0,0-.767-.767H120.86a.767.767,0,0,0-.767.767v5.952a.767.767,0,0,1-.767.767h-5.952a.767.767,0,0,0-.767.767V48.88a.767.767,0,0,0,.767.767h5.952a.767.767,0,0,1,.767.767v5.952a.767.767,0,0,0,.767.767h5.271a.767.767,0,0,0,.767-.767V50.415a.767.767,0,0,1,.767-.767h5.952a.767.767,0,0,0,.767-.767V43.609A.767.767,0,0,0,133.617,42.841Z" transform="translate(-91.88 -28.564)"/><g transform="translate(11.519 17.896)"><rect class="a" width="9.373" height="17.116" transform="translate(46.373 22.935)"/><rect class="a" width="9.373" height="17.116" transform="translate(15.457 22.935)"/><rect class="a" width="9.373" height="17.116" transform="translate(61.83 22.935)"/><rect class="a" width="9.373" height="17.116" transform="translate(30.914 22.935)"/><rect class="a" width="9.373" height="17.116" transform="translate(0 22.935)"/><rect class="a" width="9.373" height="17.116" transform="translate(15.457 45.867)"/><rect class="a" width="9.373" height="17.116" transform="translate(30.914 45.867)"/><rect class="a" width="9.373" height="17.116" transform="translate(0 45.867)"/><rect class="a" width="9.373" height="17.116" transform="translate(46.373)"/><rect class="a" width="9.373" height="17.116" transform="translate(61.83)"/></g><g transform="translate(10.365 39.676)"><path class="a" d="M318.778,233.441H309.4a1.154,1.154,0,0,1-1.154-1.154V215.171a1.154,1.154,0,0,1,1.154-1.154h9.373a1.154,1.154,0,0,1,1.154,1.154v17.116A1.154,1.154,0,0,1,318.778,233.441Zm-8.219-2.308h7.065V216.325h-7.065Z" transform="translate(-261.879 -214.017)"/><path class="a" d="M150.819,233.441h-9.373a1.154,1.154,0,0,1-1.154-1.154V215.171a1.154,1.154,0,0,1,1.154-1.154h9.373a1.154,1.154,0,0,1,1.154,1.154v17.116A1.154,1.154,0,0,1,150.819,233.441Zm-8.219-2.308h7.065V216.325H142.6Z" transform="translate(-124.835 -214.017)"/><path class="a" d="M402.757,233.441h-9.373a1.154,1.154,0,0,1-1.154-1.154V215.171a1.154,1.154,0,0,1,1.154-1.154h9.373a1.154,1.154,0,0,1,1.154,1.154v17.116A1.154,1.154,0,0,1,402.757,233.441Zm-8.219-2.308H401.6V216.325h-7.065Z" transform="translate(-330.4 -214.017)"/><path class="a" d="M234.8,233.441h-9.373a1.154,1.154,0,0,1-1.154-1.154V215.171a1.154,1.154,0,0,1,1.154-1.154H234.8a1.154,1.154,0,0,1,1.154,1.154v17.116A1.154,1.154,0,0,1,234.8,233.441Zm-8.219-2.308h7.065V216.325h-7.065v14.808Z" transform="translate(-193.356 -214.017)"/><path class="a" d="M66.839,233.441H57.466a1.154,1.154,0,0,1-1.154-1.154V215.171a1.154,1.154,0,0,1,1.154-1.154h9.373a1.154,1.154,0,0,1,1.154,1.154v17.116A1.154,1.154,0,0,1,66.839,233.441Zm-8.219-2.308h7.065V216.325H58.62Z" transform="translate(-56.312 -214.017)"/></g><path class="a" d="M339.35,344.882H314.52V368.9l24.83,1.923Z" transform="translate(-256.629 -281.118)"/><g transform="translate(10.365 16.743)"><path class="a" d="M335.388,364.745H333.08V340.921H310.558v23.824H308.25V339.767a1.154,1.154,0,0,1,1.154-1.154h24.83a1.154,1.154,0,0,1,1.154,1.154v24.978Z" transform="translate(-261.878 -292.746)"/><path class="a" d="M150.819,358.038h-9.373a1.154,1.154,0,0,1-1.154-1.154V339.768a1.154,1.154,0,0,1,1.154-1.154h9.373a1.154,1.154,0,0,1,1.154,1.154v17.116A1.154,1.154,0,0,1,150.819,358.038ZM142.6,355.73h7.065V340.922H142.6Z" transform="translate(-124.835 -292.747)"/><path class="a" d="M234.8,358.038h-9.373a1.154,1.154,0,0,1-1.154-1.154V339.768a1.154,1.154,0,0,1,1.154-1.154H234.8a1.154,1.154,0,0,1,1.154,1.154v17.116A1.154,1.154,0,0,1,234.8,358.038Zm-8.219-2.308h7.065V340.922h-7.065V355.73Z" transform="translate(-193.356 -292.747)"/><path class="a" d="M66.839,358.038H57.466a1.154,1.154,0,0,1-1.154-1.154V339.768a1.154,1.154,0,0,1,1.154-1.154h9.373a1.154,1.154,0,0,1,1.154,1.154v17.116A1.154,1.154,0,0,1,66.839,358.038ZM58.62,355.73h7.065V340.922H58.62Z" transform="translate(-56.312 -292.747)"/><path class="a" d="M318.778,108.843H309.4a1.154,1.154,0,0,1-1.154-1.154V90.573a1.154,1.154,0,0,1,1.154-1.154h9.373a1.154,1.154,0,0,1,1.154,1.154v17.116A1.154,1.154,0,0,1,318.778,108.843Zm-8.219-2.308h7.065V91.727h-7.065Z" transform="translate(-261.879 -89.419)"/><path class="a" d="M402.757,108.843h-9.373a1.154,1.154,0,0,1-1.154-1.154V90.573a1.154,1.154,0,0,1,1.154-1.154h9.373a1.154,1.154,0,0,1,1.154,1.154v17.116A1.154,1.154,0,0,1,402.757,108.843Zm-8.219-2.308H401.6V91.727h-7.065Z" transform="translate(-330.4 -89.419)"/><rect class="a" width="24.831" height="2.308" transform="translate(47.527 51.733)"/><rect class="a" width="2.308" height="20.073" transform="translate(58.787 52.886)"/><rect class="a" width="9.374" height="2.308" transform="translate(16.61 51.348)"/><path class="a" d="M239.912,351.519h-9.374v-2.308h8.22v-4.325h2.308v5.479A1.154,1.154,0,0,1,239.912,351.519Z" transform="translate(-198.47 -297.864)"/><rect class="a" width="9.372" height="2.308" transform="translate(1.154 51.348)"/><path class="a" d="M407.875,226.919H398.5v-2.308h8.218v-4.327h2.308v5.481A1.154,1.154,0,0,1,407.875,226.919Z" transform="translate(-335.519 -196.197)"/><rect class="a" width="9.374" height="2.308" transform="translate(32.068 28.415)"/><rect class="a" width="9.372" height="2.308" transform="translate(1.154 28.415)"/><rect class="a" width="9.374" height="2.308" transform="translate(16.61 28.415)"/><rect class="a" width="9.374" height="2.308" transform="translate(47.525 28.415)"/><path class="a" d="M407.875,102.325H398.5v-2.308h8.218V95.69h2.308v5.481A1.154,1.154,0,0,1,407.875,102.325Z" transform="translate(-335.519 -94.536)"/><rect class="a" width="9.374" height="2.308" transform="translate(47.525 5.482)"/></g><g class="b" transform="matrix(1, 0, 0, 1, -9.5, -4.51)"><path class="a" d="M91.418,475.363H2.821A2.821,2.821,0,0,0,0,478.184v3.858H94.239v-3.858A2.821,2.821,0,0,0,91.418,475.363Z" transform="translate(9.5 -383.07)"/></g></g></svg>