<svg xmlns="http://www.w3.org/2000/svg" width="424.756" height="289.128" viewBox="0 0 424.756 289.128"><defs><style>.a,.b{fill:#c7ceff;}.b,.c{fill-rule:evenodd;}.c{fill:#49508f;}.d{fill:#fff;}.e{fill:#6974fb;}</style></defs><g transform="translate(0)"><ellipse class="a" cx="137.511" cy="14.897" rx="137.511" ry="14.897" transform="translate(76.701 259.334)"/><path class="b" d="M1634.733,729.846l10.643,10.641a3.437,3.437,0,0,0,4.862-4.861l-10.643-10.643a3.438,3.438,0,0,0-4.861,4.863Z" transform="translate(-1600.876 -723.977)"/><path class="b" d="M1645.376,724.983l-10.643,10.643a3.438,3.438,0,0,0,4.863,4.861l10.641-10.641a3.438,3.438,0,0,0-4.862-4.863Z" transform="translate(-1600.876 -723.977)"/><path class="b" d="M2403.467,936.957,2414.11,947.6a3.438,3.438,0,1,0,4.861-4.863L2408.33,932.1a3.438,3.438,0,1,0-4.863,4.861Z" transform="translate(-1995.221 -830.222)"/><path class="b" d="M2414.111,932.1l-10.643,10.641a3.439,3.439,0,0,0,4.863,4.863l10.641-10.643a3.437,3.437,0,0,0-4.861-4.861Z" transform="translate(-1995.222 -830.222)"/><path class="b" d="M1567.282,1147.1l10.641,10.643a3.439,3.439,0,0,0,4.863-4.864l-10.643-10.641a3.437,3.437,0,0,0-4.861,4.862Z" transform="translate(-1566.274 -938.02)"/><path class="b" d="M1577.923,1142.237l-10.641,10.641a3.438,3.438,0,0,0,4.861,4.864l10.643-10.643a3.438,3.438,0,0,0-4.863-4.862Z" transform="translate(-1566.274 -938.02)"/><g transform="translate(80.203 9.666)"><circle class="a" cx="126.607" cy="126.607" r="126.607" transform="translate(3.438 3.438)"/><path class="c" d="M1973.5,1000.974a123.184,123.184,0,1,1-224.116-102.3,3.438,3.438,0,0,0-6.227-2.915,130.059,130.059,0,1,0,236.618,108.022,3.437,3.437,0,1,0-6.275-2.807Z" transform="translate(-1730.955 -820.749)"/><path class="c" d="M1853.05,771.08a123.157,123.157,0,0,1,191.012,102.79,3.438,3.438,0,0,0,6.875,0,130.032,130.032,0,0,0-201.681-108.524,3.438,3.438,0,0,0,3.793,5.734Z" transform="translate(-1790.851 -743.825)"/><circle class="d" cx="103.486" cy="103.486" r="103.486" transform="translate(26.558 26.558)"/><circle class="a" cx="80.362" cy="80.362" r="80.362" transform="translate(16.394 130.045) rotate(-45)"/><circle class="d" cx="57.244" cy="57.244" r="57.244" transform="translate(49.087 130.045) rotate(-45)"/><path class="a" d="M1927.915,974.907a34.119,34.119,0,1,0,34.121-34.122A34.119,34.119,0,0,0,1927.915,974.907Z" transform="translate(-1831.992 -844.862)"/><circle class="d" cx="11.001" cy="11.001" r="11.001" transform="translate(115.659 124.115) rotate(-22.596)"/><rect class="e" width="166.249" height="7.277" transform="translate(130.042 126.71)"/><path class="e" d="M2286.6,977.476l15.22-20.322c2-2.67.908-4.859-2.429-4.859h-37.919a13.678,13.678,0,0,0-9.7,4.859l-15.225,20.322Z" transform="translate(-1990.313 -850.767)"/><path class="e" d="M2286.6,1018.941l15.22,20.324c2,2.668.908,4.859-2.429,4.859h-37.919a13.687,13.687,0,0,1-9.7-4.859l-15.225-20.324Z" transform="translate(-1990.313 -884.954)"/></g></g></svg>