<svg xmlns="http://www.w3.org/2000/svg" xmlns:xlink="http://www.w3.org/1999/xlink" width="198.594" height="188.07" viewBox="0 0 198.594 188.07"><defs><style>.a{fill:rgba(0,0,0,0);}.b{fill:#9192ff;}.c{fill:#ebebff;}.d{clip-path:url(#a);}.e,.j{fill:#fff;}.f{fill:#d1d1ff;}.g{opacity:0.8;}.h{fill:#fff2e0;opacity:0.7;}.i{fill:#ffa121;}.j{opacity:0.4;}.k{fill:#3335cf;}.l,.q{fill:#1b1b43;}.m{fill:#c5c5ff;}.n{fill:#ffbc96;}.o{fill:#d28572;}.p{fill:#26289c;}.q{opacity:0.3;}.r{fill:#fe5b52;opacity:0.2;}</style><clipPath id="a"><path class="a" d="M990.783,738.377a7.074,7.074,0,0,0,7.073,7.073h78.56a7.073,7.073,0,0,0,7.073-7.073v-47.8H990.783Z" transform="translate(-990.783 -690.579)"/></clipPath></defs><g transform="translate(0 0)"><path class="b" d="M589.4,838.191l-.211-.221,1.327-1.266.211.221Zm2.65-2.539-.215-.218c.431-.424.863-.862,1.286-1.3l.22.212C592.916,834.786,592.482,835.226,592.049,835.653ZM594.6,833l-.226-.206c.405-.445.814-.906,1.214-1.369l.231.2C595.412,832.092,595,832.555,594.6,833Zm2.4-2.781-.236-.194c.382-.465.766-.945,1.144-1.429l.241.188C597.768,829.271,597.381,829.754,597,830.221Zm2.262-2.9-.245-.183c.359-.482.721-.98,1.076-1.48l.249.177C599.984,826.341,599.62,826.841,599.26,827.325Zm2.127-3-.253-.171q.514-.758,1.012-1.526l.256.166Q601.9,823.569,601.387,824.329Zm16.746-2.119a4.472,4.472,0,0,1-1.647-.314l.114-.284a4.169,4.169,0,0,0,1.534.292c.076-.007.132,0,.2,0l.015.305C618.275,822.209,618.19,822.2,618.133,822.21Zm2.029-.522-.153-.265a3.32,3.32,0,0,0,1.219-1.231l.265.151A3.625,3.625,0,0,1,620.162,821.688Zm-16.777-.441-.26-.161q.482-.778.95-1.565l.263.156Q603.869,820.466,603.386,821.247Zm11.552-.426a5.358,5.358,0,0,1-1.006-1.585l.282-.119a5.061,5.061,0,0,0,.948,1.5Zm7.063-2.3-.306-.007v-.082a3.174,3.174,0,0,0-.27-1.3c-.046-.1-.1-.2-.152-.3l.266-.151q.089.157.164.323a3.481,3.481,0,0,1,.3,1.424Zm-16.616-.32-.234-.2a11.645,11.645,0,0,1,1.3-1.323l.2.231A11.346,11.346,0,0,0,605.384,818.2Zm8.075-.776a7.458,7.458,0,0,1-.052-.884,7.844,7.844,0,0,1,.062-.983l.3.038a7.5,7.5,0,0,0-.06.944,7.11,7.11,0,0,0,.05.847Zm-5.349-1.582-.161-.26a12.525,12.525,0,0,1,1.646-.856l.121.281A12.284,12.284,0,0,0,608.109,815.844Zm11.989-.315a6.724,6.724,0,0,0-1.562-.87l.114-.284a7.03,7.03,0,0,1,1.633.91Zm-8.673-1.116-.08-.295a13.142,13.142,0,0,1,1.819-.359l.038.3A12.857,12.857,0,0,0,611.425,814.413Zm5.381-.253a11.07,11.07,0,0,0-1.8-.189l.008-.306a11.408,11.408,0,0,1,1.847.194Zm-2.613-.309-.288-.1a9.15,9.15,0,0,1,.807-1.678l.261.16A8.814,8.814,0,0,0,614.193,813.85Zm1.868-3.056-.224-.208q.133-.143.273-.282a9.948,9.948,0,0,1,1.118-.952l.181.247a9.584,9.584,0,0,0-1.084.922Q616.191,810.655,616.062,810.794Zm2.893-2.131-.136-.274a11.431,11.431,0,0,1,1.726-.686l.089.292A11.137,11.137,0,0,0,618.954,808.663Zm3.448-1.123-.076-.3c.6-.153,1.192-.313,1.767-.476l.083.294C623.6,807.225,623,807.386,622.4,807.54Zm3.535-1-.092-.292c.59-.185,1.174-.379,1.736-.576l.1.289C627.118,806.154,626.531,806.349,625.938,806.535Zm3.471-1.214-.11-.285c.572-.222,1.141-.455,1.692-.693l.121.281C630.557,804.863,629.985,805.1,629.409,805.321Zm3.377-1.459-.132-.275,1.649-.8.134.275Zm3.3-1.6-.134-.275,1.65-.8.134.275Zm3.3-1.6-.134-.275,1.649-.8.134.275Zm3.3-1.6-.134-.275,1.65-.8.134.275Zm3.3-1.6-.134-.275,1.65-.8.134.275Z" transform="translate(-540.33 -728.289)"/><path class="c" d="M1007.627,251.82a1.589,1.589,0,0,0,.007.187h40.2a6.367,6.367,0,0,0-6.526-5.97,6.822,6.822,0,0,0-3.127.75,7.129,7.129,0,0,0-3.474-6.373,7.377,7.377,0,0,0-10,3.011,8.03,8.03,0,0,0-1.056,3.459,14.534,14.534,0,0,0-5.989-1.22C1012.116,245.663,1007.627,248.421,1007.627,251.82Z" transform="translate(-907.611 -239.497)"/><path class="b" d="M222.7,1033.329H189.559l0-.118a5.3,5.3,0,0,1,5.46-5,5.751,5.751,0,0,1,2.446.545,5.969,5.969,0,0,1,2.9-5.135,5.764,5.764,0,0,1,4.416-.559,6.462,6.462,0,0,1,3.935,3.068,6.657,6.657,0,0,1,.867,2.72,12.067,12.067,0,0,1,4.8-.943c4.592,0,8.327,2.314,8.327,5.158a1.4,1.4,0,0,1-.007.166ZM189.8,1033.1h32.7v-.038c0-2.718-3.633-4.929-8.1-4.929a11.756,11.756,0,0,0-4.858.989l-.151.069-.011-.166a6.42,6.42,0,0,0-.85-2.784,6.234,6.234,0,0,0-3.8-2.96,5.539,5.539,0,0,0-4.242.536,5.752,5.752,0,0,0-2.788,5.119l0,.192-.171-.087a5.513,5.513,0,0,0-2.509-.6A5.082,5.082,0,0,0,189.8,1033.1Z" transform="translate(-189.559 -927.079)"/></g><g transform="translate(97.804 18.879)"><g transform="translate(0.153 36.27)"><g class="d"><path class="e" d="M990.783,738.377a7.074,7.074,0,0,0,7.073,7.073h78.56a7.073,7.073,0,0,0,7.073-7.073v-47.8H990.783Z" transform="translate(-990.783 -690.579)"/><path class="f" d="M854.952,743.971a9.561,9.561,0,0,1,8.258-6.424,9.727,9.727,0,0,1,9.208,5.107,5.732,5.732,0,0,1,4.926,2.771,5.331,5.331,0,0,1-.172,5.5A7.779,7.779,0,0,1,882.727,755a7.3,7.3,0,0,1-.149,6.729,8.934,8.934,0,0,1,8.459.306,8.319,8.319,0,0,1,4,7.215,8.9,8.9,0,0,1,15.287.7,14.141,14.141,0,0,1,9.933-9,14.735,14.735,0,0,1,13.186,3.341c5.17.809,8.939,6.423,7.592,11.31a10.435,10.435,0,0,1,3.637,9.574,10.67,10.67,0,0,1-6.56,7.972l-88.967-.058-7.584-33.943Z" transform="translate(-859.803 -731.783)"/><g class="g" transform="translate(-19.214 17.005)"><path class="e" d="M846.575,836.124a9.086,9.086,0,0,1,16.876-1.331,5.376,5.376,0,0,1,4.587,8.269,7.4,7.4,0,0,1,5.214,10.8,8.208,8.208,0,0,1,12.03,7.511,8.452,8.452,0,0,1,14.769.684,13.617,13.617,0,0,1,22.34-5.674,9.464,9.464,0,0,1,7.326,11.3,10.411,10.411,0,0,1-2.838,17.548l-85.955.013-7.3-33.936Z" transform="translate(-833.624 -829.668)"/></g><g transform="translate(-6.467 1.53)"><path class="h" d="M1006.427,703.095c-25.749,24.214-44.008,30.744-67.011,33.078l-1.528,24.452,24.146,8.252c21.09-.611,41.34-31.142,53.849-57.334l-9.455-8.449" transform="translate(-937.888 -703.095)"/><path class="i" d="M1399.318,705.669c-4.187,4.953-10.5,9.69-17.947,16.089l10.16-4.141a69.092,69.092,0,0,1-4.078,6.193,34.3,34.3,0,0,0,7.359-4.72c0,1.759-2.12,4.7-3.044,6.31,5.42-4.638,10.35-10.3,11.942-15.275l-4.393-4.456" transform="translate(-1327.151 -705.354)"/><path class="j" d="M1462.033,707.717c-2.476,3.283-6.183,6.447-10.563,10.709l5.929-2.813c-.743,1.363-1.824,3.272-2.426,4.093a20.752,20.752,0,0,0,4.312-3.163c-.018,1.151-1.276,3.1-1.828,4.159,3.188-3.09,6.1-6.844,7.076-10.114l-2.5-2.87" transform="translate(-1388.68 -707.152)"/></g><path class="f" d="M1195.913,827.391c.033.765,0,2.058-.766,2.5-1.277.739-2.281-1.055-2.75-1.958a1.94,1.94,0,0,1,.848-2.894C1194.916,824.405,1195.851,825.962,1195.913,827.391Z" transform="translate(-1167.475 -808.473)"/><path class="f" d="M1691.033,1017.5c.033.766,0,2.058-.766,2.5-1.277.739-2.281-1.055-2.75-1.957a1.94,1.94,0,0,1,.848-2.894C1690.036,1014.513,1690.972,1016.07,1691.033,1017.5Z" transform="translate(-1602.062 -975.338)"/><ellipse class="f" cx="1.07" cy="1.07" rx="1.07" ry="1.07" transform="translate(20.583 9.189)"/><ellipse class="f" cx="1.629" cy="1.629" rx="1.629" ry="1.629" transform="translate(73.875 28.831) rotate(-26.428)"/></g></g><g transform="translate(0 17.599)"><path class="b" d="M1075.319,744.506H996.76a7.234,7.234,0,0,1-7.226-7.226V689.329h93.011V737.28A7.234,7.234,0,0,1,1075.319,744.506Zm-85.48-54.871V737.28a6.928,6.928,0,0,0,6.92,6.92h78.56a6.928,6.928,0,0,0,6.92-6.92V689.634Z" transform="translate(-989.534 -670.81)"/><path class="e" d="M1076.416,539.112h-78.56a7.073,7.073,0,0,0-7.073,7.073V557.63h92.706V546.185A7.072,7.072,0,0,0,1076.416,539.112Z" transform="translate(-990.63 -538.959)"/><path class="b" d="M1082.545,556.685H989.534v-11.6a7.234,7.234,0,0,1,7.226-7.226h78.56a7.234,7.234,0,0,1,7.226,7.226Zm-92.706-.306h92.4V545.087a6.928,6.928,0,0,0-6.92-6.92H996.76a6.928,6.928,0,0,0-6.92,6.92Z" transform="translate(-989.534 -537.861)"/><g transform="translate(4.92 3.928)"><ellipse class="f" cx="3.878" cy="3.878" rx="3.878" ry="3.878" transform="matrix(0.199, -0.98, 0.98, 0.199, 0, 8.513)"/><g transform="translate(10.509 0)"><circle class="e" cx="3.878" cy="3.878" r="3.878" transform="translate(0 5.484) rotate(-45)"/><path class="b" d="M1131.652,589.94a4.031,4.031,0,1,1,4.03-4.031A4.035,4.035,0,0,1,1131.652,589.94Zm0-7.755a3.725,3.725,0,1,0,3.725,3.725A3.729,3.729,0,0,0,1131.652,582.185Z" transform="translate(-1126.168 -580.426)"/></g><g transform="translate(26.218 1.63)"><rect class="e" width="22.842" height="7.402" rx="3.701" transform="translate(0.153 0.153)"/><path class="b" d="M1263.512,591.03h-15.439a3.854,3.854,0,1,1,0-7.708h15.439a3.854,3.854,0,1,1,0,7.708Zm-15.439-7.4a3.548,3.548,0,1,0,0,7.1h15.439a3.548,3.548,0,1,0,0-7.1Z" transform="translate(-1244.219 -583.322)"/></g></g></g><g transform="translate(61.011 0)"><g transform="translate(0.508 9.316)"><path class="k" d="M1514.82,470.111c-6.191,5.42-16.869,1.684-20.187,6.012l9.481,7.508Z" transform="translate(-1494.399 -470.111)"/><path class="f" d="M1492.951,519.283h0a3.664,3.664,0,0,0,.67,3.7l6.719,7.7,2.093-3.887Z" transform="translate(-1492.716 -513.271)"/></g><g transform="translate(20.952 20.427)"><path class="k" d="M1697.666,561c-3.856,7.268,2.228,16.806-1.224,21.028l-9.481-7.508Z" transform="translate(-1683.656 -560.998)"/><path class="f" d="M1672.723,679.088h0a3.665,3.665,0,0,1-3.754.2l-9.03-4.776,3.3-2.928Z" transform="translate(-1659.938 -658.06)"/></g><path class="l" d="M1753.322,393.916l-8.442,3.1,7.36,5.828Z" transform="translate(-1713.542 -393.916)"/><path class="m" d="M1561.275,425.092c-1.179,13.357-11.049,25.821-23.035,32.744l-10.924-8.641c4.584-14.421,13.12-24.74,26.6-29.931Z" transform="translate(-1522.578 -416.165)"/><path class="k" d="M1493.3,664.079l-4.738,3.281,13.553,10.732,2.109-5.372Z" transform="translate(-1488.56 -631.049)"/><g transform="translate(22.536 9.029)"><ellipse class="e" cx="5.07" cy="5.07" rx="5.07" ry="5.07" transform="translate(0 1.197) rotate(-6.78)"/><path class="b" d="M1693.5,491.556l-.032-.3a3.323,3.323,0,0,0,.849-.206l.11.285A3.623,3.623,0,0,1,1693.5,491.556Zm-.954-.024a3.583,3.583,0,0,1-.915-.274l.126-.279a3.286,3.286,0,0,0,.837.251Zm2.718-.661-.181-.246a3.31,3.31,0,0,0,.628-.608l.239.19A3.579,3.579,0,0,1,1695.263,490.87Zm-4.442-.117a3.6,3.6,0,0,1-.652-.7l.249-.177a3.319,3.319,0,0,0,.6.639Zm5.5-1.122-.271-.141a3.292,3.292,0,0,0,.3-.822l.3.065A3.618,3.618,0,0,1,1696.323,489.631Zm-6.6-.421a3.632,3.632,0,0,1-.208-.932l.3-.027a3.347,3.347,0,0,0,.191.853Zm6.7-1.413a3.37,3.37,0,0,0-.159-.86l.291-.094a3.64,3.64,0,0,1,.173.938Zm-6.561-.419-.3-.054a3.573,3.573,0,0,1,.291-.909l.276.131A3.29,3.29,0,0,0,1689.86,487.379Zm6.024-1.229a3.3,3.3,0,0,0-.572-.661l.2-.229a3.619,3.619,0,0,1,.624.722Zm-5.282-.336-.232-.2a3.608,3.608,0,0,1,.71-.638l.173.253A3.3,3.3,0,0,0,1690.6,485.814Zm3.987-.814a3.293,3.293,0,0,0-.827-.282l.059-.3a3.6,3.6,0,0,1,.9.308Zm-2.556-.162-.1-.289a3.645,3.645,0,0,1,.935-.19l.022.305A3.327,3.327,0,0,0,1692.033,484.837Z" transform="translate(-1687.484 -482.33)"/></g><rect class="l" width="1.953" height="16.959" rx="0.976" transform="translate(12.829 32.46) rotate(38.375)"/></g></g><g transform="translate(131.966 130.729)"><path class="b" d="M1347.339,1390.417H1345.5v-.306h1.834Zm-3.668,0h-1.834v-.306h1.834Zm-3.668,0h-1.834v-.306H1340Zm-3.668,0H1334.5v-.306h1.834Zm-3.668,0h-1.834v-.306h1.834Zm-3.668,0h-1.834v-.306H1329Zm-3.668,0H1323.5v-.306h1.834Zm-3.668,0h-1.834v-.306h1.834Zm-3.668,0h-1.834v-.306H1318Zm-3.668,0h-1.834v-.306h1.834Zm-3.67,0a5.854,5.854,0,0,1-1.847-.315l.1-.289a5.536,5.536,0,0,0,1.751.3Zm36.9,0-.012-.305a5.538,5.538,0,0,0,1.742-.348l.107.286A5.827,5.827,0,0,1,1347.56,1390.413Zm-40.4-1.2a5.892,5.892,0,0,1-1.29-1.36l.252-.173a5.569,5.569,0,0,0,1.223,1.289Zm43.865-.1-.193-.238a5.583,5.583,0,0,0,1.186-1.323l.257.165A5.877,5.877,0,0,1,1351.024,1389.115Zm-45.951-2.955a5.871,5.871,0,0,1-.222-1.6v-.25h.306v.25a5.56,5.56,0,0,0,.211,1.521Zm47.948-.16-.3-.075a5.6,5.6,0,0,0,.17-1.369v-.412h.306v.412A5.868,5.868,0,0,1,1353.021,1386Zm-47.865-3.528h-.306v-1.834h.306Zm48.044-.162h-.306v-1.834h.306Zm-48.044-3.505h-.306v-1.834h.306Zm48.044-.163h-.306v-1.834h.306Zm-48.044-3.506h-.306V1373.3h.306Zm48.044-.162h-.306v-1.834h.306Zm-48.044-3.506h-.306v-1.834h.306Zm48.044-.162h-.306v-1.834h.306Zm-48.044-3.506h-.306v-1.834h.306Zm48.044-.162h-.306V1365.8h.306Zm-48.044-3.506h-.306v-1.222a6,6,0,0,1,.033-.627l.3.033a5.767,5.767,0,0,0-.031.594Zm48.044-.162h-.306v-1.06a5.656,5.656,0,0,0-.05-.751l.3-.041a5.97,5.97,0,0,1,.053.792Zm-47.543-3.367-.278-.127a5.868,5.868,0,0,1,1.043-1.558l.224.208A5.559,5.559,0,0,0,1305.657,1360.6Zm46.67-.142a5.576,5.576,0,0,0-1.029-1.449l.218-.214a5.887,5.887,0,0,1,1.086,1.528Zm-44.28-2.427-.147-.268a5.829,5.829,0,0,1,1.767-.625l.054.3A5.512,5.512,0,0,0,1308.047,1358.034Zm41.818-.074a5.505,5.505,0,0,0-1.691-.544l.046-.3a5.829,5.829,0,0,1,1.785.574Zm-3.5-.606h-1.834v-.306h1.834Zm-3.668,0h-1.834v-.306h1.834Zm-3.668,0H1337.2v-.306h1.834Zm-3.668,0h-1.834v-.306h1.834Zm-3.668,0h-1.834v-.306h1.834Zm-3.668,0h-1.834v-.306h1.834Zm-3.668,0h-1.834v-.306h1.834Zm-3.668,0h-1.834v-.306h1.834Zm-3.668,0h-1.834v-.306h1.834Zm-3.668,0h-1.834v-.306h1.834Z" transform="translate(-1300.462 -1351.145)"/><rect class="b" width="48.044" height="33.974" rx="16.987"/><g transform="translate(8.354 10.276)"><rect class="e" width="5.202" height="10.565" transform="translate(0 9.569)"/><rect class="e" width="5.202" height="10.225" transform="translate(8.712 9.909)"/><rect class="e" width="5.202" height="15.567" transform="translate(17.423 4.567)"/><rect class="e" width="5.202" height="20.134" transform="translate(26.135)"/></g><rect class="e" width="27.913" height="1.22" transform="translate(10.066 4.785)"/></g><g transform="translate(18.968 68.086)"><g transform="translate(4.412)"><g transform="translate(27.304 21.068)"><path class="i" d="M610.481,977.125a14.487,14.487,0,0,0-5.326-7.648l-1.032-.76L605,986.84l6.773-5.24Z" transform="translate(-604.123 -968.717)"/><path class="n" d="M638.535,1091.526l-1.5-2.947a2.991,2.991,0,0,0-1.866-1.522l-4.428-1.226-11.39-7.272-1.288-4.464-6.773,5.24.061,1.272a6.7,6.7,0,0,0,4.037,5.827l11.059,4.771,5.257.117c1.694.584,2.278,2.044,3.329,1.519.392-.2-1.139-2.716-1.139-2.716l2.541,2.8Z" transform="translate(-610.411 -1061.212)"/><rect class="o" width="2.3" height="0.35" transform="translate(7.314 18.987) rotate(-49.665)"/></g><g transform="translate(35.619 57.957)"><path class="p" d="M672.133,1271.206l8.286-.732c5.394-.476,10.086,3.88,10.349,9.608l1.873,40.811-11.431.356Z" transform="translate(-672.133 -1270.439)"/><g transform="translate(9.997 49.295)"><path class="l" d="M753.9,1674.746l.35,11.273h16.939l-8.353-6.951-.526-5.432Z" transform="translate(-753.898 -1673.637)"/><rect class="e" width="4.498" height="0.701" transform="matrix(0.792, -0.61, 0.61, 0.792, 5.16, 7.9)"/></g></g><g transform="translate(2.778 53.047)"><g transform="translate(38.983 54.204)"><path class="f" d="M722.366,1674.746l.35,11.273h16.939l-8.352-6.951-.526-5.432Z" transform="translate(-722.366 -1673.637)"/><rect class="e" width="4.498" height="0.701" transform="matrix(0.792, -0.61, 0.61, 0.792, 5.16, 7.9)"/></g><path class="k" d="M455.111,1286.708H441.092l-9.991-30.742-1.4-4.3-19.976-.088a5.527,5.527,0,0,1-3.417-1.433,8.132,8.132,0,0,1-2.716-7.356l1.752-12.5,29.677,3.859a13.327,13.327,0,0,1,11.33,10.5Z" transform="translate(-403.511 -1230.285)"/><path class="l" d="M621.857,1405.141l-2.719,4.3-1.4-4.3Z" transform="translate(-591.548 -1383.764)"/></g><g transform="translate(0 20.017)"><path class="i" d="M410.208,990.884q-.215.867-.449,1.738l-1.051,4.293-13.843-.575-9.967-.414a4.281,4.281,0,0,1-4.016-5.151l4.647-22.363a8.489,8.489,0,0,1,7.514-7.125l11.372-1.171,3.68,1.051c3.592,1.927,3.6,5.422,3.767,7.71C412.616,978.894,411.687,984.961,410.208,990.884Z" transform="translate(-380.791 -960.117)"/><path class="q" d="M441.486,1095.641c-.144.578,9.091,1.872,8.937,2.453l-1.051,4.293-13.843-.575c-4.836-3.648-6.648-11.586-8.411-21.532Z" transform="translate(-421.453 -1065.59)"/><path class="l" d="M521.387,1013.027a8.33,8.33,0,0,0,2.069,1.64,6.84,6.84,0,0,0,2.472.835,4.159,4.159,0,0,0,2.515-.37,2.586,2.586,0,0,0,1.351-2.065l.137.009a2.827,2.827,0,0,1-.348,1.334,2.658,2.658,0,0,1-.989.989,4.324,4.324,0,0,1-2.71.447,6.743,6.743,0,0,1-2.576-.923,7.277,7.277,0,0,1-2.025-1.808Z" transform="translate(-504.106 -1006.558)"/><path class="l" d="M630.118,1031.9l-.262-.018A60.184,60.184,0,0,0,629.1,1019l.26-.039A60.432,60.432,0,0,1,630.118,1031.9Z" transform="translate(-598.74 -1011.766)"/></g><g transform="translate(41.878 32.137)"><rect class="l" width="13.025" height="2.57" transform="translate(0 20.443)"/><path class="b" d="M826.407,1082.264H800.24l12.032-23.013H838.44Z" transform="translate(-790.836 -1059.25)"/></g><g transform="translate(5.807)"><path class="l" d="M442.645,798.011c-3.066-3.023-8.849-1.752-8.761,3.329-6.308,1.665-6.659,8.586-4.118,12.135l2.19.175.482-2.585,1.271,2.629,6.133.394Z" transform="translate(-428.289 -796.393)"/><path class="n" d="M523.454,902.07v9.655c0,.088,0,.172-.011.256a3.241,3.241,0,0,1-4.041,2.884,6.518,6.518,0,0,1-4.889-6.364l.049-6.431Z" transform="translate(-503.972 -889.15)"/><path class="l" d="M542.352,929.518V935c0,.088,0,.172-.01.256-2.583-.424-5.569-3.414-6.3-6.669Z" transform="translate(-522.87 -912.424)"/><path class="n" d="M528.078,846.476a17.423,17.423,0,0,1-.55,2.3c-.771,2.45-2.155,4.482-4.633,4.129-5.825-.834-9.066-6.834-9.066-6.834l3.985-4.556,2.674-3.6,8.015,3.462A30.152,30.152,0,0,1,528.078,846.476Z" transform="translate(-503.371 -832.841)"/><path class="l" d="M499.436,813.466c2.556-.082,4.534-1.384,5.374-5.082,0,0,5.958,5.14,8.878,2.395,2.446-2.3-1.7-7.588-8.571-8.218a9.73,9.73,0,0,0-6.956,2.122c-3.328,2.667-3.646,8.87-.536,11.017Z" transform="translate(-487.255 -801.772)"/><path class="i" d="M502.895,808.815a2.731,2.731,0,0,1,.227-1.849,4.108,4.108,0,0,1,1.2-1.477,4.224,4.224,0,0,1,1.717-.8,3.1,3.1,0,0,1,1.85.142,10.236,10.236,0,0,0-1.584.641,8.609,8.609,0,0,0-1.339.851,7.743,7.743,0,0,0-1.146,1.084A6.423,6.423,0,0,0,502.895,808.815Z" transform="translate(-493.707 -803.605)"/><g transform="translate(8.669 9.126)"><ellipse class="n" cx="1.993" cy="2.408" rx="1.993" ry="2.408" transform="translate(0 1.481) rotate(-21.816)"/><path class="l" d="M516.573,889.4a2.852,2.852,0,0,0-.078-1.2,3.273,3.273,0,0,0-.63-1.032l.086-.107a1.748,1.748,0,0,1,.753,2.38Z" transform="translate(-513.827 -885.104)"/></g><g transform="translate(15.89 10.045)"><path class="l" d="M591.453,890.934a.595.595,0,1,1-.592-.655A.626.626,0,0,1,591.453,890.934Z" transform="translate(-586.355 -888.845)"/><path class="l" d="M617.827,895.213a.53.53,0,1,1-.452-.643A.557.557,0,0,1,617.827,895.213Z" transform="translate(-609.622 -892.608)"/><path class="l" d="M582.382,879c.024.306-.466.335-1.187.357s-1.22.244-1.226.051.528-.691,1.24-.811C581.942,878.47,582.353,878.633,582.382,879Z" transform="translate(-577.314 -878.553)"/><path class="l" d="M618.521,881.892c-.053.3.307.379.84.473s.877.365.9.173a1.3,1.3,0,0,0-.827-.929C618.908,881.412,618.584,881.533,618.521,881.892Z" transform="translate(-611.149 -881.153)"/><path class="l" d="M610.679,904.311a5.154,5.154,0,0,0,.445.461l.236.22a1.333,1.333,0,0,1,.249.279.5.5,0,0,1,.075.233.461.461,0,0,1-.058.248.867.867,0,0,1-.283.286,1.771,1.771,0,0,1-.655.237l-.051-.127a4.826,4.826,0,0,0,.523-.357.676.676,0,0,0,.163-.2c.027-.059.019-.078-.013-.146-.078-.128-.276-.3-.406-.475a1.987,1.987,0,0,1-.344-.6Z" transform="translate(-604.165 -901.162)"/><path class="l" d="M586.448,921.954a4.391,4.391,0,0,0,1.179,1.026,2.473,2.473,0,0,0,1.49.259l.036.132a1.844,1.844,0,0,1-.847.16,1.94,1.94,0,0,1-.845-.244,2.71,2.71,0,0,1-1.129-1.259Z" transform="translate(-582.901 -916.648)"/><ellipse class="r" cx="1.446" cy="1.446" rx="1.446" ry="1.446" transform="translate(0 2.042)"/><path class="r" d="M623.838,907.918a17.391,17.391,0,0,1-.55,2.3,1.445,1.445,0,0,1,.55-2.3Z" transform="translate(-615.021 -904.328)"/></g></g><g transform="translate(5.664 28.285)"><g transform="translate(0 2.45)"><path class="i" d="M435.469,1047.784l-8.353,3.972,2.62,6.21,8.758-4.039Z" transform="translate(-427.117 -1047.784)"/><path class="m" d="M745.8,1221.361c-.232-.116-.377-.194-.377-.194l.084-.165s.154.074.378.194Z" transform="translate(-706.504 -1199.825)"/><path class="n" d="M488.668,1114.282c-.27.533-2.338-.41-3.3-.883.746.413,2.033,1.226,1.461,1.672-.459.354-1.476-.4-4.8-1.781.5.239,3.48,1.654,2.73,2.19-.817.582-4.321-.7-4.321-.7l-3.038,1.633h-3.5l-12.609.081a9.167,9.167,0,0,1-2.338-.294,10.486,10.486,0,0,1-4.1-2.124,10.285,10.285,0,0,1-1.945-2.184,11.654,11.654,0,0,1-1.041-1.948l-3.326-7.878,8.758-4.041,4.57,9.276,15.07,3.273,4.206-1.051a4.422,4.422,0,0,1,2.979.641C486.053,1111.352,488.92,1113.774,488.668,1114.282Z" transform="translate(-445.912 -1091.882)"/></g><path class="r" d="M490.519,1208.341a3.816,3.816,0,0,1-.228,1.3,10.481,10.481,0,0,1-4.1-2.124,10.288,10.288,0,0,1-1.945-2.183,3.856,3.856,0,0,1,6.273,3Z" transform="translate(-477.262 -1182.878)"/><path class="o" d="M680.626,1192.121a28.626,28.626,0,0,1,3.184-.873,11.37,11.37,0,0,1,1.645-.235,5,5,0,0,1,.846.022c.141.028.281.065.422.1s.264.1.4.152a13.578,13.578,0,0,1,2.782,1.813c.864.688,1.679,1.427,2.471,2.2l.036.036.008.045a.664.664,0,0,1-.083.474.569.569,0,0,1-.191.168.546.546,0,0,1-.219.077,1.811,1.811,0,0,1-.787-.077,7.793,7.793,0,0,1-1.36-.571c-.429-.229-.852-.468-1.262-.725s-.813-.523-1.219-.786l.185-.3a21.7,21.7,0,0,1,2.081,1.378,5.568,5.568,0,0,1,.94.864,1.236,1.236,0,0,1,.183.309.566.566,0,0,1,.042.213.412.412,0,0,1-.09.24.64.64,0,0,1-.356.2,2.063,2.063,0,0,1-.337.048l-.034,0-.037-.016-3.8-1.593.114-.267a13.243,13.243,0,0,1,1.739.938,2.362,2.362,0,0,1,.756.7.41.41,0,0,1,.031.335.452.452,0,0,1-.226.232,1.257,1.257,0,0,1-.523.117,7.383,7.383,0,0,1-1.958-.3c-.634-.168-1.256-.365-1.872-.588l.046-.129c.614.206,1.24.387,1.87.538a7.237,7.237,0,0,0,1.9.249c.3-.012.653-.143.509-.339a2.215,2.215,0,0,0-.678-.6,12.96,12.96,0,0,0-1.711-.893l.114-.267,3.818,1.56-.072-.012a1.735,1.735,0,0,0,.274-.04.346.346,0,0,0,.179-.086c.054-.021-.018-.21-.138-.351a5.314,5.314,0,0,0-.884-.8,21.463,21.463,0,0,0-2.05-1.344l.185-.3c.4.258.794.537,1.2.781s.818.492,1.237.718a7.511,7.511,0,0,0,1.293.551,1.527,1.527,0,0,0,.633.074l.068-.012a.406.406,0,0,0,.052-.026c.041-.012.053-.044.08-.064a.354.354,0,0,0,.038-.221l.044.081c-.775-.765-1.591-1.5-2.433-2.192a13.362,13.362,0,0,0-2.7-1.808l-.37-.147c-.127-.031-.251-.066-.379-.094a4.791,4.791,0,0,0-.8-.03,11.54,11.54,0,0,0-1.616.2,28.421,28.421,0,0,0-3.181.8Z" transform="translate(-649.632 -1171.046)"/><path class="l" d="M448.189,1040.5l-.11-.239,8.642-3.987-3.6-8.423.242-.1,3.7,8.658Z" transform="translate(-445.516 -1027.744)"/></g></g><g transform="translate(0 74.25)"><rect class="l" width="0.458" height="39.485" transform="translate(13.526 3.68)"/><rect class="f" width="27.511" height="5.432" rx="2.716"/><path class="f" d="M4.533,0h9.509a4.533,4.533,0,0,1,4.533,4.533v0a0,0,0,0,1,0,0H0a0,0,0,0,1,0,0v0A4.533,4.533,0,0,1,4.533,0Z" transform="translate(4.468 41.202)"/></g><g transform="translate(25.554 55.15)"><g transform="translate(14.518 2.412)"><rect class="l" width="0.459" height="73.344" transform="translate(0.008 0.245) rotate(-32.247)"/><rect class="l" width="73.344" height="0.459" transform="translate(0 62.026) rotate(-57.738)"/></g><rect class="f" width="68.573" height="5.171"/></g></g><g transform="translate(35.94 5.249)"><path class="b" d="M497.854,367.343a14.33,14.33,0,1,1,14.33-14.331A14.347,14.347,0,0,1,497.854,367.343Zm0-28.355a14.025,14.025,0,1,0,14.025,14.025A14.041,14.041,0,0,0,497.854,338.988Z" transform="translate(-483.524 -331.805)"/><g transform="translate(8.429 0)"><ellipse class="c" cx="15.592" cy="15.592" rx="15.592" ry="15.592"/><path class="l" d="M617.987,361.143l-8.644-6.777.283-.361,8.35,6.546,4.656-3.942.3.35Z" transform="translate(-602.39 -345.255)"/></g></g><g transform="translate(9.121 54.314)"><g transform="translate(0 0)"><path class="e" d="M275.642,685h-7.918a2.307,2.307,0,0,0-2.307,2.307v7.918a2.307,2.307,0,0,0,2.307,2.307h5.65l2.435,3.362v-3.371a2.306,2.306,0,0,0,2.14-2.3v-7.918A2.307,2.307,0,0,0,275.642,685Z" transform="translate(-265.264 -684.847)"/><path class="b" d="M274.864,700.268l-2.665-3.681h-5.572a2.463,2.463,0,0,1-2.46-2.46V686.21a2.462,2.462,0,0,1,2.46-2.46h7.918a2.462,2.462,0,0,1,2.46,2.46v7.917a2.468,2.468,0,0,1-2.14,2.437Zm-8.238-16.212a2.156,2.156,0,0,0-2.154,2.154v7.917a2.157,2.157,0,0,0,2.154,2.154h5.729l2.2,3.044v-3.042l.142-.01a2.16,2.16,0,0,0,2-2.146V686.21a2.156,2.156,0,0,0-2.154-2.154Z" transform="translate(-264.166 -683.75)"/></g><path class="b" d="M292.586,712.021l-3.169-4.578.754-.522,2.332,3.369L296.016,704l.8.447Z" transform="translate(-286.329 -701.528)"/></g><rect class="l" width="187.844" height="0.458" transform="translate(6.167 187.612)"/></svg>