<svg xmlns="http://www.w3.org/2000/svg" xmlns:xlink="http://www.w3.org/1999/xlink" width="357.818" height="264.621" viewBox="0 0 357.818 264.621"><defs><style>.a,.e,.i{fill:#b2bfeb;}.a{clip-rule:evenodd;}.b{fill:#6d7bed;}.c,.f{fill:#2d2e85;}.c,.g,.h,.i,.l{fill-rule:evenodd;}.d,.g{fill:#fff;}.h{fill:#ff6482;}.j,.l{fill:#e2e8f0;}.k{clip-path:url(#a);}</style><clipPath id="a"><path class="a" d="M778.855,1248.216v-20.5h58.786v-20.5h58.786v-20.5h58.786v61.493Z" transform="translate(-778.855 -1186.723)"/></clipPath></defs><g transform="translate(0)"><g transform="translate(287.362 159.233)"><circle class="b" cx="28.326" cy="28.326" r="28.326" transform="translate(0.654 0.653)"/><path class="c" d="M1476.129,1071.47a27.676,27.676,0,0,1,53.6-9.684.653.653,0,0,0,1.224-.458,28.982,28.982,0,0,0-56.131,10.142.653.653,0,1,0,1.306,0Z" transform="translate(-1474.823 -1042.491)"/><path class="c" d="M1578.343,1171.815a27.7,27.7,0,0,1-33.05,16.622.653.653,0,0,0-.343,1.261,29.011,29.011,0,0,0,34.609-17.405.653.653,0,0,0-1.216-.477Z" transform="translate(-1523.589 -1132.752)"/><circle class="d" cx="23.153" cy="23.153" r="23.153" transform="translate(5.826 5.826)"/><circle class="e" cx="17.98" cy="17.98" r="17.98" transform="translate(3.552 28.98) rotate(-45)"/><circle class="d" cx="12.807" cy="12.807" r="12.807" transform="translate(16.172 16.173)"/><path class="b" d="M1546.02,1121.325a7.633,7.633,0,1,0,7.634-7.633A7.633,7.633,0,0,0,1546.02,1121.325Z" transform="translate(-1524.675 -1092.345)"/><path class="d" d="M1563.275,1133.4a2.461,2.461,0,1,0,2.461-2.462A2.461,2.461,0,0,0,1563.275,1133.4Z" transform="translate(-1536.756 -1104.422)"/><rect class="f" width="37.195" height="1.628" transform="translate(28.978 28.232)"/><path class="e" d="M1669.387,1123.5l3.406-4.547c.447-.6.2-1.088-.544-1.088h-8.484a3.063,3.063,0,0,0-2.171,1.088l-3.406,4.547Z" transform="translate(-1603.214 -1095.271)"/><path class="c" d="M1670.773,1117l-.047,0h-8.484a2.327,2.327,0,0,0-1.647.825l-3.406,4.548a.653.653,0,1,1-1.045-.783l3.405-4.546a3.8,3.8,0,0,1,2.694-1.349h8.484a1.255,1.255,0,0,1,1.067,2.132.653.653,0,1,1-1.046-.783.409.409,0,0,0,.027-.04Z" transform="translate(-1601.689 -1093.744)"/><path class="e" d="M1669.387,1142.09l3.406,4.547c.447.6.2,1.087-.544,1.087h-8.484a3.063,3.063,0,0,1-2.171-1.087l-3.406-4.547Z" transform="translate(-1603.214 -1112.229)"/><path class="c" d="M1678.724,1145.543a.356.356,0,0,0-.026-.04l-3.405-4.547a.653.653,0,1,1,1.045-.783l3.406,4.547a1.255,1.255,0,0,1-1.067,2.132h-8.484a3.8,3.8,0,0,1-2.694-1.349.653.653,0,0,1,1.047-.782,2.323,2.323,0,0,0,1.647.825h8.484l.047,0Z" transform="translate(-1609.642 -1110.704)"/></g><g transform="translate(10.232 133.942)"><path class="e" d="M552.51,999.125a59.324,59.324,0,0,1,104.583-13.049l-.026-.04a59.047,59.047,0,0,1,6.777,13.089,59.089,59.089,0,0,1-6.777,13.087l.026-.038A59.325,59.325,0,0,1,552.51,999.125Z" transform="translate(-551.897 -959.66)"/><path class="d" d="M648.5,961.675a38.4,38.4,0,1,0,38.4,38.4,38.4,38.4,0,0,0-38.4-38.4Z" transform="translate(-592.214 -960.614)"/><path class="b" d="M679.148,1056.01a25.28,25.28,0,1,1,25.278-25.279,25.309,25.309,0,0,1-25.278,25.279Z" transform="translate(-622.866 -991.265)"/><path class="e" d="M693.322,1064.114a19.211,19.211,0,1,1,19.209-19.21A19.232,19.232,0,0,1,693.322,1064.114Zm0-30.33a11.119,11.119,0,1,0,11.118,11.12,11.132,11.132,0,0,0-11.118-11.12Z" transform="translate(-637.04 -1005.438)"/><path class="d" d="M666.627,1026.912a9.475,9.475,0,1,0-3.19,3.747,3.1,3.1,0,1,0,3.19-3.747Z" transform="translate(-619.195 -996.844)"/><path class="c" d="M551.777,997.6a58.683,58.683,0,0,0,86.532,28.951.653.653,0,0,1,.7,1.1,59.99,59.99,0,0,1-88.546-29.826v-.451A59.977,59.977,0,0,1,656.15,984.106l.025.034a59.7,59.7,0,0,1,6.852,13.234.652.652,0,0,1,0,.451,59.741,59.741,0,0,1-6.852,13.232.653.653,0,0,1-1.076-.741,58.422,58.422,0,0,0,6.619-12.717,58.36,58.36,0,0,0-6.573-12.652l-.02-.028A58.671,58.671,0,0,0,551.777,997.6Z" transform="translate(-550.467 -958.134)"/></g><g transform="translate(153.095 0)"><g transform="translate(0 207.557)"><path class="g" d="M1030.467,1205.855l-1.307,14.762h27.434s-.035-.662-.069-1.3a2.194,2.194,0,0,0-1.082-1.777l-11.913-6.979.13-4.572Z" transform="translate(-1028.507 -1205.202)"/><path class="c" d="M1042.67,1208.664l11.579,6.784a2.845,2.845,0,0,1,1.4,2.307c.034.64.069,1.3.069,1.3a.653.653,0,0,1-.652.688h-27.433a.653.653,0,0,1-.651-.711l1.306-14.762a.654.654,0,0,1,.657-.6l13.194.131a.653.653,0,0,1,.646.672l-.12,4.186Zm-1.205-3.558-11.925-.118-1.19,13.449h26.032l-.032-.615a1.541,1.541,0,0,0-.76-1.248l-11.914-6.979a.653.653,0,0,1-.322-.582l.111-3.907Z" transform="translate(-1026.983 -1203.676)"/><path class="c" d="M1069.381,1219.571l-2.443,2.652a.653.653,0,0,0,.961.885l2.443-2.653a.653.653,0,1,0-.961-.885Z" transform="translate(-1054.838 -1214.658)"/><path class="c" d="M1082.452,1227.328l-2.444,2.652a.653.653,0,1,0,.961.885l2.444-2.652a.653.653,0,0,0-.961-.885Z" transform="translate(-1063.99 -1220.089)"/></g><g transform="translate(57.878 187.059)"><path class="g" d="M1222.212,1137.486l2.613,14.762H1250.3s-.029-.554-.06-1.139a2.554,2.554,0,0,0-1.219-2.045l-11.262-6.875-1.437-4.572Z" transform="translate(-1221.558 -1136.832)"/><path class="c" d="M1236.779,1140.231l11.053,6.748a3.206,3.206,0,0,1,1.531,2.568c.031.585.06,1.138.06,1.138a.654.654,0,0,1-.653.687H1223.3a.653.653,0,0,1-.643-.539l-2.612-14.762a.653.653,0,0,1,.649-.767l14.109.131a.653.653,0,0,1,.617.457l1.364,4.338Zm-2.468-3.494-12.848-.119,2.38,13.448h24.238l-.024-.451a1.9,1.9,0,0,0-.907-1.522l-11.262-6.876a.653.653,0,0,1-.283-.362l-1.295-4.119Z" transform="translate(-1220.031 -1135.305)"/><path class="c" d="M1266.075,1153.383l-2.443,2.652a.653.653,0,1,0,.961.885l2.443-2.652a.653.653,0,1,0-.961-.885Z" transform="translate(-1250.439 -1147.816)"/><path class="c" d="M1279.146,1161.14l-2.444,2.653a.653.653,0,0,0,.961.885l2.443-2.653a.653.653,0,0,0-.961-.885Z" transform="translate(-1259.591 -1153.247)"/></g><g transform="translate(0.653 98.852)"><path class="c" d="M1036.552,847.264l23.264-3.989,3.368,21.5-15.951,87.2h-15.894l5.213-104.716Z" transform="translate(-1030.686 -842.621)"/><path class="c" d="M1034.916,845.093a.653.653,0,0,0-.542.611l-5.213,104.715a.653.653,0,0,0,.652.686h15.894a.653.653,0,0,0,.643-.536l15.95-87.2a.647.647,0,0,0,0-.219l-3.368-21.5a.653.653,0,0,0-.756-.543Zm.736,1.2L1030.5,949.8h14.663L1061,863.243l-3.248-20.74-22.1,3.789Z" transform="translate(-1029.16 -841.095)"/><path class="c" d="M1114.129,873.75l1.479-30.477h20.467l21.567,39.483,4.241,48.723h-16.33l-5.771-40.473-25.653-17.257Z" transform="translate(-1088.655 -842.62)"/><path class="c" d="M1137.65,889.861l-25.412-17.095a.654.654,0,0,1-.288-.574l1.479-30.476a.653.653,0,0,1,.652-.622h20.467a.653.653,0,0,1,.573.34l21.567,39.483a.66.66,0,0,1,.078.256l4.241,48.723a.653.653,0,0,1-.651.71h-16.33a.653.653,0,0,1-.646-.561l-5.73-40.186Zm6.943,39.44h15.05l-4.167-47.877L1134.16,842.4H1114.7l-1.431,29.487,25.347,17.051a.655.655,0,0,1,.282.45l5.692,39.912Z" transform="translate(-1087.129 -841.095)"/><path class="g" d="M1129.927,914.13l3.231-19.276a.653.653,0,1,0-1.288-.216l-3.23,19.276a.653.653,0,1,0,1.288.216Z" transform="translate(-1098.808 -878.203)"/></g><g transform="translate(15.458 0)"><path class="g" d="M1099.355,596.5s-.411,8.082-.7,13.778c-.073,1.43,14.858,3.3,14.219,1.85-1.536-3.485-1.108-10.4-1.108-10.4Z" transform="translate(-1092.625 -570.981)"/><path class="c" d="M1098.085,594.374a.653.653,0,0,0-.906.569s-.411,8.083-.7,13.778a.926.926,0,0,0,.253.675,3.048,3.048,0,0,0,1.162.675,43.834,43.834,0,0,0,12.256,1.687,3.555,3.555,0,0,0,1.393-.3.9.9,0,0,0,.453-.559.825.825,0,0,0-.049-.558c-1.491-3.382-1.054-10.1-1.054-10.1a.653.653,0,0,0-.4-.643l-12.41-5.225Zm11.484,6.253-11.133-4.687-.642,12.634a8.33,8.33,0,0,0,1.179.478,46.993,46.993,0,0,0,9.6,1.409,14.448,14.448,0,0,0,1.983-.1c-1.128-3.112-1.04-8.186-.983-9.739Z" transform="translate(-1091.1 -569.455)"/><path class="g" d="M1119.553,550.552s.31,7.189.582,13.475a7.838,7.838,0,0,1-8.768,8.12l-3.15-.379a7.838,7.838,0,0,1-6.655-5.83,31.957,31.957,0,0,1-1.115-9.017s-.035-3.961,5.389-5.879c5.68-2.008,7.675-4.605,13.717-.49Z" transform="translate(-1093.88 -537.277)"/><path class="c" d="M1142.877,554.158l.582,13.475a7.185,7.185,0,0,1-8.037,7.443.653.653,0,1,0-.156,1.3,8.491,8.491,0,0,0,9.5-8.8c-.272-6.286-.582-13.475-.582-13.475a.653.653,0,0,0-1.305.056Z" transform="translate(-1117.857 -540.855)"/><path class="c" d="M1085.075,540.77c-3.227-2.82-6.532-10.417-6.532-15.7,0-7.519,5.225-7.519,5.225-7.519s.287-6.635,7.185-6.152c6.242.437,13.28,4.259,18.14,4.242a1.23,1.23,0,0,1,1.343,1.439c-.877,3.817-5.541,8.351-9.031,8.674-3.989.37-9.946,1-11.1,4.785s.157,8.536-5.226,10.228Z" transform="translate(-1078.543 -511.377)"/><path class="g" d="M1104.564,573.534c-2.036-1.379-4.65-1.08-5.833.668s-.491,4.285,1.545,5.664,4.65,1.079,5.833-.668S1106.6,574.912,1104.564,573.534Z" transform="translate(-1092.274 -554.292)"/><path class="c" d="M1103.412,571.47a5.8,5.8,0,0,0-.84-.473,4.684,4.684,0,0,0-5.9,1.315c-1.369,2.022-.636,4.976,1.719,6.572a5.739,5.739,0,0,0,1.646.771.653.653,0,1,0,.358-1.256,4.448,4.448,0,0,1-1.271-.6c-1.717-1.163-2.368-3.284-1.37-4.757a3.383,3.383,0,0,1,4.274-.861,4.508,4.508,0,0,1,.652.367.653.653,0,0,0,.732-1.082Z" transform="translate(-1090.756 -552.769)"/><path class="g" d="M1107.2,579.529a4.911,4.911,0,0,1,2.83,3.266Z" transform="translate(-1098.606 -559.096)"/><path class="c" d="M1105.467,578.623a4.189,4.189,0,0,1,1.838,1.532,2.726,2.726,0,0,1,.549,1.18.653.653,0,0,0,1.3-.13,4.058,4.058,0,0,0-.786-1.809,5.575,5.575,0,0,0-2.489-2.011.653.653,0,0,0-.413,1.239Z" transform="translate(-1097.082 -557.571)"/></g><g transform="translate(3.049 10.31)"><path class="g" d="M1163.518,610.888l9.011,8.823,5.305-5.153a10.454,10.454,0,0,0,2.62-4.154c2.484-7.866,4.853-19.352,7.887-27.771l3.328-6.683a3.918,3.918,0,0,0,.366-2.339l-.908-5.942a1.307,1.307,0,0,0-1.978-.914l-6.477,4-1.874-.48a1.306,1.306,0,0,0-1.569,1.662l1.944,6.107-17.655,32.843Z" transform="translate(-1125.632 -560.325)"/><path class="c" d="M1181.039,568.532l6.24-3.857a1.96,1.96,0,0,1,2.968,1.371c.275,1.8.676,4.418.908,5.942a4.57,4.57,0,0,1-.427,2.729l-3.311,6.648c-3.025,8.409-5.388,19.864-7.87,27.724a11.106,11.106,0,0,1-2.784,4.413l-5.3,5.153a.653.653,0,0,1-.912,0l-9.011-8.823a.653.653,0,0,1-.119-.776l17.524-32.6-1.86-5.843a1.959,1.959,0,0,1,2.354-2.493l1.6.411Zm-10.033,48.744,4.848-4.71a9.785,9.785,0,0,0,2.452-3.882c2.487-7.873,4.859-19.369,7.9-27.8a.6.6,0,0,1,.03-.07l3.327-6.683a3.268,3.268,0,0,0,.305-1.949l-.909-5.942a.653.653,0,0,0-.989-.457l-6.477,4a.654.654,0,0,1-.505.077l-1.874-.48a.653.653,0,0,0-.785.831l1.944,6.107a.653.653,0,0,1-.047.508l-17.422,32.41,8.205,8.034Z" transform="translate(-1124.107 -558.801)"/><path class="h" d="M1041.287,725.969l40.334-3.266,4.246,40.007L1039.327,765l1.96-39.027Z" transform="translate(-1038.675 -669.656)"/><path class="c" d="M1083.621,760.566l-4.172-39.32a.653.653,0,1,1,1.3-.138l4.246,40.007a.653.653,0,0,1-.618.721l-46.539,2.286a.653.653,0,0,1-.684-.685l1.959-39.027a.653.653,0,0,1,1.305.065l-1.923,38.307,45.128-2.217Z" transform="translate(-1037.151 -668.13)"/><path class="i" d="M1177.184,557.876l59.086-4.377v14.959l-59.086-4.377Z" transform="translate(-1135.201 -551.181)"/><path class="c" d="M1175.611,555.7a.653.653,0,0,0-.605.651v6.206a.653.653,0,0,0,.605.651l59.086,4.377a.653.653,0,0,0,.7-.651V551.974a.653.653,0,0,0-.7-.651Zm.7,1.258v4.992l57.779,4.28V552.677l-57.779,4.28Z" transform="translate(-1133.676 -549.656)"/><rect class="j" width="3.593" height="8.165" transform="translate(40.024 5.716)"/><path class="c" d="M1173.371,563.306a.653.653,0,0,0-.653-.653h-3.592a.653.653,0,0,0-.653.653v8.165a.653.653,0,0,0,.653.653h3.592a.653.653,0,0,0,.653-.653Zm-3.593.653v6.859h2.286v-6.859Z" transform="translate(-1129.101 -557.59)"/><rect class="j" width="3.593" height="12.737" transform="translate(60.163 3.429)"/><path class="c" d="M1240.544,555.678a.653.653,0,0,0-.653-.653H1236.3a.653.653,0,0,0-.653.653v12.737a.653.653,0,0,0,.653.653h3.593a.653.653,0,0,0,.653-.653Zm-3.592.653v11.431h2.286V556.332Z" transform="translate(-1176.135 -552.249)"/><rect class="j" width="3.593" height="15.676" transform="translate(80.303 1.96)"/><path class="c" d="M1307.72,550.776a.653.653,0,0,0-.653-.653h-3.592a.653.653,0,0,0-.653.653v15.676a.653.653,0,0,0,.653.653h3.592a.653.653,0,0,0,.653-.653Zm-3.593.653V565.8h2.286V551.43Z" transform="translate(-1223.171 -548.817)"/><rect class="j" width="3.593" height="18.289" transform="translate(100.442 0.653)"/><path class="c" d="M1374.9,546.419a.653.653,0,0,0-.653-.653h-3.592a.653.653,0,0,0-.653.653v18.289a.653.653,0,0,0,.653.653h3.592a.653.653,0,0,0,.653-.653Zm-3.592.653v16.983h2.286V547.072H1371.3Z" transform="translate(-1270.207 -545.766)"/><path class="g" d="M1229.731,611.956a10.45,10.45,0,0,1-9.286,5.356l-5.413-.083,4.01-14.5,18.854-23.924s.662-4.1,1.027-6.359a2.613,2.613,0,0,1,1.6-2.007l10.7-4.3a1.306,1.306,0,0,1,1.674,1.759l-6.72,14.586Z" transform="translate(-1161.703 -559.965)"/><path class="c" d="M1235.755,577.013l1-6.192a3.266,3.266,0,0,1,2.005-2.509l10.7-4.3a1.959,1.959,0,0,1,2.511,2.638l-6.72,14.586c-.007.015-.015.03-.023.045l-16.45,29.472a11.1,11.1,0,0,1-9.866,5.691l-5.413-.083a.654.654,0,0,1-.619-.828l4.01-14.5a.657.657,0,0,1,.116-.23l18.749-23.79Zm8.321,3.651,6.709-14.563a.653.653,0,0,0-.837-.879l-10.7,4.3a1.96,1.96,0,0,0-1.2,1.505l-1.027,6.359a.652.652,0,0,1-.132.3l-18.772,23.82-3.75,13.556,4.568.07a9.8,9.8,0,0,0,8.705-5.021l16.438-29.45Z" transform="translate(-1160.178 -558.441)"/><path class="h" d="M1045.863,664.95a61.849,61.849,0,0,1,1.306-10.451c2.955-13.607,15.023-18.942,15.023-18.942l14.37,3.919c9.363,5.008,23.918,11.847,23.918,11.847l-4.405,17.551-30.616-3.271Z" transform="translate(-1043.251 -608.637)"/><path class="c" d="M1060.73,634.725c-1.573.763-11.787,6.146-14.445,18.387a61.215,61.215,0,0,0-1.292,10.34.653.653,0,1,1-1.305-.056,62.5,62.5,0,0,1,1.32-10.561c3.027-13.941,15.4-19.4,15.4-19.4a.653.653,0,0,1,.436-.033l14.37,3.919.136.054c9.35,5,23.887,11.832,23.887,11.832a.653.653,0,0,1,.356.75l-4.406,17.551a.653.653,0,0,1-.7.491l-22.359-2.389a.653.653,0,0,1,.139-1.3l21.794,2.329,4.136-16.48c-2.6-1.228-15.037-7.13-23.4-11.6l-14.067-3.836Z" transform="translate(-1041.727 -607.112)"/></g></g><g transform="translate(78.704 202.475)"><path class="i" d="M778.855,1248.216v-20.5h58.786v-20.5h58.786v-20.5h58.786v61.493Z" transform="translate(-778.855 -1186.723)"/><g class="k" transform="translate(0 0)"><g transform="translate(-7.87 -35.633)"><path class="l" d="M788.8,1134.3c-.022.1-.075.325-.106.411-2.212,6.083-2.559,11.961-6.692,17.353-3.731,4.866-8.779,7.608-13.643,10.559-4.7,2.849-9.217,5.9-12.062,11.452-3.794,7.407-3.19,17.034,2.374,21.39,2.354,1.843,5.6,2.709,9.747,2.063,14.788-2.3,22.571-11.392,29.057-21.914,6.619-10.736,11.913-22.947,21.632-31.237,7.3-6.226,15.905-9.351,24.207-13,8.142-3.576,15.99-7.661,21.933-15.857,6.887-9.5,8.051-20.531,11.261-29.512,1.654-4.629,3.841-8.724,7.535-11.841s8.879-5.258,16.588-5.943c4.14-.368,9.139-.872,13.015,1.01,4.743,2.3,6.254,6.8,6.015,11.877-.344,7.318-4.36,15.864-6.979,20.3s-6.314,7.946-10.047,11.456c-3.645,3.429-7.323,6.849-9.979,11.155-2.688,4.356-3.5,9.144-4.187,13.975-.709,4.983-1.285,10.012-3.485,14.7-2.387,5.085-6.007,8.94-9.911,12.549-3.824,3.536-7.921,6.835-11.344,10.881-2.754,3.254-3.866,7.24-2.737,10.58a9,9,0,0,0,5.3,5.315c6.151,2.636,12.3,1.791,17.974-.706,5.774-2.539,11.067-6.782,15.416-10.893,7.15-6.76,12.236-13.947,17.589-20.135,8.165-9.44,16.941-16.589,34.3-16.589a.653.653,0,0,1,0,1.306c-16.862,0-25.377,6.966-33.31,16.137-5.379,6.219-10.495,13.437-17.68,20.23-4.451,4.209-9.877,8.541-15.787,11.14-6.006,2.641-12.508,3.5-19.015.711a10.259,10.259,0,0,1-6.027-6.1c-1.262-3.732-.1-8.206,2.977-11.842,3.458-4.087,7.593-7.425,11.455-11,3.782-3.5,7.3-7.219,9.615-12.146,2.144-4.567,2.684-9.472,3.374-14.328.712-5.007,1.582-9.962,4.368-14.478,2.718-4.4,6.467-7.913,10.2-11.421,3.642-3.426,7.265-6.85,9.817-11.169s6.466-12.591,6.8-19.694c.213-4.534-1.05-8.585-5.281-10.64-3.67-1.783-8.408-1.232-12.328-.884-7.365.655-12.34,2.668-15.861,5.64s-5.573,6.878-7.147,11.282c-3.247,9.086-4.466,20.229-11.433,29.839-6.092,8.4-14.118,12.62-22.465,16.287-8.187,3.6-16.686,6.655-23.885,12.8-9.616,8.2-14.819,20.307-21.368,30.929-6.681,10.838-14.737,20.149-29.968,22.519-4.584.713-8.155-.291-10.753-2.325-5.991-4.691-6.816-15.038-2.731-23.014,2.967-5.793,7.651-9,12.547-11.973,4.728-2.868,9.657-5.507,13.283-10.237,4.046-5.277,4.336-11.05,6.5-17,.049-.136.077-.382.155-.553a.936.936,0,0,1,.428-.462.653.653,0,0,1,.751,1.049Z" transform="translate(-752.606 -1067.872)"/></g></g></g><path class="c" d="M894.247,1205.042V1185.2a.653.653,0,0,1,.653-.653h58.786a.653.653,0,0,1,.653.653v61.493a.653.653,0,0,1-.653.653H777.328a.653.653,0,0,1-.653-.653v-20.5a.653.653,0,0,1,.653-.653h58.133v-19.844a.653.653,0,0,1,.653-.653Zm-116.266,21.8v19.191H953.033V1185.85h-57.48v19.845a.654.654,0,0,1-.653.653H836.767v19.844a.654.654,0,0,1-.653.653Z" transform="translate(-698.624 -982.723)"/><path class="c" d="M911.185,1389.651H682.573a.653.653,0,0,0,0,1.307H911.185a.653.653,0,1,0,0-1.307Z" transform="translate(-632.277 -1126.337)"/><g transform="translate(310.515 35.076)"><circle class="e" cx="13.344" cy="13.344" r="13.344" transform="translate(3.461 13.673) rotate(-22.5)"/><path class="c" d="M1596.369,654.722a12.69,12.69,0,0,1,19.592,10.649.653.653,0,0,0,1.306,0,14,14,0,0,0-21.61-11.745.653.653,0,0,0,.712,1.1Z" transform="translate(-1582.376 -644.477)"/><path class="c" d="M1619.565,629.023v3.154a.653.653,0,1,0,1.306,0v-3.154a.653.653,0,1,0-1.306,0Z" transform="translate(-1599.324 -628.37)"/><path class="c" d="M1649.729,637.739l-1.577,2.731a.653.653,0,0,0,1.132.653l1.577-2.731a.653.653,0,0,0-1.131-.653Z" transform="translate(-1619.278 -634.702)"/><path class="c" d="M1671.984,662.212l-2.731,1.577a.653.653,0,1,0,.653,1.131l2.731-1.577a.653.653,0,1,0-.653-1.131Z" transform="translate(-1633.886 -652.004)"/><path class="c" d="M1680.368,695.882h-3.154a.653.653,0,0,0,0,1.307h3.154a.653.653,0,1,0,0-1.307Z" transform="translate(-1639.232 -675.641)"/><path class="c" d="M1672.635,726.046l-2.731-1.577a.653.653,0,1,0-.653,1.131l2.731,1.577a.653.653,0,0,0,.653-1.131Z" transform="translate(-1633.884 -695.597)"/><path class="c" d="M1650.859,748.3l-1.577-2.731a.653.653,0,0,0-1.131.653l1.577,2.731a.653.653,0,1,0,1.131-.653Z" transform="translate(-1619.278 -710.201)"/><path class="c" d="M1619.565,753.529v3.154a.653.653,0,1,0,1.306,0v-3.154a.653.653,0,1,0-1.306,0Z" transform="translate(-1599.324 -715.548)"/><path class="c" d="M1587.474,745.567,1585.9,748.3a.653.653,0,1,0,1.132.653l1.577-2.731a.653.653,0,1,0-1.131-.653Z" transform="translate(-1575.688 -710.201)"/><path class="c" d="M1564.157,724.466l-2.732,1.577a.653.653,0,0,0,.653,1.131l2.731-1.577a.653.653,0,1,0-.653-1.131Z" transform="translate(-1558.386 -695.594)"/><path class="c" d="M1555.858,695.882H1552.7a.653.653,0,0,0,0,1.307h3.154a.653.653,0,0,0,0-1.307Z" transform="translate(-1552.051 -675.641)"/><path class="c" d="M1564.808,663.791l-2.731-1.577a.653.653,0,0,0-.653,1.131l2.731,1.577a.653.653,0,0,0,.653-1.132Z" transform="translate(-1558.385 -652.007)"/><path class="c" d="M1588.6,640.471l-1.577-2.731a.653.653,0,0,0-1.131.653l1.577,2.731a.653.653,0,0,0,1.131-.653Z" transform="translate(-1575.688 -634.702)"/><path class="c" d="M1598.8,704.665a12.689,12.689,0,0,1-22.432-8.129.653.653,0,0,0-1.307,0A14,14,0,0,0,1599.8,705.5a.653.653,0,0,0-1-.838Z" transform="translate(-1568.161 -675.641)"/></g><path class="d" d="M763.479,544.155a26.922,26.922,0,0,0-52.8,2.586c-.513-.025-1.024-.048-1.539-.048-9.791,0-18.071,5.768-20.84,15.382h91.333C779.628,552.462,772.451,544.439,763.479,544.155Z" transform="translate(-636.741 -519.951)"/><path class="c" d="M708.592,544.537A27.575,27.575,0,0,1,762.468,542c9.079.565,16.288,8.751,16.288,18.549a.653.653,0,0,1-.653.653H686.771a.653.653,0,0,1-.628-.834c2.853-9.905,11.38-15.854,21.468-15.854.328,0,.655.009.982.022Zm68.846,15.36c-.314-8.96-7.075-16.347-15.505-16.614a.653.653,0,0,1-.614-.5,26.268,26.268,0,0,0-51.523,2.523.653.653,0,0,1-.678.561c-.5-.024-1-.047-1.507-.047-9.207,0-17.041,5.255-19.955,14.075Z" transform="translate(-635.216 -518.425)"/><path class="d" d="M1397.888,863.883a18.663,18.663,0,0,1,17.923-14.309,18.345,18.345,0,0,1,18.269,15.73c.355-.018.708.379,1.056.379,6.713,0,12.389,2.763,14.285,10.953h-62.6C1386.82,868.446,1391.738,864.078,1397.888,863.883Z" transform="translate(-1125.842 -748.18)"/><path class="c" d="M1395.853,861.728a19.31,19.31,0,0,1,18.436-14.334,19,19,0,0,1,18.85,15.86q.074.032.146.07c.111.058.319.163.351.18a16.2,16.2,0,0,1,9.3,2.52c2.612,1.795,4.61,4.651,5.6,8.938a.653.653,0,0,1-.636.8h-62.6a.653.653,0,0,1-.653-.653c0-4.292,1.309-7.577,3.4-9.82a11.531,11.531,0,0,1,7.805-3.561Zm36.711,2.7a.653.653,0,0,1-.652-.562,17.694,17.694,0,0,0-17.623-15.168A18.006,18.006,0,0,0,1397,862.511a.654.654,0,0,1-.614.5c-5.653.179-10.171,4.116-10.424,11.446h61.1a12.549,12.549,0,0,0-4.867-7.356,14.925,14.925,0,0,0-8.579-2.29,1.581,1.581,0,0,1-.728-.216C1432.785,864.539,1432.6,864.446,1432.564,864.43Z" transform="translate(-1124.319 -746.653)"/><path class="d" d="M529.586,781.1a18.663,18.663,0,0,1,17.924-14.309,18.345,18.345,0,0,1,18.269,15.73c.355-.019.708.379,1.056.379,6.713,0,12.389,2.763,14.285,10.952h-62.6C518.518,785.659,523.436,781.29,529.586,781.1Z" transform="translate(-517.865 -690.212)"/><path class="c" d="M527.548,778.939a19.309,19.309,0,0,1,18.435-14.334,19,19,0,0,1,18.85,15.86q.073.032.146.07c.111.058.319.163.351.18a16.2,16.2,0,0,1,9.3,2.52c2.612,1.795,4.61,4.651,5.6,8.938a.653.653,0,0,1-.637.8h-62.6a.653.653,0,0,1-.653-.653c0-4.292,1.309-7.576,3.4-9.819a11.532,11.532,0,0,1,7.8-3.561Zm36.711,2.7a.654.654,0,0,1-.653-.562,17.694,17.694,0,0,0-17.622-15.168,18.006,18.006,0,0,0-17.289,13.811.653.653,0,0,1-.614.5c-5.653.18-10.171,4.117-10.424,11.446h61.1a12.547,12.547,0,0,0-4.867-7.355,14.922,14.922,0,0,0-8.579-2.29,1.581,1.581,0,0,1-.728-.216c-.1-.054-.29-.148-.322-.163Z" transform="translate(-516.339 -688.685)"/></g></svg>