<svg xmlns="http://www.w3.org/2000/svg" width="36.742" height="40.825" viewBox="0 0 36.742 40.825"><defs><style>.a{opacity:0.28;}</style></defs><path class="a" d="M16.747,21.371H12.665v4.082h4.082Zm8.165,0H20.83v4.082h4.082Zm8.165,0H28.995v4.082h4.082ZM37.16,7.082H35.118V3H31.036V7.082H14.706V3H10.624V7.082H8.582A4.064,4.064,0,0,0,4.52,11.165L4.5,39.742a4.081,4.081,0,0,0,4.082,4.082H37.16a4.094,4.094,0,0,0,4.082-4.082V11.165A4.094,4.094,0,0,0,37.16,7.082Zm0,32.66H8.582V17.289H37.16Z" transform="translate(-4.5 -3)"/></svg>