<svg xmlns="http://www.w3.org/2000/svg" width="368.909" height="599.629" viewBox="0 0 368.909 599.629"><defs><style>.a{opacity:0.27;}.b{fill:#7b7b7b;}.c{fill:#00a8ff;}.d{fill:#ffc500;}</style></defs><g class="a" transform="translate(-13.372 -7.544)"><g transform="translate(35.551 283.086)"><g transform="translate(12.712 5.238)"><path class="b" d="M90.5,351H88.555l-.263-1.924c-.873-6.391-1.71-11.963-2.45-16.878-3.385-22.528-4.784-31.855,2.111-42.694,7.1-11.151,16.945-18.168,26.468-24.953,10.055-7.164,20.453-14.571,27.566-26.94,6.83-11.872,6.483-24.989-.909-34.231-8.834-11.048-25.379-14.153-44.268-8.3a140.884,140.884,0,0,0-23.971,9.952c-15.78,8.022-16.932,6.247-36.122-23.5-1.984-3.073-4.173-6.465-6.6-10.2l-1.078-1.655,1.512-1.267c39.547-33.133,87.984-43.366,129.58-27.374,30.434,11.7,50.931,35.3,54.835,63.124,4.436,31.634-13.2,64.182-49.649,91.645-23.688,17.863-22.653,30.024-21.969,38.07.336,3.944.653,7.67-2.049,10.612C136.77,349.42,124.425,351,90.5,351Zm24.2-163.277c12.522,0,23.085,4.414,29.853,12.879,8.561,10.705,9.055,25.737,1.292,39.233-7.6,13.213-18.4,20.907-28.842,28.347-9.6,6.839-18.664,13.3-25.294,23.717-6,9.434-4.768,17.658-1.468,39.64.668,4.429,1.414,9.4,2.194,15.008,29.463-.058,42.3-1.5,45.582-5.069,1.314-1.436,1.211-3.463.889-7.222-.768-9.024-1.929-22.662,23.726-42.005,35.1-26.448,52.12-57.512,47.918-87.472-3.675-26.2-23.121-48.475-52.023-59.585-39.529-15.2-85.6-5.7-123.6,25.377q3.006,4.633,5.527,8.549c9.153,14.184,14.195,22,17.978,24.584,2.933,2,5.3.955,12.384-2.641a144.611,144.611,0,0,1,24.671-10.238,65.2,65.2,0,0,1,19.213-3.1Z" transform="translate(-29.039 -133.627)"/></g><g transform="translate(59.238 244.279)"><path class="b" d="M86.037,311.158c-17.391,0-36.106-11-36.106-35.146,0-24.078,18.716-35.046,36.108-35.046,18.045,0,36.316,12.039,36.316,35.046,0,10.821-3.953,19.936-11.436,26.361A38.046,38.046,0,0,1,86.037,311.158Zm0-65.739c-15.246,0-31.654,9.574-31.654,30.592,0,21.087,16.408,30.692,31.652,30.692,15.346,0,31.864-9.605,31.864-30.692,0-21.018-16.516-30.592-31.86-30.592Z" transform="translate(-49.931 -240.965)"/></g><g transform="translate(57.096 152.948)"><path class="b" d="M66.045,279.239H55.71L54.307,269c-.828-6.071-1.626-11.4-2.334-16.121l-.1-.641c-3.539-23.57-5.318-35.4,3.512-49.277q.985-1.553,2.027-3.006l3.628,2.586q-.972,1.363-1.9,2.81C51.2,217.824,52.9,229.1,56.278,251.577l.1.641c.71,4.741,1.512,10.086,2.345,16.179l.871,6.389h6.452c36.525,0,48.771-1.835,54.6-8.184a13.717,13.717,0,0,0,3.592-9.019l4.445.243a18.174,18.174,0,0,1-4.757,11.787C116.9,277.262,105,279.239,66.045,279.239Z" transform="translate(-48.969 -199.954)"/></g><g transform="translate(95.251 68.939)"><path class="b" d="M96.12,187.932l-4.427-.488a20.317,20.317,0,0,0,.122-2.225,17.468,17.468,0,0,0-2.321-8.875c-3.9-6.746-12.513-10.291-23.089-9.567l-.3-4.443c12.375-.848,22.468,3.523,27.247,11.779a21.872,21.872,0,0,1,2.92,11.106A24.785,24.785,0,0,1,96.12,187.932Z" transform="translate(-66.102 -162.231)"/></g><path class="b" d="M68.408,221.68c-12.088,0-17.718-8.721-32.761-32.029l-.122-.192c-1.946-3.018-4.091-6.34-6.467-9.993l-5.726-8.8,8.046-6.741c19.11-16.012,39.888-27,61.761-32.652l1.114,4.314c-21.225,5.485-41.415,16.17-60.013,31.752l-5.022,4.207,3.572,5.49c2.378,3.657,4.527,6.986,6.476,10.006l-1.746,1.4,1.871-1.209c14.478,22.435,19.355,29.991,29.018,29.991,3.427,0,6.554-1.165,10.191-2.913l1.933,4.013C76.342,220.339,72.679,221.68,68.408,221.68Z" transform="translate(-23.331 -131.275)"/><g transform="translate(180.226 68.801)"><path class="b" d="M107.673,241.461l-3.414-2.859c15.9-19,24.312-39.654,24.312-59.739a73.718,73.718,0,0,0-1.708-15.74l4.349-.953a78.149,78.149,0,0,1,1.813,16.693C133.025,200.008,124.257,221.652,107.673,241.461Z" transform="translate(-104.259 -162.169)"/></g><g transform="translate(49.62 252.942)"><path class="b" d="M91.548,316h-.209c-22.724,0-45.727-15.375-45.727-44.763a48.238,48.238,0,0,1,2.37-15.253l4.227,1.405a43.768,43.768,0,0,0-2.142,13.847c0,26.463,20.764,40.309,41.273,40.309Zm40.963-23.775-3.971-2.016a41.525,41.525,0,0,0,4.278-18.972c0-9.144-2.434-17.143-7.238-23.773l3.605-2.612c5.367,7.4,8.086,16.284,8.086,26.385a45.915,45.915,0,0,1-4.76,20.991Z" transform="translate(-45.612 -244.855)"/></g></g><g transform="translate(246.952 211.287)"><g transform="translate(12.709 9.579)"><path class="c" d="M161.67,234.276h-1.944l-.265-1.924c-.517-3.795-1.013-7.1-1.452-10.021-2.044-13.616-2.893-19.252,1.387-25.976,4.311-6.772,10.233-10.992,15.961-15.075,6.167-4.394,11.988-8.54,16.115-15.718,3.871-6.723,3.692-14.126-.461-19.319-5.008-6.262-14.475-7.99-25.325-4.634a82.769,82.769,0,0,0-14.1,5.855c-10.1,5.135-11.286,3.3-22.631-14.279-1.176-1.824-2.474-3.837-3.917-6.051l-1.076-1.655,1.512-1.267c23.744-19.9,52.867-26.031,77.882-16.413,18.39,7.068,30.781,21.357,33.147,38.217,2.681,19.132-7.917,38.767-29.844,55.29-13.674,10.311-13.108,16.961-12.7,21.818.207,2.434.421,4.951-1.452,6.991C189.586,233.3,182.377,234.276,161.67,234.276Zm14.382-98.8c7.714,0,14.239,2.739,18.437,7.99,5.32,6.654,5.645,15.976.846,24.321-4.614,8.019-11.113,12.649-17.4,17.126-5.625,4.009-10.943,7.8-14.785,13.836-3.387,5.318-2.668,10.113-.744,22.925.367,2.43.771,5.129,1.2,8.151,11.776-.036,23.537-.445,25.624-2.719.526-.572.461-1.628.294-3.6-.443-5.22-1.187-13.959,14.453-25.751,20.577-15.5,30.561-33.657,28.114-51.116-2.136-15.233-13.476-28.2-30.334-34.676-22.96-8.83-49.706-3.43-71.9,14.42q1.53,2.358,2.842,4.394c5.374,8.329,8.336,12.917,10.431,14.351,1.272.869,2.211.521,6.438-1.628a86.8,86.8,0,0,1,14.8-6.14,39.72,39.72,0,0,1,11.684-1.889Z" transform="translate(-123.965 -103.336)"/></g><g transform="translate(40.638 151.58)"><path class="c" d="M158.861,210.606c-11.108,0-22.355-7.483-22.355-21.782,0-14.262,11.246-21.724,22.355-21.724,11.171,0,22.479,7.463,22.479,21.724C181.34,203.124,170.031,210.606,158.861,210.606Zm0-39.052c-8.621,0-17.9,5.4-17.9,17.27,0,11.906,9.28,17.328,17.9,17.328,8.681,0,18.025-5.423,18.025-17.328C176.886,176.957,167.541,171.554,158.861,171.554Z" transform="translate(-136.506 -167.1)"/></g><g transform="translate(35.481 78.17)"><path class="c" d="M149.124,206.1H138.788l-1.4-10.24c-.5-3.681-.984-6.9-1.41-9.741-2.162-14.373-3.452-22.96,2.759-32.721,5.316-8.356,12.315-13.342,18.491-17.742l2.127-1.523,2.606,3.612-2.142,1.534c-5.85,4.169-12.473,8.888-17.322,16.509-5.318,8.356-4.254,15.431-2.136,29.523.45,3.009.935,6.244,1.441,9.946l.873,6.389h6.452c20.655,0,30.033-.811,34.648-5.832,3.407-3.71,3.038-8.051,2.795-10.923-.394-4.646.087-9.108,9.995-16.751l2.719,3.528c-8.79,6.781-8.529,9.863-8.278,12.843.274,3.2.782,9.166-3.951,14.317C181.38,205.006,172.182,206.1,149.124,206.1Z" transform="translate(-134.19 -134.136)"/></g><g transform="translate(71.11 53.8)"><path class="c" d="M156.454,134.769l-4.294-1.18a8.419,8.419,0,0,0,.314-2.209,5.658,5.658,0,0,0-.726-2.871,5.443,5.443,0,0,0-1.559-1.7l2.592-3.621a9.9,9.9,0,0,1,2.822,3.082,10.059,10.059,0,0,1,1.325,5.1A12.721,12.721,0,0,1,156.454,134.769Z" transform="translate(-150.189 -123.193)"/></g><path class="c" d="M151.389,164.918c-9.8,0-14.1-6.654-23.506-21.237l-9.625-14.825,8.044-6.741c19.664-16.473,42.56-24.5,65.514-22.876l-.314,4.443c-21.813-1.532-43.569,6.12-62.338,21.847l-5.022,4.207,7.483,11.529c9.017,13.972,12.389,19.2,19.765,19.2,3.407,0,6.251-1.445,9.545-3.12a77.233,77.233,0,0,1,13.282-5.525,32.939,32.939,0,0,1,6.349-1.334l.45,4.432a28.3,28.3,0,0,0-5.481,1.158,73.353,73.353,0,0,0-12.583,5.24C159.468,163.088,155.865,164.918,151.389,164.918Z" transform="translate(-118.258 -99.035)"/><g transform="translate(123.741 46.651)"><path class="c" d="M177.71,159.548l-3.888-2.171a52.724,52.724,0,0,0,7.133-25.826,46.68,46.68,0,0,0-1.211-10.562l4.343-1a51.413,51.413,0,0,1,1.323,11.567,57.1,57.1,0,0,1-7.7,27.993Z" transform="translate(-173.822 -119.983)"/></g><g transform="translate(31.022 141.962)"><path class="c" d="M164.159,225.524c-15.887,0-31.971-10.788-31.971-31.4,0-20.577,16.083-31.343,31.971-31.343,15.56,0,32.1,10.984,32.1,31.343a31.138,31.138,0,0,1-4.427,16.471l-3.8-2.321a26.742,26.742,0,0,0,3.775-14.15c0-17.466-14.244-26.889-27.644-26.889-13.676,0-27.517,9.235-27.517,26.889,0,17.689,13.841,26.947,27.517,26.947Z" transform="translate(-132.188 -162.781)"/></g></g><g transform="translate(99.013 7.549)"><g transform="translate(13.614 5.22)"><path class="b" d="M120.622,231.715h-1.944l-.263-1.926c-.893-6.525-1.748-12.215-2.5-17.235-3.454-22.985-4.884-32.5,2.149-43.549,7.24-11.375,17.288-18.537,27.007-25.461,10.269-7.316,20.885-14.881,28.154-27.517,6.984-12.135,6.628-25.546-.931-35-9.033-11.293-25.947-14.469-45.244-8.492A143.972,143.972,0,0,0,102.572,82.7C86.5,90.873,85.329,89.058,65.753,58.724c-2.024-3.136-4.256-6.6-6.734-10.407l-1.078-1.655L59.453,45.4C99.808,11.588,149.241,1.139,191.692,17.46c31.051,11.939,51.967,36.015,55.946,64.4,4.527,32.278-13.467,65.487-50.664,93.514-24.2,18.252-23.147,30.681-22.446,38.908.341,4.015.666,7.81-2.08,10.8C167.834,230.1,155.243,231.715,120.622,231.715ZM145.335,65.12c12.77,0,23.537,4.5,30.438,13.128,8.728,10.912,9.231,26.241,1.314,40-7.752,13.48-18.771,21.332-29.43,28.924-9.8,6.984-19.061,13.58-25.835,24.225-6.138,9.645-4.877,18.045-1.5,40.5.681,4.534,1.445,9.618,2.243,15.366,30.125-.06,43.244-1.532,46.606-5.193,1.358-1.476,1.249-3.556.922-7.407-.784-9.2-1.966-23.107,24.2-42.841,35.85-27.009,53.227-58.737,48.936-89.338-3.755-26.764-23.617-49.517-53.136-60.866C149.7,6.087,102.641,15.792,63.834,47.554c2.056,3.165,3.933,6.077,5.663,8.757C78.846,70.8,84,78.779,87.867,81.425c3,2.058,5.445.989,12.687-2.692a147.808,147.808,0,0,1,25.178-10.449A66.594,66.594,0,0,1,145.335,65.12Z" transform="translate(-57.941 -9.893)"/></g><g transform="translate(61.098 249.249)"><path class="b" d="M116.075,191.035c-17.729,0-36.812-11.213-36.812-35.832,0-24.55,19.083-35.732,36.814-35.732,18.4,0,37.028,12.275,37.028,35.732C153.106,178.727,134.479,191.035,116.075,191.035Zm0-67.11c-15.587,0-32.36,9.788-32.36,31.278,0,21.559,16.774,31.378,32.358,31.378,15.691,0,32.576-9.819,32.576-31.378,0-21.49-16.882-31.278-32.572-31.278Z" transform="translate(-79.263 -119.471)"/></g><g transform="translate(58.424 157.773)"><path class="b" d="M95.933,157.965H85l-1.48-10.834c-.884-6.474-1.733-12.117-2.483-17.1-3.628-24.174-5.454-36.309,3.648-50.611.22-.345.441-.688.666-1.029l3.719,2.452-.624.964c-8.211,12.9-6.469,24.484-3,47.56.751,5,1.6,10.663,2.49,17.159l.955,6.982h7.044c37.467,0,50.058-1.913,56.134-8.527a13.965,13.965,0,0,0,3.519-7.062l4.376.822A18.3,18.3,0,0,1,155.347,148C148.158,155.823,135.389,157.965,95.933,157.965Z" transform="translate(-78.062 -78.395)"/></g><g transform="translate(96.188 70.739)"><path class="b" d="M126.737,65.2l-4.425-.523a21.018,21.018,0,0,0,.147-2.425,17.425,17.425,0,0,0-2.309-8.846c-4.08-7.046-13.268-10.585-24.677-9.42l-.452-4.429c13.217-1.358,24,3.013,28.982,11.618a21.819,21.819,0,0,1,2.911,11.077,25.07,25.07,0,0,1-.177,2.948Z" transform="translate(-95.02 -39.313)"/></g><path class="b" d="M98.419,100.1c-12.58,0-18.362-8.961-33.815-32.91-2.022-3.131-4.249-6.581-6.719-10.382L51.828,47.5l8.507-7.131c18.9-15.829,39.418-26.873,61-32.826l1.183,4.294C101.554,17.624,81.6,28.374,63.2,43.789l-5.485,4.6,3.9,6c2.474,3.806,4.706,7.26,6.725,10.4C83.24,87.878,88.263,95.66,98.416,95.66a20.566,20.566,0,0,0,8.22-1.929l1.741,4.1A24.729,24.729,0,0,1,98.419,100.1Z" transform="translate(-51.828 -7.549)"/><g transform="translate(184.346 69.903)"><path class="b" d="M138,121.085l-3.4-2.882c16.727-19.7,25.568-41.161,25.568-62.057A75.817,75.817,0,0,0,158.4,39.9l4.349-.958a80.14,80.14,0,0,1,1.875,17.208C164.628,78.111,155.422,100.568,138,121.085Z" transform="translate(-134.606 -38.938)"/></g><g transform="translate(50.793 257.788)"><path class="b" d="M121.973,196.633h-.22c-23.415,0-47.116-15.847-47.116-46.134a49.632,49.632,0,0,1,2.441-15.718l4.225,1.407A45.2,45.2,0,0,0,79.09,150.5c0,27.363,21.462,41.68,42.662,41.68Zm42.208-24.508-3.973-2.015a42.923,42.923,0,0,0,4.423-19.611c0-9.451-2.516-17.722-7.485-24.582l3.608-2.612c5.53,7.634,8.333,16.783,8.331,27.194A47.348,47.348,0,0,1,164.181,172.125Z" transform="translate(-74.636 -123.305)"/></g></g><g transform="translate(13.372 75.699)"><g transform="translate(12.233 9.216)"><path class="d" d="M53.965,163.753H52.02l-.263-1.926c-.479-3.5-.938-6.561-1.343-9.258-1.844-12.275-2.688-17.878,1.305-24.152,4-6.293,9.5-10.206,14.809-13.99,5.686-4.053,11.059-7.881,14.858-14.489,3.543-6.16,3.385-12.934-.412-17.685-4.588-5.737-13.277-7.32-23.248-4.231a76.435,76.435,0,0,0-13.012,5.4c-9.485,4.821-10.589,3.107-21.148-13.262-1.091-1.69-2.294-3.552-3.626-5.6l-1.078-1.655,1.512-1.267C42.391,43.2,69.391,37.507,92.59,46.431c17.07,6.563,28.57,19.827,30.766,35.487,2.49,17.76-7.336,35.979-27.673,51.3C83.109,142.7,83.626,148.8,84.007,153.253c.194,2.289.4,4.654-1.387,6.6C79.871,162.842,73.177,163.753,53.965,163.753ZM67.271,72.019c7.184,0,13.268,2.557,17.183,7.454,4.968,6.213,5.274,14.9.8,22.686-4.287,7.451-10.311,11.743-16.139,15.894-5.191,3.7-10.1,7.2-13.634,12.754-3.1,4.868-2.434,9.289-.659,21.1.33,2.207.7,4.654,1.082,7.389,10.81-.036,21.557-.412,23.439-2.461.437-.477.376-1.477.227-3.2-.412-4.864-1.107-13.006,13.433-23.969,18.987-14.3,28.2-31.04,25.944-47.128-1.969-14.03-12.42-25.973-27.955-31.946-21.143-8.131-45.769-3.178-66.228,13.219q1.37,2.111,2.548,3.942c4.96,7.685,7.69,11.919,9.6,13.226,1.04.715,1.753.53,5.781-1.519a80.734,80.734,0,0,1,13.718-5.69,36.871,36.871,0,0,1,10.86-1.751Z" transform="translate(-18.865 -42.289)"/></g><g transform="translate(32.986 69.377)"><path class="d" d="M42.53,139.864H32.509l-1.356-9.93c-.468-3.414-.918-6.4-1.309-9.037-2.015-13.384-3.22-21.4,2.632-30.6,4.975-7.817,11.5-12.462,17.248-16.56,2.122-1.512,4.124-2.94,5.935-4.436L58.5,72.736c-1.933,1.6-4,3.071-6.189,4.63C46.886,81.23,40.74,85.608,36.235,92.692c-4.96,7.79-3.971,14.357-2,27.437.414,2.761.864,5.766,1.336,9.2l.831,6.08H42.53c19.168,0,27.877-.757,32.193-5.458,3.209-3.5,2.848-7.723,2.635-10.251-.381-4.483.1-8.492,9.779-15.792q1.807-1.36,3.508-2.75l2.819,3.45q-1.767,1.446-3.646,2.857c-8.485,6.4-8.262,9.05-8.024,11.856.241,2.826.744,8.7-3.79,13.643C72.626,138.822,64.032,139.864,42.53,139.864Z" transform="translate(-28.184 -69.304)"/></g><g transform="translate(67.462 52.873)"><path class="d" d="M48.219,70.217,43.948,68.95a7.231,7.231,0,0,0,.321-2.064,4.729,4.729,0,0,0-.6-2.4l3.63-2.6c.085.127.163.258.238.392a9.078,9.078,0,0,1,1.189,4.6,11.816,11.816,0,0,1-.507,3.339Z" transform="translate(-43.665 -61.893)"/></g><path class="d" d="M44.715,100.148c-9.356,0-13.375-6.231-22.185-19.885l-.256-.4c-1.016-1.574-2.125-3.3-3.352-5.173l-5.55-8.534,7.8-6.536c16.765-14.048,35.99-21.473,55.6-21.473a75.72,75.72,0,0,1,10.773.768l-.652,4.4a71.363,71.363,0,0,0-10.125-.72c-18.546,0-36.783,7.066-52.735,20.433l-4.775,4,3.4,5.222c1.229,1.884,2.345,3.612,3.363,5.191l.254.4C35.21,91.7,38.083,95.694,44.715,95.694c3.2,0,5.848-1.347,8.917-2.908a71.437,71.437,0,0,1,12.257-5.1A24.126,24.126,0,0,1,77.5,86.673l-.877,4.367a19.861,19.861,0,0,0-9.413.9,67.7,67.7,0,0,0-11.558,4.815C52.373,98.425,48.982,100.148,44.715,100.148Z" transform="translate(-13.372 -38.151)"/><g transform="translate(116.563 43.522)"><path class="d" d="M69.693,92.219l-3.98-2a48.072,48.072,0,0,0,5.4-21.66,43.712,43.712,0,0,0-1.14-9.859l4.336-1.009a48.11,48.11,0,0,1,1.254,10.865A52.462,52.462,0,0,1,69.693,92.219Z" transform="translate(-65.713 -57.694)"/></g><g transform="translate(28.866 145.708)"><path class="d" d="M56.436,162.672c-14.959,0-30.1-10.16-30.1-29.572,0-19.381,15.144-29.521,30.1-29.521,14.649,0,30.218,10.347,30.218,29.521,0,9.558-4.006,17.838-11.28,23.314L72.7,152.856c4.338-3.265,9.5-9.342,9.5-19.756,0-16.282-13.275-25.067-25.764-25.067-12.745,0-25.648,8.61-25.648,25.067,0,16.489,12.9,25.118,25.648,25.118Z" transform="translate(-26.334 -103.579)"/></g><g transform="translate(38.122 154.965)"><path class="d" d="M51.337,148.316c-10.36,0-20.847-6.979-20.847-20.317,0-13.3,10.487-20.263,20.847-20.263,10.416,0,20.96,6.959,20.96,20.263C72.3,141.337,61.75,148.316,51.337,148.316Zm0-36.126c-7.9,0-16.393,4.946-16.393,15.809,0,10.9,8.5,15.863,16.393,15.863,7.948,0,16.506-4.964,16.506-15.863a15,15,0,0,0-5.082-11.825,17.481,17.481,0,0,0-11.424-3.984Z" transform="translate(-30.49 -107.736)"/></g></g></g></svg>