<svg xmlns="http://www.w3.org/2000/svg" xmlns:xlink="http://www.w3.org/1999/xlink" width="232.522" height="179.09" viewBox="0 0 232.522 179.09"><defs><style>.a,.l{fill:none;stroke-linecap:round;stroke-width:4.37px;}.a{stroke:#ffa455;}.b{fill:#f3f3f3;}.c{fill:#fff;}.d{fill:url(#a);}.e{fill:#f5f5f5;}.f{fill:url(#b);}.g{fill:url(#c);}.h{fill:url(#d);}.i{fill:url(#e);}.j{fill:#4e7ed6;}.k{fill:#e0e0e0;}.l{stroke:#5997fa;}.m{fill:#537ffd;}.n{fill:#4ba6f3;}.o{fill:#46bbed;}.p{fill:url(#f);}.q{fill:url(#g);}</style><linearGradient id="a" x1="-6.826" y1="9.183" x2="-6.826" y2="9.191" gradientUnits="objectBoundingBox"><stop offset="0" stop-color="#40d5e6"/><stop offset="1" stop-color="#57f"/></linearGradient><linearGradient id="b" x1="-27.835" y1="362.607" x2="-27.808" y2="362.607" xlink:href="#a"/><linearGradient id="c" x1="-30.574" y1="358.956" x2="-30.544" y2="358.956" xlink:href="#a"/><linearGradient id="d" x1="-35.233" y1="360.527" x2="-35.199" y2="360.527" xlink:href="#a"/><linearGradient id="e" x1="-16.515" y1="29.513" x2="-16.515" y2="29.525" gradientUnits="objectBoundingBox"><stop offset="0" stop-color="#7db3e0"/><stop offset="1" stop-color="#fff"/></linearGradient><linearGradient id="f" x1="-132.651" y1="53.444" x2="-132.595" y2="53.396" xlink:href="#a"/><linearGradient id="g" x1="-30.079" y1="222.995" x2="-30.066" y2="222.79" xlink:href="#a"/></defs><g transform="translate(13504.081 -9012.098)"><g transform="translate(-14357.338 8723.248)"><path class="a" d="M198.15,384.23s6-20.88,46-20.92,62.43,20.63,80.08-11.7,39.33-71.44,78.81-57" transform="translate(657.81 34.05)"/><rect class="b" width="0.83" height="87.09" transform="translate(942.92 357.65) rotate(-23)"/><rect class="c" width="8.95" height="2.27" transform="translate(939.103 347.618) rotate(-23)"/><rect class="c" width="7.16" height="2.27" transform="translate(940.742 351.475) rotate(-23)"/><rect class="c" width="9.39" height="3.03" transform="translate(979.731 442.248) rotate(-23)"/><rect class="b" width="0.83" height="87.09" transform="translate(921.33 366.817) rotate(-23)"/><rect class="b" width="0.83" height="87.09" transform="translate(975.647 343.756) rotate(-23)"/><rect class="c" width="16.6" height="2.27" transform="translate(916.935 357.032) rotate(-23)"/><rect class="c" width="10.61" height="2.27" transform="translate(918.571 360.887) rotate(-23)"/><rect class="c" width="10.28" height="2.27" transform="translate(972.229 333.555) rotate(-23)"/><rect class="c" width="11.99" height="2.27" transform="translate(973.496 337.501) rotate(-22.973)"/><rect class="c" width="9.39" height="3.03" transform="translate(957.754 451.574) rotate(-23)"/><rect class="c" width="9.39" height="3.03" transform="translate(1012.467 428.344) rotate(-23)"/><rect class="d" width="103.54" height="136.99" rx="8.75" transform="translate(884.279 341.84) rotate(-23)"/><path class="e" d="M252.66,279l57-24.2h0l57.16,134.65h0l-84,35.67h0L237.11,317.5A29.36,29.36,0,0,1,252.66,279Z" transform="translate(657.81 34.05)"/><rect class="f" width="26.96" height="3.41" transform="translate(946.095 329.014) rotate(-23)"/><rect class="g" width="24.74" height="3.41" transform="translate(951.67 342.159) rotate(-23)"/><rect class="h" width="21.41" height="3.41" transform="translate(948.878 335.589) rotate(-23)"/><path class="i" d="M270.22,326.37a21.23,21.23,0,1,1,7.33-5.17,21.23,21.23,0,0,1-7.33,5.17Zm-16.16-38.06A20.11,20.11,0,1,0,280.43,299h0a20.13,20.13,0,0,0-26.37-10.65Z" transform="translate(657.81 34.05)"/><rect class="j" width="30.97" height="3.04" transform="translate(911.803 376.6) rotate(-23)"/><rect class="k" width="30.97" height="3.04" transform="translate(915.001 384.131) rotate(-23)"/><rect class="k" width="30.97" height="3.04" transform="translate(918.199 391.662) rotate(-23)"/><rect class="j" width="5.17" height="3.04" transform="translate(946.138 362.032) rotate(-23)"/><rect class="k" width="5.17" height="3.04" transform="translate(949.336 369.563) rotate(-23)"/><rect class="k" width="5.17" height="3.04" transform="translate(952.525 377.088) rotate(-23)"/><path class="l" d="M211.09,396.11s21.24,13.28,44-14.94,39.3-54.78,77.79-52,67.49,11.69,92-11.56" transform="translate(657.81 34.05)"/><path class="e" d="M300.81,319.21l52.55-22.31a2.35,2.35,0,0,1,3.09,1.25l34.82,82a2.36,2.36,0,0,1-1.24,3.09l-52.55,22.31a2.36,2.36,0,0,1-3.08-1.25l-34.83-82a2.35,2.35,0,0,1,1.24-3.09Z" transform="translate(657.81 34.05)"/><path class="k" d="M354.46,311.75a10.129,10.129,0,1,0-14.951,13.671l.061.059a5.439,5.439,0,0,0,.48.48,10.13,10.13,0,0,0,14.41-14.21Zm-2.3,12.45a7.58,7.58,0,0,1-10.37-.08l-.36-.36a7.6,7.6,0,1,1,10.74.43h0Z" transform="translate(657.81 34.05)"/><path class="m" d="M339.46,319.36l-2.53.25a10.15,10.15,0,0,1,5.85-10.2l1.06,2.3a7.61,7.61,0,0,0-4.38,7.66Z" transform="translate(657.81 34.05)"/><path class="n" d="M341.79,324.12,340.05,326a5.447,5.447,0,0,1-.48-.48,10,10,0,0,1-2.63-5.87l2.52-.25a7.53,7.53,0,0,0,2,4.4Z" transform="translate(657.81 34.05)"/><path class="o" d="M342.48,327.67a10,10,0,0,1-2.43-1.7l1.74-1.84a8,8,0,0,0,1.82,1.28Z" transform="translate(657.81 34.05)"/><rect class="o" width="5.46" height="17.9" transform="translate(1021.345 405.816) rotate(-23)"/><rect class="o" width="5.46" height="12.88" transform="translate(1015.824 413.61) rotate(-23)"/><rect class="o" width="5.46" height="26.2" transform="translate(1025.341 395.108) rotate(-23)"/><path class="o" d="M334,382.28l-.58-.15L337.1,368l10.35-3.74,2.47-15.37,7.85-4.34.79-11.85h.6l-.82,12.18-7.88,4.35L348,364.69l-10.38,3.76Z" transform="translate(657.81 34.05)"/><path class="j" d="M327,322.71l-14.29,6.07a1.78,1.78,0,0,1-2.33-.94h0a1.78,1.78,0,0,1,.94-2.33h0l14.29-6.07a1.78,1.78,0,0,1,2.33.94h0a1.78,1.78,0,0,1-.94,2.33Z" transform="translate(657.81 34.05)"/><path class="k" d="M329.43,328.41l-14.29,6.07a1.78,1.78,0,0,1-2.33-.94h0a1.78,1.78,0,0,1,.94-2.33h0L328,325.14a1.78,1.78,0,0,1,2.33.94h0a1.78,1.78,0,0,1-.94,2.33Z" transform="translate(657.81 34.05)"/><path class="k" d="M331.85,334.11l-14.29,6.07a1.78,1.78,0,0,1-2.33-.94h0a1.78,1.78,0,0,1,.94-2.33h0l14.29-6.07a1.78,1.78,0,0,1,2.33.94h0A1.78,1.78,0,0,1,331.85,334.11Z" transform="translate(657.81 34.05)"/><rect class="p" width="5.53" height="23.27" transform="translate(912.617 331.265) rotate(-23)"/><rect class="q" width="23.27" height="5.53" transform="translate(907.927 342.891) rotate(-23)"/></g></g></svg>