<svg xmlns="http://www.w3.org/2000/svg" width="154.968" height="75.122" viewBox="0 0 154.968 75.122"><defs><style>.a{fill:#ffa75b;}.b{fill:#f39650;}.c{fill:#7ac6f4;}.d{fill:#417399;opacity:0.3;}.e{fill:#96c677;}.f{fill:#6a964d;}.g{fill:#e54633;}.h{fill:#b52b3a;opacity:0.5;}.i{fill:#e8e8e8;}.j{fill:#d6d6d6;}.k{fill:#fff;}.l{fill:#c9c7c8;}</style></defs><g transform="translate(13637.429 -9284.498)"><path class="a" d="M120.43,463.29v35.34a3.3,3.3,0,0,0,2.83,3.26,35.85,35.85,0,0,1,16.28,6.74,3.3,3.3,0,0,0,4.31-.3l25-25a3.3,3.3,0,0,0-.18-4.83A77.35,77.35,0,0,0,124,460a3.29,3.29,0,0,0-3.57,3.29Z" transform="translate(-13678 8824.51)"/><path class="b" d="M120.43,463.29v35.34a3.3,3.3,0,0,0,2.83,3.26,35.85,35.85,0,0,1,16.28,6.74,3.3,3.3,0,0,0,4.31-.3Z" transform="translate(-13678 8824.51)"/><path class="c" d="M82.47,532.28A35.74,35.74,0,0,1,89.21,516a3.3,3.3,0,0,0-.3-4.31l-25-25a3.29,3.29,0,0,0-4.82.18,77.35,77.35,0,0,0-18.51,44.7,3.29,3.29,0,0,0,3.28,3.53H79.21A3.3,3.3,0,0,0,82.47,532.28Z" transform="translate(-13678 8824.51)"/><path class="d" d="M88.91,511.69l-45,23.42h35.3a3.3,3.3,0,0,0,3.26-2.83A35.74,35.74,0,0,1,89.21,516a3.3,3.3,0,0,0-.3-4.31Z" transform="translate(-13678 8824.51)"/><path class="e" d="M96.58,508.63a35.85,35.85,0,0,1,16.28-6.74,3.3,3.3,0,0,0,2.83-3.26V463.29a3.29,3.29,0,0,0-3.53-3.28,77.35,77.35,0,0,0-44.7,18.51,3.3,3.3,0,0,0-.18,4.83l25,25a3.3,3.3,0,0,0,4.3.28Z" transform="translate(-13678 8824.51)"/><path class="f" d="M67.28,483.35l25,25a3.3,3.3,0,0,0,4.31.3,35.85,35.85,0,0,1,16.28-6.74,3.3,3.3,0,0,0,2.83-3.26Z" transform="translate(-13678 8824.51)"/><path class="g" d="M146.91,516a35.85,35.85,0,0,1,6.74,16.28,3.3,3.3,0,0,0,3.26,2.83h35.34a3.29,3.29,0,0,0,3.28-3.53A77.42,77.42,0,0,0,177,486.88a3.3,3.3,0,0,0-4.83-.18l-25,25A3.29,3.29,0,0,0,146.91,516Z" transform="translate(-13678 8824.51)"/><path class="h" d="M147.21,511.69a3.29,3.29,0,0,0-.3,4.31,35.85,35.85,0,0,1,6.74,16.28,3.3,3.3,0,0,0,3.26,2.83l15.28-48.41Z" transform="translate(-13678 8824.51)"/><path class="i" d="M146.31,535.11a3.29,3.29,0,0,0,3.22-4,32.23,32.23,0,0,0-62.95,0,3.3,3.3,0,0,0,3.22,4Z" transform="translate(-13678 8824.51)"/><path class="j" d="M145.86,530.86c-12.94,0-30.06-13.57-35.21-24.17a32.1,32.1,0,0,0-7.16,2.62l16.75,25.8h26.07a3.3,3.3,0,0,0,3.21-4,1.606,1.606,0,0,0-.08-.38C148.27,530.81,147.07,530.86,145.86,530.86Z" transform="translate(-13678 8824.51)"/><path class="k" d="M51.89,522a.37.37,0,0,1-.1.16l-.11.06-2.51.9,2.12.53a.147.147,0,0,1,.11.21l-.2.83a.16.16,0,0,1-.08.1.13.13,0,0,1-.13,0l-4.06-1a.231.231,0,0,1-.11-.08.18.18,0,0,1,0-.14L47,523a.29.29,0,0,1,.1-.16l.11-.06,2.51-.91-2.13-.52a.2.2,0,0,1-.1-.08.18.18,0,0,1,0-.14l.21-.82a.21.21,0,0,1,.08-.11.2.2,0,0,1,.13,0l4.06,1a.18.18,0,0,1,.11.08.2.2,0,0,1,0,.13Z" transform="translate(-13678 8824.51)"/><path class="k" d="M49.57,519.68a1.84,1.84,0,0,1-.6-.37,1.44,1.44,0,0,1-.41-.54,1.81,1.81,0,0,1-.17-.71,2.45,2.45,0,0,1,.13-.85,2.139,2.139,0,0,1,.39-.75,1.729,1.729,0,0,1,.54-.48,1.55,1.55,0,0,1,.66-.21,2,2,0,0,1,.69.06,1.791,1.791,0,0,1,.56.17l.54.18a2,2,0,0,1,.6.36,1.72,1.72,0,0,1,.42.55,1.8,1.8,0,0,1,.16.71,2.36,2.36,0,0,1-.13.84,2.15,2.15,0,0,1-.39.77,1.831,1.831,0,0,1-.54.47,1.761,1.761,0,0,1-.66.21,2.1,2.1,0,0,1-.7-.06l-.54-.16Zm1.93-2.37-.24-.09-.27-.09-.28-.09-.24-.06a1.122,1.122,0,0,0-.31,0,.918.918,0,0,0-.27.08.67.67,0,0,0-.23.19,1,1,0,0,0-.16.31.92.92,0,0,0,0,.35.88.88,0,0,0,.07.29,1,1,0,0,0,.18.22,1.1,1.1,0,0,0,.26.15,1.325,1.325,0,0,0,.24.1l.27.09.28.08.25.07a.881.881,0,0,0,.58,0,.79.79,0,0,0,.39-.5.82.82,0,0,0,0-.64,1,1,0,0,0-.52-.46Z" transform="translate(-13678 8824.51)"/><path class="k" d="M50.25,512.59a2.641,2.641,0,0,1,.36-.67,1.57,1.57,0,0,1,.47-.43,1.11,1.11,0,0,1,.56-.17,1.6,1.6,0,0,1,.66.12,1.45,1.45,0,0,1,.67.49,1.32,1.32,0,0,1,.25.71l1.73-.18H55a.14.14,0,0,1,.08.07.2.2,0,0,1,0,.11l-.33.82a.24.24,0,0,1-.12.15h-.14l-1.55.16-.22.55,1.29.51a.2.2,0,0,1,.09.09.23.23,0,0,1,0,.14l-.32.79a.16.16,0,0,1-.09.09.15.15,0,0,1-.13,0l-3.89-1.54a.18.18,0,0,1-.1-.09.17.17,0,0,1,0-.14ZM51.8,514l.27-.68a.87.87,0,0,0,.07-.46.38.38,0,0,0-.28-.3.41.41,0,0,0-.42,0,1,1,0,0,0-.26.38l-.27.68Z" transform="translate(-13678 8824.51)"/><path class="k" d="M55.18,509.75a.31.31,0,0,1-.13,0l-1.23.09,1.93.93a.13.13,0,0,1,.09.1.15.15,0,0,1,0,.13l-.37.76a.15.15,0,0,1-.1.09.17.17,0,0,1-.14,0l-3.76-1.82a.13.13,0,0,1-.09-.1.12.12,0,0,1,0-.13l.32-.68a.23.23,0,0,1,.15-.14h.13l2.07-.16-1.16-1.72-.06-.13a.29.29,0,0,1,0-.2l.33-.68a.22.22,0,0,1,.1-.09.19.19,0,0,1,.13,0l3.77,1.82a.18.18,0,0,1,.09.1.15.15,0,0,1,0,.13l-.37.77a.14.14,0,0,1-.1.08.15.15,0,0,1-.13,0l-1.91-.9.7,1a.67.67,0,0,1,.06.12.23.23,0,0,1,0,.16l-.18.38a.21.21,0,0,1-.14.09Z" transform="translate(-13678 8824.51)"/><path class="k" d="M55,502.83a.27.27,0,0,1,.16-.14h.17l4.23.81h.1a.13.13,0,0,1,.07.09.12.12,0,0,1,0,.1l-.4.71c0,.08-.09.12-.14.13a.2.2,0,0,1-.13,0l-.55-.11-.86,1.49.37.43a.17.17,0,0,1,.06.11.3.3,0,0,1,0,.19l-.41.7a.13.13,0,0,1-.09.07.14.14,0,0,1-.11,0l-.07-.07-2.83-3.26a.35.35,0,0,1-.07-.15.26.26,0,0,1,0-.21Zm1.92,2.32.53-.91-1.61-.32Z" transform="translate(-13678 8824.51)"/><path class="k" d="M61,500a.215.215,0,0,1,.24-.08l.57.38a.15.15,0,0,1,.08.11.16.16,0,0,1,0,.13l-1.65,2.5a.14.14,0,0,1-.11.07.19.19,0,0,1-.13,0l-3.49-2.31a.14.14,0,0,1-.07-.11.15.15,0,0,1,0-.13l.47-.71a.14.14,0,0,1,.11-.07.19.19,0,0,1,.13,0l2.77,1.83Z" transform="translate(-13678 8824.51)"/><path class="k" d="M72.91,484.42a2,2,0,0,1-.29-.64,1.56,1.56,0,0,1,0-.68,2,2,0,0,1,.26-.67,2.32,2.32,0,0,1,.59-.63,2.292,2.292,0,0,1,.75-.4,1.83,1.83,0,0,1,.72-.09,1.689,1.689,0,0,1,.66.2,2,2,0,0,1,.54.44l.37.46c.12.16.23.31.33.46a2,2,0,0,1,.3.63,1.78,1.78,0,0,1,0,.69,1.68,1.68,0,0,1-.26.68,2.4,2.4,0,0,1-.58.62,2.709,2.709,0,0,1-.76.41,2,2,0,0,1-.72.08,1.639,1.639,0,0,1-.65-.2,1.67,1.67,0,0,1-.54-.45,5.67,5.67,0,0,1-.36-.44A3.47,3.47,0,0,1,72.91,484.42Zm2.94-.85-.15-.21c-.06-.08-.11-.16-.18-.24l-.18-.22-.16-.19a.877.877,0,0,0-.5-.29.79.79,0,0,0-.3,0,1.07,1.07,0,0,0-.31.17,1.161,1.161,0,0,0-.24.26.731.731,0,0,0-.1.28.68.68,0,0,0,0,.28,1.171,1.171,0,0,0,.13.28,1.863,1.863,0,0,0,.14.2c0,.08.11.15.17.23l.18.23.17.2a1,1,0,0,0,.51.29.79.79,0,0,0,.6-.2.71.71,0,0,0,.34-.53A.92.92,0,0,0,75.85,483.57Z" transform="translate(-13678 8824.51)"/><path class="k" d="M79.43,483.13a.35.35,0,0,1-.43,0l-3.36-2.61h0a.14.14,0,0,1,0-.11.15.15,0,0,1,.06-.09l.68-.46a.28.28,0,0,1,.18,0,.22.22,0,0,1,.12,0l2.34,1.86-.85-2.87a.28.28,0,0,1,0-.13.22.22,0,0,1,.12-.14l.68-.46a.12.12,0,0,1,.1,0,.15.15,0,0,1,.09.06h0v.06l1.16,4.09a.34.34,0,0,1-.14.41Z" transform="translate(-13678 8824.51)"/><path class="k" d="M84.25,478.9a.22.22,0,0,1,.14,0,.2.2,0,0,1,.1.08l.35.6a.19.19,0,0,1,0,.13.18.18,0,0,1-.08.11l-2.65,1.55a.19.19,0,0,1-.13,0,.18.18,0,0,1-.11-.08l-2.11-3.61a.15.15,0,0,1,0-.13.18.18,0,0,1,.08-.11l2.6-1.53a.15.15,0,0,1,.13,0,.18.18,0,0,1,.11.08l.35.59a.15.15,0,0,1,0,.13.18.18,0,0,1-.08.11l-1.72,1,.36.6,1.59-.94a.23.23,0,0,1,.14,0,.2.2,0,0,1,.1.08l.35.6a.15.15,0,0,1,0,.13.18.18,0,0,1-.08.11l-1.6.93.37.63Z" transform="translate(-13678 8824.51)"/><path class="k" d="M85.2,474.47a2.909,2.909,0,0,1,.72-.27,1.73,1.73,0,0,1,.64,0,1.13,1.13,0,0,1,.53.25,1.581,1.581,0,0,1,.41.52,1.48,1.48,0,0,1,.18.81,1.24,1.24,0,0,1-.29.7l1.42,1h0a.14.14,0,0,1,0,.11.13.13,0,0,1-.07.09l-.78.39a.3.3,0,0,1-.19,0,.4.4,0,0,1-.13-.07l-1.27-.91-.53.27.62,1.23a.14.14,0,0,1,0,.14.16.16,0,0,1-.08.1l-.76.38a.15.15,0,0,1-.13,0,.14.14,0,0,1-.1-.08l-1.89-3.74a.15.15,0,0,1,0-.13.14.14,0,0,1,.08-.1Zm.23,2.08.65-.33a.92.92,0,0,0,.36-.3.4.4,0,0,0,0-.41.39.39,0,0,0-.33-.26.88.88,0,0,0-.45.11l-.65.33Z" transform="translate(-13678 8824.51)"/><path class="k" d="M91.49,474.2,91,472a.24.24,0,0,1,0-.15.28.28,0,0,1,.1-.09l.78-.33H92a.16.16,0,0,1,.08.08.431.431,0,0,1,0,.05l.82,4.1a.34.34,0,0,1,0,.19.4.4,0,0,1-.18.16l-.49.21a.34.34,0,0,1-.22,0,.43.43,0,0,1-.17-.12l-1-1.16.12,1.54a.48.48,0,0,1,0,.2.26.26,0,0,1-.16.15l-.5.21a.31.31,0,0,1-.23,0,.3.3,0,0,1-.16-.12l-2.36-3.45h0a.11.11,0,0,1,0-.11.14.14,0,0,1,.07-.08l.79-.33a.24.24,0,0,1,.12,0,.2.2,0,0,1,.13.1l1.23,1.85-.1-1.23a.28.28,0,0,1,0-.13c0-.05,0-.09.13-.12l.56-.24a.17.17,0,0,1,.17,0,.3.3,0,0,1,.1.09Z" transform="translate(-13678 8824.51)"/><path class="k" d="M97.08,473.38a.15.15,0,0,1,.13,0,.13.13,0,0,1,.09.1l.22.65a.12.12,0,0,1,0,.13.18.18,0,0,1-.1.09l-2.9,1a.2.2,0,0,1-.13,0,.15.15,0,0,1-.09-.1l-1.35-4a.18.18,0,0,1,.11-.22l2.85-1a.155.155,0,0,1,.22.1l.23.64a.23.23,0,0,1,0,.14.22.22,0,0,1-.1.09l-1.89.64.23.66,1.75-.6a.2.2,0,0,1,.13,0,.21.21,0,0,1,.09.1l.22.65a.17.17,0,0,1,0,.14.14.14,0,0,1-.1.08l-1.75.6.23.69Z" transform="translate(-13678 8824.51)"/><path class="k" d="M98.42,474.07a.18.18,0,0,1-.14,0,.14.14,0,0,1-.08-.1l-1.17-4a.18.18,0,0,1,0-.14.14.14,0,0,1,.1-.08l.81-.24a.18.18,0,0,1,.14,0,.16.16,0,0,1,.08.1l1.17,4a.15.15,0,0,1,0,.13.14.14,0,0,1-.1.08Z" transform="translate(-13678 8824.51)"/><path class="k" d="M101.2,469.64a1,1,0,0,0-.35.15.63.63,0,0,0-.19.21.53.53,0,0,0-.08.27,4371.469,4371.469,0,0,0,0,.52.476.476,0,0,0,.07.3c.07.1,0,.2.07.3s0,.18.07.23a1.261,1.261,0,0,0,.13.26.73.73,0,0,0,.19.2.631.631,0,0,0,.28.1,1,1,0,0,0,.37,0,1.327,1.327,0,0,0,.3-.11.79.79,0,0,0,.22-.18.57.57,0,0,0,.12-.26.75.75,0,0,0,0-.33l-.53.12a.147.147,0,0,1-.21-.11l-.16-.66a.17.17,0,0,1,.13-.21l1.52-.37a.19.19,0,0,1,.13,0,.21.21,0,0,1,.08.11l.19.81a1.64,1.64,0,0,1,0,.76,1.62,1.62,0,0,1-.29.64,1.821,1.821,0,0,1-.54.49,2.54,2.54,0,0,1-1.58.37,2,2,0,0,1-.7-.23,1.57,1.57,0,0,1-.51-.45,2,2,0,0,1-.32-.62,2.471,2.471,0,0,0-.14-.55c-.05-.19-.09-.39-.12-.57a1.83,1.83,0,0,1,0-.7,1.59,1.59,0,0,1,.26-.63,1.84,1.84,0,0,1,.52-.52,2.55,2.55,0,0,1,.78-.33,2.34,2.34,0,0,1,.82-.06,2,2,0,0,1,.68.19,1.779,1.779,0,0,1,.49.34,1,1,0,0,1,.25.41.11.11,0,0,1,0,.11.13.13,0,0,1-.09.07l-.84.2a.21.21,0,0,1-.16,0l-.13-.08a.67.67,0,0,0-.29-.15.87.87,0,0,0-.44-.04Z" transform="translate(-13678 8824.51)"/><path class="k" d="M107.48,467.43a.15.15,0,0,1,.13,0,.2.2,0,0,1,.08.12l.69,4.12a.15.15,0,0,1,0,.13.19.19,0,0,1-.11.07l-.84.14a.15.15,0,0,1-.13,0,.16.16,0,0,1-.07-.11l-.26-1.57-1.42.24.26,1.57a.135.135,0,0,1-.11.2l-.84.14a.16.16,0,0,1-.13,0,.14.14,0,0,1-.07-.11l-.69-4.13a.135.135,0,0,1,.11-.2l.84-.14a.16.16,0,0,1,.13,0,.19.19,0,0,1,.07.11l.26,1.54,1.41-.24-.26-1.54a.22.22,0,0,1,0-.13.14.14,0,0,1,.11-.07Z" transform="translate(-13678 8824.51)"/><path class="k" d="M112.08,466.92a.16.16,0,0,1,.13,0,.14.14,0,0,1,.06.11l.07.69a.14.14,0,0,1,0,.13.2.2,0,0,1-.11.06l-1.14.12.35,3.3a.2.2,0,0,1,0,.13.14.14,0,0,1-.12.06l-.84.09a.2.2,0,0,1-.13,0,.14.14,0,0,1-.06-.12l-.35-3.3-1.13.12a.2.2,0,0,1-.13,0,.14.14,0,0,1-.06-.12l-.07-.68a.16.16,0,0,1,0-.13.14.14,0,0,1,.11-.06Z" transform="translate(-13678 8824.51)"/><path class="k" d="M133.39,470.05a2,2,0,0,1,.32-.63,1.69,1.69,0,0,1,.52-.44,1.91,1.91,0,0,1,.7-.21,2.13,2.13,0,0,1,.85.07,2.221,2.221,0,0,1,.78.34,2,2,0,0,1,.52.51,1.87,1.87,0,0,1,.23,1.34,2.575,2.575,0,0,1-.13.57c-.05.2-.1.38-.15.55a1.92,1.92,0,0,1-.32.62,1.729,1.729,0,0,1-.52.45,1.91,1.91,0,0,1-.7.21,2.55,2.55,0,0,1-.85-.07,2.33,2.33,0,0,1-.78-.34,1.68,1.68,0,0,1-.51-.52,1.62,1.62,0,0,1-.25-.64,2.06,2.06,0,0,1,0-.7,2.421,2.421,0,0,1,.13-.55C133.28,470.42,133.34,470.22,133.39,470.05Zm2.49,1.77a.345.345,0,0,1,.07-.24c.07-.09.05-.19.08-.29l.06-.28v-.24a1.09,1.09,0,0,0,0-.31.819.819,0,0,0-.1-.26.59.59,0,0,0-.2-.22.94.94,0,0,0-.32-.14,1.14,1.14,0,0,0-.36,0,.849.849,0,0,0-.28.1.63.63,0,0,0-.21.19,1.13,1.13,0,0,0-.13.27,1.349,1.349,0,0,0-.08.24,2.683,2.683,0,0,0-.07.27,1.365,1.365,0,0,1-.07.29c-.02.09,0,.18-.05.25a.87.87,0,0,0,.09.58.876.876,0,0,0,1.57-.21Z" transform="translate(-13678 8824.51)"/><path class="k" d="M137.44,474a.16.16,0,0,1-.1-.08.17.17,0,0,1,0-.14l1.29-4a.13.13,0,0,1,.09-.1.15.15,0,0,1,.13,0l2,.65a1.85,1.85,0,0,1,.66.34,1.339,1.339,0,0,1,.36.44,1.21,1.21,0,0,1,.11.49,1.51,1.51,0,0,1-.08.48,1,1,0,0,1-.14.3.851.851,0,0,1-.17.2.66.66,0,0,1-.16.11l-.13.06a.9.9,0,0,1,.21.5,1.23,1.23,0,0,1-.07.55,1.58,1.58,0,0,1-.23.47,1.1,1.1,0,0,1-.39.35,1.271,1.271,0,0,1-.53.16,1.9,1.9,0,0,1-.71-.1Zm1.28-.63,1,.32a.42.42,0,0,0,.33,0,.38.38,0,0,0,.2-.23.39.39,0,0,0,0-.3A.4.4,0,0,0,140,473l-1-.33Zm2-1.62a.34.34,0,0,0-.25-.48l-1-.31-.23.71,1,.3a.41.41,0,0,0,.31,0,.4.4,0,0,0,.17-.19Z" transform="translate(-13678 8824.51)"/><path class="k" d="M145,475.64a.18.18,0,0,1,.09.1.2.2,0,0,1,0,.13l-.26.64a.13.13,0,0,1-.09.09.2.2,0,0,1-.13,0l-2.86-1.13a.18.18,0,0,1-.09-.1.15.15,0,0,1,0-.13l1.54-3.89a.13.13,0,0,1,.09-.09.2.2,0,0,1,.13,0l2.81,1.11a.18.18,0,0,1,.09.1.2.2,0,0,1,0,.13l-.26.64a.16.16,0,0,1-.09.09.2.2,0,0,1-.13,0L144,472.6l-.25.65,1.72.68a.18.18,0,0,1,.09.1.15.15,0,0,1,0,.13l-.25.64a.168.168,0,0,1-.22.09l-1.73-.68-.26.67Z" transform="translate(-13678 8824.51)"/><path class="k" d="M148.86,473.5a2.26,2.26,0,0,1,1,1,1.5,1.5,0,0,1,.18.54,1,1,0,0,1-.05.46.14.14,0,0,1-.08.07.17.17,0,0,1-.1,0l-.77-.36a.31.31,0,0,1-.12-.09.409.409,0,0,1-.07-.11.46.46,0,0,1,0-.09.9.9,0,0,0-.07-.14.64.64,0,0,0-.14-.15.909.909,0,0,0-.24-.16l-.22-.08a.559.559,0,0,0-.21,0,.47.47,0,0,0-.17,0,.23.23,0,0,0-.12.12.25.25,0,0,0,0,.17.56.56,0,0,0,.14.2,2.149,2.149,0,0,0,.3.26l.49.37a3.432,3.432,0,0,1,.48.42,1.59,1.59,0,0,1,.29.44,1.08,1.08,0,0,1,.07.47,1.51,1.51,0,0,1-.14.51,1.14,1.14,0,0,1-.39.47,1.32,1.32,0,0,1-.56.22,1.841,1.841,0,0,1-.7,0,2.937,2.937,0,0,1-.76-.25,2.869,2.869,0,0,1-.68-.45,1.93,1.93,0,0,1-.43-.54,1.42,1.42,0,0,1-.19-.57.93.93,0,0,1,.06-.5.13.13,0,0,1,.08-.07.11.11,0,0,1,.11,0l.76.36a.23.23,0,0,1,.12.08.361.361,0,0,1,.07.1.811.811,0,0,1,0,.11.85.85,0,0,0,.08.17.62.62,0,0,0,.15.19.851.851,0,0,0,.28.18,1.759,1.759,0,0,0,.55.18.27.27,0,0,0,.32-.15.17.17,0,0,0,0-.18.93.93,0,0,0-.17-.22l-.35-.28-.5-.38a1.71,1.71,0,0,1-.68-.84,1.27,1.27,0,0,1,.1-.94,1,1,0,0,1,.34-.42,1.26,1.26,0,0,1,.52-.25,2,2,0,0,1,.65,0,2.51,2.51,0,0,1,.77.13Z" transform="translate(-13678 8824.51)"/><path class="k" d="M152.6,479.44a.16.16,0,0,1,.08.1.17.17,0,0,1,0,.14l-.33.6a.16.16,0,0,1-.1.08.22.22,0,0,1-.14,0l-2.69-1.47a.18.18,0,0,1-.08-.11.15.15,0,0,1,0-.13l2-3.67a.14.14,0,0,1,.1-.08.15.15,0,0,1,.13,0l2.65,1.45a.14.14,0,0,1,.08.1.15.15,0,0,1,0,.13l-.33.61a.2.2,0,0,1-.1.08.23.23,0,0,1-.14,0l-1.74-1-.34.61,1.62.89a.18.18,0,0,1,.09.1.17.17,0,0,1,0,.14l-.33.6a.14.14,0,0,1-.1.08.15.15,0,0,1-.13,0l-1.63-.89-.34.64Z" transform="translate(-13678 8824.51)"/><path class="k" d="M174.78,499.57v-.13l.53-1.11-1.76,1.23a.19.19,0,0,1-.13,0,.14.14,0,0,1-.11-.07l-.49-.69a.2.2,0,0,1,0-.13.15.15,0,0,1,.07-.12l3.43-2.39a.19.19,0,0,1,.13,0,.18.18,0,0,1,.11.08l.43.61a.23.23,0,0,1,.05.2.63.63,0,0,1,0,.13l-.88,1.89,2.08-.17h.13a.27.27,0,0,1,.17.12l.43.61a.32.32,0,0,1,0,.14.21.21,0,0,1-.08.11l-3.43,2.39a.15.15,0,0,1-.13,0,.16.16,0,0,1-.11-.07l-.48-.7a.15.15,0,0,1,0-.13.14.14,0,0,1,.07-.11l1.76-1.23-1.23.11a.349.349,0,0,1-.14,0,.22.22,0,0,1-.13-.09l-.23-.34A.2.2,0,0,1,174.78,499.57Z" transform="translate(-13678 8824.51)"/><path class="k" d="M178.15,501.5a1.78,1.78,0,0,1,.66-.22,1.56,1.56,0,0,1,.68.06,1.89,1.89,0,0,1,.64.34,2.32,2.32,0,0,1,.56.66,2.45,2.45,0,0,1,.31.79,2,2,0,0,1,0,.73,1.63,1.63,0,0,1-.28.63,1.91,1.91,0,0,1-.5.48c-.16.1-.32.21-.5.31l-.49.28a2.09,2.09,0,0,1-.67.21,1.729,1.729,0,0,1-.68,0,1.88,1.88,0,0,1-.65-.35,2.741,2.741,0,0,1-.86-1.45,1.93,1.93,0,0,1,0-.72,1.63,1.63,0,0,1,.28-.63,1.941,1.941,0,0,1,.5-.49l.49-.3A2.562,2.562,0,0,1,178.15,501.5Zm.48,3,.23-.12.26-.14.24-.15.21-.14a1.494,1.494,0,0,0,.22-.21.68.68,0,0,0,.12-.26.57.57,0,0,0,0-.29,1.14,1.14,0,0,0-.35-.6.87.87,0,0,0-.27-.14.66.66,0,0,0-.28,0,.81.81,0,0,0-.29.09l-.22.12-.25.14-.25.2-.22.15a.85.85,0,0,0-.34.46.93.93,0,0,0,.61,1,.89.89,0,0,0,.58-.1Z" transform="translate(-13678 8824.51)"/><path class="k" d="M183,506.7a2.91,2.91,0,0,1,.27.72,1.68,1.68,0,0,1,0,.63,1.12,1.12,0,0,1-.25.54,1.68,1.68,0,0,1-1.33.59,1.27,1.27,0,0,1-.7-.29l-1,1.42-.05.05a.14.14,0,0,1-.11,0,.1.1,0,0,1-.08-.07l-.4-.78a.23.23,0,0,1,0-.19.389.389,0,0,1,.06-.13l.91-1.27-.27-.53-1.23.63a.17.17,0,0,1-.14,0,.16.16,0,0,1-.1-.08l-.38-.76a.15.15,0,0,1,0-.13.14.14,0,0,1,.08-.1l3.73-1.89a.14.14,0,0,1,.14,0,.16.16,0,0,1,.1.08Zm-2.08.23.33.65a.84.84,0,0,0,.3.36.4.4,0,0,0,.41,0,.39.39,0,0,0,.26-.33.88.88,0,0,0-.11-.45l-.33-.65Z" transform="translate(-13678 8824.51)"/><path class="k" d="M180.14,511.15a.23.23,0,0,1,0-.14.15.15,0,0,1,.1-.09l3.84-1.65a.17.17,0,0,1,.14,0,.18.18,0,0,1,.09.1l.82,1.91a2,2,0,0,1,.18.72,1.37,1.37,0,0,1-.1.56,1.12,1.12,0,0,1-.3.41,1.489,1.489,0,0,1-.41.26,1.109,1.109,0,0,1-.32.09h-.26a.739.739,0,0,1-.19-.05h-.13a1,1,0,0,1-.23.48,1.479,1.479,0,0,1-.47.31,1.908,1.908,0,0,1-.51.13,1.089,1.089,0,0,1-.51-.06,1.129,1.129,0,0,1-.48-.3,1.771,1.771,0,0,1-.38-.59Zm1.32.54.42,1a.47.47,0,0,0,.23.25.4.4,0,0,0,.51-.23.42.42,0,0,0,0-.33l-.42-1Zm2.53.44a.38.38,0,0,0,.21-.2.43.43,0,0,0,0-.31l-.4-.92-.68.29.4.92a.37.37,0,0,0,.21.23.31.31,0,0,0,.27-.01Z" transform="translate(-13678 8824.51)"/><path class="k" d="M181.87,515.36a.15.15,0,0,1,0-.13.13.13,0,0,1,.09-.09l3.93-1.46a.2.2,0,0,1,.13,0,.18.18,0,0,1,.09.1l.29.79a.17.17,0,0,1,0,.14.18.18,0,0,1-.1.09l-3.92,1.45a.12.12,0,0,1-.13,0,.13.13,0,0,1-.09-.09Z" transform="translate(-13678 8824.51)"/><path class="k" d="M187.42,517.55a2.43,2.43,0,0,1,.12.82,1.9,1.9,0,0,1-.16.72,1.83,1.83,0,0,1-.42.58,2,2,0,0,1-.64.38l-.24.08-.2.07-.21.06-.23.07a2.428,2.428,0,0,1-.75.06,1.84,1.84,0,0,1-.66-.22,1.82,1.82,0,0,1-.55-.49,2.5,2.5,0,0,1-.37-.73l-.52-1.67a.15.15,0,0,1,0-.13.18.18,0,0,1,.1-.09l4-1.26a.15.15,0,0,1,.13,0,.18.18,0,0,1,.09.1ZM186,518.9a.74.74,0,0,0,.45-1.06l-.2-.63-2.35.74.21.66a.72.72,0,0,0,1,.58l.24-.07.22-.07.22-.07Z" transform="translate(-13678 8824.51)"/><path class="k" d="M185.66,524.35a.152.152,0,0,1-.11.22l-.66.16a.18.18,0,0,1-.14,0,.19.19,0,0,1-.08-.11l-.72-2.9a.18.18,0,0,1,0-.14.19.19,0,0,1,.11-.08l4.05-1a.152.152,0,0,1,.22.11l.2.82a.15.15,0,0,1,0,.13.13.13,0,0,1-.11.08l-3.22.81Z" transform="translate(-13678 8824.51)"/><path class="k" d="M185.29,526.93a.2.2,0,0,1-.13,0,.19.19,0,0,1-.07-.11l-.17-.84a.21.21,0,0,1,0-.13.19.19,0,0,1,.11-.07l1.36-.27,2.41-2a.09.09,0,0,1,.08,0,.12.12,0,0,1,.1,0,.15.15,0,0,1,.06.09l.17.87a.26.26,0,0,1,0,.2l-.08.1-1.41,1.1,1.72.5.11.06a.25.25,0,0,1,.1.18l.17.87a.14.14,0,0,1-.11.17h-.09l-3-.94Z" transform="translate(-13678 8824.51)"/><path class="k" d="M168.33,504.91a2,2,0,0,1,.66-.24,1.559,1.559,0,0,1,.68,0,2,2,0,0,1,.66.32,2.571,2.571,0,0,1,.57.64,2.5,2.5,0,0,1,.34.78,2,2,0,0,1,0,.73,1.59,1.59,0,0,1-.26.63,1.83,1.83,0,0,1-.49.51l-.48.32-.49.3a1.8,1.8,0,0,1-.66.23,1.56,1.56,0,0,1-.68,0,1.681,1.681,0,0,1-.66-.32,2.7,2.7,0,0,1-.57-.63,2.55,2.55,0,0,1-.34-.79,2,2,0,0,1,0-.72,1.8,1.8,0,0,1,.26-.64,1.94,1.94,0,0,1,.49-.5l.47-.32Zm.59,3,.23-.13.25-.15.24-.16.2-.14a1.08,1.08,0,0,0,.21-.22.681.681,0,0,0,.12-.26.76.76,0,0,0,0-.3,1.06,1.06,0,0,0-.38-.58.67.67,0,0,0-.27-.13.66.66,0,0,0-.28,0,1.11,1.11,0,0,0-.29.1l-.22.12-.24.16-.25.16-.2.15a.84.84,0,0,0-.34.48.76.76,0,0,0,.15.62.75.75,0,0,0,.5.38.83.83,0,0,0,.57-.11Z" transform="translate(-13678 8824.51)"/><path class="k" d="M168.54,510.58a.15.15,0,0,1,0-.13.18.18,0,0,1,.08-.11l3.69-2a.15.15,0,0,1,.13,0,.14.14,0,0,1,.1.08l1,1.84a2.239,2.239,0,0,1,.24.7,1.5,1.5,0,0,1,0,.57,1.451,1.451,0,0,1-.26.43,1.521,1.521,0,0,1-.39.29,1.219,1.219,0,0,1-.31.12.8.8,0,0,1-.26,0,.6.6,0,0,1-.2,0h-.13a1,1,0,0,1-.19.5,1.33,1.33,0,0,1-.44.35,1.812,1.812,0,0,1-.49.18,1.3,1.3,0,0,1-.52,0,1.409,1.409,0,0,1-.5-.26,1.841,1.841,0,0,1-.43-.56Zm1.37.43.5.94a.41.41,0,0,0,.25.22.4.4,0,0,0,.3,0,.36.36,0,0,0,.19-.24.41.41,0,0,0,0-.32l-.51-.95Zm2.56.21a.39.39,0,0,0,.19-.21.45.45,0,0,0,0-.31l-.48-.88-.65.34.47.89a.46.46,0,0,0,.23.21.34.34,0,0,0,.24-.04Z" transform="translate(-13678 8824.51)"/><path class="k" d="M172.82,517a.17.17,0,0,1,0,.14.12.12,0,0,1-.09.09l-.62.28a.23.23,0,0,1-.14,0,.19.19,0,0,1-.1-.1l-1.24-2.8a.17.17,0,0,1,0-.14.2.2,0,0,1,.09-.09l3.82-1.7a.17.17,0,0,1,.14,0,.2.2,0,0,1,.09.09l1.23,2.76a.15.15,0,0,1,0,.13.18.18,0,0,1-.09.1l-.63.28a.15.15,0,0,1-.13,0,.18.18,0,0,1-.1-.09l-.81-1.82-.64.28.75,1.69a.23.23,0,0,1,0,.14.18.18,0,0,1-.1.09l-.62.28a.17.17,0,0,1-.14,0,.12.12,0,0,1-.09-.09l-.75-1.69-.67.29Z" transform="translate(-13678 8824.51)"/><path class="k" d="M177.09,518.21a2.27,2.27,0,0,1,0,1.42,1.571,1.571,0,0,1-.25.52.84.84,0,0,1-.36.28.14.14,0,0,1-.11,0,.11.11,0,0,1-.07-.08l-.29-.8a.24.24,0,0,1,0-.14.31.31,0,0,1,0-.13v-.08a.53.53,0,0,0,0-.15.7.7,0,0,0,0-.21.83.83,0,0,0-.06-.28l-.09-.22-.12-.17a.45.45,0,0,0-.14-.1.251.251,0,0,0-.17,0,.24.24,0,0,0-.14.12.63.63,0,0,0,0,.23,3.282,3.282,0,0,0,0,.4,2.563,2.563,0,0,0,.09.6,3.829,3.829,0,0,1,0,.65,1.59,1.59,0,0,1-.11.51,1.08,1.08,0,0,1-.28.38,1.35,1.35,0,0,1-.46.26,1.08,1.08,0,0,1-.61.06,1.26,1.26,0,0,1-.56-.24,2.548,2.548,0,0,1-.48-.5,3.46,3.46,0,0,1-.36-.72,2.64,2.64,0,0,1-.16-.8,2.181,2.181,0,0,1,.08-.69,1.64,1.64,0,0,1,.26-.53.94.94,0,0,1,.41-.31.13.13,0,0,1,.18.08l.28.8a.39.39,0,0,1,0,.14.35.35,0,0,1,0,.12.888.888,0,0,0,0,.1.54.54,0,0,0-.07.17.9.9,0,0,0,0,.24.85.85,0,0,0,.07.33,1.729,1.729,0,0,0,.26.51.28.28,0,0,0,.33.13.21.21,0,0,0,.12-.14,1,1,0,0,0,0-.28v-.44a6.178,6.178,0,0,0-.09-.62,1.82,1.82,0,0,1,.12-1.08,1.32,1.32,0,0,1,1.27-.65,1.29,1.29,0,0,1,.55.19,2,2,0,0,1,.48.44A2.591,2.591,0,0,1,177.09,518.21Z" transform="translate(-13678 8824.51)"/><path class="k" d="M175.48,525.07a.2.2,0,0,1,0,.13.18.18,0,0,1-.11.08l-.66.19a.15.15,0,0,1-.13,0,.22.22,0,0,1-.09-.1l-.82-3a.15.15,0,0,1,0-.13.18.18,0,0,1,.11-.08l4-1.13a.18.18,0,0,1,.14,0,.16.16,0,0,1,.08.1l.81,2.91a.15.15,0,0,1,0,.13.18.18,0,0,1-.11.08l-.66.19a.2.2,0,0,1-.13,0,.16.16,0,0,1-.08-.1l-.54-1.92-.67.18.5,1.79a.2.2,0,0,1,0,.13.18.18,0,0,1-.11.08l-.66.19a.2.2,0,0,1-.13,0,.16.16,0,0,1-.08-.1l-.5-1.79-.7.2Z" transform="translate(-13678 8824.51)"/><path class="l" d="M115.27,535.11h12s-21-30.63-39.52-46.54a.57.57,0,0,0-.9.66C94,505.74,108.25,525.71,115.27,535.11Z" transform="translate(-13678 8824.51)"/><path class="k" d="M93,501.56a.1.1,0,0,1-.08-.05l-4.86-9.41a.092.092,0,1,1,.13-.13l4.86,9.41a.11.11,0,0,1,0,.13Z" transform="translate(-13678 8824.51)"/></g></svg>