<svg id="Capa_1" enable-background="new 0 0 512.026 512.026" height="512" viewBox="0 0 512.026 512.026" width="512" xmlns="http://www.w3.org/2000/svg"><g><path d="m376.017 338.288-143 143c-40.93 40.93-107.56 40.94-148.5 0l-53.74-53.74c-41.03-41.05-41.04-107.44 0-148.5l143-143c40.94-40.94 107.56-40.94 148.5 0 6.83 6.83 11.47 11.47 16.26 16.26 0 0-4.14 7.69 4.69 16.53 8.84 8.83 16.53 4.69 16.53 4.69l16.26 16.26c40.939 40.939 40.939 107.56 0 148.5z" fill="#7fa6fb"/><path d="m376.017 338.288-143 143c-40.93 40.93-107.56 40.94-148.5 0l-26.87-26.87 285.58-285.58c8.84 8.83 16.53 4.69 16.53 4.69l16.26 16.26c40.939 40.939 40.939 107.56 0 148.5z" fill="#6693fb"/><path d="m291.386 241.897c8.566 17.213 6.053 39.204-8.88 54.12l-11.31 11.32c-18.295 18.295-48.124 18.346-66.47 0-18.287-18.307-18.429-48.02 0-66.47l11.32-11.31c14.92-14.936 36.912-17.443 54.12-8.88.907-.952-6.662 6.662 68.37-68.37 13.099 13.098 8.191 8.191 21.22 21.22z" fill="#dfe5f2"/><path d="m291.386 241.897c8.566 17.213 6.053 39.204-8.88 54.12l-11.31 11.32c-18.295 18.295-48.124 18.346-66.47 0l144.42-144.42 10.61 10.61z" fill="#c7cdde"/><path d="m447.026 128.037c0 8.28-6.72 15-15 15s-15-6.72-15-15c0-18.185-14.799-33-33-33-8.28 0-15-6.72-15-15s6.72-15 15-15c34.754 0 63 28.259 63 63z" fill="#e27a4e"/><path d="m428.557 83.507c11.41 11.41 18.47 27.16 18.47 44.53 0 8.28-6.72 15-15 15s-15-6.72-15-15c0-9.1-3.7-17.35-9.68-23.32z" fill="#dc455b"/><path d="m512.026 127.037c0 8.28-6.72 15-15 15s-15-6.72-15-15c0-53.502-43.517-97-97-97-8.28 0-15-6.72-15-15s6.72-15 15-15c70.014 0 127 56.959 127 127z" fill="#9cd6f4"/><path d="m512.026 127.037c0 8.28-6.72 15-15 15s-15-6.72-15-15c0-26.74-10.88-51-28.44-68.56l21.2-21.2c23 23.001 37.24 54.74 37.24 89.76z" fill="#7fa6fb"/></g></svg>