<svg xmlns="http://www.w3.org/2000/svg" width="121.14" height="121.15" viewBox="0 0 121.14 121.15"><defs><style>.a{fill:#0af;}</style></defs><g transform="translate(13240.04 -8923.74)"><path class="a" d="M461.63,136.14h13.23V122.9a23.667,23.667,0,1,1,47.335,0l-.005,13.24h13.24a23.668,23.668,0,1,1,0,47.335l-13.24-.005v13.24a23.668,23.668,0,1,1-47.335,0l.005-13.24H461.63a23.667,23.667,0,1,1,0-47.335Zm.34,35.3h30.14a6,6,0,0,1,6,6h0a6,6,0,0,1-6,6h-5.22v12.89a11.85,11.85,0,0,0,10.51,11.92,11.64,11.64,0,0,0,12.76-11.57V166.22a6,6,0,0,1,6-6h0a6,6,0,0,1,6,6v5.22h12.9A11.87,11.87,0,0,0,547,160.93a11.65,11.65,0,0,0-11.58-12.76H504.94a6,6,0,0,1-6-6h0a6,6,0,0,1,6-6h5.22v-12.9a11.87,11.87,0,0,0-10.51-11.92,11.65,11.65,0,0,0-12.76,11.58v30.49a6,6,0,0,1-6,6h0a6,6,0,0,1-6-6V148.2H461.63a11.64,11.64,0,0,0-11.58,12.76A11.85,11.85,0,0,0,462,171.44Z" transform="translate(-13678 8824.51)"/></g></svg>