<svg xmlns="http://www.w3.org/2000/svg" xmlns:xlink="http://www.w3.org/1999/xlink" width="143.41" height="239.146" viewBox="0 0 143.41 239.146"><defs><style>.a,.aa,.ab,.ac,.ad,.ae,.af,.ag,.ah,.ai,.aj,.ak,.al,.am,.an,.ao,.ap,.aq,.ar,.as,.at,.au,.av,.aw,.ax,.ay,.az,.b,.ba,.bb,.bc,.bd,.be,.bf,.bg,.bh,.bi,.bj,.bk,.bl,.bm,.bn,.bo,.bp,.bq,.br,.bs,.bt,.bu,.bv,.bw,.bx,.by,.bz,.c,.ca,.cb,.cc,.cd,.ce,.cf,.cg,.ch,.ci,.cj,.ck,.cl,.cm,.cn,.co,.cp,.cq,.cr,.cs,.ct,.cu,.cv,.cx,.cy,.cz,.d,.dc,.de,.df,.dg,.dh,.di,.dj,.dk,.dl,.e,.f,.g,.h,.i,.j,.k,.l,.m,.n,.o,.p,.q,.r,.s,.t,.u,.v,.w,.x,.y,.z{fill-rule:evenodd;}.a{fill:url(#a);}.b,.cr{opacity:0.8;}.b{fill:url(#b);}.c{fill:url(#c);}.d{fill:#fff;}.e{fill:#811734;}.aa,.ae,.af,.ag,.am,.as,.ay,.bd,.bi,.bo,.bt,.dg,.dh,.dl,.e,.f,.g,.i,.o,.p,.r,.y{opacity:0.5;}.f{fill:url(#d);}.g{fill:#a70034;}.h{fill:#ffa425;}.i{fill:url(#e);}.j{fill:url(#f);}.k{fill:url(#g);}.l{fill:url(#h);}.m{fill:url(#i);}.n{fill:url(#j);}.o,.q{fill:#fbf9fa;}.p{fill:url(#k);}.cq,.q{opacity:0.6;}.r{fill:url(#l);}.s{fill:url(#m);}.t{fill:url(#n);}.u{fill:url(#o);}.v{fill:#5ce5ff;}.w{fill:url(#p);}.x{fill:#afa4c6;opacity:0.3;}.y{fill:url(#q);}.z{fill:url(#r);}.aa{fill:url(#s);}.ab{fill:url(#t);}.ac{fill:url(#u);}.ad{fill:url(#v);}.ae{fill:url(#w);}.af{fill:url(#x);}.ag{fill:#7e6da5;}.ah{fill:url(#y);}.ai{fill:url(#z);}.aj{fill:url(#aa);}.ak{fill:url(#ab);}.al{fill:url(#ac);}.am{fill:url(#ad);}.an{fill:url(#ae);}.ao{fill:url(#af);}.ap{fill:url(#ag);}.aq{fill:url(#ah);}.ar{fill:url(#ai);}.as{fill:url(#aj);}.at{fill:url(#ak);}.au{fill:url(#al);}.av{fill:url(#am);}.aw{fill:url(#an);}.ax{fill:url(#ao);}.ay{fill:url(#ap);}.az{fill:url(#aq);}.ba{fill:url(#ar);}.bb{fill:url(#as);}.bc{fill:url(#at);}.bd{fill:url(#au);}.be{fill:url(#av);}.bf{fill:url(#aw);}.bg{fill:url(#ax);}.bh{fill:url(#ay);}.bi{fill:url(#az);}.bj{fill:url(#ba);}.bk{fill:url(#bb);}.bl{fill:url(#bc);}.bm{fill:url(#bd);}.bn{fill:url(#be);}.bo{fill:url(#bf);}.bp{fill:url(#bg);}.bq{fill:url(#bh);}.br{fill:url(#bi);}.bs{fill:url(#bj);}.bt{fill:url(#bk);}.bu{fill:url(#bl);}.bv{fill:url(#bm);}.bw{fill:url(#bn);}.bx{fill:url(#bo);}.by{fill:url(#bp);}.bz{fill:url(#bq);}.ca{fill:#d1b6ce;}.cb{fill:url(#br);}.cc{fill:url(#bs);}.cd{fill:url(#bt);}.ce{fill:url(#bu);}.cf{fill:url(#bv);}.cg{fill:url(#bw);}.ch{fill:url(#bx);}.ci{fill:url(#by);}.cj{fill:url(#bz);}.ck{fill:url(#ca);}.cl{fill:url(#cb);}.cm{fill:url(#cc);}.cn{fill:url(#cd);}.co{fill:url(#ce);}.cp{fill:url(#cf);}.cq{fill:#fbf9ce;}.cr{fill:url(#cg);}.cs{fill:url(#ch);}.ct{fill:url(#ci);}.cu{fill:url(#cj);}.cv{fill:url(#ck);}.cw{fill:url(#cl);}.cx{fill:url(#cm);}.cy{fill:url(#cn);}.cz{fill:url(#co);}.da{fill:url(#cp);}.db{fill:url(#cq);}.dc{fill:url(#cr);}.dd{fill:url(#cs);}.de{fill:url(#ct);}.df{fill:url(#cu);}.dg{fill:url(#cv);}.dh{fill:url(#cw);}.di{fill:url(#cx);}.dj{fill:url(#cy);}.dk{fill:url(#cz);}.dl{fill:url(#da);}</style><linearGradient id="a" x1="0.869" y1="0.625" x2="0.869" y2="-0.171" gradientUnits="objectBoundingBox"><stop offset="0" stop-color="#93221b"/><stop offset="1" stop-color="#a63333"/></linearGradient><linearGradient id="b" x1="-2.576" y1="2.57" x2="-2.576" y2="1.565" gradientUnits="objectBoundingBox"><stop offset="0" stop-color="#ff6e27"/><stop offset="1" stop-color="#ff5747"/></linearGradient><linearGradient id="c" x1="-3.239" y1="2.676" x2="-3.239" y2="1.672" gradientUnits="objectBoundingBox"><stop offset="0.01" stop-color="#ff9427"/><stop offset="1" stop-color="#e03347"/></linearGradient><linearGradient id="d" x1="-6.439" y1="3.281" x2="-5.902" y2="3.281" gradientUnits="objectBoundingBox"><stop offset="0.6"/><stop offset="1" stop-color="#ffdbce"/></linearGradient><linearGradient id="e" x1="-98.272" y1="3.188" x2="-98.272" y2="2.199" gradientUnits="objectBoundingBox"><stop offset="0"/><stop offset="1" stop-color="#92acc4"/></linearGradient><radialGradient id="f" cx="0.497" cy="0.851" r="0.525" gradientTransform="matrix(1.679, 0.057, -0.096, 0.998, 0.397, 0.014)" gradientUnits="objectBoundingBox"><stop offset="0" stop-color="#5178fe"/><stop offset="0.99" stop-color="#713592"/></radialGradient><linearGradient id="g" x1="-0.876" y1="15.881" x2="0.106" y2="15.142" gradientUnits="objectBoundingBox"><stop offset="0" stop-color="#ede5f3"/><stop offset="0.98" stop-color="#c7b5e3"/></linearGradient><linearGradient id="h" x1="-0.401" y1="53.551" x2="-0.383" y2="51.899" gradientUnits="objectBoundingBox"><stop offset="0" stop-color="#fff3ff"/><stop offset="0.98" stop-color="#e7e2ee"/></linearGradient><linearGradient id="i" x1="-0.998" y1="71.152" x2="-0.037" y2="68.22" xlink:href="#g"/><linearGradient id="j" x1="-0.528" y1="81.139" x2="-0.51" y2="79.022" xlink:href="#h"/><linearGradient id="k" x1="-1.702" y1="3.217" x2="-0.912" y2="3.217" xlink:href="#d"/><linearGradient id="l" x1="-2.122" y1="3.539" x2="-2.122" y2="2.541" xlink:href="#e"/><linearGradient id="m" x1="0.106" y1="2.958" x2="-0.001" y2="1.972" gradientUnits="objectBoundingBox"><stop offset="0" stop-color="#ff5c1b"/><stop offset="1" stop-color="#e03347"/></linearGradient><linearGradient id="n" x1="-0.892" y1="25.154" x2="0.108" y2="25.154" gradientUnits="objectBoundingBox"><stop offset="0.02" stop-color="#d697e3"/><stop offset="1" stop-color="#ede5f3"/></linearGradient><radialGradient id="o" cx="0.487" cy="0.561" r="1.087" gradientTransform="matrix(0.334, 0.122, -0.041, 0.993, 0.38, 0.127)" gradientUnits="objectBoundingBox"><stop offset="0" stop-color="#00e0ff"/><stop offset="0.99" stop-color="#1f84ff"/></radialGradient><radialGradient id="p" cx="-0.346" cy="26.152" r="1.918" gradientTransform="translate(0.407) scale(0.186 1)" xlink:href="#o"/><linearGradient id="q" x1="-0.552" y1="3.24" x2="-0.552" y2="2.245" gradientUnits="objectBoundingBox"><stop offset="0"/><stop offset="1" stop-color="#c7ac75"/></linearGradient><linearGradient id="r" x1="-2.657" y1="1.024" x2="-1.598" y2="0.819" gradientUnits="objectBoundingBox"><stop offset="0" stop-color="#ededff"/><stop offset="0.98" stop-color="#d1d1eb"/></linearGradient><linearGradient id="s" x1="-88.041" y1="2.202" x2="-87.606" y2="2.202" xlink:href="#q"/><radialGradient id="t" cx="0.512" cy="0.504" r="0.384" gradientTransform="matrix(1.106, -0.317, 0.37, 0.948, -0.287, 0.932)" gradientUnits="objectBoundingBox"><stop offset="0" stop-color="#b3819d"/><stop offset="1" stop-color="#785ca6"/></radialGradient><linearGradient id="u" x1="3.096" y1="0.401" x2="2.82" y2="-0.547" gradientUnits="objectBoundingBox"><stop offset="0" stop-color="#b2c9ff"/><stop offset="0.21" stop-color="#8e7bbb"/><stop offset="1" stop-color="#f6ecf2"/></linearGradient><linearGradient id="v" x1="-23.144" y1="-0.802" x2="-23.005" y2="-0.801" gradientUnits="objectBoundingBox"><stop offset="0" stop-color="#f6ecf2"/><stop offset="1" stop-color="#aa9ccc"/></linearGradient><linearGradient id="w" x1="11.735" y1="-0.508" x2="11.828" y2="-0.507" gradientUnits="objectBoundingBox"><stop offset="0.36"/><stop offset="1" stop-color="#e5efe5"/></linearGradient><linearGradient id="x" x1="10.017" y1="-4.225" x2="11.034" y2="-4.225" gradientUnits="objectBoundingBox"><stop offset="0" stop-color="#e5efe5"/><stop offset="1" stop-color="#603157"/></linearGradient><radialGradient id="y" cx="0.506" cy="0.515" r="0.65" gradientTransform="matrix(0.562, -0.317, 0.188, 0.948, 6.42, 3.638)" gradientUnits="objectBoundingBox"><stop offset="0" stop-color="#ebd7e3"/><stop offset="0.38" stop-color="#d8c6dc"/><stop offset="0.98" stop-color="#bdafd2"/></radialGradient><linearGradient id="z" x1="12.602" y1="-5.085" x2="12.4" y2="-6.05" gradientUnits="objectBoundingBox"><stop offset="0.02" stop-color="#d6cee3"/><stop offset="1" stop-color="#f4efff"/></linearGradient><linearGradient id="aa" x1="13.287" y1="-5.402" x2="13.084" y2="-6.368" gradientUnits="objectBoundingBox"><stop offset="0.02" stop-color="#e2dceb"/><stop offset="1" stop-color="#fff"/></linearGradient><linearGradient id="ab" x1="-235.718" y1="-17.637" x2="-236.47" y2="-18.571" xlink:href="#z"/><linearGradient id="ac" x1="12.884" y1="-6.996" x2="13.952" y2="-6.996" gradientUnits="objectBoundingBox"><stop offset="0" stop-color="#fff"/><stop offset="1"/></linearGradient><linearGradient id="ad" x1="9.732" y1="-4.137" x2="10.749" y2="-4.137" xlink:href="#x"/><radialGradient id="ae" cx="12.005" cy="-5.279" r="0.65" gradientTransform="translate(0.204) scale(0.592 1)" xlink:href="#y"/><linearGradient id="af" x1="12.277" y1="-4.987" x2="12.075" y2="-5.952" xlink:href="#z"/><linearGradient id="ag" x1="12.827" y1="-5.297" x2="12.625" y2="-6.26" xlink:href="#aa"/><linearGradient id="ah" x1="-239.253" y1="-17.466" x2="-240.007" y2="-18.398" xlink:href="#z"/><linearGradient id="ai" x1="12.544" y1="-6.879" x2="13.615" y2="-6.879" xlink:href="#ac"/><linearGradient id="aj" x1="9.464" y1="-4.074" x2="10.482" y2="-4.074" xlink:href="#x"/><radialGradient id="ak" cx="11.68" cy="-5.204" r="0.651" gradientTransform="translate(0.205) scale(0.591 1)" xlink:href="#y"/><linearGradient id="al" x1="11.945" y1="-4.895" x2="11.742" y2="-5.859" xlink:href="#z"/><linearGradient id="am" x1="12.541" y1="-5.176" x2="12.338" y2="-6.137" xlink:href="#aa"/><linearGradient id="an" x1="-241.596" y1="-17.256" x2="-242.351" y2="-18.188" xlink:href="#z"/><linearGradient id="ao" x1="12.165" y1="-6.767" x2="13.233" y2="-6.767" xlink:href="#ac"/><linearGradient id="ap" x1="9.154" y1="-3.997" x2="10.172" y2="-3.997" xlink:href="#x"/><radialGradient id="aq" cx="11.323" cy="-5.092" r="0.65" gradientTransform="translate(0.204) scale(0.592 1)" xlink:href="#y"/><linearGradient id="ar" x1="11.581" y1="-4.791" x2="11.378" y2="-5.757" xlink:href="#z"/><linearGradient id="as" x1="12.142" y1="-5.1" x2="11.94" y2="-6.064" xlink:href="#aa"/><linearGradient id="at" x1="-242.958" y1="-17.109" x2="-243.709" y2="-18.042" xlink:href="#z"/><linearGradient id="au" x1="10.095" y1="-3.453" x2="11.113" y2="-3.453" xlink:href="#x"/><radialGradient id="av" cx="12.423" cy="-4.446" r="0.651" gradientTransform="translate(0.205) scale(0.591 1)" xlink:href="#y"/><linearGradient id="aw" x1="12.709" y1="-4.129" x2="12.507" y2="-5.096" xlink:href="#z"/><linearGradient id="ax" x1="13.348" y1="-4.383" x2="13.145" y2="-5.347" xlink:href="#aa"/><linearGradient id="ay" x1="-236.238" y1="-15.873" x2="-236.988" y2="-16.807" xlink:href="#z"/><linearGradient id="az" x1="9.828" y1="-3.398" x2="10.848" y2="-3.398" xlink:href="#x"/><radialGradient id="ba" cx="12.098" cy="-4.356" r="0.651" gradientTransform="translate(0.204) scale(0.591 1)" xlink:href="#y"/><linearGradient id="bb" x1="12.396" y1="-4.031" x2="12.193" y2="-4.996" xlink:href="#z"/><linearGradient id="bc" x1="12.998" y1="-4.284" x2="12.795" y2="-5.247" xlink:href="#aa"/><linearGradient id="bd" x1="-237.445" y1="-15.702" x2="-238.192" y2="-16.635" xlink:href="#z"/><linearGradient id="be" x1="12.62" y1="-5.706" x2="13.688" y2="-5.706" xlink:href="#ac"/><linearGradient id="bf" x1="9.535" y1="-3.324" x2="10.554" y2="-3.324" gradientUnits="objectBoundingBox"><stop offset="0" stop-color="#e5efe5"/><stop offset="0.48" stop-color="#603157"/><stop offset="0.98" stop-color="#91708a"/></linearGradient><radialGradient id="bg" cx="11.773" cy="-4.254" r="0.65" gradientTransform="translate(0.204) scale(0.592 1)" xlink:href="#y"/><linearGradient id="bh" x1="12.038" y1="-3.934" x2="11.836" y2="-4.898" xlink:href="#z"/><linearGradient id="bi" x1="12.645" y1="-4.19" x2="12.443" y2="-5.155" xlink:href="#aa"/><linearGradient id="bj" x1="-240.958" y1="-15.496" x2="-241.708" y2="-16.428" xlink:href="#z"/><linearGradient id="bk" x1="9.248" y1="-3.247" x2="10.268" y2="-3.247" xlink:href="#bf"/><radialGradient id="bl" cx="11.412" cy="-4.168" r="0.651" gradientTransform="translate(0.205) scale(0.591 1)" xlink:href="#y"/><linearGradient id="bm" x1="11.672" y1="-3.831" x2="11.47" y2="-4.797" xlink:href="#z"/><linearGradient id="bn" x1="12.258" y1="-4.08" x2="12.055" y2="-5.043" xlink:href="#aa"/><linearGradient id="bo" x1="-243.512" y1="-15.346" x2="-244.262" y2="-16.278" xlink:href="#z"/><linearGradient id="bp" x1="11.794" y1="-6.643" x2="12.864" y2="-6.643" xlink:href="#ac"/><linearGradient id="bq" x1="-16.339" y1="0.72" x2="-16.339" y2="-0.277" gradientUnits="objectBoundingBox"><stop offset="0" stop-color="#ff691b"/><stop offset="1" stop-color="#fe6a3b"/></linearGradient><linearGradient id="br" x1="10.759" y1="-5.077" x2="11.103" y2="-5.077" gradientUnits="objectBoundingBox"><stop offset="0" stop-color="#e3e3ff"/><stop offset="0.98" stop-color="#e0d1eb"/></linearGradient><linearGradient id="bs" x1="42.631" y1="-29.085" x2="43.862" y2="-29.085" xlink:href="#br"/><linearGradient id="bt" x1="-11.136" y1="-7.809" x2="-11.136" y2="-8.808" xlink:href="#h"/><radialGradient id="bu" cx="0.97" cy="0.25" r="0.484" gradientTransform="matrix(0.634, -0.582, 0.525, 0.942, 33.001, 18.431)" gradientUnits="objectBoundingBox"><stop offset="0" stop-color="#7c65e0"/><stop offset="0.99" stop-color="#954cb8"/></radialGradient><linearGradient id="bv" x1="22.782" y1="-20.79" x2="23.947" y2="-20.79" xlink:href="#br"/><linearGradient id="bw" x1="23.637" y1="-22.529" x2="24.846" y2="-22.529" xlink:href="#h"/><linearGradient id="bx" x1="37.204" y1="-35.776" x2="38.412" y2="-35.776" gradientUnits="objectBoundingBox"><stop offset="0" stop-color="#c2c9f3"/><stop offset="0.98" stop-color="#c7b5e3"/></linearGradient><linearGradient id="by" x1="18.909" y1="-8.865" x2="18.909" y2="-9.888" xlink:href="#h"/><linearGradient id="bz" x1="25.588" y1="-31.268" x2="26.399" y2="-31.268" xlink:href="#n"/><linearGradient id="ca" x1="-19.709" y1="-12.781" x2="-19.709" y2="-13.949" gradientUnits="objectBoundingBox"><stop offset="0" stop-color="#fff3ff"/><stop offset="0.98" stop-color="#f6f4f9"/></linearGradient><linearGradient id="cb" x1="-18.288" y1="-12.544" x2="-18.288" y2="-13.701" gradientUnits="objectBoundingBox"><stop offset="0" stop-color="#ede5f3"/><stop offset="0.99" stop-color="#d6ace3"/></linearGradient><linearGradient id="cc" x1="-24.505" y1="-38.555" x2="-24.505" y2="-39.595" xlink:href="#cb"/><linearGradient id="cd" x1="23.774" y1="-21.186" x2="24.941" y2="-21.186" xlink:href="#br"/><linearGradient id="ce" x1="24.605" y1="-22.978" x2="25.813" y2="-22.978" xlink:href="#h"/><linearGradient id="cf" x1="0.802" y1="0.876" x2="0.802" y2="-0.084" gradientUnits="objectBoundingBox"><stop offset="0" stop-color="#ff8647"/><stop offset="1" stop-color="#ffb934"/></linearGradient><linearGradient id="cg" x1="1.098" y1="0.709" x2="1.098" y2="-0.168" gradientUnits="objectBoundingBox"><stop offset="0.4" stop-color="#fff"/><stop offset="1" stop-color="#f492bb"/></linearGradient><linearGradient id="ch" x1="-53.805" y1="-4.74" x2="-53.805" y2="-5.755" gradientUnits="objectBoundingBox"><stop offset="0" stop-color="#ff8647"/><stop offset="1" stop-color="#e68434"/></linearGradient><linearGradient id="ci" x1="11.515" y1="-1.265" x2="11.515" y2="-2.243" gradientUnits="objectBoundingBox"><stop offset="0.02" stop-color="#a49ac6"/><stop offset="1" stop-color="#c8c7df"/></linearGradient><radialGradient id="cj" cx="0.151" cy="0.402" r="0.609" gradientTransform="matrix(1.406, -0.245, 0.319, 0.868, -18.338, 8.429)" xlink:href="#y"/><linearGradient id="ck" x1="10.997" y1="-1.243" x2="10.997" y2="-2.258" xlink:href="#z"/><linearGradient id="cl" x1="12.049" y1="-1.376" x2="12.049" y2="-2.376" xlink:href="#aa"/><radialGradient id="cm" cx="0.317" cy="-0.176" r="0.36" gradientTransform="matrix(2.538, -0.248, 0.863, 1.288, 55.814, 34.547)" gradientUnits="objectBoundingBox"><stop offset="0" stop-color="#ebd7e3"/><stop offset="0.98" stop-color="#bdafd2"/></radialGradient><linearGradient id="cn" x1="12.075" y1="-0.352" x2="12.075" y2="-1.339" xlink:href="#ci"/><radialGradient id="co" cx="0.149" cy="0.504" r="0.615" gradientTransform="matrix(1.539, -0.134, 0.187, 0.89, -21.007, 10.24)" xlink:href="#y"/><linearGradient id="cp" x1="10.79" y1="-0.314" x2="10.79" y2="-1.313" xlink:href="#z"/><linearGradient id="cq" x1="11.543" y1="-0.409" x2="11.543" y2="-1.409" xlink:href="#aa"/><radialGradient id="cr" cx="0.316" cy="1.035" r="0.355" gradientTransform="matrix(3.7, -0.136, 0.673, 1.31, 40.262, 57.658)" xlink:href="#cm"/><radialGradient id="cs" cx="0.741" cy="0.544" r="0.732" gradientTransform="matrix(0.708, 0.706, -0.706, 0.708, 1.222, -11.496)" gradientUnits="objectBoundingBox"><stop offset="0" stop-color="#ffe534"/><stop offset="0.8" stop-color="#ff9a47"/><stop offset="0.98" stop-color="#ffb83d"/></radialGradient><linearGradient id="ct" x1="73.109" y1="17.746" x2="74.461" y2="17.746" gradientUnits="objectBoundingBox"><stop offset="0" stop-color="#ff6e27"/><stop offset="1" stop-color="#e03347"/></linearGradient><linearGradient id="cu" x1="112.905" y1="30.109" x2="113.846" y2="30.109" gradientUnits="objectBoundingBox"><stop offset="0" stop-color="#ffcb34"/><stop offset="1" stop-color="#ff9a47"/></linearGradient><linearGradient id="cv" x1="126.577" y1="27.749" x2="126.577" y2="27.533" xlink:href="#w"/><linearGradient id="cw" x1="176.361" y1="35.461" x2="178.121" y2="35.461" gradientUnits="objectBoundingBox"><stop offset="0"/><stop offset="1" stop-color="#e5efe5"/></linearGradient><radialGradient id="cx" cx="0.673" cy="0.325" r="0.732" gradientTransform="matrix(0.984, -0.179, 0.179, 0.984, 1.338, 2.372)" xlink:href="#cs"/><radialGradient id="cy" cx="0.672" cy="0.324" r="0.731" gradientTransform="matrix(0.984, -0.179, 0.179, 0.984, 2.009, 3.529)" xlink:href="#cs"/><radialGradient id="cz" cx="0.672" cy="0.32" r="0.73" gradientTransform="matrix(0.984, -0.179, 0.179, 0.984, 1.089, 2.78)" xlink:href="#cs"/><linearGradient id="da" x1="0.501" y1="0.853" x2="0.469" y2="-0.085" gradientUnits="objectBoundingBox"><stop offset="0" stop-color="#f4abbb"/><stop offset="1" stop-color="#ffeaec"/></linearGradient></defs><g transform="translate(13647.91 -8840.204)"><path class="a" d="M37.85,123.73l22.86-4.3-3.4-6L162.36,95l-25.5,17,11.27,3.75s-45.62,19.32-68.32,21.06S37.85,123.73,37.85,123.73Z" transform="translate(-13678 8824.51)"/><path class="b" d="M153.8,110.78s-2.53,1.69-7.58,1.12c-4.83-.54-7.13-2.76-7.13-2.76s3.11-35.16,4-36.94c1.14-2.32,5.36-3,5.82-4.64a1,1,0,0,0,0-.17c.17-1.54-1.61-3.09-1.87-5.34h0a5.751,5.751,0,0,1,0-1c.3-2.83,5-16.18,5.76-16.86s1.08-.69,1.08-.69.27.08.9.92,2.23,14.88,1.89,17.7a4.48,4.48,0,0,1-.25,1c-.75,2.13-2.82,3.25-3,4.79a.85.85,0,0,0,0,.32c.27,1.66,4.05,3.22,4.63,5.67C158.53,75.81,153.8,110.78,153.8,110.78Z" transform="translate(-13678 8824.51)"/><path class="c" d="M146.41,110.27a12.61,12.61,0,0,1-5.6-1.89c1.16-13,3.13-33.4,3.77-35.51A6.79,6.79,0,0,1,147.19,71c1.56-.82,3.18-1.67,3.37-3.41a5.87,5.87,0,0,0-1-3.42,5.23,5.23,0,0,1-.9-3c.23-2.26,3.5-11.71,4.89-15,.64,3.49,1.74,13.42,1.47,15.68a5.24,5.24,0,0,1-1.54,2.71,5.89,5.89,0,0,0-1.71,3.11c-.2,1.74,1.19,2.93,2.53,4.08a6.67,6.67,0,0,1,2.14,2.41c.15,2.19-2.42,22.5-4.17,35.49a12.43,12.43,0,0,1-5.86.62Z" transform="translate(-13678 8824.51)"/><path class="d" d="M150.85,53.6s-.27-3.6,1.79-5.6a7.76,7.76,0,0,1-1.79,5.6Z" transform="translate(-13678 8824.51)"/><path class="e" d="M153.42,67.89a.85.85,0,0,0,0,.32,18.58,18.58,0,0,1-4.55-.65,1,1,0,0,0,0-.17c.17-1.54-1.61-3.09-1.87-5.34.08.18.78,1.58,4,2.06a7.15,7.15,0,0,0,5.35-1C155.67,65.23,153.6,66.35,153.42,67.89Z" transform="translate(-13678 8824.51)"/><path class="f" d="M158.07,73.88l-3.85-.43L149.37,112a12.74,12.74,0,0,0,4.43-1.2S158.31,77.65,158.07,73.88Z" transform="translate(-13678 8824.51)"/><path class="g" d="M142.46,86.43a30,30,0,0,0,12.81-.73l-3,24s-4.48,2.25-11.48-1.31Z" transform="translate(-13678 8824.51)"/><path class="h" d="M155.27,85.7a34,34,0,0,0-12.81.73A19.23,19.23,0,0,0,155.27,85.7Z" transform="translate(-13678 8824.51)"/><path class="d" d="M143.64,73.73s.75-3.14,3.15-3.54l3,.61a9.22,9.22,0,0,0-2,3.67Z" transform="translate(-13678 8824.51)"/><path class="i" d="M805.63,108.52l-2.8,33.01-4.45-.5,3.06-33.25Z" transform="translate(-14335.81 8790.46)"/><path class="j" d="M130,64.33l1-4.71-13.08-.75-12.88-.74.43,4.79c-6.39.6-8,6.92-8,6.92l-1.45,53.84s5.37,2.45,18,3.18c12.86.74,18.23-1.1,18.23-1.1L137,72.1a8.88,8.88,0,0,0-7-7.77Z" transform="translate(-13678 8824.51)"/><path class="e" d="M105.49,62.92s8.16,2.89,24.55,1.41l.55-2.64-25.7-1.48Z" transform="translate(-13678 8824.51)"/><path class="k" d="M101.48,59.61a134,134,0,0,0,32.73,1.88l1-7s-14.37-5-33.87-1.68Z" transform="translate(-13678 8824.51)"/><path class="l" d="M101.33,52.85a240.583,240.583,0,0,0,33.87,1.68,75.78,75.78,0,0,0-33.87-1.68Z" transform="translate(-13678 8824.51)"/><path class="m" d="M133,53.89a172.211,172.211,0,0,1-29.75-1.35v-.69S121,53.75,133,53.2Z" transform="translate(-13678 8824.51)"/><path class="n" d="M103.28,51.85A111.9,111.9,0,0,1,133,53.2S117,53.92,103.28,51.85Z" transform="translate(-13678 8824.51)"/><path class="o" d="M97.53,69.84s9.65,3.66,30.89,3.43a3.25,3.25,0,0,1,3.26,3.43l-2.17,37.68a3.24,3.24,0,0,1-2.92,3.05,88.58,88.58,0,0,1-30.26-3Z" transform="translate(-13678 8824.51)"/><path class="o" d="M97.15,84.2s10.79,3,26.84,2.9l-1.54,18.78a89.53,89.53,0,0,1-25.81-2.78Z" transform="translate(-13678 8824.51)"/><path class="p" d="M137,72.1l-4.65,53.66A34.58,34.58,0,0,1,121.7,127l4.81-55.51S134,72.66,137,72.1Z" transform="translate(-13678 8824.51)"/><path class="q" d="M98.49,69.39a9.87,9.87,0,0,1,4.45-4.62l2.25.84a45,45,0,0,0-2.54,4.84Z" transform="translate(-13678 8824.51)"/><path class="r" d="M98.49,69.39l.19,53.13s.84.8,6.29,1.25l2.75-52s.24-4.22,2-6.65l-5-1.21a11.7,11.7,0,0,0-6.23,5.48Z" transform="translate(-13678 8824.51)"/><path class="s" d="M148.28,88.78l.28-2.25-8.79-1.08L131,84.37l-.27,2.25A10.94,10.94,0,0,0,126,92.45l-3.58,36s3.25,2.59,11.48,3.6c8.9,1.09,12.27-.65,12.27-.65l5.34-35.78a10.94,10.94,0,0,0-3.23-6.84Z" transform="translate(-13678 8824.51)"/><path class="t" d="M130.71,86.62a34.4,34.4,0,0,0,8.91,2.17,28.33,28.33,0,0,0,8.66,0l.15-1.23-17.56-2.27Z" transform="translate(-13678 8824.51)"/><path class="u" d="M129.43,80.08l-.13,4.64s2.29,1.38,10.27,2.36,10.87.23,10.87.23l1.18-4.5a74.379,74.379,0,0,1-11.88-.74C131.83,81.09,129.43,80.08,129.43,80.08Z" transform="translate(-13678 8824.51)"/><path class="v" d="M129.43,80.08a53.53,53.53,0,0,1,22.19,2.73,73.269,73.269,0,0,1-11.88-.74C131.7,81.08,129.43,80.08,129.43,80.08Z" transform="translate(-13678 8824.51)"/><path class="v" d="M131.24,79.94,131,78.75a63.37,63.37,0,0,1,19.72,2.31l-.5,1.58s-3.54-.18-10-1a45.66,45.66,0,0,1-8.98-1.7Z" transform="translate(-13678 8824.51)"/><path class="w" d="M131,78.75a72.831,72.831,0,0,0,9.64,1.74,66.48,66.48,0,0,0,10.08.57l-.41,1.35a60.551,60.551,0,0,1-10.09-.61,50.22,50.22,0,0,1-8.95-1.73Z" transform="translate(-13678 8824.51)"/><path class="x" d="M787.54,118.58l.19-4,.3.04-.27,3.99Z" transform="translate(-14335.81 8790.46)"/><path class="x" d="M789.32,119.28l.18-4,.3.03-.27,3.99Z" transform="translate(-14335.81 8790.46)"/><path class="x" d="M791.33,119.75l.18-4,.31.03-.27,3.99Z" transform="translate(-14335.81 8790.46)"/><path class="x" d="M793.45,120.16l.19-4,.3.03-.27,4Z" transform="translate(-14335.81 8790.46)"/><path class="x" d="M804.85,121.32l.55-3.96.31.04-.64,3.94Z" transform="translate(-14335.81 8790.46)"/><path class="x" d="M795.96,120.47l.34-3.99.3.04-.42,3.97Z" transform="translate(-14335.81 8790.46)"/><path class="x" d="M799.22,120.87l.41-3.98.3.04-.49,3.96Z" transform="translate(-14335.81 8790.46)"/><path class="x" d="M807.17,121.14l.7-3.93.3.04-.78,3.92Z" transform="translate(-14335.81 8790.46)"/><path class="x" d="M802.24,121.24l.44-3.97.31.04-.53,3.95Z" transform="translate(-14335.81 8790.46)"/><path class="y" d="M130.62,87.33a12.14,12.14,0,0,0-3.87,4.72l-3.3,36a15.61,15.61,0,0,0,6.38,1.7L134.75,93a13.31,13.31,0,0,1,1.71-4.29Z" transform="translate(-13678 8824.51)"/><path class="q" d="M126.75,92.05a32.39,32.39,0,0,0,7.87,2,11.24,11.24,0,0,1,1.84-5.35l-5.84-1.42a13.28,13.28,0,0,0-3.87,4.77Z" transform="translate(-13678 8824.51)"/><path class="z" d="M131.59,97a63.679,63.679,0,0,0,16.59,1.74,1.1,1.1,0,0,1,1.14,1.26L145,128.8a1.08,1.08,0,0,1-.91.91,38,38,0,0,1-16.49-1.58,1.09,1.09,0,0,1-.76-1.15l3.39-29a1.09,1.09,0,0,1,1.36-.98Z" transform="translate(-13678 8824.51)"/><path class="aa" d="M800.92,165.44l5.01-34.2,2.58-.46-5.28,34.19Z" transform="translate(-14335.81 8790.46)"/><path class="ab" d="M65.31,142.74,44.72,84.07a2.9,2.9,0,0,1,1.81-3.71L90.37,65.7a2.9,2.9,0,0,1,3.7,1.9l18.22,59.91a2.9,2.9,0,0,1-1.88,3.6L68.94,144.54a2.9,2.9,0,0,1-3.63-1.8Z" transform="translate(-13678 8824.51)"/><path class="ac" d="M65.17,142.33,44.58,83.66A2.89,2.89,0,0,1,46.39,80L90.23,65.28a2.92,2.92,0,0,1,3.7,1.91l18.22,59.9a2.9,2.9,0,0,1-1.88,3.6L68.8,144.12A2.89,2.89,0,0,1,65.17,142.33Z" transform="translate(-13678 8824.51)"/><path class="ad" d="M746.07,168.8,726.3,108.19l1.23-.41,19.64,60.65Z" transform="translate(-14335.81 8790.46)"/><path class="ae" d="M85.73,125.74S73.28,89.31,71,80.54C71,80.54,83.2,116.73,85.73,125.74Z" transform="translate(-13678 8824.51)"/><path class="af" d="M52.56,85.32,63.09,81.8c1.65-.55,3.32-1.11,4.11,2.34h0a3.35,3.35,0,0,1-1.87,4.34L54.79,92a3.36,3.36,0,0,1-4.11-2.34h0C49.48,87.12,50.9,85.88,52.56,85.32Z" transform="translate(-13678 8824.51)"/><path class="ag" d="M53.76,86.36l9-3c1.41-.47,2.83-.94,3.41,1.7h0a2.7,2.7,0,0,1-1.7,3.41l-9,3a2.7,2.7,0,0,1-3.41-1.7h0C51.12,87.83,52.35,86.83,53.76,86.36Z" transform="translate(-13678 8824.51)"/><path class="ah" d="M53.62,85.32l9-3c1.41-.47,2.83-1,3.41,1.7h0a2.7,2.7,0,0,1-1.7,3.41l-9,3a2.7,2.7,0,0,1-3.41-1.7h0C51,86.79,52.21,85.79,53.62,85.32Z" transform="translate(-13678 8824.51)"/><path class="ai" d="M53.31,84.38l9-3a2.7,2.7,0,0,1,3.41,1.7h0A2.7,2.7,0,0,1,64,86.48l-9,3a2.68,2.68,0,0,1-3.41-1.7h0a2.68,2.68,0,0,1,1.72-3.4Z" transform="translate(-13678 8824.51)"/><path class="aj" d="M53.57,84.43l8.55-2.86a2.55,2.55,0,0,1,3.23,1.62h0a2.54,2.54,0,0,1-1.61,3.23L55.2,89.28A2.56,2.56,0,0,1,52,87.67h0a2.56,2.56,0,0,1,1.57-3.24Z" transform="translate(-13678 8824.51)"/><path class="ak" d="M715.33,117.32l-.25.54,1.29,3.83.48.2.28-.43-1.31-3.91Z" transform="translate(-14335.81 8790.46)"/><path class="x" d="M715.33,117.32l1.52,4.57.28-.43-1.31-3.91Z" transform="translate(-14335.81 8790.46)"/><path class="al" d="M50.69,88.09a4.92,4.92,0,0,1,1.93-1.65c1.2-.51,11.14-3.72,11.14-3.72a2.42,2.42,0,0,0-.63-1.49s-9.21,2.83-10.57,3.54a5.93,5.93,0,0,0-2.19,2.36S50.29,87.81,50.69,88.09Z" transform="translate(-13678 8824.51)"/><path class="am" d="M57.4,99.81l10.54-3.52c1.65-.56,3.31-1.11,4.11,2.34h0A3.36,3.36,0,0,1,70.17,103l-10.53,3.52a3.34,3.34,0,0,1-4.11-2.34h0C54.33,101.6,55.75,100.36,57.4,99.81Z" transform="translate(-13678 8824.51)"/><path class="ag" d="M58.61,100.84l9-3c1.41-.47,2.83-1,3.4,1.7h0A2.68,2.68,0,0,1,69.3,103l-9,3a2.69,2.69,0,0,1-3.4-1.7h0C56,102.31,57.19,101.32,58.61,100.84Z" transform="translate(-13678 8824.51)"/><path class="an" d="M58.47,99.8l9-3c1.41-.47,2.83-1,3.41,1.7h0a2.7,2.7,0,0,1-1.7,3.41l-9,3a2.69,2.69,0,0,1-3.41-1.7h0C55.82,101.27,57.06,100.28,58.47,99.8Z" transform="translate(-13678 8824.51)"/><path class="ao" d="M58.15,98.86l9-3a2.7,2.7,0,0,1,3.41,1.7h0a2.7,2.7,0,0,1-1.7,3.41l-9,3a2.7,2.7,0,0,1-3.41-1.7h0A2.7,2.7,0,0,1,58.15,98.86Z" transform="translate(-13678 8824.51)"/><path class="ap" d="M58.42,98.91,67,96.06a2.56,2.56,0,0,1,3.24,1.61h0a2.56,2.56,0,0,1-1.62,3.24L60,103.77a2.57,2.57,0,0,1-3.24-1.62h0a2.56,2.56,0,0,1,1.66-3.24Z" transform="translate(-13678 8824.51)"/><path class="aq" d="M720.17,131.81l-.24.53,1.28,3.83.49.21.27-.43-1.31-3.92Z" transform="translate(-14335.81 8790.46)"/><path class="x" d="M720.17,131.81l1.53,4.57.27-.43-1.31-3.92Z" transform="translate(-14335.81 8790.46)"/><path class="ar" d="M55.54,102.57a4.87,4.87,0,0,1,1.92-1.64c1.2-.52,11.14-3.73,11.14-3.73a2.38,2.38,0,0,0-.6-1.49s-9.21,2.84-10.58,3.54a5.93,5.93,0,0,0-2.18,2.36S55.14,102.3,55.54,102.57Z" transform="translate(-13678 8824.51)"/><path class="as" d="M62.18,114.11l10.54-3.53c1.65-.55,3.32-1.11,4.11,2.34h0A3.36,3.36,0,0,1,75,117.27l-10.53,3.52a3.35,3.35,0,0,1-4.11-2.34h0C59.11,115.9,60.53,114.66,62.18,114.11Z" transform="translate(-13678 8824.51)"/><path class="ag" d="M63.39,115.14l9-3c1.41-.48,2.83-1,3.41,1.7h0a2.69,2.69,0,0,1-1.7,3.4l-9,3a2.7,2.7,0,0,1-3.41-1.7h0C60.75,116.61,62,115.61,63.39,115.14Z" transform="translate(-13678 8824.51)"/><path class="at" d="M63.25,114.1l9-3c1.41-.48,2.83-.95,3.41,1.7h0a2.69,2.69,0,0,1-1.7,3.4l-9,3a2.7,2.7,0,0,1-3.41-1.7h0C60.61,115.57,61.84,114.57,63.25,114.1Z" transform="translate(-13678 8824.51)"/><path class="au" d="M62.93,113.16l9-3a2.7,2.7,0,0,1,3.41,1.7h0a2.7,2.7,0,0,1-1.7,3.41l-9,3a2.7,2.7,0,0,1-3.41-1.7h0a2.7,2.7,0,0,1,1.7-3.41Z" transform="translate(-13678 8824.51)"/><path class="av" d="M63.2,113.21l8.54-2.86A2.57,2.57,0,0,1,75,112h0a2.56,2.56,0,0,1-1.61,3.24l-8.55,2.85a2.54,2.54,0,0,1-3.23-1.61h0a2.56,2.56,0,0,1,1.59-3.27Z" transform="translate(-13678 8824.51)"/><path class="aw" d="M724.95,146.1l-.24.54,1.28,3.83.49.21.27-.43-1.31-3.92Z" transform="translate(-14335.81 8790.46)"/><path class="x" d="M724.95,146.1l1.53,4.58.27-.43-1.31-3.92Z" transform="translate(-14335.81 8790.46)"/><path class="ax" d="M60.32,116.87a4.85,4.85,0,0,1,1.93-1.64c1.2-.52,11.14-3.73,11.14-3.73a2.42,2.42,0,0,0-.63-1.49s-9.21,2.84-10.58,3.54A6,6,0,0,0,60,115.91S59.92,116.6,60.32,116.87Z" transform="translate(-13678 8824.51)"/><path class="ay" d="M67.4,129.69l10.53-3.52c1.65-.55,3.32-1.11,4.11,2.34h0a3.35,3.35,0,0,1-1.87,4.34l-10.54,3.53A3.36,3.36,0,0,1,65.52,134h0C64.32,131.49,65.74,130.25,67.4,129.69Z" transform="translate(-13678 8824.51)"/><path class="ag" d="M68.6,130.73l9-3c1.41-.47,2.83-1,3.41,1.7h0a2.7,2.7,0,0,1-1.7,3.41l-9,3a2.7,2.7,0,0,1-3.41-1.7h0C66,132.2,67.19,131.2,68.6,130.73Z" transform="translate(-13678 8824.51)"/><path class="az" d="M68.46,129.69l9-3c1.41-.47,2.83-1,3.41,1.7h0a2.7,2.7,0,0,1-1.7,3.41l-9,3a2.7,2.7,0,0,1-3.41-1.7h0C65.82,131.16,67.05,130.16,68.46,129.69Z" transform="translate(-13678 8824.51)"/><path class="ba" d="M68.15,128.74l9-3a2.7,2.7,0,0,1,3.41,1.7h0a2.7,2.7,0,0,1-1.7,3.41l-9,3a2.69,2.69,0,0,1-3.41-1.7h0a2.69,2.69,0,0,1,1.7-3.41Z" transform="translate(-13678 8824.51)"/><path class="bb" d="M68.41,128.8,77,125.94a2.54,2.54,0,0,1,3.23,1.62h0a2.54,2.54,0,0,1-1.61,3.23L70,133.65A2.56,2.56,0,0,1,66.8,132h0A2.56,2.56,0,0,1,68.41,128.8Z" transform="translate(-13678 8824.51)"/><path class="bc" d="M730.17,161.69l-.25.53,1.29,3.84.48.2.28-.43-1.31-3.91Z" transform="translate(-14335.81 8790.46)"/><path class="x" d="M730.17,161.69l1.52,4.57.28-.43-1.31-3.91Z" transform="translate(-14335.81 8790.46)"/><path class="bd" d="M76.65,77.27l10.54-3.53c1.65-.55,3.31-1.11,4.11,2.34h0a3.36,3.36,0,0,1-1.88,4.34L78.89,84a3.35,3.35,0,0,1-4.11-2.34h0C73.58,79.06,75,77.82,76.65,77.27Z" transform="translate(-13678 8824.51)"/><path class="ag" d="M77.86,78.3l9-3c1.41-.47,2.83-.94,3.41,1.7h0a2.7,2.7,0,0,1-1.7,3.41l-9,3a2.69,2.69,0,0,1-3.4-1.7h0C75.21,79.77,76.45,78.77,77.86,78.3Z" transform="translate(-13678 8824.51)"/><path class="be" d="M77.72,77.26l9-3c1.41-.47,2.83-.94,3.41,1.7h0a2.7,2.7,0,0,1-1.7,3.41l-9,3A2.7,2.7,0,0,1,76,80.67h0C75.08,78.73,76.31,77.73,77.72,77.26Z" transform="translate(-13678 8824.51)"/><path class="bf" d="M77.4,76.32l9-3A2.7,2.7,0,0,1,89.8,75h0a2.7,2.7,0,0,1-1.7,3.41l-9,3a2.68,2.68,0,0,1-3.41-1.7h0a2.69,2.69,0,0,1,1.71-3.39Z" transform="translate(-13678 8824.51)"/><path class="bg" d="M77.67,76.37l8.54-2.86a2.56,2.56,0,0,1,3.24,1.62h0a2.56,2.56,0,0,1-1.62,3.24l-8.54,2.85a2.56,2.56,0,0,1-3.24-1.61h0A2.57,2.57,0,0,1,77.67,76.37Z" transform="translate(-13678 8824.51)"/><path class="bh" d="M739.42,109.26l-.24.54,1.28,3.83.49.2.27-.43-1.31-3.91Z" transform="translate(-14335.81 8790.46)"/><path class="x" d="M739.42,109.26l1.53,4.57.27-.43-1.31-3.91Z" transform="translate(-14335.81 8790.46)"/><path class="bi" d="M81.5,91.75,92,88.23c1.65-.56,3.32-1.11,4.11,2.34h0a3.35,3.35,0,0,1-1.87,4.34L83.73,98.43a3.35,3.35,0,0,1-4.11-2.34h0C78.42,93.54,79.84,92.3,81.5,91.75Z" transform="translate(-13678 8824.51)"/><path class="ag" d="M82.7,92.79l9-3c1.41-.47,2.83-1,3.41,1.7h0a2.7,2.7,0,0,1-1.7,3.41l-9,3A2.69,2.69,0,0,1,81,96.19h0C80.06,94.25,81.29,93.26,82.7,92.79Z" transform="translate(-13678 8824.51)"/><path class="bj" d="M82.56,91.75l9-3c1.41-.47,2.83-.95,3.41,1.7h0a2.7,2.7,0,0,1-1.7,3.41l-9,3a2.69,2.69,0,0,1-3.41-1.7h0C79.92,93.21,81.15,92.22,82.56,91.75Z" transform="translate(-13678 8824.51)"/><path class="bk" d="M82.25,90.8l9-3a2.7,2.7,0,0,1,3.41,1.7h0A2.7,2.7,0,0,1,93,92.9l-9,3a2.69,2.69,0,0,1-3.41-1.7h0A2.69,2.69,0,0,1,82.25,90.8Z" transform="translate(-13678 8824.51)"/><path class="bl" d="M82.51,90.85,91.06,88a2.54,2.54,0,0,1,3.23,1.61h0a2.56,2.56,0,0,1-1.61,3.24l-8.54,2.86a2.56,2.56,0,0,1-3.24-1.62h0a2.56,2.56,0,0,1,1.61-3.24Z" transform="translate(-13678 8824.51)"/><path class="bm" d="M744.27,123.75l-.25.53,1.28,3.83.49.21.28-.43-1.31-3.92Z" transform="translate(-14335.81 8790.46)"/><path class="x" d="M744.27,123.75l1.52,4.57.28-.43-1.31-3.92Z" transform="translate(-14335.81 8790.46)"/><path class="bn" d="M79.63,94.52a4.92,4.92,0,0,1,1.93-1.65c1.2-.52,11.14-3.73,11.14-3.73a2.38,2.38,0,0,0-.63-1.48s-9.21,2.83-10.57,3.53a6,6,0,0,0-2.19,2.37S79.23,94.24,79.63,94.52Z" transform="translate(-13678 8824.51)"/><path class="bo" d="M86.28,106.05l10.53-3.53c1.66-.55,3.32-1.11,4.11,2.35h0a3.35,3.35,0,0,1-1.87,4.34l-10.54,3.52a3.36,3.36,0,0,1-4.11-2.34h0C83.21,107.84,84.62,106.6,86.28,106.05Z" transform="translate(-13678 8824.51)"/><path class="ag" d="M87.48,107.08l9-3c1.41-.48,2.84-1,3.41,1.7h0a2.69,2.69,0,0,1-1.7,3.4l-9,3a2.7,2.7,0,0,1-3.41-1.7h0C84.84,108.55,86.07,107.56,87.48,107.08Z" transform="translate(-13678 8824.51)"/><path class="bp" d="M87.34,106l9-3c1.41-.48,2.83-1,3.4,1.7h0a2.68,2.68,0,0,1-1.7,3.4l-9,3a2.7,2.7,0,0,1-3.41-1.7h0C84.7,107.51,85.93,106.52,87.34,106Z" transform="translate(-13678 8824.51)"/><path class="bq" d="M87,105.1l9-3a2.7,2.7,0,0,1,3.41,1.7h0a2.7,2.7,0,0,1-1.7,3.41l-9,3a2.7,2.7,0,0,1-3.41-1.7h0A2.7,2.7,0,0,1,87,105.1Z" transform="translate(-13678 8824.51)"/><path class="br" d="M87.3,105.15l8.54-2.86a2.57,2.57,0,0,1,3.24,1.62h0a2.57,2.57,0,0,1-1.62,3.24L88.92,110a2.57,2.57,0,0,1-3.24-1.62h0a2.56,2.56,0,0,1,1.62-3.23Z" transform="translate(-13678 8824.51)"/><path class="bs" d="M749.05,138.04l-.24.54,1.28,3.83.49.21.27-.43-1.31-3.92Z" transform="translate(-14335.81 8790.46)"/><path class="x" d="M749.05,138.04l1.53,4.58.27-.43-1.31-3.92Z" transform="translate(-14335.81 8790.46)"/><path class="bt" d="M91.49,121.63,102,118.11c1.65-.55,3.31-1.11,4.11,2.34h0a3.36,3.36,0,0,1-1.88,4.34L93.7,128.32A3.35,3.35,0,0,1,89.62,126h0C88.42,123.43,89.84,122.19,91.49,121.63Z" transform="translate(-13678 8824.51)"/><path class="ag" d="M92.7,122.67l9-3c1.41-.47,2.83-.94,3.41,1.7h0a2.7,2.7,0,0,1-1.7,3.41l-9,3a2.69,2.69,0,0,1-3.4-1.7h0C90.05,124.14,91.29,123.14,92.7,122.67Z" transform="translate(-13678 8824.51)"/><path class="bu" d="M92.56,121.63l9-3c1.41-.47,2.83-.94,3.41,1.7h0a2.7,2.7,0,0,1-1.7,3.41l-9,3a2.7,2.7,0,0,1-3.41-1.7h0C89.92,123.1,91.15,122.1,92.56,121.63Z" transform="translate(-13678 8824.51)"/><path class="bv" d="M92.24,120.69l9-3a2.7,2.7,0,0,1,3.41,1.7h0a2.7,2.7,0,0,1-1.7,3.41l-9,3a2.69,2.69,0,0,1-3.41-1.7h0a2.69,2.69,0,0,1,1.7-3.41Z" transform="translate(-13678 8824.51)"/><path class="bw" d="M92.51,120.74l8.54-2.86a2.56,2.56,0,0,1,3.24,1.62h0a2.55,2.55,0,0,1-1.62,3.23l-8.54,2.86A2.56,2.56,0,0,1,90.89,124h0a2.57,2.57,0,0,1,1.62-3.26Z" transform="translate(-13678 8824.51)"/><path class="bx" d="M754.26,153.63l-.24.53L755.3,158l.49.2.27-.43-1.31-3.91Z" transform="translate(-14335.81 8790.46)"/><path class="x" d="M754.26,153.63l1.53,4.57.27-.43-1.31-3.91Z" transform="translate(-14335.81 8790.46)"/><path class="by" d="M65.53,132.46a4.92,4.92,0,0,1,1.93-1.65c1.2-.51,11.14-3.72,11.14-3.72a2.4,2.4,0,0,0-.6-1.49s-9.21,2.83-10.57,3.54a5.93,5.93,0,0,0-2.19,2.36S65.13,132.18,65.53,132.46Z" transform="translate(-13678 8824.51)"/><path class="bz" d="M805.94,149.78l-11.28-3.74,25.5-17,11.15,142.47-8.3,6.48Z" transform="translate(-14335.81 8790.46)"/><path class="ca" d="M831.31,271.51l-10.34-7.13-15.03-114.6-11.28-3.74,25.5-17Z" transform="translate(-14335.81 8790.46)"/><path class="cb" d="M74.29,159.46,47.8,122.56a46.08,46.08,0,0,0,10-6.51l24.59,37.59a26,26,0,0,1-8.1,5.82Z" transform="translate(-13678 8824.51)"/><path class="cc" d="M74.29,159.46a17.71,17.71,0,0,0,4.15,0L80,161.65,82.3,160l-1.49-2.08s1.72-2.21,1.58-4.28a43,43,0,0,1-8.1,5.82Z" transform="translate(-13678 8824.51)"/><path class="cd" d="M724.85,181.72l7.02-5.04L714.8,150.23l-8.13,6.16Z" transform="translate(-14335.81 8790.46)"/><path class="ce" d="M67,147.67l.73,1a6.3,6.3,0,0,0,4.81-.72A6.51,6.51,0,0,0,75,143.88l-.9-1.25Z" transform="translate(-13678 8824.51)"/><path class="cf" d="M44.8,124.1l.9.85s3.45-.23,8.42-3.8c5.59-4,7-6.43,7-6.43l-.55-1.3Z" transform="translate(-13678 8824.51)"/><path class="cg" d="M44.8,124.1a40.94,40.94,0,0,1,15.73-10.68s-1.06,3-7.49,7.07C47,124.38,44.8,124.1,44.8,124.1Z" transform="translate(-13678 8824.51)"/><path class="ch" d="M47.66,122.16a18.63,18.63,0,0,1,4.27-3.89,16.14,16.14,0,0,1,5.74-2.9,18.62,18.62,0,0,1-4.59,4.12A17.68,17.68,0,0,1,47.66,122.16Z" transform="translate(-13678 8824.51)"/><path class="ci" d="M48.54,121.89l-11.4-16.66-1-5.44,4.33-3.11,4.57,2.87,11.72,16.78a28.07,28.07,0,0,1-8.22,5.56Z" transform="translate(-13678 8824.51)"/><path class="cj" d="M49,124l.69,1s7.75-4.75,13.81-.28l-4.8-7.34S53.85,122,49,124Z" transform="translate(-13678 8824.51)"/><path class="q" d="M74.5,159,51.92,127.52s2-1.38,3.27-1.15L77.54,157.5S75.28,158.69,74.5,159Z" transform="translate(-13678 8824.51)"/><path class="ck" d="M709.16,154.53l-11.23-16.2-1.75-3.79.61-.43,1.77,3.77,11.38,16.15Z" transform="translate(-14335.81 8790.46)"/><path class="cl" d="M697.91,133.3l13.68,19.73-1.65,1-11.38-16.15-1.77-3.77Z" transform="translate(-14335.81 8790.46)"/><path class="cm" d="M694.8,138.46l3.56.48-.43-.61-.87-1.89.61-.44,4.06,2.82,3.49-1.85-2.35-3.37L700,131.8l-5.71,3.87Z" transform="translate(-14335.81 8790.46)"/><path class="cn" d="M30.09,102.72l.9.86s3.46-.23,8.43-3.8c5.59-4,6.95-6.44,6.95-6.44l-.55-1.29Z" transform="translate(-13678 8824.51)"/><path class="co" d="M30.09,102.72A41,41,0,0,1,45.82,92.05s-1,3-7.49,7.07C32.24,103,30.09,102.72,30.09,102.72Z" transform="translate(-13678 8824.51)"/><path class="cp" d="M69.29,254.84,37.85,123.73s31,12.72,44.45,10.72c26.91-4,65.83-18.71,65.83-18.71l17.08,128.2Z" transform="translate(-13678 8824.51)"/><path class="cq" d="M39,124.17S64.44,156.64,87.38,169c0,0-6.69-7.13-9.32-13.69-1.72-4.28-3.51-20.55-3.51-20.55S59.36,132.19,39,124.17Z" transform="translate(-13678 8824.51)"/><path class="cr" d="M74.55,134.73s.19,13.16,1.31,16.19c1.9,5.13,10.32,16.7,10.32,16.7s14-17.24,26.91-26.11c19.54-13.5,35-25.77,35-25.77S113.34,127.8,98.54,131.2,74.55,134.73,74.55,134.73Z" transform="translate(-13678 8824.51)"/><path class="cs" d="M794.66,146.04l1.41,7.62,9.87-3.88Z" transform="translate(-14335.81 8790.46)"/><path class="ct" d="M103,23.17a18.68,18.68,0,0,0-5.23,1.66s-4.89,3-3.09,10a9.76,9.76,0,0,0,7.76,7.56,15.49,15.49,0,0,0,5.16-1.33Z" transform="translate(-13678 8824.51)"/><path class="cu" d="M103.8,22.61a19.15,19.15,0,0,0-5.43,1.73s-5.07,3.1-3.2,10.39a10.12,10.12,0,0,0,8,7.84,16,16,0,0,0,5.35-1.37Z" transform="translate(-13678 8824.51)"/><path class="cv" d="M112.83,30.2c1.32,5.13-.59,10.05-4.26,11s-7.72-2.46-9-7.59.59-10.06,4.26-11S111.52,25.06,112.83,30.2Z" transform="translate(-13678 8824.51)"/><ellipse class="cw" cx="6.4" cy="8.94" rx="6.4" ry="8.94" transform="translate(-13580.023 8849.289) rotate(-14.39)"/><path class="cx" d="M103,22.9l5.26,18.37a6.83,6.83,0,0,0,1.92-.73l-4.93-18.08s-1.49.14-1.69.19a3.15,3.15,0,0,0-.56.25Z" transform="translate(-13678 8824.51)"/><path class="x" d="M763.02,56.5l-1.69.2,5.58,18.36,1.04-.47Z" transform="translate(-14335.81 8790.46)"/><path class="x" d="M98.32,40.56l1,.39,4.11-1.06a6.16,6.16,0,0,0,5.14,1.31,15.69,15.69,0,0,1-5.35,1.37,9.53,9.53,0,0,1-4.9-2.01Z" transform="translate(-13678 8824.51)"/><path class="o" d="M94.76,29l4.8-1.74a7.44,7.44,0,0,1,2.32-3.67L97.46,25.1A11,11,0,0,0,94.76,29Z" transform="translate(-13678 8824.51)"/><path class="cy" d="M91.38,45.56a10.87,10.87,0,0,0-3.11.6s-3,1.4-2.43,5.54a5.63,5.63,0,0,0,3.94,4.85,9.06,9.06,0,0,0,3-.42Z" transform="translate(-13678 8824.51)"/><path class="cz" d="M91.86,45.29a11,11,0,0,0-3.22.63s-3.12,1.44-2.53,5.74a5.83,5.83,0,0,0,4.09,5,9.25,9.25,0,0,0,3.16-.43Z" transform="translate(-13678 8824.51)"/><ellipse class="da" cx="3.96" cy="5.54" rx="3.96" ry="5.54" transform="translate(-13590.071 8870.32) rotate(-7.8)"/><ellipse class="db" cx="3.69" cy="5.16" rx="3.69" ry="5.16" transform="translate(-13589.616 8870.643) rotate(-7.8)"/><path class="dc" d="M91.37,45.4l1.79,10.88A4.32,4.32,0,0,0,94.31,56L92.68,45.3h-1a1.37,1.37,0,0,0-.31.1Z" transform="translate(-13678 8824.51)"/><path class="x" d="M750.49,79.34h-.98l1.98,10.9.63-.21Z" transform="translate(-14335.81 8790.46)"/><path class="x" d="M87.53,55.21l.55.29,2.42-.33a3.55,3.55,0,0,0,2.86,1.09,9.12,9.12,0,0,1-3.16.43A5.46,5.46,0,0,1,87.53,55.21Z" transform="translate(-13678 8824.51)"/><path class="o" d="M86.26,48.34l2.86-.68a4.28,4.28,0,0,1,1.58-1.95l-2.64.57a6.41,6.41,0,0,0-1.8,2.06Z" transform="translate(-13678 8824.51)"/><circle class="dd" cx="3.86" cy="3.86" r="3.86" transform="translate(-13559.109 8846.546) rotate(-55.23)"/><path class="d" d="M127.11,19.35a1.72,1.72,0,0,0-.65-1,.89.89,0,0,0-1-.13,1.32,1.32,0,0,0,1.65,1.13Z" transform="translate(-13678 8824.51)"/><path class="de" d="M50.69,45.22l.29-.16a4.89,4.89,0,0,1,6.39,1.47l5.6,8,4.14,5.92a4.9,4.9,0,0,1-8,5.67l-10-13.77a4.9,4.9,0,0,1,1.58-7.13Z" transform="translate(-13678 8824.51)"/><path class="df" d="M63,54.55l4.14,5.92a4.9,4.9,0,0,1-8,5.67l-3.87-5.31C61.6,58.76,63,54.55,63,54.55Z" transform="translate(-13678 8824.51)"/><path class="dg" d="M59.48,66.57s2.42-1.51-1.2-7.06a22,22,0,0,0-9.56-7.8S54.27,59.46,59.48,66.57Z" transform="translate(-13678 8824.51)"/><path class="dh" d="M66.57,60.17s-2.09-.7-5-4.64a16.46,16.46,0,0,1-3.19-7.25Z" transform="translate(-13678 8824.51)"/><path class="d" d="M56.22,46.34A2.31,2.31,0,0,0,55,45.26a1.2,1.2,0,0,0-1.35.2,1.8,1.8,0,0,0,2.57.88Z" transform="translate(-13678 8824.51)"/><path class="di" d="M46.12,57.2a3.85,3.85,0,1,1-1.6-2.489,3.86,3.86,0,0,1,1.6,2.489Z" transform="translate(-13678 8824.51)"/><path class="d" d="M45.15,56.17a1.72,1.72,0,0,0-.65-1,.9.9,0,0,0-1-.13,1.32,1.32,0,0,0,1.65,1.13Z" transform="translate(-13678 8824.51)"/><path class="dj" d="M45.73,45.87a2.6,2.6,0,1,1-3-2.09A2.6,2.6,0,0,1,45.73,45.87Z" transform="translate(-13678 8824.51)"/><path class="d" d="M45.08,45.18a1.17,1.17,0,0,0-.44-.68.59.59,0,0,0-.67-.09.9.9,0,0,0,1.11.77Z" transform="translate(-13678 8824.51)"/><path class="dk" d="M134.94,27a3.45,3.45,0,1,1-4-2.77A3.45,3.45,0,0,1,134.94,27Z" transform="translate(-13678 8824.51)"/><path class="d" d="M134.07,26.06a1.55,1.55,0,0,0-.58-.91.78.78,0,0,0-.88-.11,1.18,1.18,0,0,0,1.46,1.02Z" transform="translate(-13678 8824.51)"/><path class="dl" d="M823.01,277.99l-41.75-20.33-37.2-1.58-16.97,32.81Z" transform="translate(-14335.81 8790.46)"/></g></svg>