<svg height="512" viewBox="0 0 60 48" width="512" xmlns="http://www.w3.org/2000/svg"><g id="Page-1" fill="none" fill-rule="evenodd"><g id="001---Landline-Phone" fill-rule="nonzero"><path id="Shape" d="m58.9 12.3-3.32 8.97c-.3285566.9778377-1.3440011 1.548215-2.35 1.32l-6.98-1.61-2.7-.62c-.9077944-.2096287-1.5505974-1.0183163-1.55-1.95v-4.47c-.0026712-.6390722-.306571-1.2394595-.82-1.62-3.2782262-2.2685849-7.1949315-3.43168526-11.18-3.32-3.9850685-.11168526-7.9017738 1.0514151-11.18 3.32-.513429.3805405-.8173288.9809278-.82 1.62v4.47c.0005974.9316837-.6422056 1.7403713-1.55 1.95l-2.7.62-6.98 1.61c-1.00599895.228215-2.02144342-.3421623-2.35-1.32l-3.32-8.97c-.26300466-.792058-.00812932-1.6642095.64-2.19 3.69-2.94 13.18-9.11 28.26-9.11s24.57 6.17 28.26 9.11c.6481293.5257905.9030047 1.397942.64 2.19z" fill="#e8edfc"/><path id="Shape" d="m58.26 10.11c-3.69-2.94-13.18-9.11-28.26-9.11-.512 0-1 .024-1.5.038 14.2.394 23.2 6.232 26.76 9.072.6481293.5257905.9030047 1.397942.64 2.19l-3.32 8.97c-.1369582.4056218-.4010143.7562939-.753 1l1.4.324c1.0059989.228215 2.0214434-.3421623 2.35-1.32l3.323-8.974c.2630047-.792058.0081293-1.6642095-.64-2.19z" fill="#cad9fc"/><path id="Shape" d="m57 38.58v6.42c-.0032948 1.1032019-.8967981 1.9967052-2 2h-50c-1.10320187-.0032948-1.9967052-.8967981-2-2v-6.42c.00099825-.378673.10841686-.7494404.31-1.07l10.44-16.53 2.7-.62c.9077944-.2096287 1.5505974-1.0183163 1.55-1.95v-4.47c.0026712-.6390722.306571-1.2394595.82-1.62 3.2782262-2.2685849 7.1949315-3.43168526 11.18-3.32 3.9850685-.11168526 7.9017738 1.0514151 11.18 3.32.513429.3805405.8173288.9809278.82 1.62v4.47c-.0005974.9316837.6422056 1.7403713 1.55 1.95l2.7.62 10.44 16.53c.2015831.3205596.3090017.691327.31 1.07z" fill="#e8edfc"/><path id="Shape" d="m56.69 37.51-10.44-16.53-2.7-.62c-.9077944-.2096287-1.5505974-1.0183163-1.55-1.95v-4.47c-.0026712-.6390722-.306571-1.2394595-.82-1.62-3.2782262-2.2685849-7.1949315-3.43168526-11.18-3.32-.524 0-1.01.036-1.5.068 3.4692261.14703268 6.8256754 1.2746332 9.68 3.252.513429.3805405.8173288.9809278.82 1.62v4.47c-.0005974.9316837.6422056 1.7403713 1.55 1.95l2.7.62 10.44 16.53c.2015831.3205596.3090017.691327.31 1.07v6.42c-.0032948 1.1032019-.8967981 1.9967052-2 2h3c1.1032019-.0032948 1.9967052-.8967981 2-2v-6.42c-.0009983-.378673-.1084169-.7494404-.31-1.07z" fill="#cad9fc"/><circle id="Oval" cx="30" cy="29" fill="#a4c2f7" r="10"/><path id="Shape" d="m30 19c-.5024253.0040337-1.0038371.045818-1.5.125 4.8867805.7347638 8.5012202 4.9332896 8.5012202 9.875s-3.6144397 9.1402362-8.5012202 9.875c3.710451.5677523 7.4261819-.9912669 9.6206899-4.0365787s2.4977618-7.0634251.7851783-10.4036118c-1.7125836-3.3401866-5.152234-5.4392346-8.9058682-5.4348095z" fill="#7facfa"/><circle id="Oval" cx="30" cy="29" fill="#7facfa" r="2"/><path id="Shape" d="m3 38.58v6.42c.0032948 1.1032019.89679813 1.9967052 2 2h3c-1.10320187-.0032948-1.9967052-.8967981-2-2v-6.42c0-.82-.6.377 10.75-17.6l-3.512.81c-10.815 17.117-10.238 15.983-10.238 16.79z" fill="#fff"/><path id="Shape" d="m4.42 21.27c.32855658.9778377 1.34400105 1.548215 2.35 1.32l1.4-.324c-.3519857-.2437061-.61604183-.5943782-.753-1l-3.317-8.966c-.26300466-.792058-.00812932-1.6642095.64-2.19 7.26-5.783 16.944-8.805 26.745-9.087-10.801-.306-21.747 2.714-29.745 9.087-.64812932.5257905-.90300466 1.397942-.64 2.19z" fill="#fff"/><path id="Rectangle-path" d="m1.446 33.129h8v2h-8z" fill="#fff" transform="matrix(.534 -.845 .845 .534 -26.317 20.509)"/><g fill="#428dff"><path id="Shape" d="m3.476 21.591c.48391484 1.4732768 2.01475444 2.3312247 3.524 1.975l4.606-1.066-4.87 7.71c-.19113711.3020681-.20660368.6831609-.04057362.9997245.16603007.3165636.48833286.5205045.84550002.535.35716717.0144956.69493652-.1626564.8860736-.4647245l5.948-9.417 2.3-.53c1.363853-.3103495 2.3299058-1.5252907 2.325-2.924v-4.47c-.0006329-.3220109.1538375-.6246239.415-.813 3.1028263-2.1480335 6.8130357-3.24374584 10.585-3.126 3.7716803-.11795554 7.4816364.9777854 10.584 3.126.2615407.1881599.4164014.4908082.416.813v4.47c-.0049058 1.3987093.961147 2.6136505 2.325 2.924l2.3.53 10.217 16.177c.1021528.1616719.1568941.3487625.158.54v6.42c0 .5522847-.4477153 1-1 1h-50c-.55228475 0-1-.4477153-1-1v-6.42c.00110587-.1912375.0558472-.3783281.158-.54.18935078-.3036758.20230902-.6853012.03399349-1.0011216-.16831554-.3158205-.49233371-.5178553-.85000002-.53-.3576663-.0121447-.69464271.1674458-.88399347.4711216-.29960768.4798667-.45830908 1.0342821-.458 1.6v6.42c0 1.6568542 1.34314575 3 3 3h50c1.6568542 0 3-1.3431458 3-3v-6.42c-.001919-.5662418-.1626785-1.1205849-.464-1.6l-9.136-14.48 4.6 1.066c.2246427.0518568.4544496.0780246.685.078 1.2786722.0041476 2.4165697-.8103051 2.825-2.022l3.332-9c.3963405-1.1895769.0110603-2.5001678-.966-3.286-4.371-3.489-13.939-9.336-28.876-9.336s-24.5 5.847-28.879 9.332c-.98442282.7946731-1.36615026 2.1205264-.955 3.317zm-1.109-10.691c3.357-2.679 12.77-8.9 27.633-8.9s24.276 6.221 27.633 8.9c.3160973.2523767.4451085.6727547.325 1.059l-3.332 9c-.1626826.4891833-.6705864.7745274-1.173.659l-6.978-1.611h-.01l-2.69-.621c-.4546275-.1049814-.776232-.5104105-.775-.977v-4.47c-.0036066-.9560244-.4589363-1.8540769-1.228-2.422-3.4465583-2.40181965-7.5727523-3.63456043-11.772-3.517-4.1997167-.11762516-8.3263478 1.11549199-11.773 3.518-.7685291.5678189-1.2234711 1.4654672-1.227 2.421v4.47c-.000167.4654679-.3214673.8692698-.775.974l-9.678 2.234c-.51423016.116022-1.03081426-.1845915-1.184-.689l-3.311-8.943c-.13132774-.391972-.00581457-.8242951.315-1.085z"/><path id="Shape" d="m5.466 35.128c-.55228473.0027614-1.00223852-.4427153-1.00499994-.995-.00276143-.5522847.44271521-1.0022385.99499994-1.005h.01c.55228475 0 1 .4477153 1 1s-.44771525 1-1 1z"/><path id="Shape" d="m41 29c0-6.0751322-4.9248678-11-11-11s-11 4.9248678-11 11 4.9248678 11 11 11c6.0721626-.0071635 10.9928365-4.9278374 11-11zm-20 0c0-4.9705627 4.0294373-9 9-9s9 4.0294373 9 9-4.0294373 9-9 9c-4.9680501-.006061-8.993939-4.0319499-9-9z"/><path id="Shape" d="m33 29c0-1.6568542-1.3431458-3-3-3s-3 1.3431458-3 3 1.3431458 3 3 3 3-1.3431458 3-3zm-4 0c0-.5522847.4477153-1 1-1s1 .4477153 1 1-.4477153 1-1 1-1-.4477153-1-1z"/></g></g></g></svg>