<svg id="color" enable-background="new 0 0 24 24" height="512" viewBox="0 0 24 24" width="512" xmlns="http://www.w3.org/2000/svg"><path d="m14 3.5v-.5c0-.55-.45-1-1-1h-10c-.55 0-1 .45-1 1v16h12v-4.5h2v6.5c0 1.65-1.35 3-3 3h-10c-1.65 0-3-1.35-3-3v-18c0-1.65 1.35-3 3-3h10c1.65 0 3 1.35 3 3v.5z" fill="#607d8b"/><path d="m10.5 6.5v4.75c0 1.79 1.46 3.25 3.25 3.25h.25v4.5h-12v-16c0-.55.45-1 1-1h10c.55 0 1 .45 1 1v.5h-.25c-2.13 0-3.25 1.51-3.25 3z" fill="#fafafa"/><g fill="#2196f3"><circle cx="8" cy="13" r="2"/><path d="m12 18.75v.25h-8v-.25c0-1.52 1.23-2.75 2.75-2.75h2.5c1.52 0 2.75 1.23 2.75 2.75z"/><path d="m23.25 13c-.159 0-.318-.051-.45-.15l-1.816-1.362c-.116.853-.85 1.512-1.734 1.512h-5.5c-.965 0-1.75-.785-1.75-1.75v-4.75c0-.692.458-1.5 1.75-1.5h5.5c.932 0 1.696.732 1.747 1.651l1.773-1.477c.222-.187.534-.227.798-.103.264.123.432.388.432.679v6.5c0 .284-.161.544-.415.671-.106.053-.221.079-.335.079z"/></g></svg>