<svg xmlns="http://www.w3.org/2000/svg" width="12.977" height="16.067" viewBox="0 0 12.977 16.067">
  <path id="Icon_ionic-md-copy" data-name="Icon ionic-md-copy" d="M14.221,3.375H9.605A1.545,1.545,0,0,0,8.041,4.9v.328h-.29A1.545,1.545,0,0,0,6.188,6.754V17.877a1.578,1.578,0,0,0,1.564,1.564h8.033a1.545,1.545,0,0,0,1.526-1.564v-.29h.328a1.545,1.545,0,0,0,1.526-1.564v-7.7Zm0,1.723,3.221,3.221H14.221Zm1.854,12.78a.312.312,0,0,1-.29.328H7.752a.344.344,0,0,1-.328-.328V6.754a.312.312,0,0,1,.328-.29h.29v9.868A1.1,1.1,0,0,0,9.3,17.588h6.778Zm1.854-1.854a.312.312,0,0,1-.29.328H9.605a.344.344,0,0,1-.328-.328V4.9a.312.312,0,0,1,.328-.29h3.379V9.554h4.944Z" transform="translate(-6.188 -3.375)" fill="#165d7b"/>
</svg>
