<svg xmlns="http://www.w3.org/2000/svg" width="13.851" height="17.149" viewBox="0 0 13.851 17.149">
  <path id="Icon_ionic-md-copy" data-name="Icon ionic-md-copy" d="M14.762,3.375H9.836A1.649,1.649,0,0,0,8.166,5v.35H7.857a1.649,1.649,0,0,0-1.67,1.628V18.854a1.684,1.684,0,0,0,1.67,1.67h8.574a1.649,1.649,0,0,0,1.628-1.67v-.309h.35a1.649,1.649,0,0,0,1.628-1.67V8.652Zm0,1.839L18.2,8.652H14.762Zm1.979,13.641a.333.333,0,0,1-.309.35H7.857a.367.367,0,0,1-.35-.35V6.982a.333.333,0,0,1,.35-.309h.309V17.205a1.17,1.17,0,0,0,1.34,1.34h7.235Zm1.979-1.979a.333.333,0,0,1-.309.35H9.836a.367.367,0,0,1-.35-.35V5a.333.333,0,0,1,.35-.309h3.607V9.971h5.277Z" transform="translate(-6.188 -3.375)" fill="#c1c1c1"/>
</svg>
