<svg xmlns="http://www.w3.org/2000/svg" width="344.004" height="327.777" viewBox="0 0 344.004 327.777">
  <g id="Polygon_2" data-name="Polygon 2" transform="matrix(0.891, 0.454, -0.454, 0.891, 104.948, 0)" fill="none" opacity="0.03">
    <path d="M111.662,38.751a26,26,0,0,1,44.976,0l89,153.367a26,26,0,0,1-22.488,39.05h-178a26,26,0,0,1-22.488-39.05Z" stroke="none"/>
    <path d="M 134.1493835449219 40.80113220214844 C 132.2447509765625 40.80113220214844 127.5049743652344 41.33499145507812 124.6353454589844 46.280029296875 L 35.63479614257812 199.6470336914062 C 32.75410461425781 204.611083984375 34.66233825683594 209.0006713867188 35.61647033691406 210.6575317382812 C 36.57061767578125 212.3143920898438 39.40946960449219 216.1681213378906 45.14888000488281 216.1681213378906 L 223.1498870849609 216.1681213378906 C 228.8892974853516 216.1681213378906 231.7281494140625 212.3143920898438 232.6822967529297 210.6575317382812 C 233.6364288330078 209.0006713867188 235.5446472167969 204.611083984375 232.6639709472656 199.6470336914062 L 143.6634216308594 46.280029296875 C 140.7937927246094 41.33499145507812 136.0540161132812 40.80113220214844 134.1493835449219 40.80113220214844 M 134.1493835449219 25.8011474609375 C 142.8882446289062 25.8011474609375 151.6271057128906 30.11785888671875 156.6371459960938 38.75126647949219 L 245.6376953125 192.1182556152344 C 255.6963806152344 209.4515380859375 243.1903381347656 231.1681213378906 223.1498870849609 231.1681213378906 L 45.14888000488281 231.1681213378906 C 25.10842895507812 231.1681213378906 12.60238647460938 209.4515380859375 22.66107177734375 192.1182556152344 L 111.6616058349609 38.75126647949219 C 116.6716613769531 30.11785888671875 125.4105224609375 25.8011474609375 134.1493835449219 25.8011474609375 Z" stroke="none" fill="#707070"/>
  </g>
</svg>
