<svg id="Group_42235" data-name="Group 42235" xmlns="http://www.w3.org/2000/svg" width="22.216" height="27.303" viewBox="0 0 22.216 27.303">
  <path id="Path_111620" data-name="Path 111620" d="M1935.474,48.413c.229,0,.457,0,.686,0a.585.585,0,0,0,.586-.589,1.324,1.324,0,0,1,.65-1.166,1.356,1.356,0,0,1,2.041.905,2.065,2.065,0,0,0,.066.455.59.59,0,0,0,.553.4c.229,0,.457,0,.686,0l.085,0c.055.018.105.056.168.043l.057.011a2.339,2.339,0,0,1,.5.35.016.016,0,0,0,.013.018c0,.056.046.09.071.133a1.161,1.161,0,0,1-.322,1.561c-.09.063-.191.112-.286.167l-.061.015a4.815,4.815,0,0,1-.7.035q-1.951,0-3.9,0c-.279,0-.559.006-.838.009l-.057,0-.252-.042-.057-.013c-.016-.034-.052-.035-.08-.05a1.185,1.185,0,0,1-.634-.738,2.03,2.03,0,0,1-.036-.593l.006-.043a1.343,1.343,0,0,1,.745-.8l.057-.012a.12.12,0,0,0,.113-.038Zm3.224-.581a.6.6,0,0,0-.578-.6.588.588,0,1,0-.014,1.176A.614.614,0,0,0,1938.7,47.832Z" transform="translate(-1929.335 -46.454)" fill="#32a0e9"/>
  <path id="Path_111621" data-name="Path 111621" d="M1753.906,165.261a2.841,2.841,0,0,1-.308-.56,1.786,1.786,0,0,1-.082-.451q0-1.211,0-2.422c0-.947-.007-1.895-.007-2.842,0-.919.007-1.839.007-2.758,0-.947-.007-1.895-.007-2.842,0-.919.006-1.839.007-2.758,0-.574-.006-1.148-.007-1.722,0-.541.006-1.083.006-1.624,0-.569,0-1.139-.008-1.708a1.765,1.765,0,0,1,.511-1.3c.032-.033.076-.056.09-.1l.046-.04a1.251,1.251,0,0,1,.654-.2q1.427.009,2.854,0c.124,0,.161.031.146.16a1.159,1.159,0,0,0,.03.576.108.108,0,0,0,.012.089,1.236,1.236,0,0,0,.309.681.016.016,0,0,0,.011.02.323.323,0,0,0,.03.061,1.9,1.9,0,0,0,1.564.76c1.67.006,3.341,0,5.011,0a2,2,0,0,0,1.076-.3,1.055,1.055,0,0,0,.373-.325.057.057,0,0,0,.039-.046.258.258,0,0,0,.1-.1,1.923,1.923,0,0,0,.392-1.431c-.01-.1,0-.149.118-.147.862.014,1.725-.033,2.587.03a2.007,2.007,0,0,1,.919.3c.067.041.114.111.2.128l.13.138a1.728,1.728,0,0,1,.341,1.123q-.006,5.7,0,11.4c0,.123-.027.159-.159.146a1.644,1.644,0,0,0-.662.019l-.1,0a.413.413,0,0,0-.206.008c-.216.039-.432.073-.647.117-.124.025-.167-.013-.165-.141.006-.373,0-.747,0-1.121v-5.533c0-.733,0-1.466,0-2.2,0-.124-.039-.168-.161-.159s-.233,0-.35,0h-12.969c-.183,0-.2.01-.188.184.028.452,0,.905,0,1.357,0,.55.015,1.1,0,1.651s.008,1.119.008,1.679c0,.634-.024,1.269-.007,1.9.014.537,0,1.073,0,1.609s.015,1.091,0,1.637c-.017.587.019,1.176,0,1.763-.014.518.005,1.035,0,1.553-.012.722.011,1.446,0,2.169,0,.043-.016.1.06.1a1.755,1.755,0,0,0,.418,0,5122.292,5122.292,0,0,1,1.12,0,2571.75,2571.75,0,0,1,1.121,0,5167.684,5167.684,0,0,1,1.121,0,5120.056,5120.056,0,0,1,1.12,0,5168.8,5168.8,0,0,1,1.121,0,7760.8,7760.8,0,0,1,1.683,0,3.272,3.272,0,0,0,.558,0,3.3,3.3,0,0,0,.563,0l.086,0a.253.253,0,0,1,.025.065,6.169,6.169,0,0,0,.394,1.768c.039.1-.009.124-.1.123-.289,0-.578,0-.868,0h-8.6a1.776,1.776,0,0,1-1.032-.241.141.141,0,0,0-.054-.009l-.027-.013a.206.206,0,0,0-.141-.128A.3.3,0,0,0,1753.906,165.261Z" transform="translate(-1753.507 -141.186)" fill="#32a0e9"/>
  <path id="Path_111622" data-name="Path 111622" d="M2188.624,668.529c-.25-.075-.509-.1-.759-.174a5.069,5.069,0,0,1-3.2-2.829,4.914,4.914,0,0,1-.4-1.549c0-.045.01-.095-.028-.132a.316.316,0,0,0-.009-.176,3.049,3.049,0,0,0,0-.562.162.162,0,0,0,.008-.116.3.3,0,0,0,.044-.172,4.529,4.529,0,0,1,.261-1.067,1.4,1.4,0,0,0,.145-.407l.039-.069a.442.442,0,0,0,.134-.241.024.024,0,0,0,.01-.024c.045-.017.054-.062.075-.1a5.027,5.027,0,0,1,1.694-1.713,5.273,5.273,0,0,1,1.49-.623c.272-.066.551-.088.825-.133a.277.277,0,0,0,.144,0c.3.015.595.009.892.049a5.078,5.078,0,0,1,3.964,3.038,3.985,3.985,0,0,1,.32,1.1,1.346,1.346,0,0,0,.044.175c0,.028,0,.056.005.084a2.543,2.543,0,0,0,.033.431,4.841,4.841,0,0,1-.468,2.318,5.039,5.039,0,0,1-3.268,2.758c-.2.06-.423.06-.624.136l-.113,0a6.2,6.2,0,0,1-.757.045l-.164,0a.338.338,0,0,0-.257-.033A.106.106,0,0,0,2188.624,668.529Zm2.438-4.33a.224.224,0,0,0,.126-.14.18.18,0,0,0,.071-.083.161.161,0,0,0,.1-.113.02.02,0,0,0,.012-.022.665.665,0,0,0,.237-.261h.008v-.007a1,1,0,0,0,.285-.324h0a5.741,5.741,0,0,0,.821-.946.679.679,0,0,0,.071-.555.723.723,0,0,0-.571-.556.762.762,0,0,0-.776.237l-1.052,1.179q-.726.815-1.451,1.63c-.11.125-.132.128-.261.025-.412-.328-.825-.655-1.236-.985a.725.725,0,0,0-.546-.174.779.779,0,0,0-.691.572.77.77,0,0,0,.3.854c.406.327.811.657,1.222.979a3.574,3.574,0,0,0,.505.39.02.02,0,0,0,.022.014.724.724,0,0,0,.455.283l.063.008a.591.591,0,0,0,.53-.071,2.174,2.174,0,0,0,.512-.512,1.5,1.5,0,0,0,.316-.387l0,0a4.958,4.958,0,0,0,.675-.749h0a1.006,1.006,0,0,0,.251-.28Z" transform="translate(-2172.146 -641.273)" fill="#32a0e9"/>
  <path id="Path_111623" data-name="Path 111623" d="M1874.294,335.483l.013.055a.541.541,0,0,1-.164.441c-.324.354-.631.723-.958,1.075a2.349,2.349,0,0,1-.572.565l-.2,0a.149.149,0,0,0-.111-.056.011.011,0,0,0-.015-.009.208.208,0,0,0-.126-.1.015.015,0,0,0-.017-.011,5.045,5.045,0,0,0-.574-.486.9.9,0,0,1-.312-.347q0-.072,0-.145a.182.182,0,0,0,.027-.03.358.358,0,0,1,.61-.124.562.562,0,0,0,.18.124.009.009,0,0,0,.013.009.089.089,0,0,0,.068.055h0a.061.061,0,0,0,.061.049c.021.027.037.059.076.063a.058.058,0,0,0,.064.048.011.011,0,0,0,.015.01c.1.106.141.1.235-.062h0a3.288,3.288,0,0,0,.42-.475h0c.032-.006.054-.02.055-.056a.171.171,0,0,0,.089-.1,2,2,0,0,0,.348-.393.107.107,0,0,0,.074-.081.42.42,0,0,0,.055-.04A.375.375,0,0,1,1874.294,335.483Z" transform="translate(-1867.958 -327.184)" fill="#32a0e9"/>
  <path id="Path_111624" data-name="Path 111624" d="M1871.263,459.945l.03-.03a.453.453,0,0,1,.581.078.232.232,0,0,0,.121.085l.049.038a.059.059,0,0,0,.062.047l.045.039c.044.075.126.107.185.164a.07.07,0,0,0,.11-.011c.213-.249.446-.481.644-.743l.523-.559a.373.373,0,0,1,.134-.1c.2-.08.327.03.449.16a.456.456,0,0,1-.1.455c-.408.454-.808.915-1.216,1.37a.945.945,0,0,1-.358.321l-.232-.012a.091.091,0,0,0-.076-.046,1.063,1.063,0,0,0-.251-.2,4.574,4.574,0,0,0-.533-.448.676.676,0,0,1-.262-.332c0-.038,0-.076,0-.113A.453.453,0,0,0,1871.263,459.945Z" transform="translate(-1867.872 -447.36)" fill="#32a0e9"/>
  <path id="Path_111625" data-name="Path 111625" d="M1871.333,578.707l.145-.125a.44.44,0,0,1,.471.116.59.59,0,0,0,.116.073l.027.023a.06.06,0,0,0,.061.049.012.012,0,0,0,.015.01.176.176,0,0,0,.125.1.013.013,0,0,0,.016.011c.028.057.089.08.131.123s.073.027.106-.011c.2-.236.429-.452.611-.706a.045.045,0,0,0,.036-.042,3.275,3.275,0,0,0,.437-.491.333.333,0,0,0,.115-.119.493.493,0,0,0,.053-.016.36.36,0,0,1,.465.1.382.382,0,0,1-.045.466q-.618.7-1.241,1.4a.949.949,0,0,1-.351.312l-.171,0-.278-.176-.033-.029c-.2-.162-.389-.328-.591-.483a.842.842,0,0,1-.278-.3c0-.048,0-.1,0-.143A.2.2,0,0,0,1871.333,578.707Z" transform="translate(-1867.972 -562.758)" fill="#32a0e9"/>
  <path id="Path_111626" data-name="Path 111626" d="M1871.248,698.088c0-.038,0-.077,0-.115a.219.219,0,0,0,.025-.033c.149-.3.375-.343.635-.123.148.126.306.24.452.369.1.089.16.066.207-.047a8.858,8.858,0,0,0,.641-.71,3.145,3.145,0,0,0,.392-.464l.117-.115a.418.418,0,0,1,.558.124l.015.047a.505.505,0,0,1-.121.4c-.428.473-.845.956-1.265,1.435a.739.739,0,0,1-.362.269l-.111,0a.053.053,0,0,0-.057-.025l-.036-.012a.087.087,0,0,0-.076-.049.532.532,0,0,0-.182-.147,4.507,4.507,0,0,0-.4-.317A1.168,1.168,0,0,1,1871.248,698.088Z" transform="translate(-1867.945 -678.55)" fill="#32a0e9"/>
  <path id="Path_111627" data-name="Path 111627" d="M2007.325,728.137c0,.139,0,.277,0,.416a.377.377,0,0,1-.324.431.243.243,0,0,0-.046.027.175.175,0,0,0-.114,0,2.949,2.949,0,0,0-.562,0,2.862,2.862,0,0,0-.558,0,2.938,2.938,0,0,0-.562,0,2.858,2.858,0,0,0-.559,0,2.935,2.935,0,0,0-.562,0,2.882,2.882,0,0,0-.559,0,.584.584,0,0,1-.41-.222l-.012-.039a.122.122,0,0,0-.032-.11,1.323,1.323,0,0,0,0-.337c.047-.348.171-.477.461-.477l3.255,0a1.159,1.159,0,0,1,.412.055.011.011,0,0,0,.016.008l.151.191Z" transform="translate(-1996.021 -708.714)" fill="#32a0e9"/>
  <path id="Path_111628" data-name="Path 111628" d="M2003.939,365.819a2.745,2.745,0,0,0,.561,0,4.136,4.136,0,0,0,.559,0,2.691,2.691,0,0,0,.563,0,4.044,4.044,0,0,0,.557,0,2.689,2.689,0,0,0,.563,0,4.052,4.052,0,0,0,.558,0,2.691,2.691,0,0,0,.563,0,4.044,4.044,0,0,0,.557,0,2.691,2.691,0,0,0,.563,0,4.044,4.044,0,0,0,.557,0,2.751,2.751,0,0,0,.563,0h.059c.161.059.32.133.336.325a1.488,1.488,0,0,1-.047.7l-.041.054a.814.814,0,0,1-.441.094c-1.3,0-2.595,0-3.892,0h-2.156a.381.381,0,0,1-.417-.406c0-.065.005-.131,0-.2a.466.466,0,0,1,.349-.567Z" transform="translate(-1996.483 -356.86)" fill="#32a0e9"/>
  <path id="Path_111629" data-name="Path 111629" d="M2004.2,492.9c-.34-.051-.436-.163-.437-.511q0-.112,0-.224a.38.38,0,0,1,.427-.432h2.155l3.974,0c.325,0,.447.122.449.448q0,.105,0,.21c0,.342-.078.439-.407.508a1282.813,1282.813,0,0,1-1.121,0,4.124,4.124,0,0,0-.559,0,4.22,4.22,0,0,0-.562,0,4.121,4.121,0,0,0-.559,0,4.212,4.212,0,0,0-.562,0,4.175,4.175,0,0,0-.559,0,4.2,4.2,0,0,0-.562,0,4.173,4.173,0,0,0-.559,0,4.212,4.212,0,0,0-.562,0A4.16,4.16,0,0,0,2004.2,492.9Z" transform="translate(-1996.74 -479.243)" fill="#32a0e9"/>
  <path id="Path_111630" data-name="Path 111630" d="M2008.693,602.521a1.315,1.315,0,0,1,.084.614.408.408,0,0,1-.445.43.926.926,0,0,0-.263.013,3.5,3.5,0,0,0-.558,0,2.467,2.467,0,0,0-.565,0,3.467,3.467,0,0,0-.556,0,2.467,2.467,0,0,0-.565,0,3.467,3.467,0,0,0-.556,0,2.467,2.467,0,0,0-.565,0,3.571,3.571,0,0,0-.557,0c-.349-.069-.432-.171-.437-.53,0-.065,0-.131,0-.2a.4.4,0,0,1,.449-.449c.554,0,1.109,0,1.663,0h2.488a.834.834,0,0,0,.1-.011l.06.008a.541.541,0,0,0,.2.087Z" transform="translate(-1996.691 -586.796)" fill="#32a0e9"/>
</svg>
