<svg id="Group_42236" data-name="Group 42236" xmlns="http://www.w3.org/2000/svg" width="16" height="27.303" viewBox="0 0 16 27.303">
  <path id="Path_111631" data-name="Path 111631" d="M2791.66,389.987c0,.665.007,1.314,0,1.962a2.532,2.532,0,0,1-1.967,2.445,2.5,2.5,0,0,1-2.859-1.428,3.024,3.024,0,0,1-.231-1.108c-.027-1.351-.015-2.7-.009-4.054a2.512,2.512,0,0,1,2.594-2.593,3.228,3.228,0,0,0,2.31-.788,2.921,2.921,0,1,0-4.858-2.626c-.052.35-.042.71-.1,1.059a2.514,2.514,0,0,1-2.716,2.042,2.547,2.547,0,0,1-2.3-2.4,8,8,0,1,1,10.493,7.374C2791.9,389.9,2791.8,389.942,2791.66,389.987Z" transform="translate(-2781.516 -374.297)" fill="#36a2e9"/>
  <path id="Path_111632" data-name="Path 111632" d="M2865.242,771.784a3.091,3.091,0,1,1,3.092,3.086A3.1,3.1,0,0,1,2865.242,771.784Z" transform="translate(-2860.759 -747.567)" fill="#36a2e9"/>
</svg>
