<svg xmlns="http://www.w3.org/2000/svg" width="24.907" height="23.732" viewBox="0 0 24.907 23.732">
  <g id="Group_42535" data-name="Group 42535" transform="translate(-1282.048 -320.014)">
    <path id="Path_115297" data-name="Path 115297" d="M795.2,371.558c.506-1.074,1.021-2.14,1.508-3.219a.661.661,0,0,1,.693-.444c2.068.011,4.135.005,6.2.005h.1c.468.012.648.3.449.724q-.939,2.007-1.886,4.01a1.116,1.116,0,0,0-.112.494q.006,3.916,0,7.832a1.085,1.085,0,0,0,.069.4,5.932,5.932,0,0,1-.314,5.083.286.286,0,0,0,.065.41c.646.634,1.291,1.268,1.914,1.924a1.674,1.674,0,0,1-.825,2.795,1.637,1.637,0,0,1-1.68-.545q-.891-.989-1.769-1.989a.24.24,0,0,0-.344-.07A6,6,0,0,1,791.2,386.1a.281.281,0,0,0-.313-.181q-3.67.005-7.34,0a1.969,1.969,0,0,1-2.058-1.621,2.891,2.891,0,0,1-.031-.54q0-5.325,0-10.65a1.1,1.1,0,0,0-.1-.47q-.9-1.969-1.788-3.941c-.028-.063-.056-.126-.079-.19a.424.424,0,0,1,.386-.6,2.554,2.554,0,0,1,.258-.006q6.423,0,12.846-.006a.7.7,0,0,1,.749.476c.423,1,.884,1.975,1.331,2.96A.444.444,0,0,0,795.2,371.558Zm-6.69,1.536c-2.016,0-4.032,0-6.048,0-.174,0-.23.032-.229.22q.01,5.286.005,10.572a1.183,1.183,0,0,0,1.259,1.264c2.378,0,4.756,0,7.134,0,.173,0,.224-.032.174-.212a4.607,4.607,0,0,1-.154-1.458c.011-.217-.039-.272-.257-.27-1.723.009-3.446.006-5.169,0-.487,0-.669-.184-.67-.673q0-1.034,0-2.068c0-.576.157-.732.737-.732q3.244,0,6.488,0a.446.446,0,0,0,.381-.155,5.691,5.691,0,0,1,2.425-1.651.274.274,0,0,0,.213-.315q-.012-2.132,0-4.265c0-.213-.048-.27-.265-.268C792.527,373.1,790.519,373.094,788.512,373.094Zm2.916,10.465a5.225,5.225,0,1,0,5.246-5.214A5.216,5.216,0,0,0,791.427,383.559Zm9.956-3.7c0-2.253,0-4.432,0-6.611,0-.183-.1-.159-.209-.159-1.8,0-3.6,0-5.4,0-.171,0-.211.046-.21.213q.01,2.067,0,4.134c0,.189.047.227.229.2a5.9,5.9,0,0,1,3.581.582A6.1,6.1,0,0,1,801.383,379.863Z" transform="translate(502.589 -47.881)" fill="#0882d3"/>
    <path id="Path_115304" data-name="Path 115304" d="M973.068,535.843a3.61,3.61,0,1,1-3.57,3.633A3.624,3.624,0,0,1,973.068,535.843Zm1.218,2.824a.349.349,0,0,0-.194-.3.326.326,0,0,0-.4.068c-.25.244-.5.493-.742.74-.308.308-.308.308-.627.012a.35.35,0,0,0-.523-.03c-.147.152-.134.338.044.521s.33.336.5.5a.354.354,0,0,0,.573,0c.411-.405.815-.817,1.224-1.225A.456.456,0,0,0,974.285,538.667Z" transform="translate(325.938 -203.963)" fill="#0882d3"/>
  </g>
</svg>
