<svg xmlns="http://www.w3.org/2000/svg" width="19.434" height="22.307" viewBox="0 0 19.434 22.307">
  <g id="Group_42528" data-name="Group 42528" transform="translate(2992.874 -8508.762)">
    <path id="Path_115269" data-name="Path 115269" d="M800.25,476.345h-16.9c-.006-.034-.032-.043-.061-.051a1.627,1.627,0,0,1-1.164-1.7q.02-6.739,0-13.479c0-.193.042-.248.243-.248q9.471.009,18.943,0c.2,0,.246.048.246.246q-.01,4.91,0,9.82,0,1.894,0,3.789a1.582,1.582,0,0,1-.595,1.295A2.469,2.469,0,0,1,800.25,476.345Zm-9.279-6.05a.729.729,0,0,0,.547-.271q1.6-1.6,3.2-3.2a1.278,1.278,0,0,0,.159-.178.65.65,0,0,0-.542-1.024.734.734,0,0,0-.529.264c-.9.9-1.808,1.805-2.707,2.713-.106.107-.161.113-.268,0q-.48-.5-.984-.986a.65.65,0,1,0-.917.923c.518.529,1.045,1.049,1.569,1.572A.617.617,0,0,0,790.971,470.3Z" transform="translate(-3775 8054.723)" fill="#0882d3"/>
    <path id="Path_115272" data-name="Path 115272" d="M790.874,341.279l1.514-2.625c.416-.722.833-1.442,1.245-2.166a1.332,1.332,0,0,1,1.245-.723q2.2.006,4.4,0c.179,0,.21.055.209.218q-.008,2.548,0,5.1c0,.149-.018.215-.2.214q-4.149-.009-8.3,0C790.966,341.285,790.938,341.282,790.874,341.279Z" transform="translate(-3783.271 8173)" fill="#0882d3"/>
    <path id="Path_115273" data-name="Path 115273" d="M981.088,341.3h-3.839c-1.495,0-2.99,0-4.485,0-.182,0-.247-.03-.245-.233q.014-2.547,0-5.094c0-.164.04-.2.2-.2,1.473.007,2.946,0,4.419,0a1.245,1.245,0,0,1,1.137.64c.927,1.588,1.843,3.182,2.762,4.774C981.053,341.215,981.063,341.241,981.088,341.3Z" transform="translate(-3955.003 8172.99)" fill="#0882d3"/>
  </g>
</svg>
