<svg xmlns="http://www.w3.org/2000/svg" width="41.988" height="39.723" viewBox="0 0 41.988 39.723">
  <g id="Group_42530" data-name="Group 42530" transform="translate(-6598.792 931.049)">
    <path id="Path_115279" data-name="Path 115279" d="M797.78,373.265v2.542c-.2.234-.141.534-.194.8a11.9,11.9,0,0,1-4.875,7.679,11.744,11.744,0,0,1-9.8,1.941,11.6,11.6,0,0,1-6.248-3.74.877.877,0,0,0-.74-.312q-9.449.012-18.9.006c-.936,0-1.225-.287-1.225-1.215q0-13.875-.006-27.749a1.539,1.539,0,0,1,.472-1.167c1.52-1.533,3.034-3.072,4.528-4.631a1.731,1.731,0,0,1,1.366-.578q14.962.068,29.924.105c.986,0,1.256.275,1.256,1.268,0,5.411.007,10.821-.012,16.232a1.388,1.388,0,0,0,.517,1.144,11.793,11.793,0,0,1,3.781,7.026A1.272,1.272,0,0,0,797.78,373.265Zm-22.626,7.183c-.074-.15-.116-.235-.159-.32a11.593,11.593,0,0,1-.115-11.009c2.323-4.528,6.157-6.733,11.247-6.721.364,0,.416-.1.414-.423-.013-2.582-.017-5.164,0-7.746,0-.4-.092-.486-.486-.485q-14.038.019-28.076,0c-.364,0-.467.079-.467.459q.018,12.889,0,25.778c0,.358.067.477.458.476q8.382-.022,16.763-.01Zm7.97-.247a1.183,1.183,0,0,0,.831-.414q3.977-3.907,7.957-7.811a2.364,2.364,0,0,0,.249-.271.851.851,0,0,0-.047-1.121.835.835,0,0,0-1.118-.094,2.963,2.963,0,0,0-.369.323q-3.615,3.545-7.222,7.1c-.2.194-.305.212-.515.015-.876-.823-1.767-1.632-2.661-2.434a.871.871,0,1,0-1.157,1.282c1.135,1.047,2.279,2.084,3.419,3.125A1.058,1.058,0,0,0,783.124,380.2Z" transform="translate(5843 -1277.892)" fill="#0882d3"/>
  </g>
</svg>
