<svg xmlns="http://www.w3.org/2000/svg" width="31.63" height="36.926" viewBox="0 0 31.63 36.926">
  <g id="Group_42529" data-name="Group 42529" transform="translate(-6703.123 823.925)">
    <path id="Path_115275" data-name="Path 115275" d="M831.924,408.995q-4.058,0-8.117,0a5.316,5.316,0,0,1-5.481-5.018c-.28-2.854-.633-5.7-.949-8.55s-.624-5.674-.938-8.511c-.095-.859-.184-1.719-.295-2.576a1.362,1.362,0,0,1,1.495-1.715c2.005,0,4.01-.008,6.015.008.308,0,.378-.072.381-.379a21.435,21.435,0,0,1,.144-3.82,7.913,7.913,0,0,1,15.514-.012,19.893,19.893,0,0,1,.143,3.779c0,.38.113.436.454.433,1.991-.016,3.983-.009,5.974-.008a1.362,1.362,0,0,1,1.469,1.7c-.359,3.121-.7,6.245-1.047,9.368-.405,3.613-.78,7.23-1.235,10.837a5.142,5.142,0,0,1-5.042,4.451c-2.829.034-5.658.008-8.487.008Zm.011-2.637c2.761,0,5.521,0,8.282,0a2.648,2.648,0,0,0,2.684-2.434q.41-3.848.845-7.693.6-5.339,1.2-10.676c.027-.239-.028-.3-.268-.3-1.511.011-3.022.014-4.532,0-.275,0-.308.095-.3.329.014.673.015,1.346,0,2.019-.005.221.062.284.276.332a1.311,1.311,0,0,1,1.042,1.423,1.33,1.33,0,0,1-1.359,1.177c-.838.007-1.676.006-2.513,0a1.342,1.342,0,0,1-1.388-1.147,1.309,1.309,0,0,1,1.088-1.464c.2-.045.228-.117.226-.289-.008-.7-.011-1.4,0-2.1,0-.209-.047-.278-.269-.277q-5.006.011-10.012,0c-.208,0-.282.045-.278.269q.023,1.05,0,2.1c0,.207.062.257.261.3a1.316,1.316,0,0,1,1.055,1.453,1.338,1.338,0,0,1-1.383,1.152q-1.236.008-2.472,0a1.341,1.341,0,0,1-1.405-1.173,1.3,1.3,0,0,1,1.075-1.434c.23-.048.241-.141.24-.319-.005-.687-.012-1.374,0-2.06.005-.236-.067-.294-.3-.292q-2.266.015-4.532,0c-.226,0-.307.037-.277.289.231,1.99.447,3.982.669,5.973q.684,6.116,1.369,12.232a2.661,2.661,0,0,0,2.895,2.608Zm-.02-23.734h.989c1.332,0,2.664,0,4,0,.123,0,.325.1.316-.177a30.209,30.209,0,0,0-.075-3.29,5.267,5.267,0,0,0-10.4-.007c-.153,1.038-.03,2.084-.079,3.125-.014.288.063.363.355.36C828.647,382.615,830.281,382.623,831.915,382.623Z" transform="translate(5887 -1196)" fill="#0882d3"/>
    <path id="Path_115278" data-name="Path 115278" d="M923.863,565.311a1.348,1.348,0,0,1-.317.828q-2.6,3.244-5.192,6.487a1.308,1.308,0,0,1-1.9.285q-1.921-1.267-3.83-2.553a1.318,1.318,0,1,1,1.452-2.2c.849.553,1.7,1.1,2.525,1.694.329.237.472.168.7-.123,1.364-1.735,2.748-3.455,4.13-5.177a1.32,1.32,0,0,1,2.426.755Z" transform="translate(5801.667 -1366.788)" fill="#0882d3"/>
  </g>
</svg>
