<svg xmlns="http://www.w3.org/2000/svg" width="33.753" height="31.37" viewBox="0 0 33.753 31.37">
  <g id="Group_42533" data-name="Group 42533" transform="translate(-6508.079 847.365)">
    <path id="Path_115307" data-name="Path 115307" d="M896.769,520.482c-.02.024-.052.044-.058.071a2.814,2.814,0,0,1-1.193,1.711q-5.267,3.869-10.52,7.755a4.72,4.72,0,0,1-3.236,1.063c-.776-.059-1.548-.181-2.321-.277l-5.619-.7c-.359-.045-.719-.084-1.078-.135a.562.562,0,0,1-.512-.646c0-1.351.009-2.7,0-4.054-.016-2.339.064-4.68-.06-7.018a.567.567,0,0,1,.311-.569c.994-.557,1.972-1.146,2.986-1.664a3.1,3.1,0,0,1,3.064.043c2.171,1.235,4.332,2.491,6.47,3.784a3.352,3.352,0,0,1-2.85,6c-1.609-.537-3.2-1.126-4.8-1.693a.809.809,0,0,0-.413-.089.531.531,0,0,0-.485.465.539.539,0,0,0,.4.635c1.175.419,2.349.842,3.528,1.252a12.761,12.761,0,0,0,2.159.676,4.521,4.521,0,0,0,5.069-3.776,4.588,4.588,0,0,0-.167-2.016.607.607,0,0,1,.35-.865c1.627-.884,3.271-1.736,4.876-2.659a2.662,2.662,0,0,1,4.044,1.718c0,.024.04.042.061.063Z" transform="translate(5645.063 -1349.46)" fill="#0882d3"/>
    <path id="Path_115308" data-name="Path 115308" d="M768.079,523.716c.1-.029.075-.126.1-.192a2.756,2.756,0,0,1,2.623-2.069c.865-.041,1.736-.043,2.6,0a2.788,2.788,0,0,1,2.766,2.943c.006,2.745,0,5.491,0,8.236,0,1.043,0,2.087,0,3.13a2.834,2.834,0,0,1-2.978,2.978c-.747,0-1.494.01-2.24,0a2.831,2.831,0,0,1-2.778-2.1c-.02-.067.007-.162-.091-.195Z" transform="translate(5740 -1354.738)" fill="#0882d3"/>
    <path id="Path_115309" data-name="Path 115309" d="M924.557,369.186q0,2.884,0,5.768c0,.656-.075.734-.722.86a6.377,6.377,0,0,0-1.782.747c-1.5.805-2.983,1.623-4.474,2.435-.513.279-.62.265-1.04-.125a6.759,6.759,0,0,0-1.223-.83q-2.851-1.671-5.707-3.331a4.452,4.452,0,0,0-3.33-.51c-.555.126-.838-.1-.838-.684q0-5.043,0-10.086a1.7,1.7,0,0,1,1.773-1.791c1.143-.009,2.285,0,3.428,0,.511,0,.71.208.71.729q0,3.2,0,6.394c0,.664.326.884.953.643.767-.294,1.536-.581,2.3-.891a1.017,1.017,0,0,1,.822,0c.751.3,1.509.589,2.264.881.654.253.976.027.976-.688q0-3.148,0-6.3c0-.609.171-.778.786-.778q1.631,0,3.263,0a1.7,1.7,0,0,1,1.844,1.845Q924.56,366.335,924.557,369.186Z" transform="translate(5614.719 -1209)" fill="#0882d3"/>
    <path id="Path_115310" data-name="Path 115310" d="M985.461,364.943c0-.868,0-1.736,0-2.6,0-.475.2-.684.682-.685q1.846-.006,3.691,0c.474,0,.689.213.69.684q.006,2.636,0,5.273c0,.369-.16.477-.5.347-.552-.21-1.1-.422-1.651-.645a.941.941,0,0,0-.761,0c-.546.226-1.1.435-1.651.644-.344.13-.494.024-.5-.347C985.459,366.722,985.461,365.832,985.461,364.943Z" transform="translate(5541.733 -1209.015)" fill="#0882d3"/>
  </g>
</svg>
