<svg xmlns="http://www.w3.org/2000/svg" width="40.501" height="36.867" viewBox="0 0 40.501 36.867">
  <g id="Group_42537" data-name="Group 42537" transform="translate(-6238.084 798.651)">
    <path id="Path_115327" data-name="Path 115327" d="M704.084,359.9c.169-.05.209.113.29.189.864.813,1.714,1.641,2.583,2.448a.832.832,0,0,1,.3.678q-.016,6.723-.007,13.446a1.647,1.647,0,0,0,1.832,1.862,1.5,1.5,0,0,0,1.684-.871,4.244,4.244,0,0,1,4.088-2.278,4.548,4.548,0,0,1,4.242,2.839.432.432,0,0,0,.464.3q4.43-.013,8.859,0c.265,0,.353-.048.353-.336q-.013-10.955-.008-21.91a1.6,1.6,0,0,0-1.721-1.733c-1.239-.01-2.479,0-3.718,0h-.381c-.055-.121.039-.161.084-.211q1.227-1.369,2.461-2.733c.086-.095.153-.215.312-.213a8.806,8.806,0,0,1,3.01.3,4.739,4.739,0,0,1,3.11,4.31c.022,1,.015,2,0,3.005,0,.242.057.306.3.306,1.094,0,2.189-.057,3.281.032a4.322,4.322,0,0,1,3.176,1.632c1.653,2.117,3.261,4.271,4.859,6.43a5.623,5.623,0,0,1,.963,2.478c.01.061-.008.135.08.154v11.628c-.144.008-.288.023-.432.023-1.924,0-3.849.007-5.773-.006a.516.516,0,0,0-.557.352,4.724,4.724,0,0,1-8.637-.02.49.49,0,0,0-.529-.331c-2.979.009-5.957.014-8.936,0a.637.637,0,0,0-.692.454,4.7,4.7,0,0,1-5.229,2.615,4.643,4.643,0,0,1-3.376-2.76.423.423,0,0,0-.466-.305c-.447.017-.9.011-1.344-.008a4.718,4.718,0,0,1-4.388-3.582c-.033-.128,0-.292-.144-.383Zm27.845,15.682a1.32,1.32,0,0,0,.478-.085,4.482,4.482,0,0,1,1.994-.045,4.635,4.635,0,0,1,3.466,2.811c.067.152.13.258.335.255,1-.012,2-.01,3,0,.179,0,.218-.062.217-.227q-.007-3.241,0-6.483c0-.173-.026-.259-.233-.258q-4.507.009-9.013,0c-.181,0-.254.041-.253.239C731.932,373.051,731.929,374.315,731.929,375.581Zm8.438-7.195c-1.4-1.839-2.736-3.611-4.085-5.375a1.517,1.517,0,0,0-1.258-.554c-.949-.011-1.9,0-2.847-.007-.183,0-.252.044-.252.24q.01,2.728,0,5.456c0,.19.051.244.243.243C734.869,368.385,737.57,368.387,740.366,368.387ZM714.775,381.67a1.576,1.576,0,0,0,1.568-1.594,1.58,1.58,0,0,0-3.161.025A1.577,1.577,0,0,0,714.775,381.67Zm18.751,0a1.576,1.576,0,0,0,1.564-1.6,1.58,1.58,0,0,0-3.16.031A1.578,1.578,0,0,0,733.526,381.67Z" transform="translate(5534 -1146.625)" fill="#0882d3"/>
    <path id="Path_115329" data-name="Path 115329" d="M704.084,315.766a5.692,5.692,0,0,0,.969-.941c.348-.341.686-.695,1.005-1.062.169-.194.269-.192.455-.013,1.491,1.435,3,2.854,4.487,4.289.214.206.322.233.539-.011,2.826-3.165,5.669-6.314,8.494-9.481.238-.267.356-.253.6-.021.579.557,1.184,1.087,1.79,1.615.177.154.233.243.045.452q-5.412,6.006-10.8,12.032c-.2.228-.294.134-.452-.018q-3.527-3.375-7.062-6.743c-.015-.014-.044-.013-.066-.019Z" transform="translate(5534 -1107)" fill="#0882d3"/>
  </g>
</svg>
