<svg xmlns="http://www.w3.org/2000/svg" width="19.987" height="22.096" viewBox="0 0 19.987 22.096"><defs><style>.a{fill:none;stroke:#000;opacity:0.3;}</style></defs><path class="a" d="M10.829,12.493H8.719V14.6h2.11Zm4.219,0h-2.11V14.6h2.11Zm4.219,0h-2.11V14.6h2.11Zm2.11-7.384H20.322V3h-2.11V5.11H9.774V3H7.664V5.11H6.61a2.1,2.1,0,0,0-2.1,2.11L4.5,21.987A2.109,2.109,0,0,0,6.61,24.1H21.377a2.116,2.116,0,0,0,2.11-2.11V7.219A2.116,2.116,0,0,0,21.377,5.11Zm0,16.877H6.61v-11.6H21.377Z" transform="translate(-4 -2.5)"/></svg>