<svg xmlns="http://www.w3.org/2000/svg" width="18.258" height="30.366" viewBox="0 0 18.258 30.366"><defs><style>.a{fill:none;stroke-linecap:round;}.b,.c{stroke:none;}.c{fill:#fff;}</style></defs><g class="a" transform="translate(0.391 2)"><path class="b" d="M14.805,14.831l.732-4.772H10.959v-3.1a2.386,2.386,0,0,1,2.69-2.578h2.081V.322A25.383,25.383,0,0,0,12.036,0C8.265,0,5.8,2.285,5.8,6.423v3.637H1.609v4.772H5.8V26.366h5.158V14.831Z"/><path class="c" d="M 10.95906734466553 26.36594390869141 L 10.95906734466553 14.83084392547607 L 14.8052978515625 14.83084392547607 L 15.53757762908936 10.05922412872314 L 10.95906734466553 10.05922412872314 L 10.95906734466553 6.96277379989624 C 10.95906734466553 5.65735387802124 11.59864807128906 4.384883880615234 13.64921760559082 4.384883880615234 L 15.73067760467529 4.384883880615234 L 15.73067760467529 0.3223638534545898 C 15.73067760467529 0.3223638534545898 13.84180736541748 3.861694494844414e-06 12.03584766387939 3.861694494844414e-06 C 8.265307426452637 3.861694494844414e-06 5.800707817077637 2.285393953323364 5.800707817077637 6.422584056854248 L 5.800707817077637 10.05922412872314 L 1.609457731246948 10.05922412872314 L 1.609457731246948 14.83084392547607 L 5.800707817077637 14.83084392547607 L 5.800707817077637 26.36594390869141 L 10.95906734466553 26.36594390869141 M 12.95906734466553 28.36594390869141 L 10.95906734466553 28.36594390869141 L 5.800707817077637 28.36594390869141 L 3.800707817077637 28.36594390869141 L 3.800707817077637 26.36594390869141 L 3.800707817077637 16.83084297180176 L 1.609457731246948 16.83084297180176 L -0.390542209148407 16.83084297180176 L -0.390542209148407 14.83084392547607 L -0.390542209148407 10.05922412872314 L -0.390542209148407 8.059224128723145 L 1.609457731246948 8.059224128723145 L 3.800707817077637 8.059224128723145 L 3.800707817077637 6.422584056854248 C 3.800707817077637 1.306063890457153 7.033187866210938 -1.999996185302734 12.03584766387939 -1.999996185302734 C 13.98878765106201 -1.999996185302734 15.98319816589355 -1.663456082344055 16.067138671875 -1.649136185646057 L 17.73067855834961 -1.365226149559021 L 17.73067855834961 0.3223638534545898 L 17.73067855834961 4.384883880615234 L 17.73067855834961 6.384883880615234 L 15.73067760467529 6.384883880615234 L 13.64921760559082 6.384883880615234 C 13.22939777374268 6.384883880615234 13.06327819824219 6.474823951721191 13.0479679107666 6.492533683776855 C 13.0249080657959 6.519203662872314 12.95906734466553 6.662833690643311 12.95906734466553 6.96277379989624 L 12.95906734466553 8.059224128723145 L 15.53757762908936 8.059224128723145 L 17.86792755126953 8.059224128723145 L 17.51443862915039 10.36260414123535 L 16.78215789794922 15.13422393798828 L 16.52177810668945 16.83084297180176 L 14.8052978515625 16.83084297180176 L 12.95906734466553 16.83084297180176 L 12.95906734466553 26.36594390869141 L 12.95906734466553 28.36594390869141 Z"/></g></svg>