<svg xmlns="http://www.w3.org/2000/svg" xmlns:xlink="http://www.w3.org/1999/xlink" width="45.367" height="50.137" viewBox="0 0 45.367 50.137"><defs><style>.a{fill:#fff;}.b{fill:#0af;}.c{filter:url(#a);}</style><filter id="a" x="0" y="0" width="45.367" height="50.137" filterUnits="userSpaceOnUse"><feOffset dy="3" input="SourceAlpha"/><feGaussianBlur stdDeviation="3" result="b"/><feFlood flood-opacity="0.102"/><feComposite operator="in" in2="b"/><feComposite in="SourceGraphic"/></filter></defs><g transform="translate(-204.815 -991.594)"><g class="c" transform="matrix(1, 0, 0, 1, 204.81, 991.59)"><path class="a" d="M27.335,8.719V8.694c-.014-.309-.023-.635-.029-1A3.406,3.406,0,0,0,24.1,4.358a13.217,13.217,0,0,1-9-3.792l-.021-.02a2.057,2.057,0,0,0-2.8,0l-.021.02a13.218,13.218,0,0,1-9,3.792A3.406,3.406,0,0,0,.063,7.7c-.005.361-.015.687-.029,1v.058C-.04,12.52-.129,17.209,1.44,21.465a16.184,16.184,0,0,0,3.883,6.048,20.31,20.31,0,0,0,7.6,4.494,2.354,2.354,0,0,0,.311.085,2.3,2.3,0,0,0,.9,0,2.361,2.361,0,0,0,.313-.085,20.324,20.324,0,0,0,7.59-4.5,16.206,16.206,0,0,0,3.883-6.049C27.5,17.192,27.406,12.494,27.335,8.719Z" transform="translate(9 6)"/></g><path class="b" d="M98.407,128.41a8.009,8.009,0,1,0,8.009,8.009A8.018,8.018,0,0,0,98.407,128.41Zm0,14.132a6.123,6.123,0,1,1,6.123-6.123A6.13,6.13,0,0,1,98.407,142.542Zm0,0" transform="translate(129.09 877.245)"/><path class="b" d="M160.012,212.267l-3.72,3.72-1.01-1.01a.943.943,0,1,0-1.334,1.333l1.677,1.677a.943.943,0,0,0,1.333,0l4.387-4.387a.943.943,0,1,0-1.334-1.333Zm0,0" transform="translate(69.787 798.91)"/></g></svg>