<svg xmlns="http://www.w3.org/2000/svg" width="30.809" height="30.802" viewBox="0 0 30.809 30.802"><defs><style>.a{fill:#fff;}</style></defs><path class="a" d="M15.4,9.741a7.9,7.9,0,1,0,7.9,7.9A7.885,7.885,0,0,0,15.4,9.741Zm0,13.031a5.134,5.134,0,1,1,5.134-5.134A5.144,5.144,0,0,1,15.4,22.773ZM25.465,9.418a1.842,1.842,0,1,1-1.842-1.842A1.838,1.838,0,0,1,25.465,9.418Zm5.23,1.869a9.116,9.116,0,0,0-2.488-6.454,9.176,9.176,0,0,0-6.454-2.488C19.21,2.2,11.588,2.2,9.045,2.346A9.162,9.162,0,0,0,2.591,4.827,9.145,9.145,0,0,0,.1,11.281c-.144,2.543-.144,10.165,0,12.708a9.116,9.116,0,0,0,2.488,6.454,9.187,9.187,0,0,0,6.454,2.488c2.543.144,10.165.144,12.708,0a9.116,9.116,0,0,0,6.454-2.488A9.176,9.176,0,0,0,30.7,23.989c.144-2.543.144-10.158,0-12.7ZM27.41,26.718a5.2,5.2,0,0,1-2.928,2.928c-2.028.8-6.839.619-9.079.619s-7.059.179-9.079-.619A5.2,5.2,0,0,1,3.4,26.718c-.8-2.028-.619-6.839-.619-9.079S2.6,10.58,3.4,8.559A5.2,5.2,0,0,1,6.323,5.631c2.028-.8,6.839-.619,9.079-.619s7.059-.179,9.079.619A5.2,5.2,0,0,1,27.41,8.559c.8,2.028.619,6.839.619,9.079S28.214,24.7,27.41,26.718Z" transform="translate(0.005 -2.238)"/></svg>