<svg xmlns="http://www.w3.org/2000/svg" width="22" height="21.083" viewBox="0 0 22 21.083"><defs><style>.a{opacity:0.2;}</style></defs><g class="a" transform="translate(0 -10.667)"><g transform="translate(0 10.667)"><path d="M22,23.271a2.037,2.037,0,0,0-.6-1.443,2.276,2.276,0,0,0,.587-1.75A2.369,2.369,0,0,0,19.6,18H13.937a13.18,13.18,0,0,0,.73-3.667c0-1.988-1.689-3.667-2.75-3.667a2.879,2.879,0,0,0-1.661.558.459.459,0,0,0-.172.358v3.108L7.442,20.411l-.109.056v-.175a.459.459,0,0,0-.458-.458H2.292A2.294,2.294,0,0,0,0,22.125v7.333A2.294,2.294,0,0,0,2.292,31.75h2.75A2.3,2.3,0,0,0,7.2,30.235a5.976,5.976,0,0,0,2.426.6h8.414a2.109,2.109,0,0,0,2.077-1.6,2.069,2.069,0,0,0-.165-1.378,2.055,2.055,0,0,0,.918-2.75A2.054,2.054,0,0,0,22,23.271ZM20.067,24.4a.458.458,0,0,0-.262.789,1.136,1.136,0,0,1-.654,1.961.458.458,0,0,0-.262.789,1.133,1.133,0,0,1,.332,1.094,1.186,1.186,0,0,1-1.182.882H9.625A4.345,4.345,0,0,1,7.2,29.134a.459.459,0,0,0-.783.325,1.377,1.377,0,0,1-1.375,1.375H2.292A1.377,1.377,0,0,1,.917,29.459V22.125A1.377,1.377,0,0,1,2.292,20.75H6.417v.458a.46.46,0,0,0,.218.391.468.468,0,0,0,.445.019L8,21.16a.458.458,0,0,0,.211-.217l2.75-5.958A.467.467,0,0,0,11,14.792v-2.96a1.933,1.933,0,0,1,.917-.248,3.026,3.026,0,0,1,1.833,2.75,14.273,14.273,0,0,1-.886,3.962.458.458,0,0,0,.428.622H19.6a1.447,1.447,0,0,1,1.478,1.246,1.369,1.369,0,0,1-.653,1.3.459.459,0,0,0,.031.8,1.135,1.135,0,0,1-.389,2.144Z" transform="translate(0 -10.667)"/></g><g transform="translate(6.417 20.75)"><path d="M149.791,245.333a.459.459,0,0,0-.458.458v8.25a.458.458,0,0,0,.917,0v-8.25A.459.459,0,0,0,149.791,245.333Z" transform="translate(-149.333 -245.333)"/></g></g></svg>