<svg xmlns="http://www.w3.org/2000/svg" width="28" height="26.833" viewBox="0 0 28 26.833"><defs><style>.a{fill:#777;}</style></defs><g transform="translate(0 -10.667)"><g transform="translate(0 10.667)"><path class="a" d="M28,26.709a2.592,2.592,0,0,0-.76-1.836,2.9,2.9,0,0,0,.747-2.227A3.016,3.016,0,0,0,24.944,20H17.738a16.774,16.774,0,0,0,.929-4.667c0-2.531-2.15-4.667-3.5-4.667a3.664,3.664,0,0,0-2.114.711.584.584,0,0,0-.219.456V15.79L9.472,23.069l-.139.071v-.223a.584.584,0,0,0-.583-.583H2.917A2.919,2.919,0,0,0,0,25.25v9.333A2.919,2.919,0,0,0,2.917,37.5h3.5a2.923,2.923,0,0,0,2.745-1.929,7.605,7.605,0,0,0,3.088.762H22.959A2.684,2.684,0,0,0,25.6,34.3a2.634,2.634,0,0,0-.21-1.754,2.615,2.615,0,0,0,1.168-3.5A2.614,2.614,0,0,0,28,26.709Zm-2.461,1.44a.583.583,0,0,0-.334,1,1.445,1.445,0,0,1-.832,2.5.583.583,0,0,0-.334,1,1.443,1.443,0,0,1,.422,1.392,1.509,1.509,0,0,1-1.5,1.122H12.25a5.53,5.53,0,0,1-3.087-1,.584.584,0,0,0-1,.413,1.752,1.752,0,0,1-1.75,1.75h-3.5a1.752,1.752,0,0,1-1.75-1.75V25.25a1.752,1.752,0,0,1,1.75-1.75h5.25v.583a.586.586,0,0,0,.278.5.6.6,0,0,0,.567.024l1.167-.583a.582.582,0,0,0,.268-.277l3.5-7.583A.594.594,0,0,0,14,15.917V12.15a2.46,2.46,0,0,1,1.167-.316c.639,0,2.333,1.589,2.333,3.5a18.166,18.166,0,0,1-1.128,5.042.582.582,0,0,0,.545.791h8.028a1.842,1.842,0,0,1,1.881,1.586,1.743,1.743,0,0,1-.831,1.651.584.584,0,0,0,.04,1.016,1.444,1.444,0,0,1-.495,2.729Z" transform="translate(0 -10.667)"/></g><g transform="translate(8.167 23.5)"><path class="a" d="M149.916,245.333a.584.584,0,0,0-.583.583v10.5a.583.583,0,0,0,1.167,0v-10.5A.584.584,0,0,0,149.916,245.333Z" transform="translate(-149.333 -245.333)"/></g></g></svg>