<svg xmlns="http://www.w3.org/2000/svg" width="276.872" height="129.549" viewBox="0 0 276.872 129.549"><defs><style>.a,.p{fill:#81c784;}.a{opacity:0.07;}.b{fill:none;stroke:#707070;opacity:0.1;}.c{fill:#e2dbd5;}.d{fill:#d4ccc7;}.e{fill:#c6bab3;}.f{fill:#ffead2;}.g{fill:#faddc3;}.h{fill:#f5d3b8;}.i{fill:#f09b73;}.j{fill:#e58b6c;}.k{fill:#efebe8;}.l{fill:#eed60f;}.m{fill:#f8e868;}.n{fill:#f6e23d;}.o{fill:#fcf5be;}.q{fill:#f2bba5;}.r{fill:#fff;}.s{fill:#c8e6c9;}.t{fill:#ea6049;}.u{fill:#de513e;}.v{fill:#49ad4d;}.w{fill:#66bb6a;}</style></defs><g transform="translate(-1440.153 -7055.512)"><ellipse class="a" cx="57.422" cy="57.001" rx="57.422" ry="57.001" transform="translate(1554.998 7185) rotate(180)"/><path class="b" d="M10960,8105s-10.831,90.969-90.471,88.667-139.55-11.478-156.626,40.665" transform="translate(12429.453 15290.001) rotate(180)"/><g transform="translate(1515 7089)"><path class="c" d="M72.375,10.969H48V2.438A2.437,2.437,0,0,1,50.438,0h19.5a2.438,2.438,0,0,1,2.438,2.438Z" transform="translate(-40.688)"/><path class="d" d="M153.775,56H144v69.469h17.113V69.406Z" transform="translate(-122.063 -47.469)"/><path class="e" d="M144,56h9.775v69.469H144Z" transform="translate(-122.063 -47.469)"/><path class="c" d="M25.838,128l-1.463,2.438V186.5H2.438A2.438,2.438,0,0,1,0,184.063V130.438A5.021,5.021,0,0,1,4.305,128Z" transform="translate(0 -108.5)"/><rect class="f" width="17" height="12" rx="6" transform="translate(46 0)"/><path class="g" d="M344.163,0h-3.656a13.409,13.409,0,0,1-7.817,12.188h11.473a1.219,1.219,0,0,0,1.219-1.219V1.219A1.219,1.219,0,0,0,344.163,0Z" transform="translate(-282.007)"/><path class="h" d="M304,24h17.063v2.438H304Z" transform="translate(-257.688 -20.344)"/><path class="i" d="M297.594,132.25H273.219A1.219,1.219,0,0,1,272,131.031V84.719a13.471,13.471,0,0,1,5.262-10.649c2.49-1.905-2.824-3.781-2.824-6.591A3.482,3.482,0,0,1,277.916,64H292.9a3.482,3.482,0,0,1,3.478,3.478c0,1.546-1.686,2.955-1.686,2.955-1.35,1.13-2.345,2.713-1.138,3.635a13.471,13.471,0,0,1,5.262,10.649v46.313A1.219,1.219,0,0,1,297.594,132.25Z" transform="translate(-230.563 -54.25)"/><path class="j" d="M272,205.591v29.342a1.219,1.219,0,0,0,1.219,1.219h24.375a1.219,1.219,0,0,0,1.219-1.219V188.621a13.271,13.271,0,0,0-.16-2.045A31.706,31.706,0,0,1,272,205.591Z" transform="translate(-230.563 -158.152)"/><path class="k" d="M24.375,69.406H0L7.313,56H31.688Z" transform="translate(0 -47.469)"/><path class="l" d="M280,254.312c8.3,0,18.963-1.721,24.006-6.584a1.2,1.2,0,0,0,.288-1.3l-9.985-25.707a1.222,1.222,0,0,0-1.455-.732c-3.363.9-3.931-3.4-1.75-4.489a1.2,1.2,0,0,0,.59-1.513l-2.025-5.213a1.219,1.219,0,0,0-1.137-.774H280Z" transform="translate(-237.344 -176.312)"/><path class="m" d="M191.843,254.313a22.153,22.153,0,0,1-15.475-6.235,1.219,1.219,0,0,1-.288-1.312l1.491-3.871a1.219,1.219,0,0,1,1.064-.779,2.476,2.476,0,0,0,1.573-4.1,1.219,1.219,0,0,1-.263-1.287l3.938-10.228a1.23,1.23,0,0,1,1.793-.589c3.045,1.943,5.176-3.9,1.724-4.465a1.232,1.232,0,0,1-.939-1.641l4.244-11.024a1.219,1.219,0,0,1,2.275,0l14.625,37.985a1.219,1.219,0,0,1-.288,1.312A22.153,22.153,0,0,1,191.843,254.313Z" transform="translate(-149.187 -176.313)"/><path class="n" d="M209.72,371.291l-6.309-16.386a30.487,30.487,0,0,1-24.917,17.708,22.321,22.321,0,0,0,30.938-.01,1.219,1.219,0,0,0,.288-1.312Z" transform="translate(-151.302 -300.837)"/><circle class="m" cx="3.5" cy="3.5" r="3.5" transform="translate(44 62)"/><ellipse class="n" cx="4" cy="3.5" rx="4" ry="3.5" transform="translate(40 54)"/><circle class="m" cx="3.5" cy="3.5" r="3.5" transform="translate(34 65)"/><g transform="translate(34.125 53.625)"><path class="l" d="M290.436,414.092a3.656,3.656,0,0,1,4.717-3.5,3.656,3.656,0,1,0-4.56,4.56A3.646,3.646,0,0,1,290.436,414.092Z" transform="translate(-278.248 -399.467)"/><path class="l" d="M266.436,358.092a3.656,3.656,0,0,1,4.717-3.5,3.656,3.656,0,1,0-4.56,4.56A3.646,3.646,0,0,1,266.436,358.092Z" transform="translate(-257.904 -351.998)"/><path class="l" d="M226.436,430.092a3.656,3.656,0,0,1,4.717-3.5,3.656,3.656,0,1,0-4.56,4.56A3.645,3.645,0,0,1,226.436,430.092Z" transform="translate(-223.998 -413.029)"/></g><circle class="o" cx="2.5" cy="2.5" r="2.5" transform="translate(40 40)"/><ellipse class="o" cx="1" cy="1.5" rx="1" ry="1.5" transform="translate(44 46)"/><path class="p" d="M336.033,328l2.438,26.923a1.219,1.219,0,0,0,1.214,1.108h17.063a1.219,1.219,0,0,0,1.214-1.108L360.4,328Z" transform="translate(-284.84 -278.031)"/><circle class="q" cx="3" cy="3" r="3" transform="translate(51 20)"/><ellipse class="q" cx="2" cy="1.5" rx="2" ry="1.5" transform="translate(57 26)"/><circle class="r" cx="2.5" cy="2.5" r="2.5" transform="translate(7 12)"/><circle class="r" cx="1.5" cy="1.5" r="1.5" transform="translate(12 17)"/><circle class="s" cx="2.5" cy="2.5" r="2.5" transform="translate(55 54)"/><circle class="s" cx="1" cy="1" r="1" transform="translate(60 59)"/><path class="d" d="M0,441.75a2.438,2.438,0,0,0,2.438,2.438H24.375V432C20.17,441.621,0,441.75,0,441.75Z" transform="translate(0 -366.188)"/><path class="t" d="M0,208H24.375v34.125H0Z" transform="translate(0 -176.313)"/><path class="u" d="M0,261.587v9.1H24.375V241.692A32.956,32.956,0,0,1,0,261.587Z" transform="translate(0 -204.872)"/><path class="r" d="M32,268.188C32,264.609,38.094,256,39.313,256s7.313,8.437,7.313,12.188C46.625,276.935,32,278.227,32,268.188Z" transform="translate(-27.125 -217)"/><path class="k" d="M36.09,321.736c2.789,6.374,14,4.431,14-3.228a8.693,8.693,0,0,0-.823-3.144,11.109,11.109,0,0,1-13.179,6.372Z" transform="translate(-30.592 -267.32)"/><path class="v" d="M348.031,322.438H321.219a1.219,1.219,0,0,1,0-2.437h26.813a1.219,1.219,0,0,1,0,2.438Z" transform="translate(-271.25 -271.25)"/><path class="w" d="M348,382.267l.615,6.792a1.219,1.219,0,0,0,1.213,1.108h17.063a1.219,1.219,0,0,0,1.214-1.108l1.882-20.788A26.2,26.2,0,0,1,348,382.267Z" transform="translate(-294.984 -312.167)"/></g></g></svg>