<svg xmlns="http://www.w3.org/2000/svg" width="144.486" height="114.001" viewBox="0 0 144.486 114.001"><defs><style>.a{fill:#7fdbd5;}.b{fill:#38648c;}.c{fill:#f28b74;}.d{fill:#287d99;}.e{opacity:0.1;}.f,.h{fill:#76b7eb;}.g{fill:#d1eff2;}.h{opacity:0.07;}</style></defs><g transform="translate(-1440.153 -6887.999)"><circle class="a" cx="2.938" cy="2.938" r="2.938" transform="translate(1540.979 6976.983)"/><g transform="translate(1544.76 6964.316)"><circle class="b" cx="2.795" cy="2.795" r="2.795" transform="translate(8.667 16.18)"/><circle class="b" cx="2.795" cy="2.795" r="2.795"/></g><circle class="a" cx="3.523" cy="3.523" r="3.523" transform="translate(1554.814 6968.803)"/><circle class="c" cx="3.774" cy="3.774" r="3.774" transform="translate(1543.781 6988.15)"/><path class="a" d="M138.342,70.566,125.557,81.951l16.2,18.189L154.54,88.754a12.178,12.178,0,0,0,1-17.193h0A12.178,12.178,0,0,0,138.342,70.566Z" transform="translate(1393.668 6845.491)"/><path class="d" d="M39.016,156.618,51.8,145.232,68,163.421,55.213,174.806a12.178,12.178,0,0,1-17.193-1h0A12.178,12.178,0,0,1,39.016,156.618Z" transform="translate(1467.424 6782.21)"/><path class="e" d="M81.964,71.568A12.152,12.152,0,0,0,72.329,67.5a12.146,12.146,0,0,0,1.307,10.025l4.032,6.459a2.631,2.631,0,0,1-.54,3.412c-7.544,6.3-17.193,13.106-22.239,15.174-7.718,3.162-14.46-4.838-13.372-11.291l-2.181,1.942A12.178,12.178,0,1,0,55.4,111.533L80.968,88.761a12.178,12.178,0,0,0,1-17.193Z" transform="translate(1467.238 6845.484)"/><path class="f" d="M250.589,18.628l9.066,14.523,20.66-12.9L271.249,5.73A12.178,12.178,0,0,0,254.47,1.849h0A12.178,12.178,0,0,0,250.589,18.628Z" transform="translate(1293.408 6900.415)"/><path class="g" d="M316.46,136.249l-9.066-14.523,20.66-12.9,9.066,14.523a12.178,12.178,0,0,1-3.881,16.779h0A12.178,12.178,0,0,1,316.46,136.249Z" transform="translate(1245.67 6811.839)"/><path class="e" d="M285.5,59.479a12.275,12.275,0,0,0,1.533-1.132c-14.477-2.128-33.35-36.687-32.5-48.611l-.063.037h0a12.178,12.178,0,0,0-3.881,16.779L268.721,55.6A12.178,12.178,0,0,0,285.5,59.479Z" transform="translate(1293.41 6892.491)"/><path class="c" d="M135.2,253.75l14.827,6.141a1.072,1.072,0,0,0,1.4-.58l8.5-20.521a1.072,1.072,0,0,0-.58-1.4l-14.827-6.142a12.178,12.178,0,0,0-15.911,6.591h0A12.178,12.178,0,0,0,135.2,253.75Z" transform="translate(1391.939 6712.958)"/><path class="e" d="M151.43,273.866l2.093-5.054c-17.512-3.333-23.392-13.682-22.021-20.611a12.127,12.127,0,0,0-2.89,4.193h0A12.178,12.178,0,0,0,135.2,268.3l14.827,6.142A1.072,1.072,0,0,0,151.43,273.866Z" transform="translate(1391.938 6698.404)"/><path class="f" d="M326.329,253.75,311.5,259.892a1.072,1.072,0,0,1-1.4-.58l-8.5-20.521a1.072,1.072,0,0,1,.58-1.4l14.827-6.141a12.178,12.178,0,0,1,15.911,6.591h0A12.178,12.178,0,0,1,326.329,253.75Z" transform="translate(1250.451 6712.958)"/><ellipse class="h" cx="57.422" cy="57.001" rx="57.422" ry="57.001" transform="translate(1554.998 7002) rotate(180)"/></g></svg>