<svg xmlns="http://www.w3.org/2000/svg" width="119" height="194.192" viewBox="0 0 119 194.192"><defs><style>.a{fill:#a9a9a9;}.a,.b{opacity:0.07;}.b{fill:#b8b8b8;}</style></defs><g transform="translate(-1747.001 -1224.648)"><path class="a" d="M-8858-1075.5a79.477,79.477,0,0,1,79.455-79.5A79.066,79.066,0,0,1-8739-1144.47v137.94A79.067,79.067,0,0,1-8778.544-996,79.476,79.476,0,0,1-8858-1075.5Z" transform="translate(10605 2379.647)"/><path class="b" d="M-8858-1105.248A49.736,49.736,0,0,1-8808.277-1155a49.474,49.474,0,0,1,24.746,6.588v86.323a49.474,49.474,0,0,1-24.746,6.588A49.735,49.735,0,0,1-8858-1105.248Z" transform="translate(10649.531 2474.339)"/></g></svg>