<svg xmlns="http://www.w3.org/2000/svg" width="470.287" height="296.763" viewBox="0 0 470.287 296.763"><defs><style>.a{fill:#00b2fe;}.b{opacity:0.68;}</style></defs><g transform="translate(-1385.635 -10139.122)"><g transform="matrix(0.602, -0.799, 0.799, 0.602, 1596.58, 10264.32)"><path class="a" d="M606.748,370.107a7.3,7.3,0,1,0-8.467,7.181l.4.063V392.2a22.775,22.775,0,1,1-45.55,0V377.377l.463-.012a25.3,25.3,0,0,0,24.559-25.375V330.453a11.886,11.886,0,0,0-10.3-11.747l-.325-.044-.077-.314a4.228,4.228,0,0,0-4.1-3.229c-2.088,0-3.383,1.625-3.383,4.24s1.295,4.238,3.383,4.238a4.216,4.216,0,0,0,4.026-2.978l.123-.4.409.067a10.256,10.256,0,0,1,8.713,10.164v20.812c0,7.323-11.02,16.267-23.88,16.267s-23.878-8.944-23.878-16.267V330.453a10.382,10.382,0,0,1,8.765-10.173l.407-.058.123.391a4.21,4.21,0,0,0,4.024,2.985c2.085,0,3.383-1.623,3.383-4.238s-1.3-4.24-3.383-4.24a4.224,4.224,0,0,0-4.1,3.22l-.079.316-.323.044a11.872,11.872,0,0,0-10.355,11.754V351.99a25.44,25.44,0,0,0,23.822,25.336l.449.028V392.2a24.31,24.31,0,1,0,48.621,0V377.351l.4-.063A7.261,7.261,0,0,0,606.748,370.107ZM565.841,320.4a2.692,2.692,0,0,1-2.492,1.662c-1.244,0-1.848-.886-1.848-2.7s.6-2.706,1.848-2.706a2.7,2.7,0,0,1,2.492,1.662l.121.286-.216.228a.749.749,0,0,0,0,1.055l.219.228Zm-26.168-2.023a2.683,2.683,0,0,1,2.508-1.725c1.241,0,1.846.886,1.846,2.706s-.6,2.7-1.846,2.7a2.68,2.68,0,0,1-2.508-1.725l-.1-.267.186-.219a.754.754,0,0,0,.2-.493.742.742,0,0,0-.2-.488l-.191-.223Zm-9.341,41.783-.876-2.39,1.683,1.906a29.541,29.541,0,0,0,43.2,0l1.683-1.9-.874,2.388a23.837,23.837,0,0,1-44.82,0Zm69.118,15.711a5.763,5.763,0,1,1,5.761-5.766A5.771,5.771,0,0,1,599.45,375.873Z" transform="translate(-527.326 -315.119)"/><path class="a" d="M560.43,337.2a3.651,3.651,0,1,0,3.655,3.65A3.653,3.653,0,0,0,560.43,337.2Zm0,5.768a2.117,2.117,0,1,1,2.118-2.118A2.119,2.119,0,0,1,560.43,342.97Z" transform="translate(-488.306 -285.864)"/></g><g transform="translate(1781.775 10224.146) rotate(-1)"><path class="a" d="M509.848,142.624h6.883v-6.538h-6.883Zm5.6-5.252v3.965h-4.311v-3.965Z" transform="translate(-504.038 -95.847)"/><path class="a" d="M558.857,113.542l-.128-.117L538.005,132.64l-.206.19v6.51H506.576v35.606h43.288V160.271a8.891,8.891,0,1,1,17.782,0v14.674h12.014V132.83Zm-10.279,46.729V173.66H507.862V140.625h31.224v-7.232l19.644-18.215,19.644,18.213V173.66h-9.441V160.271a10.177,10.177,0,0,0-20.355,0Z" transform="translate(-506.576 -113.425)"/><path class="a" d="M509.848,147.341h6.883V140.8h-6.883Zm5.6-5.251v3.965h-4.311v-3.965Z" transform="translate(-504.038 -92.187)"/><path class="a" d="M519.586,147.341h6.884V140.8h-6.884Zm5.6-5.251v3.965h-4.311v-3.965Z" transform="translate(-496.484 -92.187)"/><path class="a" d="M509.848,138.139h6.883V131.6h-6.883Zm5.6-5.251v3.965h-4.311v-3.965Z" transform="translate(-504.038 -99.325)"/><path class="a" d="M519.586,142.624h6.884v-6.538h-6.884Zm5.6-5.252v3.965h-4.311v-3.965Z" transform="translate(-496.484 -95.847)"/><path class="a" d="M514.717,142.624H521.6v-6.538h-6.883Zm5.6-5.252v3.965H516v-3.965Z" transform="translate(-500.261 -95.847)"/><path class="a" d="M519.586,138.139h6.884V131.6h-6.884Zm5.6-5.251v3.965h-4.311v-3.965Z" transform="translate(-496.484 -99.325)"/><path class="a" d="M514.717,147.341H521.6V140.8h-6.883Zm5.6-5.251v3.965H516v-3.965Z" transform="translate(-500.261 -92.187)"/><path class="a" d="M514.717,138.139H521.6V131.6h-6.883Zm5.6-5.251v3.965H516v-3.965Z" transform="translate(-500.261 -99.325)"/><path class="a" d="M536.637,138.406h6.684v-5.8h5.76v-6.685h-5.76v-5.8h-6.684v5.8H530.8v6.685h5.837Zm1.286-11.2v-5.8h4.112v5.8h5.758v4.114h-5.758v5.8h-4.112v-5.8h-5.837v-4.114Z" transform="translate(-487.786 -108.226)"/></g><g transform="translate(1692.459 10395.996) rotate(-30)"><path class="a" d="M411.583,237.182a.781.781,0,0,1-.389-.114.765.765,0,0,1-.364-.647l-.075-9.807a.957.957,0,0,1,.514-.858,26.472,26.472,0,0,1,3.125-1.336.723.723,0,0,1,.678.1.733.733,0,0,1,.3.619l-.444,10a.932.932,0,0,1-.536.808l-1.208.564q-.629.292-1.247.592A.753.753,0,0,1,411.583,237.182Zm.214-10.529.069,9.329c.292-.142.583-.278.878-.414l1.147-.536.419-9.474A23.6,23.6,0,0,0,411.8,226.653Zm0-.047Z" transform="translate(-363.579 -184.899)"/><path class="a" d="M416.572,225.526a7.688,7.688,0,0,1-7.543-7.821,7.688,7.688,0,0,1,7.818-7.541l.1,0a7.742,7.742,0,0,1,7.443,7.68,7.688,7.688,0,0,1-7.821,7.68Zm.253-14.323a6.664,6.664,0,1,0,.1,0Zm-.208,11.873a5.128,5.128,0,0,1-1.986-.433,5.23,5.23,0,0,1,2.172-10.029l.072,0a5.332,5.332,0,0,1,5.066,5.23,5.2,5.2,0,0,1-3.333,4.872A5.15,5.15,0,0,1,416.617,223.076Zm.178-9.943-.008.519a4.192,4.192,0,1,0,4.116,4.194,4.275,4.275,0,0,0-4.058-4.191Z" transform="translate(-366.65 -210.163)"/><path class="a" d="M414.008,232.306a1.09,1.09,0,0,1-.428-.094c-.183-.083-.361-.167-.542-.253l-.211-.1a11.506,11.506,0,0,1-4.458-3.225,5.889,5.889,0,0,1-.7-1.242,4.388,4.388,0,0,1-.333-1.433,2.506,2.506,0,0,1-.006-.292l.017-.283c.133-3.641,3.916-5.824,4.077-5.916l.572-.325.006.019.139-.064a5.19,5.19,0,0,1,2.566-.453,1.867,1.867,0,0,1,1.389,3.205,5.209,5.209,0,0,1-2.086,1.561,5.866,5.866,0,0,1-1.028.342l.011.092-.589.006a4.539,4.539,0,0,1-.625.036c-1.336.158-1.672.905-1.75,1.339-.008.064-.011.111-.011.122a2.162,2.162,0,0,0,.7,1.455,10.005,10.005,0,0,0,3.466,1.969c.6.239,1.228.472,1.875.714l.647.242a.727.727,0,0,1,.036,1.35,22.5,22.5,0,0,0-2.152,1.075h0A1.132,1.132,0,0,1,414.008,232.306Zm-2.3-11.787c-.772.508-3.227,2.325-3.325,4.941l-.014.114v.114c0,.067,0,.128,0,.192a3.5,3.5,0,0,0,.261,1.128,4.894,4.894,0,0,0,.578,1.019,10.535,10.535,0,0,0,4.069,2.9l.2.094c.175.081.347.164.528.242l.322.444-.261-.45c.478-.275.994-.544,1.569-.814-.633-.236-1.25-.467-1.839-.7a10.739,10.739,0,0,1-3.847-2.228,3.144,3.144,0,0,1-.975-2.194,2.211,2.211,0,0,1,.025-.25,2.773,2.773,0,0,1,2.727-2.214,4.108,4.108,0,0,0,.561-.033l.119-.014c.05-.008.1-.014.155-.025a4.815,4.815,0,0,0,1.028-.319,4.219,4.219,0,0,0,1.669-1.233.862.862,0,0,0-.669-1.547,4.237,4.237,0,0,0-2.041.375,5.09,5.09,0,0,0-.605.314Zm4.619,9.613Z" transform="translate(-369.674 -195.118)"/><path class="a" d="M415.476,256.2a1.544,1.544,0,0,1-1.544-1.541l-.017-2.319c-.353-.2-.722-.433-1.108-.694a11.137,11.137,0,0,1-2.455-2.233,6.181,6.181,0,0,1-1.05-1.933,5.8,5.8,0,0,1-.153-2.439,7.053,7.053,0,0,1,2.114-4.241,6.172,6.172,0,0,1,.5-.453,11.612,11.612,0,0,1,2.38-1.575l-.019-.033c.469-.264.941-.508,1.43-.753.325-.164.667-.331,1.005-.5l.486-.247a14.661,14.661,0,0,0,3.747-2.419,4.775,4.775,0,0,0,1.375-3.427,6.286,6.286,0,0,0-.089-1.017,5.707,5.707,0,0,0-2.652-3.669c-.231-.153-.461-.3-.7-.439l-.081-.042a1.161,1.161,0,0,1-.68-.669.739.739,0,0,1,.114-.6,1.181,1.181,0,0,1,.728-.4,1.014,1.014,0,0,0,.1-.025l.722-.255c.081-.025.153-.056.228-.086a2.585,2.585,0,0,1,.586-.183,2.248,2.248,0,0,1,1.828.9l.111.106a9.446,9.446,0,0,1,1.314,1.569h0a8,8,0,0,1,1.266,3.391,11.329,11.329,0,0,1,.056,1.444,8.346,8.346,0,0,1-.333,2.058,7.378,7.378,0,0,1-1.853,3.044,16.566,16.566,0,0,1-4.933,2.966l-.4.175-.289.281-.122-.1-.019.008c-.375.161-.739.322-1.091.486-.494.231-.95.444-1.389.686a10.937,10.937,0,0,0-1.522.944,3.748,3.748,0,0,0-.389.322,5.05,5.05,0,0,0-1.75,2.972,3.849,3.849,0,0,0-.019,1.741,4.5,4.5,0,0,0,.7,1.478,9.933,9.933,0,0,0,2.03,2.025l.258.192-.061-8.049a.965.965,0,0,1,.442-.828,20.912,20.912,0,0,1,2.35-1.258.723.723,0,0,1,.469-.05.716.716,0,0,1,.414-.367l.633-.286a1.115,1.115,0,0,1,1.183.275c.136.111.269.228.4.353a7.2,7.2,0,0,1,2.436,4.8,5.563,5.563,0,0,1-.247,2.439,5.918,5.918,0,0,1-1.1,1.875,10.83,10.83,0,0,1-2.544,2.144c-.383.244-.761.467-1.125.655l-.1,2.322A1.549,1.549,0,0,1,415.476,256.2Zm-.528-4.48h0l.022,2.936a.508.508,0,0,0,.522.505.513.513,0,0,0,.522-.492l.089-2.022h0l.483-10.912a16.578,16.578,0,0,0-1.742.955Zm2.688-10.193-.411,9.227c.092-.061.181-.122.269-.186a9.875,9.875,0,0,0,2.105-1.955,4.524,4.524,0,0,0,.742-1.422,4.071,4.071,0,0,0,.047-1.761,5.2,5.2,0,0,0-2.022-3.363C418.143,241.886,417.9,241.705,417.637,241.531Zm.844-.68c.189.136.369.272.536.408.05.039.1.081.15.122-.044-.042-.089-.083-.133-.122-.125-.117-.245-.222-.367-.322a.8.8,0,0,0-.153-.1Zm-3.991-1.125a20.684,20.684,0,0,0-2.05,1.411l-.061.05.075-.053a11.67,11.67,0,0,1,1.65-1.025c.455-.25.928-.472,1.43-.705.367-.172.742-.336,1.122-.5l.822-.364a15.478,15.478,0,0,0,4.63-2.763,6.28,6.28,0,0,0,1.583-2.6,7.262,7.262,0,0,0,.289-1.791,10.386,10.386,0,0,0-.047-1.286,7,7,0,0,0-1.1-2.944,8.262,8.262,0,0,0-1.172-1.394l-.117-.117c-.278-.275-.658-.655-.939-.608a1.85,1.85,0,0,0-.353.122c-.1.039-.192.078-.283.106l-.569.2q.3.187.6.383a6.723,6.723,0,0,1,3.105,4.361,7.49,7.49,0,0,1,.1,1.186,5.836,5.836,0,0,1-1.683,4.174,15.588,15.588,0,0,1-4.011,2.605l-.489.25c-.342.167-.678.331-1,.5-.478.236-.933.472-1.389.728Z" transform="translate(-366.54 -185.578)"/><path class="a" d="M441.615,239.976a.735.735,0,0,1-.722-.728l-.083-9.746a2.2,2.2,0,0,0-.869-1.741,2.166,2.166,0,0,0-1.886-.372,29.711,29.711,0,0,0-5.56,2.091c-2.441,1.211-4.6,1.436-6.4.667-.4.206-.817.417-1.266.63-2.569,1.228-4.8,1.405-6.646.528-.6.322-1.189.622-1.8.914-3.744,1.789-6.163,1.019-7.585-.047-.411.181-.819.358-1.233.528-4.269,1.764-11.89.58-13.409-.775a.924.924,0,0,1-.353-.964c.147-.517.758-.842,1.978-1.055,5.81-1.008,11.26-2.339,19.1-8.463l1.069-.839c4.413-3.475,9.9-7.8,14.49-7.132a6.548,6.548,0,0,1,4.452,2.936,13.125,13.125,0,0,0,3.661,3.447l.053.036a17.568,17.568,0,0,0,2.8,1.461l.022.006a8.364,8.364,0,0,0,4.477.081l.019-.006a17.334,17.334,0,0,0,2.855-1.358l.056-.033a13.176,13.176,0,0,0,3.783-3.313,6.533,6.533,0,0,1,4.549-2.772c4.611-.508,9.949,4.019,14.24,7.657l1.028.869c7.613,6.4,13,7.927,18.77,9.146h0c1.211.256,1.811.6,1.939,1.125a.911.911,0,0,1-.383.95c-1.566,1.3-9.227,2.205-13.434.292-.411-.186-.817-.378-1.208-.572-1.461,1.014-3.9,1.694-7.582-.228-.592-.311-1.172-.63-1.764-.975-1.872.808-4.1.55-6.619-.767-.442-.233-.853-.458-1.244-.68-1.839.705-3.98.405-6.377-.894a29.872,29.872,0,0,0-5.48-2.291,2.177,2.177,0,0,0-1.9.306,2.2,2.2,0,0,0-.933,1.711l-.38,8.529-.358.483-.253.089c-1.092.381-2.216.775-3.327,1.219A.726.726,0,0,1,441.615,239.976Zm-2.936-13.7a3.2,3.2,0,0,1,1.889.658,3.246,3.246,0,0,1,1.283,2.561l.075,9.3c.972-.378,1.944-.717,2.889-1.05l.367-8.191a3.239,3.239,0,0,1,4.172-2.964,31.024,31.024,0,0,1,5.671,2.372c2.208,1.2,4.13,1.453,5.71.758l.239-.106.228.128c.447.258.917.517,1.43.786,2.328,1.217,4.327,1.43,5.938.636l.253-.125.242.144c.658.389,1.3.744,1.953,1.089,2.747,1.436,5.008,1.478,6.727.131l.264-.208.3.156c.467.236.953.469,1.447.7,4.086,1.855,11.143.783,12.276-.078a4.072,4.072,0,0,0-1.042-.331c-5.9-1.244-11.429-2.811-19.225-9.365l-1.03-.872c-4.141-3.508-9.29-7.866-13.454-7.416a5.467,5.467,0,0,0-3.836,2.366,14.126,14.126,0,0,1-4.027,3.547l-.114.108-.072.006a18.545,18.545,0,0,1-2.977,1.4l-.35.194-.069-.089a9.446,9.446,0,0,1-4.422-.092l-.072.067-.355-.2a17.9,17.9,0,0,1-2.844-1.469h-.067l-.13-.128a14.124,14.124,0,0,1-3.905-3.691,5.464,5.464,0,0,0-3.755-2.505c-4.138-.6-9.438,3.566-13.7,6.919l-1.072.842c-8.027,6.271-13.607,7.635-19.559,8.668a3.936,3.936,0,0,0-1.047.289c1.1.905,8.113,2.23,12.259.522.506-.208,1-.428,1.486-.647l.3-.133.253.208c1.669,1.411,3.933,1.447,6.727.111.672-.322,1.325-.653,1.989-1.017l.247-.136.25.136c1.58.853,3.586.711,5.955-.422.522-.25,1-.494,1.458-.733l.233-.122.236.114c1.553.753,3.483.567,5.733-.55a30.869,30.869,0,0,1,5.755-2.166A3.149,3.149,0,0,1,438.679,226.275Z" transform="translate(-393.77 -204.404)"/><path class="a" d="M414.129,248.247a.882.882,0,0,1-.406-.106,13.554,13.554,0,0,1-3.444-2.444,7.371,7.371,0,0,1-1.753-3.119,7.9,7.9,0,0,1-.258-2.058,8.768,8.768,0,0,1,.105-1.447,8.079,8.079,0,0,1,1.389-3.347,1.535,1.535,0,0,1,.178-.217,10.5,10.5,0,0,1,2.275-2.172,17.233,17.233,0,0,1,1.953-1.217c.4-.222.819-.431,1.28-.636.664-.308,1.328-.578,1.894-.8.125-.044.214-.081.305-.114.567-.211,1.119-.405,1.664-.589s1.061-.361,1.575-.533c.614-.206,1.208-.405,1.783-.608l.592-.217a8.833,8.833,0,0,0,2.947-1.628,2.165,2.165,0,0,0,.747-1.433c0-.125-.042-1.283-1.825-1.53a2.909,2.909,0,0,1-.444-.039l-.139-.014a5.971,5.971,0,0,1-1.511-.486,5.221,5.221,0,0,1-2.03-1.636,2.071,2.071,0,0,1-.339-2.1c.567-1.189,2.494-1.416,4.391-.511a6.13,6.13,0,0,1,.714.405l-.014.022c.88.514,4.03,2.875,3.869,6.316l0,.086a1.754,1.754,0,0,1-.011.211,4.37,4.37,0,0,1-.394,1.43,5.625,5.625,0,0,1-.742,1.189,10.165,10.165,0,0,1-3.924,2.775c-.117.05-.222.1-.331.147l-.314.142c-1.069.469-2.175.875-3.113,1.208l-1.925.681c-.4.136-.786.281-1.172.433-.619.225-1.205.464-1.808.733a16.032,16.032,0,0,0-1.855.98,6.927,6.927,0,0,0-1.714,1.447,4.866,4.866,0,0,0-1.078,2.133,5.226,5.226,0,0,0-.122.992,4.554,4.554,0,0,0,1.1,3.33,9.011,9.011,0,0,0,1.769,1.5c.339.228.686.439,1.036.644.047.028.1.05.153.078a1.846,1.846,0,0,1,.5.311.684.684,0,0,1,.208.611c-.075.461-.564.725-1.15,1-.056.025-.1.047-.128.061A.9.9,0,0,1,414.129,248.247Zm10.579-25.294.122.011a3.741,3.741,0,0,0,.386.033c2.219.3,2.786,1.764,2.777,2.577a3.143,3.143,0,0,1-1.05,2.152,9.608,9.608,0,0,1-3.322,1.869l-.605.222c-.583.205-1.183.405-1.8.614-.511.169-1.036.347-1.569.53s-1.08.369-1.633.578c-.1.039-.2.075-.311.114-.53.214-1.178.478-1.828.778-.439.194-.833.389-1.208.6a16.418,16.418,0,0,0-1.844,1.147,9.485,9.485,0,0,0-2.072,1.98l-.058.064a.774.774,0,0,0-.078.1,6.963,6.963,0,0,0-1.214,2.919,7.313,7.313,0,0,0-.094,1.278,6.831,6.831,0,0,0,.225,1.794,6.273,6.273,0,0,0,1.494,2.661,12.42,12.42,0,0,0,3.119,2.216c.039-.022.089-.044.15-.075s.161-.075.269-.131l-.058-.033c-.372-.217-.736-.442-1.094-.68a10.145,10.145,0,0,1-1.966-1.675,5.584,5.584,0,0,1-1.364-4.066,6.354,6.354,0,0,1,.147-1.169,5.836,5.836,0,0,1,1.3-2.58,7.875,7.875,0,0,1,1.961-1.661,16.7,16.7,0,0,1,1.972-1.042c.628-.283,1.239-.53,1.866-.758.389-.153.789-.3,1.191-.439l1.933-.683c.916-.325,2-.722,3.038-1.18l.3-.133c.114-.053.225-.1.339-.153a9.228,9.228,0,0,0,3.538-2.477,4.736,4.736,0,0,0,.6-.958,3.506,3.506,0,0,0,.311-1.128c0-.039,0-.067,0-.094,0-.044,0-.089,0-.136.133-2.805-2.508-4.816-3.2-5.291l-.189-.125a4.9,4.9,0,0,0-.592-.336c-1.4-.667-2.739-.539-3.005.019a1.112,1.112,0,0,0,.253,1.053,4.2,4.2,0,0,0,1.625,1.294A4.986,4.986,0,0,0,424.709,222.953Z" transform="translate(-367.998 -195)"/></g><g transform="translate(1522.939 10361.895) rotate(-25)"><path class="a" d="M392.732,209.483a.665.665,0,0,1-.617-.394l-3.281-7.716h-5.146a.668.668,0,0,1-.605-.37l-3.822-8.072-7.053,16.1a.655.655,0,0,1-.555.382.666.666,0,0,1-.617-.288l-4.932-7.346h-5.061a.671.671,0,0,1-.6-.35l-3.572-6.873-3.1,6.63a.67.67,0,0,1-.608.373h0l-11.761-.038a.7.7,0,0,1-.473-.182.625.625,0,0,1-.2-.444l.015-3.419a.641.641,0,0,1,.661-.62h0l8.95.029,5.69-12.193a.658.658,0,0,1,.593-.373.679.679,0,0,1,.611.35l6.468,12.443h4.75a.671.671,0,0,1,.561.294l1.751,2.608,7.7-17.592a.672.672,0,0,1,.605-.388h.009a.672.672,0,0,1,.608.37l6.771,14.3h5.264a.663.663,0,0,1,.614.391l.041.094.079-.223a.662.662,0,0,1,.629-.423h0l15.289.026a.688.688,0,0,1,.47.182.612.612,0,0,1,.194.444l-.009,3.416a.642.642,0,0,1-.664.623h0l-12.2-.021-2.832,7.843a.668.668,0,0,1-.611.423Zm-31.274-8.95h5.014a.672.672,0,0,1,.561.291l4.438,6.618,7.152-16.332a.663.663,0,0,1,.605-.385h.006a.664.664,0,0,1,.608.37l4.277,9.029h5.164a.661.661,0,0,1,.614.394l2.785,6.542,2.406-6.668a.661.661,0,0,1,.629-.423h0l12.011.021,0-2.171-14.146-.024-.505,1.4a.663.663,0,0,1-.611.426.7.7,0,0,1-.635-.394l-.54-1.269h-5.243a.67.67,0,0,1-.608-.37l-6.312-13.339-7.6,17.363a.655.655,0,0,1-.555.382.69.69,0,0,1-.62-.288l-2.241-3.34h-4.8a.675.675,0,0,1-.6-.35L356.7,186.427l-5.29,11.335a.67.67,0,0,1-.608.373h0l-8.721-.029-.006,2.174,10.671.032,3.5-7.487a.658.658,0,0,1,.593-.373.673.673,0,0,1,.608.35Z" transform="translate(-331.65 -164.935)"/><path class="a" d="M412.57,237.623h-2.617a.645.645,0,0,1-.664-.626v-3.1h-56.8V237a.644.644,0,0,1-.661.626H349.22c-6.383,0-11.576-4.879-11.576-10.877V187.088c0-6,5.193-10.874,11.576-10.874h63.35c6.383,0,11.576,4.879,11.576,10.874v39.657C424.147,232.744,418.953,237.623,412.57,237.623Zm-1.953-1.248h1.953c5.651,0,10.251-4.321,10.251-9.629V187.088c0-5.308-4.6-9.629-10.251-9.629H349.22c-5.651,0-10.248,4.321-10.248,9.629v39.657c0,5.308,4.6,9.629,10.248,9.629h1.947v-3.1a.645.645,0,0,1,.664-.626h58.122a.646.646,0,0,1,.664.626Zm1.953-7.3H349.22a2.415,2.415,0,0,1-2.482-2.332V212.264c0-.029-.006-.059-.006-.088l.006-1.71V187.088a2.412,2.412,0,0,1,2.482-2.329h63.35a2.412,2.412,0,0,1,2.482,2.329V208.4l.006.073-.006,18.268A2.415,2.415,0,0,1,412.57,229.078Zm-64.51-16.984a.778.778,0,0,1,.006.085v14.566a1.122,1.122,0,0,0,1.154,1.084h63.35a1.121,1.121,0,0,0,1.154-1.084l.006-18.2-.006-.073V187.088A1.122,1.122,0,0,0,412.57,186H349.22a1.124,1.124,0,0,0-1.154,1.084Zm70.884-3.117a2.884,2.884,0,1,1,3.064-2.882A2.98,2.98,0,0,1,418.944,208.977Zm0-4.512a1.635,1.635,0,1,0,1.736,1.63A1.69,1.69,0,0,0,418.944,204.466Zm-76.1,4.512a2.884,2.884,0,1,1,3.064-2.882A2.98,2.98,0,0,1,342.843,208.977Zm0-4.512a1.635,1.635,0,1,0,1.736,1.63A1.69,1.69,0,0,0,342.843,204.466Zm76.1-5.7a2.884,2.884,0,1,1,3.064-2.879A2.98,2.98,0,0,1,418.944,198.761Zm0-4.512a1.635,1.635,0,1,0,1.736,1.633A1.692,1.692,0,0,0,418.944,194.25Zm-76.1,4.512a2.884,2.884,0,1,1,3.064-2.879A2.98,2.98,0,0,1,342.843,198.761Zm0-4.512a1.635,1.635,0,1,0,1.736,1.633A1.692,1.692,0,0,0,342.843,194.25Z" transform="translate(-337.644 -176.214)"/><path class="a" d="M397.958,207.221H345.984a3.633,3.633,0,0,1-3.736-3.507v-7.661a.645.645,0,0,1,.664-.626h58.122a.646.646,0,0,1,.664.626v7.661A3.634,3.634,0,0,1,397.958,207.221Zm-54.385-10.545v7.038a2.345,2.345,0,0,0,2.411,2.262h51.974a2.344,2.344,0,0,0,2.412-2.262v-7.038Z" transform="translate(-328.724 -138.991)"/></g><g class="b" transform="matrix(0.602, -0.799, 0.799, 0.602, 1445.834, 10257.928)"><path class="a" d="M568.321,259.1l.117-1.422a23.534,23.534,0,0,1,46.589-1.8l.229,1.408Zm23.543-20.091c-.281,0-.557,0-.843.017h0a20.744,20.744,0,0,0-19.836,17.425l41.011-1.581A20.81,20.81,0,0,0,591.864,239.013Z" transform="translate(-568.321 -236.474)"/><path class="a" d="M591.755,264.536a23.349,23.349,0,0,1-23.18-19.421l-.229-1.409,46.93-1.806-.117,1.422a23.3,23.3,0,0,1-22.48,21.2h0C592.369,264.527,592.062,264.536,591.755,264.536Zm-20.345-18.41a20.763,20.763,0,0,0,21.162,15.852h0a20.758,20.758,0,0,0,19.844-17.429Z" transform="translate(-568.238 -218.458)"/></g><g transform="matrix(0.602, -0.799, 0.799, 0.602, 1721.807, 10182.768)"><path class="a" d="M596.645,307.635a17.113,17.113,0,0,0-10.076,3.25,17.248,17.248,0,0,0-27.325,14c0,13.474,25.907,29.21,27.009,29.872a.592.592,0,0,0,.312.086.632.632,0,0,0,.332-.091c1.1-.671,27-16.552,27-29.867A17.268,17.268,0,0,0,596.645,307.635Zm0,1.227a16.041,16.041,0,0,1,16.024,16.021c0,12.037-22.994,26.7-26.1,28.629-3.1-1.931-26.1-16.633-26.1-28.629A16.022,16.022,0,0,1,586.2,312.137a.609.609,0,0,0,.743,0A15.876,15.876,0,0,1,596.645,308.862Z" transform="translate(-559.244 -307.635)"/><path class="a" d="M563.755,317.909a.61.61,0,0,0,.828-.256,9.866,9.866,0,0,1,8.751-5.293.613.613,0,0,0,0-1.227,11.087,11.087,0,0,0-9.836,5.95.6.6,0,0,0-.044.465A.607.607,0,0,0,563.755,317.909Z" transform="translate(-556.085 -304.994)"/><path class="a" d="M563.356,319.544a.613.613,0,0,0,.613-.613,9.972,9.972,0,0,1,.354-2.636.6.6,0,0,0-.054-.463.611.611,0,0,0-.369-.291.6.6,0,0,0-.467.056.613.613,0,0,0-.29.37,11.107,11.107,0,0,0-.4,2.964A.613.613,0,0,0,563.356,319.544Z" transform="translate(-556.603 -301.684)"/><path class="a" d="M584.011,313.471,578.319,332.1,573.234,319.5a.616.616,0,0,0-.556-.383.623.623,0,0,0-.563.348l-3.73,7.735h-5.894a.613.613,0,1,0,0,1.225h6.28a.618.618,0,0,0,.553-.347l3.293-6.833,5.214,12.928a.613.613,0,0,0,.569.383h.026a.619.619,0,0,0,.56-.434l5.613-18.372,5.609,18.372a.619.619,0,0,0,.558.434h.033a.612.612,0,0,0,.563-.384l5.214-12.925,3.292,6.831a.612.612,0,0,0,.553.347h6.28a.613.613,0,1,0,0-1.225h-5.9l-3.728-7.735a.626.626,0,0,0-.567-.348h-.007a.612.612,0,0,0-.548.383L590.875,332.1l-5.69-18.632a.631.631,0,0,0-1.174,0Z" transform="translate(-557.256 -303.53)"/></g><g transform="translate(1385.635 10336.988)"><path class="a" d="M230.341,130.929a5.016,5.016,0,0,1-3.568-1.479l-25.962-25.96a5.056,5.056,0,0,1,0-7.139l6.572-6.571a5.045,5.045,0,0,1,7.136,0l25.963,25.962a5.054,5.054,0,0,1,0,7.137l-6.572,6.571A5.015,5.015,0,0,1,230.341,130.929Zm-19.39-41.862a4.255,4.255,0,0,0-3.028,1.254l-6.571,6.571a4.289,4.289,0,0,0,0,6.057l25.962,25.96a4.28,4.28,0,0,0,6.055,0l6.572-6.571a4.288,4.288,0,0,0,0-6.056L213.978,90.321A4.253,4.253,0,0,0,210.951,89.067Z" transform="translate(-199.232 -88.199)"/><path class="a" d="M230.318,131.009a5.116,5.116,0,0,1-3.641-1.509l-25.961-25.96a5.156,5.156,0,0,1,0-7.284l6.571-6.572a5.151,5.151,0,0,1,7.282,0l25.963,25.962a5.16,5.16,0,0,1,0,7.283L233.96,129.5A5.116,5.116,0,0,1,230.318,131.009Zm-19.39-42.627a4.919,4.919,0,0,0-3.5,1.448l-6.57,6.571a4.952,4.952,0,0,0,0,6.993l25.962,25.96a4.939,4.939,0,0,0,6.99,0l6.572-6.571a4.951,4.951,0,0,0,0-6.992L214.423,89.83A4.907,4.907,0,0,0,210.928,88.383Zm19.39,41.861a4.354,4.354,0,0,1-3.1-1.285L201.257,103a4.392,4.392,0,0,1,0-6.2l6.57-6.571a4.387,4.387,0,0,1,6.2,0l25.963,25.962a4.393,4.393,0,0,1,0,6.2l-6.572,6.571A4.363,4.363,0,0,1,230.318,130.244Zm-19.39-41.1a4.151,4.151,0,0,0-2.955,1.223L201.4,96.942a4.185,4.185,0,0,0,0,5.912l25.962,25.961a4.179,4.179,0,0,0,5.91,0l6.571-6.572a4.186,4.186,0,0,0,0-5.91L213.883,90.371A4.151,4.151,0,0,0,210.928,89.148Z" transform="translate(-199.21 -88.177)"/><g transform="translate(11.648 11.648)"><path class="a" d="M215.252,115.817a.381.381,0,0,1-.27-.112,5.047,5.047,0,0,1,0-7.137l4.617-4.615a5.015,5.015,0,0,1,3.569-1.479h0a5.006,5.006,0,0,1,3.567,1.479.382.382,0,1,1-.541.54,4.252,4.252,0,0,0-3.026-1.254h0a4.259,4.259,0,0,0-3.028,1.254l-4.617,4.616a4.282,4.282,0,0,0,0,6.056.382.382,0,0,1-.27.653Z" transform="translate(-213.402 -102.37)"/><path class="a" d="M215.23,115.9a.481.481,0,0,1-.343-.142,5.152,5.152,0,0,1,0-7.282l4.619-4.616a5.146,5.146,0,0,1,7.281,0,.485.485,0,1,1-.686.686,4.176,4.176,0,0,0-5.909,0l-4.618,4.615a4.179,4.179,0,0,0,0,5.91.485.485,0,0,1-.343.829Zm7.916-13.344a4.91,4.91,0,0,0-3.5,1.449l-4.618,4.615a4.947,4.947,0,0,0,0,6.993.287.287,0,0,0,.4,0,.28.28,0,0,0,0-.4,4.384,4.384,0,0,1,0-6.2l4.618-4.615a4.382,4.382,0,0,1,6.2,0,.28.28,0,0,0,.395,0,.277.277,0,0,0,0-.4A4.9,4.9,0,0,0,223.146,102.554Z" transform="translate(-213.38 -102.348)"/></g><g transform="translate(17.631 17.636)"><path class="a" d="M224.464,123.1a5.018,5.018,0,0,1-3.569-1.479.382.382,0,0,1,.541-.541,4.278,4.278,0,0,0,6.055,0l4.618-4.617a4.283,4.283,0,0,0,0-6.056.382.382,0,0,1,.54-.541,5.046,5.046,0,0,1,0,7.137l-4.617,4.617A5.013,5.013,0,0,1,224.464,123.1Z" transform="translate(-220.681 -109.654)"/><path class="a" d="M224.442,123.179a5.113,5.113,0,0,1-3.641-1.509.485.485,0,1,1,.687-.686,4.177,4.177,0,0,0,5.908,0l4.617-4.618a4.179,4.179,0,0,0,0-5.91.484.484,0,0,1,0-.686.5.5,0,0,1,.686,0,5.151,5.151,0,0,1,0,7.282l-4.617,4.617A5.116,5.116,0,0,1,224.442,123.179Zm-3.3-2.131a.279.279,0,0,0-.2.477,4.939,4.939,0,0,0,6.99,0l4.618-4.616a4.946,4.946,0,0,0,0-6.993.279.279,0,0,0-.395,0,.278.278,0,0,0,0,.4,4.386,4.386,0,0,1,0,6.2l-4.616,4.617a4.384,4.384,0,0,1-6.2,0A.278.278,0,0,0,221.144,121.047Z" transform="translate(-220.659 -109.633)"/></g><g transform="translate(21.458 13.467)"><path class="a" d="M226.364,106.526a.911.911,0,0,1-.654-.272.923.923,0,0,1,0-1.3.946.946,0,0,1,1.307,0,.923.923,0,0,1,.271.656.926.926,0,0,1-.924.923Zm0-1.083a.16.16,0,0,0-.113.272.134.134,0,0,0,.225,0,.18.18,0,0,0,0-.227A.158.158,0,0,0,226.364,105.442Z" transform="translate(-225.337 -104.583)"/><path class="a" d="M226.342,106.606a1.027,1.027,0,0,1-.727-1.752,1.03,1.03,0,0,1,.725-.293h0a1.012,1.012,0,0,1,1.027,1.019,1.029,1.029,0,0,1-1.027,1.026Zm0-1.84h0a.823.823,0,0,0-.579.233.821.821,0,0,0,0,1.159.838.838,0,0,0,1.161,0,.807.807,0,0,0,.242-.58.807.807,0,0,0-.821-.814Zm0,1.09a.273.273,0,0,1-.186-.09.262.262,0,0,1,0-.372.269.269,0,0,1,.371,0,.262.262,0,0,1,.071.186.277.277,0,0,1-.255.278Zm0-.333a.057.057,0,0,0-.042.017.058.058,0,0,0,0,.08c.025.025.039.03.041.03a.12.12,0,0,0,.038-.03.09.09,0,0,0,0-.081A.053.053,0,0,0,226.342,105.524Z" transform="translate(-225.315 -104.561)"/></g><g transform="translate(24.53 16.542)"><path class="a" d="M230.1,110.264a.909.909,0,0,1-.653-.272.924.924,0,0,1,0-1.305.947.947,0,0,1,1.308,0,.925.925,0,0,1-.654,1.579Zm0-1.083a.161.161,0,0,0-.113.046.159.159,0,0,0,0,.224c.072.073.135.092.226,0a.18.18,0,0,0,0-.227A.163.163,0,0,0,230.1,109.181Z" transform="translate(-229.074 -108.323)"/><path class="a" d="M230.078,110.345a1.029,1.029,0,0,1-1.026-1.023,1.019,1.019,0,0,1,.3-.729,1.054,1.054,0,0,1,1.452,0,1.028,1.028,0,0,1-.727,1.754Zm0-1.84a.806.806,0,0,0-.821.816.8.8,0,0,0,.239.575.84.84,0,0,0,1.162,0,.812.812,0,0,0-.58-1.394Zm0,1.09h0a.268.268,0,0,1-.185-.094.261.261,0,0,1,.187-.446.268.268,0,0,1,.184.074.284.284,0,0,1,0,.374A.265.265,0,0,1,230.078,109.595Zm0-.334a.06.06,0,0,0-.042.017.057.057,0,0,0,0,.078.148.148,0,0,0,.042.033.174.174,0,0,0,.04-.031.088.088,0,0,0,0-.082A.058.058,0,0,0,230.079,109.261Z" transform="translate(-229.052 -108.301)"/></g><g transform="translate(27.602 19.616)"><path class="a" d="M233.839,114a.924.924,0,0,1-.655-1.577.947.947,0,0,1,1.308,0,.911.911,0,0,1,.27.653.922.922,0,0,1-.923.925Zm0-1.083a.159.159,0,0,0-.113.273.137.137,0,0,0,.226,0,.179.179,0,0,0,0-.225A.158.158,0,0,0,233.839,112.919Z" transform="translate(-232.812 -112.063)"/><path class="a" d="M233.817,114.083a1.027,1.027,0,0,1-.728-1.752,1.058,1.058,0,0,1,1.453,0,1.013,1.013,0,0,1,.3.725,1.026,1.026,0,0,1-1.027,1.027Zm0-1.839a.812.812,0,0,0-.579,1.395.845.845,0,0,0,1.161,0,.813.813,0,0,0-.582-1.393Zm0,1.088a.27.27,0,0,1-.185-.088.266.266,0,0,1,0-.373.266.266,0,0,1,.373,0,.282.282,0,0,1,0,.371A.269.269,0,0,1,233.817,113.332Zm0-.332a.056.056,0,0,0-.042.016.06.06,0,0,0,0,.082.1.1,0,0,0,.04.028s.012,0,.04-.03a.09.09,0,0,0,0-.081A.054.054,0,0,0,233.817,113Z" transform="translate(-232.789 -112.041)"/></g><g transform="translate(17.466 17.115)"><path class="a" d="M221.5,110.964a.923.923,0,0,1-.653-1.577.946.946,0,0,1,1.307,0,.925.925,0,0,1-.654,1.579Zm0-1.083a.158.158,0,0,0-.112.046.16.16,0,0,0,0,.228.138.138,0,0,0,.226,0,.159.159,0,0,0-.114-.272Z" transform="translate(-220.48 -109.02)"/><path class="a" d="M221.483,111.044a1.019,1.019,0,0,1-.725-.3,1.02,1.02,0,0,1,.724-1.747h0a1.023,1.023,0,1,1,0,2.046Zm0-1.84h0a.815.815,0,0,0-.579,1.4.844.844,0,0,0,1.161,0,.814.814,0,0,0-.582-1.394Zm0,1.089a.267.267,0,0,1-.184-.088.263.263,0,0,1,.185-.45.262.262,0,0,1,.262.262.257.257,0,0,1-.076.185A.272.272,0,0,1,221.482,110.293Zm0-.332a.054.054,0,0,0-.039.016.056.056,0,0,0,0,.082c.026.025.039.028.039.028a.129.129,0,0,0,.041-.03.058.058,0,0,0,.016-.039.055.055,0,0,0-.017-.04A.057.057,0,0,0,221.483,109.961Z" transform="translate(-220.458 -108.998)"/></g><g transform="translate(20.537 20.187)"><path class="a" d="M225.243,114.7a.924.924,0,0,1-.653-1.577.944.944,0,0,1,1.307,0,.925.925,0,0,1-.654,1.577Zm0-1.085a.163.163,0,0,0-.113.047.161.161,0,0,0-.046.113.157.157,0,0,0,.045.112.135.135,0,0,0,.226,0,.161.161,0,0,0,.047-.113.158.158,0,0,0-.046-.112A.16.16,0,0,0,225.243,113.617Z" transform="translate(-224.216 -112.758)"/><path class="a" d="M225.221,114.782a1.023,1.023,0,1,1,0-2.046h0a1.03,1.03,0,0,1,.727.293,1.028,1.028,0,0,1-.727,1.752Zm0-1.84h0a.821.821,0,0,0-.579.233.821.821,0,0,0,0,1.16.838.838,0,0,0,1.161,0,.819.819,0,0,0,0-1.161A.822.822,0,0,0,225.221,112.942Zm0,1.09a.269.269,0,0,1-.186-.093.259.259,0,0,1-.076-.184.258.258,0,0,1,.262-.262.26.26,0,0,1,.185.077.266.266,0,0,1,.076.185.256.256,0,0,1-.077.185A.266.266,0,0,1,225.22,114.031Zm0-.334a.055.055,0,0,0-.057.057.057.057,0,0,0,.016.04c.026.025.039.03.042.03a.15.15,0,0,0,.039-.03.059.059,0,0,0,.016-.04.061.061,0,0,0-.016-.039A.054.054,0,0,0,225.221,113.7Z" transform="translate(-224.194 -112.736)"/></g><g transform="translate(23.609 23.258)"><path class="a" d="M228.98,118.438a.924.924,0,0,1-.654-1.576.947.947,0,0,1,1.308,0,.925.925,0,0,1-.653,1.577Zm0-1.083a.161.161,0,0,0-.113.046.159.159,0,0,0,0,.224c.084.085.145.084.226,0a.158.158,0,0,0-.113-.27Z" transform="translate(-227.954 -116.494)"/><path class="a" d="M228.958,118.518a1.027,1.027,0,0,1-.728-1.752,1.045,1.045,0,0,1,1.454,0,1.028,1.028,0,0,1,0,1.451A1.017,1.017,0,0,1,228.958,118.518Zm0-1.838a.811.811,0,0,0-.582,1.391.84.84,0,0,0,1.162,0,.811.811,0,0,0-.58-1.391Zm0,1.089a.266.266,0,0,1-.187-.095.262.262,0,1,1,.449-.183.257.257,0,0,1-.077.184.262.262,0,0,1-.183.094Zm0-.335a.058.058,0,0,0-.041.017.056.056,0,0,0,0,.078.176.176,0,0,0,.042.034.286.286,0,0,0,.038-.032.057.057,0,0,0,.018-.04.058.058,0,0,0-.017-.04A.056.056,0,0,0,228.958,117.434Z" transform="translate(-227.931 -116.471)"/></g><g transform="translate(13.818 21.109)"><path class="a" d="M217.069,115.821a.925.925,0,0,1-.654-1.577.947.947,0,0,1,1.308,0,.923.923,0,0,1-.653,1.576Zm0-1.083a.16.16,0,0,0-.114.272.137.137,0,0,0,.227,0,.159.159,0,0,0,.047-.113.152.152,0,0,0-.046-.11A.156.156,0,0,0,217.069,114.738Z" transform="translate(-216.042 -113.879)"/><path class="a" d="M217.046,115.9a1.022,1.022,0,1,1,0-2.044h0a1.034,1.034,0,0,1,.727.293,1.025,1.025,0,0,1-.727,1.751Zm0-1.839a.817.817,0,0,0-.58,1.395.846.846,0,0,0,1.161,0,.813.813,0,0,0-.58-1.395Zm0,1.088a.269.269,0,0,1,0-.538.257.257,0,0,1,.188.081.253.253,0,0,1,.075.182.261.261,0,0,1-.077.186A.267.267,0,0,1,217.046,115.151Zm0-.332a.055.055,0,0,0-.04.016.059.059,0,0,0-.016.04.062.062,0,0,0,.016.041c.025.025.039.029.039.029a.116.116,0,0,0,.041-.03.057.057,0,0,0,.016-.039.052.052,0,0,0-.015-.036A.059.059,0,0,0,217.046,114.819Z" transform="translate(-216.02 -113.857)"/></g><g transform="translate(16.891 24.184)"><path class="a" d="M220.806,119.559a.924.924,0,0,1-.653-1.577.948.948,0,0,1,1.307,0,.926.926,0,0,1,0,1.307A.914.914,0,0,1,220.806,119.559Zm0-1.083a.157.157,0,0,0-.113.048.159.159,0,0,0,0,.225.135.135,0,0,0,.224,0,.16.16,0,0,0,0-.226A.158.158,0,0,0,220.806,118.476Z" transform="translate(-219.78 -117.62)"/><path class="a" d="M220.783,119.64a1.026,1.026,0,0,1-.726-1.752,1.056,1.056,0,0,1,1.452,0,1.026,1.026,0,0,1-.726,1.752Zm0-1.839a.813.813,0,0,0-.58,1.395.844.844,0,0,0,1.16,0,.813.813,0,0,0-.58-1.393Zm0,1.089a.26.26,0,0,1-.184-.09.264.264,0,0,1,0-.371.258.258,0,0,1,.186-.078.263.263,0,0,1,.187.076.265.265,0,0,1,.076.188.257.257,0,0,1-.079.183.263.263,0,0,1-.184.09Zm0-.333a.053.053,0,0,0-.039.016.057.057,0,0,0,0,.081.146.146,0,0,0,.038.03.119.119,0,0,0,.039-.031.055.055,0,0,0,.018-.039.062.062,0,0,0-.017-.043A.057.057,0,0,0,220.783,118.557Z" transform="translate(-219.758 -117.598)"/></g><g transform="translate(19.963 27.25)"><path class="a" d="M224.544,123.3a.919.919,0,0,1-.654-.27.929.929,0,0,1,0-1.308.947.947,0,0,1,1.308,0,.929.929,0,0,1,0,1.307A.916.916,0,0,1,224.544,123.3Zm0-1.083a.164.164,0,0,0-.115.046.161.161,0,0,0,0,.226.134.134,0,0,0,.224,0,.163.163,0,0,0,0-.228A.16.16,0,0,0,224.544,122.214Z" transform="translate(-223.518 -121.351)"/><path class="a" d="M224.522,123.377a1.023,1.023,0,0,1-.727-.3,1.027,1.027,0,1,1,1.454,0A1.014,1.014,0,0,1,224.522,123.377Zm0-1.84a.813.813,0,0,0-.581,1.395.843.843,0,0,0,1.162,0,.813.813,0,0,0-.581-1.393Zm0,1.089a.277.277,0,0,1-.187-.46.272.272,0,0,1,.372,0,.266.266,0,0,1,0,.373A.27.27,0,0,1,224.521,122.626Zm0-.332a.061.061,0,0,0-.044.017.057.057,0,0,0,0,.079c.025.026.038.03.039.03a.115.115,0,0,0,.039-.03.059.059,0,0,0,0-.082A.063.063,0,0,0,224.522,122.294Z" transform="translate(-223.496 -121.329)"/></g><g transform="translate(17.899 13.721)"><path class="a" d="M222.034,106.844a.916.916,0,0,1-.653-.27.927.927,0,0,1,0-1.309.917.917,0,0,1,.653-.27h0a.916.916,0,0,1,.653.27.926.926,0,0,1,0,1.307A.912.912,0,0,1,222.034,106.844Zm0-1.085a.16.16,0,0,0-.113.274.135.135,0,0,0,.226,0,.16.16,0,0,0,0-.225A.165.165,0,0,0,222.034,105.758Z" transform="translate(-221.007 -104.891)"/><path class="a" d="M222.012,106.924a1.029,1.029,0,1,1,.726-.3A1.021,1.021,0,0,1,222.012,106.924Zm0-1.849a.821.821,0,0,0-.58,1.4.839.839,0,0,0,1.161,0,.821.821,0,0,0-.58-1.4Zm0,1.1a.26.26,0,0,1-.185-.09.263.263,0,1,1,.447-.186.257.257,0,0,1-.077.185.26.26,0,0,1-.184.091Zm0-.333a.057.057,0,0,0-.041.016.058.058,0,0,0,0,.081c.025.025.039.03.04.03a.131.131,0,0,0,.039-.031.057.057,0,0,0,.016-.039.06.06,0,0,0-.016-.041A.056.056,0,0,0,222.012,105.84Z" transform="translate(-220.985 -104.869)"/></g><g transform="translate(20.972 16.799)"><path class="a" d="M225.771,110.582a.924.924,0,0,1-.654-1.577.945.945,0,0,1,1.308,0,.924.924,0,0,1-.653,1.577Zm0-1.083a.159.159,0,0,0-.113.273.139.139,0,0,0,.227,0,.162.162,0,0,0,0-.227A.158.158,0,0,0,225.771,109.5Z" transform="translate(-224.746 -108.637)"/><path class="a" d="M225.749,110.662a1.026,1.026,0,0,1-.727-1.752,1.043,1.043,0,0,1,1.454,0,1.026,1.026,0,0,1-.727,1.752Zm0-1.839a.812.812,0,0,0-.581,1.395.843.843,0,0,0,1.161,0,.822.822,0,0,0,0-1.161A.813.813,0,0,0,225.75,108.823Zm0,1.088a.276.276,0,1,1,.187-.09A.272.272,0,0,1,225.749,109.91Zm0-.332a.062.062,0,0,0-.043.018.058.058,0,0,0,0,.08c.028.027.04.029.04.029a.111.111,0,0,0,.043-.03.061.061,0,0,0,0-.081A.054.054,0,0,0,225.749,109.578Z" transform="translate(-224.724 -108.614)"/></g><g transform="translate(24.043 19.874)"><path class="a" d="M229.508,114.32a.925.925,0,0,1-.654-1.577.945.945,0,0,1,1.308,0,.924.924,0,0,1-.654,1.577Zm0-1.084a.158.158,0,0,0-.112.046.162.162,0,0,0-.047.113.157.157,0,0,0,.046.113.134.134,0,0,0,.225,0,.16.16,0,0,0,0-.225A.156.156,0,0,0,229.508,113.235Z" transform="translate(-228.482 -112.377)"/><path class="a" d="M229.487,114.4a1.026,1.026,0,0,1-.727-1.752,1.029,1.029,0,0,1,.727-.293h0a1.023,1.023,0,1,1,0,2.045Zm0-1.84a.807.807,0,0,0-.822.814.813.813,0,0,0,.24.579.841.841,0,0,0,1.162,0,.813.813,0,0,0-.579-1.394Zm0,1.089a.266.266,0,0,1-.186-.092.257.257,0,0,1-.076-.184.262.262,0,1,1,.524,0,.262.262,0,0,1-.076.185A.271.271,0,0,1,229.487,113.65Zm0-.334a.053.053,0,0,0-.039.016.056.056,0,0,0-.018.042.05.05,0,0,0,.016.039.111.111,0,0,0,.042.032.172.172,0,0,0,.038-.03.056.056,0,0,0,.016-.04.058.058,0,0,0-.056-.058Z" transform="translate(-228.459 -112.355)"/></g><g transform="translate(27.116 22.946)"><path class="a" d="M233.246,118.057a.924.924,0,0,1-.653-1.578.947.947,0,0,1,1.306,0,.924.924,0,0,1-.653,1.578Zm0-1.083a.158.158,0,0,0-.113.046.161.161,0,0,0,0,.227.136.136,0,0,0,.226,0,.161.161,0,0,0,0-.226A.156.156,0,0,0,233.246,116.973Z" transform="translate(-232.221 -116.114)"/><path class="a" d="M233.224,118.136a1.022,1.022,0,1,1,0-2.044h0a1.022,1.022,0,1,1,0,2.044Zm0-1.839h0a.813.813,0,0,0-.577,1.393.844.844,0,0,0,1.163,0,.814.814,0,0,0-.584-1.393Zm0,1.089a.269.269,0,0,1,0-.538.252.252,0,0,1,.185.077.259.259,0,0,1,0,.37A.268.268,0,0,1,233.223,117.387Zm0-.333a.056.056,0,0,0-.041.016.061.061,0,0,0,0,.082.1.1,0,0,0,.039.028.123.123,0,0,0,.042-.03.057.057,0,0,0,0-.08A.054.054,0,0,0,233.224,117.054Z" transform="translate(-232.198 -116.092)"/></g><g transform="translate(14.017 17.488)"><path class="a" d="M217.313,111.418a.924.924,0,0,1-.654-1.577.944.944,0,0,1,1.307,0,.921.921,0,0,1,0,1.307A.908.908,0,0,1,217.313,111.418Zm0-1.084a.154.154,0,0,0-.111.046.158.158,0,0,0-.049.115.156.156,0,0,0,.046.109c.085.086.146.085.224,0a.154.154,0,0,0,.048-.112.163.163,0,0,0-.048-.115A.157.157,0,0,0,217.312,110.333Z" transform="translate(-216.284 -109.474)"/><path class="a" d="M217.29,111.5a1.023,1.023,0,1,1,0-2.046h0a1.015,1.015,0,0,1,1.027,1.023,1.03,1.03,0,0,1-1.027,1.023Zm0-1.84h0a.81.81,0,0,0-.82.816.809.809,0,0,0,.241.576.836.836,0,0,0,1.16,0,.813.813,0,0,0-.579-1.395Zm0,1.092a.272.272,0,0,1-.188-.1.255.255,0,0,1-.076-.181.262.262,0,0,1,.079-.188.255.255,0,0,1,.183-.076.261.261,0,0,1,.185.076.267.267,0,0,1,.078.187.256.256,0,0,1-.08.185.262.262,0,0,1-.181.092Zm0-.335a.056.056,0,0,0-.039.015.06.06,0,0,0-.018.044.051.051,0,0,0,.015.035.179.179,0,0,0,.044.036.252.252,0,0,0,.034-.03.054.054,0,0,0,.021-.041.059.059,0,0,0-.019-.043A.051.051,0,0,0,217.29,110.414Z" transform="translate(-216.262 -109.452)"/></g><g transform="translate(17.091 20.558)"><path class="a" d="M221.049,115.155a.917.917,0,0,1-.653-.27.931.931,0,0,1,0-1.307.946.946,0,0,1,1.309,0,.927.927,0,0,1,0,1.309A.913.913,0,0,1,221.049,115.155Zm0-1.084a.159.159,0,0,0-.113.046.161.161,0,0,0,0,.227.133.133,0,0,0,.224,0,.159.159,0,0,0-.113-.273Z" transform="translate(-220.024 -113.21)"/><path class="a" d="M221.028,115.235a1.022,1.022,0,0,1-.727-.3,1.027,1.027,0,1,1,1.452,0A1.017,1.017,0,0,1,221.028,115.235Zm0-1.84a.813.813,0,0,0-.582,1.395.843.843,0,0,0,1.162,0,.813.813,0,0,0-.58-1.395Zm0,1.09a.27.27,0,0,1,0-.539.257.257,0,0,1,.185.077.262.262,0,0,1,0,.371A.266.266,0,0,1,221.027,114.485Zm0-.334a.056.056,0,0,0-.041.016.059.059,0,0,0,0,.081.1.1,0,0,0,.039.03.121.121,0,0,0,.039-.03.056.056,0,0,0,0-.082A.051.051,0,0,0,221.028,114.151Z" transform="translate(-220.002 -113.187)"/></g><g transform="translate(20.163 23.637)"><path class="a" d="M224.787,118.894a.925.925,0,0,1-.653-1.579.95.95,0,0,1,1.306,0,.922.922,0,0,1,.27.654.923.923,0,0,1-.924.925Zm0-1.083a.157.157,0,0,0-.159.159.156.156,0,0,0,.046.111.135.135,0,0,0,.226,0,.181.181,0,0,0,0-.226A.163.163,0,0,0,224.787,117.811Z" transform="translate(-223.761 -116.954)"/><path class="a" d="M224.766,118.975a1.028,1.028,0,0,1-.727-1.754,1.06,1.06,0,0,1,1.452,0,1.029,1.029,0,0,1,.3.727,1.024,1.024,0,0,1-1.026,1.027Zm0-1.84a.8.8,0,0,0-.821.814.812.812,0,0,0,.24.58.842.842,0,0,0,1.162,0,.813.813,0,0,0,.239-.581.8.8,0,0,0-.82-.812Zm0,1.088a.278.278,0,1,1,.255-.277.275.275,0,0,1-.255.277Zm0-.331a.056.056,0,0,0-.04.016.058.058,0,0,0-.017.041.052.052,0,0,0,.017.038c.027.027.039.031.041.031a.145.145,0,0,0,.039-.031.09.09,0,0,0,0-.081A.06.06,0,0,0,224.766,117.892Z" transform="translate(-223.739 -116.932)"/></g><g transform="translate(23.234 26.709)"><path class="a" d="M228.525,122.632a.925.925,0,0,1-.654-1.579.952.952,0,0,1,1.307,0,.925.925,0,0,1-.653,1.579Zm0-1.083a.159.159,0,0,0-.113.046.158.158,0,0,0,0,.223c.085.086.145.084.225,0a.161.161,0,0,0,0-.226A.161.161,0,0,0,228.525,121.549Z" transform="translate(-227.498 -120.692)"/><path class="a" d="M228.5,122.714a1.028,1.028,0,0,1-.725-1.755,1.058,1.058,0,0,1,1.452,0,1.028,1.028,0,0,1-.727,1.755Zm0-1.84a.824.824,0,0,0-.581.23.821.821,0,0,0,0,1.16.837.837,0,0,0,1.163,0,.811.811,0,0,0-.58-1.392Zm0,1.089a.267.267,0,0,1-.187-.1.257.257,0,0,1-.076-.182.262.262,0,1,1,.446.185.263.263,0,0,1-.183.092Zm0-.333a.054.054,0,0,0-.039.016.057.057,0,0,0-.016.04.054.054,0,0,0,.016.037c.026.027.039.034.043.035a.252.252,0,0,0,.035-.032.052.052,0,0,0,.018-.039.055.055,0,0,0-.016-.041A.056.056,0,0,0,228.5,121.63Z" transform="translate(-227.475 -120.67)"/></g><g transform="translate(0.001 21.52)"><path class="a" d="M210.951,135.585a5.03,5.03,0,0,1-3.568-1.475l-6.572-6.571a5.054,5.054,0,0,1,0-7.137l5.812-5.812a.382.382,0,0,1,.541.541l-5.812,5.812a4.287,4.287,0,0,0,0,6.056l6.571,6.571a4.288,4.288,0,0,0,6.056,0l5.813-5.812a.382.382,0,0,1,.541.541l-5.814,5.812A5.027,5.027,0,0,1,210.951,135.585Z" transform="translate(-199.233 -114.378)"/><path class="a" d="M210.928,135.666a5.113,5.113,0,0,1-3.641-1.506l-6.571-6.571a5.157,5.157,0,0,1,0-7.283l5.812-5.811a.5.5,0,0,1,.686,0,.486.486,0,0,1,0,.686l-5.812,5.812a4.183,4.183,0,0,0,0,5.91l6.572,6.572a4.186,4.186,0,0,0,5.909,0l5.813-5.812a.5.5,0,0,1,.686,0,.484.484,0,0,1,0,.686l-5.815,5.812A5.109,5.109,0,0,1,210.928,135.666Zm-4.057-21.109a.276.276,0,0,0-.2.082l-5.813,5.812a4.951,4.951,0,0,0,0,6.992l6.571,6.571a4.947,4.947,0,0,0,6.99,0l5.816-5.812a.28.28,0,0,0,0-.4.287.287,0,0,0-.4,0l-5.813,5.812a4.392,4.392,0,0,1-6.2,0l-6.572-6.571a4.389,4.389,0,0,1,0-6.2l5.811-5.812a.277.277,0,0,0,.082-.2.281.281,0,0,0-.082-.2A.275.275,0,0,0,206.872,114.558Z" transform="translate(-199.211 -114.357)"/></g><g transform="translate(21.512 0.002)"><path class="a" d="M239.056,109.415a.382.382,0,0,1-.27-.653l5.812-5.812a4.291,4.291,0,0,0,0-6.057l-6.571-6.571a4.287,4.287,0,0,0-6.055,0l-5.814,5.813a.382.382,0,0,1-.54-.54l5.813-5.814a5.053,5.053,0,0,1,7.137,0l6.572,6.571a5.057,5.057,0,0,1,0,7.139l-5.813,5.812A.381.381,0,0,1,239.056,109.415Z" transform="translate(-225.403 -88.202)"/><path class="a" d="M239.034,109.5a.485.485,0,0,1-.344-.829l5.814-5.812a4.189,4.189,0,0,0,0-5.912l-6.571-6.571a4.185,4.185,0,0,0-5.909,0l-5.814,5.814a.486.486,0,0,1-.687-.686l5.814-5.814a5.157,5.157,0,0,1,7.283,0l6.571,6.572a5.16,5.16,0,0,1,0,7.284l-5.814,5.812A.478.478,0,0,1,239.034,109.5Zm-4.057-20.551a4.374,4.374,0,0,1,3.1,1.281l6.571,6.571a4.4,4.4,0,0,1,0,6.2l-5.814,5.812a.281.281,0,0,0,0,.4.285.285,0,0,0,.395,0l5.813-5.812a4.953,4.953,0,0,0,0-6.994l-6.572-6.571a4.95,4.95,0,0,0-6.991,0l-5.813,5.814a.279.279,0,0,0,0,.4.281.281,0,0,0,.4,0l5.814-5.814A4.375,4.375,0,0,1,234.978,88.944Z" transform="translate(-225.38 -88.18)"/></g></g></g></svg>