<svg xmlns="http://www.w3.org/2000/svg" width="30.506" height="25.619" viewBox="0 0 30.506 25.619"><defs><style>.a{fill:none;stroke-linecap:round;stroke-linejoin:round;}.b,.c{stroke:none;}.c{fill:#fff;}</style></defs><g class="a" transform="translate(0.5 -2.484)"><path class="b" d="M28.006,4.5A13.132,13.132,0,0,1,24.223,6.34a5.4,5.4,0,0,0-9.47,3.614v1.2A12.843,12.843,0,0,1,3.91,5.7S-.91,16.545,9.934,21.364A14.024,14.024,0,0,1,1.5,23.774c10.843,6.024,24.1,0,24.1-13.855a5.422,5.422,0,0,0-.1-1A9.3,9.3,0,0,0,28.006,4.5Z"/><path class="c" d="M 20.14885330200195 4.484598159790039 C 19.50371551513672 4.484598159790039 18.85239410400391 4.600353240966797 18.22537040710449 4.83967399597168 C 16.10935974121094 5.647314071655273 14.72262001037598 7.690093994140625 14.75298976898193 9.954784393310547 L 14.75298976898193 11.15960502624512 C 14.64170074462891 11.16249084472656 14.53010272979736 11.16393280029297 14.41914463043213 11.16393280029297 C 10.24251174926758 11.16393280029297 6.317970275878906 9.131118774414063 3.909639358520508 5.701784133911133 C 3.909639358520508 5.701784133911133 -0.9096298217773438 16.54513549804688 9.933719635009766 21.36440467834473 C 7.606601715087891 22.94404220581055 4.861625671386719 23.78512954711914 2.057558059692383 23.78512954711914 C 1.871789932250977 23.78512954711914 1.686187744140625 23.78145027160645 1.5 23.77404403686523 C 4.340555191040039 25.35213088989258 7.348159790039063 26.10370826721191 10.23786735534668 26.10370826721191 C 18.37914276123047 26.10370826721191 25.59634017944336 20.14444351196289 25.59634017944336 9.918643951416016 C 25.59523010253906 9.583044052124023 25.56295967102051 9.248275756835938 25.49995994567871 8.918643951416016 C 26.72958946228027 7.705984115600586 27.59733009338379 6.174934387207031 28.0059700012207 4.496965408325195 C 26.85223007202148 5.310794830322266 25.57477951049805 5.933244705200195 24.22285079956055 6.340333938598633 C 23.17697143554688 5.137762069702148 21.68084526062012 4.484598159790039 20.14885330200195 4.484598159790039 M 20.14884948730469 2.484594345092773 C 21.81205558776855 2.484594345092773 23.41056251525879 3.043308258056641 24.7000904083252 4.049404144287109 C 25.45822715759277 3.735250473022461 26.17909812927246 3.338106155395508 26.8531494140625 2.862644195556641 C 27.19850921630859 2.61903190612793 27.60217666625977 2.496976852416992 28.00600242614746 2.496963500976563 C 28.39874267578125 2.496952056884766 28.79162979125977 2.612373352050781 29.13141059875488 2.84367561340332 C 29.82056999206543 3.312795639038086 30.14644050598145 4.160194396972656 29.94918060302734 4.970195770263672 C 29.53198623657227 6.683286666870117 28.72276306152344 8.267745971679688 27.58890533447266 9.60467529296875 C 27.59350967407227 9.707151412963867 27.59599113464355 9.809650421142578 27.5963306427002 9.91203498840332 C 27.59634017944336 9.914234161376953 27.59634017944336 9.916444778442383 27.59634017944336 9.918643951416016 C 27.59634017944336 12.64799499511719 27.12545013427734 15.20157432556152 26.19675064086914 17.50847434997559 C 25.30849075317383 19.71490478515625 24.02117919921875 21.65458488464355 22.37059020996094 23.27363586425781 C 19.19519996643066 26.38835525512695 14.88638973236084 28.10370445251465 10.23786926269531 28.10370445251465 C 6.925800323486328 28.10370445251465 3.568429946899414 27.21109390258789 0.5287094116210938 25.52235412597656 C -0.2809200286865234 25.07256507873535 -0.6758098602294922 24.12573623657227 -0.4256992340087891 23.23395538330078 C -0.1828556060791016 22.36809349060059 0.6065216064453125 21.77409744262695 1.499284744262695 21.77402687072754 C 1.525997161865234 21.77402496337891 1.552642822265625 21.77455520629883 1.579530715942383 21.77562522888184 C 1.738059997558594 21.78193473815918 1.898889541625977 21.78513526916504 2.057559967041016 21.78513526916504 C 3.3189697265625 21.78513526916504 4.558158874511719 21.58966445922852 5.738861083984375 21.20988082885742 C 4.511953353881836 20.26863670349121 3.505096435546875 19.18064308166504 2.728281021118164 17.95409393310547 C 1.590360641479492 16.15737533569336 0.9609298706054688 14.09244537353516 0.8574905395507813 11.81668472290039 C 0.6874008178710938 8.07481575012207 2.024990081787109 5.017814636230469 2.082019805908203 4.889505386352539 C 2.374639511108398 4.231094360351563 2.998800277709961 3.780975341796875 3.715919494628906 3.711185455322266 C 3.780786514282227 3.704872131347656 3.845609664916992 3.701759338378906 3.909984588623047 3.701755523681641 C 4.557306289672852 3.701723098754883 5.16972541809082 4.016069412231445 5.546350479125977 4.552364349365234 C 7.260236740112305 6.992847442626953 9.895053863525391 8.602167129516602 12.79964351654053 9.042036056518555 C 12.93365097045898 7.857444763183594 13.35152626037598 6.726297378540039 14.02955055236816 5.727514266967773 C 14.88498020172119 4.467395782470703 16.08926010131836 3.514255523681641 17.5121898651123 2.971155166625977 C 18.35808944702148 2.648294448852539 19.24518966674805 2.484594345092773 20.14884948730469 2.484594345092773 Z"/></g></svg>