<svg xmlns="http://www.w3.org/2000/svg" width="29.087" height="27.875" viewBox="0 0 29.087 27.875"><defs><style>.a{fill:#777;}</style></defs><g transform="translate(0 -10.667)"><g transform="translate(0 10.667)"><path class="a" d="M29.087,21.878a2.693,2.693,0,0,1-.789,1.908,3.009,3.009,0,0,1,.776,2.314,3.133,3.133,0,0,1-3.161,2.748H18.427a17.425,17.425,0,0,1,.965,4.848c0,2.629-2.234,4.848-3.636,4.848a3.806,3.806,0,0,1-2.2-.738.606.606,0,0,1-.228-.474V33.22L9.84,25.659,9.7,25.585v.232a.606.606,0,0,1-.606.606H3.03A3.033,3.033,0,0,1,0,23.393V13.7a3.033,3.033,0,0,1,3.03-3.03H6.666a3.037,3.037,0,0,1,2.852,2,7.9,7.9,0,0,1,3.208-.791H23.85A2.788,2.788,0,0,1,26.6,13.995a2.736,2.736,0,0,1-.218,1.822,2.717,2.717,0,0,1,1.213,3.636A2.716,2.716,0,0,1,29.087,21.878Zm-2.556-1.5a.606.606,0,0,1-.347-1.043,1.5,1.5,0,0,0-.864-2.592.606.606,0,0,1-.347-1.043,1.5,1.5,0,0,0,.439-1.446,1.568,1.568,0,0,0-1.562-1.166H12.726a5.745,5.745,0,0,0-3.207,1.035A.607.607,0,0,1,8.484,13.7a1.82,1.82,0,0,0-1.818-1.818H3.03A1.82,1.82,0,0,0,1.212,13.7v9.7A1.82,1.82,0,0,0,3.03,25.21H8.484V24.6a.609.609,0,0,1,.288-.516.619.619,0,0,1,.589-.025l1.212.606a.605.605,0,0,1,.279.287l3.636,7.878a.617.617,0,0,1,.056.255V37a2.556,2.556,0,0,0,1.212.328c.664,0,2.424-1.651,2.424-3.636a18.871,18.871,0,0,0-1.172-5.238.605.605,0,0,1,.566-.822h8.339a1.913,1.913,0,0,0,1.954-1.647A1.811,1.811,0,0,0,27,24.272a.607.607,0,0,1,.041-1.056,1.5,1.5,0,0,0-.514-2.835Z" transform="translate(0 -10.667)"/></g><g transform="translate(8.484 13.091)"><path class="a" d="M149.939,257.453a.606.606,0,0,1-.606-.606V245.939a.606.606,0,0,1,1.212,0v10.908A.606.606,0,0,1,149.939,257.453Z" transform="translate(-149.333 -245.333)"/></g></g></svg>