<svg xmlns="http://www.w3.org/2000/svg" width="40.047" height="48" viewBox="0 0 40.047 48"><defs><style>.a{fill:#fff;}</style></defs><g transform="translate(-1523.976 -1264.647)"><path class="a" d="M98.593,23.122a11.187,11.187,0,0,0,8.175-3.387,11.187,11.187,0,0,0,3.387-8.174,11.188,11.188,0,0,0-3.387-8.174,11.558,11.558,0,0,0-16.348,0,11.187,11.187,0,0,0-3.387,8.174,11.187,11.187,0,0,0,3.387,8.175,11.19,11.19,0,0,0,8.174,3.387ZM92.408,5.376a8.745,8.745,0,0,1,12.37,0,8.358,8.358,0,0,1,2.563,6.185,8.358,8.358,0,0,1-2.563,6.185,8.744,8.744,0,0,1-12.37,0,8.356,8.356,0,0,1-2.563-6.185,8.357,8.357,0,0,1,2.563-6.185Zm0,0" transform="translate(1445.104 1264.646)"/><path class="a" d="M39.949,261.04a28.556,28.556,0,0,0-.389-3.033,23.9,23.9,0,0,0-.746-3.049,15.062,15.062,0,0,0-1.254-2.844,10.721,10.721,0,0,0-1.89-2.464,8.335,8.335,0,0,0-2.715-1.706,9.384,9.384,0,0,0-3.467-.627,3.519,3.519,0,0,0-1.879.8c-.563.367-1.222.792-1.957,1.262a11.216,11.216,0,0,1-2.533,1.116,9.835,9.835,0,0,1-6.2,0,11.181,11.181,0,0,1-2.531-1.115c-.728-.465-1.388-.89-1.959-1.263a3.515,3.515,0,0,0-1.878-.8,9.373,9.373,0,0,0-3.466.628,8.328,8.328,0,0,0-2.716,1.706,10.723,10.723,0,0,0-1.89,2.463,15.092,15.092,0,0,0-1.254,2.844,23.953,23.953,0,0,0-.746,3.049A28.36,28.36,0,0,0,.1,261.041c-.064.917-.1,1.871-.1,2.834a7.97,7.97,0,0,0,2.367,6.03,8.521,8.521,0,0,0,6.1,2.225H31.579a8.522,8.522,0,0,0,6.1-2.225,7.967,7.967,0,0,0,2.368-6.03c0-.967-.033-1.921-.1-2.835Zm-4.21,6.828a5.737,5.737,0,0,1-4.161,1.45H8.467a5.737,5.737,0,0,1-4.161-1.449,5.2,5.2,0,0,1-1.494-3.992c0-.9.03-1.787.089-2.64a25.579,25.579,0,0,1,.352-2.732,21.126,21.126,0,0,1,.656-2.688,12.286,12.286,0,0,1,1.02-2.313,7.948,7.948,0,0,1,1.389-1.82,5.529,5.529,0,0,1,1.807-1.123,6.473,6.473,0,0,1,2.215-.427c.1.052.274.152.558.338.578.377,1.245.807,1.982,1.277a13.936,13.936,0,0,0,3.179,1.421,12.645,12.645,0,0,0,7.926,0,13.952,13.952,0,0,0,3.181-1.422c.754-.482,1.4-.9,1.98-1.277.284-.185.46-.285.558-.338a6.477,6.477,0,0,1,2.216.427,5.537,5.537,0,0,1,1.806,1.123,7.926,7.926,0,0,1,1.389,1.821,12.244,12.244,0,0,1,1.021,2.312,21.074,21.074,0,0,1,.656,2.688,25.8,25.8,0,0,1,.352,2.732h0c.06.849.09,1.737.09,2.639a5.2,5.2,0,0,1-1.494,3.992Zm0,0" transform="translate(1523.977 1040.516)"/></g></svg>