<svg xmlns="http://www.w3.org/2000/svg" width="26.366" height="26.366" viewBox="0 0 26.366 26.366"><defs><style>.a{fill:#fff;}</style></defs><path class="a" d="M22.417,6.081A13.069,13.069,0,0,0,1.854,21.848L0,28.616,6.927,26.8a13.026,13.026,0,0,0,6.244,1.589h.006A13.191,13.191,0,0,0,26.366,15.321a13.117,13.117,0,0,0-3.949-9.24Zm-9.24,20.1a10.84,10.84,0,0,1-5.532-1.513l-.394-.235L3.143,25.514l1.095-4.008-.259-.412a10.88,10.88,0,1,1,20.181-5.773A10.981,10.981,0,0,1,13.177,26.185Zm5.956-8.133c-.324-.165-1.93-.953-2.231-1.059s-.518-.165-.736.165-.842,1.059-1.036,1.283-.383.247-.706.082a8.886,8.886,0,0,1-4.443-3.884c-.335-.577.335-.536.959-1.783a.605.605,0,0,0-.029-.571c-.082-.165-.736-1.771-1.006-2.425-.265-.636-.536-.547-.736-.559s-.406-.012-.624-.012a1.209,1.209,0,0,0-.871.406A3.668,3.668,0,0,0,6.533,12.42,6.4,6.4,0,0,0,7.863,15.8a14.588,14.588,0,0,0,5.579,4.932c2.072.895,2.884.971,3.92.818a3.344,3.344,0,0,0,2.2-1.554,2.73,2.73,0,0,0,.188-1.554C19.674,18.293,19.457,18.211,19.133,18.052Z" transform="translate(0 -2.25)"/></svg>