<svg xmlns="http://www.w3.org/2000/svg" width="135.461" height="135.4" viewBox="0 0 135.461 135.4">
  <g id="Group_15403" data-name="Group 15403" opacity="0.03">
    <path id="Path_102694" data-name="Path 102694" d="M628,255.683a4.806,4.806,0,0,1,5.051-2.944c6.83.107,13.663.065,20.494,0a7.992,7.992,0,0,0,3.032-.643,32.931,32.931,0,0,1,17.047-3.241c3.527.409,7.034,1.157,10.511,1.844a116.567,116.567,0,0,0,22.448,2.107,19.8,19.8,0,0,1,19.361,12.314,3.578,3.578,0,0,0,.336.453c1.162-.849,2.331-1.672,3.467-2.543,1.852-1.42,3.647-2.912,5.53-4.3a19.858,19.858,0,0,1,26.4,2.53,4.322,4.322,0,0,1-.117,7.08,87.344,87.344,0,0,1-33.865,22.333,79.017,79.017,0,0,1-30.786,4.217,118.237,118.237,0,0,1-20.059-3.019,33.2,33.2,0,0,0-16.821.711c-.161,2.866.847,6.268-2.925,7.784H630.91a5.6,5.6,0,0,1-2.91-2.9ZM660,284.3c.456-.078.714-.112.969-.167a41.528,41.528,0,0,1,16.907-.185c5.3,1.042,10.626,2.029,15.979,2.735a67.3,67.3,0,0,0,23.5-1.219,71.031,71.031,0,0,0,29.054-14.151c2.5-1.99,4.869-4.15,7.419-6.336-.607-.37-.956-.625-1.342-.81a11.6,11.6,0,0,0-12.58,1.1c-3.564,2.584-7.01,5.335-10.613,7.859a19.735,19.735,0,0,1-11.827,3.478c-9.74-.083-19.483-.026-29.224-.029a3.988,3.988,0,1,1,.052-7.922H718.75a15.446,15.446,0,0,0-.688-1.547,11.644,11.644,0,0,0-10.722-6.27,126.41,126.41,0,0,1-29.461-3.293,25.5,25.5,0,0,0-16.672,1.276,1.756,1.756,0,0,0-1.24,1.941c.049,6.346.023,12.694.023,19.04Zm-8.018,8.1V260.812H636v31.581Z" transform="translate(-628 -164.97)" fill="#262626"/>
    <path id="Path_102695" data-name="Path 102695" d="M710.72,11.762h54.865c3.194,0,4.642,1.467,4.642,4.689V78.972c0,3.23-1.451,4.7-4.637,4.7H655.86c-3.189,0-4.642-1.472-4.642-4.689V16.464c0-3.28,1.443-4.689,4.77-4.689Zm51.525,8.018h-103v55.9H762.24Z" transform="translate(-643.015 -11.762)" fill="#262626"/>
    <path id="Path_102696" data-name="Path 102696" d="M763.5,76.456a19.832,19.832,0,1,1,19.744,20.088A19.832,19.832,0,0,1,763.5,76.456Zm19.856,12.155a12.166,12.166,0,1,0-11.923-12.074,12.3,12.3,0,0,0,11.923,12.072Z" transform="translate(-715.622 -40.48)" fill="#262626"/>
    <path id="Path_102697" data-name="Path 102697" d="M704.114,64.572V88.916h3.611a3.97,3.97,0,1,1,.021,7.922c-2.509,0-5.02.016-7.531,0a3.892,3.892,0,0,1-4.085-4.051q-.018-16.052,0-32.1a3.871,3.871,0,0,1,3.97-4.027q3.965-.039,7.927,0a3.957,3.957,0,0,1-.055,7.914C706.709,64.588,705.445,64.572,704.114,64.572Z" transform="translate(-672.054 -40.778)" fill="#262626"/>
    <path id="Path_102698" data-name="Path 102698" d="M906.1,64.571c-1.336,0-2.605.018-3.876,0a3.957,3.957,0,0,1,.047-7.914c2.641-.023,5.286-.029,7.927,0a3.856,3.856,0,0,1,3.908,3.947q.026,16.117,0,32.235a3.871,3.871,0,0,1-4.007,4c-2.642.023-5.286.031-7.925,0a3.956,3.956,0,1,1,0-7.912c1.274-.026,2.548,0,3.907,0Z" transform="translate(-802.781 -40.779)" fill="#262626"/>
  </g>
</svg>
