<svg xmlns="http://www.w3.org/2000/svg" xmlns:xlink="http://www.w3.org/1999/xlink" width="76" height="78" viewBox="0 0 76 78"><defs><style>.a{fill:#fff;}.b{fill:#000f31;}.c{fill:#00cbff;}.d{filter:url(#a);}</style><filter id="a" x="0" y="0" width="76" height="78" filterUnits="userSpaceOnUse"><feOffset dy="3" input="SourceAlpha"/><feGaussianBlur stdDeviation="3" result="b"/><feFlood flood-opacity="0.161"/><feComposite operator="in" in2="b"/><feComposite in="SourceGraphic"/></filter></defs><g transform="translate(-1159 -817)"><g class="d" transform="matrix(1, 0, 0, 1, 1159, 817)"><ellipse class="a" cx="29" cy="30" rx="29" ry="30" transform="translate(9 6)"/></g><g transform="translate(1182.066 841.488)"><path class="b" d="M28.9,237.588a.9.9,0,0,1-.9.469H-4.241A.67.67,0,0,1-5,237.4a.667.667,0,0,1,.221-.5.667.667,0,0,1,.521-.167H-.018a4.142,4.142,0,0,1-1.008-2.652H-3.008a1.886,1.886,0,0,1-1.771-1.115,2.04,2.04,0,0,1-.2-.857q-.018-8.623,0-17.245a1.967,1.967,0,0,1,.618-1.432A1.967,1.967,0,0,1-2.9,212.9H15.863a1.977,1.977,0,0,1,2.045,2.045v4.574h5.432a1.977,1.977,0,0,1,1.917,1.162q1.8,3.605,3.59,7.216c0,.016.034.021.052.031V232.5a2.269,2.269,0,0,1-1.232,1.451c-.057.023-.089.159-.091.245a3.571,3.571,0,0,1-.438,1.67c-.161.287-.341.565-.521.873.49,0,.943.021,1.391,0a.865.865,0,0,1,.9.469Zm-12.314-4.832V215.083c0-.623-.261-.87-.9-.87H-2.748c-.7,0-.93.232-.93.935v12.309h1.87a.68.68,0,0,1,.584.186.68.68,0,0,1,.2.58v2.285c0,.722-.2.92-.925.92H-3.675v.373c0,.727.224.953.943.953.542,0,1.081-.013,1.623,0a.4.4,0,0,0,.435-.289,3.8,3.8,0,0,1,3.605-2.345,3.8,3.8,0,0,1,3.647,2.345.412.412,0,0,0,.438.287H13.3Zm1.334,0c.557,0,1.086-.016,1.613,0a.422.422,0,0,0,.458-.31,3.956,3.956,0,0,1,6.867-.628c.169.234.3.5.521.847a4.8,4.8,0,0,0,.2-.628,3.608,3.608,0,0,0,0-.563c0-.891,0-1.779,0-2.7H20.041c-.563,0-.8-.242-.8-.8v-5c0-.586.234-.818.823-.818h4.447c-.138-.281-.261-.508-.362-.748a.878.878,0,0,0-.927-.586c-1.654.016-3.308,0-4.963,0a2.42,2.42,0,0,0-.331.016ZM5.937,236.7H20.622a4.064,4.064,0,0,1-1-2.6H6.922a4.043,4.043,0,0,1-.987,2.605Zm14.638-9.271h6.531a.294.294,0,0,0,0-.086c-.612-1.23-1.222-2.462-1.85-3.686a.438.438,0,0,0-.333-.167h-4.1a2.443,2.443,0,0,0-.261.026Zm-17.6,4a2.645,2.645,0,0,0-.023,5.291,2.645,2.645,0,1,0,.01-5.291Zm18,2.605a1.015,1.015,0,1,0-.013-.005Zm-23.336-5.244h-1.3v1.287h1.3Z" transform="translate(4.996 -212.899)"/><path class="c" d="M112.127,262.123h-4.1a.6.6,0,0,1-.667-.427.865.865,0,0,1,.128-.659.878.878,0,0,1,.612-.227c1.972-.016,3.944,0,5.916,0h2.18a.672.672,0,0,1,.761.649c0,.4-.294.669-.782.672Z" transform="translate(-98.034 -256.834)"/><path class="c" d="M142.256,292.75h2.709c.5,0,.808.26.8.675s-.3.646-.782.646h-5.419c-.505,0-.808-.26-.8-.675s.3-.646.782-.646Z" transform="translate(-126.837 -286.135)"/><path class="c" d="M75.537,262.165a.659.659,0,1,1,.667-.633.659.659,0,0,1-.667.633Z" transform="translate(-68.266 -256.879)"/><path class="b" d="M74.864,453.756a1.323,1.323,0,1,1,1.3,1.342,1.3,1.3,0,0,1-1.3-1.342Z" transform="translate(-68.245 -432.594)"/><path class="b" d="M325.3,455.1a1.316,1.316,0,1,1,.937-.387,1.324,1.324,0,0,1-.937.387Z" transform="translate(-296.699 -432.598)"/></g></g></svg>