<svg xmlns="http://www.w3.org/2000/svg" xmlns:xlink="http://www.w3.org/1999/xlink" width="78" height="78" viewBox="0 0 78 78"><defs><style>.a{fill:#fff;}.b{fill:#000f31;}.c{fill:#00cbff;}.d{filter:url(#a);}</style><filter id="a" x="0" y="0" width="78" height="78" filterUnits="userSpaceOnUse"><feOffset dy="3" input="SourceAlpha"/><feGaussianBlur stdDeviation="3" result="b"/><feFlood flood-opacity="0.161"/><feComposite operator="in" in2="b"/><feComposite in="SourceGraphic"/></filter></defs><g transform="translate(-834 -817)"><g class="d" transform="matrix(1, 0, 0, 1, 834, 817)"><circle class="a" cx="30" cy="30" r="30" transform="translate(9 6)"/></g><g transform="translate(852.561 836.503)"><path class="b" d="M-309.759,74.753a2.99,2.99,0,0,1,.662.643.977.977,0,0,1-.292,1.2q-1.36,1.352-2.709,2.717a.438.438,0,0,0-.133.331c.367,1.48.758,2.954,1.131,4.429.43,1.712.836,3.428,1.274,5.137a3.212,3.212,0,0,1-.938,3.275q-6.153,6.151-12.3,12.311l-4.02,4.022a2.98,2.98,0,0,1-3.316.815,3.676,3.676,0,0,1-1.274-.826q-5.731-5.682-11.421-11.4a3.883,3.883,0,0,1-1-1.824v-.9a3.421,3.421,0,0,1,.737-1.563q1.339-1.373,2.694-2.73l13.934-13.919a3.168,3.168,0,0,1,3.212-.927c1.722.438,3.449.844,5.171,1.276,1.48.37,2.952.763,4.429,1.131a.432.432,0,0,0,.331-.125c.847-.831,1.68-1.68,2.527-2.509a8.721,8.721,0,0,1,.74-.589Zm-5.671,4.963a2.366,2.366,0,0,0-.227-.083l-8.357-2.066a1.214,1.214,0,0,0-1.237.373q-8.164,8.164-16.336,16.321a1.063,1.063,0,0,0-.452.87,1.063,1.063,0,0,0,.452.87l11.314,11.314a1.071,1.071,0,0,0,.882.463,1.071,1.071,0,0,0,.882-.463q8.136-8.146,16.274-16.287a1.324,1.324,0,0,0,.378-1.391c-.552-2.173-1.076-4.356-1.613-6.533-.156-.633-.318-1.266-.49-1.946-.81.81-1.579,1.563-2.345,2.345a.414.414,0,0,0-.029.352,3.074,3.074,0,0,1-.474,3,3.074,3.074,0,0,1-2.821,1.128,3.077,3.077,0,0,1-2.1-1.27,3.077,3.077,0,0,1-.5-2.4,3.053,3.053,0,0,1,1.419-2.008,3.053,3.053,0,0,1,2.439-.311.753.753,0,0,0,.917-.26C-316.8,81.06-316.115,80.4-315.43,79.716Zm-2.756,5.223a1.018,1.018,0,0,0-.31-.722,1.019,1.019,0,0,0-.732-.286,1.042,1.042,0,0,0-1,1.011,1.042,1.042,0,0,0,1.024,1.042,1.042,1.042,0,0,0,1.021-1.045Z" transform="translate(344.091 -74.74)"/><path class="c" d="M-251.019,286.694c-.74.052-1.245-.326-1.3-.87a1.042,1.042,0,0,1,.24-.814,1.042,1.042,0,0,1,.766-.366l8.5-.948c1.461-.162,2.923-.328,4.384-.485a1.06,1.06,0,0,1,.828.193,1.06,1.06,0,0,1,.42.739,1.042,1.042,0,0,1-.264.772,1.042,1.042,0,0,1-.739.345c-.3.042-.61.081-.917.115l-8.6.956C-248.844,286.462-249.987,286.582-251.019,286.694Z" transform="translate(260.196 -265.301)"/><path class="c" d="M-208.531,211.518a3.072,3.072,0,0,1,.9-2.185,3.072,3.072,0,0,1,2.187-.9,3.108,3.108,0,0,1,3.079,3.071,3.126,3.126,0,0,1-3.087,3.1,3.1,3.1,0,0,1-3.082-3.09Zm3.087-1a.993.993,0,0,0-.727.284.992.992,0,0,0-.3.722,1,1,0,0,0,.985,1.011,1,1,0,0,0,.732-.273,1,1,0,0,0,.31-.717.992.992,0,0,0-.282-.728.993.993,0,0,0-.721-.3Z" transform="translate(220.165 -196.95)"/><path class="c" d="M-188.5,327.063a3.1,3.1,0,0,1,3.074,3.071,3.105,3.105,0,0,1-3.092,3.092,3.09,3.09,0,0,1-3.069-3.11,3.077,3.077,0,0,1,3.087-3.053Zm-1.042,3.063a1.042,1.042,0,0,0,1.006,1.042,1.042,1.042,0,0,0,1.042-1.011,1.042,1.042,0,0,0-1.008-1.042,1.042,1.042,0,0,0-1.024,1.011Z" transform="translate(204.668 -305.394)"/></g></g></svg>