<svg xmlns="http://www.w3.org/2000/svg" xmlns:xlink="http://www.w3.org/1999/xlink" width="77" height="78" viewBox="0 0 77 78"><defs><style>.a{fill:#fff;}.b{fill:#000f31;}.c{fill:#00cbff;}.d{filter:url(#a);}</style><filter id="a" x="0" y="0" width="77" height="78" filterUnits="userSpaceOnUse"><feOffset dy="3" input="SourceAlpha"/><feGaussianBlur stdDeviation="3" result="b"/><feFlood flood-opacity="0.161"/><feComposite operator="in" in2="b"/><feComposite in="SourceGraphic"/></filter></defs><g transform="translate(-506 -817)"><g class="d" transform="matrix(1, 0, 0, 1, 506, 817)"><ellipse class="a" cx="29.5" cy="30" rx="29.5" ry="30" transform="translate(9 6)"/></g><g transform="translate(530.146 839.118)"><path class="b" d="M628,250.2a1.019,1.019,0,0,1,1.068-.623c1.446.023,2.891.013,4.337,0a1.692,1.692,0,0,0,.641-.135,6.968,6.968,0,0,1,3.608-.685c.745.086,1.485.245,2.225.391a24.669,24.669,0,0,0,4.751.445,4.189,4.189,0,0,1,4.1,2.605.793.793,0,0,0,.07.1c.245-.18.492-.354.734-.537.393-.3.781-.617,1.17-.909a4.2,4.2,0,0,1,5.585.537.914.914,0,0,1-.026,1.5,18.5,18.5,0,0,1-7.166,4.726,16.723,16.723,0,0,1-6.513.893,25.024,25.024,0,0,1-4.246-.638,7.032,7.032,0,0,0-3.559.151c-.034.607.18,1.326-.62,1.646h-5.541a1.188,1.188,0,0,1-.615-.615Zm6.773,6.054.206-.034a8.787,8.787,0,0,1,3.577-.039c1.123.222,2.248.43,3.387.578a14.242,14.242,0,0,0,4.973-.261,15.029,15.029,0,0,0,6.148-2.993c.521-.422,1.042-.878,1.563-1.342-.128-.078-.2-.133-.284-.172a2.454,2.454,0,0,0-2.662.232c-.755.547-1.482,1.128-2.245,1.662a4.168,4.168,0,0,1-2.5.735c-2.061-.018-4.124,0-6.184,0a.844.844,0,1,1,0-1.678h6.445a3.405,3.405,0,0,0-.146-.328,2.464,2.464,0,0,0-2.269-1.326,26.759,26.759,0,0,1-6.234-.7,5.4,5.4,0,0,0-3.527.261.372.372,0,0,0-.261.412q0,2.016,0,4.03Zm-1.7,1.714v-6.685h-3.386v6.685Z" transform="translate(-628 -231.003)"/><path class="b" d="M663.8,11.764h11.611c.675,0,.982.31.982.993V25.99c0,.683-.307,1-.982,1H652.205c-.675,0-.982-.313-.982-1V12.756c0-.693.3-1,1.008-1Zm10.9,1.7h-21.8V25.292h21.8Z" transform="translate(-649.475 -11.761)"/><path class="b" d="M763.5,60.861a4.2,4.2,0,1,1,4.168,4.251,4.2,4.2,0,0,1-4.168-4.251Zm4.2,2.571a2.574,2.574,0,1,0-2.524-2.556,2.605,2.605,0,0,0,2.524,2.566Z" transform="translate(-753.369 -53.246)"/><path class="c" d="M697.815,58.314v5.153h.763a.841.841,0,1,1,0,1.675h-1.594a.823.823,0,0,1-.865-.857V57.491a.82.82,0,0,1,.841-.852h1.678a.838.838,0,0,1,0,1.675C698.365,58.317,698.1,58.314,697.815,58.314Z" transform="translate(-691.032 -53.276)"/><path class="c" d="M899.908,58.313h-.821a.838.838,0,0,1,0-1.675h1.678a.815.815,0,0,1,.828.836V64.3a.821.821,0,0,1-.847.847h-1.677a.838.838,0,1,1,0-1.675h.828Z" transform="translate(-878.044 -53.278)"/></g></g></svg>