<svg xmlns="http://www.w3.org/2000/svg" width="140.327" height="140.327" viewBox="0 0 140.327 140.327">
  <g id="Group_15401" data-name="Group 15401" opacity="0.03">
    <path id="Path_102690" data-name="Path 102690" d="M-206.791,74.745a11.982,11.982,0,0,1,2.647,2.576,3.907,3.907,0,0,1-1.162,4.809Q-210.746,87.541-216.138,93a1.753,1.753,0,0,0-.521,1.318c1.469,5.919,3.032,11.814,4.52,17.727,1.719,6.843,3.345,13.71,5.09,20.549a12.848,12.848,0,0,1-3.751,13.1q-24.613,24.6-49.181,49.236-8.034,8.047-16.076,16.086a11.921,11.921,0,0,1-13.26,3.264,14.7,14.7,0,0,1-5.1-3.3q-22.906-22.721-45.672-45.588a15.521,15.521,0,0,1-4-7.333V154.5a13.687,13.687,0,0,1,2.952-6.208q5.358-5.486,10.777-10.915,27.858-27.84,55.73-55.665a12.666,12.666,0,0,1,12.822-3.7C-254.922,79.76-248,81.4-241.12,83.123c5.913,1.485,11.809,3.051,17.714,4.522a1.73,1.73,0,0,0,1.329-.5c3.387-3.327,6.716-6.718,10.11-10.037a34.855,34.855,0,0,1,2.962-2.345Zm-22.68,19.848a9.475,9.475,0,0,0-.9-.336q-16.709-4.132-33.42-8.261a4.851,4.851,0,0,0-4.95,1.493q-32.66,32.657-65.337,65.29a4.254,4.254,0,0,0-1.8,3.486,4.254,4.254,0,0,0,1.82,3.474q22.622,22.627,45.25,45.25a4.283,4.283,0,0,0,3.523,1.866,4.283,4.283,0,0,0,3.534-1.845q32.537-32.576,65.085-65.142a5.3,5.3,0,0,0,1.511-5.564c-2.209-8.7-4.306-17.417-6.453-26.126-.625-2.535-1.274-5.062-1.959-7.779-3.238,3.235-6.317,6.286-9.337,9.394a1.66,1.66,0,0,0-.109,1.407,12.3,12.3,0,0,1-1.9,12.006,12.3,12.3,0,0,1-11.287,4.51,12.3,12.3,0,0,1-8.422-5.071,12.3,12.3,0,0,1-2.019-9.621,12.215,12.215,0,0,1,5.676-8.029,12.215,12.215,0,0,1,9.754-1.245,3.011,3.011,0,0,0,3.665-1.026c2.6-2.756,5.325-5.385,8.07-8.13Zm-11.019,20.893a4.077,4.077,0,0,0-1.235-2.875,4.077,4.077,0,0,0-2.909-1.152,4.132,4.132,0,0,0-4.014,4.04,4.147,4.147,0,0,0,4.1,4.119,4.124,4.124,0,0,0,4.061-4.132Z" transform="translate(344.085 -74.745)" fill="#262626"/>
    <path id="Path_102691" data-name="Path 102691" d="M-247.109,297.178c-2.959.2-4.983-1.3-5.187-3.48a4.168,4.168,0,0,1,.96-3.255,4.168,4.168,0,0,1,3.063-1.463q16.99-1.883,33.978-3.79c5.843-.651,11.686-1.318,17.535-1.938a4.241,4.241,0,0,1,3.311.775,4.241,4.241,0,0,1,1.677,2.958,4.2,4.2,0,0,1-1.064,3.078,4.2,4.2,0,0,1-2.945,1.39c-1.219.167-2.441.328-3.663.464q-17.193,1.917-34.387,3.824C-238.408,296.256-242.988,296.733-247.109,297.178Z" transform="translate(283.801 -211.67)" fill="#262626"/>
    <path id="Path_102692" data-name="Path 102692" d="M-208.531,220.759a12.283,12.283,0,0,1,3.61-8.737,12.283,12.283,0,0,1,8.748-3.584,12.429,12.429,0,0,1,12.319,12.28,12.5,12.5,0,0,1-12.345,12.4A12.379,12.379,0,0,1-208.531,220.759Zm12.345-4.017a3.975,3.975,0,0,0-2.9,1.139,3.975,3.975,0,0,0-1.188,2.886,3.986,3.986,0,0,0,1.133,2.836,3.986,3.986,0,0,0,2.808,1.2,3.981,3.981,0,0,0,2.929-1.09,3.98,3.98,0,0,0,1.239-2.869,3.973,3.973,0,0,0-1.132-2.91,3.973,3.973,0,0,0-2.885-1.193Z" transform="translate(255.047 -162.547)" fill="#262626"/>
    <path id="Path_102693" data-name="Path 102693" d="M-179.237,327.063a12.376,12.376,0,0,1,12.3,12.285,12.423,12.423,0,0,1-12.371,12.366,12.358,12.358,0,0,1-12.272-12.439A12.3,12.3,0,0,1-179.237,327.063Zm-4.129,12.244a4.2,4.2,0,0,0,4.022,4.168,4.215,4.215,0,0,0,4.168-4.043,4.2,4.2,0,0,0-4.033-4.168,4.168,4.168,0,0,0-4.155,4.048Z" transform="translate(243.916 -240.453)" fill="#262626"/>
  </g>
</svg>
