<svg xmlns="http://www.w3.org/2000/svg" width="180.863" height="134.305" viewBox="0 0 180.863 134.305">
  <g id="Group_15398" data-name="Group 15398" opacity="0.03">
    <path id="Path_102682" data-name="Path 102682" d="M175.864,344.663a4.812,4.812,0,0,1-4.809,2.5q-85.649-.065-171.3-.034H-.949c-2.451-.044-4.007-1.391-4.03-3.491a3.553,3.553,0,0,1,1.18-2.668,3.553,3.553,0,0,1,2.78-.885c3.238-.026,6.476,0,9.712,0H21.57A22.1,22.1,0,0,1,16.19,325.94c-3.561,0-7.073.055-10.582-.013a10.066,10.066,0,0,1-9.469-5.947,10.887,10.887,0,0,1-1.084-4.567q-.091-46-.029-92.005a10.5,10.5,0,0,1,11.144-10.5q44.236-.013,88.473,0c3.884,0,7.771-.018,11.655,0a10.553,10.553,0,0,1,10.913,10.907c.029,7.417,0,14.833,0,22.25v2.165h1.967c9.006,0,18.014.026,27.02,0a10.553,10.553,0,0,1,10.227,6.2q9.6,19.236,19.158,38.492c.042.083.182.117.276.175v24.373a12.1,12.1,0,0,1-6.567,7.747c-.3.128-.477.852-.49,1.3a19.056,19.056,0,0,1-2.345,8.907c-.86,1.534-1.824,3.014-2.811,4.655,2.605,0,5.025.1,7.419-.031a4.608,4.608,0,0,1,4.788,2.5Zm-65.7-25.79V224.593c0-3.321-1.365-4.637-4.778-4.637H7.023c-3.728,0-4.95,1.237-4.95,4.989v65.673c3.512,0,6.744-.013,9.98,0a3.647,3.647,0,0,1,4.132,4.093c.021,4.061,0,8.123,0,12.186,0,3.853-1.058,4.9-4.929,4.905H2.063v1.99c0,3.882,1.188,5.085,5.036,5.088,2.884,0,5.773-.07,8.651.034a2.149,2.149,0,0,0,2.324-1.54,20.262,20.262,0,0,1,19.233-12.536,20.285,20.285,0,0,1,19.4,12.536,2.2,2.2,0,0,0,2.331,1.534c11.183-.052,22.37-.031,33.553-.031Zm7.12,0c2.972,0,5.791-.081,8.6.034a2.251,2.251,0,0,0,2.444-1.649,21.124,21.124,0,0,1,36.658-3.345c.9,1.253,1.6,2.652,2.717,4.517a25.588,25.588,0,0,0,1.042-3.355,19.255,19.255,0,0,0,.039-3c0-4.749,0-9.5,0-14.416H128.572c-3,0-4.293-1.287-4.3-4.283q-.016-13.327,0-26.655c0-3.126,1.248-4.363,4.392-4.369h23.724c-.735-1.5-1.417-2.707-1.938-3.986a4.689,4.689,0,0,0-4.95-3.126c-8.826.081-17.652.029-26.478.034-.568,0-1.136.052-1.764.081ZM53.294,339.935h78.412a21.679,21.679,0,0,1-5.333-13.914H58.606a21.575,21.575,0,0,1-5.312,13.914Zm78.089-49.462h34.908a1.563,1.563,0,0,0-.029-.461c-3.269-6.565-6.513-13.14-9.871-19.668a2.345,2.345,0,0,0-1.777-.891c-7.294-.06-14.588-.042-21.882-.034-.445,0-.888.086-1.352.133ZM37.455,311.834a14.117,14.117,0,1,0,14.05,14.183,14.117,14.117,0,0,0-14.05-14.183Zm96.033,13.872a13.579,13.579,0,1,0,0-.01ZM9.065,297.767H2.17v6.859h6.9Z" transform="translate(4.999 -212.892)" fill="#262626"/>
    <path id="Path_102683" data-name="Path 102683" d="M132.859,267.879H110.992a3.217,3.217,0,0,1-3.551-2.282,4.616,4.616,0,0,1,.685-3.517,4.689,4.689,0,0,1,3.267-1.206c10.522-.089,21.044-.052,31.565-.052,3.879,0,7.76-.013,11.639,0a3.592,3.592,0,0,1,4.056,3.459c.049,2.139-1.563,3.577-4.1,3.582Q143.7,267.894,132.859,267.879Z" transform="translate(-57.641 -239.615)" fill="#262626"/>
    <path id="Path_102684" data-name="Path 102684" d="M157.45,292.754H171.9c2.683,0,4.3,1.386,4.267,3.6-.034,2.123-1.633,3.444-4.236,3.446q-14.453.013-28.916,0c-2.691,0-4.306-1.383-4.259-3.595.044-2.147,1.615-3.444,4.228-3.452C147.814,292.744,152.633,292.754,157.45,292.754Z" transform="translate(-75.16 -257.413)" fill="#262626"/>
    <path id="Path_102685" data-name="Path 102685" d="M78.356,267.871a3.512,3.512,0,1,1,3.553-3.387,3.512,3.512,0,0,1-3.553,3.387Z" transform="translate(-39.538 -239.623)" fill="#262626"/>
    <path id="Path_102686" data-name="Path 102686" d="M74.865,459.4a7.016,7.016,0,1,1,1.982,5.03,7.054,7.054,0,0,1-1.982-5.03Z" transform="translate(-39.531 -346.46)" fill="#262626"/>
    <path id="Path_102687" data-name="Path 102687" d="M331.045,466.562a7.034,7.034,0,1,1,4.986-2.073A7.054,7.054,0,0,1,331.045,466.562Z" transform="translate(-178.434 -346.459)" fill="#262626"/>
  </g>
</svg>
