<svg xmlns="http://www.w3.org/2000/svg" width="139.145" height="108.692" viewBox="0 0 139.145 108.692"><defs><style>.a{opacity:0.7;}.b{fill:#fdfdfd;}</style></defs><g class="a" transform="translate(-884.855 -5122.501)"><path class="b" d="M896.576,5134.162v63.716c4.946.848,4.992.828,7.411-2.942q9.3-14.493,18.6-28.983c.428-.666.882-1.315,1.485-2.211.6.875,1.108,1.566,1.57,2.285,6.074,9.454,12.366,18.779,18.1,28.436,2.174,3.663,4.715,4.272,8.691,3.406-1.48-2.319-2.887-4.524-4.3-6.728-1.742-2.724-3.519-5.427-5.2-8.187-.322-.529-.605-1.476-.353-1.9,1.982-3.3,4.1-6.527,6.354-10.055,2.993,4.654,5.779,8.981,8.561,13.311,2.448,3.809,5,7.554,7.287,11.459,1.078,1.845,2.28,2.722,4.427,2.428a32.363,32.363,0,0,1,4.113-.031v24.205H989.41v6.054h-2.652q-47.694,0-95.387,0c-4.912,0-6.516-1.621-6.516-6.564q0-46.359,0-92.717c0-5.1,1.556-6.644,6.674-6.644H997.353c5.29,0,6.8,1.513,6.8,6.759q0,24.271,0,48.543v2.611H992.5v-46.253Z"/><path class="b" d="M1007.965,5203.934H1024v11.256h-15.93v16H996.713V5215.28H980.651v-11.326h16v-16.089h11.314Z"/><path class="b" d="M983.945,5155.386a10.25,10.25,0,1,1-10.224-10.119A10.3,10.3,0,0,1,983.945,5155.386Z"/></g></svg>