<svg xmlns="http://www.w3.org/2000/svg" width="23.294" height="26.937" viewBox="0 0 23.294 26.937"><defs><style>.a{fill:#404040;}</style></defs><path class="a" d="M1634.688,570.041h-16.317a1.523,1.523,0,0,0-.161-.024,3.139,3.139,0,0,1-1.245-.295,3.583,3.583,0,0,1-2.129-3.39c-.017-3.493,0-6.987,0-10.48a5.449,5.449,0,0,1,.073-.846,3.605,3.605,0,0,1,2.707-2.826,7.206,7.206,0,0,1,1.544-.1h.178c.026-.573.063-1.126.073-1.679a8.073,8.073,0,0,1,.5-2.709,6.793,6.793,0,0,1,5.93-4.539,7.177,7.177,0,0,1,7.906,6.7c.037.68.022,1.363.031,2.045,0,.058,0,.115,0,.182.17,0,.321-.006.471,0a5.643,5.643,0,0,1,.82.056,3.586,3.586,0,0,1,2.927,2.671,6.047,6.047,0,0,1,.123.67v11.128c-.017.112-.035.223-.051.335a3.611,3.611,0,0,1-2.633,2.962C1635.193,569.968,1634.939,570,1634.688,570.041Zm-8.226-16.031q-3.948,0-7.9,0a2.107,2.107,0,0,0-.409.028,1.684,1.684,0,0,0-1.4,1.715q-.005,5.323,0,10.647a1.605,1.605,0,0,0,.209.814,1.769,1.769,0,0,0,1.66.9q7.89,0,15.78,0a1.986,1.986,0,0,0,.591-.1,1.746,1.746,0,0,0,1.205-1.676c0-1.365,0-2.729,0-4.094,0-2.166.008-4.332-.005-6.5a1.66,1.66,0,0,0-.951-1.565,1.922,1.922,0,0,0-.893-.174Zm-5.149-1.94h.1q5.141,0,10.283,0c.137,0,.159-.051.158-.167q0-.7,0-1.4a5.652,5.652,0,0,0-.143-1.374,5.049,5.049,0,0,0-2.539-3.441,5.453,5.453,0,0,0-3.627-.547,5.032,5.032,0,0,0-4.026,3.78,9.353,9.353,0,0,0-.211,1.862C1621.3,551.206,1621.313,551.627,1621.313,552.07Z" transform="translate(-1614.828 -543.103)"/><path class="a" d="M1971.947,1069.573c0-.7,0-1.391,0-2.086a.351.351,0,0,0-.154-.313,1.859,1.859,0,0,1-.2-2.788,1.922,1.922,0,0,1,2.022-.4,1.839,1.839,0,0,1,1.139,1.723,1.765,1.765,0,0,1-.742,1.472.327.327,0,0,0-.142.29c0,.87,0,1.739,0,2.609a.982.982,0,0,1-.537.932.948.948,0,0,1-1.37-.783c.009-.219,0-.439,0-.659Z" transform="translate(-1961.261 -1049.534)"/></svg>