<svg xmlns="http://www.w3.org/2000/svg" xmlns:xlink="http://www.w3.org/1999/xlink" width="24" height="24"><defs><path id="a" d="M0 .053h15.672v15.671H0z"/></defs><g fill="none" fill-rule="evenodd" transform="translate(4 4.223)"><mask id="b" fill="#fff"><use xlink:href="#a"/></mask><path fill="#FFF" d="M8.29.233l.076.08.447.537c.257.318.767.457 1.17.323l.106-.043.627-.291c.392-.176.785-.018.93.35l.032.097.157.672c.102.4.496.744.915.798l.114.008h.705c.424.01.714.316.677.715l-.016.102-.146.649c-.103.41.115.886.47 1.11l.1.054.627.302c.383.186.498.591.285.926l-.06.081-.426.538c-.252.322-.277.826-.075 1.184l.075.114.425.526c.27.33.204.737-.134.957l-.09.05-.626.302c-.38.185-.637.642-.591 1.053l.02.111.146.672a.638.638 0 01-.558.8l-.103.006-.705.011c-.42 0-.84.291-.994.685l-.035.11-.157.66c-.103.403-.473.615-.864.487l-.098-.04-.627-.29a1.135 1.135 0 00-1.193.199l-.083.092-.447.525c-.267.329-.684.356-.976.083l-.076-.083-.448-.525c-.254-.326-.758-.457-1.167-.336l-.12.044-.627.292c-.382.185-.783.019-.922-.351l-.029-.097-.157-.66c-.102-.41-.496-.736-.915-.788l-.114-.007-.716-.011c-.414 0-.703-.315-.666-.707l.017-.1.145-.67c.102-.4-.114-.876-.47-1.108l-.1-.057-.627-.302C.015 9.886-.11 9.491.103 9.15l.06-.084.436-.526c.252-.323.277-.826.076-1.185l-.076-.113-.436-.538c-.269-.32-.194-.735.144-.956l.09-.051.628-.302c.38-.175.636-.63.59-1.05l-.02-.114-.145-.65a.642.642 0 01.548-.808l.1-.008h.717c.42 0 .841-.31.994-.698l.035-.108.157-.672c.093-.403.472-.605.856-.484l.095.037.627.29c.39.185.911.088 1.211-.197L6.866.85l.448-.537c.266-.318.683-.345.975-.08zm2.659 9.392a1.286 1.286 0 00-1.799 0 1.238 1.238 0 000 1.759c.5.48 1.31.48 1.799 0 .5-.49.5-1.27 0-1.759zM9.18 4.358l-.06.082-4.026 6.135c-.23.35-.12.809.23 1.029a.787.787 0 00.992-.132l.067-.088 4.025-6.155a.726.726 0 00-.24-1.019.758.758 0 00-.988.148zM4.715 4.4c-.49.48-.49 1.26 0 1.749.5.48 1.3.48 1.789 0 .5-.49.5-1.27 0-1.749-.49-.49-1.29-.49-1.789 0z" mask="url(#b)"/></g></svg>