<svg xmlns="http://www.w3.org/2000/svg" xmlns:xlink="http://www.w3.org/1999/xlink" width="42" height="42" viewBox="0 0 42 42">
  <defs>
    <radialGradient id="radial-gradient" cx="0.5" cy="0.5" r="0.871" gradientTransform="translate(0 -0.019) scale(1 1.037)" gradientUnits="objectBoundingBox">
      <stop offset="0" stop-color="#ffb9fb"/>
      <stop offset="1" stop-color="#c501b7"/>
    </radialGradient>
    <filter id="Rectangle_12365" x="13.54" y="5.348" width="26.591" height="28.572" filterUnits="userSpaceOnUse">
      <feOffset dy="3" input="SourceAlpha"/>
      <feGaussianBlur stdDeviation="3" result="blur"/>
      <feFlood flood-opacity="0.09"/>
      <feComposite operator="in" in2="blur"/>
      <feComposite in="SourceGraphic"/>
    </filter>
  </defs>
  <g id="Group_38586" data-name="Group 38586" transform="translate(4687.551 3131)">
    <circle id="Ellipse_1062" data-name="Ellipse 1062" cx="21" cy="21" r="21" transform="translate(-4687.551 -3131)" fill="url(#radial-gradient)"/>
    <g id="Group_33002" data-name="Group 33002" transform="translate(-5978.1 -3321.5)">
      <g id="Rectangle_12366" data-name="Rectangle 12366" transform="translate(1309.494 202.714) rotate(180)">
        <path id="Path_98796" data-name="Path 98796" d="M0,0H4.747V3.214a.5.5,0,0,1-.5.5H.5a.5.5,0,0,1-.5-.5Z" fill="none"/>
        <path id="Path_98797" data-name="Path 98797" d="M1,.5H3.747a.5.5,0,0,1,.5.5V3.214H.5V1A.5.5,0,0,1,1,.5Z" fill="none" stroke="#fff" stroke-width="1"/>
      </g>
      <g transform="matrix(1, 0, 0, 1, 1290.55, 190.5)" filter="url(#Rectangle_12365)">
        <path id="Rectangle_12365-2" data-name="Rectangle 12365" d="M0,0H8.591V9.572a1,1,0,0,1-1,1H1a1,1,0,0,1-1-1Z" transform="translate(31.13 21.92) rotate(180)" fill="#fff"/>
      </g>
      <circle id="Ellipse_1519" data-name="Ellipse 1519" cx="0.791" cy="0.791" r="0.791" transform="translate(1314.557 203.747)" fill="#f0e"/>
      <circle id="Ellipse_1520" data-name="Ellipse 1520" cx="0.791" cy="0.791" r="0.791" transform="translate(1314.557 206.278)" fill="#f0e"/>
      <circle id="Ellipse_1521" data-name="Ellipse 1521" cx="0.791" cy="0.791" r="0.791" transform="translate(1314.557 208.81)" fill="#f0e"/>
      <circle id="Ellipse_1522" data-name="Ellipse 1522" cx="0.791" cy="0.791" r="0.791" transform="translate(1318.354 203.747)" fill="#f0e"/>
      <circle id="Ellipse_1523" data-name="Ellipse 1523" cx="0.791" cy="0.791" r="0.791" transform="translate(1318.354 206.278)" fill="#f0e"/>
      <circle id="Ellipse_1524" data-name="Ellipse 1524" cx="0.791" cy="0.791" r="0.791" transform="translate(1318.354 208.81)" fill="#f0e"/>
      <g id="Path_98781" data-name="Path 98781" transform="translate(1312.34 212.42) rotate(180)">
        <path id="Path_98798" data-name="Path 98798" d="M8.443,10.071H2a1.5,1.5,0,0,1-1.5-1.5V.5H9.943V8.572A1.5,1.5,0,0,1,8.443,10.071Z" fill="#fff"/>
        <path id="Path_98799" data-name="Path 98799" d="M1,1V8.572a1,1,0,0,0,1,1H8.443a1,1,0,0,0,1-1V1H1M0,0H10.443V8.572a2,2,0,0,1-2,2H2a2,2,0,0,1-2-2Z" fill="#fff"/>
      </g>
      <g id="Group_33001" data-name="Group 33001" transform="translate(1300 211.658)">
        <g id="Rectangle_12363" data-name="Rectangle 12363">
          <path id="Path_98800" data-name="Path 98800" d="M0,0H23.1V9.342a3,3,0,0,1-3,3H3a3,3,0,0,1-3-3Z" fill="none"/>
          <path id="Path_98801" data-name="Path 98801" d="M1,.5H22.1a.5.5,0,0,1,.5.5V9.342a2.5,2.5,0,0,1-2.5,2.5H3a2.5,2.5,0,0,1-2.5-2.5V1A.5.5,0,0,1,1,.5Z" fill="none" stroke="#fff" stroke-width="1"/>
        </g>
        <path id="Path_91532" data-name="Path 91532" d="M134.585,167.418a.366.366,0,0,1-.366-.366v-1.673H132.44v1.673a.366.366,0,0,1-.366.366H130.4v1.776h1.673a.366.366,0,0,1,.366.366v1.673h1.776V169.56a.366.366,0,0,1,.366-.366h1.677v-1.776Z" transform="translate(-121.462 -161.744)" fill="none" stroke="#fff" stroke-width="1"/>
      </g>
    </g>
  </g>
</svg>
