<svg xmlns="http://www.w3.org/2000/svg" width="214.62" height="160.208" viewBox="0 0 214.62 160.208"><defs><style>.a{fill:#6159ff;}.b{fill:#20f;}.c{fill:#1300b8;}.d{fill:#5d7280;}.e{fill:#3b4951;}.f{fill:#2c353b;}</style></defs><g transform="translate(12863.95 -9433.486)"><g transform="translate(-14335.81 8790.46)"><path class="a" d="M1028.67,655.89c-.08,8-2.89,13.49-7.39,16.15L857.07,767.48a6.321,6.321,0,0,0,1-.65,11.318,11.318,0,0,0,2.65-2.57,11.6,11.6,0,0,0,1.45-2.33,11,11,0,0,0,1-2.25,1.14,1.14,0,0,0,.16-.48,6.763,6.763,0,0,0,.4-1.36,11.068,11.068,0,0,0,.48-2.33c0-.08.08-.25,0-.33a19.739,19.739,0,0,0,.32-3.85c0-16-11.24-35.43-25.14-43.46a23.421,23.421,0,0,0-11.41-3.46,11,11,0,0,0-2.89.32,12.3,12.3,0,0,0-2.49.81c-.16.08-.24.08-.32.24a1.45,1.45,0,0,0-.81.32l164.21-95.44c4.58-2.65,10.93-2.25,17.92,1.76C1017.43,620.46,1028.67,639.9,1028.67,655.89Z" transform="translate(657.81 34.05)"/><path class="b" d="M864.46,751.33a19.739,19.739,0,0,1-.32,3.85c.08.08,0,.25,0,.33a11.069,11.069,0,0,1-.48,2.33,6.759,6.759,0,0,1-.4,1.36,1.14,1.14,0,0,1-.16.48,11.008,11.008,0,0,1-1,2.25,11.6,11.6,0,0,1-1.45,2.33,11.321,11.321,0,0,1-2.65,2.57c-4.66,3.38-11.41,3.22-18.88-1.12-13.9-8-25.15-27.48-25.07-43.46,0-8.44,3.14-14.14,8.12-16.47.08-.16.16-.16.32-.24a12.292,12.292,0,0,1,2.49-.81,11.864,11.864,0,0,1,2.89-.32,23.42,23.42,0,0,1,11.41,3.46C853.22,715.9,864.46,735.34,864.46,751.33Z" transform="translate(657.81 34.05)"/></g><path class="c" d="M839.28,761.93c-12-6.93-21.77-23.85-21.77-37.71s9.76-19.5,21.77-12.57,21.77,23.85,21.77,37.71S851.28,768.86,839.28,761.93Zm0-48.54c-11.18-6.45-20.26-1.2-20.26,11.7s9.08,28.64,20.26,35.09,20.26,1.21,20.26-11.69S850.45,719.84,839.28,713.39Z" transform="translate(-13678 8824.51)"/><path class="c" d="M839.28,755c-8.67-5-15.73-17.23-15.73-27.24s7.06-14.09,15.73-9.08S855,735.85,855,745.87,848,760,839.28,755Zm0-34.58c-7.84-4.52-14.22-.84-14.22,8.21s6.38,20.1,14.22,24.63,14.22.84,14.22-8.21-6.38-20.15-14.22-24.68Z" transform="translate(-13678 8824.51)"/><path class="c" d="M839.28,748c-5.34-3.08-9.69-10.61-9.69-16.77s4.35-8.68,9.69-5.59,9.68,10.6,9.68,16.77S844.62,751.05,839.28,748Zm0-20.62c-4.51-2.6-8.18-.48-8.18,4.72s3.67,11.55,8.18,14.16,8.17.48,8.17-4.72-3.67-11.54-8.17-14.19Z" transform="translate(-13678 8824.51)"/><path class="c" d="M839.28,741a8,8,0,0,1-3.64-6.3c0-2.32,1.63-3.26,3.64-2.1a8.05,8.05,0,0,1,3.64,6.3C842.92,741.21,841.28,742.15,839.28,741Zm0-6.66c-1.18-.68-2.13-.13-2.13,1.23a4.7,4.7,0,0,0,2.13,3.69c1.17.68,2.13.13,2.13-1.23a4.73,4.73,0,0,0-2.13-3.7Z" transform="translate(-13678 8824.51)"/><path class="d" d="M996.74,674.47c-.08,7.95-2.89,13.5-7.39,16.15l-10.85,6.27c4.5-2.66,7.31-8.2,7.39-16.15,0-16-11.24-35.43-25.14-43.47-6.83-3.93-13.1-4.41-17.6-1.92l10.53-6.11c4.58-2.65,10.92-2.25,17.91,1.77C985.49,639,996.74,658.48,996.74,674.47Z" transform="translate(-13678 8824.51)"/><path class="d" d="M914.64,722.14c-.08,8-2.9,13.5-7.4,16.15l-10.84,6.27c4.5-2.66,7.31-8.2,7.39-16.15,0-16-11.25-35.43-25.15-43.47-6.82-3.93-13.09-4.41-17.59-1.92l10.52-6.11c4.58-2.65,10.93-2.25,17.92,1.77C903.39,686.71,914.64,706.15,914.64,722.14Z" transform="translate(-13678 8824.51)"/><g transform="translate(-14335.81 8790.46)"><path class="e" d="M956.75,630.23l4.69,2.73a2.22,2.22,0,0,1,1.15,2l-4.69-2.72a2.23,2.23,0,0,0-1.15-2.01Z" transform="translate(657.81 34.05)"/><path class="d" d="M960.64,627.34l4.69,2.73c-4.92-2.86-22,2.82-42.26,14.5l-4.69-2.72C938.63,630.16,955.72,624.48,960.64,627.34Z" transform="translate(657.81 34.05)"/><path class="f" d="M923.07,644.57c24.06-13.88,43.67-19.29,43.69-12l-4.17,2.4c0-6.25-17.71-1.07-39.51,11.52s-39.51,27.84-39.49,34.09L879.43,683C879.4,675.7,898.94,658.51,923.07,644.57Z" transform="translate(657.81 34.05)"/><path class="d" d="M879.43,683l-4.7-2.73c0-7.32,19.51-24.52,43.65-38.45l4.69,2.72C898.94,658.51,879.4,675.7,879.43,683Z" transform="translate(657.81 34.05)"/></g></g></svg>