<svg xmlns="http://www.w3.org/2000/svg" xmlns:xlink="http://www.w3.org/1999/xlink" width="162.687" height="224.9" viewBox="0 0 162.687 224.9">
  <defs>
    <clipPath id="clip-path">
      <path id="Path_92226" data-name="Path 92226" d="M230.043,87.835s27.5,24,39.1,48.65,0,34.8,29,54.375-5.8,90.624-73.223,81.924-77.575-42.775-79.025-63.8,7.788-39.493,19.576-58.724C179.24,127.785,195.968,84.934,230.043,87.835Z" transform="translate(-145.741 -87.695)" fill="none"/>
    </clipPath>
  </defs>
  <g id="Group_35252" data-name="Group 35252" transform="translate(-145.74 -87.694)">
    <g id="Group_33369" data-name="Group 33369" transform="translate(145.741 87.695)">
      <g id="Group_33368" data-name="Group 33368">
        <path id="Path_92269" data-name="Path 92269" d="M125.847,209.3,120.7,261.616H73.553V209.3l6.463-3.66h32.158Z" transform="translate(-35.468 -36.716)" fill="#837d54"/>
        <path id="Path_92268" data-name="Path 92268" d="M126.083,208.794l-5.142,45.091H76.847l-1.552-45.091,4.965-3.154h32.151Z" transform="translate(-10.613 -28.985)" fill="#a69f73"/>
        <g id="Group_33367" data-name="Group 33367" clip-path="url(#clip-path)">
          <g id="Group_33366" data-name="Group 33366" transform="translate(16.206 7.272)">
            <path id="Path_92190" data-name="Path 92190" d="M167.425,171.854s-11.418,26.4-2.5,47.1c7.493,12.488,52.451-17.126,45.671-41.389-3.925-9.634-12.132-8.207-17.484-1.784s-8.564,17.84-12.846,20.694,4.282-21.051,2.5-25.333S171.35,165.431,167.425,171.854Z" transform="translate(-161.521 -92.813)" fill="#a7b8d5"/>
            <path id="Path_92191" data-name="Path 92191" d="M241.015,153.441s13.321,5.047,19.506,21.7,7.611,75.916,2.379,91.561-59.468,15.141-76.594,4.038c-14.272-11.608.951-37.055,3.33-57.748s2.38-38.357,10.943-44.918S241.015,153.441,241.015,153.441Z" transform="translate(-161.015 -93.192)" fill="#c7d9ec"/>
            <path id="Path_92192" data-name="Path 92192" d="M209.76,178.759s-6.065,41.746-3.211,44.6,12.846,3.925,16.056.356c.357-8.919,1.784-44.958,1.784-47.1S209.76,178.759,209.76,178.759Z" transform="translate(-160.326 -92.583)" fill="#24adb2"/>
            <g id="Group_33358" data-name="Group 33358" transform="translate(36.219 48.203)">
              <path id="Path_92193" data-name="Path 92193" d="M199.349,175.406s10.7,14.986,29.5,6.66,15.461-29.02,12.606-31.637C238.836,156.615,233.6,178.974,199.349,175.406Z" transform="translate(-196.719 -141.477)" fill="#2493b2"/>
              <path id="Path_92194" data-name="Path 92194" d="M197.159,168.268s-3.211,8.563,9.277,12.845,31.042-5,34.967-15.7,2.14-21.408-5.709-23.549S199.3,160.775,197.159,168.268Z" transform="translate(-196.788 -141.712)" fill="#24adb2"/>
            </g>
            <path id="Path_92195" data-name="Path 92195" d="M202.707,166.636s22.836,10.7,33.183-16.413C227.327,144.515,202.707,166.636,202.707,166.636Z" transform="translate(-160.409 -93.304)" fill="#fb8585"/>
            <g id="Group_33364" data-name="Group 33364" transform="translate(29.481)">
              <g id="Group_33359" data-name="Group 33359" transform="translate(2.197 9.591)">
                <path id="Path_92196" data-name="Path 92196" d="M194.079,121.625s-4.587,28.35,1.251,43.36c4.586,6.67,25.015.834,35.021-10.006s12.925-29.185,8.338-40.442-25.849-11.674-32.52-9.172S194.5,117.039,194.079,121.625Z" transform="translate(-192.366 -104.115)" fill="#fba894"/>
              </g>
              <g id="Group_33361" data-name="Group 33361" transform="translate(2.198 32.183)">
                <path id="Path_92197" data-name="Path 92197" d="M215.941,136.823a3.906,3.906,0,1,1-3.906-3.906A3.906,3.906,0,0,1,215.941,136.823Z" transform="translate(-191.942 -125.93)" fill="#ea8d83"/>
                <path id="Path_92198" data-name="Path 92198" d="M201.786,135.471a3.906,3.906,0,1,1-3.907-3.906A3.906,3.906,0,0,1,201.786,135.471Z" transform="translate(-192.324 -125.966)" fill="#ea8d83"/>
                <path id="Path_92199" data-name="Path 92199" d="M216.925,144.713a2.74,2.74,0,1,1-2.733-2.554A2.649,2.649,0,0,1,216.925,144.713Z" transform="translate(-191.852 -125.68)" fill="#fb8585"/>
                <path id="Path_92200" data-name="Path 92200" d="M192.391,142.159l-.021,0c-.01,1.684.013,3.393.084,5.1a2.556,2.556,0,1,0-.064-5.1Z" transform="translate(-192.368 -125.68)" fill="#fb8585"/>
                <path id="Path_92201" data-name="Path 92201" d="M210.332,127.336A4.993,4.993,0,0,0,215.654,129c1.415-.218,1.089,1.961-1.2,2.4s-5.227,0-5.663-2.177S209.677,126.4,210.332,127.336Z" transform="translate(-191.927 -126.092)" fill="#505e83"/>
                <path id="Path_92202" data-name="Path 92202" d="M199.625,126.575a4.994,4.994,0,0,1-5.215,1.97c-1.426-.135-.973,2.021,1.336,2.321s5.218-.307,5.525-2.506S200.223,125.6,199.625,126.575Z" transform="translate(-192.335 -126.113)" fill="#505e83"/>
                <path id="Path_92203" data-name="Path 92203" d="M202.6,138.76s-4.036,5.981-3.737,8.822,4.037.149,4.037.149,2.392,1.794,2.841.6-2.243-3.887-2.243-3.887S206.041,136.817,202.6,138.76Z" transform="translate(-192.193 -125.78)" fill="#fb6d71"/>
                <g id="Group_33360" data-name="Group 33360" transform="translate(7.792 26.101)">
                  <path id="Path_92204" data-name="Path 92204" d="M201.08,151.881a4.222,4.222,0,0,1,5.554,2.124c1.961,3.757-1.8,6.86-5.39,5.553-2.45-1.306-.654-2.777-.654-4.41S200.1,152.7,201.08,151.881Z" transform="translate(-199.955 -151.528)" fill="#b34c69"/>
                  <path id="Path_92205" data-name="Path 92205" d="M205.393,152.434a4.332,4.332,0,0,0-4.335-.553,2,2,0,0,0-.3.311A3.055,3.055,0,0,0,205.393,152.434Z" transform="translate(-199.933 -151.528)" fill="#fff"/>
                  <path id="Path_92206" data-name="Path 92206" d="M203.529,157.6a5.282,5.282,0,0,0-3.521.531,2.195,2.195,0,0,0,1.234,1.265,4.649,4.649,0,0,0,4.672-.792A4.74,4.74,0,0,0,203.529,157.6Z" transform="translate(-199.953 -151.366)" fill="#fff"/>
                </g>
                <path id="Path_92207" data-name="Path 92207" d="M201.607,161.262a4.088,4.088,0,0,0,3.267-.245C205.69,161.426,202.832,163.631,201.607,161.262Z" transform="translate(-192.118 -125.171)" fill="#fb6d71"/>
              </g>
              <path id="Path_92208" data-name="Path 92208" d="M208.772,137.188a9.7,9.7,0,0,1,5.554.98c1.388,0-.327-1.552-2.124-1.878s-2.94-.163-3.511.327S208.772,137.188,208.772,137.188Z" transform="translate(-189.735 -93.66)" fill="#505e83"/>
              <path id="Path_92209" data-name="Path 92209" d="M200.67,135.954a9.7,9.7,0,0,0-5.628-.358c-1.349-.328.683-1.431,2.507-1.324s2.9.535,3.335,1.146S200.67,135.954,200.67,135.954Z" transform="translate(-190.109 -93.71)" fill="#505e83"/>
              <path id="Path_92210" data-name="Path 92210" d="M192.2,111.434s-2.94,1.144-1.634,5.391,4.411,4.738,8.494,3.43,5.881,3.757,10.454,3.267,8.493-2.45,11.434-.653,1.8,6.534,8.494,7.35c3.43,1.634,3.1,5.227,2.777,8.168a65.161,65.161,0,0,1-2.287,9.636,2.219,2.219,0,0,0,2.777.163c.816-.49,2.123-6.7,4.247-7.84s4.738-1.143,5.717-1.8,1.96-8.331,3.267-9.147a8.558,8.558,0,0,0,3.1-7.187c-.327-3.267-1.961-2.614-2.45-6.534s-.653-6.86-2.614-8.658-3.92-3.267-7.024-2.777-5.063-4.41-9.637-7.024-10.78-3.43-13.231-.98-5.88-.653-9.8.49-2.94,5.227-4.9,5.881-5.064,1.47-5.881,4.083S192.2,111.434,192.2,111.434Z" transform="translate(-190.227 -94.776)" fill="#505e83"/>
              <g id="Group_33363" data-name="Group 33363" transform="translate(42.279 42.531)">
                <path id="Path_92211" data-name="Path 92211" d="M233.937,140.743s7.893-8.61,11.122-2.153-13.275,15.785-13.633,11.121S233.937,140.743,233.937,140.743Z" transform="translate(-231.395 -136.188)" fill="#fba894"/>
                <g id="Group_33362" data-name="Group 33362" transform="translate(2.542 3.294)">
                  <path id="Path_92212" data-name="Path 92212" d="M236.36,142.379s2.624-1.532,3.27.129c1.357,3.483-5.808,7.614-5.76,5.156A8.229,8.229,0,0,1,236.36,142.379Z" transform="translate(-233.87 -139.333)" fill="#fb8585"/>
                  <path id="Path_92213" data-name="Path 92213" d="M233.877,147.066s1.711-6.8,5.708-7.566c3.223-.667,3.757,2.064,3.187,2.855s-1.044-.029-1.05-.792-1.281-2.057-3.427-.025a12.078,12.078,0,0,0-3.475,5.21C234.6,147.771,234.122,147.809,233.877,147.066Z" transform="translate(-233.87 -139.396)" fill="#fb8585"/>
                </g>
              </g>
            </g>
            <path id="Path_92214" data-name="Path 92214" d="M187.536,203.7" transform="translate(-160.819 -91.836)" fill="#24adb2"/>
            <g id="Group_33365" data-name="Group 33365" transform="translate(26.758 80.461)">
              <path id="Path_92215" data-name="Path 92215" d="M203.1,227.881s-6.079-7.4-8-6.107,1.848,4.012,2.411,5.893c.271.9-9.085-1.924-9.883-.549s6.449,3.471,6.449,3.471-6.941-.828-6.452.424,6.327,2.184,7.815,2.229c0,0-7.309-.793-6.618.625s7.264,2.281,7.264,2.281-4.849-.283-4.177.952,8.437,2.912,12.412,1.794C206.984,237.531,207.9,231.509,203.1,227.881Z" transform="translate(-187.575 -171.813)" fill="#fba894"/>
              <path id="Path_92216" data-name="Path 92216" d="M207.06,228.036s-2.5-1.784-4.818,1.07-3.389,9.1,0,11.239a5.207,5.207,0,0,0,6.244-.535Z" transform="translate(-187.238 -171.655)" fill="#738eba"/>
              <path id="Path_92217" data-name="Path 92217" d="M241.955,186.688s0-13.916,11.776-13.558,11.774,24.619,9.277,43.886-2.5,27.3-11.775,30.507c-8.144,2.819-28.841,2.8-42.707-2.559a8.97,8.97,0,0,1-5.743-9.153c.272-2.938,1.326-5.961,4.325-6.961,6.423-2.14,26.285,1.547,30.21-3.092S241.955,186.688,241.955,186.688Z" transform="translate(-187.166 -173.122)" fill="#a7b8d5"/>
              <path id="Path_92218" data-name="Path 92218" d="M237.8,226.633s7.136,1.428,8.325,8.8C246.837,233.294,245.647,225.921,237.8,226.633Z" transform="translate(-186.22 -171.679)" fill="#8ca7c6"/>
              <path id="Path_92219" data-name="Path 92219" d="M239.187,225.434s5-.713,7.85,2.5C247.394,227.4,244.361,223.115,239.187,225.434Z" transform="translate(-186.182 -171.729)" fill="#8ca7c6"/>
            </g>
            <path id="Path_92220" data-name="Path 92220" d="M171.062,171.007a2.641,2.641,0,0,1-1.8-3.262,4.193,4.193,0,0,1,1.169-1.889c1.7-1.528,8.241-1.117,11.33,1.231a2.152,2.152,0,0,1,.7.9c.787,1.953-.36,3.771-1.507,3.935A20.953,20.953,0,0,1,171.062,171.007Z" transform="translate(-161.315 -92.881)" fill="#738eba"/>
            <path id="Path_92221" data-name="Path 92221" d="M171.96,165.794s1.249-9.277,3.211-10.882a3.014,3.014,0,0,1,3.568-.535s3.033-.536,4.639.713a13.128,13.128,0,0,1,3.389,3.569c1.606,2.14,1.606,3.211,1.249,4.1a6.586,6.586,0,0,1-1.784,1.963,2.535,2.535,0,0,1-.356,2.676c-1.071,1.249-4.2.881-4.2.881l-.972.724S174.279,168.292,171.96,165.794Z" transform="translate(-161.239 -93.176)" fill="#fba894"/>
            <path id="Path_92222" data-name="Path 92222" d="M178.483,157.321a16.537,16.537,0,0,0-.178,3.568,9.534,9.534,0,0,0-2.319.535c-.536.179-1.071-1.605-1.071-1.605a3.473,3.473,0,0,0,.357,2.5c.891.535,3.389,0,4.282-.179C179.732,161.424,178.483,157.321,178.483,157.321Z" transform="translate(-161.162 -93.087)" fill="#fb8585"/>
            <path id="Path_92223" data-name="Path 92223" d="M224.623,131.958s-2.14,2.855-.356,3.569C225.872,136.062,224.623,131.958,224.623,131.958Z" transform="translate(-159.846 -93.772)" fill="#fff"/>
            <path id="Path_92224" data-name="Path 92224" d="M225.666,146.029s-2.141,2.855-.357,3.569C226.915,150.133,225.666,146.029,225.666,146.029Z" transform="translate(-159.818 -93.392)" fill="#fff"/>
            <path id="Path_92225" data-name="Path 92225" d="M216.806,122.925s-2.14,2.855-.356,3.569C218.055,127.029,216.806,122.925,216.806,122.925Z" transform="translate(-160.057 -94.016)" fill="#fff"/>
          </g>
        </g>
      </g>
    </g>
    <g id="Group_33383" data-name="Group 33383" transform="translate(159.763 121.495)">
      <g id="Group_33382" data-name="Group 33382" transform="translate(0 0)">
        <circle id="Ellipse_1538" data-name="Ellipse 1538" cx="10.004" cy="10.004" r="10.004" transform="matrix(0.925, -0.38, 0.38, 0.925, 0.372, 7.983)" fill="#24adb2"/>
        <g id="Group_33372" data-name="Group 33372" transform="translate(11.689)">
          <g id="Group_33370" data-name="Group 33370">
            <path id="Path_92227" data-name="Path 92227" d="M174.256,121.658c0-.58-.779-1.051-1.741-1.051s-1.74.47-1.74,1.051c0,.388.352.723.87.906V126.7h1.74v-4.133C173.9,122.381,174.256,122.046,174.256,121.658Z" transform="translate(-170.776 -120.607)" fill="#24adb2"/>
          </g>
          <g id="Group_33371" data-name="Group 33371" transform="translate(0 20.769)">
            <path id="Path_92228" data-name="Path 92228" d="M170.776,145.868c0,.58.779,1.051,1.74,1.051s1.741-.47,1.741-1.051c0-.388-.352-.724-.871-.906V140.83h-1.74v4.133C171.128,145.144,170.776,145.48,170.776,145.868Z" transform="translate(-170.776 -140.83)" fill="#24adb2"/>
          </g>
        </g>
        <g id="Group_33375" data-name="Group 33375" transform="translate(0 11.689)">
          <g id="Group_33373" data-name="Group 33373">
            <path id="Path_92229" data-name="Path 92229" d="M160.446,131.989c-.581,0-1.052.778-1.052,1.74s.47,1.74,1.052,1.74c.388,0,.723-.352.9-.87h4.134v-1.74H161.35C161.169,132.341,160.834,131.989,160.446,131.989Z" transform="translate(-159.394 -131.989)" fill="#24adb2"/>
          </g>
          <g id="Group_33374" data-name="Group 33374" transform="translate(20.769)">
            <path id="Path_92230" data-name="Path 92230" d="M184.655,135.468c.58,0,1.052-.779,1.052-1.74s-.471-1.74-1.052-1.74c-.388,0-.723.352-.9.87h-4.134v1.74h4.134C183.932,135.116,184.267,135.468,184.655,135.468Z" transform="translate(-179.617 -131.989)" fill="#24adb2"/>
          </g>
        </g>
        <g id="Group_33378" data-name="Group 33378" transform="translate(3.239 3.239)">
          <g id="Group_33376" data-name="Group 33376">
            <path id="Path_92231" data-name="Path 92231" d="M165.216,123.967c-.411-.41-1.294-.192-1.974.487s-.9,1.563-.487,1.974a1.1,1.1,0,0,0,1.255.026l2.923,2.922,1.23-1.23-2.923-2.922A1.1,1.1,0,0,0,165.216,123.967Z" transform="translate(-162.548 -123.761)" fill="#24adb2"/>
          </g>
          <g id="Group_33377" data-name="Group 33377" transform="translate(14.765 14.766)">
            <path id="Path_92232" data-name="Path 92232" d="M179.872,143.545c.411.411,1.294.193,1.974-.487s.9-1.563.487-1.974a1.1,1.1,0,0,0-1.255-.025l-2.923-2.922-1.23,1.229,2.923,2.923A1.1,1.1,0,0,0,179.872,143.545Z" transform="translate(-176.925 -138.138)" fill="#24adb2"/>
          </g>
        </g>
        <g id="Group_33381" data-name="Group 33381" transform="translate(3.239 3.239)">
          <g id="Group_33379" data-name="Group 33379" transform="translate(0 14.766)">
            <path id="Path_92233" data-name="Path 92233" d="M162.755,141.084c-.411.411-.192,1.3.487,1.974s1.563.9,1.974.487a1.1,1.1,0,0,0,.025-1.255l2.923-2.923-1.23-1.229-2.923,2.922A1.1,1.1,0,0,0,162.755,141.084Z" transform="translate(-162.548 -138.138)" fill="#24adb2"/>
          </g>
          <g id="Group_33380" data-name="Group 33380" transform="translate(14.765)">
            <path id="Path_92234" data-name="Path 92234" d="M182.333,126.428c.411-.411.192-1.294-.487-1.974s-1.563-.9-1.974-.487a1.1,1.1,0,0,0-.025,1.256l-2.923,2.922,1.23,1.23,2.923-2.922A1.1,1.1,0,0,0,182.333,126.428Z" transform="translate(-176.925 -123.761)" fill="#24adb2"/>
          </g>
        </g>
      </g>
      <circle id="Ellipse_1539" data-name="Ellipse 1539" cx="1.522" cy="1.522" r="1.522" transform="translate(11.363 6.877)" fill="#2497a3"/>
      <circle id="Ellipse_1540" data-name="Ellipse 1540" cx="0.652" cy="0.652" r="0.652" transform="translate(17.779 11.662)" fill="#2497a3"/>
      <path id="Path_92235" data-name="Path 92235" d="M172.923,134.941a.544.544,0,1,1-.543-.544A.543.543,0,0,1,172.923,134.941Z" transform="translate(-159.058 -120.235)" fill="#2497a3"/>
      <path id="Path_92236" data-name="Path 92236" d="M177.287,127.03a.326.326,0,1,1-.326-.326A.326.326,0,0,1,177.287,127.03Z" transform="translate(-158.929 -120.442)" fill="#2497a3"/>
      <path id="Path_92237" data-name="Path 92237" d="M169.77,138.924a.326.326,0,1,1-.327-.327A.327.327,0,0,1,169.77,138.924Z" transform="translate(-159.132 -120.121)" fill="#2497a3"/>
      <path id="Path_92238" data-name="Path 92238" d="M168.516,132.737a1.3,1.3,0,1,1-1.305-1.3A1.305,1.305,0,0,1,168.516,132.737Z" transform="translate(-159.218 -120.315)" fill="#2497a3"/>
      <path id="Path_92239" data-name="Path 92239" d="M176.677,138.936a.8.8,0,1,1-.8-.8A.8.8,0,0,1,176.677,138.936Z" transform="translate(-158.971 -120.134)" fill="#2497a3"/>
    </g>
    <g id="Group_33397" data-name="Group 33397" transform="translate(271.111 171.08)">
      <g id="Group_33396" data-name="Group 33396" transform="translate(0 0)">
        <circle id="Ellipse_1541" data-name="Ellipse 1541" cx="10.004" cy="10.004" r="10.004" transform="translate(3.425 3.425)" fill="#24adb2"/>
        <g id="Group_33386" data-name="Group 33386" transform="translate(11.689)">
          <g id="Group_33384" data-name="Group 33384">
            <path id="Path_92240" data-name="Path 92240" d="M282.677,169.94c0-.581-.778-1.052-1.74-1.052s-1.74.47-1.74,1.052c0,.387.352.723.87.9v4.133h1.74v-4.133C282.325,170.663,282.677,170.327,282.677,169.94Z" transform="translate(-279.198 -168.888)" fill="#24adb2"/>
          </g>
          <g id="Group_33385" data-name="Group 33385" transform="translate(0 20.769)">
            <path id="Path_92241" data-name="Path 92241" d="M279.2,194.149c0,.58.779,1.052,1.74,1.052s1.74-.471,1.74-1.052c0-.388-.352-.723-.87-.9v-4.134h-1.74v4.134C279.55,193.426,279.2,193.761,279.2,194.149Z" transform="translate(-279.198 -189.111)" fill="#24adb2"/>
          </g>
        </g>
        <g id="Group_33389" data-name="Group 33389" transform="translate(0 11.689)">
          <g id="Group_33387" data-name="Group 33387">
            <path id="Path_92242" data-name="Path 92242" d="M268.867,180.27c-.58,0-1.051.779-1.051,1.74s.47,1.74,1.051,1.74c.388,0,.724-.351.906-.87h4.133v-1.74h-4.133C269.591,180.622,269.255,180.27,268.867,180.27Z" transform="translate(-267.816 -180.27)" fill="#24adb2"/>
          </g>
          <g id="Group_33388" data-name="Group 33388" transform="translate(20.769)">
            <path id="Path_92243" data-name="Path 92243" d="M293.077,183.749c.58,0,1.051-.778,1.051-1.74s-.47-1.74-1.051-1.74c-.388,0-.723.352-.906.87h-4.133v1.74h4.133C292.354,183.4,292.689,183.749,293.077,183.749Z" transform="translate(-288.039 -180.27)" fill="#24adb2"/>
          </g>
        </g>
        <g id="Group_33392" data-name="Group 33392" transform="translate(3.239 3.239)">
          <g id="Group_33390" data-name="Group 33390">
            <path id="Path_92244" data-name="Path 92244" d="M273.637,172.249c-.41-.411-1.294-.193-1.973.487s-.9,1.563-.487,1.974a1.1,1.1,0,0,0,1.255.025l2.923,2.923,1.229-1.23-2.922-2.923A1.1,1.1,0,0,0,273.637,172.249Z" transform="translate(-270.97 -172.042)" fill="#24adb2"/>
          </g>
          <g id="Group_33391" data-name="Group 33391" transform="translate(14.765 14.765)">
            <path id="Path_92245" data-name="Path 92245" d="M288.294,191.827c.411.411,1.294.192,1.973-.487s.9-1.563.488-1.974a1.1,1.1,0,0,0-1.256-.025l-2.922-2.923-1.23,1.23,2.922,2.923A1.1,1.1,0,0,0,288.294,191.827Z" transform="translate(-285.347 -186.419)" fill="#24adb2"/>
          </g>
        </g>
        <g id="Group_33395" data-name="Group 33395" transform="translate(3.239 3.239)">
          <g id="Group_33393" data-name="Group 33393" transform="translate(0 14.765)">
            <path id="Path_92246" data-name="Path 92246" d="M271.177,189.366c-.411.411-.193,1.294.487,1.974s1.563.9,1.973.487a1.1,1.1,0,0,0,.026-1.255l2.922-2.923-1.229-1.23-2.923,2.923A1.1,1.1,0,0,0,271.177,189.366Z" transform="translate(-270.97 -186.419)" fill="#24adb2"/>
          </g>
          <g id="Group_33394" data-name="Group 33394" transform="translate(14.765)">
            <path id="Path_92247" data-name="Path 92247" d="M290.755,174.71c.41-.411.192-1.294-.488-1.974s-1.562-.9-1.973-.487a1.1,1.1,0,0,0-.026,1.255l-2.922,2.923,1.23,1.23,2.922-2.923A1.1,1.1,0,0,0,290.755,174.71Z" transform="translate(-285.347 -172.042)" fill="#24adb2"/>
          </g>
        </g>
      </g>
      <path id="Path_92248" data-name="Path 92248" d="M281.925,177.107a1.523,1.523,0,1,1-1.522-1.522A1.523,1.523,0,0,1,281.925,177.107Z" transform="translate(-267.517 -168.707)" fill="#2497a3"/>
      <circle id="Ellipse_1542" data-name="Ellipse 1542" cx="0.652" cy="0.652" r="0.652" transform="translate(17.779 11.662)" fill="#2497a3"/>
      <path id="Path_92249" data-name="Path 92249" d="M281.345,183.222a.544.544,0,1,1-.544-.543A.544.544,0,0,1,281.345,183.222Z" transform="translate(-267.48 -168.516)" fill="#2497a3"/>
      <path id="Path_92250" data-name="Path 92250" d="M285.709,175.312a.326.326,0,1,1-.327-.327A.326.326,0,0,1,285.709,175.312Z" transform="translate(-267.351 -168.723)" fill="#2497a3"/>
      <path id="Path_92251" data-name="Path 92251" d="M278.192,187.206a.327.327,0,1,1-.327-.327A.327.327,0,0,1,278.192,187.206Z" transform="translate(-267.554 -168.402)" fill="#2497a3"/>
      <path id="Path_92252" data-name="Path 92252" d="M276.938,181.019a1.3,1.3,0,1,1-1.305-1.305A1.305,1.305,0,0,1,276.938,181.019Z" transform="translate(-267.64 -168.596)" fill="#2497a3"/>
      <path id="Path_92253" data-name="Path 92253" d="M285.1,187.218a.8.8,0,1,1-.8-.8A.8.8,0,0,1,285.1,187.218Z" transform="translate(-267.393 -168.415)" fill="#2497a3"/>
    </g>
    <g id="Group_33411" data-name="Group 33411" transform="translate(149.903 230.814)">
      <g id="Group_33410" data-name="Group 33410">
        <circle id="Ellipse_1543" data-name="Ellipse 1543" cx="10.004" cy="10.004" r="10.004" transform="translate(3.426 3.425)" fill="#24adb2"/>
        <g id="Group_33400" data-name="Group 33400" transform="translate(11.69)">
          <g id="Group_33398" data-name="Group 33398">
            <path id="Path_92254" data-name="Path 92254" d="M164.656,228.1c0-.58-.779-1.051-1.74-1.051s-1.74.47-1.74,1.051c0,.388.351.724.87.906v4.133h1.74v-4.133C164.3,228.827,164.656,228.491,164.656,228.1Z" transform="translate(-161.177 -227.052)" fill="#24adb2"/>
          </g>
          <g id="Group_33399" data-name="Group 33399" transform="translate(0 20.769)">
            <path id="Path_92255" data-name="Path 92255" d="M161.177,252.313c0,.58.778,1.051,1.74,1.051s1.74-.47,1.74-1.051c0-.388-.352-.723-.87-.906v-4.133h-1.74v4.133C161.528,251.59,161.177,251.925,161.177,252.313Z" transform="translate(-161.177 -247.275)" fill="#24adb2"/>
          </g>
        </g>
        <g id="Group_33403" data-name="Group 33403" transform="translate(0 11.689)">
          <g id="Group_33401" data-name="Group 33401">
            <path id="Path_92256" data-name="Path 92256" d="M150.846,238.434c-.58,0-1.052.778-1.052,1.74s.471,1.74,1.052,1.74c.388,0,.723-.352.9-.87h4.134V239.3H151.75C151.569,238.786,151.234,238.434,150.846,238.434Z" transform="translate(-149.794 -238.434)" fill="#24adb2"/>
          </g>
          <g id="Group_33402" data-name="Group 33402" transform="translate(20.77)">
            <path id="Path_92257" data-name="Path 92257" d="M175.055,241.913c.581,0,1.052-.779,1.052-1.74s-.47-1.74-1.052-1.74c-.388,0-.723.352-.9.87h-4.133v1.74h4.133C174.332,241.561,174.667,241.913,175.055,241.913Z" transform="translate(-170.018 -238.434)" fill="#24adb2"/>
          </g>
        </g>
        <g id="Group_33406" data-name="Group 33406" transform="translate(3.239 3.239)">
          <g id="Group_33404" data-name="Group 33404">
            <path id="Path_92258" data-name="Path 92258" d="M155.616,230.413c-.411-.411-1.294-.193-1.974.487s-.9,1.563-.487,1.973a1.1,1.1,0,0,0,1.255.026l2.923,2.922,1.23-1.23-2.923-2.922A1.1,1.1,0,0,0,155.616,230.413Z" transform="translate(-152.948 -230.206)" fill="#24adb2"/>
          </g>
          <g id="Group_33405" data-name="Group 33405" transform="translate(14.765 14.765)">
            <path id="Path_92259" data-name="Path 92259" d="M170.272,249.991c.411.41,1.294.192,1.974-.488s.9-1.563.487-1.973a1.1,1.1,0,0,0-1.255-.026l-2.923-2.922-1.23,1.23,2.923,2.922A1.1,1.1,0,0,0,170.272,249.991Z" transform="translate(-167.325 -244.583)" fill="#24adb2"/>
          </g>
        </g>
        <g id="Group_33409" data-name="Group 33409" transform="translate(3.239 3.239)">
          <g id="Group_33407" data-name="Group 33407" transform="translate(0 14.765)">
            <path id="Path_92260" data-name="Path 92260" d="M153.155,247.53c-.411.41-.192,1.294.487,1.973s1.563.9,1.974.488a1.1,1.1,0,0,0,.025-1.256l2.923-2.922-1.23-1.23L154.41,247.5A1.1,1.1,0,0,0,153.155,247.53Z" transform="translate(-152.948 -244.583)" fill="#24adb2"/>
          </g>
          <g id="Group_33408" data-name="Group 33408" transform="translate(14.765)">
            <path id="Path_92261" data-name="Path 92261" d="M172.733,232.873c.411-.41.192-1.294-.487-1.973s-1.563-.9-1.974-.487a1.1,1.1,0,0,0-.025,1.255l-2.923,2.922,1.23,1.23,2.923-2.922A1.1,1.1,0,0,0,172.733,232.873Z" transform="translate(-167.325 -230.206)" fill="#24adb2"/>
          </g>
        </g>
      </g>
      <path id="Path_92262" data-name="Path 92262" d="M163.9,235.271a1.523,1.523,0,1,1-1.523-1.522A1.522,1.522,0,0,1,163.9,235.271Z" transform="translate(-149.495 -226.871)" fill="#2497a3"/>
      <path id="Path_92263" data-name="Path 92263" d="M168.41,239.06a.652.652,0,1,1-.652-.652A.652.652,0,0,1,168.41,239.06Z" transform="translate(-149.327 -226.745)" fill="#2497a3"/>
      <circle id="Ellipse_1544" data-name="Ellipse 1544" cx="0.544" cy="0.544" r="0.544" transform="translate(12.777 14.163)" fill="#2497a3"/>
      <path id="Path_92264" data-name="Path 92264" d="M167.688,233.475a.327.327,0,1,1-.327-.326A.327.327,0,0,1,167.688,233.475Z" transform="translate(-149.329 -226.887)" fill="#2497a3"/>
      <path id="Path_92265" data-name="Path 92265" d="M160.17,245.369a.326.326,0,1,1-.327-.326A.326.326,0,0,1,160.17,245.369Z" transform="translate(-149.532 -226.566)" fill="#2497a3"/>
      <path id="Path_92266" data-name="Path 92266" d="M158.916,239.183a1.3,1.3,0,1,1-1.3-1.305A1.3,1.3,0,0,1,158.916,239.183Z" transform="translate(-149.618 -226.76)" fill="#2497a3"/>
      <path id="Path_92267" data-name="Path 92267" d="M167.077,245.381a.8.8,0,1,1-.8-.8A.8.8,0,0,1,167.077,245.381Z" transform="translate(-149.371 -226.579)" fill="#2497a3"/>
    </g>
  </g>
</svg>
