<svg xmlns="http://www.w3.org/2000/svg" width="229.365" height="217.5" viewBox="0 0 229.365 217.5">
  <g id="Group_35253" data-name="Group 35253" transform="translate(11603.881 12591.509)">
    <g id="Group_34057" data-name="Group 34057" transform="translate(-11586.547 -12591.509)">
      <g id="Group_34048" data-name="Group 34048" transform="translate(41.951 134.754)">
        <g id="Group_34046" data-name="Group 34046" transform="translate(49.363 18.061)">
          <path id="Path_92642" data-name="Path 92642" d="M359.489,378.828S362,427.85,369.7,427.85c6.128,0-4.085-49.7-4.085-49.7Z" transform="translate(-359.489 -370.48)" fill="#cecece"/>
          <path id="Path_92643" data-name="Path 92643" d="M364.74,372.923s8.175,48.4,15.827,47.509c6.086-.711-9.819-48.9-9.819-48.9Z" transform="translate(-358.649 -371.537)" fill="#cecece"/>
        </g>
        <g id="Group_34047" data-name="Group 34047" transform="translate(0 18.061)">
          <path id="Path_92644" data-name="Path 92644" d="M338.7,378.828s-2.51,49.023-10.213,49.023c-6.129,0,4.085-49.7,4.085-49.7Z" transform="translate(-315.396 -370.48)" fill="#cbcbcb"/>
          <path id="Path_92645" data-name="Path 92645" d="M334.145,372.923s-8.176,48.4-15.827,47.509c-6.087-.711,9.818-48.9,9.818-48.9Z" transform="translate(-316.93 -371.537)" fill="#cbcbcb"/>
        </g>
        <path id="Path_92646" data-name="Path 92646" d="M326.635,385.136c2.864.166,46.639,1.339,53.789-.223s7.489-7.252.34-8.144-48-1.34-56.171,0S320.847,384.8,326.635,385.136Z" transform="translate(-316.421 -352.774)" fill="#ededed"/>
        <path id="Path_92647" data-name="Path 92647" d="M326.635,384.077c2.864.5,46.639,4.085,53.789-.681s7.489-22.128.34-24.852-48-4.086-56.171,0S320.847,383.055,326.635,384.077Z" transform="translate(-316.421 -355.965)" fill="#2b4b7c"/>
        <path id="Path_92648" data-name="Path 92648" d="M385.937,368.918c-1.293,4.8-4.861,9.641-13.683,11.059-18.146,2.916-36.6-8.973-29.528-23.923-8.186.259-15.227,1.022-18.133,2.474-8.171,4.086-3.745,24.512,2.043,25.534,2.864.5,46.639,4.085,53.789-.681C384.287,380.806,386.157,374.553,385.937,368.918Z" transform="translate(-316.421 -355.951)" fill="#1e334c"/>
      </g>
      <g id="Group_34051" data-name="Group 34051" transform="translate(0 34.093)">
        <path id="Path_92649" data-name="Path 92649" d="M367.258,280.893a70.819,70.819,0,0,1-.8,26.535l-16.4-2.413s-4.02-19.941,2.9-24.445S365.489,276.712,367.258,280.893Z" transform="translate(-269.87 -267.855)" fill="#250d12"/>
        <path id="Path_92650" data-name="Path 92650" d="M342.921,301.509s-5.062.791-6.961,7.753-1.5,22.6-.695,25.531c.8,2.914,5.623,6.752,8,1.214s4.09-27.22,3.14-31.018S342.921,301.509,342.921,301.509Z" transform="translate(-272.155 -264.012)" fill="#e8a49e"/>
        <path id="Path_92651" data-name="Path 92651" d="M340.719,315.377l-6.68-.81s1.822-11.235,5.668-13.057a15.229,15.229,0,0,1,7.691-1.315Z" transform="translate(-272.244 -264.232)" fill="#ffe756"/>
        <path id="Path_92652" data-name="Path 92652" d="M328.27,396.787s3.481,6.486,3.8,9.492-5.062,15.821-1.74,16.77,12.023-12.34,11.866-15.663-6.012-14.08-6.012-14.08Z" transform="translate(-273.166 -249.334)" fill="#e49182"/>
        <path id="Path_92653" data-name="Path 92653" d="M330.2,410.669a23.765,23.765,0,0,1,6.486-1.582c3.006-.158,3.322-8.068,4.588-7.594s2.689,2.69,2.057,5.378-10.442,19.618-13.922,18.353S330.2,410.669,330.2,410.669Z" transform="translate(-273.202 -248.028)" fill="#1e334c"/>
        <path id="Path_92654" data-name="Path 92654" d="M345.67,343.1s-34.173,2.373-41.925,8.227,25,57.113,27.371,57.588,10.6-5.063,10.6-6.328-19.459-37.18-18.826-37.021,21.833,1.108,34.806-3.323,16.612-20.092,16.612-20.092Z" transform="translate(-277.277 -257.512)" fill="#ff92b8"/>
        <path id="Path_92655" data-name="Path 92655" d="M334.811,343.98c2.286,3.346,4.971,9.271-2.468,11.684-10.639,3.451-22.426,2.012-21.563,5.463s20.413,34.789,20.988,38.813c.335,2.345-2.258,4.5-4.253,6.45,1.169,1.552,1.987,2.468,2.294,2.53,2.373.474,10.6-5.063,10.6-6.33s-19.459-37.179-18.826-37.02,21.833,1.108,34.806-3.323S373,342.156,373,342.156l-28.636.949S340.372,343.382,334.811,343.98Z" transform="translate(-275.97 -257.512)" fill="#ff92b8" opacity="0.5" style="mix-blend-mode: multiply;isolation: isolate"/>
        <path id="Path_92656" data-name="Path 92656" d="M311.893,411.741s-3.8,9.967-6.328,10.917-22.307,1.74-22.307-.95,12.023-4.271,16.3-7.277a15.156,15.156,0,0,0,5.537-6.8Z" transform="translate(-280.363 -247.044)" fill="#e49182"/>
        <path id="Path_92657" data-name="Path 92657" d="M293.466,414.993s4.746,1.582,4.9,3.955,11.391-1.9,11.391-1.9a3.662,3.662,0,0,1-1.108,5.062c-3.006,2.058-26.9,4.589-27.844.317S293.466,414.993,293.466,414.993Z" transform="translate(-280.762 -245.867)" fill="#1e334c"/>
        <path id="Path_92658" data-name="Path 92658" d="M377.825,341.337s4.746,11.075-.317,17.877-34.174,18.67-36.864,20.409-27.37,43.033-30.375,44.3-10.917-4.43-10.917-5.378,22.94-42.875,26.421-47.938,25.788-25.313,27.37-25.788S377.825,341.337,377.825,341.337Z" transform="translate(-277.79 -257.643)" fill="#ff92b8"/>
        <path id="Path_92659" data-name="Path 92659" d="M376.663,359.214c5.063-6.8.317-17.877.317-17.877s-18.37,2.391-23.461,3.244c1.25,1.789,3.536,4.26,9.7,6.9,8.05,3.451-27.888,18.688-31.339,24.439-2.939,4.9-21.729,37.537-27.234,47.1,1.833.868,3.651,1.373,4.78.9,3.005-1.265,27.686-42.559,30.375-44.3S371.6,366.018,376.663,359.214Z" transform="translate(-276.944 -257.643)" fill="#ff92b8" opacity="0.5" style="mix-blend-mode: multiply;isolation: isolate"/>
        <path id="Path_92660" data-name="Path 92660" d="M344.26,301.2a39.694,39.694,0,0,1,24.119-.421s-.317,15.5-.633,20.725,6.962,34.648,6.8,35.123-15.5,2.531-28.794-4.43c-7.353-3.852-10.442-1.853-8.543-3.481,3.322-2.848,5.537-12.182,5.063-15.5s-5.311-9.862-4.746-14.714c.7-6.056,2.913-10.977,4.505-15.116A3.748,3.748,0,0,1,344.26,301.2Z" transform="translate(-271.824 -264.391)" fill="#ffe756"/>
        <path id="Path_92661" data-name="Path 92661" d="M340.773,349.576a25.959,25.959,0,0,1,4.344,1.824c13.29,6.961,28.636,4.9,28.794,4.43s-7.119-29.9-6.8-35.123c.212-3.5.424-11.608.54-16.583a6.24,6.24,0,0,0-2.426.694c-3.593,2.012-5.606,6.037-10.637,12.074a87.232,87.232,0,0,1-13.708,13.118,10.581,10.581,0,0,1,.76,2.4,21.786,21.786,0,0,1-.988,7.506,20.8,20.8,0,0,0,10.343-7.215c4.887-6.47,8.05-14.376,9.631-12.651s5.607,13.513,4.17,17.681C363.536,341.378,346.276,347.431,340.773,349.576Z" transform="translate(-271.187 -263.593)" fill="#ffe756" style="mix-blend-mode: multiply;isolation: isolate"/>
        <path id="Path_92662" data-name="Path 92662" d="M374.8,307.286a10.822,10.822,0,0,0-1.708-4.029c-1.34-1.894-3.766-4.025-6.961-2.048-4.321,2.674-2.269,8.268-.687,13.173s4.267,17.019,3.634,17.968-23.933,15.273-27.255,15.748-13.188,2.473-12.4,3.422,5.221.476,5.221.476-7.436,3.48-6.645,4.113,6.012-1.582,6.012-1.582-6.645,3.164-5.221,3.639,6.012-1.74,6.012-1.74-4.272,2.531-3.639,3.005,5.7-2.214,5.7-2.214-3.48,2.531-2.214,2.531,7.515-5.019,10.2-6.6,31.457-11.706,33.514-15.344C380.177,334.6,376.109,313.461,374.8,307.286Z" transform="translate(-273.218 -264.186)" fill="#edb5ae"/>
        <path id="Path_92663" data-name="Path 92663" d="M378.279,333.1a7.7,7.7,0,0,0,.454-3.273,8.8,8.8,0,0,1-3.949,3.8c-7.762,4.026-31.625,13.226-33.638,14.232-1.577.789-9.336,3.962-12.617,5.3-.052.137,0,.244.179.3,1.424.474,6.012-1.74,6.012-1.74s-4.272,2.531-3.639,3.005,5.7-2.214,5.7-2.214-3.48,2.531-2.214,2.531,7.515-5.019,10.2-6.6S376.222,336.737,378.279,333.1Z" transform="translate(-273.128 -259.484)" fill="#edb5ae" opacity="0.5" style="mix-blend-mode: multiply;isolation: isolate"/>
        <path id="Path_92664" data-name="Path 92664" d="M369.821,306.676a11.571,11.571,0,0,0-.813-2.445,19.275,19.275,0,0,1-2.854,1.289,35.269,35.269,0,0,0-7.05,3.763c.375,1.494.888,3.021,1.362,4.489.05.154.1.317.153.486a60.734,60.734,0,0,1,9.865-4.324C370.226,308.63,370,307.512,369.821,306.676Z" transform="translate(-268.236 -263.576)" fill="#edb5ae" opacity="0.5" style="mix-blend-mode: multiply;isolation: isolate"/>
        <path id="Path_92665" data-name="Path 92665" d="M358.346,312.523s4.757-3.542,7.894-4.352,3.947-.3,3.947-.3a5.018,5.018,0,0,0,.1-1.113c0-.709-.406-.81-.406-1.721s-.607-1.011-1.112-2.125-3.225-3.16-6.377-2.531C357.772,301.3,356.119,303.918,358.346,312.523Z" transform="translate(-268.514 -264.211)" fill="#ffe756"/>
        <path id="Path_92666" data-name="Path 92666" d="M337.994,328.349s-4.31,3.889-2.487,7.146,4.787,5.057,10.328.057,12.367-17.982,14.812-19.976,4.56-2.622,7.34-4.492,5.3-1.8,4.911-2.728-5.109.776-5.109.776,5.547-2.023,5.262-2.832-6.305,1.429-6.305,1.429,6.285-2.69,5.755-3.277-7.028,1.867-7.028,1.867,4.86-2.041,4.593-3.079-7.482,3.343-7.482,3.343,2.069-4.638.749-3.873-3.985,7.219-6.957,10.114S337.994,328.349,337.994,328.349Z" transform="translate(-272.081 -263.833)" fill="#edb5ae"/>
        <path id="Path_92667" data-name="Path 92667" d="M356.5,316.7c-4.026,5.319-13.658,16.963-17.826,17.681a24.655,24.655,0,0,1-2.8.331c1.855,2.714,4.767,3.829,9.834-.744,5.54-5,12.367-17.982,14.812-19.976a17.763,17.763,0,0,1,2.041-1.431C361.7,312.434,359.559,312.654,356.5,316.7Z" transform="translate(-271.951 -262.248)" fill="#edb5ae" opacity="0.5" style="mix-blend-mode: multiply;isolation: isolate"/>
        <path id="Path_92668" data-name="Path 92668" d="M357.4,293.592s0,4.824,1.93,7.4S350.151,315,345.34,311.282c-3.538-2.734,1.93-7.4,2.251-9.809s-.16-11.9-.16-11.9Z" transform="translate(-270.627 -265.92)" fill="#edb5ae"/>
        <path id="Path_92669" data-name="Path 92669" d="M356.949,293.592l-9.97-4.02s.147,2.908.225,5.913c2.215,2.554,5.8,4.926,11.675,5.5C356.949,298.416,356.949,293.592,356.949,293.592Z" transform="translate(-270.175 -265.92)" fill="#edb5ae" opacity="0.5" style="mix-blend-mode: multiply;isolation: isolate"/>
        <path id="Path_92670" data-name="Path 92670" d="M346.58,290.4a8.347,8.347,0,0,0,3.96,6.132c3.25,1.972,8.018,4.346,10.975,3.459,4.824-1.448,7.785-14.692,4.985-20.906-1.537-3.411-8.363-9.649-14.152-6.594s-5.629,10.935-5.629,10.935-3.055-3.538-4.02-.483,3.7,5.95,3.7,5.95Z" transform="translate(-270.88 -268.782)" fill="#edb5ae"/>
        <g id="Group_34049" data-name="Group 34049" transform="translate(86.155 16.028)">
          <path id="Path_92671" data-name="Path 92671" d="M357.609,285.712a.835.835,0,1,1-.788-.928A.862.862,0,0,1,357.609,285.712Z" transform="translate(-354.897 -282.714)" fill="#250d12"/>
          <path id="Path_92672" data-name="Path 92672" d="M355.041,284.033l3.686-.132a1.645,1.645,0,0,0-1.426-.9C356.29,282.993,355.207,283.49,355.041,284.033Z" transform="translate(-355.041 -282.999)" fill="#250d12"/>
        </g>
        <g id="Group_34050" data-name="Group 34050" transform="translate(93.659 16.696)">
          <path id="Path_92673" data-name="Path 92673" d="M362.161,286.228a.835.835,0,1,0,.878-.842A.861.861,0,0,0,362.161,286.228Z" transform="translate(-361.406 -283.285)" fill="#250d12"/>
          <path id="Path_92674" data-name="Path 92674" d="M365.164,284.842l-3.654-.509a1.648,1.648,0,0,1,1.511-.75C364.028,283.68,365.055,284.284,365.164,284.842Z" transform="translate(-361.51 -283.574)" fill="#250d12"/>
        </g>
        <path id="Path_92675" data-name="Path 92675" d="M363.832,287.294c-1.836-.869-9.371.774-9.371.774l-.024.061c-1.571-1.2-4.825-3.437-6.544-2.864-2.318.774-1.352,3.961.87,6.182a13.807,13.807,0,0,0,4.462,2.81,1.343,1.343,0,0,0,.078.184c.87,1.449,2.319,4.637,6.955,4.637,4.181,0,5.99-6.858,5.99-8.018A4.192,4.192,0,0,0,363.832,287.294ZM347.8,289.323c-1.159-2.607-.386-3.381,1.062-3.187,1.074.143,3.895,1.876,5.286,2.764a14.779,14.779,0,0,0-1.048,4.68C351.426,292.727,348.619,291.173,347.8,289.323Z" transform="translate(-270.242 -266.623)" fill="#fff"/>
        <path id="Path_92676" data-name="Path 92676" d="M371.613,284.308l-16.726-.643-.483-3.378a55.39,55.39,0,0,0-2.573,10.614c-.965,6.433.8,19.619.8,19.619l-10.544-1.385a6.156,6.156,0,0,1-5.347-6.316c.238-7.249,1.362-19.748,6.081-26.553,6.915-9.972,19.3-7.72,23.48-3.539S371.613,284.308,371.613,284.308Z" transform="translate(-271.812 -269.18)" fill="#1e334c"/>
      </g>
      <g id="Group_34056" data-name="Group 34056" transform="translate(97.585 0)">
        <path id="Path_92677" data-name="Path 92677" d="M444.345,402.99s5.36,11.276,4.887,13.283-20.4,13.258-21.828,11.747,10.679-12.16,10.921-14.4-1.224-6.352-1.224-6.352Z" transform="translate(-354.92 -213.692)" fill="#d0796e"/>
        <path id="Path_92678" data-name="Path 92678" d="M438.232,412.1a1.224,1.224,0,0,0,.251.183c.529.309,1.966.822,5.015-.007,4.067-1.105,3.951-3.513,4.769-2.885s3.3,6.761,2.863,7.608-21.993,13.784-24.941,12.6S438.232,412.1,438.232,412.1Z" transform="translate(-355.157 -212.685)" fill="#1e334c"/>
        <path id="Path_92679" data-name="Path 92679" d="M411.711,409.187s1.494,12.622.42,14.326-23.3,4.672-24.167,2.711,13.835-7.344,14.764-9.35.843-6.426.843-6.426Z" transform="translate(-361.213 -212.702)" fill="#d0796e"/>
        <path id="Path_92680" data-name="Path 92680" d="M395.808,317.3s-3.252,43.293-2.53,58.621,6.132,48.769,6.6,51.083,13.5-.322,13.5-.322-2.517-42.255-1.388-49.257.276-36.941.276-36.941,6.821,33.052,7.784,39.074,19.462,45.572,19.462,45.572,8.7-1,12.541-6.191c0,0-13.549-35.731-14.412-44.772-1.368-14.333-3.968-60.865-3.968-60.865Z" transform="translate(-360.374 -228.032)" fill="#2b4b7c"/>
        <path id="Path_92681" data-name="Path 92681" d="M433.4,313.3l-37.862,4s-.291,3.876-.68,9.716a26.133,26.133,0,0,0,9.752,1.021c12.973-.95,17.4.316,19.934,12.34s2.849,32.591,5.063,38.919c1.7,4.845,12.665,31.2,17.714,43.3a13.1,13.1,0,0,0,4.459-3.652s-13.549-35.733-14.412-44.773C436,359.834,433.4,313.3,433.4,313.3Z" transform="translate(-360.105 -228.032)" fill="#1e334c"/>
        <path id="Path_92682" data-name="Path 92682" d="M410.5,374.329c1.017-6.309.426-31.229.3-36.106-.863-1.463-4.475-7.275-6.14-5.054-1.9,2.531-2.848,38.919-1.582,49.677,1.011,8.6,1.921,31.931,2.164,41.777,3.342-.368,6.647-1.037,6.647-1.037S409.368,381.331,410.5,374.329Z" transform="translate(-358.883 -224.936)" fill="#1e334c"/>
        <path id="Path_92683" data-name="Path 92683" d="M398.362,256.8s1.008,3.992,2.721,5.91,2.7,1.74,3.375,2.961-1.662,10.148-4.224,11.616-5.063,1.693-6.587.176a7.2,7.2,0,0,1-2.466-4.789,24.993,24.993,0,0,1,0-3.352l-3.372-5.4Z" transform="translate(-361.232 -237.066)" fill="#edb5ae"/>
        <path id="Path_92684" data-name="Path 92684" d="M384.29,295.9s-3.7-1.074-4.76-2.048-3.591-1.673-5.8-1.967-5.268-.842-4.942.058,1.467,1.424,2.936,1.858,2.423.8,2.394,1.445-4.3,3.062-5.415,3.379-2.875.6-1.715,1.195,4.145.382,5.26.066-.964-.152.317,1.113,2.692,2,3.947,1.43,3.712-2.9,4.713-2.613,4.526,1.974,4.526,1.974l1.337-4.772Z" transform="translate(-364.622 -231.526)" fill="#edb5ae"/>
        <g id="Group_34053" data-name="Group 34053" transform="translate(0.596 61.055)">
          <g id="Group_34052" data-name="Group 34052" transform="translate(0 13.745)">
            <rect id="Rectangle_12449" data-name="Rectangle 12449" width="6.386" height="0.274" transform="translate(0 6.093) rotate(-72.579)" fill="#a0bdf6"/>
          </g>
          <rect id="Rectangle_12450" data-name="Rectangle 12450" width="1.452" height="13.75" transform="translate(5.4 0.79) rotate(17.42)" fill="#7f9fd9"/>
          <rect id="Rectangle_12451" data-name="Rectangle 12451" width="3.009" height="1.143" transform="translate(4.831 0) rotate(17.418)" fill="#a0bdf6"/>
          <rect id="Rectangle_12452" data-name="Rectangle 12452" width="3.009" height="10.631" transform="translate(3.928 2.879) rotate(17.418)" fill="#d7ebf5"/>
          <rect id="Rectangle_12453" data-name="Rectangle 12453" width="2.425" height="5.911" transform="translate(3.059 6.604) rotate(17.42)" fill="#20385a"/>
        </g>
        <path id="Path_92685" data-name="Path 92685" d="M393.451,295.52l-13.465-1.383-.783,9.477s17.1,5.772,21.435,5.057,12.411-4.109,7.406-9.415S393.451,295.52,393.451,295.52Z" transform="translate(-362.608 -231.097)" fill="#d7ebf5"/>
        <path id="Path_92686" data-name="Path 92686" d="M390.6,271.848s4.47,4.66,5.432,4.6,8.213-7.39,9.853-8.737,20.98,55.383,21.248,57.269-29.851,7.238-30.111,6.81S390.6,271.848,390.6,271.848Z" transform="translate(-360.786 -235.325)" fill="#87a8e4"/>
        <path id="Path_92687" data-name="Path 92687" d="M390.807,270.992s4.645,5.431,5.144,5.479,5.731-6.174,5.765-9.59a12.876,12.876,0,0,0-.627-4.887l2.771,1.478a9.058,9.058,0,0,1,1.688,7.4c-.972,4.279-2.46,11.271-3.373,10.83s-5.871-3.692-5.871-3.692l-4.441,6.855s-3.136-2.368-3.063-7.74S390.807,270.992,390.807,270.992Z" transform="translate(-361.074 -236.236)" fill="#a0bdf6"/>
        <path id="Path_92688" data-name="Path 92688" d="M391.443,267.788s1.885,18.867,4.452,30.127,7.255,70.94,6.4,71.458-9.309,2.5-11.2-.8,2.99-49.823-.112-64.855-5.641-24.028-4.894-28.58S391.443,267.788,391.443,267.788Z" transform="translate(-361.528 -235.31)" fill="#d7ebf5"/>
        <path id="Path_92689" data-name="Path 92689" d="M395.766,297.915c-2.567-11.26-4.452-30.127-4.452-30.127a12.5,12.5,0,0,0-1.326.984l-3.227,10.38,4.431,2.531-3.64,3.006s8.9,32.944,11.684,41.62C398.057,313.761,396.754,302.249,395.766,297.915Z" transform="translate(-361.399 -235.31)" fill="#fff"/>
        <path id="Path_92690" data-name="Path 92690" d="M400.1,262.362s1.612,3.418,1.518,10.561c-.079,6.088,20.351,94.33,21.074,94.653s12.784-2.733,21.777-8.84,8.17-9,8.17-9-16.905-28.893-20.607-37.3-9.005-42.764-14.093-46.394S400.1,262.362,400.1,262.362Z" transform="translate(-359.266 -236.177)" fill="#d7ebf5"/>
        <path id="Path_92691" data-name="Path 92691" d="M412,280.493l-6.013-2.69,5.854-5.063-8.621-10.256c-1.869-.118-3.115-.123-3.115-.123s1.612,3.418,1.518,10.561c-.042,3.221,5.658,29.439,11.142,53.466Z" transform="translate(-359.266 -236.177)" fill="#fff"/>
        <path id="Path_92692" data-name="Path 92692" d="M384.92,306.194s-6.68,2.378-9.145,1.989-7.093-1.518-6.554-.406,5.086,1.881,4.278,2.921-8.841,2.491-8.523,3.465,5.264-.251,5.264-.251-6.01,1.561-5.283,2.25,6-.8,6-.8-5.178,1.466-4.471,2.065,5.323-.833,5.323-.833-4.29,2.023-3.285,2.269,5.913-1.158,8.577-2.81,4.2-3.24,5.558-3.548,4.135-1.038,4.135-1.038Z" transform="translate(-364.895 -229.169)" fill="#edb5ae"/>
        <path id="Path_92693" data-name="Path 92693" d="M419.178,265.022s-6.625-3.33-8.385,2.849-1.262,32.925-2.848,34.964-28.994,10.822-28.994,10.822l3.583,9.992s28.546-5.577,34.8-11.661,8.038-34.75,6.432-40.161S420.322,265.135,419.178,265.022Z" transform="translate(-362.648 -235.895)" fill="#fff"/>
        <path id="Path_92694" data-name="Path 92694" d="M400.47,260.2a8.342,8.342,0,0,1-2.5,6.858c-2.73,2.645-6.851,6.02-9.931,5.812-5.026-.339-11.266-15.231-10.8-18.942.666-5.318,7.3-11.6,13.625-9.908s8.72,9.04,8.72,9.04l.727,5.63Z" transform="translate(-362.925 -239.155)" fill="#edb5ae"/>
        <g id="Group_34054" data-name="Group 34054" transform="translate(15.496 19.486)">
          <path id="Path_92695" data-name="Path 92695" d="M381.269,259.036a.836.836,0,1,1-1.067-.585A.862.862,0,0,1,381.269,259.036Z" transform="translate(-378.034 -256.295)" fill="#250d12"/>
          <path id="Path_92696" data-name="Path 92696" d="M378.256,258.463l3.395-1.441a1.643,1.643,0,0,0-1.653-.333C379.051,257.045,378.217,257.9,378.256,258.463Z" transform="translate(-378.255 -256.587)" fill="#250d12"/>
        </g>
        <g id="Group_34055" data-name="Group 34055" transform="translate(22.644 17.686)">
          <path id="Path_92697" data-name="Path 92697" d="M385.705,257.892a.836.836,0,1,0,.52-1.1A.863.863,0,0,0,385.705,257.892Z" transform="translate(-384.22 -254.759)" fill="#250d12"/>
          <path id="Path_92698" data-name="Path 92698" d="M388.013,255.566l-3.594.828a1.647,1.647,0,0,1,1.142-1.24C386.536,254.887,387.711,255.085,388.013,255.566Z" transform="translate(-384.418 -255.034)" fill="#250d12"/>
        </g>
        <path id="Path_92699" data-name="Path 92699" d="M390.125,250.027s-2.077,3.762-8.428,7.322-11.588,1.7-12.185-2.974,6.978-4.41,6.978-4.41,2.984-5.964,8.387-8.017,8.109.03,8.109.03-1.392-2.5-.012-2.111a3.2,3.2,0,0,1,1.873,2.038s1.149-3.2,1.952-1.736-.814,3.121-.814,3.121,2.356-.994,4.619,2.234c4.292,6.121,3.084,14,1.1,15.308-.223.147-1.5-.6-1.5-.6s2.24-5.352-1.256-6c-3.193-.592-2.081,4.621-2.081,4.621s-1.148-.245-2.551-2.273S393.6,249.821,390.125,250.027Z" transform="translate(-364.162 -239.787)" fill="#1e334c"/>
        <path id="Path_92700" data-name="Path 92700" d="M402.9,415.291a1.3,1.3,0,0,0,.179.268c.4.491,1.587,1.521,4.708,1.9,4.163.512,4.809-1.792,5.381-.891s.979,7.6.3,8.228-24.961,4.561-27.357,2.33S402.9,415.291,402.9,415.291Z" transform="translate(-361.537 -211.726)" fill="#1e334c"/>
        <path id="Path_92701" data-name="Path 92701" d="M399,256.4l-4.868,8.953c-.482-1.775-1.282-3.651-1.818-4.079a6.046,6.046,0,0,0-2.291-.614c1.236-1.335,5.01-5.446,4.853-5.76-.186-.37-5.861,5.482-5.992,5.617-1.9-.209-4.1-.329-5.317-.431-2.249-.187-3.5,3.811-3.5,4a10.815,10.815,0,0,0,1.3,5.454c.849,1.358,3.574,2.319,6.375,2.8,3.418.589,6.129-2.508,6.69-3.819a2.942,2.942,0,0,0,.065-1.347c.578-1.248,2.387-5.107,3.684-7.337C399.745,257.145,399,256.4,399,256.4Z" transform="translate(-362.471 -237.373)" fill="#fff"/>
        <path id="Path_92702" data-name="Path 92702" d="M415.718,318.309l14.944-3.665s10.15,20.865,7.331,24.249-12.97,7.9-16.353,5.921S415.718,318.309,415.718,318.309Z" transform="translate(-356.769 -227.818)" fill="#fff"/>
        <path id="Path_92703" data-name="Path 92703" d="M390.912,322.909l5.076.564s1.127,23.685-1.129,24.812-5.639-.564-5.639-.564Z" transform="translate(-361.006 -226.496)" fill="#fff"/>
      </g>
    </g>
    <path id="Path_92704" data-name="Path 92704" d="M372.887,2417.852H144.521" transform="translate(-11747.902 -14792.36)" fill="none" stroke="#707070" stroke-linecap="round" stroke-width="1" opacity="0.31"/>
  </g>
</svg>
