<svg xmlns="http://www.w3.org/2000/svg" width="141.35" height="217" viewBox="0 0 141.35 217">
  <g id="Group_35254" data-name="Group 35254" transform="translate(-276.106 -134.247)">
    <g id="Group_33953" data-name="Group 33953" transform="translate(321.389 134.247)">
      <g id="Group_33932" data-name="Group 33932" transform="translate(0 42.567)">
        <rect id="Rectangle_12438" data-name="Rectangle 12438" width="0.425" height="25.568" transform="translate(1.443 1.827) rotate(-50.48)" fill="#fff"/>
        <path id="Path_92403" data-name="Path 92403" d="M365.838,217.65c.444.483.554,1.105.244,1.389s-.92.123-1.364-.36-.553-1.105-.244-1.389S365.394,217.167,365.838,217.65Z" transform="translate(-364.298 -217.149)" fill="#66b0a9"/>
      </g>
      <g id="Group_33952" data-name="Group 33952" transform="translate(12.663)">
        <path id="Path_92404" data-name="Path 92404" d="M495.688,228.153l7.219,88.888s4.512,18.048-50.987,4.06l13.424-75.126Z" transform="translate(-419.593 -179.936)" fill="#fff"/>
        <circle id="Ellipse_1545" data-name="Ellipse 1545" cx="4.939" cy="4.939" r="4.939" transform="translate(66.08)" fill="#29211c"/>
        <g id="Group_33948" data-name="Group 33948" transform="translate(0 0.747)">
          <path id="Path_92405" data-name="Path 92405" d="M515.027,144.275c.853,2.274,2.363,3.81,3.371,3.432s1.135-2.529.281-4.8-2.363-3.81-3.371-3.432S514.173,142,515.027,144.275Z" transform="translate(-450.021 -137.509)" fill="#66b0a9"/>
          <path id="Path_92406" data-name="Path 92406" d="M532.929,530.819l-.276-7.7-5.921,1.893-.149,3.676.483,4.716Z" transform="translate(-455.919 -324.193)" fill="#ffbc82"/>
          <path id="Path_92407" data-name="Path 92407" d="M517.507,535.285s2.14,4.991,1.4,8.111c0,0-8.986.52-15.893,1.634s-10.694-2.674-6.016-4.456,14.185-6.609,14.185-6.609S511.8,538.612,517.507,535.285Z" transform="translate(-440.517 -329.471)" fill="#29201d"/>
          <path id="Path_92408" data-name="Path 92408" d="M476.449,528.649l-.276-7.7-5.921,1.893-.148,3.676.483,4.716Z" transform="translate(-428.439 -323.138)" fill="#ffbc82"/>
          <g id="Group_33935" data-name="Group 33935" transform="translate(36.397 80.238)">
            <path id="Path_92409" data-name="Path 92409" d="M475.168,307.729c.105-6.424-.052-9.216,1.027-15.666,0,0,.275,9.919,25.1.646l2.745-.74a46.3,46.3,0,0,1,4.686,21.871,19.563,19.563,0,0,1-.978,5.083l-3,9.16Z" transform="translate(-467.3 -291.969)" fill="#66b0a9"/>
            <path id="Path_92410" data-name="Path 92410" d="M477.731,410.244s1.915,3.169,3.755,3.412" transform="translate(-468.547 -349.514)" fill="none" stroke="#29201d" stroke-miterlimit="10" stroke-width="0.5"/>
            <path id="Path_92411" data-name="Path 92411" d="M477.731,410.244" transform="translate(-468.547 -349.514)" fill="none" stroke="#29201d" stroke-miterlimit="10" stroke-width="0.5"/>
            <g id="Group_33933" data-name="Group 33933" transform="translate(0 8.65)">
              <path id="Path_92412" data-name="Path 92412" d="M480.276,320.093a68.326,68.326,0,0,0-1.69-7.779l-10.688-3.5c-.1,1.451-6.49,26.747-7.193,37.341-.22,3.323-1.033,6.7-.826,10.041a14.574,14.574,0,0,0,1.892,6.88c1.4,2.8,1.579,7.45,1.931,10.62.447,4.028.362,9.1.52,13.071l14.384-.861c1-8.861,1.026-15.072-1.462-23.573-.764-2.608,1.5-5.976,2.155-8.557a71.164,71.164,0,0,0,1.59-8.48c.589-4.652,1.478-10.581.486-15.224" transform="translate(-459.846 -308.815)" fill="#606060"/>
              <path id="Path_92413" data-name="Path 92413" d="M482.752,458.957a39.279,39.279,0,0,1-1.833,9.7,126.365,126.365,0,0,0-5.421,26.773s-3.92.852-6.2-.223c0,0-.473-18.326-.8-31.285q-.051-2.03-.131-4.1" transform="translate(-463.992 -381.864)" fill="#606060"/>
              <path id="Path_92414" data-name="Path 92414" d="M462.267,411.62s1.42,3.419,3.2,3.935" transform="translate(-461.024 -358.833)" fill="none" stroke="#29201d" stroke-miterlimit="10" stroke-width="0.5"/>
            </g>
            <path id="Path_92415" data-name="Path 92415" d="M501.115,413.936s1.915,3.169,3.754,3.412" transform="translate(-479.925 -351.31)" fill="none" stroke="#29201d" stroke-miterlimit="10" stroke-width="0.5"/>
            <g id="Group_33934" data-name="Group 33934" transform="translate(15.699 11.277)">
              <path id="Path_92416" data-name="Path 92416" d="M517.418,383.837c-.339-8.911-1.394-9.791-5.124-17.824-1.145-2.465-.01-5.283.249-7.933a101.141,101.141,0,0,0,.824-10.256c-.113-4.687.713-20.405-.962-24.848l-6.56-9.044-15.425,2.787q.068.8.135,1.608l2.668,31.739c.279,3.319-.02,6.78.684,10.052.652,3.027,2.313,5.819,3.373,8.714,1.078,2.944,2.011,5.989,2.832,9.071,1.044,3.916,1.907,7.891,2.657,11.794q.391,2.035.743,4.037c2.257,12.765,4.707,18.214,5.55,31.153l6.211-.362a138.321,138.321,0,0,1,1.387-28.47A60.33,60.33,0,0,0,517.418,383.837Z" transform="translate(-490.42 -313.932)" fill="#606060"/>
            </g>
            <path id="Path_92417" data-name="Path 92417" d="M501.115,413.936" transform="translate(-479.925 -351.31)" fill="none" stroke="#29201d" stroke-miterlimit="10" stroke-width="0.5"/>
            <path id="Path_92418" data-name="Path 92418" d="M501.115,413.936s1.915,3.169,3.754,3.412" transform="translate(-479.925 -351.31)" fill="none" stroke="#29201d" stroke-miterlimit="10" stroke-width="0.5"/>
          </g>
          <path id="Path_92419" data-name="Path 92419" d="M489.686,183.6s-.554-4.364,1.679-5.095a4.314,4.314,0,0,0,2.776-3.072c.6-3.313,1.055-6.738.119-9.336l4.846-11.012a141.57,141.57,0,0,1,4.435,18.176c.5,3,3.061,3.887,4.1,4.494,2.234,1.311-3.775,15.225-14.927,8.392-.048-.027-.095-.058-.14-.089C490.336,184.652,491.6,186.852,489.686,183.6Z" transform="translate(-437.938 -145.132)" fill="#ffbc82"/>
          <path id="Path_92420" data-name="Path 92420" d="M497.727,188.792l.062-.181a3.366,3.366,0,0,0,.294-.861c.226-1.256.431-2.528.549-3.765l4.963-3.584S502.572,187.4,497.727,188.792Z" transform="translate(-441.879 -157.449)" fill="#de9066"/>
          <path id="Path_92421" data-name="Path 92421" d="M482.769,201.347l1-2.217s.7-.85,3.119-1.237a81.489,81.489,0,0,0,11.609-.493c3.519.911,6.356,6.485,6.7,7.577,3.871,12.165-1.17,16.035-2.655,23.581,0,0-1.014,11.283,1.053,17.483.148.446-15.562,11.678-24.622,5.777-2.559-1.667-3.239-5.766-3.239-5.766,1.659-7.82,1.462-11.783-.05-16.93-2.807-9.551-1.071-9.649.989-14.384.376-.865,1.949-4.3,2.507-5.514" transform="translate(-430.443 -165.72)" fill="#66b0a9"/>
          <path id="Path_92422" data-name="Path 92422" d="M483.391,211.406c.154-.335.761-7.707,4.836-10.637l.124.318Z" transform="translate(-434.904 -167.359)" fill="#fff"/>
          <g id="Group_33940" data-name="Group 33940" transform="translate(45.918)">
            <path id="Path_92423" data-name="Path 92423" d="M480.393,153.034s1.225,15.7,8.082,14.11c8.481-1.961,9.7-14.635,9.095-21.441-.289-3.248-3.433-3.891-6.651-4.419C485.916,140.462,479.571,144.119,480.393,153.034Z" transform="translate(-479.328 -138.363)" fill="#ffbc82"/>
            <path id="Path_92424" data-name="Path 92424" d="M478.9,142.674c1.508-3.341,7.159-6.988,12.2-6.972a9.124,9.124,0,0,1,9.3,7.961c1.247,7.53-4.277,7.36-4.277,7.36s-12.017,2.358-15.782-6.684c-1.81,3.022-.219,5.555-.637,7.7C479.7,152.043,477.391,146.015,478.9,142.674Z" transform="translate(-478.388 -135.702)" fill="#29211c"/>
            <path id="Path_92425" data-name="Path 92425" d="M480.311,165.445a35.3,35.3,0,0,1-.709,4.929c-.415,1.323.156,2.246,2.466,1.962" transform="translate(-478.918 -150.173)" fill="#ffbc82"/>
            <g id="Group_33936" data-name="Group 33936" transform="translate(4.682 20.883)">
              <path id="Path_92426" data-name="Path 92426" d="M490.9,176.373s-1.413,2.359-3.4,1.861" transform="translate(-487.507 -176.373)" fill="none" stroke="#29201d" stroke-miterlimit="10" stroke-width="0.25"/>
            </g>
            <g id="Group_33939" data-name="Group 33939" transform="translate(14.752 14.529)">
              <g id="Group_33937" data-name="Group 33937">
                <path id="Path_92427" data-name="Path 92427" d="M511.855,168.176c-.843,1.533-2.477,2.253-3.649,1.608s-1.439-2.41-.6-3.942,2.477-2.253,3.649-1.608S512.7,166.644,511.855,168.176Z" transform="translate(-507.118 -163.998)" fill="#ffbc82"/>
              </g>
              <g id="Group_33938" data-name="Group 33938" transform="translate(2.386 2.013)">
                <path id="Path_92428" data-name="Path 92428" d="M512.86,167.918s-.864.178-1.094,1.958" transform="translate(-511.766 -167.918)" fill="none" stroke="#29201d" stroke-miterlimit="10" stroke-width="0.5"/>
                <path id="Path_92429" data-name="Path 92429" d="M513.23,170.2a1.132,1.132,0,0,0-.831-.614" transform="translate(-512.074 -168.731)" fill="none" stroke="#29201d" stroke-miterlimit="10" stroke-width="0.5"/>
              </g>
            </g>
          </g>
          <path id="Path_92430" data-name="Path 92430" d="M485.768,167.982c-.02.336-.21.6-.423.586s-.371-.3-.352-.631.209-.6.423-.586S485.788,167.645,485.768,167.982Z" transform="translate(-435.683 -151.1)" fill="#29201d"/>
          <path id="Path_92431" data-name="Path 92431" d="M477.1,244.717" transform="translate(-431.844 -188.742)" fill="none" stroke="#29201d" stroke-miterlimit="10" stroke-width="0.5"/>
          <path id="Path_92432" data-name="Path 92432" d="M504.382,212.075" transform="translate(-445.117 -172.86)" fill="none" stroke="#29201d" stroke-miterlimit="10" stroke-width="0.5"/>
          <g id="Group_33941" data-name="Group 33941" transform="translate(0 53.862)">
            <path id="Path_92433" data-name="Path 92433" d="M400.232,245.395s-7.677-4.927-5.269-4.791a56.86,56.86,0,0,1,6.585,2.4,25.671,25.671,0,0,1,4.4,3.558Z" transform="translate(-391.654 -240.602)" fill="#66b0a9"/>
            <path id="Path_92434" data-name="Path 92434" d="M411.362,250.429,404.1,248.32l-.819,7.636,8.094-1.06Z" transform="translate(-395.928 -244.357)" fill="#66b0a9"/>
            <path id="Path_92435" data-name="Path 92435" d="M396.314,252.636a13.719,13.719,0,0,1-3.138-2.6c-.795-1.2-4.7-8.147-4.166-8.453.979-.563,3.57,1.856,5.093,3.161.395.338,1.128,1.015,3.03.259Z" transform="translate(-388.961 -241.036)" fill="#66b0a9"/>
            <line id="Line_1014" data-name="Line 1014" x2="4.399" y2="2.764" transform="translate(0.8 2.688)" fill="none" stroke="#29201d" stroke-miterlimit="10" stroke-width="0.5"/>
            <line id="Line_1015" data-name="Line 1015" x2="2.933" y2="1.466" transform="translate(2.436 5.847)" fill="none" stroke="#29201d" stroke-miterlimit="10" stroke-width="0.5"/>
            <line id="Line_1016" data-name="Line 1016" x2="2.256" y2="1.015" transform="translate(3.846 8.272)" fill="none" stroke="#29201d" stroke-miterlimit="10" stroke-width="0.5"/>
            <path id="Path_92436" data-name="Path 92436" d="M403.843,247.963s.991-.366,1.644-.669" transform="translate(-396.201 -243.858)" fill="none" stroke="#29201d" stroke-miterlimit="10" stroke-width="0.5"/>
          </g>
          <path id="Path_92437" data-name="Path 92437" d="M461.026,533.116s2.141,4.991,1.4,8.11c0,0-8.986.52-15.893,1.634s-10.694-2.674-6.016-4.456,14.185-6.61,14.185-6.61S455.321,536.442,461.026,533.116Z" transform="translate(-413.037 -328.415)" fill="#29201d"/>
          <g id="Group_33943" data-name="Group 33943" transform="translate(35.638 204.308)">
            <g id="Group_33942" data-name="Group 33942" transform="translate(0 0)">
              <path id="Path_92438" data-name="Path 92438" d="M462.509,535.081a2.053,2.053,0,0,1,1.71,1.771" transform="translate(-460.383 -534.321)" fill="none" stroke="#fff" stroke-miterlimit="10" stroke-width="0.5"/>
              <path id="Path_92439" data-name="Path 92439" d="M458.368,536.488a2.053,2.053,0,0,1,1.709,1.771" transform="translate(-458.368 -535.006)" fill="none" stroke="#fff" stroke-miterlimit="10" stroke-width="0.5"/>
              <path id="Path_92440" data-name="Path 92440" d="M466.287,533.6a2.053,2.053,0,0,1,1.71,1.771" transform="translate(-462.221 -533.602)" fill="none" stroke="#fff" stroke-miterlimit="10" stroke-width="0.5"/>
            </g>
          </g>
          <path id="Path_92441" data-name="Path 92441" d="M485.369,164.554a1.818,1.818,0,0,1,1.968,1.114" transform="translate(-435.867 -149.73)" fill="none" stroke="#29201d" stroke-miterlimit="10" stroke-width="0.5"/>
          <g id="Group_33944" data-name="Group 33944" transform="translate(55.819 26.437)">
            <path id="Path_92442" data-name="Path 92442" d="M507.35,187.19l-9.679,5.579,2.214,5.257,10.44-5.455Z" transform="translate(-497.671 -187.19)" fill="#66b0a9"/>
          </g>
          <path id="Path_92443" data-name="Path 92443" d="M494.269,194.938l.728,1.854-2.557,3.566-1.048-2.048Z" transform="translate(-438.797 -164.522)" fill="#66b0a9"/>
          <path id="Path_92444" data-name="Path 92444" d="M497.727,194.713l-.731.116.371.94S497.517,195.663,497.727,194.713Z" transform="translate(-441.524 -164.413)" fill="#29201d"/>
          <path id="Path_92445" data-name="Path 92445" d="M491.328,199.888l1.08,1.962,2.389-3.209,1.912,4.711,10.6-5.348" transform="translate(-438.766 -166.014)" fill="none" stroke="#29201d" stroke-miterlimit="10" stroke-width="0.5"/>
          <g id="Group_33946" data-name="Group 33946" transform="translate(46.461 14.786)">
            <g id="Group_33945" data-name="Group 33945" transform="translate(0 1.555)">
              <path id="Path_92446" data-name="Path 92446" d="M480.219,167.527s1.105,3.178,2.745,4.18,3.914-.364,5.188.819c0,0,.528,6.75-3.095,6.828C476.591,179.535,480.219,167.527,480.219,167.527Z" transform="translate(-479.446 -167.527)" fill="#fff"/>
              <path id="Path_92447" data-name="Path 92447" d="M484.572,181.4c2.311-.049,2.931-2.809,3.079-4.8a1.731,1.731,0,0,1,.562.345s.528,6.749-3.095,6.827c-4,.086-5.289-2.557-5.546-5.364C480.289,180.153,481.749,181.458,484.572,181.4Z" transform="translate(-479.507 -171.937)" fill="#e6e6e6"/>
            </g>
            <path id="Path_92448" data-name="Path 92448" d="M501.781,164.5s-4.006,5.1-9.1,6.918" transform="translate(-485.884 -164.498)" fill="none" stroke="#fff" stroke-miterlimit="10" stroke-width="0.5"/>
          </g>
          <path id="Path_92449" data-name="Path 92449" d="M490.66,363.271l-1.931-33.754-4.384-4.047" transform="translate(-435.369 -228.031)" fill="none" stroke="#29201d" stroke-miterlimit="10" stroke-width="0.25"/>
          <g id="Group_33947" data-name="Group 33947" transform="translate(64.559 205.309)">
            <path id="Path_92450" data-name="Path 92450" d="M518.833,537.033a2.052,2.052,0,0,1,1.71,1.771" transform="translate(-516.707 -536.273)" fill="none" stroke="#fff" stroke-miterlimit="10" stroke-width="0.5"/>
            <path id="Path_92451" data-name="Path 92451" d="M514.692,538.439a2.053,2.053,0,0,1,1.71,1.771" transform="translate(-514.692 -536.957)" fill="none" stroke="#fff" stroke-miterlimit="10" stroke-width="0.5"/>
            <path id="Path_92452" data-name="Path 92452" d="M522.611,535.553a2.052,2.052,0,0,1,1.71,1.771" transform="translate(-518.545 -535.553)" fill="none" stroke="#fff" stroke-miterlimit="10" stroke-width="0.5"/>
          </g>
          <path id="Path_92453" data-name="Path 92453" d="M496.353,302.971l-.117-1.433c-6.357-15.685-24.677-40.506-33.111-61.463-1.537-3.82-4.1-10.867-1.039-16.621,2.069-3.892,4.915-3.82,9.8-8.895,5.855-6.077,9.445-14.144,8.181-15.192-1.376-1.14-9.365,5.318-14.8,11.686a56.52,56.52,0,0,0-8.341,13.077,38.443,38.443,0,0,0,1.354,5.884c.19.649.36,1.28.508,1.9l-13.421,75.116q2.752.694,5.305,1.282c.2.447.424.92.689,1.449.051.1.1.21.145.316h0c1.268,2.827,1.448,7.249,1.787,10.3.447,4.028.363,9.1.52,13.071q.082,2.07.131,4.1c.324,12.959.8,31.285.8,31.285l.009,0-.046,1.147s-9.506,4.828-14.185,6.61c-3.434,1.308-2.3,3.695,1.271,4.432a6.155,6.155,0,0,1,4.651-5.786c5.738-2.132,8.607-3.2,9.869-4.285,2.877-2.48.888-7.587,0-15.387-.8-6.991-.012-15.828,1.558-33.5.223-2.51.443-4.7.506-6.522q5.526,1.048,10.1,1.7a48.681,48.681,0,0,0-1.082-5.8c1.469.2,2.857.356,4.182.485.149.362.293.725.426,1.089.141.385.271.776.407,1.165q.3.845.579,1.7c.127.387.25.777.373,1.167q.792,2.495,1.474,5.042c1.044,3.916,1.907,7.891,2.657,11.794q.39,2.035.743,4.037c2.257,12.765,4.707,18.214,5.55,31.153h.008l-.082,2.024s-9.506,4.827-14.185,6.609c-2.493.95-2.581,2.469-1.075,3.513.913-.539,2.115-1.7,4.551-3.123,6.516-3.8,10.767-2.952,12.206-6.233a6.12,6.12,0,0,0,.13-3.9c-5.579-26.225-8.37-39.338-8.051-43.5a26.826,26.826,0,0,0,.086-6.238,52.051,52.051,0,0,0,13.165-.328c-.667-1.768-1.593-3.61-2.884-6.342C497.94,309.322,496.353,302.971,496.353,302.971Z" transform="translate(-413.038 -166.613)" fill="#6677b0" opacity="0.35" style="mix-blend-mode: multiply;isolation: isolate"/>
        </g>
        <path id="Path_92454" data-name="Path 92454" d="M505.794,214.178c.286-2.626,2.173-14.447-7.109-16.152-3.685-.677-6.937,3.191-6.937,3.191l-15.943,23.219,1.5,13.837-4.738,65.2c19.853,6.768,40.383-1.128,40.383-1.128Z" transform="translate(-429.64 -165.239)" fill="#fff"/>
        <g id="Group_33951" data-name="Group 33951" transform="translate(13.659 30.536)">
          <g id="Group_33949" data-name="Group 33949" transform="translate(42.623)" opacity="0.35" style="mix-blend-mode: multiply;isolation: isolate">
            <path id="Path_92455" data-name="Path 92455" d="M498.584,193.718l-.01.059C498.577,193.758,498.581,193.738,498.584,193.718Z" transform="translate(-498.574 -193.718)" fill="#6677b0"/>
          </g>
          <g id="Group_33950" data-name="Group 33950" transform="translate(0 6.124)">
            <path id="Path_92456" data-name="Path 92456" d="M472.283,207.275c1,1.6,5.715,9.927-.53,13.756-5.213,3.2-24.859,18.95-29.249,19.784-4.982.945-20.951-3.158-26.941-6.242l1.053-5.621s20.3,2.1,23.757,4.3C440.372,233.256,466.278,197.723,472.283,207.275Z" transform="translate(-415.563 -205.644)" fill="#fff"/>
          </g>
        </g>
        <path id="Path_92457" data-name="Path 92457" d="M461.3,259.307s-.439.57-2.651.857" transform="translate(-422.866 -195.093)" fill="none" stroke="#29201d" stroke-miterlimit="10" stroke-width="0.5"/>
        <line id="Line_1017" data-name="Line 1017" x1="22.936" y2="15.491" transform="translate(44.811 54.083)" fill="none" stroke="#29201d" stroke-miterlimit="10" stroke-width="0.5"/>
        <line id="Line_1018" data-name="Line 1018" x1="1.166" y2="6.618" transform="translate(16.649 60.268)" fill="none" stroke="#29201d" stroke-miterlimit="10" stroke-width="0.5"/>
        <circle id="Ellipse_1546" data-name="Ellipse 1546" cx="0.479" cy="0.479" r="0.479" transform="translate(15.201 61.001)" fill="none" stroke="#29201d" stroke-miterlimit="10" stroke-width="0.5"/>
        <path id="Path_92458" data-name="Path 92458" d="M498.126,348.384c-6.39.346-7.946-6.325-8.315-10.11l-.108.008s-.472,13.115,8.423,12.634c7.778-.42,8.5-7.008,8.235-10.94C506.079,343.706,504.389,348.045,498.126,348.384Z" transform="translate(-437.973 -233.513)" fill="#6677b0" opacity="0.35" style="mix-blend-mode: multiply;isolation: isolate"/>
        <path id="Path_92459" data-name="Path 92459" d="M489.7,337.149l16.243-1.2s3.309,13.236-7.821,13.837C489.23,350.264,489.7,337.149,489.7,337.149Z" transform="translate(-437.973 -232.381)" fill="none" stroke="#29201d" stroke-miterlimit="10" stroke-width="0.5"/>
      </g>
    </g>
    <g id="Group_33960" data-name="Group 33960" transform="translate(276.106 157.604)">
      <path id="Path_92460" data-name="Path 92460" d="M289.141,280.517s.8,20.094.884,24.756-1.451,5.637-1.179,10.757,3.684,20.04,3.684,20.04l4.882-2.6s1.122-18.357.238-25.652c-.839-6.928,3.082-29.071,3.082-29.071Z" transform="translate(-282.289 -227.906)" fill="#f9be89"/>
      <rect id="Rectangle_12439" data-name="Rectangle 12439" width="1.842" height="61.006" transform="translate(7.957 127.983)" fill="#606060"/>
      <rect id="Rectangle_12440" data-name="Rectangle 12440" width="1.842" height="61.006" transform="translate(65.721 127.983)" fill="#606060"/>
      <rect id="Rectangle_12441" data-name="Rectangle 12441" width="74.931" height="19.23" rx="5.1" transform="translate(0 111.406)" fill="#fff"/>
      <path id="Path_92461" data-name="Path 92461" d="M348.937,411.395H276.106v5.316c0,3.12,1.4,5.649,3.132,5.649h68.668c1.729,0,3.132-2.529,3.132-5.649v-6.8A2.618,2.618,0,0,1,348.937,411.395Z" transform="translate(-276.106 -291.724)" fill="#dee0b6"/>
      <g id="Group_33959" data-name="Group 33959" transform="translate(5.323 0)">
        <path id="Path_92462" data-name="Path 92462" d="M374.49,279.207s2.079,7.7,2.208,20.409c.131,12.905-.058,21.161-.058,21.161l-5.575,2.02-5.09-44.518Z" transform="translate(-325.154 -227.68)" fill="#f9be89"/>
        <path id="Path_92463" data-name="Path 92463" d="M381.11,524.58l.34-9.471,7.281,2.328.183,4.521-.594,5.8Z" transform="translate(-332.517 -342.906)" fill="#ffbc82"/>
        <path id="Path_92464" data-name="Path 92464" d="M379.346,530.072s-2.632,6.138-1.719,9.974c0,0,11.05.639,19.544,2.009s13.151-3.288,7.4-5.48-17.443-8.128-17.443-8.128S386.363,534.163,379.346,530.072Z" transform="translate(-330.729 -349.396)" fill="#29201d"/>
        <g id="Group_33954" data-name="Group 33954" transform="translate(56.802 180.055)">
          <path id="Path_92465" data-name="Path 92465" d="M403.847,532.221a2.524,2.524,0,0,0-2.1,2.178" transform="translate(-399.358 -531.287)" fill="none" stroke="#fff" stroke-miterlimit="10" stroke-width="0.5"/>
          <path id="Path_92466" data-name="Path 92466" d="M408.94,533.951a2.524,2.524,0,0,0-2.1,2.178" transform="translate(-401.836 -532.129)" fill="none" stroke="#fff" stroke-miterlimit="10" stroke-width="0.5"/>
          <path id="Path_92467" data-name="Path 92467" d="M399.2,530.4a2.524,2.524,0,0,0-2.1,2.178" transform="translate(-397.098 -530.402)" fill="none" stroke="#fff" stroke-miterlimit="10" stroke-width="0.5"/>
        </g>
        <path id="Path_92468" data-name="Path 92468" d="M349.255,526.015l.34-9.471,7.281,2.328.183,4.521-.594,5.8Z" transform="translate(-317.018 -343.605)" fill="#ffbc82"/>
        <path id="Path_92469" data-name="Path 92469" d="M347.491,531.507s-2.632,6.138-1.719,9.974c0,0,11.051.639,19.544,2.009s13.151-3.288,7.4-5.48-17.443-8.128-17.443-8.128S354.507,535.6,347.491,531.507Z" transform="translate(-315.23 -350.094)" fill="#29201d"/>
        <g id="Group_33955" data-name="Group 33955" transform="translate(40.446 180.792)">
          <path id="Path_92470" data-name="Path 92470" d="M371.992,533.656a2.524,2.524,0,0,0-2.1,2.178" transform="translate(-367.503 -532.722)" fill="none" stroke="#fff" stroke-miterlimit="10" stroke-width="0.5"/>
          <path id="Path_92471" data-name="Path 92471" d="M377.084,535.386a2.524,2.524,0,0,0-2.1,2.178" transform="translate(-369.981 -533.564)" fill="none" stroke="#fff" stroke-miterlimit="10" stroke-width="0.5"/>
          <path id="Path_92472" data-name="Path 92472" d="M367.345,531.837a2.524,2.524,0,0,0-2.1,2.178" transform="translate(-365.243 -531.837)" fill="none" stroke="#fff" stroke-miterlimit="10" stroke-width="0.5"/>
        </g>
        <path id="Path_92473" data-name="Path 92473" d="M365.342,370.844c.494-3.47,2.644-8.19,1.474-11.494-.614-1.73-5.385-6.473-6.337-6.926l-23.429-16.8s-16.724-14.921-22.1-6.41c-3.963-.559-7.275,3.3-6.631,14.367.05.86-1.768,21,15.771,26.112A232.806,232.806,0,0,0,326,403.705c3.095,21.219,2.21,27.85,2.21,27.85l12.306-1.675s3.4-36.831,3.192-60.382q1.912.372,4.008.643c-2.238,7.727-1.1,19.2-1.6,29.143-1.1,22.1-2.972,30.531-2.972,30.531l11.421,1.232S362.708,389.346,365.342,370.844Z" transform="translate(-297.061 -251.187)" fill="#856042"/>
        <path id="Path_92474" data-name="Path 92474" d="M326,415.716c3.095,21.219,2.21,27.85,2.21,27.85l.853-.116c-.138-4.592,1.081-11.328.023-25.193-1.278-16.731-4.023-19.6-1.378-28.138,2.271-7.332,5.989-10.69,4.132-14.955-2.292-5.263-9.551-3.817-13.184-10.428-2.464-4.485-.36-7.4-3.149-10.429a10.931,10.931,0,0,0-7.233-3.028,41.223,41.223,0,0,0,.041,4.315c.05.86-1.768,21,15.771,26.112A232.819,232.819,0,0,0,326,415.716Z" transform="translate(-297.062 -263.197)" fill="#6677b0" opacity="0.35" style="mix-blend-mode: multiply;isolation: isolate"/>
        <path id="Path_92475" data-name="Path 92475" d="M376.939,411.436l-.408,18.488C376.8,423.485,376.972,417.1,376.939,411.436Z" transform="translate(-330.289 -292.466)" fill="#66b0a9"/>
        <path id="Path_92476" data-name="Path 92476" d="M337.051,339.538a58.225,58.225,0,0,0-6-4.553,30.124,30.124,0,0,0-13.579.991,28.64,28.64,0,0,0-9.012,4.975,35.707,35.707,0,0,0-.148,6.544c0,.081-.007.334-.018.728a48.632,48.632,0,0,0,5.242.839c10.4,1.2,17.358,1.9,23.514-2.459,1.393-.985,3.4-2.412,4.247-4.016Z" transform="translate(-297.062 -255.098)" fill="#6677b0" opacity="0.35" style="mix-blend-mode: multiply;isolation: isolate"/>
        <g id="Group_33958" data-name="Group 33958">
          <path id="Path_92477" data-name="Path 92477" d="M367.167,247.365s5.992.7,8,18.545c0,0-4.683,2.23-11.819.446Z" transform="translate(-323.875 -212.639)" fill="#66b0a9"/>
          <path id="Path_92478" data-name="Path 92478" d="M368.986,310.757l1.819,1.3a9.268,9.268,0,0,0,1.1-3.16c1.324-6.261.187-10.127-.131-18.1-.221-5.532-.332-8.3-.262-9.707.186-3.785.64-6.02-.787-7.478-1.192-1.218-2.627-6.195-4.2-5.641a4.044,4.044,0,0,0-1.753,1.3l-1.425,7.085c.6.151,1.181.263,1.748.361Z" transform="translate(-323.875 -222.645)" fill="#6677b0" opacity="0.35" style="mix-blend-mode: multiply;isolation: isolate"/>
          <path id="Path_92479" data-name="Path 92479" d="M294.771,248.708s-8.047,2.83-8.3,24.322c0,0,1,4.516,14.551,1.505C301.024,274.536,307.684,257.671,294.771,248.708Z" transform="translate(-286.473 -213.293)" fill="#66b0a9"/>
          <path id="Path_92480" data-name="Path 92480" d="M336.8,223.321a29.719,29.719,0,0,1-6.566-.832,4.588,4.588,0,0,1-3.2-3.439c-.874-4.026-1.584-8.193-.553-11.412L315,198.534a172.3,172.3,0,0,1,.439,18.271c-.075,3.724-5.581,5.269-6.82,6.056-2.675,1.7.3,1.377-5.027,2.2,0,0,12.317,15.871,25.656,7.028.057-.035.113-.074.167-.116A23.852,23.852,0,0,0,336.8,223.321Z" transform="translate(-294.801 -188.882)" fill="#f9be89"/>
          <path id="Path_92481" data-name="Path 92481" d="M332.663,223.459s.87,6.093,8.179,6.192l-.362-2.287Z" transform="translate(-308.946 -201.008)" fill="#c4966c"/>
          <path id="Path_92482" data-name="Path 92482" d="M334.021,190.2s6.207,15.039-.76,17.548c-8.617,3.1-15.262-7.871-18.609-14.234-1.6-3.037.489-5.823,3.36-7.7C325.994,180.6,327.879,183.519,334.021,190.2Z" transform="translate(-299.914 -181.391)" fill="#f9be89"/>
          <path id="Path_92483" data-name="Path 92483" d="M328.281,181.422c-3.238-2.094-7.765-2.525-12.213.364s-7.053,7.988-5.082,12.519c5.882,13.521,7.989,8.6,7.989,8.6s-3.424-3.073-.527-4.916c3.442-2.191.228-4.731,1.4-7.024,0,0,8.413-4.283,6.584-7.9,3.217,4.081,4.233,3.231,6.014,6.211C332.451,189.278,331.52,183.516,328.281,181.422Z" transform="translate(-298.075 -179.735)" fill="#856042"/>
          <path id="Path_92484" data-name="Path 92484" d="M338.448,258.725c-.046-1.472-1.2-13.186-1.2-13.188a10.593,10.593,0,0,0-2.958-.516,36.121,36.121,0,0,1-4.92-.8c-1.113-.287.873,3.959-7.315,5.035a13.589,13.589,0,0,1-11.857-5.653c-3.236,1.7-8.48,1.894-8.348,3.29,3,31.686,3.024,45.488,3.139,51.227.147,7.368,10.389,7.073,32.271,1.916C343.71,298.518,338.8,270.053,338.448,258.725Z" transform="translate(-293.951 -210.811)" fill="#66b0a9"/>
          <path id="Path_92485" data-name="Path 92485" d="M321.9,320.241c-1.911-.279-4.671-.038-7.5-2.154-3.958-2.962-4.83-8.14-5.116-9.839-.856-5.085,1.2-5.82.787-12a35.365,35.365,0,0,0-2.952-11.216c-1.2-3.024-2.063-5.212-2.778-6.576,1.726,21.517,1.763,31.858,1.858,36.624C306.3,320.238,311.366,321.636,321.9,320.241Z" transform="translate(-295.167 -227.765)" fill="#6677b0" opacity="0.35" style="mix-blend-mode: multiply;isolation: isolate"/>
          <line id="Line_1019" data-name="Line 1019" x1="1.082" y1="11.647" transform="translate(9.068 50.247)" fill="none" stroke="#120e0c" stroke-miterlimit="10" stroke-width="0.5"/>
          <line id="Line_1020" data-name="Line 1020" x2="0.284" y2="9.199" transform="translate(44.421 45.328)" fill="none" stroke="#120e0c" stroke-miterlimit="10" stroke-width="0.5"/>
          <g id="Group_33956" data-name="Group 33956" transform="translate(25.388 10.539)">
            <path id="Path_92486" data-name="Path 92486" d="M347.187,203.318a12.6,12.6,0,0,0,2.06,3.061c.931.774.948,1.721-.881,2.606" transform="translate(-341.401 -201.748)" fill="none" stroke="#120e0c" stroke-miterlimit="10" stroke-width="0.5"/>
            <path id="Path_92487" data-name="Path 92487" d="M335.918,207.64a1.869,1.869,0,0,1,2.135-1.184" transform="translate(-335.918 -203.245)" fill="none" stroke="#856042" stroke-miterlimit="10" stroke-width="0.5"/>
            <path id="Path_92488" data-name="Path 92488" d="M341.164,209.128a1.869,1.869,0,0,1-2.135,1.184" transform="translate(-337.432 -204.575)" fill="none" stroke="#120e0c" stroke-miterlimit="10" stroke-width="0.5"/>
            <path id="Path_92489" data-name="Path 92489" d="M353.3,203.315a1.87,1.87,0,0,1-2.135,1.184" transform="translate(-343.338 -201.747)" fill="none" stroke="#120e0c" stroke-miterlimit="10" stroke-width="0.5"/>
            <path id="Path_92490" data-name="Path 92490" d="M349.161,201.507a1.87,1.87,0,0,1,2.135-1.184" transform="translate(-342.361 -200.261)" fill="none" stroke="#856042" stroke-miterlimit="10" stroke-width="0.5"/>
          </g>
          <path id="Path_92491" data-name="Path 92491" d="M323.8,219.58c1.619.874,3.474.579,4.143-.659s-.1-2.951-1.722-3.825-3.475-.579-4.143.659S322.176,218.706,323.8,219.58Z" transform="translate(-303.677 -196.695)" fill="#f9be89"/>
          <g id="Group_33957" data-name="Group 33957" transform="translate(19.357 19.823)">
            <path id="Path_92492" data-name="Path 92492" d="M324.171,218.428s.905-.588,2.424,1.288" transform="translate(-324.171 -218.341)" fill="none" stroke="#120e0c" stroke-miterlimit="10" stroke-width="0.5"/>
            <path id="Path_92493" data-name="Path 92493" d="M325.935,220.419a1.385,1.385,0,0,1,.447-1.181" transform="translate(-325.022 -218.777)" fill="none" stroke="#120e0c" stroke-miterlimit="10" stroke-width="0.5"/>
          </g>
          <path id="Path_92494" data-name="Path 92494" d="M358.924,268.422s10.9,29.766-.884,36.839" transform="translate(-321.293 -222.884)" fill="none" stroke="#29201d" stroke-miterlimit="10" stroke-width="0.5"/>
          <path id="Path_92495" data-name="Path 92495" d="M318.723,256.943s7.885,15.693,14.441,12.967" transform="translate(-302.164 -217.299)" fill="none" stroke="#29201d" stroke-miterlimit="10" stroke-width="0.5"/>
          <path id="Path_92496" data-name="Path 92496" d="M324.75,281.049s5.6,25.346,15.03,23.577" transform="translate(-305.096 -229.028)" fill="none" stroke="#29201d" stroke-miterlimit="10" stroke-width="0.5"/>
        </g>
        <path id="Path_92497" data-name="Path 92497" d="M353.162,366.571s12.433,7.22,12.433,11.936v10.609" transform="translate(-318.92 -270.637)" fill="none" stroke="#29201d" stroke-miterlimit="10" stroke-width="0.5"/>
        <path id="Path_92498" data-name="Path 92498" d="M339.107,410.538s1.027,1.3,4.932.78" transform="translate(-312.081 -292.029)" fill="none" stroke="#29201d" stroke-miterlimit="10" stroke-width="0.5"/>
        <path id="Path_92499" data-name="Path 92499" d="M384.443,411.34s1.345,1.6,5.3.737" transform="translate(-334.139 -292.419)" fill="none" stroke="#29201d" stroke-miterlimit="10" stroke-width="0.5"/>
        <path id="Path_92500" data-name="Path 92500" d="M389.02,459.4a45.233,45.233,0,0,1-16.922-7.674s.394-12.593.984-18.693,8.068-48.012,6.887-48.8-13.364-15.954-17.168-21.6l-.4.444a9.692,9.692,0,0,0-1.993,3.432l-.166.5s8.052,5.214,8.642,8.494.148,11.4.148,11.4l0,.132q1.9.37,3.99.64c-2.238,7.727-1.105,19.2-1.6,29.143-1.1,22.1-2.972,30.531-2.972,30.531l2.613.282-.064,1.772-.011-.006a28.937,28.937,0,0,0-1,2.84c3.413,1.634,7.252,3.4,9.867,4.4,2.679,1.02,3.1,2.575,1.928,3.807,2.355.262,4.782.573,7.031.935,4.344.7,7.681-.177,9.138-1.494A26.061,26.061,0,0,1,389.02,459.4Z" transform="translate(-322.364 -268.723)" fill="#6677b0" opacity="0.35" style="mix-blend-mode: multiply;isolation: isolate"/>
      </g>
      <path id="Path_92501" data-name="Path 92501" d="M288.72,385.652l-3.526,4.635s-3.481,1.828-3.351,3.351c.2,2.374.218,3.177.87,3.177s.849-3.46.849-3.46l3.395-2.807L294,389.8l.037-4.936Z" transform="translate(-278.896 -279.539)" fill="#f9be89"/>
      <path id="Path_92502" data-name="Path 92502" d="M360.472,366.9s-.295-1.916,2.579-4.347" transform="translate(-317.149 -268.683)" fill="none" stroke="#29201d" stroke-miterlimit="10" stroke-width="0.5"/>
      <path id="Path_92503" data-name="Path 92503" d="M288.11,391.653c-.545.109-4.992,4.634-4.992,4.634s.346,5.288,1.654,5.179.435-4.743.435-4.743l5.627-4.742Z" transform="translate(-279.518 -282.841)" fill="#f9be89"/>
      <path id="Path_92504" data-name="Path 92504" d="M295.155,391.334c-.526.179-4.154,4.319-4.154,4.319s.524,6.492,1.806,6.212.718-5.952.718-5.952l3.96-2.829Z" transform="translate(-283.353 -282.686)" fill="#f9be89"/>
      <path id="Path_92505" data-name="Path 92505" d="M291.77,392.831c-.545.109-5.261,4.2-5.261,4.2s.346,6.071,1.653,5.962,1.262-5.962,1.262-5.962l5.07-3.876Z" transform="translate(-281.167 -283.414)" fill="#f9be89"/>
      <path id="Path_92506" data-name="Path 92506" d="M291.646,401.02l-.258-3.647,2.321-2.247" transform="translate(-283.541 -284.53)" fill="none" stroke="#29201d" stroke-miterlimit="10" stroke-width="0.5"/>
      <path id="Path_92507" data-name="Path 92507" d="M288.9,395.2l-2.1,2.321.368,4.752" transform="translate(-281.307 -284.565)" fill="none" stroke="#29201d" stroke-miterlimit="10" stroke-width="0.5"/>
      <path id="Path_92508" data-name="Path 92508" d="M285.115,397.135l-1.547,1.952.258,3.426" transform="translate(-279.736 -285.508)" fill="none" stroke="#29201d" stroke-miterlimit="10" stroke-width="0.5"/>
      <path id="Path_92509" data-name="Path 92509" d="M302.388,389.063s.009,1.962,1.437,2.487a14.683,14.683,0,0,1,1.853.768s1.012.684-.8.984a26.257,26.257,0,0,1-5.641-.258Z" transform="translate(-287.358 -281.581)" fill="#f9be89"/>
      <path id="Path_92510" data-name="Path 92510" d="M301.18,332.763a3.56,3.56,0,0,0-1.547,2.431s-.479-2.689-1.142-3.2" transform="translate(-286.997 -253.812)" fill="none" stroke="#120e0c" stroke-linejoin="round" stroke-width="0.5"/>
    </g>
  </g>
</svg>
