<svg xmlns="http://www.w3.org/2000/svg" width="234.143" height="216.999" viewBox="0 0 234.143 216.999">
  <g id="Group_35255" data-name="Group 35255" transform="translate(-144.021 -2625.146)">
    <path id="Path_92402" data-name="Path 92402" d="M377.664,2417.852H144.521" transform="translate(0 388.837)" fill="none" stroke="#707070" stroke-linecap="round" stroke-width="1" opacity="0.31"/>
    <g id="Group_33931" data-name="Group 33931" transform="translate(173.056 2625.147)">
      <g id="Character" transform="translate(0 0)">
        <g id="Group_33930" data-name="Group 33930">
          <g id="Group_33532" data-name="Group 33532" transform="translate(0.356 33.379)">
            <g id="Group_33523" data-name="Group 33523">
              <g id="Group_33522" data-name="Group 33522">
                <path id="Path_92296" data-name="Path 92296" d="M376.1,306.175c-4.332-1.236-6.027,1.085-6.027,1.085s1.385-8.309-3.047-28.8-25.216-38.634-28.251-44.249c-2.919-5.4-6.245-27.809-7.825-39.5a18.127,18.127,0,0,0-9.143-13.453,112.848,112.848,0,0,0-11.94-5.573c.6-.364-4.42-8.173-8.925-8.18-4.085-.006-25.218-7.89-37.452,4.5-1.7,1.719-4.238,9.784-4.238,9.784s-4.243,4.466-7.88,7.822S234.4,227.782,229.1,236.874,225,265.364,225,265.364c-12.426,3.031-22.386,8.817-26.1,23.062s8.448,24.464,8.448,24.464l173.315-.086C380.358,309.432,378.278,306.8,376.1,306.175Z" transform="translate(-198.204 -165.028)" fill="#e8505b"/>
              </g>
            </g>
            <g id="Group_33525" data-name="Group 33525" transform="translate(98.558 6.73)" opacity="0.5">
              <g id="Group_33524" data-name="Group 33524">
                <path id="Path_92297" data-name="Path 92297" d="M373.582,177.032c.609-.18,8.751.167,10.979,11.361l-8.527.437Z" transform="translate(-373.582 -177.004)"/>
              </g>
            </g>
            <g id="Group_33527" data-name="Group 33527" transform="translate(124.415 106.758)" opacity="0.5">
              <g id="Group_33526" data-name="Group 33526">
                <path id="Path_92298" data-name="Path 92298" d="M458.182,369.35c-5.685-12.366-26.525-6.566-31.041-9.508-1.965-1.28-4.884-2.153-7.549-4.846l.565,6.986,2.368,34.294,40.032-.175S463.868,381.716,458.182,369.35Z" transform="translate(-419.592 -354.996)"/>
              </g>
            </g>
            <g id="Group_33529" data-name="Group 33529" transform="translate(1.598 79.4)" opacity="0.5">
              <g id="Group_33528" data-name="Group 33528">
                <path id="Path_92299" data-name="Path 92299" d="M261.123,306.315c-.711.533-15.463,6.4-15.463,6.932S243.7,333.51,243.7,333.51l-25.24,3.555L207.8,342.757l-4.166,8.253-2.588,8.628,6.212,11.072,3.426,4.1,61.636.178V328.71s-9.5-22.4-10.35-22.4" transform="translate(-201.047 -306.315)"/>
              </g>
            </g>
            <g id="Group_33531" data-name="Group 33531" transform="translate(61.492 5.738)" opacity="0.5">
              <g id="Group_33530" data-name="Group 33530">
                <path id="Path_92300" data-name="Path 92300" d="M307.625,191.674s2.611-5.819,3.032-6.2a19.15,19.15,0,0,0,.967-3.838,10.151,10.151,0,0,1,1.642-3.993,9.364,9.364,0,0,1,2.873-2.406h0l4.96,11.336-3.9,5.565Z" transform="translate(-307.625 -175.238)"/>
              </g>
            </g>
          </g>
          <g id="Group_33735" data-name="Group 33735" transform="translate(41.123 3.629)">
            <g id="Group_33534" data-name="Group 33534" transform="translate(14.599 46.479)">
              <g id="Group_33533" data-name="Group 33533">
                <path id="Path_92301" data-name="Path 92301" d="M354.687,196.624,342.928,194.8l-34.554,2.942s-12.357,28.4-11.62,29.188c.374.4,10.182,31.662,10.182,31.662l-.686,25.731s-3.5,4.328-4.1,7.42c-1.885,9.744,62.759,12.079,64.345,6.287V203.614Z" transform="translate(-296.722 -194.798)" fill="#455a64"/>
              </g>
            </g>
            <g id="Group_33536" data-name="Group 33536" transform="translate(0 49.421)">
              <g id="Group_33535" data-name="Group 33535">
                <path id="Path_92302" data-name="Path 92302" d="M296.995,200.033s-10.9,1.1-13.874,8.4-12.139,48.989-12.139,48.989-1.361,9.061,2.446,13.925c3.243,4.145,13.156,3.256,19.1.55,9.895-4.5,17.737-34.526,17.737-34.526l4.279-10.394-16.063-5.26-7.3,15.788Z" transform="translate(-270.745 -200.033)" fill="#455a64"/>
              </g>
            </g>
            <g id="Group_33538" data-name="Group 33538" transform="translate(45.071 47.307)">
              <g id="Group_33537" data-name="Group 33537">
                <path id="Path_92303" data-name="Path 92303" d="M371.315,196.27c.6.149,19.456,2.792,22.882,5.92s3.017,30.989,3.017,30.989-3.009,35.127-5.839,37.41-15.223,10.7-22.176-5.225c-2.028-4.645-6.482-10.328-9.261-16.21a219.547,219.547,0,0,1-8.992-22.45l15.838-7.417L379.072,240.1l-2.225-29.861Z" transform="translate(-350.946 -196.27)" fill="#455a64"/>
              </g>
            </g>
            <g id="Group_33682" data-name="Group 33682" transform="translate(13.788)">
              <g id="Group_33658" data-name="Group 33658" transform="translate(10.543 4.965)">
                <g id="Group_33657" data-name="Group 33657">
                  <g id="Group_33656" data-name="Group 33656">
                    <g id="Group_33629" data-name="Group 33629">
                      <g id="Group_33628" data-name="Group 33628">
                        <g id="Group_33627" data-name="Group 33627">
                          <g id="Group_33556" data-name="Group 33556">
                            <g id="Group_33555" data-name="Group 33555">
                              <g id="Group_33554" data-name="Group 33554">
                                <g id="Group_33541" data-name="Group 33541">
                                  <g id="Group_33540" data-name="Group 33540">
                                    <g id="Group_33539" data-name="Group 33539">
                                      <path id="Path_92304" data-name="Path 92304" d="M314.285,140.634a16.88,16.88,0,0,1,12.462-19.2l.847-.216c9.269-1.8,15.974,5.067,17.516,14.382l7.682,36.962a1.7,1.7,0,0,1-.588,1.663l-18.071,14.817-4.225-19.349s-9.128.877-11.478-7.872C317.294,157.59,315.665,148.7,314.285,140.634Z" transform="translate(-314.04 -120.926)" fill="#ffbe9d"/>
                                    </g>
                                  </g>
                                </g>
                                <g id="Group_33553" data-name="Group 33553" transform="translate(15.791 42.465)">
                                  <g id="Group_33552" data-name="Group 33552">
                                    <g id="Group_33551" data-name="Group 33551">
                                      <g id="Group_33550" data-name="Group 33550">
                                        <g id="Group_33549" data-name="Group 33549">
                                          <g id="Group_33548" data-name="Group 33548">
                                            <g id="Group_33547" data-name="Group 33547">
                                              <g id="Group_33546" data-name="Group 33546">
                                                <g id="Group_33545" data-name="Group 33545">
                                                  <g id="Group_33544" data-name="Group 33544">
                                                    <g id="Group_33543" data-name="Group 33543">
                                                      <g id="Group_33542" data-name="Group 33542">
                                                        <path id="Path_92305" data-name="Path 92305" d="M342.139,202.793a21.973,21.973,0,0,0,10.642-6.3s-1.092,7.007-10.052,8.454Z" transform="translate(-342.139 -196.49)" fill="#eb996e"/>
                                                      </g>
                                                    </g>
                                                  </g>
                                                </g>
                                              </g>
                                            </g>
                                          </g>
                                        </g>
                                      </g>
                                    </g>
                                  </g>
                                </g>
                              </g>
                            </g>
                          </g>
                          <g id="Group_33626" data-name="Group 33626" transform="translate(2.497 18.253)">
                            <g id="Group_33625" data-name="Group 33625">
                              <g id="Group_33600" data-name="Group 33600" transform="translate(1.101 3.382)">
                                <g id="Group_33599" data-name="Group 33599">
                                  <g id="Group_33598" data-name="Group 33598">
                                    <g id="Group_33570" data-name="Group 33570" transform="translate(0 3.246)">
                                      <g id="Group_33569" data-name="Group 33569">
                                        <g id="Group_33568" data-name="Group 33568">
                                          <g id="Group_33567" data-name="Group 33567">
                                            <g id="Group_33566" data-name="Group 33566">
                                              <g id="Group_33565" data-name="Group 33565">
                                                <g id="Group_33564" data-name="Group 33564">
                                                  <g id="Group_33563" data-name="Group 33563">
                                                    <g id="Group_33562" data-name="Group 33562">
                                                      <g id="Group_33561" data-name="Group 33561">
                                                        <g id="Group_33560" data-name="Group 33560">
                                                          <g id="Group_33559" data-name="Group 33559">
                                                            <g id="Group_33558" data-name="Group 33558">
                                                              <g id="Group_33557" data-name="Group 33557">
                                                                <path id="Path_92306" data-name="Path 92306" d="M325.524,165.22c-.176-.152-1.08.667-2.465.8-1.382.153-2.47-.459-2.6-.274-.066.083.126.369.6.648a3.551,3.551,0,0,0,2.1.427,3.41,3.41,0,0,0,1.942-.846C325.5,165.606,325.61,165.288,325.524,165.22Z" transform="translate(-320.442 -165.202)" fill="#263238"/>
                                                              </g>
                                                            </g>
                                                          </g>
                                                        </g>
                                                      </g>
                                                    </g>
                                                  </g>
                                                </g>
                                              </g>
                                            </g>
                                          </g>
                                        </g>
                                      </g>
                                    </g>
                                    <g id="Group_33584" data-name="Group 33584" transform="translate(13.448 1.741)">
                                      <g id="Group_33583" data-name="Group 33583">
                                        <g id="Group_33582" data-name="Group 33582">
                                          <g id="Group_33581" data-name="Group 33581">
                                            <g id="Group_33580" data-name="Group 33580">
                                              <g id="Group_33579" data-name="Group 33579">
                                                <g id="Group_33578" data-name="Group 33578">
                                                  <g id="Group_33577" data-name="Group 33577">
                                                    <g id="Group_33576" data-name="Group 33576">
                                                      <g id="Group_33575" data-name="Group 33575">
                                                        <g id="Group_33574" data-name="Group 33574">
                                                          <g id="Group_33573" data-name="Group 33573">
                                                            <g id="Group_33572" data-name="Group 33572">
                                                              <g id="Group_33571" data-name="Group 33571">
                                                                <path id="Path_92307" data-name="Path 92307" d="M349.244,162.533c-.2-.114-.929.867-2.26,1.271-1.325.424-2.511.039-2.606.246-.049.094.2.337.717.516a3.548,3.548,0,0,0,2.147,0,3.41,3.41,0,0,0,1.737-1.214C349.291,162.917,349.341,162.582,349.244,162.533Z" transform="translate(-344.372 -162.524)" fill="#263238"/>
                                                              </g>
                                                            </g>
                                                          </g>
                                                        </g>
                                                      </g>
                                                    </g>
                                                  </g>
                                                </g>
                                              </g>
                                            </g>
                                          </g>
                                        </g>
                                      </g>
                                    </g>
                                    <g id="Group_33597" data-name="Group 33597" transform="translate(7.213)">
                                      <g id="Group_33596" data-name="Group 33596">
                                        <g id="Group_33595" data-name="Group 33595">
                                          <g id="Group_33594" data-name="Group 33594">
                                            <g id="Group_33593" data-name="Group 33593">
                                              <g id="Group_33592" data-name="Group 33592">
                                                <g id="Group_33591" data-name="Group 33591">
                                                  <g id="Group_33590" data-name="Group 33590">
                                                    <g id="Group_33589" data-name="Group 33589">
                                                      <g id="Group_33588" data-name="Group 33588">
                                                        <g id="Group_33587" data-name="Group 33587">
                                                          <g id="Group_33586" data-name="Group 33586">
                                                            <g id="Group_33585" data-name="Group 33585">
                                                              <path id="Path_92308" data-name="Path 92308" d="M337.009,170.821a9.216,9.216,0,0,0-2.292.165c-.353.052-.7.067-.815-.153a1.811,1.811,0,0,1-.031-1.08q.167-1.374.349-2.883c.461-4.1.7-7.427.536-7.444s-.673,3.289-1.134,7.384q-.158,1.512-.3,2.888a2.055,2.055,0,0,0,.166,1.4.892.892,0,0,0,.695.359,2.4,2.4,0,0,0,.606-.068A9.057,9.057,0,0,0,337.009,170.821Z" transform="translate(-333.277 -159.425)" fill="#263238"/>
                                                            </g>
                                                          </g>
                                                        </g>
                                                      </g>
                                                    </g>
                                                  </g>
                                                </g>
                                              </g>
                                            </g>
                                          </g>
                                        </g>
                                      </g>
                                    </g>
                                  </g>
                                </g>
                              </g>
                              <g id="Group_33612" data-name="Group 33612" transform="translate(12.662)">
                                <g id="Group_33611" data-name="Group 33611">
                                  <g id="Group_33610" data-name="Group 33610">
                                    <g id="Group_33609" data-name="Group 33609">
                                      <g id="Group_33608" data-name="Group 33608">
                                        <g id="Group_33607" data-name="Group 33607">
                                          <g id="Group_33606" data-name="Group 33606">
                                            <g id="Group_33605" data-name="Group 33605">
                                              <g id="Group_33604" data-name="Group 33604">
                                                <g id="Group_33603" data-name="Group 33603">
                                                  <g id="Group_33602" data-name="Group 33602">
                                                    <g id="Group_33601" data-name="Group 33601">
                                                      <path id="Path_92309" data-name="Path 92309" d="M346.967,153.462c-.3-.274-1.45.52-2.992,1.091-1.532.6-2.922.778-2.959,1.179-.012.189.355.4,1,.483a5.534,5.534,0,0,0,4.534-1.729C346.968,154,347.1,153.6,346.967,153.462Z" transform="translate(-341.014 -153.407)" fill="#263238"/>
                                                    </g>
                                                  </g>
                                                </g>
                                              </g>
                                            </g>
                                          </g>
                                        </g>
                                      </g>
                                    </g>
                                  </g>
                                </g>
                              </g>
                              <g id="Group_33624" data-name="Group 33624" transform="translate(0 2.549)">
                                <g id="Group_33623" data-name="Group 33623">
                                  <g id="Group_33622" data-name="Group 33622">
                                    <g id="Group_33621" data-name="Group 33621">
                                      <g id="Group_33620" data-name="Group 33620">
                                        <g id="Group_33619" data-name="Group 33619">
                                          <g id="Group_33618" data-name="Group 33618">
                                            <g id="Group_33617" data-name="Group 33617">
                                              <g id="Group_33616" data-name="Group 33616">
                                                <g id="Group_33615" data-name="Group 33615">
                                                  <g id="Group_33614" data-name="Group 33614">
                                                    <g id="Group_33613" data-name="Group 33613">
                                                      <path id="Path_92310" data-name="Path 92310" d="M324.214,158.7c-.249-.355-1.448-.193-2.835-.375-1.392-.141-2.528-.574-2.844-.285-.141.142,0,.482.469.851a4.6,4.6,0,0,0,2.229.84,4.526,4.526,0,0,0,2.348-.308C324.116,159.17,324.323,158.871,324.214,158.7Z" transform="translate(-318.483 -157.942)" fill="#263238"/>
                                                    </g>
                                                  </g>
                                                </g>
                                              </g>
                                            </g>
                                          </g>
                                        </g>
                                      </g>
                                    </g>
                                  </g>
                                </g>
                              </g>
                            </g>
                          </g>
                        </g>
                      </g>
                    </g>
                    <g id="Group_33655" data-name="Group 33655" transform="translate(31.401 20.558)">
                      <g id="Group_33641" data-name="Group 33641">
                        <g id="Group_33640" data-name="Group 33640">
                          <g id="Group_33639" data-name="Group 33639">
                            <g id="Group_33638" data-name="Group 33638">
                              <g id="Group_33637" data-name="Group 33637">
                                <g id="Group_33636" data-name="Group 33636">
                                  <g id="Group_33635" data-name="Group 33635">
                                    <g id="Group_33634" data-name="Group 33634">
                                      <g id="Group_33633" data-name="Group 33633">
                                        <g id="Group_33632" data-name="Group 33632">
                                          <g id="Group_33631" data-name="Group 33631">
                                            <g id="Group_33630" data-name="Group 33630">
                                              <path id="Path_92311" data-name="Path 92311" d="M369.917,158.457c.133-.1,5.575-3.324,6.916,2.726s-5.009,6.148-5.058,5.977S369.917,158.457,369.917,158.457Z" transform="translate(-369.917 -157.509)" fill="#ffbe9d"/>
                                            </g>
                                          </g>
                                        </g>
                                      </g>
                                    </g>
                                  </g>
                                </g>
                              </g>
                            </g>
                          </g>
                        </g>
                      </g>
                      <g id="Group_33654" data-name="Group 33654" transform="translate(2.141 2.019)">
                        <g id="Group_33653" data-name="Group 33653">
                          <g id="Group_33652" data-name="Group 33652">
                            <g id="Group_33651" data-name="Group 33651">
                              <g id="Group_33650" data-name="Group 33650">
                                <g id="Group_33649" data-name="Group 33649">
                                  <g id="Group_33648" data-name="Group 33648">
                                    <g id="Group_33647" data-name="Group 33647">
                                      <g id="Group_33646" data-name="Group 33646">
                                        <g id="Group_33645" data-name="Group 33645">
                                          <g id="Group_33644" data-name="Group 33644">
                                            <g id="Group_33643" data-name="Group 33643">
                                              <g id="Group_33642" data-name="Group 33642">
                                                <path id="Path_92312" data-name="Path 92312" d="M374.255,166.165c.023-.025.122.051.318.093a1.08,1.08,0,0,0,.791-.158,2.67,2.67,0,0,0,.688-2.607,3.561,3.561,0,0,0-.629-1.444,1.246,1.246,0,0,0-.972-.633.55.55,0,0,0-.558.427c-.044.187.021.3-.008.316-.013.019-.152-.073-.159-.333a.688.688,0,0,1,.154-.432.816.816,0,0,1,.549-.283,1.519,1.519,0,0,1,1.309.694,3.664,3.664,0,0,1,.739,1.605,2.8,2.8,0,0,1-.958,2.954,1.157,1.157,0,0,1-1,.053C374.3,166.309,374.237,166.181,374.255,166.165Z" transform="translate(-373.726 -161.101)" fill="#eb996e"/>
                                              </g>
                                            </g>
                                          </g>
                                        </g>
                                      </g>
                                    </g>
                                  </g>
                                </g>
                              </g>
                            </g>
                          </g>
                        </g>
                      </g>
                    </g>
                  </g>
                </g>
              </g>
              <g id="Group_33661" data-name="Group 33661" transform="translate(23.118 23.607)">
                <g id="Group_33660" data-name="Group 33660">
                  <g id="Group_33659" data-name="Group 33659">
                    <path id="Path_92313" data-name="Path 92313" d="M338.925,156.824c.006.034-.233.118-.632.071a2.145,2.145,0,0,1-1.875-2.183c.013-.4.133-.625.165-.614s0,.244.041.606a2.243,2.243,0,0,0,1.708,1.988C338.684,156.786,338.921,156.779,338.925,156.824Z" transform="translate(-336.416 -154.097)" fill="#eb996e"/>
                  </g>
                </g>
              </g>
              <g id="Group_33666" data-name="Group 33666">
                <g id="Group_33665" data-name="Group 33665">
                  <g id="Group_33664" data-name="Group 33664">
                    <g id="Group_33663" data-name="Group 33663">
                      <g id="Group_33662" data-name="Group 33662">
                        <path id="Path_92314" data-name="Path 92314" d="M339.525,128.89c.028.121.067.238.092.36,1.079,5.215-.334,11.983-.334,11.983-3.848.934-4.577-6.55-4.577-6.55-5.154-.757-5-8.257-6.427-9.066s-4.475-2.75-13.248,4.57c-3.407,2.842-8.543,3.942-11.483,3.941-.086,0-.172.007-.258.006h-.06c-.033,0-.058-.013-.09-.015a9.156,9.156,0,0,1-2.789-.5,5.158,5.158,0,0,1-2.626-1.856,2.823,2.823,0,0,1-.129-3.079,6.211,6.211,0,0,1-2.127-2.858,3.575,3.575,0,0,1,.582-3.407,2.536,2.536,0,0,1,3.258-.486A2.959,2.959,0,0,1,301,117.871c1.518-.447,3.095.419,4.676.489a7.19,7.19,0,0,0,4.294-1.508c1.27-.88,2.4-1.952,3.7-2.79a12.529,12.529,0,0,1,9.265-1.713c3.153.664,5.669,1.456,7.442,4.146,1.919-1.113,4.584-.156,6.354,1.182,0,0,2.438,1.385,2.638,6.234C339.543,128.208,339.525,128.89,339.525,128.89Z" transform="translate(-295.28 -112.091)" fill="#263238"/>
                      </g>
                    </g>
                  </g>
                </g>
              </g>
              <g id="Group_33669" data-name="Group 33669" transform="translate(4.406 6.868)">
                <g id="Group_33668" data-name="Group 33668">
                  <g id="Group_33667" data-name="Group 33667">
                    <path id="Path_92315" data-name="Path 92315" d="M303.121,125.79c.025-.026.325.3.973.738a8.784,8.784,0,0,0,3.039,1.261,13.5,13.5,0,0,0,4.883.082,34.1,34.1,0,0,0,5.81-1.63,37.99,37.99,0,0,1,5.845-1.693,14.03,14.03,0,0,1,4.972-.028,8.723,8.723,0,0,1,3.125,1.212,6.174,6.174,0,0,1,.727.553,1.273,1.273,0,0,1,.229.221c-.023.028-.343-.274-1.016-.677a9.127,9.127,0,0,0-3.1-1.105,14.238,14.238,0,0,0-4.888.09,39.693,39.693,0,0,0-5.8,1.7,32.924,32.924,0,0,1-5.865,1.62,13.348,13.348,0,0,1-4.969-.147,8.415,8.415,0,0,1-3.058-1.37,5.928,5.928,0,0,1-.693-.6A1.283,1.283,0,0,1,303.121,125.79Z" transform="translate(-303.12 -124.312)" fill="#455a64"/>
                  </g>
                </g>
              </g>
              <g id="Group_33672" data-name="Group 33672" transform="translate(3.869 9.376)">
                <g id="Group_33671" data-name="Group 33671">
                  <g id="Group_33670" data-name="Group 33670">
                    <path id="Path_92316" data-name="Path 92316" d="M331.946,130.279c-.019.028-.365-.251-1.076-.589a8.157,8.157,0,0,0-3.227-.7,13.663,13.663,0,0,0-4.835.868c-1.76.621-3.6,1.562-5.6,2.4a21.41,21.41,0,0,1-3.009,1.024,14.72,14.72,0,0,1-2.937.415,15.4,15.4,0,0,1-4.963-.611,14.6,14.6,0,0,1-3.1-1.321,8.754,8.754,0,0,1-.776-.488,1.3,1.3,0,0,1-.254-.193c.016-.026.382.22,1.085.581a16.133,16.133,0,0,0,3.1,1.222,15.683,15.683,0,0,0,4.894.541,14.742,14.742,0,0,0,2.88-.424,21.73,21.73,0,0,0,2.967-1.016c1.988-.83,3.837-1.769,5.624-2.383a13.507,13.507,0,0,1,4.931-.821,7.872,7.872,0,0,1,3.271.805,5.524,5.524,0,0,1,.779.487A1.268,1.268,0,0,1,331.946,130.279Z" transform="translate(-302.165 -128.775)" fill="#455a64"/>
                  </g>
                </g>
              </g>
              <g id="Group_33675" data-name="Group 33675" transform="translate(35.814 10.873)">
                <g id="Group_33674" data-name="Group 33674">
                  <g id="Group_33673" data-name="Group 33673">
                    <path id="Path_92317" data-name="Path 92317" d="M367.385,131.872a2.888,2.888,0,0,1-1.1.71,5.784,5.784,0,0,1-3.127.418,10.966,10.966,0,0,1-2.941-1.118c-.722-.325-1.214-.377-1.209-.423a2.534,2.534,0,0,1,1.286.231,13.791,13.791,0,0,0,2.907,1.021,6.225,6.225,0,0,0,3.008-.32C366.95,132.12,367.357,131.831,367.385,131.872Z" transform="translate(-359.009 -131.439)" fill="#455a64"/>
                  </g>
                </g>
              </g>
              <g id="Group_33678" data-name="Group 33678" transform="translate(36.01 12.731)">
                <g id="Group_33677" data-name="Group 33677">
                  <g id="Group_33676" data-name="Group 33676">
                    <path id="Path_92318" data-name="Path 92318" d="M367.679,134.907a3.54,3.54,0,0,1-1.137.581,8.5,8.5,0,0,1-6.069-.115,3.556,3.556,0,0,1-1.114-.623,12.3,12.3,0,0,1,1.187.429,9.735,9.735,0,0,0,5.931.112A12.6,12.6,0,0,1,367.679,134.907Z" transform="translate(-359.358 -134.744)" fill="#455a64"/>
                  </g>
                </g>
              </g>
              <g id="Group_33681" data-name="Group 33681" transform="translate(19.827 24.638)">
                <g id="Group_33680" data-name="Group 33680">
                  <g id="Group_33679" data-name="Group 33679">
                    <path id="Path_92319" data-name="Path 92319" d="M331.839,155.933a1.642,1.642,0,0,1-.166,1.471c-.4.775-1.09,1.055-1.111.979-.045-.073.5-.428.851-1.114A9.328,9.328,0,0,0,331.839,155.933Z" transform="translate(-330.56 -155.933)" fill="#eb996e"/>
                  </g>
                </g>
              </g>
            </g>
            <g id="Group_33685" data-name="Group 33685" transform="translate(0.062 70.964)">
              <g id="Group_33684" data-name="Group 33684">
                <g id="Group_33683" data-name="Group 33683">
                  <path id="Path_92320" data-name="Path 92320" d="M288.114,261.16s.075-.129.2-.4l.556-1.189,2.083-4.561,7.472-16.548.044-.1.1.034,16.139,5.47.137.047-.053.135L307,263.734c-1.6,4.058-3.2,8-4.662,11.843a47.161,47.161,0,0,1-2.5,5.528A20.024,20.024,0,0,1,296.4,285.8a18.976,18.976,0,0,1-4.394,3.37,15.845,15.845,0,0,1-4.936,1.708,21.792,21.792,0,0,1-4.872.228,16.758,16.758,0,0,1-4.435-.758,8.969,8.969,0,0,1-3.5-2.1,9.379,9.379,0,0,1-2-3.046,19.432,19.432,0,0,1-1.3-5.673,25.62,25.62,0,0,1-.058-3.682,12.178,12.178,0,0,1,.123-1.277s0,.111-.013.326-.037.534-.051.954a27.5,27.5,0,0,0,.113,3.669,19.58,19.58,0,0,0,1.34,5.62,9.25,9.25,0,0,0,1.983,2.977,8.806,8.806,0,0,0,3.439,2.032,16.6,16.6,0,0,0,4.381.728,21.643,21.643,0,0,0,4.819-.241,15.619,15.619,0,0,0,4.854-1.695,18.715,18.715,0,0,0,4.326-3.334,19.8,19.8,0,0,0,3.391-4.635,47.136,47.136,0,0,0,2.474-5.5c1.462-3.842,3.06-7.79,4.657-11.846,2.753-6.938,5.393-13.594,7.806-19.677l.084.182-16.125-5.51.143-.062c-3.138,6.908-5.736,12.575-7.564,16.507-.915,1.966-1.638,3.5-2.141,4.535-.252.518-.447.913-.587,1.176A1.646,1.646,0,0,1,288.114,261.16Z" transform="translate(-270.855 -238.366)" fill="#263238"/>
                </g>
              </g>
            </g>
            <g id="Group_33688" data-name="Group 33688" transform="translate(21.981 67.654)">
              <g id="Group_33687" data-name="Group 33687">
                <g id="Group_33686" data-name="Group 33686">
                  <path id="Path_92321" data-name="Path 92321" d="M309.863,248.877a2.9,2.9,0,0,1,.109-.657l.4-1.765c.351-1.488.853-3.538,1.418-5.8l2.069-8.18c.173.026-.654,3.729-1.785,8.252-.565,2.262-1.1,4.3-1.5,5.779-.2.737-.369,1.332-.492,1.742A2.921,2.921,0,0,1,309.863,248.877Z" transform="translate(-309.858 -232.476)" fill="#263238"/>
                </g>
              </g>
            </g>
            <g id="Group_33722" data-name="Group 33722" transform="translate(24.055 36.925)">
              <g id="Group_33690" data-name="Group 33690" transform="translate(6.552)">
                <g id="Group_33689" data-name="Group 33689">
                  <path id="Path_92322" data-name="Path 92322" d="M329.4,178.876s-1.715-1.781-3.239,0-1.354,6.094,1.534,10.472,1.744,20.831,1.744,20.831l17.081-6.38,1.177,5.236a17.916,17.916,0,0,0,5.7-5.236c2.191-3.331-1.143-7.575-1.81-10.239s-6.858-6.893-8.667-9.675S336.637,175.426,329.4,178.876Z" transform="translate(-325.21 -177.796)" fill="#fafafa"/>
                </g>
              </g>
              <g id="Group_33706" data-name="Group 33706" transform="translate(12.874 5.307)">
                <g id="Group_33696" data-name="Group 33696">
                  <g id="Group_33692" data-name="Group 33692" transform="translate(0.128 0.14)">
                    <g id="Group_33691" data-name="Group 33691">
                      <path id="Path_92323" data-name="Path 92323" d="M345.8,221.916s-4.8-10.261-5.473-12.141-3.508-8.169-3.143-9.4c.346-1.159,2.017.011,2.017.011s-3.346-6.464-2.325-7.831a1.15,1.15,0,0,1,1.8-.133s-2.089-3.721-.318-4.839c.913-.576,2.467,1.661,2.467,1.661a1.652,1.652,0,0,1,2.8.418c1.331,2.039,6.881,11.151,6.881,11.151a24.249,24.249,0,0,1,.455-6.915c.527-1.753,3.08-2.751,3.233,2.579.1,3.447,4.117,19.66,4.117,19.66Z" transform="translate(-336.686 -187.49)" fill="#ffbe9d"/>
                    </g>
                  </g>
                  <g id="Group_33695" data-name="Group 33695">
                    <g id="Group_33694" data-name="Group 33694">
                      <g id="Group_33693" data-name="Group 33693">
                        <path id="Path_92324" data-name="Path 92324" d="M345.7,221.806s.077-.043.223-.114l.645-.31,2.475-1.169,9.127-4.272-.053.111c-1.025-4.157-2.243-9.132-3.388-14.754-.27-1.409-.567-2.851-.725-4.363-.072-.769-.076-1.508-.207-2.261l-.126-.553c-.044-.184-.12-.356-.178-.536a1.994,1.994,0,0,0-.623-.88.9.9,0,0,0-.972-.052,1.834,1.834,0,0,0-.743.8,4.656,4.656,0,0,0-.337,1.114c-.085.389-.14.788-.187,1.19a28.862,28.862,0,0,0-.078,4.936.145.145,0,0,1-.135.155.148.148,0,0,1-.134-.069l-3.488-5.65-2.613-4.236-.643-1.042a3.058,3.058,0,0,0-.74-.891,1.233,1.233,0,0,0-1.017-.265,1.88,1.88,0,0,0-.947.537.147.147,0,0,1-.209,0l-.017-.019a5.942,5.942,0,0,0-1.462-1.5c-.283-.171-.613-.279-.844-.095a1.418,1.418,0,0,0-.539.77,3.909,3.909,0,0,0,.157,1.987,10.166,10.166,0,0,0,.777,1.867.139.139,0,0,1-.057.187.142.142,0,0,1-.16-.021,1.076,1.076,0,0,0-1.113-.289,1.214,1.214,0,0,0-.466.383,1,1,0,0,0-.178.56,7.61,7.61,0,0,0,.5,2.536,36.859,36.859,0,0,0,1.983,4.619.125.125,0,0,1-.056.167.13.13,0,0,1-.126-.008,2.705,2.705,0,0,0-1.248-.5.526.526,0,0,0-.5.234.632.632,0,0,0-.1.283l-.018.151.014.165a12.488,12.488,0,0,0,.679,2.578c.579,1.654,1.212,3.195,1.794,4.647,1.079,2.941,2.245,5.4,3.152,7.45l2.146,4.736.561,1.248.139.321a.945.945,0,0,1,.042.112.732.732,0,0,1-.058-.1l-.157-.314-.595-1.232-2.209-4.708c-.924-2.038-2.115-4.5-3.209-7.434-.591-1.449-1.231-2.988-1.821-4.648a12.6,12.6,0,0,1-.7-2.636,1.151,1.151,0,0,1,.006-.374.852.852,0,0,1,.127-.37.771.771,0,0,1,.706-.349,2.909,2.909,0,0,1,1.385.54l-.182.159a37,37,0,0,1-2.012-4.649,7.8,7.8,0,0,1-.522-2.64,1.268,1.268,0,0,1,.232-.705,1.482,1.482,0,0,1,.575-.469,1.13,1.13,0,0,1,.763-.034,1.75,1.75,0,0,1,.649.378l-.217.166a10.4,10.4,0,0,1-.8-1.922,4.158,4.158,0,0,1-.161-2.141,1.7,1.7,0,0,1,.652-.931.78.78,0,0,1,.607-.131,1.547,1.547,0,0,1,.545.218,6.172,6.172,0,0,1,1.549,1.579l-.225-.015a2.156,2.156,0,0,1,1.107-.627,1.526,1.526,0,0,1,1.245.318,3.317,3.317,0,0,1,.809.964l.644,1.043,2.616,4.238,3.488,5.655-.269.087a29,29,0,0,1,.083-4.991c.048-.408.105-.814.193-1.214a4.9,4.9,0,0,1,.364-1.186,2.115,2.115,0,0,1,.865-.92,1.183,1.183,0,0,1,1.262.072,2.252,2.252,0,0,1,.719,1c.062.19.142.377.188.569l.13.577c.134.766.137,1.556.206,2.286.151,1.485.444,2.932.709,4.337,1.127,5.616,2.324,10.6,3.324,14.757a.1.1,0,0,1-.054.112l-9.224,4.2-2.476,1.117-.638.283A1.864,1.864,0,0,1,345.7,221.806Z" transform="translate(-336.458 -187.241)" fill="#eb996e"/>
                      </g>
                    </g>
                  </g>
                </g>
                <g id="Group_33699" data-name="Group 33699" transform="translate(4.272 1.895)">
                  <g id="Group_33698" data-name="Group 33698">
                    <g id="Group_33697" data-name="Group 33697">
                      <path id="Path_92325" data-name="Path 92325" d="M350.181,203.052c-.073.036-1.5-2.72-3.19-6.154s-3-6.248-2.928-6.284,1.5,2.719,3.191,6.155S350.253,203.017,350.181,203.052Z" transform="translate(-344.059 -190.613)" fill="#eb996e"/>
                    </g>
                  </g>
                </g>
                <g id="Group_33702" data-name="Group 33702" transform="translate(2.122 5.074)">
                  <g id="Group_33701" data-name="Group 33701">
                    <g id="Group_33700" data-name="Group 33700">
                      <path id="Path_92326" data-name="Path 92326" d="M345.661,208.109c-.074.033-1.348-2.59-2.845-5.859s-2.653-5.947-2.579-5.981,1.347,2.589,2.845,5.859S345.735,208.076,345.661,208.109Z" transform="translate(-340.233 -196.269)" fill="#eb996e"/>
                    </g>
                  </g>
                </g>
                <g id="Group_33705" data-name="Group 33705" transform="translate(2.586 13.063)">
                  <g id="Group_33704" data-name="Group 33704">
                    <g id="Group_33703" data-name="Group 33703">
                      <path id="Path_92327" data-name="Path 92327" d="M344.415,217.839a4.267,4.267,0,0,1-.7-.964,22.426,22.426,0,0,1-2.38-5.226,4.217,4.217,0,0,1-.263-1.164c.084-.025.623,1.707,1.552,3.733S344.489,217.792,344.415,217.839Z" transform="translate(-341.06 -210.484)" fill="#eb996e"/>
                    </g>
                  </g>
                </g>
              </g>
              <g id="Group_33718" data-name="Group 33718" transform="translate(0 9.555)">
                <g id="Group_33708" data-name="Group 33708">
                  <g id="Group_33707" data-name="Group 33707">
                    <path id="Path_92328" data-name="Path 92328" d="M323.979,195.564a1.512,1.512,0,0,0-1.721-.71c-1.51.419-4.059,1.194-4.757,1.822-1.01.909-3.194,3.322-3.191,4.945,0,.5-.5,1.393-.672,2.229a3.434,3.434,0,0,0,1.378,3.732c.646.572,3.132,6.466,3.132,6.466l1.45,5.921,6.562,2.308,5.411,1.845-2.819-8.045-4.42,1.55.447-10.3,1.293-2.44-.351-1.545-1.064-.328a1.312,1.312,0,0,0,.183-1.8l-.924-.782A1.573,1.573,0,0,0,324.942,198a1.989,1.989,0,0,0-1.653-.379A2.246,2.246,0,0,0,323.979,195.564Z" transform="translate(-313.55 -194.798)" fill="#ffbe9d"/>
                  </g>
                </g>
                <g id="Group_33711" data-name="Group 33711" transform="translate(3.756 8.137)">
                  <g id="Group_33710" data-name="Group 33710">
                    <g id="Group_33709" data-name="Group 33709">
                      <path id="Path_92329" data-name="Path 92329" d="M326.605,221.029c-.008.006-.074-.065-.191-.207s-.286-.355-.487-.643a6.3,6.3,0,0,1-.636-1.116,3.367,3.367,0,0,1-.279-1.69,4.234,4.234,0,0,1,.79-1.919,18.835,18.835,0,0,1,1.522-1.8,5.988,5.988,0,0,0,1.338-2.123,2.038,2.038,0,0,0,.043-1.256,1,1,0,0,0-.9-.706,2,2,0,0,0-1.1.659l-1.023.91-1.938,1.718a11.418,11.418,0,0,0-2.89,3.2,3.942,3.942,0,0,0-.333,2.813c.166.671.354,1.016.325,1.028a1.011,1.011,0,0,1-.142-.243,4.667,4.667,0,0,1-.293-.755,4.068,4.068,0,0,1-.169-1.277,4.129,4.129,0,0,1,.427-1.656,11.281,11.281,0,0,1,2.9-3.312l1.927-1.731,1.021-.914a2.21,2.21,0,0,1,1.284-.733,1.282,1.282,0,0,1,1.19.9,2.313,2.313,0,0,1-.044,1.436,6.18,6.18,0,0,1-1.409,2.218A19.633,19.633,0,0,0,326,215.593a4.079,4.079,0,0,0-.783,1.8,3.247,3.247,0,0,0,.225,1.6,6.8,6.8,0,0,0,.579,1.115C326.395,220.7,326.625,221.015,326.605,221.029Z" transform="translate(-320.234 -209.278)" fill="#eb996e"/>
                    </g>
                  </g>
                </g>
                <g id="Group_33714" data-name="Group 33714" transform="translate(0.929 5.722)">
                  <g id="Group_33713" data-name="Group 33713">
                    <g id="Group_33712" data-name="Group 33712">
                      <path id="Path_92330" data-name="Path 92330" d="M319.824,212.385c-.005,0-.027-.027-.066-.089a2.351,2.351,0,0,1-.154-.289,2.2,2.2,0,0,1-.16-.517.986.986,0,0,1,.139-.752l0-.006.012-.007,4.525-2.539a3.775,3.775,0,0,0,1.319-.994,1.366,1.366,0,0,0,.266-.772,1.012,1.012,0,0,0-.334-.735,1.8,1.8,0,0,0-1.712-.341,12.558,12.558,0,0,0-1.876.763l-5.129,2.327a2.436,2.436,0,0,0-.931.74,1.745,1.745,0,0,0-.276,1.06,6.615,6.615,0,0,0,.552,2.02,23.872,23.872,0,0,0,1.321,2.794c.354.64.568.985.549,1a1.132,1.132,0,0,1-.184-.232c-.111-.158-.271-.395-.463-.708a20.064,20.064,0,0,1-1.414-2.774,6.643,6.643,0,0,1-.6-2.088,1.988,1.988,0,0,1,.306-1.214,2.668,2.668,0,0,1,1.019-.835c1.579-.75,3.311-1.522,5.133-2.355a12.444,12.444,0,0,1,1.929-.778,2.082,2.082,0,0,1,1.975.419,1.291,1.291,0,0,1,.414.939,1.621,1.621,0,0,1-.323.926,3.959,3.959,0,0,1-1.417,1.058l-4.58,2.439.016-.012a.911.911,0,0,0-.133.645,2.361,2.361,0,0,0,.122.5A3.5,3.5,0,0,1,319.824,212.385Z" transform="translate(-315.204 -204.98)" fill="#eb996e"/>
                    </g>
                  </g>
                </g>
                <g id="Group_33717" data-name="Group 33717" transform="translate(0.766 2.684)">
                  <g id="Group_33716" data-name="Group 33716">
                    <g id="Group_33715" data-name="Group 33715">
                      <path id="Path_92331" data-name="Path 92331" d="M314.914,205.2a2.817,2.817,0,0,1,.275-.616,9.649,9.649,0,0,1,.977-1.564,5.652,5.652,0,0,1,2.175-1.672,21.943,21.943,0,0,1,3.176-1.044l1.658-.463a4.029,4.029,0,0,1,1.63-.245,1.439,1.439,0,0,1,.743.325,1.259,1.259,0,0,1,.387.665,1.52,1.52,0,0,1-.3,1.285,2.411,2.411,0,0,1-1.641.849,1.883,1.883,0,0,1-.677,0c0-.024.24-.034.659-.117a2.388,2.388,0,0,0,1.494-.86,1.31,1.31,0,0,0,.228-1.1,1.034,1.034,0,0,0-.932-.781,3.875,3.875,0,0,0-1.515.254l-1.657.469a23.938,23.938,0,0,0-3.144,1.008,5.622,5.622,0,0,0-2.126,1.558,12.248,12.248,0,0,0-1.038,1.489A3.159,3.159,0,0,1,314.914,205.2Z" transform="translate(-314.913 -199.575)" fill="#eb996e"/>
                    </g>
                  </g>
                </g>
              </g>
              <g id="Group_33721" data-name="Group 33721" transform="translate(0.703 9.232)">
                <g id="Group_33720" data-name="Group 33720">
                  <g id="Group_33719" data-name="Group 33719">
                    <path id="Path_92332" data-name="Path 92332" d="M321.544,197.811a4.64,4.64,0,0,1,.725-.187,3.46,3.46,0,0,0,1.746-.89,1.559,1.559,0,0,0,.46-1.187,1.1,1.1,0,0,0-.857-1.036,3.652,3.652,0,0,0-1.648.4c-.588.209-1.2.4-1.821.612a16.217,16.217,0,0,0-1.77.683,4.2,4.2,0,0,0-1.239,1.18c-.345.446-.645.9-.949,1.305a6.845,6.845,0,0,0-.808,1.126,5.158,5.158,0,0,0-.467,1.937c-.029.477,0,.743-.025.745a2.193,2.193,0,0,1-.089-.748,4.845,4.845,0,0,1,.394-2.023,2.859,2.859,0,0,1,.359-.6c.15-.191.3-.369.44-.579.292-.41.585-.867.932-1.327a4.359,4.359,0,0,1,1.323-1.272,15.5,15.5,0,0,1,1.806-.7l1.819-.605a3.765,3.765,0,0,1,1.792-.4,1.2,1.2,0,0,1,.767.487,1.532,1.532,0,0,1,.284.794,1.763,1.763,0,0,1-.553,1.35,3.39,3.39,0,0,1-1.872.858A3.03,3.03,0,0,1,321.544,197.811Z" transform="translate(-314.801 -194.225)" fill="#eb996e"/>
                  </g>
                </g>
              </g>
            </g>
            <g id="Group_33725" data-name="Group 33725" transform="translate(44.746 70.192)">
              <g id="Group_33724" data-name="Group 33724">
                <g id="Group_33723" data-name="Group 33723">
                  <path id="Path_92333" data-name="Path 92333" d="M373.188,249.016a1.523,1.523,0,0,1-.132-.2l-.363-.605-1.375-2.345-5.032-8.69.131.042-15.823,7.449.071-.167c1.8,5.167,3.98,10.771,6.6,16.485,2.8,6.15,5.8,11.854,8.668,16.96,1.44,2.549,2.814,4.973,4.159,7.2a19.591,19.591,0,0,0,4.59,5.5,9.627,9.627,0,0,0,2.747,1.466,10.041,10.041,0,0,0,2.742.487,10.223,10.223,0,0,0,4.375-.8,7.027,7.027,0,0,0,2.336-1.575c.453-.464.639-.757.658-.742,0,0-.044.073-.144.208a4.337,4.337,0,0,1-.471.576,6.884,6.884,0,0,1-2.333,1.638,10.3,10.3,0,0,1-7.221.383,9.788,9.788,0,0,1-2.814-1.477,19.693,19.693,0,0,1-4.672-5.54c-1.359-2.229-2.739-4.645-4.187-7.194-2.884-5.1-5.893-10.811-8.7-16.971-2.62-5.723-4.8-11.338-6.586-16.518l-.04-.116.111-.052,15.853-7.386.085-.039.045.081,4.953,8.735,1.328,2.372.339.619A1.574,1.574,0,0,1,373.188,249.016Z" transform="translate(-350.367 -236.993)" fill="#263238"/>
                </g>
              </g>
            </g>
            <g id="Group_33728" data-name="Group 33728" transform="translate(32.385 40.697)">
              <g id="Group_33727" data-name="Group 33727">
                <g id="Group_33726" data-name="Group 33726">
                  <path id="Path_92334" data-name="Path 92334" d="M331.959,188.521a1.576,1.576,0,0,1-.886-.044,3.538,3.538,0,0,1-2.685-3.085,1.578,1.578,0,0,1,.079-.883c.047,0,.026.338.126.854a3.78,3.78,0,0,0,2.538,2.916C331.627,188.449,331.962,188.474,331.959,188.521Z" transform="translate(-328.373 -184.509)" fill="#e0e0e0"/>
                </g>
              </g>
            </g>
            <g id="Group_33731" data-name="Group 33731" transform="translate(45.55 41.694)">
              <g id="Group_33730" data-name="Group 33730">
                <g id="Group_33729" data-name="Group 33729">
                  <path id="Path_92335" data-name="Path 92335" d="M351.8,186.283a2.1,2.1,0,0,1,.346.448c.21.3.489.743.813,1.307a26.148,26.148,0,0,1,3.2,9.591c.08.645.124,1.17.134,1.533a2.1,2.1,0,0,1-.008.566c-.048,0-.121-.8-.331-2.069a31.365,31.365,0,0,0-3.174-9.522C352.182,186.992,351.762,186.308,351.8,186.283Z" transform="translate(-351.799 -186.282)" fill="#e0e0e0"/>
                </g>
              </g>
            </g>
            <g id="Group_33734" data-name="Group 33734" transform="translate(31.9 43.568)">
              <g id="Group_33733" data-name="Group 33733">
                <g id="Group_33732" data-name="Group 33732">
                  <path id="Path_92336" data-name="Path 92336" d="M332.7,192.622a2.091,2.091,0,0,1-.924-.005,6.014,6.014,0,0,1-3.8-2.2,2.074,2.074,0,0,1-.464-.8,8.013,8.013,0,0,0,5.184,3Z" transform="translate(-327.509 -189.616)" fill="#e0e0e0"/>
                </g>
              </g>
            </g>
          </g>
          <g id="Group_33759" data-name="Group 33759" transform="translate(19.356 144.183)">
            <g id="Group_33737" data-name="Group 33737" transform="translate(74.487 36.835)">
              <g id="Group_33736" data-name="Group 33736">
                <path id="Path_92337" data-name="Path 92337" d="M364.556,433.976l19.271,8.736s5.329,1.968,6.721,1.647c1.566-.362,4.119-1.323,3.326-6.079s-9.931-10.538-9.931-10.538Z" transform="translate(-364.556 -427.742)" fill="#e8505b"/>
              </g>
            </g>
            <g id="Group_33749" data-name="Group 33749" transform="translate(41.193 28.229)">
              <g id="Group_33739" data-name="Group 33739">
                <g id="Group_33738" data-name="Group 33738">
                  <path id="Path_92338" data-name="Path 92338" d="M336.072,412.428l-27.632,9c-1.649.554-3.608,2.3-3.022,4.5l10.792,31.079s3.326,1.064,2.708-19.117l23.411-7.715Z" transform="translate(-305.312 -412.428)" fill="#e8505b"/>
                </g>
              </g>
              <g id="Group_33742" data-name="Group 33742" transform="translate(7.618 34.148)">
                <g id="Group_33741" data-name="Group 33741">
                  <g id="Group_33740" data-name="Group 33740">
                    <path id="Path_92339" data-name="Path 92339" d="M324.82,474.085a10.183,10.183,0,0,0-2.98-.6,12.581,12.581,0,0,0-2.97.694,2.314,2.314,0,0,1,.791-.473,5.788,5.788,0,0,1,2.171-.514,5.341,5.341,0,0,1,2.192.428A2.222,2.222,0,0,1,324.82,474.085Z" transform="translate(-318.869 -473.191)" fill="#fff"/>
                  </g>
                </g>
              </g>
              <g id="Group_33745" data-name="Group 33745" transform="translate(2.489 8.616)">
                <g id="Group_33744" data-name="Group 33744">
                  <g id="Group_33743" data-name="Group 33743">
                    <path id="Path_92340" data-name="Path 92340" d="M312.405,427.763a.95.95,0,0,1,.5.183,2.471,2.471,0,0,1,.94,1.109,5.9,5.9,0,0,1,.416,2.107,10.477,10.477,0,0,1-.156,2.616,6.65,6.65,0,0,1-.977,2.443,5.288,5.288,0,0,1-1.529,1.512,4.055,4.055,0,0,1-1.332.565,1.308,1.308,0,0,1-.527.049,6.068,6.068,0,0,0,1.744-.787,5.381,5.381,0,0,0,1.419-1.489,6.667,6.667,0,0,0,.915-2.351,11,11,0,0,0,.174-2.546,6.066,6.066,0,0,0-.338-2.038,2.541,2.541,0,0,0-.813-1.1C312.578,427.844,312.4,427.787,312.405,427.763Z" transform="translate(-309.74 -427.759)" fill="#fff"/>
                  </g>
                </g>
              </g>
              <g id="Group_33748" data-name="Group 33748" transform="translate(13.857 6.172)">
                <g id="Group_33747" data-name="Group 33747">
                  <g id="Group_33746" data-name="Group 33746">
                    <path id="Path_92341" data-name="Path 92341" d="M337.878,440.214a3.56,3.56,0,0,1-.384-.624c-.23-.41-.552-1.009-.941-1.755-.779-1.49-1.819-3.568-2.911-5.889s-2.03-4.449-2.681-6c-.326-.775-.583-1.406-.751-1.844a3.5,3.5,0,0,1-.236-.693,3.526,3.526,0,0,1,.341.648l.836,1.806,2.756,5.957,2.831,5.921.858,1.8A3.521,3.521,0,0,1,337.878,440.214Z" transform="translate(-329.971 -423.411)" fill="#fff"/>
                  </g>
                </g>
              </g>
            </g>
            <g id="Group_33758" data-name="Group 33758">
              <g id="Group_33751" data-name="Group 33751">
                <g id="Group_33750" data-name="Group 33750">
                  <path id="Path_92342" data-name="Path 92342" d="M367.546,367.7c-3.974-3.378-4.768-3.974-12.517-4.57s-20.493,1.075-20.493,1.075-24.211,7.468-35.734,6.078-22.078-7.841-22.078-7.841-27.395-.7-31.169.291-10.928,3.576-12.319,7.947-2.384,9.537,1.589,14.5,23.99,14.108,23.99,14.108L277.647,399l12.537-3.941,8.23,17.481s58.2-18.414,60.787-18.613,14.106-7.153,14.106-10.729S371.52,371.074,367.546,367.7Z" transform="translate(-232.012 -362.197)" fill="#263238"/>
                </g>
              </g>
              <g id="Group_33754" data-name="Group 33754" transform="translate(19.932 3.94)">
                <g id="Group_33753" data-name="Group 33753">
                  <g id="Group_33752" data-name="Group 33752">
                    <path id="Path_92343" data-name="Path 92343" d="M318.2,391.934a.539.539,0,0,1-.141-.033l-.4-.123-1.543-.5c-1.339-.437-3.266-1.1-5.637-1.955-4.741-1.7-11.236-4.22-18.255-7.362s-13.22-6.322-17.647-8.725c-2.214-1.2-3.993-2.2-5.211-2.906l-1.4-.818-.361-.219a.533.533,0,0,1-.118-.083.519.519,0,0,1,.133.057l.375.194,1.427.77c1.234.678,3.028,1.644,5.252,2.822,4.45,2.355,10.659,5.5,17.67,8.641s13.487,5.682,18.206,7.434c2.36.876,4.276,1.572,5.6,2.041l1.525.553.394.151A.525.525,0,0,1,318.2,391.934Z" transform="translate(-267.479 -369.209)" fill="#455a64"/>
                  </g>
                </g>
              </g>
              <g id="Group_33757" data-name="Group 33757" transform="translate(57.513 7.298)">
                <g id="Group_33756" data-name="Group 33756">
                  <g id="Group_33755" data-name="Group 33755">
                    <path id="Path_92344" data-name="Path 92344" d="M391.294,375.183a.9.9,0,0,1-.03.2c-.031.145-.071.334-.121.573l-.5,2.218-.007.03-.031.012c-4.8,1.9-15.547,6.086-28.036,10.9s-23.268,8.934-28.1,10.744l.03-.088,1.152,1.961.289.509a.1.1,0,1,1-.027.016l-.316-.492-1.2-1.931-.038-.061.068-.027c4.8-1.9,15.546-6.086,28.04-10.9s23.264-8.933,28.1-10.743l-.038.043c.241-.948.428-1.685.559-2.2l.152-.566A.972.972,0,0,1,391.294,375.183Z" transform="translate(-334.353 -375.183)" fill="#455a64"/>
                  </g>
                </g>
              </g>
            </g>
          </g>
          <g id="Group_33872" data-name="Group 33872" transform="translate(0 35.937)">
            <g id="Group_33761" data-name="Group 33761" transform="translate(107.654 13.249)">
              <g id="Group_33760" data-name="Group 33760">
                <path id="Path_92345" data-name="Path 92345" d="M452.468,314.471l-4.254-24.948-11.608-21.895-14.448-13.541-4.319-18.036L415.6,214.529l-1.526-8.308a10.562,10.562,0,0,0-7.262-8.18l-15.761-4.882s.318,3.9-1,12.426-.842,22.428-.842,22.428,10.588,21.056,10.571,31.718c-.024,14.5,3.012,21.06,6.472,24.554,2.666,2.692,5.584,3.565,7.55,4.846,4.516,2.942,25.356-2.858,31.041,9.508a50.681,50.681,0,0,1,4.509,23.869l5.108-.093Z" transform="translate(-389.134 -193.158)" fill="#e8505b"/>
              </g>
            </g>
            <g id="Group_33763" data-name="Group 33763" transform="translate(0.364 3.695)">
              <g id="Group_33762" data-name="Group 33762">
                <path id="Path_92346" data-name="Path 92346" d="M265.568,176.156a27.53,27.53,0,0,0-1.632,8.939c.075,1.946-1.063,3.566-2.164,5.016a64.472,64.472,0,0,0-5.848,8.13c-.759,1.308-.77,3.107-1.453,4.884-2.818,7.331,6.035,21.179,5.754,22.036s-16.909,29.24-13.715,41.349-1.594,15.179-1.594,15.179a107.882,107.882,0,0,1-16.705.561c-6.96-.547-24.613,1.569-26.311,14.107s7.367,21.361,7.367,21.361h-1.75s-10.563-10.366-9.173-18.543,5.737-16.723,5.737-16.723l15.479-6.386,9.958-1.127L228.391,258.6l2.63-15.03,12.212-30.158,5.636-12.512,2.227-5.957,9.275-7.3,2.922-8.784Z" transform="translate(-198.219 -176.156)" fill="#e8505b"/>
              </g>
            </g>
            <g id="Group_33766" data-name="Group 33766" transform="translate(108.378 48.933)">
              <g id="Group_33765" data-name="Group 33765">
                <g id="Group_33764" data-name="Group 33764">
                  <path id="Path_92347" data-name="Path 92347" d="M412.453,288.735a2.549,2.549,0,0,1-.084-.427c-.046-.31-.108-.719-.185-1.232-.156-1.07-.373-2.621-.687-4.528s-.734-4.171-1.4-6.635a37.191,37.191,0,0,0-2.962-7.723,24.857,24.857,0,0,0-5.033-6.518,19.865,19.865,0,0,0-5.626-3.676,15.769,15.769,0,0,0-4.386-1.18c-1.07-.117-1.672-.111-1.671-.145a2.374,2.374,0,0,1,.434-.015,10.386,10.386,0,0,1,1.248.047,15.06,15.06,0,0,1,4.453,1.1,19.656,19.656,0,0,1,5.729,3.668,24.73,24.73,0,0,1,5.11,6.581,36.542,36.542,0,0,1,2.964,7.79,63.441,63.441,0,0,1,1.34,6.672c.288,1.915.474,3.47.6,4.546q.082.774.13,1.239A2.4,2.4,0,0,1,412.453,288.735Z" transform="translate(-390.422 -256.655)" fill="#263238"/>
                </g>
              </g>
            </g>
            <g id="Group_33769" data-name="Group 33769" transform="translate(107.963 47.386)">
              <g id="Group_33768" data-name="Group 33768">
                <g id="Group_33767" data-name="Group 33767">
                  <path id="Path_92348" data-name="Path 92348" d="M414.372,265.886c-.024.01-.188-.375-.519-1.051a19.564,19.564,0,0,0-1.635-2.728,18.711,18.711,0,0,0-18.326-7.722,19.644,19.644,0,0,0-3.094.736c-.715.235-1.1.387-1.114.363a1.212,1.212,0,0,1,.271-.138c.184-.076.448-.209.806-.333a17.2,17.2,0,0,1,3.1-.832,18.457,18.457,0,0,1,18.53,7.807,17.169,17.169,0,0,1,1.569,2.8c.162.342.252.624.325.809A1.176,1.176,0,0,1,414.372,265.886Z" transform="translate(-389.683 -253.902)" fill="#263238"/>
                </g>
              </g>
            </g>
            <g id="Group_33772" data-name="Group 33772" transform="translate(130.248 78.1)">
              <g id="Group_33771" data-name="Group 33771">
                <g id="Group_33770" data-name="Group 33770">
                  <path id="Path_92349" data-name="Path 92349" d="M442.793,308.555a1.024,1.024,0,0,1,.008.28c-.006.183-.014.452-.036.8-.04.693-.117,1.7-.266,2.931a28.115,28.115,0,0,1-2.622,9.331,17.335,17.335,0,0,1-3.155,4.333,14.024,14.024,0,0,1-3.534,2.584,11.015,11.015,0,0,1-2.78.99,6.967,6.967,0,0,1-.792.126,1.009,1.009,0,0,1-.279.018,14.665,14.665,0,0,0,3.755-1.318,14.344,14.344,0,0,0,3.439-2.591,17.564,17.564,0,0,0,3.085-4.277,29.59,29.59,0,0,0,2.677-9.224c.174-1.226.283-2.223.357-2.913.036-.317.066-.579.091-.794A1,1,0,0,1,442.793,308.555Z" transform="translate(-429.337 -308.555)" fill="#263238"/>
                </g>
              </g>
            </g>
            <g id="Group_33775" data-name="Group 33775" transform="translate(138.216 101.567)">
              <g id="Group_33774" data-name="Group 33774">
                <g id="Group_33773" data-name="Group 33773">
                  <path id="Path_92350" data-name="Path 92350" d="M474.2,367.021c-.032,0-.1-.529-.324-1.463a14.546,14.546,0,0,0-1.527-3.76,18.167,18.167,0,0,0-3.837-4.618,22.8,22.8,0,0,0-6.265-3.853,34.1,34.1,0,0,0-7.127-1.959c-2.248-.379-4.3-.565-6.02-.688s-3.12-.189-4.085-.242l-1.112-.066a1.941,1.941,0,0,1-.387-.042,1.917,1.917,0,0,1,.389-.016l1.114.011c.967.017,2.366.053,4.094.15a57.685,57.685,0,0,1,6.051.628,33.47,33.47,0,0,1,7.193,1.954,22.649,22.649,0,0,1,6.333,3.922,17.947,17.947,0,0,1,3.839,4.719,13.756,13.756,0,0,1,1.457,3.836,9.1,9.1,0,0,1,.18,1.1A1.958,1.958,0,0,1,474.2,367.021Z" transform="translate(-443.517 -350.313)" fill="#263238"/>
                </g>
              </g>
            </g>
            <g id="Group_33778" data-name="Group 33778" transform="translate(108.622 25.647)">
              <g id="Group_33777" data-name="Group 33777">
                <g id="Group_33776" data-name="Group 33776">
                  <path id="Path_92351" data-name="Path 92351" d="M390.859,238.9a6.139,6.139,0,0,1,.247-.931l.755-2.511c.636-2.12,1.485-5.058,2.333-8.327s1.53-6.251,2-8.414c.228-1.045.417-1.909.559-2.562a6.149,6.149,0,0,1,.237-.934,6.04,6.04,0,0,1-.125.955c-.1.613-.257,1.495-.468,2.583-.423,2.175-1.076,5.169-1.924,8.445s-1.731,6.208-2.419,8.316c-.343,1.054-.633,1.9-.845,2.485A6,6,0,0,1,390.859,238.9Z" transform="translate(-390.856 -215.219)" fill="#263238"/>
                </g>
              </g>
            </g>
            <g id="Group_33781" data-name="Group 33781" transform="translate(41.177 55.518)">
              <g id="Group_33780" data-name="Group 33780">
                <g id="Group_33779" data-name="Group 33779">
                  <path id="Path_92352" data-name="Path 92352" d="M272.214,311.323a.421.421,0,0,1-.045-.121l-.1-.364c-.08-.322-.228-.791-.352-1.41a36.072,36.072,0,0,1-.769-5.289,38.182,38.182,0,0,1,.245-7.924,37.621,37.621,0,0,1,7.306-17.808,38.1,38.1,0,0,1,5.391-5.812,35.94,35.94,0,0,1,4.262-3.225c.523-.353.958-.583,1.241-.756l.328-.187a.457.457,0,0,1,.117-.055s-.032.031-.1.081l-.313.211c-.273.189-.7.434-1.209.8a39.808,39.808,0,0,0-4.188,3.285,38.794,38.794,0,0,0-12.872,31.376,39.635,39.635,0,0,0,.674,5.28c.107.62.236,1.092.3,1.419.03.148.054.27.075.37A.446.446,0,0,1,272.214,311.323Z" transform="translate(-270.841 -268.372)" fill="#263238"/>
                </g>
              </g>
            </g>
            <g id="Group_33784" data-name="Group 33784" transform="translate(32.314 54.277)">
              <g id="Group_33783" data-name="Group 33783">
                <g id="Group_33782" data-name="Group 33782">
                  <path id="Path_92353" data-name="Path 92353" d="M283.173,266.167a3.059,3.059,0,0,1-.474.113c-.31.07-.774.142-1.363.28a43.7,43.7,0,0,0-4.923,1.365,37.306,37.306,0,0,0-6.881,3.13,31.863,31.863,0,0,0-7.222,5.743,27.6,27.6,0,0,0-5.007,7.732,25.177,25.177,0,0,0-1.926,7.282,22.5,22.5,0,0,0,.019,5.092c.047.6.164,1.058.2,1.375a3.111,3.111,0,0,1,.06.483,2.908,2.908,0,0,1-.118-.471c-.056-.314-.19-.769-.255-1.372a21.221,21.221,0,0,1-.112-5.128,24.846,24.846,0,0,1,1.883-7.367,27.472,27.472,0,0,1,5.041-7.824,31.57,31.57,0,0,1,7.3-5.778,36.29,36.29,0,0,1,6.951-3.093,38.6,38.6,0,0,1,4.967-1.28c.593-.122,1.062-.176,1.376-.227A2.935,2.935,0,0,1,283.173,266.167Z" transform="translate(-255.07 -266.164)" fill="#263238"/>
                </g>
              </g>
            </g>
            <g id="Group_33787" data-name="Group 33787" transform="translate(42.121 50.923)">
              <g id="Group_33786" data-name="Group 33786">
                <g id="Group_33785" data-name="Group 33785">
                  <path id="Path_92354" data-name="Path 92354" d="M275.417,267.524a3.074,3.074,0,0,1-.944-.756,7.171,7.171,0,0,1-1.931-5.389,3.085,3.085,0,0,1,.248-1.184c.049.01-.035.462-.042,1.192a8.085,8.085,0,0,0,1.879,5.243C275.1,267.19,275.448,267.485,275.417,267.524Z" transform="translate(-272.522 -260.195)" fill="#263238"/>
                </g>
              </g>
            </g>
            <g id="Group_33790" data-name="Group 33790" transform="translate(9.663 97.004)">
              <g id="Group_33789" data-name="Group 33789">
                <g id="Group_33788" data-name="Group 33788">
                  <path id="Path_92355" data-name="Path 92355" d="M214.766,352.318a1.493,1.493,0,0,1,.224-.257l.683-.7.5-.5c.188-.177.4-.356.631-.554.46-.389.962-.861,1.581-1.3l.954-.715c.334-.246.7-.468,1.076-.716.736-.509,1.578-.96,2.453-1.454a33.518,33.518,0,0,1,12.437-3.769c1-.075,1.953-.167,2.848-.152.447,0,.878-.021,1.293,0l1.19.065c.759.022,1.439.135,2.038.2.3.04.578.069.832.111l.692.138.955.2a1.474,1.474,0,0,1,.329.089,1.548,1.548,0,0,1-.341-.032l-.963-.146-.694-.112c-.255-.034-.533-.054-.832-.087-.6-.053-1.274-.151-2.029-.16l-1.184-.046c-.411-.013-.84.013-1.283.019-.887-.005-1.83.1-2.824.178a34.485,34.485,0,0,0-12.34,3.739c-.871.484-1.711.923-2.447,1.42-.371.242-.742.457-1.077.7l-.958.7c-.624.427-1.132.884-1.6,1.259-.23.192-.451.364-.644.534l-.515.479-.72.656A1.492,1.492,0,0,1,214.766,352.318Z" transform="translate(-214.765 -342.193)" fill="#263238"/>
                </g>
              </g>
            </g>
            <g id="Group_33793" data-name="Group 33793" transform="translate(52.669 6.294)">
              <g id="Group_33792" data-name="Group 33792">
                <g id="Group_33791" data-name="Group 33791">
                  <path id="Path_92356" data-name="Path 92356" d="M291.558,212.5a1.577,1.577,0,0,1-.076-.341,9.919,9.919,0,0,1-.132-.994,16.28,16.28,0,0,1,.106-3.685,29.732,29.732,0,0,1,4.369-11.279c1.216-2.036,2.419-3.943,3.339-5.77a53.007,53.007,0,0,0,2.165-4.989c.556-1.448,1-2.624,1.332-3.427.165-.4.3-.713.39-.922a.175.175,0,1,1,.055.022l-.338.941-1.245,3.459a48.835,48.835,0,0,1-2.118,5.036c-.914,1.849-2.116,3.769-3.328,5.8a30.666,30.666,0,0,0-4.416,11.159,17.79,17.79,0,0,0-.2,3.648C291.5,212.022,291.59,212.5,291.558,212.5Z" transform="translate(-291.291 -180.781)" fill="#263238"/>
                </g>
              </g>
            </g>
            <g id="Group_33796" data-name="Group 33796" transform="translate(103.674)">
              <g id="Group_33795" data-name="Group 33795">
                <g id="Group_33794" data-name="Group 33794">
                  <path id="Path_92357" data-name="Path 92357" d="M382.052,169.585a.737.737,0,0,1,.241.033,4.987,4.987,0,0,1,.677.168,8.775,8.775,0,0,1,2.309,1.114,17.209,17.209,0,0,1,5.4,6.421,25.851,25.851,0,0,1,2.5,8.04c.162,1.068.251,1.937.3,2.538a5.348,5.348,0,0,1,.036.936,6.131,6.131,0,0,1-.149-.924c-.08-.6-.2-1.458-.387-2.515a27.549,27.549,0,0,0-2.555-7.938,17.783,17.783,0,0,0-5.258-6.386A11.576,11.576,0,0,0,382.052,169.585Z" transform="translate(-382.051 -169.582)" fill="#263238"/>
                </g>
              </g>
            </g>
            <g id="Group_33799" data-name="Group 33799" transform="translate(99.891 4.417)">
              <g id="Group_33798" data-name="Group 33798">
                <g id="Group_33797" data-name="Group 33797">
                  <path id="Path_92358" data-name="Path 92358" d="M383.357,205.19a1.432,1.432,0,0,1-.013-.332c0-.217.008-.538.027-.95.038-.825.121-2.018.26-3.487s.335-3.216.587-5.151c.125-.967.264-1.982.42-3.032a15.136,15.136,0,0,0,.189-3.243,13.207,13.207,0,0,0-1.805-5.95,13.345,13.345,0,0,0-3.364-3.834,8.734,8.734,0,0,0-3.088-1.509c-.795-.2-1.254-.223-1.251-.253a1.415,1.415,0,0,1,.333.006,6.03,6.03,0,0,1,.945.137,8.422,8.422,0,0,1,3.184,1.453,13.4,13.4,0,0,1,5.339,9.935,15.146,15.146,0,0,1-.2,3.3c-.151,1.049-.3,2.061-.436,3.026-.265,1.93-.48,3.673-.647,5.137s-.28,2.651-.352,3.472c-.034.385-.061.7-.082.946A1.405,1.405,0,0,1,383.357,205.19Z" transform="translate(-375.319 -177.441)" fill="#263238"/>
                </g>
              </g>
            </g>
            <g id="Group_33802" data-name="Group 33802" transform="translate(56.055 5.325)">
              <g id="Group_33801" data-name="Group 33801">
                <g id="Group_33800" data-name="Group 33800">
                  <path id="Path_92359" data-name="Path 92359" d="M304.577,227.17a.492.492,0,0,1-.081-.111l-.212-.34L303.5,225.4c-.672-1.155-1.647-2.828-2.709-4.973a35.421,35.421,0,0,1-2.9-7.885,20.677,20.677,0,0,1,.151-10.239,16.057,16.057,0,0,1,1-2.532,19.1,19.1,0,0,1,1.36-2.263c.985-1.422,2.058-2.692,3.029-3.934a26.174,26.174,0,0,0,2.506-3.687,12.064,12.064,0,0,0,1.322-3.621,26.644,26.644,0,0,0,.2-3.2,7.766,7.766,0,0,1,.585-2.375,4.084,4.084,0,0,1,.8-1.32,1.14,1.14,0,0,1,.443-.306,2.618,2.618,0,0,0-.4.346,4.294,4.294,0,0,0-.74,1.322,7.886,7.886,0,0,0-.528,2.345,25.371,25.371,0,0,1-.156,3.227,12.18,12.18,0,0,1-1.312,3.7,26.045,26.045,0,0,1-2.508,3.738c-.969,1.251-2.034,2.523-3.005,3.931a16.253,16.253,0,0,0-2.315,4.716,20.585,20.585,0,0,0-.168,10.1,36.094,36.094,0,0,0,2.824,7.852c1.034,2.15,1.981,3.836,2.622,5.008l.74,1.349.187.354A.469.469,0,0,1,304.577,227.17Z" transform="translate(-297.316 -179.057)" fill="#263238"/>
                </g>
              </g>
            </g>
            <g id="Group_33805" data-name="Group 33805" transform="translate(38.407 56.17)" opacity="0.3">
              <g id="Group_33804" data-name="Group 33804">
                <g id="Group_33803" data-name="Group 33803">
                  <path id="Path_92360" data-name="Path 92360" d="M286.068,269.532a29.668,29.668,0,0,0-13.693,10.416A35.891,35.891,0,0,0,265.966,296c-.141.972-.055,2.262.887,2.539a1.468,1.468,0,0,0,1.564-.747,4.664,4.664,0,0,0,.5-1.783,37.612,37.612,0,0,1,17.38-26.253" transform="translate(-265.912 -269.532)"/>
                </g>
              </g>
            </g>
            <g id="Group_33808" data-name="Group 33808" transform="translate(106.011 4.625)">
              <g id="Group_33807" data-name="Group 33807">
                <g id="Group_33806" data-name="Group 33806">
                  <path id="Path_92361" data-name="Path 92361" d="M390.236,177.89a5.174,5.174,0,0,0-4.019,2.462c-.032-.012.034-.3.275-.695a3.966,3.966,0,0,1,3-1.838A1.352,1.352,0,0,1,390.236,177.89Z" transform="translate(-386.21 -177.811)" fill="#fafafa"/>
                </g>
              </g>
            </g>
            <g id="Group_33811" data-name="Group 33811" transform="translate(108.232 28.432)">
              <g id="Group_33810" data-name="Group 33810">
                <g id="Group_33809" data-name="Group 33809">
                  <path id="Path_92362" data-name="Path 92362" d="M395.227,222.415a10.164,10.164,0,0,0-5.066-2.189,5.982,5.982,0,0,1,5.066,2.189Z" transform="translate(-390.161 -220.174)" fill="#fafafa"/>
                </g>
              </g>
            </g>
            <g id="Group_33814" data-name="Group 33814" transform="translate(114.908 22.601)">
              <g id="Group_33813" data-name="Group 33813">
                <g id="Group_33812" data-name="Group 33812">
                  <path id="Path_92363" data-name="Path 92363" d="M420.007,214.868c-.025.009-.114-.252-.365-.67a5.259,5.259,0,0,0-1.4-1.494,7.64,7.64,0,0,0-2.773-1.229,27.7,27.7,0,0,0-3.737-.529c-2.682-.274-5.107-.537-6.861-.743l-2.076-.259a3.878,3.878,0,0,1-.757-.135,3.888,3.888,0,0,1,.769.021l2.085.166c1.76.153,4.188.384,6.87.658a25.548,25.548,0,0,1,3.774.559,7.547,7.547,0,0,1,2.832,1.325,4.944,4.944,0,0,1,1.371,1.6,3.132,3.132,0,0,1,.223.53C420,214.8,420.017,214.865,420.007,214.868Z" transform="translate(-402.041 -209.799)" fill="#fafafa"/>
                </g>
              </g>
            </g>
            <g id="Group_33817" data-name="Group 33817" transform="translate(110.421 43.479)">
              <g id="Group_33816" data-name="Group 33816">
                <g id="Group_33815" data-name="Group 33815">
                  <path id="Path_92364" data-name="Path 92364" d="M419.664,258.822c-.026.009-.164-.4-.468-1.105a15.1,15.1,0,0,0-1.615-2.823,16.934,16.934,0,0,0-3.345-3.454,19.233,19.233,0,0,0-5.144-2.854,25.839,25.839,0,0,0-10.6-1.308c-1.376.1-2.485.251-3.248.371l-.879.138a1.248,1.248,0,0,1-.311.031,1.268,1.268,0,0,1,.3-.089c.2-.046.49-.122.871-.193a30.234,30.234,0,0,1,3.251-.465,25.021,25.021,0,0,1,10.713,1.24,19.024,19.024,0,0,1,5.211,2.917,16.545,16.545,0,0,1,3.348,3.547,13.735,13.735,0,0,1,1.551,2.9c.153.357.221.654.288.847A1.272,1.272,0,0,1,419.664,258.822Z" transform="translate(-394.056 -246.95)" fill="#fafafa"/>
                </g>
              </g>
            </g>
            <g id="Group_33820" data-name="Group 33820" transform="translate(128.793 70.695)">
              <g id="Group_33819" data-name="Group 33819">
                <g id="Group_33818" data-name="Group 33818">
                  <path id="Path_92365" data-name="Path 92365" d="M430.769,323.759a1.1,1.1,0,0,1-.029-.292c-.008-.224-.017-.5-.028-.836,0-.362-.029-.806-.056-1.321s-.059-1.1-.114-1.746c-.19-2.587-.65-6.144-1.3-10.05s-1.333-7.431-1.8-9.987c-.235-1.277-.419-2.313-.537-3.03-.051-.332-.094-.6-.128-.827a1.154,1.154,0,0,1-.025-.292,1.106,1.106,0,0,1,.083.281l.182.817c.157.754.37,1.772.628,3.012.52,2.545,1.231,6.065,1.887,9.978a96.859,96.859,0,0,1,1.216,10.084c.042.649.066,1.238.071,1.754s.021.962.006,1.325c-.011.336-.02.613-.028.837A1.086,1.086,0,0,1,430.769,323.759Z" transform="translate(-426.749 -295.379)" fill="#fafafa"/>
                </g>
              </g>
            </g>
            <g id="Group_33823" data-name="Group 33823" transform="translate(108.699 48.714)" opacity="0.3">
              <g id="Group_33822" data-name="Group 33822">
                <g id="Group_33821" data-name="Group 33821">
                  <path id="Path_92366" data-name="Path 92366" d="M412.609,286.059a38.707,38.707,0,0,0,.724,4.457c.232,1.494,1.11,3.132,2.612,3.312a2.923,2.923,0,0,0,2.865-2.059,7.155,7.155,0,0,0,.033-3.763c-1.048-5.4-3.6-10.379-6.244-15.2-2.323-4.241-4.8-8.506-8.372-11.763s-8.466-5.406-13.235-4.607c0,0,7.115.219,11.609,4.634S412.516,283.554,412.609,286.059Z" transform="translate(-390.992 -256.265)"/>
                </g>
              </g>
            </g>
            <g id="Group_33826" data-name="Group 33826" transform="translate(108.699 13.015)" opacity="0.3">
              <g id="Group_33825" data-name="Group 33825">
                <g id="Group_33824" data-name="Group 33824">
                  <path id="Path_92367" data-name="Path 92367" d="M391.6,227.645c3.843-11.364,7.307-24.755,4.82-34.9,4.34,4.965,5.277,12.729,3.646,18.878s-5.616,11.646-9.07,16.989" transform="translate(-390.992 -192.741)"/>
                </g>
              </g>
            </g>
            <g id="Group_33829" data-name="Group 33829" transform="translate(145.609 102.035)">
              <g id="Group_33828" data-name="Group 33828">
                <g id="Group_33827" data-name="Group 33827">
                  <path id="Path_92368" data-name="Path 92368" d="M462.393,360.551c-.053,0-.081-.642-.3-1.648a12.115,12.115,0,0,0-4.1-6.732c-.793-.656-1.353-.978-1.326-1.023a1.379,1.379,0,0,1,.415.187,7.716,7.716,0,0,1,1.04.675,11,11,0,0,1,4.169,6.854,7.753,7.753,0,0,1,.121,1.233A1.368,1.368,0,0,1,462.393,360.551Z" transform="translate(-456.672 -351.145)" fill="#fafafa"/>
                </g>
              </g>
            </g>
            <g id="Group_33832" data-name="Group 33832" transform="translate(166.865 124.208)">
              <g id="Group_33831" data-name="Group 33831">
                <g id="Group_33830" data-name="Group 33830">
                  <path id="Path_92369" data-name="Path 92369" d="M498.709,390.6a2.349,2.349,0,0,1-.1,1.034,5.782,5.782,0,0,1-3.12,3.781,2.352,2.352,0,0,1-1,.293,8.223,8.223,0,0,1,.9-.478,6.564,6.564,0,0,0,3.015-3.655A8.375,8.375,0,0,1,498.709,390.6Z" transform="translate(-494.494 -390.601)" fill="#fafafa"/>
                </g>
              </g>
            </g>
            <g id="Group_33835" data-name="Group 33835" transform="translate(138.371 77.819)">
              <g id="Group_33834" data-name="Group 33834">
                <g id="Group_33833" data-name="Group 33833">
                  <path id="Path_92370" data-name="Path 92370" d="M455.02,308.056a1.114,1.114,0,0,1,.119.27c.064.182.176.445.275.8a16.9,16.9,0,0,1,.632,3.043,18.187,18.187,0,0,1-8.411,17.608,16.844,16.844,0,0,1-2.764,1.42c-.337.145-.613.223-.794.288a1.1,1.1,0,0,1-.284.077c-.009-.024.369-.171,1.033-.469a19.4,19.4,0,0,0,2.7-1.49,18.457,18.457,0,0,0,8.317-17.412,19.34,19.34,0,0,0-.536-3.034C455.119,308.45,455,308.064,455.02,308.056Z" transform="translate(-443.793 -308.056)" fill="#fafafa"/>
                </g>
              </g>
            </g>
            <g id="Group_33838" data-name="Group 33838" transform="translate(129.611 82.541)" opacity="0.3">
              <g id="Group_33837" data-name="Group 33837">
                <g id="Group_33836" data-name="Group 33836">
                  <path id="Path_92371" data-name="Path 92371" d="M452.936,335.323a7.568,7.568,0,0,0-3.021-1.455,22.17,22.17,0,0,1-3.529-1.083,4.367,4.367,0,0,1-2.471-2.6,7.341,7.341,0,0,1,.142-3.141,19.463,19.463,0,0,0-1.017-10.028.9.9,0,0,0-.35-.507.635.635,0,0,0-.777.253,1.914,1.914,0,0,0-.255.85,21.711,21.711,0,0,1-4.006,10.419c-2.315,2.968-5.478,5.436-9.242,5.373l-.206.613a12.585,12.585,0,0,0,6.217,1.644c2.166.084,4.333-.136,6.5-.139a32.675,32.675,0,0,1,13.238,2.792A3.382,3.382,0,0,0,452.936,335.323Z" transform="translate(-428.205 -316.458)"/>
                </g>
              </g>
            </g>
            <g id="Group_33841" data-name="Group 33841" transform="translate(25.391 98.258)">
              <g id="Group_33840" data-name="Group 33840">
                <g id="Group_33839" data-name="Group 33839">
                  <path id="Path_92372" data-name="Path 92372" d="M251.232,356.533c-.056.007-.145-.854-.524-2.185a16.443,16.443,0,0,0-.841-2.275,16.3,16.3,0,0,0-3.389-4.839,16.447,16.447,0,0,0-1.851-1.568c-1.122-.811-1.9-1.189-1.875-1.239a2.429,2.429,0,0,1,.561.235,5.825,5.825,0,0,1,.629.334c.239.143.519.293.8.5a14.514,14.514,0,0,1,1.92,1.544,15.289,15.289,0,0,1,3.447,4.921,14.6,14.6,0,0,1,.8,2.332c.1.337.142.653.195.926a5.992,5.992,0,0,1,.1.706A2.4,2.4,0,0,1,251.232,356.533Z" transform="translate(-242.752 -344.425)" fill="#fafafa"/>
                </g>
              </g>
            </g>
            <g id="Group_33844" data-name="Group 33844" transform="translate(41.18 85.238)">
              <g id="Group_33843" data-name="Group 33843">
                <g id="Group_33842" data-name="Group 33842">
                  <path id="Path_92373" data-name="Path 92373" d="M278.184,323.81a3.173,3.173,0,0,1-1.177.188,7.959,7.959,0,0,1-5.352-1.86,3.168,3.168,0,0,1-.806-.877,9.91,9.91,0,0,0,7.335,2.55Z" transform="translate(-270.847 -321.257)" fill="#fafafa"/>
                </g>
              </g>
            </g>
            <g id="Group_33847" data-name="Group 33847" transform="translate(35.315 70.736)">
              <g id="Group_33846" data-name="Group 33846">
                <g id="Group_33845" data-name="Group 33845">
                  <path id="Path_92374" data-name="Path 92374" d="M268.715,298.991c-.048.028-.306-.448-.893-1.069a7.028,7.028,0,0,0-1.14-.965,7.294,7.294,0,0,0-3.407-1.224,7.057,7.057,0,0,0-1.493.02c-.849.106-1.351.309-1.37.257-.007-.018.112-.08.339-.176a4.545,4.545,0,0,1,1-.285,6.275,6.275,0,0,1,1.546-.084,6.919,6.919,0,0,1,3.539,1.271,6.256,6.256,0,0,1,1.14,1.049,4.549,4.549,0,0,1,.59.856C268.679,298.858,268.733,298.982,268.715,298.991Z" transform="translate(-260.411 -295.451)" fill="#fafafa"/>
                </g>
              </g>
            </g>
            <g id="Group_33850" data-name="Group 33850" transform="translate(26.608 82.369)">
              <g id="Group_33849" data-name="Group 33849">
                <g id="Group_33848" data-name="Group 33848">
                  <path id="Path_92375" data-name="Path 92375" d="M250.777,316.5a8.679,8.679,0,0,0-5.859,1.175c-.021-.027.225-.28.706-.584a6.31,6.31,0,0,1,4.276-.858A2.1,2.1,0,0,1,250.777,316.5Z" transform="translate(-244.917 -316.151)" fill="#fafafa"/>
                </g>
              </g>
            </g>
            <g id="Group_33853" data-name="Group 33853" transform="translate(37.82 57.087)">
              <g id="Group_33852" data-name="Group 33852">
                <g id="Group_33851" data-name="Group 33851">
                  <path id="Path_92376" data-name="Path 92376" d="M270.768,274.264a2.5,2.5,0,0,1-1.021,0,7.045,7.045,0,0,1-4.3-2.258,2.5,2.5,0,0,1-.577-.842,9.315,9.315,0,0,0,5.9,3.1Z" transform="translate(-264.868 -271.164)" fill="#fafafa"/>
                </g>
              </g>
            </g>
            <g id="Group_33856" data-name="Group 33856" transform="translate(52.445 56.313)">
              <g id="Group_33855" data-name="Group 33855">
                <g id="Group_33854" data-name="Group 33854">
                  <path id="Path_92377" data-name="Path 92377" d="M293.4,271.737c-.076.041-.441-.591-1.136-1.116s-1.391-.725-1.371-.81a2.817,2.817,0,0,1,2.508,1.925Z" transform="translate(-290.892 -269.787)" fill="#fafafa"/>
                </g>
              </g>
            </g>
            <g id="Group_33859" data-name="Group 33859" transform="translate(46.958 35.62)">
              <g id="Group_33858" data-name="Group 33858">
                <g id="Group_33857" data-name="Group 33857">
                  <path id="Path_92378" data-name="Path 92378" d="M295.439,251.542a.9.9,0,0,1-.265-.008c-.173-.02-.43-.031-.755-.091a14.625,14.625,0,0,1-2.708-.7,15.867,15.867,0,0,1-10.548-13.975,14.6,14.6,0,0,1,.069-2.8c.031-.329.091-.579.119-.75a.9.9,0,0,1,.065-.257,9.28,9.28,0,0,1-.071,1.019,16.97,16.97,0,0,0,.024,2.768,16.108,16.108,0,0,0,10.414,13.8,17.045,17.045,0,0,0,2.656.782A9.145,9.145,0,0,1,295.439,251.542Z" transform="translate(-281.128 -232.965)" fill="#fafafa"/>
                </g>
              </g>
            </g>
            <g id="Group_33862" data-name="Group 33862" transform="translate(55.127 25.858)">
              <g id="Group_33861" data-name="Group 33861">
                <g id="Group_33860" data-name="Group 33860">
                  <path id="Path_92379" data-name="Path 92379" d="M296.863,218.735c-.021.029-.211-.053-.449-.282a2.59,2.59,0,0,1-.686-2.38c.08-.32.2-.491.229-.477a3.739,3.739,0,0,0,.905,3.139Z" transform="translate(-295.665 -215.595)" fill="#fafafa"/>
                </g>
              </g>
            </g>
            <g id="Group_33865" data-name="Group 33865" transform="translate(61.919 12.06)">
              <g id="Group_33864" data-name="Group 33864">
                <g id="Group_33863" data-name="Group 33863">
                  <path id="Path_92380" data-name="Path 92380" d="M311,193.446c.011.028-.23.16-.664.175a2.648,2.648,0,0,1-2.524-1.893c-.107-.421-.048-.69-.018-.687.049,0,.068.255.214.622a2.875,2.875,0,0,0,2.335,1.751C310.736,193.452,310.988,193.4,311,193.446Z" transform="translate(-307.751 -191.042)" fill="#fafafa"/>
                </g>
              </g>
            </g>
            <g id="Group_33868" data-name="Group 33868" transform="translate(5.212 111.35)">
              <g id="Group_33867" data-name="Group 33867">
                <g id="Group_33866" data-name="Group 33866">
                  <path id="Path_92381" data-name="Path 92381" d="M209.685,372.741a1.815,1.815,0,0,1-.824-.376,4.675,4.675,0,0,1-2.016-3.749,1.826,1.826,0,0,1,.141-.895,5.961,5.961,0,0,1,.066.883,5.314,5.314,0,0,0,1.932,3.594C209.4,372.538,209.705,372.7,209.685,372.741Z" transform="translate(-206.845 -367.721)" fill="#fafafa"/>
                </g>
              </g>
            </g>
            <g id="Group_33871" data-name="Group 33871" transform="translate(0 129.711)">
              <g id="Group_33870" data-name="Group 33870">
                <g id="Group_33869" data-name="Group 33869">
                  <path id="Path_92382" data-name="Path 92382" d="M201.179,401.945a4.539,4.539,0,0,1-3.606-1.545c.057-.066.749.493,1.743.913S201.187,401.858,201.179,401.945Z" transform="translate(-197.57 -400.394)" fill="#fafafa"/>
                </g>
              </g>
            </g>
          </g>
          <g id="Group_33875" data-name="Group 33875" transform="translate(92.662 98.888)" opacity="0.3">
            <g id="Group_33874" data-name="Group 33874">
              <g id="Group_33873" data-name="Group 33873">
                <path id="Path_92383" data-name="Path 92383" d="M362.456,281.6" transform="translate(-362.456 -281.597)"/>
              </g>
            </g>
          </g>
          <g id="Group_33878" data-name="Group 33878" transform="translate(89.076)">
            <g id="Group_33877" data-name="Group 33877">
              <g id="Group_33876" data-name="Group 33876">
                <path id="Path_92384" data-name="Path 92384" d="M357.461,105.634a24.165,24.165,0,0,0-1.007,4.035,24.117,24.117,0,0,0,0,4.16,3.838,3.838,0,0,1-.282-1.2,11.9,11.9,0,0,1,.721-5.888A3.873,3.873,0,0,1,357.461,105.634Z" transform="translate(-356.075 -105.633)" fill="#263238"/>
              </g>
            </g>
          </g>
          <g id="Group_33881" data-name="Group 33881" transform="translate(89.088 3.244)">
            <g id="Group_33880" data-name="Group 33880">
              <g id="Group_33879" data-name="Group 33879">
                <path id="Path_92385" data-name="Path 92385" d="M361.94,111.411a13.9,13.9,0,0,0-5.84,5.205,3.425,3.425,0,0,1,.513-1.062,10.093,10.093,0,0,1,4.213-3.755A3.424,3.424,0,0,1,361.94,111.411Z" transform="translate(-356.096 -111.405)" fill="#263238"/>
              </g>
            </g>
          </g>
          <g id="Group_33884" data-name="Group 33884" transform="translate(64.981 1.508)">
            <g id="Group_33883" data-name="Group 33883">
              <g id="Group_33882" data-name="Group 33882">
                <path id="Path_92386" data-name="Path 92386" d="M316.952,108.792a2.138,2.138,0,0,0-1.239-.361,2.534,2.534,0,0,0-1.406.528,2.181,2.181,0,0,0-.9,1.705,3.152,3.152,0,0,0,.89,2.2,3.609,3.609,0,0,0,1.09.789,4.3,4.3,0,0,0,1.391.356,6.405,6.405,0,0,0,3.045-.549,17.155,17.155,0,0,0,2.928-1.716,23.567,23.567,0,0,1,2.929-1.819,7.591,7.591,0,0,1,3.118-.829,10.384,10.384,0,0,1,2.9.337,12.363,12.363,0,0,1,2.4.831,4.715,4.715,0,0,1,1.659,1.289A3.274,3.274,0,0,1,336.4,113a2.373,2.373,0,0,1-.03,1,1.128,1.128,0,0,1-.125.325,2.926,2.926,0,0,0,.043-1.305,3.244,3.244,0,0,0-.665-1.368,4.622,4.622,0,0,0-1.622-1.2,12.483,12.483,0,0,0-2.364-.782,10.3,10.3,0,0,0-2.828-.3,7.375,7.375,0,0,0-3,.817,23.841,23.841,0,0,0-2.89,1.8,17.1,17.1,0,0,1-2.981,1.738,6.637,6.637,0,0,1-3.182.554,4.544,4.544,0,0,1-1.474-.391,3.824,3.824,0,0,1-1.16-.858,3.354,3.354,0,0,1-.918-2.369,2.343,2.343,0,0,1,.32-1.089,2.541,2.541,0,0,1,.686-.737,2.61,2.61,0,0,1,1.5-.511,1.838,1.838,0,0,1,.969.257,1.2,1.2,0,0,1,.21.155C316.934,108.767,316.955,108.788,316.952,108.792Z" transform="translate(-313.199 -108.317)" fill="#263238"/>
              </g>
            </g>
          </g>
          <g id="Group_33887" data-name="Group 33887" transform="translate(65.688 15.898)">
            <g id="Group_33886" data-name="Group 33886">
              <g id="Group_33885" data-name="Group 33885">
                <path id="Path_92387" data-name="Path 92387" d="M314.457,144.575c.006-.031.35.051.98.08a8.1,8.1,0,0,0,2.627-.35,12.261,12.261,0,0,0,3.515-1.767,31.867,31.867,0,0,0,3.655-3.2,33.142,33.142,0,0,1,3.682-3.239,12.393,12.393,0,0,1,3.576-1.818,7.759,7.759,0,0,1,2.682-.345,5.14,5.14,0,0,1,.731.094.836.836,0,0,1,.248.065,8.778,8.778,0,0,0-3.6.383,12.679,12.679,0,0,0-3.48,1.839,35.189,35.189,0,0,0-3.635,3.23,30.205,30.205,0,0,1-3.7,3.212,12,12,0,0,1-3.612,1.745,7.581,7.581,0,0,1-2.691.264,5.059,5.059,0,0,1-.727-.12A.856.856,0,0,1,314.457,144.575Z" transform="translate(-314.457 -133.923)" fill="#263238"/>
              </g>
            </g>
          </g>
          <g id="Group_33890" data-name="Group 33890" transform="translate(90.165 7.118)">
            <g id="Group_33889" data-name="Group 33889">
              <g id="Group_33888" data-name="Group 33888">
                <path id="Path_92388" data-name="Path 92388" d="M367.535,122.426a14.139,14.139,0,0,0-.864-1.449,5.843,5.843,0,0,0-7.2-1.852,14.066,14.066,0,0,0-1.456.853c-.012-.012.093-.14.316-.338a5.066,5.066,0,0,1,1.051-.7,5.782,5.782,0,0,1,7.459,1.918,5.088,5.088,0,0,1,.582,1.121A1.248,1.248,0,0,1,367.535,122.426Z" transform="translate(-358.012 -118.3)" fill="#263238"/>
              </g>
            </g>
          </g>
          <g id="Group_33906" data-name="Group 33906" transform="translate(22.206 49.286)">
            <g id="Group_33893" data-name="Group 33893" transform="translate(105.121)">
              <g id="Group_33892" data-name="Group 33892">
                <g id="Group_33891" data-name="Group 33891">
                  <path id="Path_92389" data-name="Path 92389" d="M431.126,209.323a3.86,3.86,0,0,1-.063-.763c-.016-.548-.037-1.245-.062-2.078-.016-.9-.034-1.935-.055-3.079a9.982,9.982,0,0,0-.129-1.79,2.281,2.281,0,0,0-.924-1.54,5.04,5.04,0,0,1-.8-.636,1.354,1.354,0,0,1-.339-.986c.008-.334.07-.638.06-.92a.94.94,0,0,0-.3-.7,11.947,11.947,0,0,0-1.423-.769,2.822,2.822,0,0,1-.912-1.16,3.951,3.951,0,0,0-.609-.98,1.692,1.692,0,0,0-.717-.454,1.067,1.067,0,0,0-.715.06.74.74,0,0,1,.742-.171,1.746,1.746,0,0,1,.8.448,3.9,3.9,0,0,1,.676,1,2.66,2.66,0,0,0,.86,1.053,10.22,10.22,0,0,1,1.475.776,1.218,1.218,0,0,1,.4.886c.013.327-.049.637-.052.935a1.066,1.066,0,0,0,.27.788,4.984,4.984,0,0,0,.754.594,2.3,2.3,0,0,1,.7.772,3.178,3.178,0,0,1,.328.949,9.806,9.806,0,0,1,.116,1.837c0,1.146-.006,2.188-.008,3.087-.012.834-.022,1.531-.03,2.08A3.826,3.826,0,0,1,431.126,209.323Z" transform="translate(-424.141 -193.335)" fill="#263238"/>
                </g>
              </g>
            </g>
            <g id="Group_33896" data-name="Group 33896" transform="translate(111.499 4.729)">
              <g id="Group_33895" data-name="Group 33895">
                <g id="Group_33894" data-name="Group 33894">
                  <path id="Path_92390" data-name="Path 92390" d="M438.168,215.656a1.3,1.3,0,0,1-.254-.56,3.6,3.6,0,0,1,.021-1.676c.135-.7.475-1.477.716-2.352a3.132,3.132,0,0,0-.266-2.763c-.15-.211-.324-.415-.467-.65a1.784,1.784,0,0,1-.266-.78,7.815,7.815,0,0,1,.12-1.47,3.475,3.475,0,0,0-.6-2.248,3.781,3.781,0,0,0-1.159-1.112c-.331-.2-.537-.267-.528-.292a1.532,1.532,0,0,1,.583.193,3.551,3.551,0,0,1,1.273,1.093,3.608,3.608,0,0,1,.7,2.389,8.171,8.171,0,0,0-.1,1.417,2.583,2.583,0,0,0,.686,1.29,2.617,2.617,0,0,1,.506,1.535,4.97,4.97,0,0,1-.218,1.47c-.266.9-.619,1.653-.774,2.327a3.821,3.821,0,0,0-.111,1.605C438.093,215.448,438.192,215.645,438.168,215.656Z" transform="translate(-435.488 -201.751)" fill="#263238"/>
                </g>
              </g>
            </g>
            <g id="Group_33899" data-name="Group 33899" transform="translate(13.486 12.987)">
              <g id="Group_33898" data-name="Group 33898">
                <g id="Group_33897" data-name="Group 33897">
                  <path id="Path_92391" data-name="Path 92391" d="M261.091,235.682a.69.69,0,0,1-.008-.226,5.429,5.429,0,0,1,.06-.643,11.006,11.006,0,0,1,.614-2.293c.354-.941.845-2.019,1.428-3.211a6.186,6.186,0,0,1,1.217-1.717c.528-.5,1.18-.91,1.4-1.591s.119-1.475.421-2.179a10.383,10.383,0,0,1,1.052-1.811l1.938-2.918,1.329-1.953a4.946,4.946,0,0,1,.52-.695,4.911,4.911,0,0,1-.425.756l-1.25,2-1.886,2.952a10.5,10.5,0,0,0-1.009,1.767c-.278.635-.167,1.388-.412,2.17A4.507,4.507,0,0,1,264.6,227.8a6.013,6.013,0,0,0-1.175,1.633c-.588,1.169-1.1,2.245-1.474,3.161a12.8,12.8,0,0,0-.695,2.238C261.144,235.375,261.116,235.683,261.091,235.682Z" transform="translate(-261.081 -216.444)" fill="#263238"/>
                </g>
              </g>
            </g>
            <g id="Group_33902" data-name="Group 33902" transform="translate(0 60.476)">
              <g id="Group_33901" data-name="Group 33901">
                <g id="Group_33900" data-name="Group 33900">
                  <path id="Path_92392" data-name="Path 92392" d="M237.837,317.757a.806.806,0,0,0,.618-.307,1.2,1.2,0,0,0,.242-.773,2.111,2.111,0,0,0-.429-1.013,7.523,7.523,0,0,1-.763-1.2,4.625,4.625,0,0,1-.409-1.6,4.762,4.762,0,0,1,.22-1.816,5.184,5.184,0,0,1,.973-1.7,4.226,4.226,0,0,0,.506-.791,2.249,2.249,0,0,0,.191-.862,8.984,8.984,0,0,0-.23-1.74,4.933,4.933,0,0,1-.055-1.65,4.777,4.777,0,0,1,.433-1.372,4.485,4.485,0,0,1,1.3-1.6,3.126,3.126,0,0,1,.471-.3c.114-.059.175-.085.18-.076.014.024-.22.156-.579.469a4.722,4.722,0,0,0-1.183,1.6,4.5,4.5,0,0,0-.3,2.885,8.831,8.831,0,0,1,.252,1.8,2.518,2.518,0,0,1-.212.974,4.41,4.41,0,0,1-.538.848,4.966,4.966,0,0,0-.933,1.609,4.561,4.561,0,0,0-.223,1.709,4.467,4.467,0,0,0,.361,1.522,7.729,7.729,0,0,0,.714,1.19,2.224,2.224,0,0,1,.42,1.122,1.292,1.292,0,0,1-.319.851.759.759,0,0,1-.508.266A.345.345,0,0,1,237.837,317.757Z" transform="translate(-237.084 -300.947)" fill="#263238"/>
                </g>
              </g>
            </g>
            <g id="Group_33905" data-name="Group 33905" transform="translate(120.799 46.665)">
              <g id="Group_33904" data-name="Group 33904">
                <g id="Group_33903" data-name="Group 33903">
                  <path id="Path_92393" data-name="Path 92393" d="M464.065,290.716c-.03,0,.035-.307-.033-.845a3.538,3.538,0,0,0-.991-2,3.257,3.257,0,0,0-1.317-.8,7.176,7.176,0,0,1-.846-.337,1.682,1.682,0,0,1-.742-.688,4.26,4.26,0,0,1-.174-2.073,2.144,2.144,0,0,0-.175-.983,1.526,1.526,0,0,0-.728-.678c-1.318-.605-2.856,0-4.143-.6a1.927,1.927,0,0,1-.78-.636,2.286,2.286,0,0,1-.354-.871,9.25,9.25,0,0,1-.09-1.622,3.206,3.206,0,0,0-.23-1.259,1.621,1.621,0,0,0-.626-.708,1.306,1.306,0,0,0-.8-.17.9.9,0,0,1,.851.071,1.7,1.7,0,0,1,.718.736,3.277,3.277,0,0,1,.29,1.322,9.556,9.556,0,0,0,.121,1.58,1.732,1.732,0,0,0,1.008,1.312,4.691,4.691,0,0,0,1.946.257,4.915,4.915,0,0,1,2.211.323,1.814,1.814,0,0,1,.862.812,2.417,2.417,0,0,1,.2,1.118,4.163,4.163,0,0,0,.125,1.942,2.421,2.421,0,0,0,1.435.925,3.424,3.424,0,0,1,1.381.886,3.522,3.522,0,0,1,.956,2.133,2.912,2.912,0,0,1-.024.641A.635.635,0,0,1,464.065,290.716Z" transform="translate(-452.039 -276.373)" fill="#263238"/>
                </g>
              </g>
            </g>
          </g>
          <g id="Group_33923" data-name="Group 33923" transform="translate(91.46 103.263)">
            <g id="Group_33908" data-name="Group 33908">
              <g id="Group_33907" data-name="Group 33907">
                <path id="Path_92394" data-name="Path 92394" d="M376,310.612c-4.493-5.428-7.306-12.306-12.221-21.23,0,0-9.289,40.358,2.56,41.307,5.5.441,8.717-3.031,6.951-12.748C372.115,311.465,376,310.612,376,310.612Z" transform="translate(-360.317 -289.382)" fill="#e8505b"/>
              </g>
            </g>
            <g id="Group_33911" data-name="Group 33911" transform="translate(6.476 9.547)">
              <g id="Group_33910" data-name="Group 33910">
                <g id="Group_33909" data-name="Group 33909">
                  <path id="Path_92395" data-name="Path 92395" d="M374.086,306.37a1.194,1.194,0,0,1-.023.3c-.032.23-.072.515-.121.863-.112.791-.262,1.863-.447,3.171-.358,2.679-.809,6.387-1.115,10.5-.288,4.107-.452,7.863.068,10.511a13.01,13.01,0,0,0,.923,3.038c.306.688.538,1.039.509,1.056a1.218,1.218,0,0,1-.178-.248,6.917,6.917,0,0,1-.434-.759,11.984,11.984,0,0,1-1.023-3.047c-.579-2.678-.445-6.458-.156-10.571.306-4.121.791-7.832,1.2-10.507.2-1.338.4-2.416.539-3.159.07-.345.129-.627.175-.854A1.181,1.181,0,0,1,374.086,306.37Z" transform="translate(-371.841 -306.37)" fill="#263238"/>
                </g>
              </g>
            </g>
            <g id="Group_33914" data-name="Group 33914" transform="translate(1.157 35.478)">
              <g id="Group_33913" data-name="Group 33913">
                <g id="Group_33912" data-name="Group 33912">
                  <path id="Path_92396" data-name="Path 92396" d="M368.324,352.522a7.276,7.276,0,0,1-5.949.527,12.982,12.982,0,0,0,5.949-.527Z" transform="translate(-362.375 -352.513)" fill="#fafafa"/>
                </g>
              </g>
            </g>
            <g id="Group_33917" data-name="Group 33917" transform="translate(7.002 21.524)">
              <g id="Group_33916" data-name="Group 33916">
                <g id="Group_33915" data-name="Group 33915">
                  <path id="Path_92397" data-name="Path 92397" d="M378.928,329.034c-.035.082-1.342-.465-3.04-.811s-3.113-.375-3.112-.464a10.739,10.739,0,0,1,6.152,1.275Z" transform="translate(-372.776 -327.682)" fill="#fafafa"/>
                </g>
              </g>
            </g>
            <g id="Group_33920" data-name="Group 33920" transform="translate(2.507 6.705)">
              <g id="Group_33919" data-name="Group 33919">
                <g id="Group_33918" data-name="Group 33918">
                  <path id="Path_92398" data-name="Path 92398" d="M370.414,304.055a12.447,12.447,0,0,0-5.636-2.715,7.415,7.415,0,0,1,5.636,2.715Z" transform="translate(-364.779 -301.313)" fill="#fafafa"/>
                </g>
              </g>
            </g>
            <g id="Group_33922" data-name="Group 33922" transform="translate(6.878 9.891)" opacity="0.3">
              <g id="Group_33921" data-name="Group 33921">
                <path id="Path_92399" data-name="Path 92399" d="M374.338,306.983s-4.67,29.1,1.11,29.826c0,0,1.744.579,2.722-2.72s-.279-7.164-.574-9.343a6.924,6.924,0,0,1,1.477-5.195,3.658,3.658,0,0,1,2.289-1.386C381.264,318.36,374.4,307.1,374.338,306.983Z" transform="translate(-372.556 -306.983)"/>
              </g>
            </g>
          </g>
          <g id="Group_33926" data-name="Group 33926" transform="translate(69.096 37.327)">
            <g id="Group_33925" data-name="Group 33925">
              <g id="Group_33924" data-name="Group 33924">
                <path id="Path_92400" data-name="Path 92400" d="M324.84,172.872c.016.4-.982.765-2.222.666s-2.169-.612-2.091-1.006,1.059-.541,2.206-.453S324.825,172.466,324.84,172.872Z" transform="translate(-320.522 -172.054)" fill="#eb996e"/>
              </g>
            </g>
          </g>
          <g id="Group_33929" data-name="Group 33929" transform="translate(83.456 35.493)">
            <g id="Group_33928" data-name="Group 33928">
              <g id="Group_33927" data-name="Group 33927">
                <path id="Path_92401" data-name="Path 92401" d="M354.043,168.912c.18.354-1.4,1.515-3.676,2.233s-4.234.7-4.291.3,1.7-1.008,3.847-1.7S353.86,168.544,354.043,168.912Z" transform="translate(-346.074 -168.791)" fill="#eb996e"/>
              </g>
            </g>
          </g>
        </g>
      </g>
    </g>
  </g>
</svg>
