<svg xmlns="http://www.w3.org/2000/svg" width="229.92" height="217.5" viewBox="0 0 229.92 217.5">
  <g id="Group_35256" data-name="Group 35256" transform="translate(-138.704 -3434.146)">
    <path id="Path_92640" data-name="Path 92640" d="M373.441,2417.852H144.521" transform="translate(-5.317 1233.295)" fill="none" stroke="#707070" stroke-linecap="round" stroke-width="1" opacity="0.31"/>
    <g id="Group_34045" data-name="Group 34045" transform="translate(176.755 3434.147)">
      <g id="Group_34018" data-name="Group 34018" transform="translate(0 0)">
        <g id="Group_33962" data-name="Group 33962" transform="translate(26.019 39.612)">
          <path id="Path_92511" data-name="Path 92511" d="M303.769,140.455a44.355,44.355,0,0,1-5.162-4.851c-.088,2.149-.623,4.7-.711,6.854a26.505,26.505,0,0,0,2.391,2.274,6.556,6.556,0,0,0,3.483-4.277Z" transform="translate(-297.895 -135.604)" fill="#f0bf6c"/>
          <path id="Path_92512" data-name="Path 92512" d="M311.854,148.766a44.283,44.283,0,0,1-5.976-4.032,6.556,6.556,0,0,1-3.483,4.277,20.275,20.275,0,0,0,2.272,1.672C307,150.125,309.525,149.325,311.854,148.766Z" transform="translate(-300.003 -139.883)" fill="#f2c9ad"/>
          <path id="Path_92513" data-name="Path 92513" d="M302.09,144.766c-.253-.458-.49-.925-.7-1.4-.416-.961-.742-1.963-1.229-2.89a5.636,5.636,0,0,0-1.676-2.022c-.19,1.774-.523,3.679-.592,5.342a26.5,26.5,0,0,0,2.391,2.274,6.617,6.617,0,0,0,1.79-1.283Z" transform="translate(-297.895 -136.937)" fill="#eba25d"/>
          <path id="Path_92514" data-name="Path 92514" d="M304.184,150.354a6.616,6.616,0,0,1-1.79,1.283,20.271,20.271,0,0,0,2.272,1.672c.435-.1.881-.223,1.327-.341a16.662,16.662,0,0,1-1.794-2.631Z" transform="translate(-300.003 -142.508)" fill="#402c49"/>
        </g>
        <g id="Group_33973" data-name="Group 33973" transform="translate(0 98.374)">
          <g id="Group_33965" data-name="Group 33965" transform="translate(68.149 86.942)">
            <g id="Group_33963" data-name="Group 33963">
              <path id="Path_92515" data-name="Path 92515" d="M402.229,417.056l-8.5-7.252-8.17,6.6,2.37,2.79-3.1,9.7-3.007,1.933a9.647,9.647,0,0,0-4.191,5.993h11.641a4.988,4.988,0,0,0,4.462-2.759Z" transform="translate(-377.393 -409.804)" fill="#a64f5a"/>
              <path id="Path_92516" data-name="Path 92516" d="M389.063,443.211H377.422a9.625,9.625,0,0,0-.242,2.125H389.9a4.987,4.987,0,0,0,4.462-2.759l8.984-17.987-1.334-1.139-8.491,17A4.988,4.988,0,0,1,389.063,443.211Z" transform="translate(-377.18 -416.2)" fill="#df8d6d"/>
            </g>
            <path id="Path_92517" data-name="Path 92517" d="M395.463,442.577a1.349,1.349,0,0,0,1.206-.283.89.89,0,0,0,.006-.995,2.366,2.366,0,0,0-.774-.71,16.483,16.483,0,0,0-3.551-1.755l-1.17,3.66C392.563,442.494,394.086,442.447,395.463,442.577Z" transform="translate(-383.741 -423.408)" fill="#8c404c"/>
            <g id="Group_33964" data-name="Group 33964" transform="translate(8.17)">
              <path id="Path_92518" data-name="Path 92518" d="M400.591,415.013h0l1.008-.814Z" transform="translate(-396.321 -411.863)" fill="#fff" stroke="#222221" stroke-miterlimit="10" stroke-width="1"/>
              <path id="Path_92519" data-name="Path 92519" d="M411.349,420.521l-.063-.422a5.734,5.734,0,0,0-1.66-3.254l-.681-.667a7.49,7.49,0,0,1-2.018,3.472,5.73,5.73,0,0,0,3.608,1.734A.754.754,0,0,0,411.349,420.521Z" transform="translate(-399.29 -412.791)" fill="#8c404c"/>
              <path id="Path_92520" data-name="Path 92520" d="M406.865,413.191a8.149,8.149,0,0,0,.265-1.893l-1.75-1.494-2.892,2.335,1.81-1.462Z" transform="translate(-397.21 -409.804)" fill="#402c49"/>
              <path id="Path_92521" data-name="Path 92521" d="M396.825,415.731l-4.27,3.449,2.37,2.79a9.293,9.293,0,0,0,5.267-2.529c-.043-.044-.089-.085-.13-.131Z" transform="translate(-392.555 -412.582)" fill="#402c49"/>
              <path id="Path_92522" data-name="Path 92522" d="M405.975,413.961l-2.567-2.514-1.81,1.462-1.009.814,3.237,3.579c.041.046.087.087.13.131A7.489,7.489,0,0,0,405.975,413.961Z" transform="translate(-396.32 -410.574)" fill="#454f6b"/>
            </g>
          </g>
          <g id="Group_33967" data-name="Group 33967" transform="translate(38.099 30.97)">
            <path id="Path_92523" data-name="Path 92523" d="M354.132,364.118l1.934-.483a11.722,11.722,0,0,0,8.428-8.151h0a3.686,3.686,0,0,0-.6-2.866,7.307,7.307,0,0,0-2.09-1.546,3.787,3.787,0,0,1-1.774-1.848c-.529-1.56.769-3.525-.255-4.816-.842-1.061-2.537-.725-3.767-1.291a3.592,3.592,0,0,1-1.851-2.652,5.993,5.993,0,0,1-.1-.831,6.908,6.908,0,0,0-2.389-4.786l-16.006-14.17.708-16.207-15.747,30.6Z" transform="translate(-320.628 -304.471)" fill="#454f6b"/>
            <path id="Path_92524" data-name="Path 92524" d="M393.606,398.077l-.363,1.272a11.722,11.722,0,0,1-8.428,8.151l-2.841.71,5.816,4.49,2.22-.74a11.72,11.72,0,0,0,7.514-7.724l.434-1.433Z" transform="translate(-349.376 -348.337)" fill="#7284a3"/>
            <g id="Group_33966" data-name="Group 33966">
              <path id="Path_92525" data-name="Path 92525" d="M336.079,350.979c-.063-2.18-.528-4.369-.2-6.526a13.064,13.064,0,0,1,1.468-4.1l-5.924-5.777-.372-10.617-10.42,20.25,14.6,12.657A17.68,17.68,0,0,0,336.079,350.979Z" transform="translate(-320.628 -313.603)" fill="#402c49"/>
              <path id="Path_92526" data-name="Path 92526" d="M347.23,330.73c.469-.852.98-1.687,1.47-2.519a24.471,24.471,0,0,0,1.594-3.107l-5-4.425L346,304.471l-4.83,9.387.4,11.353Z" transform="translate(-330.256 -304.471)" fill="#402c49"/>
              <path id="Path_92527" data-name="Path 92527" d="M375.44,378.9c-.292-.286-.595-.566-.9-.848a11.765,11.765,0,0,1-2.937-3.533c-.134-.3-.249-.617-.36-.927a4.047,4.047,0,0,0-3.664-3.26,10.437,10.437,0,0,1-1.3-.387,6.557,6.557,0,0,1-3.469-4.287,6.945,6.945,0,0,0-1.935-3.444l-8.536-8.324c-.089.162-.173.326-.259.49l8.424,8.215a6.414,6.414,0,0,1,1.787,3.181,7.033,7.033,0,0,0,3.791,4.662,10.722,10.722,0,0,0,1.365.41,3.551,3.551,0,0,1,3.293,2.923c.115.32.233.652.377.967a12.155,12.155,0,0,0,3.06,3.7c.3.278.6.555.887.838a22.057,22.057,0,0,1,2.479,2.891c.108-.154.211-.314.312-.474A22.5,22.5,0,0,0,375.44,378.9Z" transform="translate(-335.37 -327.629)" fill="#525f7c"/>
              <path id="Path_92528" data-name="Path 92528" d="M346.533,339.5c.086-.164.17-.328.259-.49l-5.659-5.518-.4-11.353-.5.967.372,10.617Z" transform="translate(-329.817 -312.75)" fill="#454f6b"/>
            </g>
          </g>
          <g id="Group_33972" data-name="Group 33972">
            <path id="Path_92529" data-name="Path 92529" d="M296.835,246.188v42.395l-3.026,6.653a31.165,31.165,0,0,0-2.534,8.859L287.1,335.963l17.314,2.569c1.033-1.68-.041-4.078.537-5.963a7.716,7.716,0,0,1,2.28-2.978,4.861,4.861,0,0,0,1.789-3.229c0-1.19-.783-2.232-1.055-3.391a6.128,6.128,0,0,1,.856-4.256c.714-1.3,1.657-2.459,2.358-3.763a11.8,11.8,0,0,0,.774-9.242,3.543,3.543,0,0,1,.227-3.179l17.142-31.478a41.549,41.549,0,0,0,5-22.154l-.149-2.711Z" transform="translate(-266.816 -246.188)" fill="#454f6b"/>
            <path id="Path_92530" data-name="Path 92530" d="M305.376,295.2l10.1-30.554-6.731-4.34h0a7.032,7.032,0,0,0,2.171,4.642l.06.057a2.02,2.02,0,0,1,.206,2.68,7.869,7.869,0,0,0-1.409,3.908c-.094,1.406.4,2.8.319,4.207a12.676,12.676,0,0,1-1.627,4.546A31.635,31.635,0,0,0,305.376,295.2Z" transform="translate(-275.357 -252.803)" fill="#402c49"/>
            <g id="Group_33968" data-name="Group 33968" transform="translate(30.018)">
              <path id="Path_92531" data-name="Path 92531" d="M316.363,255.931a23.646,23.646,0,0,0,14.276-.114l.56,6.731a3.713,3.713,0,0,1,2.92-1.93,10.775,10.775,0,0,1,2.7.1,41.121,41.121,0,0,0,1.831-14.528h-33.23v2.5A23.67,23.67,0,0,0,316.363,255.931Z" transform="translate(-305.422 -246.188)" fill="#402c49"/>
              <path id="Path_92532" data-name="Path 92532" d="M365.521,260.777l.179.019a17.655,17.655,0,0,0,4.327-.122,41.533,41.533,0,0,0,1.041-11.775l-.149-2.711h-3.572A41.579,41.579,0,0,1,365.521,260.777Z" transform="translate(-333.586 -246.188)" fill="#402c49"/>
              <path id="Path_92533" data-name="Path 92533" d="M364.511,260.716q.269.032.537.061a41.58,41.58,0,0,0,1.826-14.589h-.532A41.121,41.121,0,0,1,364.511,260.716Z" transform="translate(-333.113 -246.188)" fill="#454f6b"/>
              <path id="Path_92534" data-name="Path 92534" d="M315.214,348.164l-.045-.6c-.152-1.948-.308-3.961.518-5.67a11.167,11.167,0,0,1,1.085-1.68,5.572,5.572,0,0,0,1.216-5.915,9.063,9.063,0,0,1-.336-2.353,8.736,8.736,0,0,1,1.661-4.094c.3-.492.612-1,.88-1.514a12.271,12.271,0,0,0,.775-9.068,6.286,6.286,0,0,1,.751-5.062c4.864-7.853,9.974-16.245,14.3-24.909a84.234,84.234,0,0,0,5.6-13.71c-.179-.019-.358-.039-.537-.061a83.9,83.9,0,0,1-5.541,13.533c-4.314,8.644-9.417,17.024-14.274,24.866a6.818,6.818,0,0,0-.81,5.491,11.734,11.734,0,0,1-.735,8.673c-.26.5-.566,1-.863,1.483a9.252,9.252,0,0,0-1.739,4.35,9.439,9.439,0,0,0,.35,2.494,5.077,5.077,0,0,1-1.127,5.482,11.516,11.516,0,0,0-1.134,1.763c-.888,1.839-.726,3.925-.57,5.943l.046.6a14.966,14.966,0,0,1-.014,2.757l.526.078A15.4,15.4,0,0,0,315.214,348.164Z" transform="translate(-309.683 -259.001)" fill="#525f7c"/>
            </g>
            <path id="Path_92535" data-name="Path 92535" d="M301.733,425.272,281.719,422.3l1.508-7.542,20.014,2.969Z" transform="translate(-264.296 -325.185)" fill="#7284a3"/>
            <g id="Group_33971" data-name="Group 33971" transform="translate(0 97.448)">
              <g id="Group_33969" data-name="Group 33969" transform="translate(0 0)">
                <path id="Path_92536" data-name="Path 92536" d="M280.7,442.57a19.619,19.619,0,0,0-.267-3.228h0a19.644,19.644,0,0,1-.015-6.362l.283-1.747-11.167-1.656-.84,2.09a11.767,11.767,0,0,1-7.005,6.709l-4.285,1.511a11.767,11.767,0,0,0-6.44,5.509H280.7Z" transform="translate(-249.884 -429.577)" fill="#a64f5a"/>
                <path id="Path_92537" data-name="Path 92537" d="M250.012,459.346a11.766,11.766,0,0,0-1.082,2.812h30.82v-2.812Z" transform="translate(-248.93 -443.527)" fill="#df8d6d"/>
              </g>
              <g id="Group_33970" data-name="Group 33970" transform="translate(19.373)">
                <path id="Path_92538" data-name="Path 92538" d="M302.26,432l-2.618-.388,2.618.388Z" transform="translate(-292.068 -430.531)" fill="#fff" stroke="#222221" stroke-miterlimit="10" stroke-width="1"/>
                <path id="Path_92539" data-name="Path 92539" d="M296.238,439.584a3.5,3.5,0,0,0,.858,2.92.628.628,0,0,0,.792.115l.191-.116a3.494,3.494,0,0,0,1.648-2.525l.7-5.235-3.249-.787Z" transform="translate(-290.45 -431.629)" fill="#8c404c"/>
                <path id="Path_92540" data-name="Path 92540" d="M305.63,432.53l-1.255-.186-.219,1.644,1.191.289Z" transform="translate(-294.183 -430.873)" fill="#402c49"/>
                <path id="Path_92541" data-name="Path 92541" d="M292.962,430.659l-7.295-1.082-.28.7,6.724,1.63.222-1.338Z" transform="translate(-285.388 -429.577)" fill="#402c49"/>
                <path id="Path_92542" data-name="Path 92542" d="M298.892,431.531l-.628-.093-.222,1.338,3.25.788.219-1.644Z" transform="translate(-291.317 -430.449)" fill="#454f6b"/>
              </g>
            </g>
          </g>
        </g>
        <g id="Group_33986" data-name="Group 33986" transform="translate(14.936 40.029)">
          <g id="Group_33980" data-name="Group 33980" transform="translate(14.293 2.964)">
            <path id="Path_92543" data-name="Path 92543" d="M344.417,199.326c-3.264-.785-6.707-.114-9.9.932s-6.264,2.465-9.532,3.232c-7.328,1.721-15.193-.736-21.052-5.461q1.64-12.747,3.279-25.494l2.8-27.34,11.081-3.229,11.132.268,12.689,6.631-2.726,27.244Z" transform="translate(-303.936 -141.966)" fill="#fff"/>
            <g id="Group_33979" data-name="Group 33979" transform="translate(1.542 2.893)">
              <g id="Group_33974" data-name="Group 33974" transform="translate(3.992 39.045)">
                <path id="Path_92544" data-name="Path 92544" d="M338.537,231.429a8.7,8.7,0,0,1-6.2.636,24.261,24.261,0,0,1-6.55-3.035c-2.162-1.291-4.257-2.695-6.187-4.1s-3.694-2.808-5.25-4.041a29.528,29.528,0,0,0,4.343,5.129,35.232,35.232,0,0,0,6.126,4.63,27.17,27.17,0,0,0,3.5,1.8,13.6,13.6,0,0,0,3.782,1.01,8.964,8.964,0,0,0,3.673-.344A6.437,6.437,0,0,0,338.537,231.429Z" transform="translate(-314.35 -220.89)" fill="#c7d2d7"/>
              </g>
              <g id="Group_33975" data-name="Group 33975" transform="translate(14.302 42.961)">
                <path id="Path_92545" data-name="Path 92545" d="M345.45,228.258c-1.766.1-3.8.317-5.842.379s-4.086,0-5.855.011a9.41,9.41,0,0,0,11.7-.39Z" transform="translate(-333.752 -228.258)" fill="#c7d2d7"/>
              </g>
              <g id="Group_33976" data-name="Group 33976" transform="translate(0 50.812)">
                <path id="Path_92546" data-name="Path 92546" d="M340.117,243.516a35.348,35.348,0,0,1-7.576,3.123,31.7,31.7,0,0,1-18.221-.264,35.337,35.337,0,0,1-7.482-3.342,25.811,25.811,0,0,0,7.2,4.157,27.2,27.2,0,0,0,18.762.272A25.832,25.832,0,0,0,340.117,243.516Z" transform="translate(-306.837 -243.033)" fill="#c7d2d7"/>
              </g>
              <g id="Group_33977" data-name="Group 33977" transform="translate(12.944)">
                <path id="Path_92547" data-name="Path 92547" d="M344.948,151.284a11.614,11.614,0,0,1-3.573,1.095,9.836,9.836,0,0,1-7.7-2.17,11.62,11.62,0,0,1-2.477-2.8,7.791,7.791,0,0,0,1.921,3.4,8.493,8.493,0,0,0,8.419,2.371A7.779,7.779,0,0,0,344.948,151.284Z" transform="translate(-331.197 -147.41)" fill="#c7d2d7"/>
              </g>
              <g id="Group_33978" data-name="Group 33978" transform="translate(15.485 3.857)">
                <path id="Path_92548" data-name="Path 92548" d="M351.263,154.669a18.611,18.611,0,0,1-3.17,2.245,15.172,15.172,0,0,1-8.278,1.936,18.6,18.6,0,0,1-3.837-.607,10.258,10.258,0,0,0,3.741,1.441,11.439,11.439,0,0,0,8.83-2.065A10.253,10.253,0,0,0,351.263,154.669Z" transform="translate(-335.978 -154.669)" fill="#c7d2d7"/>
              </g>
            </g>
          </g>
          <g id="Group_33983" data-name="Group 33983">
            <g id="Group_33982" data-name="Group 33982" transform="translate(0 3.365)">
              <g id="Group_33981" data-name="Group 33981" transform="translate(7.307 3.587)">
                <path id="Path_92549" data-name="Path 92549" d="M299.705,155.952a9.836,9.836,0,0,1,2.053-1.8l-.532-4.678a8.65,8.65,0,0,0-4.681,3.026l-5.755,7.282,4.072,4.621c.511-.851.969-1.74,1.406-2.629A26.56,26.56,0,0,1,299.705,155.952Z" transform="translate(-290.79 -149.471)" fill="#99a3b0"/>
                <path id="Path_92550" data-name="Path 92550" d="M303.3,160.077a26.565,26.565,0,0,0-3.437,5.819c-.437.889-.895,1.778-1.406,2.629l4.415,5.009,2.558-14.58-.078-.68A9.837,9.837,0,0,0,303.3,160.077Z" transform="translate(-294.382 -153.596)" fill="#797c99"/>
              </g>
              <path id="Path_92551" data-name="Path 92551" d="M303.616,160.687l-1.65,13.147a27.39,27.39,0,0,1-9.667,17.652L290.84,192.7a27.386,27.386,0,0,0-7.355,9.575l-3.664,7.931a3.124,3.124,0,0,1-.543-3.1,11.61,11.61,0,0,0,.794-3.075,5.88,5.88,0,0,0-1.283-3.191,10.814,10.814,0,0,1-1.649-2.883,3.433,3.433,0,0,1,1.249-3.44c12.983-9.948,16.393-48.211,16.393-48.211l12.421-3.587Z" transform="translate(-277.038 -142.721)" fill="#99a3b0"/>
            </g>
            <path id="Path_92552" data-name="Path 92552" d="M331.713,139.352l-1.289.4-3.587,17.966h0a26.326,26.326,0,0,1,.149-8.145l.848-4.837v-4.669a3.485,3.485,0,0,1,2.459-3.331l1.13-.349Z" transform="translate(-300.259 -136.388)" fill="#797c99"/>
          </g>
          <g id="Group_33985" data-name="Group 33985" transform="translate(38.91)">
            <g id="Group_33984" data-name="Group 33984" transform="translate(0 4.978)">
              <path id="Path_92553" data-name="Path 92553" d="M368.352,151.547l-11.036-5.79-4.529,4.63-2.524,12,2.214,20.547,1.827,28.694c1.338-1.68,3.917-2.359,6.064-2.311s4.282.537,6.424.377a10.789,10.789,0,0,0,7.749-4.267c.006-6.949-3.231-13.164-4.419-20.011a36.519,36.519,0,0,1,.605-15.264Z" transform="translate(-350.263 -145.757)" fill="#99a3b0"/>
              <path id="Path_92554" data-name="Path 92554" d="M370.841,170.5a7.337,7.337,0,0,0,.227,6.509l7.994,14.814a36.525,36.525,0,0,1,1-12.063l-1.724-13.5h-5.583Z" transform="translate(-359.601 -155.368)" fill="#402c49"/>
            </g>
            <path id="Path_92555" data-name="Path 92555" d="M353.939,139.62l1.423.863L352.787,146l-2.524,12h0a14.958,14.958,0,0,0,3.357-6.716l1.031-4.842,2.843-5.413a1.9,1.9,0,0,0-.516-2.382l-2.9-2.257Z" transform="translate(-350.263 -136.388)" fill="#797c99"/>
          </g>
        </g>
        <path id="Path_92556" data-name="Path 92556" d="M270.11,193.637l-.483.151a4.1,4.1,0,0,0-2.526,2.261l-2.05,4.658a4.8,4.8,0,0,0,.881,5.207l2.008,2.156a5.155,5.155,0,0,0,4.457,1.6l.695-.094a5.152,5.152,0,0,0,4.236-3.582h0l-1.636-9.514Z" transform="translate(-256.294 -123.187)" fill="#797c99"/>
        <g id="Group_33987" data-name="Group 33987" transform="translate(45.101 34.609)">
          <path id="Path_92557" data-name="Path 92557" d="M334.469,128.2l.625,6.374-1.289.4h0a6.788,6.788,0,0,0,11.8,3.1l2.048-2.373-1.423-.863.366-8.652Z" transform="translate(-333.805 -126.188)" fill="#f2c9ad"/>
          <path id="Path_92558" data-name="Path 92558" d="M343.494,131.315a13.136,13.136,0,0,0,3.648-4.3l.035-.827-12.123,2.01.4,4.051a5.443,5.443,0,0,0,.935.417A8.009,8.009,0,0,0,343.494,131.315Z" transform="translate(-334.391 -126.188)" fill="#402c49"/>
        </g>
        <g id="Group_33997" data-name="Group 33997" transform="translate(34.825 0)">
          <g id="Group_33988" data-name="Group 33988" transform="translate(0.479 25.842)">
            <path id="Path_92559" data-name="Path 92559" d="M322.575,113.293a3.6,3.6,0,1,1-3.6-3.6A3.6,3.6,0,0,1,322.575,113.293Z" transform="translate(-315.368 -109.69)" fill="#f2c9ad"/>
            <path id="Path_92560" data-name="Path 92560" d="M322.391,114.669a2.043,2.043,0,1,1-2.044-2.043A2.043,2.043,0,0,1,322.391,114.669Z" transform="translate(-316.744 -111.066)" fill="#eba588"/>
          </g>
          <g id="Group_33989" data-name="Group 33989" transform="translate(4.082 10.332)">
            <rect id="Rectangle_12442" data-name="Rectangle 12442" width="22.583" height="28.606" rx="11.292" fill="#f2c9ad"/>
            <path id="Path_92561" data-name="Path 92561" d="M327.227,91.028a20.958,20.958,0,0,0,6.958-2.91,12.425,12.425,0,0,0,4.727-5.778c.044-.118.1-.228.151-.342a11.229,11.229,0,0,0-5.6-1.5h0A11.283,11.283,0,0,0,322.187,91.4,12.817,12.817,0,0,0,327.227,91.028Z" transform="translate(-322.167 -80.501)" fill="#eba588"/>
          </g>
          <path id="Path_92562" data-name="Path 92562" d="M339.583,92.777l-.194-.194a5.913,5.913,0,0,1-1.732-4.182V84.076l-1.713-1.713a4.812,4.812,0,0,1-1.409-3.4V75.242a25.417,25.417,0,0,1-13.521,4.39c-2.439.09-5.244-.358-6.254-2.871a4.3,4.3,0,0,1-.2-2.448,6.92,6.92,0,0,1,4.6-4.825,22.8,22.8,0,0,1,5.171-1.133c-.851.063-1.612-1.11-1.529-1.959a2.283,2.283,0,0,1,1.6-1.815,4.654,4.654,0,0,1,2.527.007,1.958,1.958,0,0,1,.352-2.91,4.438,4.438,0,0,1,3.241-.549,13.637,13.637,0,0,1,10.822,8.7,6.539,6.539,0,0,1,5.279.06,4.579,4.579,0,0,1,2.532,4.227,3.714,3.714,0,0,1-3.325,3.421,7,7,0,0,1,2.191,2.827,3.635,3.635,0,0,1-.371,3.445,2.487,2.487,0,0,1-3.217.662,13.912,13.912,0,0,1-1.092,8.225C342.214,92.725,340.712,92.777,339.583,92.777Z" transform="translate(-314.467 -61.057)" fill="#6a3649"/>
          <g id="Group_33991" data-name="Group 33991" transform="translate(3.506 26.725)">
            <rect id="Rectangle_12443" data-name="Rectangle 12443" width="7.373" height="0.96" transform="matrix(0.94, -0.342, 0.342, 0.94, 16.502, 4.758)" fill="#fff"/>
            <rect id="Rectangle_12444" data-name="Rectangle 12444" width="7.373" height="0.96" transform="translate(17.677 8.002) rotate(-34.252)" fill="#fff"/>
            <g id="Group_33990" data-name="Group 33990">
              <path id="Path_92563" data-name="Path 92563" d="M326.057,112.956a4.441,4.441,0,0,1,2.971.047,13.5,13.5,0,0,1,2.675,1.566,11.664,11.664,0,0,0,7.134,1.737h.52c-.174-.456-.353-.915-.52-1.369A11.664,11.664,0,0,1,331.7,113.2a13.529,13.529,0,0,0-2.675-1.567,4.444,4.444,0,0,0-2.971-.046,32.535,32.535,0,0,1-3.122,1.233,7.69,7.69,0,0,1-1.869.317,11.7,11.7,0,0,0,.185,1.356,7.819,7.819,0,0,0,1.683-.3A32.533,32.533,0,0,0,326.057,112.956Z" transform="translate(-321.066 -111.352)" fill="#fff"/>
              <path id="Path_92564" data-name="Path 92564" d="M339,117.514a11.664,11.664,0,0,1-7.134-1.737,13.5,13.5,0,0,0-2.675-1.566,4.441,4.441,0,0,0-2.971-.047A32.532,32.532,0,0,1,323.1,115.4a7.817,7.817,0,0,1-1.683.3,11.638,11.638,0,0,0,11.425,9.462h0a11.613,11.613,0,0,0,8.293-3.471c-.537-1.392-1.083-2.788-1.612-4.177Z" transform="translate(-321.23 -112.559)" fill="#9ee6e0"/>
            </g>
          </g>
          <g id="Group_33992" data-name="Group 33992" transform="translate(24.119 27.402)">
            <path id="Path_92565" data-name="Path 92565" d="M367.065,116.229a3.6,3.6,0,1,1-3.6-3.6A3.6,3.6,0,0,1,367.065,116.229Z" transform="translate(-359.858 -112.626)" fill="#f2c9ad"/>
            <path id="Path_92566" data-name="Path 92566" d="M366.88,117.605a2.043,2.043,0,1,1-2.043-2.043A2.043,2.043,0,0,1,366.88,117.605Z" transform="translate(-361.234 -114.002)" fill="#eba588"/>
          </g>
          <g id="Group_33994" data-name="Group 33994" transform="translate(12.911 20.777)">
            <path id="Path_92567" data-name="Path 92567" d="M343.922,108.32h0a.814.814,0,0,1-.814-.814v-.6a.813.813,0,0,1,.814-.814h0a.813.813,0,0,1,.814.814v.6A.814.814,0,0,1,343.922,108.32Z" transform="translate(-340.8 -102.94)" fill="#402c49"/>
            <g id="Group_33993" data-name="Group 33993">
              <path id="Path_92568" data-name="Path 92568" d="M341.905,100.159a3.916,3.916,0,0,0-3.141,1.512l6.244.08A3.917,3.917,0,0,0,341.905,100.159Z" transform="translate(-338.764 -100.158)" fill="#6a3649"/>
            </g>
          </g>
          <g id="Group_33996" data-name="Group 33996" transform="translate(4.082 19.68)">
            <path id="Path_92569" data-name="Path 92569" d="M325.9,106.254h0a.592.592,0,0,1-.591-.592V104.62a.591.591,0,0,1,.591-.591h0a.591.591,0,0,1,.591.591v1.042A.592.592,0,0,1,325.9,106.254Z" transform="translate(-323.629 -100.875)" fill="#402c49"/>
            <g id="Group_33995" data-name="Group 33995">
              <path id="Path_92570" data-name="Path 92570" d="M324.433,98.094a2.66,2.66,0,0,0-2.284,1.512l4.539.08A2.715,2.715,0,0,0,324.433,98.094Z" transform="translate(-322.149 -98.093)" fill="#6a3649"/>
            </g>
          </g>
        </g>
        <g id="Group_34016" data-name="Group 34016" transform="translate(9.431 16.975)">
          <g id="Group_34002" data-name="Group 34002" transform="translate(1.13 43.104)">
            <g id="Group_33999" data-name="Group 33999">
              <g id="Group_33998" data-name="Group 33998" transform="translate(13.417)">
                <path id="Path_92571" data-name="Path 92571" d="M299.32,174.12l.8,2.976,10.558,7.4a4.7,4.7,0,0,1,.215,7.533l-10.773,8.51,1.311-9.963-7.373-8.369v-4.45Z" transform="translate(-294.055 -174.12)" fill="#6ca8bc"/>
                <path id="Path_92572" data-name="Path 92572" d="M295.805,185.137l4.085-2.1-1.727,2.391,9.483,7.382a2.975,2.975,0,0,1,.553,4.133l-3.764,5.017-3.5,2.764Z" transform="translate(-294.875 -178.297)" fill="#468094"/>
              </g>
              <path id="Path_92573" data-name="Path 92573" d="M268.8,180.665l.154,1.118a12.9,12.9,0,0,0,5.195,8.681l7.535,5.478-4.249,15.277,6.244,2.258,8.941-15a6.579,6.579,0,0,0-1.335-8.333l-8.138-7.074v-4.45Z" transform="translate(-268.805 -176.227)" fill="#6ca8bc"/>
            </g>
            <g id="Group_34001" data-name="Group 34001" transform="translate(6.377 35.47)">
              <g id="Group_34000" data-name="Group 34000">
                <path id="Path_92574" data-name="Path 92574" d="M290,242.651l-4.92-1.78-2.8,3.677,10.976,8.531Z" transform="translate(-281.494 -240.872)" fill="#454f6b"/>
                <path id="Path_92575" data-name="Path 92575" d="M281.586,247.792l-.781,1.025,10.129,8.369,1.627-.864h0Z" transform="translate(-280.805 -244.114)" fill="#fff"/>
              </g>
              <path id="Path_92576" data-name="Path 92576" d="M286.68,240.872l4.92,1.78-5.9-.491Z" transform="translate(-283.098 -240.872)" fill="#402c49"/>
            </g>
          </g>
          <g id="Group_34003" data-name="Group 34003" transform="translate(0 21.187)">
            <path id="Path_92577" data-name="Path 92577" d="M276.179,133.006a10.1,10.1,0,0,0-6.558,4.988,21.564,21.564,0,0,0-2.466,8.071,51.125,51.125,0,0,0,.162,15.03,21.266,21.266,0,0,0,19.97-5.928,47.523,47.523,0,0,1-1.623-14.368c.111-1.692.291-3.5-.52-4.985a5.556,5.556,0,0,0-3.529-2.518A15.246,15.246,0,0,0,276.179,133.006Z" transform="translate(-266.678 -132.875)" fill="#f0bf6c"/>
            <path id="Path_92578" data-name="Path 92578" d="M287.943,149.6l-6.011-6.225-5.137,3.923,5.764,10.683a5.743,5.743,0,0,0,9.253,1.189,54.459,54.459,0,0,1-1.375-8.646A3.077,3.077,0,0,1,287.943,149.6Z" transform="translate(-271.419 -137.794)" fill="#eba25d"/>
          </g>
          <g id="Group_34014" data-name="Group 34014" transform="translate(0.537)">
            <g id="Group_34004" data-name="Group 34004" transform="translate(7.914 21.796)">
              <path id="Path_92579" data-name="Path 92579" d="M286.866,137a5.9,5.9,0,0,0,3.081-1.825c.221-.233.427-.477.624-.729,0-.059,0-.118,0-.177-2.583-.128-5.4-.121-7.985-.249a13.3,13.3,0,0,0,1.666,2.391,5.831,5.831,0,0,0,.569.528A4.985,4.985,0,0,0,286.866,137Z" transform="translate(-282.581 -134.021)" fill="#402c49"/>
              <path id="Path_92580" data-name="Path 92580" d="M291.918,135.553a5.9,5.9,0,0,1-3.081,1.825,4.983,4.983,0,0,1-2.05-.062,4.1,4.1,0,0,0,1.915.9,3.318,3.318,0,0,0,3.84-3.4C292.345,135.076,292.139,135.32,291.918,135.553Z" transform="translate(-284.552 -134.397)" fill="#f2c9ad"/>
            </g>
            <g id="Group_34013" data-name="Group 34013">
              <g id="Group_34005" data-name="Group 34005" transform="translate(0 11.905)">
                <path id="Path_92581" data-name="Path 92581" d="M272.907,118.015a2.609,2.609,0,1,1-2.61-2.609A2.61,2.61,0,0,1,272.907,118.015Z" transform="translate(-267.688 -115.406)" fill="#eba588"/>
                <path id="Path_92582" data-name="Path 92582" d="M272.763,119.085a1.4,1.4,0,1,1-1.4-1.4A1.395,1.395,0,0,1,272.763,119.085Z" transform="translate(-268.758 -116.476)" fill="#db876a"/>
              </g>
              <path id="Path_92583" data-name="Path 92583" d="M272.142,109.077a11.008,11.008,0,0,1,12.684-15.7,8.033,8.033,0,0,1,4.593,3.081A4.59,4.59,0,0,1,292.83,98a6.945,6.945,0,0,1,1.561,3.379,10.136,10.136,0,0,1-4.858,10.434,12.564,12.564,0,0,1-5.627,1.476C279.669,113.469,274.1,112.836,272.142,109.077Z" transform="translate(-269.212 -93.003)" fill="#6a3649"/>
              <path id="Path_92584" data-name="Path 92584" d="M287.445,113.029a9.929,9.929,0,0,1-1.49-6.353,27.206,27.206,0,0,1-12.693,2.331,9.362,9.362,0,1,0,17.347,6.905A9.566,9.566,0,0,1,287.445,113.029Z" transform="translate(-269.852 -99.41)" fill="#f2c9ad"/>
              <g id="Group_34007" data-name="Group 34007" transform="translate(2.459 14.154)">
                <path id="Path_92585" data-name="Path 92585" d="M303.255,123.486l-5.6,1.9-.265-.679,5.6-1.9Z" transform="translate(-284.069 -121.124)" fill="#fff"/>
                <path id="Path_92586" data-name="Path 92586" d="M304.538,125.691l-4.921,3.122-.436-.6,4.921-3.122Z" transform="translate(-284.905 -122.195)" fill="#fff"/>
                <g id="Group_34006" data-name="Group 34006">
                  <path id="Path_92587" data-name="Path 92587" d="M276.347,120.847a3.836,3.836,0,0,1,2.4.035,11.143,11.143,0,0,1,2.161,1.179,9.967,9.967,0,0,0,5.761,1.307h.419c-.14-.344-.285-.689-.419-1.03a9.962,9.962,0,0,1-5.761-1.307,11.114,11.114,0,0,0-2.161-1.179,3.836,3.836,0,0,0-2.4-.035c-.836.32-1.652.689-2.521.927a6.6,6.6,0,0,1-1.51.239,8.253,8.253,0,0,0,.15,1.02,6.691,6.691,0,0,0,1.36-.228C274.695,121.536,275.511,121.166,276.347,120.847Z" transform="translate(-272.316 -119.64)" fill="#fff"/>
                  <path id="Path_92588" data-name="Path 92588" d="M286.8,124.276a9.967,9.967,0,0,1-5.761-1.307,11.143,11.143,0,0,0-2.161-1.179,3.837,3.837,0,0,0-2.4-.035c-.836.32-1.652.689-2.521.927a6.691,6.691,0,0,1-1.36.228,9.247,9.247,0,0,0,9.226,7.119h0a9.732,9.732,0,0,0,6.7-2.612c-.434-1.048-.875-2.1-1.3-3.143Z" transform="translate(-272.448 -120.548)" fill="#9ee6e0"/>
                </g>
              </g>
              <g id="Group_34009" data-name="Group 34009" transform="translate(10.509 9.727)">
                <path id="Path_92589" data-name="Path 92589" d="M290.411,117.687h0a.637.637,0,0,1-.5-.75l.092-.459a.637.637,0,0,1,.75-.5h0a.638.638,0,0,1,.5.75l-.091.459A.637.637,0,0,1,290.411,117.687Z" transform="translate(-288.605 -113.49)" fill="#402c49"/>
                <g id="Group_34008" data-name="Group 34008">
                  <path id="Path_92590" data-name="Path 92590" d="M290.111,111.375a3.067,3.067,0,0,0-2.646.68l4.784,1.019A3.067,3.067,0,0,0,290.111,111.375Z" transform="translate(-287.465 -111.307)" fill="#6a3649"/>
                </g>
              </g>
              <g id="Group_34011" data-name="Group 34011" transform="translate(3.554 8.87)">
                <path id="Path_92591" data-name="Path 92591" d="M277.776,116.088h0a.551.551,0,0,1-.541-.561l.012-.64a.552.552,0,0,1,.562-.541h0a.551.551,0,0,1,.541.561l-.012.64A.552.552,0,0,1,277.776,116.088Z" transform="translate(-275.716 -111.874)" fill="#402c49"/>
                <g id="Group_34010" data-name="Group 34010">
                  <path id="Path_92592" data-name="Path 92592" d="M276.527,109.7a2.544,2.544,0,0,0-2.151,1.146l4.231.14A2.565,2.565,0,0,0,276.527,109.7Z" transform="translate(-274.376 -109.695)" fill="#6a3649"/>
                </g>
              </g>
              <g id="Group_34012" data-name="Group 34012" transform="translate(19.302 14.293)">
                <path id="Path_92593" data-name="Path 92593" d="M309.232,122.509a2.61,2.61,0,1,1-2.61-2.609A2.61,2.61,0,0,1,309.232,122.509Z" transform="translate(-304.013 -119.9)" fill="#f2c9ad"/>
                <path id="Path_92594" data-name="Path 92594" d="M309.089,123.579a1.4,1.4,0,1,1-1.4-1.4A1.4,1.4,0,0,1,309.089,123.579Z" transform="translate(-305.084 -120.97)" fill="#eba588"/>
              </g>
            </g>
          </g>
          <g id="Group_34015" data-name="Group 34015" transform="translate(4.701 25.48)">
            <path id="Path_92595" data-name="Path 92595" d="M281.338,142.239a3.232,3.232,0,1,0-5.137,3.923l4.077,5.277,4.561-4.561Z" transform="translate(-275.526 -140.953)" fill="#f0bf6c"/>
            <path id="Path_92596" data-name="Path 92596" d="M308.772,148.272a1.772,1.772,0,0,0-.8-1.181,2.848,2.848,0,0,0-3.041.188,12.833,12.833,0,0,0-2.48,1.7L292.286,153.9l-3.257-4.315-4.561,4.561,3.36,4.349a4.8,4.8,0,0,0,6.837.779l9.454-7.743a8.764,8.764,0,0,0,3.061-.95C308.061,150.115,308.951,149.354,308.772,148.272Z" transform="translate(-279.716 -143.66)" fill="#f2c9ad"/>
            <path id="Path_92597" data-name="Path 92597" d="M289.028,152.1l-3.643,5.75-.918-1.189Z" transform="translate(-279.716 -146.177)" fill="#402c49"/>
          </g>
        </g>
        <g id="Group_34017" data-name="Group 34017" transform="translate(65.665 50.797)">
          <path id="Path_92598" data-name="Path 92598" d="M373.3,170.466l14.321,21.129a5.912,5.912,0,0,1,1.01,3l.169,3.15a4.7,4.7,0,0,0,2.481,3.9h0a4.711,4.711,0,0,1,2.151,2.4l.027.067,9.565-5.38L398.1,183.922l-5.91-8.75a5.509,5.509,0,0,1-.938-2.824h0a5.514,5.514,0,0,0-2.264-4.2l-.737-.536a5.512,5.512,0,0,1-2.271-4.4l-.006-.519a4.427,4.427,0,0,0-2.345-3.858l-3.449-1.837a3,3,0,0,0-3.863.922l-1.443,2.052a12.11,12.11,0,0,0-2.115,5.508l-.224,1.85A4.589,4.589,0,0,0,373.3,170.466Z" transform="translate(-372.506 -156.652)" fill="#99a3b0"/>
          <path id="Path_92599" data-name="Path 92599" d="M412.667,246.9l11.436-6.433-2.5-5.611-11.436,6.433Z" transform="translate(-390.156 -193.3)" fill="#797c99"/>
          <path id="Path_92600" data-name="Path 92600" d="M416.954,252.331l6.1,13.084L420.886,270a1.833,1.833,0,0,0-.167.606l-.272,2.776a1.838,1.838,0,0,0,1.1,1.866h0l2.3-3.631,4.517,3.631-1.683,3.365h0a3.229,3.229,0,0,0,3.1-.481l1.731-1.346a3.16,3.16,0,0,0,1.12-3.281l-2.761-10.745-4.82-14.982Z" transform="translate(-393.336 -199.355)" fill="#eba588"/>
          <path id="Path_92601" data-name="Path 92601" d="M425.052,247.776l-8.1,4.555,1.506,3.231,6.929-6.735Z" transform="translate(-393.336 -199.355)" fill="#402c49"/>
        </g>
        <path id="Path_92602" data-name="Path 92602" d="M278.715,189.269A51.782,51.782,0,0,0,294.164,185l-.761-1.437a6.164,6.164,0,0,1-.69-3.459h0a1.066,1.066,0,0,1,1.643-.794l.579.377,3.548-1.562a1.928,1.928,0,0,1,2.5.89l.561,1.1,1.691,3.214a3.522,3.522,0,0,1-.57,4.074l-.944.988a21.527,21.527,0,0,1-5.535,4.177l-15.007,7.906a5.265,5.265,0,0,1-6.062-.825h0a5.264,5.264,0,0,1-1.127-6.13l.644-1.328A5.215,5.215,0,0,1,278.715,189.269Z" transform="translate(-260.424 -115.841)" fill="#f2c9ad"/>
      </g>
      <g id="Group_34044" data-name="Group 34044" transform="translate(93.869 103.609)">
        <g id="Group_34021" data-name="Group 34021" transform="translate(15.24 76.532)">
          <path id="Path_92603" data-name="Path 92603" d="M489.429,405.121c-19,7.942-30.694,3.507-35.166-2.006C461.88,395.233,489.429,405.121,489.429,405.121Z" transform="translate(-454.263 -400.066)" fill="#bc4461"/>
          <g id="Group_34019" data-name="Group 34019" transform="translate(30.82 7.211)">
            <path id="Path_92604" data-name="Path 92604" d="M521.474,413.637l-9.211,2.153.361,1.574a12.234,12.234,0,0,0,.677,2.059,21.228,21.228,0,0,0,8.46-2.684Z" transform="translate(-512.263 -413.637)" fill="#402c49"/>
            <path id="Path_92605" data-name="Path 92605" d="M532.459,433.067,530.271,431l-7.439-9.844-.156-1.681a21.229,21.229,0,0,1-8.459,2.685,12.206,12.206,0,0,0,2.623,3.879l9.269,9.2-.746,2.087a4.3,4.3,0,0,1-.2.464,5.5,5.5,0,0,1,3.106,1.291Z" transform="translate(-513.179 -416.372)" fill="#f2c9ad"/>
            <path id="Path_92606" data-name="Path 92606" d="M536.1,452.962l3.99-6.446-1.544-1.461-4.19,6.012a5.505,5.505,0,0,0-3.106-1.291,4.292,4.292,0,0,1-1.934,1.939,4.294,4.294,0,0,0-2.112,2.349h6.918A2.327,2.327,0,0,0,536.1,452.962Z" transform="translate(-519.263 -428.36)" fill="#e36b85"/>
            <path id="Path_92607" data-name="Path 92607" d="M539.726,447.8l-3.99,6.446a2.327,2.327,0,0,1-1.978,1.1H526.84c-.042.113-.083.227-.116.344l-.294,1.052h7.619a2.776,2.776,0,0,0,2.361-1.315l4.2-6.79Z" transform="translate(-518.902 -429.649)" fill="#f1c6c7"/>
          </g>
          <g id="Group_34020" data-name="Group 34020" transform="translate(0.92 0.053)">
            <path id="Path_92608" data-name="Path 92608" d="M456.045,408.69a6.8,6.8,0,0,0,.342,3.122l4.953,13.758-.481.9a5.207,5.207,0,0,1,2.683.829c1.763-.922,3.527-1.9,5.291-2.86l-1.25-1.795-2.721-12.753,1.274-1.275A13.572,13.572,0,0,0,456.045,408.69Z" transform="translate(-455.994 -403.687)" fill="#f2c9ad"/>
            <path id="Path_92609" data-name="Path 92609" d="M463.2,400.46l-4.406-.3-1.219,1.485a6.8,6.8,0,0,0-1.486,3.517,13.572,13.572,0,0,1,10.091-.07l2.909-2.91Z" transform="translate(-456.039 -400.165)" fill="#402c49"/>
            <path id="Path_92610" data-name="Path 92610" d="M460.471,452.773l12.62-7.926-.69-.992-12.45,7.04A6.068,6.068,0,0,0,460.471,452.773Z" transform="translate(-457.848 -420.639)" fill="#f1c6c7"/>
            <path id="Path_92611" data-name="Path 92611" d="M462.679,441.254l-2.094,3.931a6.07,6.07,0,0,0-.668,3.539l12.45-7.04-1.713-2.461c-1.764.96-3.528,1.937-5.291,2.86A5.206,5.206,0,0,0,462.679,441.254Z" transform="translate(-457.814 -418.469)" fill="#e36b85"/>
          </g>
        </g>
        <g id="Group_34024" data-name="Group 34024" transform="translate(0 15.199)">
          <g id="Group_34022" data-name="Group 34022" transform="translate(10.546 17.046)">
            <path id="Path_92612" data-name="Path 92612" d="M465.834,317.726l-14.117.157-2.037-1.162L445.43,323.5l1.773,1.087a9.838,9.838,0,0,0,4.613,1.439l12.213.662Z" transform="translate(-445.43 -316.721)" fill="#e68799"/>
            <path id="Path_92613" data-name="Path 92613" d="M465.6,331.485l.92-.58a17.257,17.257,0,0,1,4.077-1.878l3.7-1.149-.814,4.035Z" transform="translate(-454.88 -321.949)" fill="#e36b85"/>
          </g>
          <g id="Group_34023" data-name="Group 34023">
            <path id="Path_92614" data-name="Path 92614" d="M436.661,307.616l-9.823-11.9a5.489,5.489,0,0,1-1.2-4.25l.265-1.9a2.984,2.984,0,0,1,1.436-2.156l4.674-2.764,1,2.215a5.444,5.444,0,0,1-.131,4.756l-.472.909-.917,1.833,8.47,8Z" transform="translate(-425.583 -284.642)" fill="#f2c9ad"/>
            <path id="Path_92615" data-name="Path 92615" d="M448.785,317.972l-4.377,3.961,1.074,1.3Z" transform="translate(-434.405 -300.261)" fill="#402c49"/>
          </g>
        </g>
        <g id="Group_34031" data-name="Group 34031" transform="translate(15.24 32.245)">
          <path id="Path_92616" data-name="Path 92616" d="M493.514,318.164l-7.888-1.443H475.4l-5.427,1.005a49.928,49.928,0,0,0-4.213,18.792,38.2,38.2,0,0,1-6.9,20.891l-4.6,6.648c3.217-1.959,7.831-1.347,11.241.253s6.389,4.017,9.809,5.594a22.451,22.451,0,0,0,24.642-3.9c-2.255-2.95-3.081-6.617-4.133-10.178a43.8,43.8,0,0,0-1.656-4.8,38.716,38.716,0,0,1-2.965-19.02A100.068,100.068,0,0,1,493.514,318.164Z" transform="translate(-454.263 -316.721)" fill="#e68799"/>
          <g id="Group_34025" data-name="Group 34025" transform="translate(2.267 24.306)">
            <path id="Path_92617" data-name="Path 92617" d="M501.4,365.873c-.2-.876-.377-1.757-.518-2.644a78.4,78.4,0,0,1-26.117-.766q-.192,1.317-.478,2.616A78.387,78.387,0,0,0,501.4,365.873Z" transform="translate(-465.914 -362.463)" fill="#fff"/>
            <path id="Path_92618" data-name="Path 92618" d="M471.432,398.133c2.721,1.772,4.834,4.39,7.646,6.014a15.788,15.788,0,0,0,11.875,1.248,25.46,25.46,0,0,0,9.86-5.515,19.1,19.1,0,0,1-1-2.129,24.594,24.594,0,0,1-8.857,4.685,15.789,15.789,0,0,1-11.875-1.248c-2.812-1.624-4.925-4.241-7.646-6.014a15.455,15.455,0,0,0-10.48-2.272c-.031.046-.06.092-.091.138l-2.33,3.369A15.477,15.477,0,0,1,471.432,398.133Z" transform="translate(-458.53 -376.658)" fill="#fff"/>
          </g>
          <g id="Group_34030" data-name="Group 34030" transform="translate(9.788 13.298)">
            <g id="Group_34026" data-name="Group 34026" transform="translate(3.884)">
              <path id="Path_92619" data-name="Path 92619" d="M498.943,348.886a37.952,37.952,0,0,1-4.837-.557,30.151,30.151,0,0,1-10.112-3.809,37.944,37.944,0,0,1-4-2.773,16.012,16.012,0,0,0,3.408,3.635,18.853,18.853,0,0,0,10.582,3.987A16.006,16.006,0,0,0,498.943,348.886Z" transform="translate(-479.993 -341.746)" fill="#e36b85"/>
            </g>
            <g id="Group_34027" data-name="Group 34027" transform="translate(11.912 2.076)">
              <path id="Path_92620" data-name="Path 92620" d="M507.5,345.652a43.114,43.114,0,0,1-12.4,1.305,15.679,15.679,0,0,0,12.4-1.305Z" transform="translate(-495.102 -345.652)" fill="#e36b85"/>
            </g>
            <g id="Group_34028" data-name="Group 34028" transform="translate(0 23.345)">
              <path id="Path_92621" data-name="Path 92621" d="M498.062,394.969a28.4,28.4,0,0,1-6.278-1.171,24.033,24.033,0,0,1-6.36-3.041c-1.978-1.343-3.9-3.086-6.174-4.146a9.593,9.593,0,0,0-3.466-.92,5.981,5.981,0,0,0-3.1.607,8.582,8.582,0,0,1,5.909,1.529c1.9,1.192,3.632,2.971,5.8,4.455a18.177,18.177,0,0,0,7.074,2.86A16.238,16.238,0,0,0,498.062,394.969Z" transform="translate(-472.684 -385.68)" fill="#e36b85"/>
            </g>
            <g id="Group_34029" data-name="Group 34029" transform="translate(11.886 21.614)">
              <path id="Path_92622" data-name="Path 92622" d="M506.559,392.573a23.713,23.713,0,0,1-11.506-10.151,12.086,12.086,0,0,0,1.432,3.495,14.247,14.247,0,0,0,6.428,5.671A12.071,12.071,0,0,0,506.559,392.573Z" transform="translate(-495.053 -382.422)" fill="#e36b85"/>
            </g>
          </g>
        </g>
        <path id="Path_92623" data-name="Path 92623" d="M481.263,281.626a16.253,16.253,0,0,1-4.073-17.262,8.149,8.149,0,0,1,2.493-3.683,4.181,4.181,0,0,1,4.236-.626,13.167,13.167,0,0,1,9.925-3.983,12.832,12.832,0,0,1,9.212,5.152c2.53,3.464,3.135,7.948,3.33,12.232a16.4,16.4,0,0,1,3.1.773,5.246,5.246,0,0,1,2.5,1.792,3.9,3.9,0,0,1-2.121,6.007,3.437,3.437,0,0,1,.345,4.231,5.159,5.159,0,0,1-3.808,2.009,14.515,14.515,0,0,1-4.4-.464,8.155,8.155,0,0,1-7.243,1.691,7.855,7.855,0,0,1-5.418-4.88A12.486,12.486,0,0,1,481.263,281.626Z" transform="translate(-449.312 -256.039)" fill="#6a3649"/>
        <g id="Group_34033" data-name="Group 34033" transform="translate(35.813 30.296)">
          <path id="Path_92624" data-name="Path 92624" d="M494.6,313.5a6.785,6.785,0,0,0,.415,9.246c1.1-1.5,1.85-2.234,2.953-3.731C496.73,317.463,495.838,315.055,494.6,313.5Z" transform="translate(-492.98 -313.263)" fill="#fff"/>
          <path id="Path_92625" data-name="Path 92625" d="M502.368,318.807l3.022,4.465a7.3,7.3,0,0,0,1.812-10.218C505.6,314.874,503.968,316.986,502.368,318.807Z" transform="translate(-497.379 -313.053)" fill="#fff"/>
          <g id="Group_34032" data-name="Group 34032" transform="translate(1.378 0.907)">
            <path id="Path_92626" data-name="Path 92626" d="M498.621,319.179a5.058,5.058,0,0,1-2.633-1.373c-.1-.092-.183-.2-.274-.293a3.954,3.954,0,0,0,7.829-.272c-.19.185-.376.375-.582.543A5.637,5.637,0,0,1,498.621,319.179Z" transform="translate(-495.639 -315.923)" fill="#f2c9ad"/>
            <path id="Path_92627" data-name="Path 92627" d="M503.421,314.76c-2.465.079-5.351.284-7.817.362a3.822,3.822,0,0,0,.044,1.228c.091.1.177.2.274.293a5.057,5.057,0,0,0,2.633,1.373,5.637,5.637,0,0,0,4.34-1.394c.206-.168.393-.358.582-.543A3.835,3.835,0,0,0,503.421,314.76Z" transform="translate(-495.574 -314.76)" fill="#402c49"/>
          </g>
        </g>
        <g id="Group_34041" data-name="Group 34041" transform="translate(29.879 12.207)">
          <path id="Path_92628" data-name="Path 92628" d="M502.811,292.3a4.091,4.091,0,0,1-2.39-3.472l-.116-1.87a27.753,27.753,0,0,1-12.468-7.942,15.577,15.577,0,0,0-5.134,3.417,10.781,10.781,0,0,0-.149,1.709v4.185a10.728,10.728,0,0,0,20.624,4.141Z" transform="translate(-482.16 -279.011)" fill="#f2c9ad"/>
          <g id="Group_34035" data-name="Group 34035" transform="translate(0 8.807)">
            <rect id="Rectangle_12445" data-name="Rectangle 12445" width="6.959" height="0.906" transform="matrix(0.94, -0.342, 0.342, 0.94, 15.577, 4.491)" fill="#fff"/>
            <rect id="Rectangle_12446" data-name="Rectangle 12446" width="6.959" height="0.906" transform="translate(16.686 7.553) rotate(-34.252)" fill="#fff"/>
            <g id="Group_34034" data-name="Group 34034">
              <path id="Path_92629" data-name="Path 92629" d="M486.524,297.1a4.2,4.2,0,0,1,2.8.044,12.771,12.771,0,0,1,2.525,1.479,11.008,11.008,0,0,0,6.734,1.639h.49c-.164-.43-.333-.864-.49-1.292a11.011,11.011,0,0,1-6.734-1.639,12.772,12.772,0,0,0-2.525-1.479,4.2,4.2,0,0,0-2.8-.044,30.541,30.541,0,0,1-2.948,1.163,7.251,7.251,0,0,1-1.764.3,10.914,10.914,0,0,0,.175,1.279,7.345,7.345,0,0,0,1.589-.286A30.663,30.663,0,0,0,486.524,297.1Z" transform="translate(-481.812 -295.585)" fill="#fff"/>
              <path id="Path_92630" data-name="Path 92630" d="M498.742,301.4a11.007,11.007,0,0,1-6.734-1.639,12.772,12.772,0,0,0-2.525-1.479,4.2,4.2,0,0,0-2.8-.044,30.681,30.681,0,0,1-2.947,1.164,7.35,7.35,0,0,1-1.589.286,10.985,10.985,0,0,0,10.784,8.931h0a10.963,10.963,0,0,0,7.828-3.276c-.507-1.314-1.022-2.631-1.521-3.943Z" transform="translate(-481.967 -296.725)" fill="#9ee6e0"/>
            </g>
          </g>
          <g id="Group_34036" data-name="Group 34036" transform="translate(19.282 8.8)">
            <path id="Path_92631" data-name="Path 92631" d="M524.9,298.973a3.4,3.4,0,1,1-3.4-3.4A3.4,3.4,0,0,1,524.9,298.973Z" transform="translate(-518.099 -295.572)" fill="#f2c9ad"/>
            <path id="Path_92632" data-name="Path 92632" d="M524.727,300.272a1.929,1.929,0,1,1-1.928-1.928A1.929,1.929,0,0,1,524.727,300.272Z" transform="translate(-519.398 -296.871)" fill="#eba588"/>
          </g>
          <g id="Group_34038" data-name="Group 34038" transform="translate(8.364 3.958)">
            <path id="Path_92633" data-name="Path 92633" d="M502.065,294.309h0a.768.768,0,0,1-.768-.768v-.564a.768.768,0,0,1,.768-.768h0a.768.768,0,0,1,.768.768v.564A.768.768,0,0,1,502.065,294.309Z" transform="translate(-499.308 -289.153)" fill="#402c49"/>
            <g id="Group_34037" data-name="Group 34037">
              <path id="Path_92634" data-name="Path 92634" d="M500.759,286.559a3.7,3.7,0,0,0-3.206.744l5.735,1.363A3.7,3.7,0,0,0,500.759,286.559Z" transform="translate(-497.553 -286.459)" fill="#6a3649"/>
            </g>
          </g>
          <g id="Group_34040" data-name="Group 34040" transform="translate(0.258 2.992)">
            <path id="Path_92635" data-name="Path 92635" d="M486.185,292.36h0a.638.638,0,0,1-.638-.638V290.9a.638.638,0,0,1,.638-.638h0a.638.638,0,0,1,.638.638v.824A.638.638,0,0,1,486.185,292.36Z" transform="translate(-483.82 -287.275)" fill="#402c49"/>
            <g id="Group_34039" data-name="Group 34039">
              <path id="Path_92636" data-name="Path 92636" d="M484.6,284.652a2.915,2.915,0,0,0-2.3,1.673l4.877-.428A2.95,2.95,0,0,0,484.6,284.652Z" transform="translate(-482.297 -284.642)" fill="#6a3649"/>
            </g>
          </g>
        </g>
        <g id="Group_34043" data-name="Group 34043" transform="translate(51.55 33.407)">
          <g id="Group_34042" data-name="Group 34042" transform="translate(10.208 18.1)">
            <path id="Path_92637" data-name="Path 92637" d="M541.805,355.3l3.321,12.222-.919,2.852a5.6,5.6,0,0,0-.249,2.182l.238,2.8h0a2.83,2.83,0,0,0,2.266-2.178l.325-1.476.731,2.856v2.691a.8.8,0,0,0,1.265.647l1.831-1.322a5.949,5.949,0,0,0,2.435-4.189h0a5.952,5.952,0,0,0-.548-3.205l-2.194-4.586-2.391-11.624Z" transform="translate(-541.805 -352.971)" fill="#f2c9ad"/>
            <path id="Path_92638" data-name="Path 92638" d="M548.365,355.157l-.45-2.186-6.111,2.325.833,3.066a7.744,7.744,0,0,0,5.727-3.2Z" transform="translate(-541.805 -352.971)" fill="#402c49"/>
          </g>
          <path id="Path_92639" data-name="Path 92639" d="M524,318.908h0a10.517,10.517,0,0,1,6.491,4l8.007,10.572a3.259,3.259,0,0,1,.571,1.206l.7,2.924h0a8.663,8.663,0,0,1-6.546,2.989h-1.254l-1.233-4.317-7.838-7.971-.038-.2a15.02,15.02,0,0,1,1.135-9.2Z" transform="translate(-522.595 -318.908)" fill="#e68799"/>
        </g>
      </g>
    </g>
  </g>
</svg>
