<svg xmlns="http://www.w3.org/2000/svg" xmlns:xlink="http://www.w3.org/1999/xlink" width="22" height="93" viewBox="0 0 22 93"><defs><style>.a{fill:url(#a);}.b{fill:none;stroke:#cea312;stroke-linecap:round;}.c{fill:url(#f);}.d{fill:url(#o);}.e{filter:url(#s);}.f{filter:url(#p);}.g{filter:url(#m);}.h{filter:url(#j);}.i{filter:url(#g);}.j{filter:url(#d);}.k{filter:url(#b);}</style><linearGradient id="a" x1="0.417" y1="0.5" x2="1" y2="0.5" gradientUnits="objectBoundingBox"><stop offset="0" stop-color="#dc9e08"/><stop offset="1" stop-color="#aa7800"/></linearGradient><filter id="b" x="3.99" y="5" width="8.019" height="6.888" filterUnits="userSpaceOnUse"><feOffset input="SourceAlpha"/><feGaussianBlur stdDeviation="0.5" result="c"/><feFlood flood-opacity="0.161"/><feComposite operator="in" in2="c"/><feComposite in="SourceGraphic"/></filter><filter id="d" x="0" y="3" width="22" height="90" filterUnits="userSpaceOnUse"><feOffset dx="3" dy="1" input="SourceAlpha"/><feGaussianBlur stdDeviation="3.5" result="e"/><feFlood flood-color="#946d05" flood-opacity="0.969"/><feComposite operator="in" in2="e"/><feComposite in="SourceGraphic"/></filter><linearGradient id="f" x1="0.5" y1="0.5" x2="1.032" y2="0.5" gradientUnits="objectBoundingBox"><stop offset="0" stop-color="#dc9e08"/><stop offset="1" stop-color="#a67600"/></linearGradient><filter id="g" x="1.5" y="6.5" width="13" height="14" filterUnits="userSpaceOnUse"><feOffset input="SourceAlpha"/><feGaussianBlur stdDeviation="1" result="h"/><feFlood flood-opacity="0.161"/><feComposite operator="in" in2="h"/><feComposite in="SourceGraphic"/></filter><filter id="j" x="1.5" y="72.5" width="13" height="14" filterUnits="userSpaceOnUse"><feOffset input="SourceAlpha"/><feGaussianBlur stdDeviation="1" result="k"/><feFlood flood-opacity="0.161"/><feComposite operator="in" in2="k"/><feComposite in="SourceGraphic"/></filter><filter id="m" x="3.99" y="81.112" width="8.019" height="6.888" filterUnits="userSpaceOnUse"><feOffset input="SourceAlpha"/><feGaussianBlur stdDeviation="0.5" result="n"/><feFlood flood-opacity="0.161"/><feComposite operator="in" in2="n"/><feComposite in="SourceGraphic"/></filter><linearGradient id="o" x1="0.386" y1="0.5" x2="1.074" y2="0.5" gradientUnits="objectBoundingBox"><stop offset="0" stop-color="#dc9e08"/><stop offset="1" stop-color="#b58000"/><stop offset="1" stop-color="#6e4f04"/></linearGradient><filter id="p" x="5" y="0" width="6" height="8.602" filterUnits="userSpaceOnUse"><feOffset input="SourceAlpha"/><feGaussianBlur stdDeviation="0.5" result="q"/><feFlood flood-opacity="0.161"/><feComposite operator="in" in2="q"/><feComposite in="SourceGraphic"/></filter><filter id="s" x="5" y="84.398" width="6" height="8.602" filterUnits="userSpaceOnUse"><feOffset input="SourceAlpha"/><feGaussianBlur stdDeviation="0.5" result="t"/><feFlood flood-opacity="0.161"/><feComposite operator="in" in2="t"/><feComposite in="SourceGraphic"/></filter></defs><g transform="translate(-153.5 -601.5)"><g class="k" transform="matrix(1, 0, 0, 1, 153.5, 601.5)"><path class="a" d="M2.5,0A2.784,2.784,0,0,1,5,3c0,1.657-1.119.486-2.5.486S0,4.657,0,3A2.784,2.784,0,0,1,2.5,0Z" transform="translate(5.5 6.5)"/></g><g class="j" transform="matrix(1, 0, 0, 1, 153.5, 601.5)"><line class="b" y2="68" transform="translate(8 13)"/></g><g class="i" transform="matrix(1, 0, 0, 1, 153.5, 601.5)"><ellipse class="c" cx="3.5" cy="4" rx="3.5" ry="4" transform="translate(4.5 9.5)"/></g><g class="h" transform="matrix(1, 0, 0, 1, 153.5, 601.5)"><ellipse class="c" cx="3.5" cy="4" rx="3.5" ry="4" transform="translate(11.5 83.5) rotate(180)"/></g><g class="g" transform="matrix(1, 0, 0, 1, 153.5, 601.5)"><path class="a" d="M2.5,0A2.784,2.784,0,0,1,5,3c0,1.657-1.119.486-2.5.486S0,4.657,0,3A2.784,2.784,0,0,1,2.5,0Z" transform="translate(10.5 86.5) rotate(180)"/></g><g class="f" transform="matrix(1, 0, 0, 1, 153.5, 601.5)"><path class="d" d="M1.5,0C2.328,0,3,1.791,3,4S2.328,5.491,1.5,5.491,0,6.209,0,4,.672,0,1.5,0Z" transform="translate(6.5 1.5)"/></g><g class="e" transform="matrix(1, 0, 0, 1, 153.5, 601.5)"><path class="d" d="M1.5,0C2.328,0,3,1.791,3,4S2.328,5.491,1.5,5.491,0,6.209,0,4,.672,0,1.5,0Z" transform="translate(9.5 91.5) rotate(180)"/></g></g></svg>