<svg xmlns="http://www.w3.org/2000/svg" xmlns:xlink="http://www.w3.org/1999/xlink" width="566.875" height="593.853" viewBox="0 0 566.875 593.853"><defs><style>.a{fill:#eae8ed;}.b{fill:#da9e2c;}.c{fill:#e3cd43;}.d{fill:#455a6e;}.e{fill:#5a6f88;}.f{fill:#1b3240;}.g{fill:#dec2c2;}.h{fill:#e6e6e6;}.bc,.i{fill:#c5bed1;}.ag,.as,.au,.i{mix-blend-mode:multiply;isolation:isolate;}.j{fill:#d3c9c9;}.k{fill:#d6d6d6;}.l{fill:url(#a);}.m{fill:#d8dde4;}.n{fill:#909dad;}.o{fill:#617585;}.p{fill:#7e8da3;}.q{fill:#b29a9a;}.r{fill:#d0965e;}.s{fill:#d8ab74;}.t{fill:#99003d;}.u{fill:#87a1b7;}.v{fill:#bbcddf;}.w{fill:#fbfafc;}.x{fill:#ff73b5;}.y{fill:#d2448d;}.z{fill:#778aa6;}.aa{fill:#93a8c2;}.ab{fill:#9babc2;}.ac{fill:#fff;}.ad{fill:#886bf6;}.ae{fill:#f7509f;}.af{fill:#ca287b;}.ah{fill:#7892b0;}.ai{fill:#152f3c;}.aj{fill:#495669;}.ak{fill:#657c96;}.al{fill:#2f4355;}.am{fill:#88bd4b;}.an{fill:#523116;}.ao{fill:#6cae50;}.ap{fill:#59923e;}.aq{fill:#dc7059;}.ar{fill:#d53e4b;}.as{opacity:0.74;}.at{fill:#8b724d;}.au{fill:#a6937c;}.av{fill:#a68efe;}.aw{fill:#31345c;}.ax{fill:#8140ff;}.ay{fill:#fcffff;}.az{fill:#d22e72;}.ba{fill:#dcd3fe;}.bb{fill:#e8acd5;}</style><linearGradient id="a" x1="0.051" y1="0.315" x2="0.993" y2="0.704" gradientUnits="objectBoundingBox"><stop offset="0" stop-color="#a895e1"/><stop offset="0.417" stop-color="#91bed6"/><stop offset="1" stop-color="#f7a5c4"/></linearGradient></defs><g transform="translate(-733.326 16.988)"><g transform="translate(733.326 308.318)"><g transform="translate(0 32.497)"><g transform="translate(0 80.278)"><path class="a" d="M841,327.858l-94.286,54.436a12.261,12.261,0,0,1-11.091,0h0c-3.064-1.769-3.064-4.636,0-6.4l94.286-54.436a12.252,12.252,0,0,1,11.091,0h0C844.062,323.222,844.062,326.089,841,327.858Z" transform="translate(-733.326 -278.075)"/><path class="a" d="M878.9,298.33,829.071,327.1a12.261,12.261,0,0,1-11.09,0h0c-3.062-1.769-3.062-4.636,0-6.4l49.827-28.768a12.261,12.261,0,0,1,11.09,0h0C881.96,293.7,881.96,296.563,878.9,298.33Z" transform="translate(-698.386 -290.601)"/></g><path class="a" d="M860.625,296.472l-94.286,54.436a12.261,12.261,0,0,1-11.091,0h0c-3.062-1.769-3.062-4.636,0-6.4l94.286-54.436a12.252,12.252,0,0,1,11.091,0h0C863.688,291.836,863.688,294.7,860.625,296.472Z" transform="translate(-725 -211.112)"/><path class="a" d="M945.277,247.6l-94.286,54.436a12.252,12.252,0,0,1-11.09,0h0c-3.064-1.767-3.064-4.634,0-6.4l94.286-54.436a12.261,12.261,0,0,1,11.091,0h0C948.339,242.963,948.339,245.83,945.277,247.6Z" transform="translate(-689.087 -231.846)"/><path class="a" d="M983.3,265.756l-94.286,54.436a12.252,12.252,0,0,1-11.091,0h0c-3.064-1.767-3.064-4.634,0-6.4l94.286-54.437a12.261,12.261,0,0,1,11.09,0h0C986.359,261.122,986.359,263.989,983.3,265.756Z" transform="translate(-672.958 -224.142)"/><path class="a" d="M838.5,337.884l-27.6,15.934a12.261,12.261,0,0,1-11.091,0h0c-3.062-1.769-3.062-4.636,0-6.4l27.6-15.934a12.261,12.261,0,0,1,11.09,0h0C841.566,333.25,841.566,336.117,838.5,337.884Z" transform="translate(-706.093 -193.543)"/><path class="a" d="M1004.64,241.966l-27.6,15.933a12.252,12.252,0,0,1-11.091,0h0c-3.062-1.767-3.062-4.634,0-6.4l27.6-15.933a12.252,12.252,0,0,1,11.09,0h0C1007.7,237.33,1007.7,240.2,1004.64,241.966Z" transform="translate(-635.611 -234.236)"/><path class="a" d="M873.794,268.812l-94.286,54.436a12.252,12.252,0,0,1-11.091,0h0c-3.062-1.767-3.062-4.634,0-6.4L862.7,262.41a12.252,12.252,0,0,1,11.091,0h0C876.857,264.178,876.857,267.045,873.794,268.812Z" transform="translate(-719.413 -222.846)"/><path class="a" d="M895.138,245.022l-27.6,15.933a12.253,12.253,0,0,1-11.091,0h0c-3.063-1.767-3.063-4.634,0-6.4l27.6-15.933a12.252,12.252,0,0,1,11.091,0h0C898.2,240.386,898.2,243.253,895.138,245.022Z" transform="translate(-682.066 -232.939)"/></g><g transform="translate(151.238)"><g transform="translate(0 80.278)"><path class="a" d="M947.188,305.041,852.9,359.476a12.261,12.261,0,0,1-11.091,0h0c-3.062-1.769-3.062-4.636,0-6.4L936.1,298.637a12.252,12.252,0,0,1,11.091,0h0C950.25,300.4,950.25,303.272,947.188,305.041Z" transform="translate(-839.514 -255.258)"/><path class="a" d="M985.087,275.513l-49.828,28.768a12.261,12.261,0,0,1-11.091,0h0c-3.062-1.769-3.062-4.634,0-6.4L974,269.11a12.261,12.261,0,0,1,11.091,0h0C988.149,270.879,988.149,273.746,985.087,275.513Z" transform="translate(-804.576 -267.784)"/></g><path class="a" d="M966.814,273.655,872.528,328.09a12.261,12.261,0,0,1-11.09,0h0c-3.062-1.769-3.062-4.636,0-6.4l94.286-54.436a12.253,12.253,0,0,1,11.091,0h0C969.876,269.019,969.876,271.886,966.814,273.655Z" transform="translate(-831.188 -188.295)"/><path class="a" d="M1051.465,224.78l-94.286,54.436a12.252,12.252,0,0,1-11.09,0h0c-3.062-1.767-3.062-4.634,0-6.4l94.286-54.436a12.261,12.261,0,0,1,11.09,0h0C1054.529,220.146,1054.529,223.013,1051.465,224.78Z" transform="translate(-795.276 -209.029)"/><path class="a" d="M1089.485,242.941,995.2,297.376a12.261,12.261,0,0,1-11.091,0h0c-3.062-1.769-3.062-4.636,0-6.4l94.286-54.436a12.252,12.252,0,0,1,11.09,0h0C1092.548,238.3,1092.548,241.172,1089.485,242.941Z" transform="translate(-779.146 -201.325)"/><path class="a" d="M944.691,315.067,917.094,331A12.261,12.261,0,0,1,906,331h0c-3.062-1.769-3.062-4.636,0-6.4l27.6-15.934a12.261,12.261,0,0,1,11.091,0h0C947.755,310.433,947.755,313.3,944.691,315.067Z" transform="translate(-812.282 -170.726)"/><path class="a" d="M1110.829,219.149l-27.6,15.933a12.253,12.253,0,0,1-11.091,0h0c-3.064-1.767-3.064-4.634,0-6.4l27.6-15.933a12.253,12.253,0,0,1,11.091,0h0C1113.891,214.513,1113.891,217.38,1110.829,219.149Z" transform="translate(-741.799 -211.419)"/><path class="a" d="M979.983,246,885.7,300.432a12.261,12.261,0,0,1-11.091,0h0c-3.062-1.769-3.062-4.636,0-6.4l94.286-54.436a12.252,12.252,0,0,1,11.09,0h0C983.045,241.361,983.045,244.228,979.983,246Z" transform="translate(-825.602 -200.029)"/><path class="a" d="M1001.326,222.2l-27.6,15.933a12.253,12.253,0,0,1-11.091,0h0c-3.062-1.767-3.062-4.634,0-6.4l27.6-15.933a12.252,12.252,0,0,1,11.09,0h0C1004.39,217.569,1004.39,220.436,1001.326,222.2Z" transform="translate(-788.255 -210.122)"/></g><g transform="translate(195.897 106.945)"><g transform="translate(89.344 80.278)"><path class="a" d="M996.817,350.6,946.989,379.37a12.262,12.262,0,0,1-11.091,0h0c-3.062-1.769-3.062-4.636,0-6.4L985.725,344.2a12.262,12.262,0,0,1,11.091,0h0C999.879,345.968,999.879,348.835,996.817,350.6Z" transform="translate(-933.601 -342.873)"/></g><path class="a" d="M978.544,348.744l-94.286,54.436a12.262,12.262,0,0,1-11.091,0h0c-3.062-1.769-3.062-4.636,0-6.4l94.286-54.436a12.252,12.252,0,0,1,11.09,0h0C981.606,344.108,981.606,346.975,978.544,348.744Z" transform="translate(-870.87 -263.384)"/><path class="a" d="M1063.195,299.869l-94.286,54.436a12.253,12.253,0,0,1-11.091,0h0c-3.062-1.767-3.062-4.634,0-6.4l94.286-54.436a12.261,12.261,0,0,1,11.091,0h0C1066.258,295.235,1066.258,298.1,1063.195,299.869Z" transform="translate(-834.958 -284.118)"/><path class="a" d="M1101.215,318.028l-94.286,54.436a12.253,12.253,0,0,1-11.091,0h0c-3.062-1.767-3.062-4.634,0-6.4l94.286-54.437a12.261,12.261,0,0,1,11.091,0h0C1104.277,313.394,1104.277,316.261,1101.215,318.028Z" transform="translate(-818.829 -276.414)"/><path class="a" d="M956.421,390.156l-27.6,15.934a12.262,12.262,0,0,1-11.091,0h0c-3.062-1.769-3.062-4.636,0-6.4l27.6-15.934a12.261,12.261,0,0,1,11.091,0h0C959.485,385.522,959.485,388.389,956.421,390.156Z" transform="translate(-851.964 -245.814)"/><path class="a" d="M1122.559,294.238l-27.6,15.933a12.253,12.253,0,0,1-11.091,0h0c-3.062-1.767-3.062-4.634,0-6.4l27.6-15.933a12.252,12.252,0,0,1,11.09,0h0C1125.622,289.6,1125.622,292.469,1122.559,294.238Z" transform="translate(-781.482 -286.507)"/><path class="a" d="M991.713,321.084,897.427,375.52a12.253,12.253,0,0,1-11.091,0h0c-3.062-1.767-3.062-4.634,0-6.4l94.286-54.436a12.253,12.253,0,0,1,11.091,0h0C994.775,316.45,994.775,319.317,991.713,321.084Z" transform="translate(-865.284 -275.117)"/><path class="a" d="M1013.056,297.294l-27.6,15.933a12.253,12.253,0,0,1-11.091,0h0c-3.062-1.767-3.062-4.635,0-6.4l27.6-15.933a12.253,12.253,0,0,1,11.091,0h0C1016.12,292.658,1016.12,295.525,1013.056,297.294Z" transform="translate(-827.937 -285.211)"/></g></g><g transform="translate(962.498 196.824)"><path class="b" d="M964.96,134.009l.073-.043c2.606-1.513,5.778-.779,8.436.753l40.346,23.295c6.875,3.971,12.378,14.086,12.378,22.5v31.263l-6.186,3.572V184.087c0-8.51-5.587-18.578-12.381-22.5L967.28,138.292c-3.256-1.879-6.218-2.031-8.43-.758Z" transform="translate(-866.821 -133.136)"/><path class="c" d="M1021.19,183.029v31.262l-13.63-7.862L996.1,199.806l-8.745-5.056-25-14.428-6.281-3.632V145.429c0-4.444,1.524-7.563,3.945-8.958h.014c2.208-1.268,5.17-1.125,8.432.755l40.334,23.3C1015.593,164.442,1021.19,174.512,1021.19,183.029Z" transform="translate(-867.999 -132.072)"/><path class="d" d="M989.148,310.447v-7.563a2.275,2.275,0,0,0,.424,1.258,5.7,5.7,0,0,0,3.448,1.9,9.783,9.783,0,0,0,4.586-.181,5.343,5.343,0,0,0,2.045-1.013,2.769,2.769,0,0,0,1.109-1.947v7.556a2.766,2.766,0,0,1-1.109,1.958,5.381,5.381,0,0,1-2.045,1.011,9.726,9.726,0,0,1-4.586.178,5.687,5.687,0,0,1-3.448-1.9,2.3,2.3,0,0,1-.424-1.233Z" transform="translate(-853.968 -61.122)"/><path class="e" d="M999.059,297.3a17.993,17.993,0,0,1,4.267,11.261v.021a2.768,2.768,0,0,1-1.109,1.947,5.343,5.343,0,0,1-2.045,1.013,9.782,9.782,0,0,1-4.586.181,5.7,5.7,0,0,1-3.448-1.9,2.276,2.276,0,0,1-.424-1.258v-.021a5.77,5.77,0,0,0-.829-2.709,10.847,10.847,0,0,0-7-4.934h0a.775.775,0,0,1-.474-.483,2.787,2.787,0,0,1-.221-.884,9.51,9.51,0,0,1-.08-1.161,17.224,17.224,0,0,1,2.116-8.179c.254-.359.588-.746.971-.671h0A22.7,22.7,0,0,1,999.059,297.3Z" transform="translate(-856.532 -66.797)"/><path class="f" d="M1000.761,308.2a5.807,5.807,0,0,1-11.613.011,2.3,2.3,0,0,0,.424,1.233,5.687,5.687,0,0,0,3.448,1.9,9.726,9.726,0,0,0,4.586-.178,5.382,5.382,0,0,0,2.045-1.011A2.766,2.766,0,0,0,1000.761,308.2Z" transform="translate(-853.968 -58.865)"/><path class="b" d="M1029.75,231.854v9.5c0,2.35-1.837,4.23-3.874,5.412l-9.129,5.27L978.82,273.926l-5.284,3.062h-.029l-2.151,1.253a15.731,15.731,0,0,1-3.76,1.51c-4.928,1.339-10.952.812-14.969-1.51l-54.52-31.476c-2.065-1.2-3.888-3.076-3.874-5.412v-9.5a5.413,5.413,0,0,0,1.211,3.2,8.965,8.965,0,0,0,2.663,2.193L924.3,252.377l28.328,16.35c5.27,3.048,13.658,2.934,18.729,0l54.52-31.476c.2-.114.4-.242.6-.37v-.014a.179.179,0,0,0,.1-.057c.014,0,.029-.014.043-.028a7.243,7.243,0,0,0,.669-.484c.242-.2.47-.4.7-.627a7.565,7.565,0,0,0,.541-.612A5.431,5.431,0,0,0,1029.75,231.854Z" transform="translate(-894.234 -91.255)"/><path class="c" d="M1029.75,243.422v.085a5.43,5.43,0,0,1-1.225,3.2,8.314,8.314,0,0,1-2.051,1.823c-.2.128-.4.256-.6.37l-54.52,31.476c-5.07,2.934-13.459,3.048-18.729,0L924.3,264.031l-26.192-15.125a8.963,8.963,0,0,1-2.663-2.193,5.412,5.412,0,0,1-1.211-3.2,5.344,5.344,0,0,1,1.211-3.2,9.233,9.233,0,0,1,2.663-2.208l54.52-31.476a16.709,16.709,0,0,1,5.455-1.894c4.515-.8,9.642-.2,13.274,1.894L998.3,222.186l8.2,4.728,19.369,11.18a9.174,9.174,0,0,1,2.649,2.208A5.393,5.393,0,0,1,1029.75,243.422Z" transform="translate(-894.234 -102.909)"/><path class="e" d="M991.331,182.2v23.685c.085,10.468-5.925,24.041-15.823,32.587l-8.2-4.728c8.688-5.825,15.353-18.444,15.282-27.858V177.144Z" transform="translate(-863.235 -114.466)"/><path class="d" d="M972.487,276.239v.091a2.143,2.143,0,0,1-.33,1.112,4.57,4.57,0,0,1-2.39,1.726,8.87,8.87,0,0,1-3.878.471,6.327,6.327,0,0,1-4.485-1.918q1.76-2.882,3.524-5.764a8.886,8.886,0,0,0,5.8-.79,3.451,3.451,0,0,0,1.429-1.287,2.1,2.1,0,0,0,.33-1.11Z" transform="translate(-865.738 -75.594)"/><path class="d" d="M970.692,270.418a2.8,2.8,0,0,1-.134.251.176.176,0,0,0-.018.029l-.011.018q-1.152,1.88-2.3,3.767-1.762,2.882-3.523,5.764c-.08.131-.16.261-.244.4q-3.589,5.877-7.185,11.757c-1.215-.246-2.434-.5-3.648-.743V276.1q3.491-5.71,6.986-11.424l.011-.019.007-.011a4.151,4.151,0,0,1,3.509-1.827c3.6-.108,6.911,2.962,6.911,5.983A3.728,3.728,0,0,1,970.692,270.418Z" transform="translate(-869.037 -78.12)"/><g transform="translate(101.521 192.212)"><path class="g" d="M965.649,268.18c.044-.04.075-.073.094-.087a3.772,3.772,0,0,0-.228.338A2.8,2.8,0,0,0,965.649,268.18Z" transform="translate(-965.515 -268.093)"/></g><path class="e" d="M968.453,271.626a.167.167,0,0,1,.018-.029,3.775,3.775,0,0,1,.228-.338c-.018.014-.05.047-.094.087a3.729,3.729,0,0,0,.359-1.616c0-3.021-3.31-6.091-6.91-5.983a4.151,4.151,0,0,0-3.509,1.827,9.951,9.951,0,0,1,5.2-4.593,6.866,6.866,0,0,1,6.911,1.541c2.515,2.367,3.056,6.228,3.042,9.695v.007a2.1,2.1,0,0,1-.33,1.11,3.451,3.451,0,0,1-1.429,1.287,8.886,8.886,0,0,1-5.8.79q1.154-1.889,2.3-3.767Z" transform="translate(-866.951 -79.048)"/><path class="f" d="M972.56,274.014a5.805,5.805,0,0,1-11.327,1.879c.084-.135.164-.265.244-.4a6.327,6.327,0,0,0,4.485,1.918,8.873,8.873,0,0,0,3.878-.471,4.57,4.57,0,0,0,2.39-1.726,2.143,2.143,0,0,0,.33-1.112v-.091Z" transform="translate(-865.81 -73.369)"/><path class="d" d="M952.145,293.755a3.524,3.524,0,0,0,.343-1.879,13.643,13.643,0,0,0-.9-4.016c-.075-.2-.145-.375-.2-.523.536-.471,1.068-.978,1.548-1.487.406-.427,1.6-1.75,1.642-2.447a.363.363,0,0,0,0-.08v-.258c1.214.246,2.433.5,3.648.743q20.708,4.221,41.421,8.44c-.383-.076-.718.312-.971.671a17.224,17.224,0,0,0-2.116,8.179,9.534,9.534,0,0,0,.08,1.161,2.783,2.783,0,0,0,.221.884.774.774,0,0,0,.474.483q-22.775-4.64-45.547-9.282C951.905,294.149,952.025,293.95,952.145,293.755Z" transform="translate(-869.987 -69.529)"/><g transform="translate(84.59 213.795)"><path class="g" d="M953.627,283.247a.363.363,0,0,1,0,.08Z" transform="translate(-953.627 -283.247)"/></g><path class="e" d="M956.967,261.394V292.6c-.043.7-1.239,2.022-1.638,2.45-.484.5-1.011,1.011-1.552,1.481-.584-.185-1.168-.37-1.795-.555a24.006,24.006,0,0,0-5.7-1,6.655,6.655,0,0,1-.541-2.407V267.219a15.732,15.732,0,0,0,3.76-1.51l2.151-1.253h.029Z" transform="translate(-872.381 -78.723)"/><path class="d" d="M944.284,316.9c0-3.024-3.31-6.092-6.911-5.983a4.161,4.161,0,0,0-3.506,1.82q6.625-10.838,13.245-21.666,1.228-2.012,2.461-4.021c.04-.07.08-.135.12-.2a8.158,8.158,0,0,1,1.632-1.876,23.851,23.851,0,0,1,5.691,1c.635.181,1.219.363,1.8.551.057.148.127.319.2.523a13.643,13.643,0,0,1,.9,4.016,3.524,3.524,0,0,1-.343,1.879c-.12.2-.239.395-.359.591h0q-7.706,12.611-15.412,25.216A3.669,3.669,0,0,0,944.284,316.9Z" transform="translate(-877.42 -68.721)"/><path class="d" d="M959.557,286.69a6.7,6.7,0,0,0,.544,2.407,8.159,8.159,0,0,0-1.632,1.876c-.04.064-.08.13-.12.2q-1.235,2.01-2.461,4.021-20.966-4.275-41.934-8.545h0a.789.789,0,0,1-.471-.486,2.846,2.846,0,0,1-.221-.882,9.582,9.582,0,0,1-.075-1.161,17.21,17.21,0,0,1,2.114-8.179c.253-.359.591-.751.976-.671h0l43.282,8.822Z" transform="translate(-886.195 -72.841)"/><path class="e" d="M945.294,311.146c-1.544,2.534-3.531,9.463-3.516,14.919v.007a2.116,2.116,0,0,1-.33,1.117,4.784,4.784,0,0,1-2.752,1.846,9.416,9.416,0,0,1-6.036-.222,4.446,4.446,0,0,1-1.853-1.213,2.416,2.416,0,0,1-.638-1.52v-.007c-.026-6.378,2.055-15.866,5.257-21.043l.01-.018a4.161,4.161,0,0,1,3.506-1.82c3.6-.108,6.91,2.96,6.91,5.983a3.669,3.669,0,0,1-.481,1.853l-.037.057a.053.053,0,0,1-.014.019C945.313,311.116,945.3,311.13,945.294,311.146Z" transform="translate(-878.989 -60.993)"/><path class="d" d="M941.448,320.372a2.117,2.117,0,0,0,.33-1.117v7.567c0,.043,0,.09,0,.134a2.106,2.106,0,0,1-.326.978,4.785,4.785,0,0,1-2.752,1.846,9.407,9.407,0,0,1-6.036-.218,4.478,4.478,0,0,1-1.853-1.215,2.42,2.42,0,0,1-.638-1.525v-7.56a2.417,2.417,0,0,0,.638,1.52A4.448,4.448,0,0,0,932.66,322a9.416,9.416,0,0,0,6.036.222A4.785,4.785,0,0,0,941.448,320.372Z" transform="translate(-878.989 -54.176)"/><path class="f" d="M941.774,324.726a5.8,5.8,0,0,1-11.6-.214v.08a2.419,2.419,0,0,0,.638,1.525,4.478,4.478,0,0,0,1.853,1.215,9.406,9.406,0,0,0,6.036.218,4.785,4.785,0,0,0,2.752-1.846A2.1,2.1,0,0,0,941.774,324.726Z" transform="translate(-878.989 -51.946)"/><path class="e" d="M920.169,276.061a17.211,17.211,0,0,0-2.113,8.179,9.606,9.606,0,0,0,.075,1.161,2.852,2.852,0,0,0,.221.882.789.789,0,0,0,.471.486c-2.454-.518-5.539.024-5.515,2.555v.023a2.749,2.749,0,0,1-1.105,1.968,5.433,5.433,0,0,1-2.048,1.011,9.719,9.719,0,0,1-4.583.178,5.689,5.689,0,0,1-3.451-1.9,2.311,2.311,0,0,1-.424-1.241v-.017a13.9,13.9,0,0,1,4.227-10.112c3.992-3.854,9.876-4.975,15.221-3.844C920.76,275.311,920.422,275.7,920.169,276.061Z" transform="translate(-891.068 -72.963)"/><path class="d" d="M901.7,292.628v-7.546a2.312,2.312,0,0,0,.424,1.241,5.69,5.69,0,0,0,3.451,1.9,9.719,9.719,0,0,0,4.583-.178,5.432,5.432,0,0,0,2.048-1.011,2.749,2.749,0,0,0,1.105-1.968v7.57A2.751,2.751,0,0,1,912.2,294.6a5.441,5.441,0,0,1-2.048,1.016,9.717,9.717,0,0,1-4.583.178,5.673,5.673,0,0,1-3.451-1.9,2.309,2.309,0,0,1-.424-1.236Z" transform="translate(-891.068 -68.681)"/><path class="f" d="M912.2,292.341a2.751,2.751,0,0,0,1.105-1.961,5.806,5.806,0,0,1-11.612.014,2.309,2.309,0,0,0,.424,1.236,5.673,5.673,0,0,0,3.451,1.9,9.717,9.717,0,0,0,4.583-.178A5.441,5.441,0,0,0,912.2,292.341Z" transform="translate(-891.068 -66.426)"/></g><g transform="translate(809.577 189.535)"><g transform="translate(0 13.386)"><path class="h" d="M1010.243,244.646h0q.331-.474.647-.96a21.4,21.4,0,0,0-3.118-3.447c-8.245-7.373-22.383-9.88-29.55-9.88a15.126,15.126,0,0,0-4.156.553c-7.711-1.567-16.678,5.5-22.979,8.394-11.583,5.312-17.409,5.677-22.468,10.531-5.086-.05-10.686-2.814-14.915-3.686a34.434,34.434,0,0,1,6.71,16.75c-2.6,5.667-5.592,13.345-9.471,23.947-2.115,5.782-6.891,14.7-7.661,22.3a47.468,47.468,0,0,0-1.28,5.12c0,.135-1.071,1.928-1.266,2.242a8.6,8.6,0,0,1-4.9.8,9.122,9.122,0,0,1-1.393-1.016,21.268,21.268,0,0,0,2.545-2.907c-.155-.44-.306-.884-.42-1.335l.066-.088.194.051a49.053,49.053,0,0,1-3.555-5.9c-1.77-1.948-3.835-3.6-6.228-3.6-.235,0-.456.007-.665.021,1-1.473,2.6-2.683,3.126-4.438,3.875-12.879,9.85-54.358,20.3-64.66,6.412-11.032,43.3-14.563,57.562-18.962,0,2.206,20.676,14.524,29.687,14.524,8,0,11.754-1.43,14.95-4.774C1013.748,230.387,1014.564,239.916,1010.243,244.646Z" transform="translate(-744.646 -104.724)"/><path class="i" d="M1020.711,257.964a5.392,5.392,0,0,1,1.225,3.119l-3.276,5.1v.014l-25.313,14.64-22.342,22.4v1.481l-5.284,1.581h-.029l-8.246,2.45-44.792-20.324,3.831-6.737,33.783-59.305,30.507-53.566h0a12,12,0,0,1,17.588-3.695l13.062,9.7a41.343,41.343,0,0,1,14.556,20.1l-11.465-6.623v23.685c.085,10.468-5.925,24.041-15.823,32.587l19.37,11.18A9.175,9.175,0,0,1,1020.711,257.964Z" transform="translate(-733.499 -126.666)"/><path class="j" d="M969.41,226.083c-1.352.372-2.463.86-3.667,1.208A114.029,114.029,0,0,0,954.579,237.7a70.891,70.891,0,0,0-27.042,12.2,17.892,17.892,0,0,1-2.618,3.14c-1.032.926-3.045,1.125-3.719,2.294a14.26,14.26,0,0,0-2.047.835c-.524,14.953-3.353,19.79-8.108,26.414-7.865,20.27-4.214,24.384-5.367,28.026-2.886,1.288-5.612.336-8.164-1.512-.053.114-.11.229-.169.347a47.5,47.5,0,0,1,1.28-5.12c.771-7.6,5.546-16.515,7.661-22.3,3.88-10.6,6.873-18.28,9.471-23.947a34.434,34.434,0,0,0-6.71-16.75c4.229.872,9.829,3.636,14.915,3.686,5.059-4.854,10.884-5.218,22.467-10.531C952.708,231.6,961.7,224.516,969.41,226.083Z" transform="translate(-739.993 -99.895)"/><path class="h" d="M965.068,225.628c7.167,0,21.305,2.507,29.55,9.88-8.262,2.861-28.452,14.272-39.214,32.075a28.125,28.125,0,0,1-18.666,7.219,27.176,27.176,0,0,1,9.367,12.595c-3.3,12.189-3.428,25.42-5.3,37.829-2.48,16.439-4.558,18.329-5.755,20.619-3.32-2.725-7.4-3.877-11.468-5.257q-2.143.011-4.267.08-.485.912-.9,1.854a3.869,3.869,0,0,1-.919-1.775c0-2.418-1.782,13.28,8.574-52.1-.3-6.569-1.347-22.161.659-27.912-.024.01-.048.017-.071.027-.134-2.282,3.428-6.043,5.466-8.81a32.41,32.41,0,0,0,3.979-3.481c6.133-6.507,13.772-15.291,21.143-21.084C959.452,226.752,961.373,225.628,965.068,225.628Z" transform="translate(-731.495 -99.993)"/><path class="j" d="M935.831,342.955a11.2,11.2,0,0,1-4.019,1.877h0c.006-.048.006-.1.007-.148-.046.017-.09.036-.135.056a15.849,15.849,0,0,0-1.9-1.837c1.2-2.29,3.276-4.18,5.755-20.619,1.873-12.409,2.005-25.641,5.3-37.829a27.176,27.176,0,0,0-9.367-12.595,28.125,28.125,0,0,0,18.666-7.219c10.762-17.8,30.952-29.214,39.214-32.075a21.392,21.392,0,0,1,3.118,3.447c-10.554,16.134-31.607,24.843-45.684,39.046,0,12.132-.64,26.3-4.1,37.862-2.44,14.658-6.207,29.769-6.214,29.787C935.818,342.821,936.062,342.736,935.831,342.955Z" transform="translate(-726.231 -97.05)"/><path class="i" d="M1060.716,292.525c-.7,2.351-1.426,4.314-1.629,4.314-1.409,0-2.427-12.408-1.335-16.37.3-1.094.2-1.446-.407-1.446-1.092,0-.981-.907.148-1.259.852-.278,2.464-3.37,2-3.833a6.584,6.584,0,0,0-2.408.907c-1.2.63-2.314,1-2.481.833-.389-.37-.463-.315,3.147-2.371,2.834-1.574-4.814-5.443-1.963-5.13,2.982.335,3.444.761,2.018,1.871-1.463,1.166-38.483,22.333-40.334,23.39-1.376,4.746-4.729,16.147-8.249,28.281l-8.719,5.045,5.443-18.734c-1-.333-.938-1.424.191-1.795.926-.3.407-.981,2.592-8.5.241-.8.39-.628-2.518.611-3.685,1.567-11.019,3.2-19.186,3.2-6.779,0-9.464-.778-9.52-2.742,0-.221,2.407-.241,5.371-.074,5.815.352,12.093-.241,20.889-1.963,4.723-.944,5.63-1.278,5.872-2.2a2.579,2.579,0,0,0,.147-1.222c-.073-.074-2.833.426-6.13,1.111-13.149,2.777-25.094,3.019-25.094.5,0-1.259,6.593-7.7,10.927-10.686A25.481,25.481,0,0,0,994.1,280.4a7.5,7.5,0,0,0-2.21-1.893c-1.87-1.111-2-.018-4.626.907-2.057.7-4.316.926-9.5.926-6.3,0-7.037-.091-9.815-1.406-1.649-.779-3-1.649-3-1.945,0-.759-6.3-4.575-6.3-5.3,0-.629-.333-.685,3.593.537,3.722,1.185,7.593,1.315,12.482.463,2.759-.481,3.222-.7,2.74-1.3-.463-.555-1.463-.648-4.073-.407a24.471,24.471,0,0,1-12.278-2.5c-4.093-2.094-9.779-8.575-9.779-11.149a2.225,2.225,0,0,0-.926-1.666c-.76-.464-1.612-.131-4.649,1.833-7.7,5.019-8.574,4.7-8.574,6.852,0,.87-.224,1.592-.52,1.592s-.519-.463-.519-1.018c0-2.36-1.746-1.011-5.186.926-1.185-.611-3.74-2-4.869-2-1.315,0-1.222-1.944.111-2.351.833-.279,1.037-.8,1.037-2.7,0-2.111-.111-2.314-1.037-2.018-1.02.333-1.055.093-1.055-8.649,0-8.629.036-9,1.074-9.259,1.259-.333,1-1.148.759-3.686-2.871,1.629-4.112,2.334-5.241,2.964-.262.923-10.746,36.992-16.239,55.913-14.907,8.543-38.227,21.906-39.224,22.482l-58.377-.664.016,3.508-6.848,4.129,65.193.48,119.3,68.889v-3.059c6.16,3.311,7.208,3.064,11.444,2.219a13.1,13.1,0,0,1,2.206-.329l.016,9.578c.608.346,45.561,25.629,45.561,26.145,0,.255-11.186.365-45.561.365l.292,2.5-7.125,3.669,66.488,1.285c4.549,2.6,12.4,7.1,13.807,7.913h4.691l89-51.4-42-24.286c21.812-3.994,48.372-14.638,64.767-24.537C1191.185,341.713,1068.549,266.041,1060.716,292.525Zm-2.964,76.559c.352,0,6.889,3.13,3.575,3.13-1.3,0-5.748,1.588-7.43,1.843v-.769C1054.868,371.881,1057.337,369.084,1057.752,369.084Zm-13.371-85.245c1.7-.629,7.463-.8,7.463-.222,0,.222-1.574,1.037-3.481,1.834-3.279,1.35-3.556,1.389-4.445.573C1042.6,284.84,1042.7,284.45,1044.381,283.839Zm-21.465,16.668c.372,0,.668.2.668.481,0,.611-2.057,1.3-2.519.833C1020.676,301.432,1021.954,300.525,1022.917,300.506Zm-8.718,18.329-1.241.718C1013.242,316.982,1013.747,316.459,1014.2,318.835Zm-9.985-7.124c0,.833-21.131,12.834-22.113,13.389l-.966.007c-1.463-.837-3.083-1.769-4.839-2.782a4.352,4.352,0,0,1,1.323-.356c1.129,0,9.834-5.112,9.834-5.777s10.5-6.779,11.649-6.8C1000.065,309.4,1004.213,310.8,1004.213,311.711ZM971.007,317.6a6.508,6.508,0,0,0-1.381.876c-3.237-1.871-6.7-3.88-10.257-5.942a7.107,7.107,0,0,1,4.417-.86c2.24.352,8.574,3.5,8.889,4.427C972.786,316.434,972.026,317.1,971.007,317.6Zm-36.52-50.633c.778,0,3.279-1.166,5.593-2.555,2.3-1.407,4.334-2.574,4.5-2.612.185,0,.463,1.26.611,2.816,1.111,10.649,13.8,21.187,26.168,21.223a5.4,5.4,0,0,1,2.483.3c0,.665-6.8,8.3-6.8,11.76a7.21,7.21,0,0,0,.778,2.592c1.87,3.63,7.481,5.7,16.611,6.148,3.371.167,6.019.463,5.889.685-.426.685-9.648,5.741-10.481,5.741a7.117,7.117,0,0,0-2.3.759c-1.389.722-1.7.648-5.593-1.315a33.282,33.282,0,0,0-7.278-2.649c-7.722-1.389-6.686-3.333-12.723-6.48-2.592-1.353-3.075-1.427-7.333-1.149-.769.051-1.638.145-2.528.266l-5.53-3.219c3.676-5.976,4.784-12.489,2.725-17.03a13,13,0,0,1-1.037-4.482,3.78,3.78,0,0,0-1.186-3.259c-5.536-4.889-7.2-1.2-7.185-4.241C929.875,268.615,932.135,267,934.487,266.967Zm-16.575-4.684c.187,0,.593,1.592.926,3.536.668,3.927,1.52,6.963,2.149,7.648.222.242.963.074,1.629-.387,2.871-2.02,2.538-.113,2.538,3.851,1.426.018,7.389-.111,8.37.537,1.055.685,1.092.518-7.315,5.278,0,4.6.02,8.06-.019,10.49l-1.991-1.161c-.075-1.82-.044-2.747-.121-5.459a26.748,26.748,0,0,0-2.662,3.837l-4.76-2.776-7.747,4.437C909.011,291.767,917.511,262.283,917.911,262.283Zm67.654,109.631v-41.79a21.425,21.425,0,0,0,2.35-.615c1.648-.722,1.851-.722,2.888.222,1.353,1.259,6.846,4.56,7.511,4.56l.8-2.757.043,25.967a17.151,17.151,0,0,0-.782,3.861.944.944,0,0,0,.787.367l.03,18.2C995.281,377.564,989.947,374.426,985.566,371.914Zm75.163,22.7-6.7-3.9c5.33-1,9.719-1.836,13.351-2.538l-.01,2.517Z" transform="translate(-780.836 -95.937)"/><path class="k" d="M936.576,229.436l37.6,22.457s14.51-11.726,20.656-6.509c0,0,4.79-4.471,1.118-19.461-2.275-9.287-25.175-19.132-40.968-14.077-9.169,2.935-18.086,4.137-30.765,10.454Z" transform="translate(-728.593 -106.423)"/><path class="l" d="M875.691,175.485l211.823,122.3-88.828,51.287-211.822-122.3Z" transform="translate(-786.864 -121.266)"/><path class="m" d="M924.278,253.3l5.6,3.232,3.773-2.176-5.594-3.236Zm-4.646,2.683,5.6,3.232,3.779-2.182-5.6-3.232Zm-1.722-6.356,5.6,3.23,3.773-2.182-5.594-3.23Zm-2.923,9.034,5.6,3.232,3.774-2.176-5.6-3.232Zm-3.445-12.714,5.6,3.23L920.911,247l-5.594-3.23Zm1.722,6.358,5.6,3.23,3.779-2.176-5.6-3.232Zm.856,6.858-3.773,2.182,5.594,3.232,3.774-2.178Zm-5.5-4.176,5.6,3.232,3.774-2.176-5.6-3.237Zm1.278-8.983-2.813-1.628-.151-1.091,3.836,2.218,3.774-2.182-5.6-3.23-2.275,1.315-.115-.825,1.618-.934-1.9-1.1-.474-3.4,12.583,7.259,12.079-6.973-20.921-12.078-5.208,3.007-20.586-11.885,8.215-4.74,23.128,13.352-1.07.621c1.32.758-.978-.568,15.831,9.139.306-.174.091-.051,1.069-.615l23.134,13.351-43.115,24.893-.245-.141-.517-3.722,1.118.647,3.773-2.182-5.553-3.2-.151-1.091.208.121,3.774-2.182-4.64-2.678-.256-1.849,3.173-1.832-3.726-2.151-.157-1.1,4.75,2.746,3.779-2.182-5.6-3.23-3.054,1.763-.115-.825Z" transform="translate(-745.762 -106.735)"/><g transform="translate(176.386 238.908)"><path class="n" d="M936.724,311.359c-.1.957-.032,1.728-.083,2.455a45.589,45.589,0,0,0-6.906,10.139,29.233,29.233,0,0,1-7.558,4.928c-4.049.239-7.791-.275-11.155-2.631-.128-.832-.231-1.706-.293-2.551,2.964,3.931,9.7,4.038,14.222,2.367C929.775,323,932.749,315.81,936.724,311.359Z" transform="translate(-910.702 -302.53)"/><path class="o" d="M937.3,307.676c.047.852.084,1.708.105,2.565a9.725,9.725,0,0,0-.674,2.68c-3.975,4.451-6.949,11.64-11.773,14.708-4.545,1.678-11.266,1.555-14.223-2.367-.01-.147-.02-.292-.027-.436a16.842,16.842,0,0,1,1.649-2.638c3.2-2.374,7.843-.655,10.809,1.957,3.393-7.049,11.143-8.488,11.42-15.205A7.9,7.9,0,0,0,937.3,307.676Z" transform="translate(-910.71 -304.093)"/><path class="p" d="M922.677,325.213c-2.965-2.611-7.61-4.331-10.809-1.957l.041-.054c2.165-5.214,5.781-7.182,7.939-10.736a21.9,21.9,0,0,1,2.267-7.252q1.435-.049,2.88-.054c3.388,1.149,6.614,2.035,9.014,4.787.031-.014.061-.027.093-.038C933.754,316.862,926.1,318.1,922.677,325.213Zm2.119-5.74c.278-.335.557-.667.836-1a7.334,7.334,0,0,0-5.925-3.192c-.272.415-.558.823-.852,1.235C920.607,316.577,923.732,318.582,924.8,319.474Zm4.1-4.711c.08-.081.282-.312.933-.986-1.457-2.707-4.669-3.612-7.671-3.753-.108.385-.225.753-.349,1.109A9.775,9.775,0,0,1,928.9,314.762Zm-8.426-.722c1.857.048,4.56,1.016,5.613,2.73a4.825,4.825,0,0,0,1.29-1.229,8.414,8.414,0,0,0-6.183-2.89C920.967,313.136,920.727,313.594,920.472,314.04Zm2.414,7.756c.279-.34.555-.679.833-1.017-2.091-.789-4.18-1.605-6.329-2.257-.264.362-.533.734-.8,1.121C918.588,320.412,920.836,321.18,922.886,321.8Z" transform="translate(-910.219 -305.16)"/><path class="e" d="M926.869,312.328c-.672.7-.853.9-.933.986a9.775,9.775,0,0,0-7.087-3.629c.124-.356.241-.725.349-1.11C922.2,308.716,925.412,309.62,926.869,312.328Z" transform="translate(-907.257 -303.711)"/><path class="e" d="M924.812,313.31a4.826,4.826,0,0,1-1.29,1.229c-1.052-1.715-3.756-2.682-5.613-2.73.809-1.419.652-1.389.759-1.389A8.429,8.429,0,0,1,924.812,313.31Z" transform="translate(-907.656 -302.929)"/><path class="e" d="M923.55,315.459c-.279.333-.558.665-.836,1-1.064-.892-4.189-2.9-5.94-2.957.293-.412.58-.82.852-1.235A7.334,7.334,0,0,1,923.55,315.459Z" transform="translate(-908.137 -302.145)"/><path class="e" d="M922.314,316.8c-.278.338-.554.676-.833,1.017-2.049-.617-4.3-1.384-6.3-2.153.271-.387.54-.759.8-1.121C918.133,315.194,920.223,316.01,922.314,316.8Z" transform="translate(-908.813 -301.18)"/></g><path class="i" d="M908.75,207.884l-10.979,9.338,11.372,6.651,15.749-6.564Z" transform="translate(-739.813 -107.521)"/><g transform="translate(123.991 201.497)"><path class="o" d="M891.465,278.893c1.554,0,2.9,1.075,4.045,2.341a31.849,31.849,0,0,0,2.31,3.83l-.127-.033-.043.057c.074.292.172.581.273.866a13.766,13.766,0,0,1-1.654,1.889c-2.022-1.769-3.078-4.693-7.886-5.735h0C888.716,280.918,888.391,278.893,891.465,278.893Z" transform="translate(-867.787 -278.893)"/><path class="o" d="M907.393,284.1a6.177,6.177,0,0,0,3.568,1.367c.067,1.313.1,2.632.1,3.955q-.139.7-.338,1.379c-2.961,2.96-3.575,1.729-15.123,5.186-2.163,1.239-4.657,2.656-6.71,3.73-5.06.644-12.057,2.482-14.895-2.163a11.7,11.7,0,0,1,.53-2.329,16.775,16.775,0,0,1,5.039-3.375c.076-.09.152-.174.234-.256a24.785,24.785,0,0,1,7.009,5.1c6.244-5.878,11.773-7.413,15.565-11.049a5.894,5.894,0,0,0,.906.659,5.58,5.58,0,0,0,3.18-.518A17.438,17.438,0,0,0,907.393,284.1Z" transform="translate(-873.89 -276.686)"/><path class="n" d="M910.754,288.8a13.427,13.427,0,0,1-1.047,2.592c-5.26,2.854-9.875,2.6-14.568,4.184-1.988,1.413-4.412,3.116-6.258,4.149a30.083,30.083,0,0,1-11.939-.09,10.236,10.236,0,0,1-3.019-2.99c.026-.367.06-.733.107-1.1,2.834,4.642,9.813,2.81,14.895,2.163,2.052-1.074,4.546-2.491,6.71-3.73C906.655,290.685,908.206,291.62,910.754,288.8Z" transform="translate(-873.922 -274.69)"/><path class="p" d="M889.827,283.16a4.6,4.6,0,0,1,1.957-2.135c5.641.832,6.718,4.038,8.862,5.913-3.793,3.636-9.322,5.171-15.566,11.049a24.788,24.788,0,0,0-7.009-5.1,3.331,3.331,0,0,1,.932-.711l.066-.2c.091-.041.181-.084.271-.128,1.656.722,4.237,3.156,5.778,4.157a5.34,5.34,0,0,0,1.193-.789,19.13,19.13,0,0,0-5.73-4.125,16.929,16.929,0,0,0,1.434-1.155h0a11.239,11.239,0,0,1,5.99,3.941c.28-.329.555-.657.856-.97a12.561,12.561,0,0,0-5.62-4.106c.463-.434.923-.874,1.393-1.3h0a11.058,11.058,0,0,1,5.664,3.66,14.587,14.587,0,0,0,1.125-1.309,12.262,12.262,0,0,0-5.177-3.665,9.375,9.375,0,0,1,1.458-.864,26.831,26.831,0,0,1,2.864,1.2,19.124,19.124,0,0,1,2.736,2.515c.342-.437.665-.894,1.016-1.316-1.439-1.4-3.35-3.281-5.239-3.706.232-.289.479-.573.729-.867Z" transform="translate(-872.162 -277.988)"/><path class="e" d="M891.452,286.839c-.35.422-.674.879-1.015,1.316a19.122,19.122,0,0,0-2.736-2.515,26.854,26.854,0,0,0-2.864-1.2,6.423,6.423,0,0,1,.632-.262,9.648,9.648,0,0,1,.745-1.041C888.1,283.557,890.013,285.442,891.452,286.839Z" transform="translate(-869.292 -277.094)"/><path class="e" d="M889.47,288.32a14.614,14.614,0,0,1-1.125,1.309,11.059,11.059,0,0,0-5.664-3.66h0a18.567,18.567,0,0,1,1.614-1.312A12.262,12.262,0,0,1,889.47,288.32Z" transform="translate(-870.207 -276.449)"/><path class="e" d="M887.686,290.592c-.3.313-.575.641-.856.97a11.239,11.239,0,0,0-5.99-3.941h0c.412-.365.819-.746,1.226-1.134h0A13.067,13.067,0,0,1,887.686,290.592Z" transform="translate(-870.987 -275.672)"/><path class="e" d="M885.933,292.218a5.336,5.336,0,0,1-1.194.789c-1.541-1-4.122-3.435-5.778-4.157a9.234,9.234,0,0,0,1.242-.756A19.132,19.132,0,0,1,885.933,292.218Z" transform="translate(-871.784 -274.99)"/></g><g transform="translate(155.507)"><path class="h" d="M1000.819,233.127c0,7.516-.315,10.024-3.287,13.122-10.394,2.5-31.766,8.182-41.877,9.307a29.159,29.159,0,0,0,.7-3.79c.256-2.376-1.39-4.217-2.633-5.241,3.374-1.162,7.679-2.746,12.085-4.411.332-.125.672-.258,1.005-.383-.234-.164-.453-.32-.674-.484a40.059,40.059,0,0,1-7.591-7.3c-.358-.427-.684-.8-1-1.125a133.5,133.5,0,0,1-2.564-24.728,64.044,64.044,0,0,1,.6-9.3q.188-1.273.44-2.444c-5.851,4.65-11.946,9.142-17.037,14.566-7.88,5.624-16.125,11.029-24.394,16.144-.584-4-4.267-5.31-7.34-5.7,1.571-1.577,3.111-3.173,4.726-4.687,18.991-17.784,17.162-16.295,19.186-17.232,1.96-2.03,5.348-3.035,13.315-10.192,5.392-4.852,9.722-11.054,15.227-15.761.447.365.917.709,1.4,1.05a18.775,18.775,0,0,0,4.551.514q.829,0,1.678-.056c1.162-.075,2.337-.221,3.519-.414,2.708-2.1,5.234-3.922,7.591-5.731a5.262,5.262,0,0,0,3.455-1.584c-.063.855-.113,1.7-.113,2.538a11.562,11.562,0,0,0,2.582,7.792c3.67,4.512,10.219,6.423,12.481,15.654C1000.655,204,1000.819,223.878,1000.819,233.127Z" transform="translate(-891.299 -124.753)"/><path class="q" d="M966.657,177.594c-3.017,6.856-11.135,12.154-17.665,14.561a2.645,2.645,0,0,1,.365-.333c.171-3.526,1.013-7.573,1.013-11.444a17.421,17.421,0,0,0-.748-5.385c1.162-.075,2.337-.221,3.519-.414,2.707-2.1,5.234-3.922,7.591-5.731a5.262,5.262,0,0,0,3.455-1.584c-.063.855-.113,1.7-.113,2.538A11.562,11.562,0,0,0,966.657,177.594Z" transform="translate(-873.59 -124.753)"/><path class="r" d="M963.407,166.624c.013,3.126.138,6.1,1.337,8.862-1.6,6.933-7.349,13.71-14.389,14.833a45.926,45.926,0,0,0,1.347-10.407,24.633,24.633,0,0,0-.41-4.679C954.623,171.454,958.928,168.953,963.407,166.624Z" transform="translate(-873.012 -125.025)"/><path class="r" d="M943.956,166.425c.4,1.849.943,3.67,1.3,5.518a6.4,6.4,0,0,1-2.91-1.571A6.066,6.066,0,0,0,943.956,166.425Z" transform="translate(-876.408 -125.109)"/><path class="s" d="M945.714,174.435a6.065,6.065,0,0,1-1.608,3.947,6.4,6.4,0,0,0,2.91,1.571C946.656,178.1,946.11,176.283,945.714,174.435Zm24.7-2.557c0-1.8-.9-3.488-2.77-3.488a4.163,4.163,0,0,0-3.488,2.193,2.98,2.98,0,0,1,1.162,2.275,4.874,4.874,0,0,1-2.175,3.676,3.418,3.418,0,0,0,2.081.679h.088c-2.357,1.809-4.884,3.632-7.591,5.731a32.2,32.2,0,0,1-5.2.47,18.773,18.773,0,0,1-4.55-.514c-.484-.34-.954-.685-1.4-1.05-3.274-2.652-5.529-6.046-5.529-10.96,0-1.005.074-2.017.074-3.022,0-.182-.006-.359-.011-.523a22.308,22.308,0,0,1-2.9-11.6c0-.59.011-1.162.037-1.728a8.11,8.11,0,0,0,4.707,1.477c5.573,0,7.623-5.379,11.676-7.95,1.1,6.611,15.8,8.427,16.8,24.515-.389.376-.792.748-1.193,1.112A4.945,4.945,0,0,0,970.41,171.878Z" transform="translate(-878.166 -133.119)"/><path class="i" d="M948.509,236.276c6.348-.442,14.17-5.3,20.569-7.182a42.97,42.97,0,0,0,.672-7.88c0-8.59-1.985-17.208-1.985-25.735,0-4.736,1.3-13.334,5.63-14.3-6.119.832-7.3,5.348-7.3,10.558,0,3.277.467,6.829.467,9.911,0,4.615-1.024,7.9-5.614,7.9-4.682,0-11.532-3.065-14.626-4.089.329.09.656.179.986.268-.108-.038-.214-.081-.325-.11,8.383,3.286,17.122,8.847,17.122,17.723,0,1-.047,2.1-.133,3.317a12.873,12.873,0,0,1-5.918,1.436c-1.985,0-3.991-.395-6.574-.665h0a10.042,10.042,0,0,1,1.34,4.042C952.823,233.44,950.95,233.916,948.509,236.276Z" transform="translate(-874.722 -118.85)"/><path class="i" d="M945.344,225.591c-.365-.1-.7-.194-1.018-.295-.358-.427-.684-.8-1-1.125a133.5,133.5,0,0,1-2.564-24.728,64.043,64.043,0,0,1,.6-9.3,10.575,10.575,0,0,1,.773-2.5C941.167,205.984,945.024,222.525,945.344,225.591Z" transform="translate(-877.081 -116.106)"/><path class="i" d="M938.362,157.756c.406.249.932.88,1.427.927l.017-.036-.04-.068a8.94,8.94,0,0,0,3.414.808c3.86,0,4.27-3.8,8.248-3.8,6.586,0,13.918,8.547,15.023,14.781l-.031.019-.075-.061a2.336,2.336,0,0,1,.316,1.152c.3-1.74,2.222-3.835,2.222-4.983,0-1.719-12.763-18.954-15.638-18.954-5.378,0-8.144,10.216-14.816,10.216Z" transform="translate(-878.099 -133.121)"/><path class="t" d="M983.06,161.006c0,1.8.464,4.09.464,6.291,0,6.035-5.48,10.823-10.883,14.584a1.446,1.446,0,0,1-2.2-1.614,4.386,4.386,0,0,0,.256-1.535c-1-16.087-14.661-16.374-15.762-22.986-4.053,2.571-6.1,7.949-11.676,7.949a7.682,7.682,0,0,1-5.24-1.947,3.75,3.75,0,0,1-1.013.162c-1.634,0-2.212-1.5-2.212-3.293,0-6.654,2.354-10.433,5.428-13.493,4.637-4.612,4.872-7.708,19.351-7.708,15.087,0,23.565,11.612,23.565,20.844C983.135,159.177,983.06,160.088,983.06,161.006Z" transform="translate(-879.614 -137.416)"/><path class="r" d="M961.336,169.42A5.262,5.262,0,0,1,957.881,171h-.088a3.418,3.418,0,0,1-2.081-.679,4.874,4.874,0,0,0,2.175-3.676,2.98,2.98,0,0,0-1.162-2.275,4.163,4.163,0,0,1,3.488-2.193c1.866,0,2.77,1.683,2.77,3.488a4.946,4.946,0,0,1-.175,1.295A5.53,5.53,0,0,1,961.336,169.42Z" transform="translate(-870.739 -126.91)"/><path class="i" d="M922.316,234.281c.164.07.013.138,0,0Z" transform="translate(-884.907 -96.322)"/><g transform="translate(34.431 121.771)"><path class="s" d="M950.848,228.156a29.18,29.18,0,0,1-.7,3.79,27.982,27.982,0,0,1-2.96.194,7.42,7.42,0,0,1-2.169-.289c-4.619,1.987-7.912-.313-12.247,3.727-.873.818-1.728,2.551-3.118,2.551a1.127,1.127,0,0,1-.986-.433,1.033,1.033,0,0,1-.177-.414,3.248,3.248,0,0,1,.377-.716c-.427.276-.855.553-1.269.792l-.007.006a5.681,5.681,0,0,1-2.155.956,1.065,1.065,0,0,1-1.031-.893l-.019-.094a5.986,5.986,0,0,1-2.269.591,1.842,1.842,0,0,1-1.149-.352,1.1,1.1,0,0,1-.484-.849c0-.829,2.206-2.25,5.1-4.009l-.276.094h-.007a20.81,20.81,0,0,1-3.393.911h-.063c-.685,0-1.628-.541-1.628-1.2a.775.775,0,0,1,.013-.175c.144-1.433,2.356-.617,13.026-6.059a13.517,13.517,0,0,0,3.149.352,12.622,12.622,0,0,0,8.188-2.545c1.011-.3,2.237-.7,3.613-1.175C949.458,223.939,951.1,225.781,950.848,228.156Z" transform="translate(-920.225 -222.915)"/><path class="i" d="M932.139,226.847c-.785,1.112-2.413,1.533-3.525,2.23s-2.193,1.389-3.3,2.061h-.007a20.807,20.807,0,0,1-3.393.912h-.063c-.685,0-1.628-.541-1.628-1.2a.775.775,0,0,1,.013-.175h.006c.2.81.943,1.055,1.709,1.055C923.448,231.729,932.076,226.9,932.139,226.847Z" transform="translate(-920.225 -221.247)"/><path class="i" d="M933,228.06a78.632,78.632,0,0,0-8.818,7.182l-.018-.094a5.987,5.987,0,0,1-2.269.591,1.842,1.842,0,0,1-1.149-.352.519.519,0,0,0,.094.006C921.844,235.393,932.293,228.531,933,228.06Z" transform="translate(-920.002 -220.732)"/><path class="i" d="M933.179,228.893c-1.357,2.69-5.569,3.462-6.705,6.291a1.033,1.033,0,0,1-.177-.414,3.256,3.256,0,0,1,.377-.716c-.427.276-.855.553-1.269.792,2.022-1.779,5.033-4.757,7.729-6.009C933.147,228.856,933.166,228.874,933.179,228.893Z" transform="translate(-918.027 -220.403)"/></g><g transform="translate(0 96.603)"><path class="s" d="M919.339,210.944c-1.182.729-2.357,1.451-3.538,2.168v.289a9.823,9.823,0,0,1-.61,3.771l-.007.011c-1.105,2.69-3.355,2.5-3.355,5.059,0,.792.339,1.4.339,2.2a2.865,2.865,0,0,1-.056.54,1.308,1.308,0,0,1-.528.114c-1.1,0-2.519-1.477-2.519-3.6a4.66,4.66,0,0,1,.144-1.131c.3-1.2.943-2.136.943-3.236a2.357,2.357,0,0,0-.081-.6,5.95,5.95,0,0,0-1.144-.823c-3.149.076-5.807,2.784-8.044,4.348-.276.2-.54.372-.8.523-.05.1-.1.214-.144.326a1.859,1.859,0,0,0-.083.2c-.6,1.451-1.186,3.425-3.066,3.425-.389,0-.685-.245-.735-.937v-.088c0-.05,1.779-6.711,4.5-10.218,1.138-.766,3.425-2.256,7.963-5.109.936-.591,1.658-1.471,2.608-2.068l.018.02c.289-.289.578-.578.86-.874,2.269.289,4.871,1.081,6.309,3.086A5.775,5.775,0,0,1,919.339,210.944Z" transform="translate(-896.05 -205.244)"/><path class="i" d="M913.637,210.024c-1.182.729-2.357,1.451-3.538,2.168v.289a9.823,9.823,0,0,1-.61,3.771,14.357,14.357,0,0,0,.188-2.639c0-.622-.013-1.252-.013-1.867a18.036,18.036,0,0,1,.1-2.118,9.641,9.641,0,0,0,2.84-2.218A5.775,5.775,0,0,1,913.637,210.024Z" transform="translate(-890.348 -204.325)"/><path class="i" d="M907.769,217.722c.3-1.2.943-2.136.943-3.236a2.354,2.354,0,0,0-.081-.6,5.949,5.949,0,0,0-1.143-.823c-3.149.076-5.807,2.784-8.044,4.348,1.709-1.973,8.088-5.938,9.212-5.938.849,0,1.088.93,1.088,1.779C909.743,214.448,909.027,215.888,907.769,217.722Z" transform="translate(-894.61 -202.603)"/><path class="i" d="M899.646,211.377c-.033.051-.057.094-.088.145v-.007C899.589,211.465,899.621,211.421,899.646,211.377Z" transform="translate(-894.562 -202.642)"/><path class="i" d="M898.381,219.2a2.136,2.136,0,0,0,1.214-.49,1.832,1.832,0,0,0-.083.2,2.526,2.526,0,0,1-.558.4,2.4,2.4,0,0,1-1,.258,1.076,1.076,0,0,1-1.105-1.226c0-1.376,1.451-1.394,1.954-4.135a8.005,8.005,0,0,0,1.9-2.256,6.514,6.514,0,0,1-1.319,2.47,10.3,10.3,0,0,0,3.739-4.009c-.716,2.954-5.995,7.127-5.995,7.781A1.157,1.157,0,0,0,898.381,219.2Z" transform="translate(-895.711 -203.056)"/></g></g></g><path class="u" d="M1024.418,261.352v7.892c-8.3,4.793-84.628,48.857-88.828,51.283v-7.887Z" transform="translate(-723.768 -71.452)"/><path class="e" d="M990.4,272.43V375l-6.833,3.946V276.377Z" transform="translate(-703.415 -66.752)"/><path class="v" d="M985.6,275.2v102.57l-6.832-3.946V279.147Z" transform="translate(-705.45 -65.576)"/><path class="w" d="M986.551,263.654,944.726,287.8l-30.645-17.695c9.981-5.762,36.11-20.845,41.826-24.147C960.487,248.605,968.589,253.287,986.551,263.654Z" transform="translate(-732.893 -77.982)"/><path class="x" d="M966.895,256.372l-1.984,1.978-10.81-6.237Z" transform="translate(-715.915 -75.371)"/><path class="y" d="M961.691,257.081l1.984-1.978v.637l-1.582,1.576Z" transform="translate(-712.695 -74.103)"/><path class="x" d="M957.525,266.49l-13.357,13.357-6.206-2.062Z" transform="translate(-722.763 -69.272)"/><path class="y" d="M942.319,280.1l13.357-13.357,1.5-.866-14.855,14.86Z" transform="translate(-720.914 -69.53)"/><path class="y" d="M944.374,276.482v.637l-6.9-2.3.694-.4Z" transform="translate(-722.969 -65.907)"/><path class="x" d="M945.764,248.156,928.4,258.177l11.854-11.859Z" transform="translate(-726.817 -77.829)"/><path class="e" d="M942.423,300.129V402.7l-6.833,3.946V304.075Z" transform="translate(-723.768 -55.001)"/><path class="a" d="M935.6,282.53l41.824-24.147v.637L935.6,283.166Z" transform="translate(-723.765 -72.711)"/><path class="v" d="M937.626,304.075v102.57l-6.833-3.946V300.129Z" transform="translate(-725.803 -55.001)"/><path class="v" d="M998.685,341.678c-21.7-12.532-180.272-104.074-211.822-122.3v-7.887l211.822,122.3Z" transform="translate(-786.864 -92.603)"/><path class="z" d="M945.956,234.906v3.247l-43.115,24.891V259.8Z" transform="translate(-737.662 -82.671)"/><path class="x" d="M931.37,272.929l-15.408-5.136,2.38-2.38Z" transform="translate(-732.096 -69.729)"/><path class="aa" d="M920.826,242.372l-2.941,1.7a.417.417,0,0,1-.416,0l-4.764-2.752a.416.416,0,0,1,0-.721l2.943-1.7a.417.417,0,0,1,.416,0l4.764,2.756A.416.416,0,0,1,920.826,242.372Z" transform="translate(-733.565 -81.002)"/><path class="y" d="M915.961,267.083l15.408,5.136,2.594,1.5-18-6Z" transform="translate(-732.096 -69.02)"/><path class="aa" d="M917.57,244.25l-2.947,1.7a.417.417,0,0,1-.416,0l-4.764-2.752a.416.416,0,0,1,0-.721l2.943-1.7a.417.417,0,0,1,.416,0l4.768,2.75A.416.416,0,0,1,917.57,244.25Z" transform="translate(-734.949 -80.203)"/><path class="aa" d="M916.357,239.786l-2.943,1.7a.419.419,0,0,1-.417,0l-4.763-2.752a.416.416,0,0,1,0-.721l2.941-1.7a.42.42,0,0,1,.417,0l4.763,2.75A.416.416,0,0,1,916.357,239.786Z" transform="translate(-735.462 -82.097)"/><path class="a" d="M914.081,262.913l30.645,17.695v.637L914.081,263.55Z" transform="translate(-732.893 -70.789)"/><path class="aa" d="M914.307,246.135l-2.941,1.7a.417.417,0,0,1-.416,0l-4.768-2.752a.417.417,0,0,1,0-.721l2.941-1.7a.417.417,0,0,1,.416,0l4.768,2.752A.416.416,0,0,1,914.307,246.135Z" transform="translate(-736.333 -79.404)"/><path class="aa" d="M913.1,241.671l-2.945,1.7a.417.417,0,0,1-.416,0l-4.763-2.75a.416.416,0,0,1,0-.721l2.941-1.7a.41.41,0,0,1,.416,0l4.767,2.75A.416.416,0,0,1,913.1,241.671Z" transform="translate(-736.846 -81.298)"/><path class="aa" d="M911.884,237.206l-2.941,1.7a.417.417,0,0,1-.416,0l-4.764-2.75a.416.416,0,0,1,0-.721l2.943-1.7a.417.417,0,0,1,.416,0l4.763,2.75A.416.416,0,0,1,911.884,237.206Z" transform="translate(-737.359 -83.191)"/><path class="aa" d="M911.045,248.019l-2.943,1.7a.417.417,0,0,1-.416,0l-4.763-2.75a.416.416,0,0,1,0-.721l2.943-1.7a.413.413,0,0,1,.417,0l4.763,2.754A.416.416,0,0,1,911.045,248.019Z" transform="translate(-737.715 -78.606)"/><path class="aa" d="M909.836,243.555l-2.941,1.7a.417.417,0,0,1-.416,0l-4.768-2.752a.416.416,0,0,1,0-.721l2.941-1.7a.417.417,0,0,1,.416,0l4.768,2.754A.416.416,0,0,1,909.836,243.555Z" transform="translate(-738.23 -80.5)"/><path class="aa" d="M908.537,239.086l-2.947,1.7a.417.417,0,0,1-.416,0l-4.542-2.626-.125-.9,2.846-1.644a.417.417,0,0,1,.416,0l4.768,2.75A.416.416,0,0,1,908.537,239.086Z" transform="translate(-738.652 -82.394)"/><path class="u" d="M905.808,219.8,920.8,228.45l-.23.13-14.938-8.628Z" transform="translate(-736.479 -89.081)"/><path class="aa" d="M906.77,249.19a.416.416,0,0,1,0,.721l-3.149,1.82-1.118-.647-.662-4.74Z" transform="translate(-738.086 -77.819)"/><path class="d" d="M905,219.732l1.07-.621v.976l-.177.157Z" transform="translate(-736.745 -89.372)"/><path class="aa" d="M907.08,234.622l-2.941,1.7a.42.42,0,0,1-.417,0l-3.452-2a.416.416,0,0,1-.2-.3l-.194-1.4a.413.413,0,0,1,.2-.417l1.824-1.055a.42.42,0,0,1,.417,0l4.763,2.752A.415.415,0,0,1,907.08,234.622Z" transform="translate(-738.923 -84.287)"/><path class="aa" d="M905.289,244.568a.416.416,0,0,1,0,.721l-3.15,1.822-.208-.121-.658-4.738Z" transform="translate(-738.327 -79.555)"/><path class="aa" d="M903.807,240.668l-2.549,1.471-.553-3.982,3.1,1.79A.416.416,0,0,1,903.807,240.668Z" transform="translate(-738.568 -81.292)"/><path class="z" d="M902.915,252.426v1.623l-.245-1.764Z" transform="translate(-737.735 -75.298)"/><path class="z" d="M903.207,253.524v1.623l-1.227-.7Z" transform="translate(-738.027 -74.773)"/><path class="aa" d="M902.947,235.688l-2.4,1.383-.417-3.012Z" transform="translate(-738.811 -83.03)"/><path class="z" d="M905.56,267.1c-1.544,1.156-.914.685-2.787,2.082l-6.341-45.577,2.787-2.088C900.606,231.5,904.087,256.508,905.56,267.1Z" transform="translate(-740.381 -88.35)"/><path class="aa" d="M901.465,231.067l-1.618.934-.282-2.036Z" transform="translate(-739.052 -84.767)"/><path class="m" d="M914.926,233.664l6.341,45.577L859.18,243.393c-6.8-48.931.209,1.511-6.342-45.579Z" transform="translate(-758.875 -98.407)"/><path class="ab" d="M898.2,222.3l5.209-3.006,20.92,12.078-12.078,6.973-12.584-7.26-1.2-8.628Z" transform="translate(-739.63 -89.293)"/><path class="ac" d="M917.714,232.2l-2.787,2.088-62.088-35.85,2.783-2.088C857.448,197.4,917.125,231.851,917.714,232.2Z" transform="translate(-758.875 -99.029)"/><path class="ad" d="M919.181,165.013a12.569,12.569,0,0,1-.752,4.959c-2.011,4.972-6.873,5.317-11.545,2.636L882.6,158.582c-6.425-3.707-12.3-12.857-12.3-21.8,0-7.93,5.619-10.961,12.3-7.1l24.288,14.019C913.549,147.559,919.181,157.027,919.181,165.013Z" transform="translate(-751.47 -128.017)"/><path class="ae" d="M877.941,155.6a3,3,0,0,1,1.252-2.767l.01,0c2.719-1.562,7.276,3.387,7.276,7.7a3.044,3.044,0,0,1-1.2,2.736C882.762,164.938,877.941,160.115,877.941,155.6Z" transform="translate(-748.226 -117.619)"/><path class="af" d="M870.074,147.565c2.7-1.567,7.292,3.348,7.292,7.694a3.053,3.053,0,0,1-1.253,2.767c-2.707,1.574-7.286-3.36-7.286-7.694A3.016,3.016,0,0,1,870.074,147.565Z" transform="translate(-752.092 -119.851)"/><path class="ae" d="M860.961,142.3c2.726-1.585,7.291,3.39,7.291,7.694a3.041,3.041,0,0,1-1.185,2.725c-2.326,1.745-7.359-2.994-7.359-7.652A3.006,3.006,0,0,1,860.961,142.3Z" transform="translate(-755.961 -122.085)"/><g class="ag" transform="translate(96.553 9.71)"><path class="ah" d="M901.543,195.72l-10.119-15.346c-.778-.45-22.878-13.2-23.979-13.841-7.051-4.07-12.788-14.007-12.788-22.151,0-8.453,6.1-11.985,13.428-7.756L892,150.436c7.051,4.068,12.788,14.006,12.788,22.153,0,3.649-1.149,6.523-3.246,8.138Zm-45.608-51.338c0,7.738,5.451,17.179,12.15,21.046,1.377.8,23.929,13.809,24.241,13.993l7.94,12.042v-11.4l.275-.191c1.917-1.325,2.973-3.914,2.973-7.288,0-7.739-5.452-17.181-12.152-21.046l-23.916-13.811C861,134.012,855.935,136.88,855.935,144.382Z" transform="translate(-854.657 -134.835)"/></g><path class="ai" d="M861.917,220.512l.251,1.806c-.12,0,.977-.269-20.126,5.506v-1.873C863.179,220.165,861.795,220.512,861.917,220.512Z" transform="translate(-763.455 -88.779)"/><path class="aj" d="M862.313,213.661l1.268,9.135-19.307,5.287-6.362-7.751C862.89,213.5,862.2,213.661,862.313,213.661Z" transform="translate(-765.207 -91.684)"/><path class="e" d="M856.065,256.984v15.784l-6.833,3.946V253.044Z" transform="translate(-760.405 -74.976)"/><path class="v" d="M844.435,250.273l6.832,3.946V277.89l-6.832-3.946Z" transform="translate(-762.44 -76.152)"/><path class="ak" d="M844.672,228.268l19.307-5.287.088.621c-.118,0,1.061-.292-19.875,5.439l-7.219-8.8,25.649-7.02.09.621c-.12,0,.6-.165-24.4,6.671Z" transform="translate(-765.606 -91.869)"/><path class="al" d="M836.973,218.154l7.219,8.8v1.874l-7.219-8.795Z" transform="translate(-765.606 -89.778)"/><path class="am" d="M830.337,175.506c1.733,8.45,1.363,15.341,0,20.419-6.593,24.611-2.376,8.873-5.835,21.791l-3.461-1.994-.735-3.59,3.444-10.33a24.612,24.612,0,0,0,0-14.97l-3.136-10.381,5.3-22.57Z" transform="translate(-772.677 -117.046)"/><path class="an" d="M831.576,201.31c-2.4,3.42-10.971,4.691-15.862,1.42-2.985-1.994-3.091-4.981-.1-7.053l1.748,5.784,3.461.537,2.407-7.218.735,3.59,3.461,1.994,1.451-5.418C831.718,196.3,833.391,198.727,831.576,201.31Z" transform="translate(-775.597 -99.694)"/><path class="ao" d="M826.516,181.386a24.612,24.612,0,0,1,0,14.97L820.666,213.9l-3.461-.537c-2.658-8.795-1.953-6.466-2.255-7.459a24.808,24.808,0,0,1-.235-14.24c1.91-6.46,3.739-12.663,7.37-24.954C823.719,172.13,822.717,168.807,826.516,181.386Z" transform="translate(-775.443 -111.6)"/><path class="ap" d="M820.158,176.676l-4.8,16.265c-.949-6.272-2.222-13.717-.615-21.385l2.85-13.582Z" transform="translate(-775.363 -115.309)"/><path class="s" d="M819.141,205.434c-7.49-1.793-9.3-7.462-3.393-10.669h.006l.36,1.195c-2.987,2.072-2.881,5.059.1,7.053,4.906,3.283,13.47,1.985,15.862-1.42,1.8-2.562.155-5-2.7-6.363l.3-1.117c5.875,2.277,6.584,7.077,1.659,9.923C827.979,205.971,823.109,206.384,819.141,205.434Z" transform="translate(-776.101 -99.977)"/><path class="aq" d="M813.092,200.3c3.123,4.358,12.755,5.267,18.247,2.1a6.1,6.1,0,0,0,3.173-3.706c.711,3.109-2.41,5.435-5.412,6.435-5.382,1.775-11.29.692-14.312-1.466a6.852,6.852,0,0,1-1.879-1.9l-.016-.027c-.815-1.33-.658-2.239-.658-3.747A4.273,4.273,0,0,0,813.092,200.3Z" transform="translate(-776.106 -98.335)"/><path class="ar" d="M813.568,198.093c0,1.612-.138,2.447.658,3.747a5.637,5.637,0,0,0,.684.877,8.48,8.48,0,0,0,2.207,1.659,15.41,15.41,0,0,0,5.653,1.639,17.042,17.042,0,0,0,9.9-1.785c2.066-1.209,3.71-3.079,3.173-5.433a3.558,3.558,0,0,0,.09-1.075h0c7.587,7.773,5,18.948-3.506,25.863-3.534,3.012-11.555,3.178-15.346,0-9.463-7.923-10.408-18.78-3.512-25.858A2.626,2.626,0,0,0,813.568,198.093Z" transform="translate(-777.439 -98.446)"/><path class="e" d="M808.088,229.286v94.684l-6.832,3.946V225.345Z" transform="translate(-780.758 -86.727)"/><path class="v" d="M796.459,222.574l6.832,3.946V329.091l-6.832-3.946Z" transform="translate(-782.794 -87.903)"/><g class="as" transform="translate(13.666 70.113)"><path class="i" d="M849.232,253.044v23.671l39.351-.956-12.251-7.352-20.267.115V256.984Z" transform="translate(-774.07 -145.09)"/><path class="i" d="M810.123,230.461c-7.277-4.187-8.748-5.094-13.664-7.887v11.284c3.048,1.812.584.648,6.832,4.36V329.09l6.848-4.129C810.023,299.131,810.206,260.7,810.123,230.461Zm177.66,114.408v53.59C987.851,384.909,987.783,344.869,987.783,344.869Zm95.661-59.174c.016-.313.255-7.892,0-7.892-.11,0-74.1,42.79-88.828,51.287-.026,1.1.027,6.8,0,7.887-.417-.157-2.938-1.561-6.832-3.774v11.666l6.832,3.461v91.218l7.125-3.67c-.45-3.847-.229,9.678-.413-102.742l27.633-15.988c0-.313,26.693-15.622,27.153-15.674.2,0,0,7.6,0,94.73l6.832,3.982,6.644-3.925c.251-67.248.214-43.948.188-102.681C1071.161,292.783,1082.1,286.467,1083.443,285.695Z" transform="translate(-796.459 -158.016)"/><path class="i" d="M899.21,221.579s-2.471,1.81-2.787,2.088c5.593,39.893,6.342,45.579,6.342,45.579s27.741,4.271,28.963,4.429c.43-.2,2.289-.97,2.289-1.327,0-.4-15.828-9.285-15.828-9.777,0-.43,24.447-14.446,32.148-18.885-.315-.212-1.672-.877-1.672-.877v-2.161s-16.011,9.353-32.75,19.031c-5.159-2.96-8.127-4.448-12.362-6.878C903.425,251.857,899.21,221.579,899.21,221.579Z" transform="translate(-754.05 -158.438)"/><path class="at" d="M841.967,225.95v1.874l3.01.391,17.33-4.365-.464-3.339Z" transform="translate(-777.153 -158.891)"/><path class="au" d="M831.772,177.246c-.209,4.4-.617,12.968-.743,15.635l-.521-.174c-.286-.1-.761-1.309-1.054-2.7s-1.278-.689-1.278-.689c-3.472,11.411-2.8,8.9-6.539,20.115,0,0,6.658.074,12.3.164v.432c0,.543-3.995,2.387-4.933,2.846l-6.238.582c0,.4-.4,1.018,0,1.188,4.032,1.7,11.934.212,12.341.621a1.542,1.542,0,0,1,.014,1.252,15.339,15.339,0,0,1-2.781,3.41,32.21,32.21,0,0,1-5.013,3.991,36.119,36.119,0,0,1-5.291,2.507,27.742,27.742,0,0,1-6.158,1.221,40.146,40.146,0,0,1-4.381-.295,43.149,43.149,0,0,0,4.568,4.919c3.263,1.911,3.637,3.19,9.728,5.334,1.471.08,8.037.443,9.374.517,6.962-1.2,9.116-1.639,14.621-5.838l7.661.6c1.206-.37,4.68-1.437,5.6-1.718.5.061,11.131,1.186,11.131,1.186l-.436-3.434s-1.49-.068-2.793-.155c-.641-.043-1.164-.286-1.164-.543s.419-.466.93-.466.932-.158.932-.352c0-.464-14.952-3-15.6-3.118l-8.379.138c-1.679-.829-5.154-2.641-6.97-2.981l-1.512-.285c.036-.523.392-5.69.427-6.205q-.513-1.357-1.024-2.715a16.763,16.763,0,0,0-2.374-4.251,5.386,5.386,0,0,1-1.349-2.326,4.741,4.741,0,0,0-1.409-2.2q-.7-.7-1.409-1.409c-.4.1-2.3.637-2.3.349s3.245-12.153,3.364-12.59c-.51-7.077-.551-8.386-1.339-12.57Z" transform="translate(-790.08 -177.246)"/><path class="at" d="M950.742,311.819c-16.829-9.578-58.721-34.011-67.255-39Z" transform="translate(-759.538 -136.698)"/><path class="at" d="M984,376.809c.36.2.731.417,1.122.641Z" transform="translate(-716.895 -92.583)"/><path class="at" d="M984.791,377.259c.521.3,1.075.617,1.671.961Z" transform="translate(-716.561 -92.392)"/><path class="at" d="M988.888,379.609c.736.417,1.52.872,2.37,1.356Z" transform="translate(-714.823 -91.396)"/></g></g><path class="a" d="M1113.15,253.353c6.855,3.958,6.855,10.374,0,14.331s-17.967,3.958-24.821,0-6.854-10.373,0-14.331S1106.3,249.4,1113.15,253.353Z" transform="translate(148.426 113.431)"/><path class="a" d="M855.1,365.375c4.847,2.8,4.847,7.335,0,10.133s-12.7,2.8-17.551,0-4.845-7.335,0-10.133S850.255,362.578,855.1,365.375Z" transform="translate(42.675 161.324)"/><g transform="translate(1012.312 368.754)"><path class="av" d="M938.422,262.615a1.233,1.233,0,0,0,1.141,0l6.889-3.955c.323-.187.323-.473,0-.659a1.235,1.235,0,0,0-1.142,0l-6.316,3.626-5.644-3.259a1.231,1.231,0,0,0-1.142,0c-.323.187-.323.471,0,.658Zm-6.11,6.143a6.3,6.3,0,0,0,5.708,0c1.58-.911,1.58-2.384,0-3.3a6.291,6.291,0,0,0-5.708,0c-1.58.912-1.58,2.384,0,3.3Zm1.142-.659a1.041,1.041,0,0,1,0-1.977,3.763,3.763,0,0,1,3.425,0,1.041,1.041,0,0,1,0,1.977,3.763,3.763,0,0,1-3.425,0Zm10.375-.162a1.233,1.233,0,0,0,1.141,0c.323-.187.323-.471,0-.659L930.98,259.2a.232.232,0,0,1,0-.44.842.842,0,0,1,.761,0l1.142.659a1.232,1.232,0,0,0,1.141,0c.323-.187.323-.473,0-.659l-1.141-.659a3.382,3.382,0,0,0-3.045,0,.93.93,0,0,0,0,1.759Zm2.24-7.144a1.227,1.227,0,0,0,1.142,0l7.935-4.58a1.231,1.231,0,0,1,1.142,0c.323.187.323.471,0,.659l-6.813,3.955c-.323.187-.323.471,0,.658a1.266,1.266,0,0,0,1.142,0l6.812-3.932a1.042,1.042,0,0,0,0-1.978,3.514,3.514,0,0,0-1.579-.406,1.271,1.271,0,0,0-.7-.912,3.757,3.757,0,0,0-3.387,0l-7.821,4.515c-.325.188-.323.473,0,.659a1.227,1.227,0,0,0,1.142,0l7.819-4.515a1.225,1.225,0,0,1,1.1,0,.337.337,0,0,1,0,.638l-7.936,4.582c-.323.187-.323.471,0,.658Zm1.655,9.394a3.382,3.382,0,0,0,3.045,0,.93.93,0,0,0,0-1.759l-6.09-3.515,7.058-4.075c.323-.187.323-.473,0-.659a1.233,1.233,0,0,0-1.141,0l-7.63,4.405c-.323.187-.323.471,0,.658l6.66,3.845a.233.233,0,0,1,0,.44.842.842,0,0,1-.76,0l-7.6-4.389a1.233,1.233,0,0,0-1.141,0c-.323.187-.323.473,0,.659Z" transform="translate(-929.21 -253.852)"/></g><g transform="translate(1034.779 278.242)"><path class="v" d="M957.011,204.633l-10.005-5.777a4.193,4.193,0,0,1-2.021-3.189v-4.2c0-1.117.9-1.5,2.021-.855l10.005,5.777a4.2,4.2,0,0,1,2.021,3.189v4.2C959.032,204.9,958.126,205.277,957.011,204.633Z" transform="translate(-944.985 -190.301)"/><path class="aw" d="M956.651,199.517l-9.926-5.73a2.041,2.041,0,0,1-.984-1.552h0c0-.543.44-.729.984-.416l9.926,5.731a2.044,2.044,0,0,1,.984,1.552h0C957.635,199.645,957.193,199.832,956.651,199.517Z" transform="translate(-944.664 -189.722)"/></g><path class="i" d="M948.876,180.412a95.856,95.856,0,0,0-3.853,13.281c-.984,5.56-.34,19.529-.34,19.529l1.041,18.367-1.248-.768s-1.253-21.186-1.233-26.377.7-12.693,1.78-15.926A60.725,60.725,0,0,1,948.876,180.412Z" transform="translate(89.055 83.745)"/><g transform="translate(1140.22 152.306)"><path class="ax" d="M1088.883,178.665q-6.909,3.98-13.824,7.977c2.324-1.443,3.753-4.411,3.753-8.582V154.769c0-8.561-6.011-18.968-13.421-23.245q-17.08-9.87-34.169-19.731c-3.633-2.094-6.923-2.333-9.339-1.017q6.92-4.014,13.855-8.007c2.43-1.4,5.787-1.2,9.488.941q17.08,9.87,34.168,19.731c7.41,4.277,13.422,14.684,13.422,23.245v23.291C1092.817,174.254,1091.313,177.259,1088.883,178.665Z" transform="translate(-1017.802 -101.878)"/><path class="av" d="M1080.028,152.361v23.291c0,4.172-1.428,7.14-3.753,8.582-.06.037-.12.067-.179.105-2.431,1.406-5.78,1.2-9.488-.943q-17.08-9.857-34.169-19.723l-13.421,3.827V117.138c0-4.277,1.5-7.282,3.932-8.688a1.557,1.557,0,0,1,.15-.083c2.416-1.316,5.706-1.077,9.339,1.017q17.08,9.87,34.169,19.731C1074.017,133.393,1080.028,143.8,1080.028,152.361Z" transform="translate(-1019.018 -99.47)"/><g transform="translate(16.699 35.924)"><path class="ay" d="M1037.364,132.836c0,1.829-1.483,2.455-3.311,1.4a6.867,6.867,0,0,1-3.31-5.223c0-1.829,1.481-2.455,3.31-1.4A6.867,6.867,0,0,1,1037.364,132.836Z" transform="translate(-1030.743 -127.101)"/><path class="ay" d="M1044.733,137.092c0,1.827-1.483,2.454-3.311,1.4a6.864,6.864,0,0,1-3.31-5.223c0-1.829,1.481-2.455,3.31-1.4A6.871,6.871,0,0,1,1044.733,137.092Z" transform="translate(-1027.617 -125.296)"/><path class="ay" d="M1052.1,141.345c0,1.829-1.482,2.455-3.311,1.4a6.867,6.867,0,0,1-3.31-5.223c0-1.829,1.481-2.455,3.31-1.4A6.866,6.866,0,0,1,1052.1,141.345Z" transform="translate(-1024.491 -123.491)"/></g></g><g transform="translate(1012.057 -3.599)"><path class="av" d="M941.848,6.681l-8.467-1.3c.822-7.127,2.824-12.619,4.206-12.963l.194.014q4.982.767,9.972,1.54v.007c-.477,0-1.05.635-1.665,1.968-1.629,3.508-2.955,10.525-2.955,15.664,0-3.2-.511-4.918-1.285-4.918Z" transform="translate(-927.185 7.587)"/><path class="ax" d="M941.985,11.141c0-5.139,1.326-12.156,2.955-15.664.615-1.333,1.188-1.968,1.665-1.968.773,0,1.285,1.719,1.285,4.918,0,4.378-.491,6.228-5.9,38.848a55.212,55.212,0,0,0-5.146-8.847c-.47-.635-.753-2.189-.753-4.572,0-5.139,1.32-12.154,2.95-15.664.615-1.333,1.188-1.968,1.665-1.968C941.474,6.223,941.985,7.944,941.985,11.141Z" transform="translate(-926.038 8.052)"/><path class="av" d="M933.727,1.352c.5.075,1,.152,1.5.235l8.467,1.3V2.9c-.477,0-1.05.635-1.665,1.968-1.629,3.509-2.95,10.525-2.95,15.664,0,2.383.283,3.937.753,4.572a55.217,55.217,0,0,1,5.146,8.847L934.936,32.4a55.219,55.219,0,0,0-5.153-8.847c-.461-.635-.752-2.189-.752-4.572,0-5.139,1.326-12.154,2.95-15.664C932.636,1.912,933.237,1.276,933.727,1.352Z" transform="translate(-929.031 11.377)"/></g><g transform="translate(1162.709 110.539)"><path class="x" d="M1056.29,73.016l6.339,3.66v.006c-1.256-.738-2.994-.631-4.917.476a15.377,15.377,0,0,0-6.944,12.033c0-2.219-.781-3.779-2.041-4.492l.006-.007q-1.929-1.115-3.863-2.225a15.51,15.51,0,0,1,6.5-8.963C1053.3,72.391,1055.029,72.29,1056.29,73.016Z" transform="translate(-1030.539 -72.552)"/><path class="az" d="M1067.038,80.08a14.791,14.791,0,0,1-1.773,6.368q-6.052,12.085-12.116,24.174a101.406,101.406,0,0,0-12.116-10.183,5.053,5.053,0,0,1-1.775-4.314,15.343,15.343,0,0,1,6.946-12.033c1.916-1.107,3.648-1.208,4.9-.481s2.041,2.273,2.041,4.492a15.377,15.377,0,0,1,6.945-12.033c1.923-1.107,3.66-1.213,4.916-.476C1066.264,76.313,1067.038,77.865,1067.038,80.08Z" transform="translate(-1032.92 -71.463)"/><path class="x" d="M1041.146,94.824a5.053,5.053,0,0,0,1.775,4.314,101.427,101.427,0,0,1,12.116,10.183l-6.338-3.66a102.131,102.131,0,0,0-12.117-10.183,5.05,5.05,0,0,1-1.773-4.314,15.351,15.351,0,0,1,6.946-12.033c1.916-1.107,3.653-1.208,4.909-.481.828.476,1.648.951,2.475,1.429q1.929,1.107,3.863,2.225l-.006.007c-1.256-.726-2.988-.625-4.9.481A15.343,15.343,0,0,0,1041.146,94.824Z" transform="translate(-1034.808 -70.163)"/></g><g transform="translate(814.424 117.472)"><path class="ax" d="M856.549,94.088V123.2c0,10.193-7.154,22.59-15.983,27.686-1.246.721-2.487,1.434-3.733,2.153L827.962,174.4l-8.87-11.108c-1.246.712-2.494,1.433-3.733,2.153-.36.208-.721.4-1.074.574-3.988,2-7.576,2.078-10.235.541l-.208-.125c-2.77-1.718-4.474-5.248-4.474-10.222V127.106c0-10.2,7.161-22.6,15.99-27.693l25.208-14.55c4.328-2.5,8.255-2.784,11.129-1.219.054.028.117.063.172.1C854.763,85.41,856.549,88.991,856.549,94.088Z" transform="translate(-786.406 -75.19)"/><path class="av" d="M794.948,161.3c-2.9-1.668-4.681-5.255-4.681-10.346V121.843c0-10.193,7.154-22.59,15.983-27.686q12.6-7.272,25.208-14.557c4.418-2.548,8.413-2.784,11.3-1.115q6.409,3.687,12.8,7.389c-2.874-1.565-6.8-1.28-11.129,1.219l-25.208,14.55c-8.829,5.1-15.99,17.493-15.99,27.693v29.106c0,4.973,1.7,8.5,4.474,10.222Q801.327,164.987,794.948,161.3Z" transform="translate(-790.267 -77.42)"/><path class="av" d="M814.649,139.278l8.87,11.108-12.97-7.486-.707-.894c.353-.172.714-.366,1.074-.574Q812.775,140.35,814.649,139.278Z" transform="translate(-781.963 -51.178)"/><path class="ba" d="M829.184,98.487a3.035,3.035,0,0,0-1,.991l-20.253,31.947c-.548.864-.548,1.775,0,2l10.9,4.607c.545.234,1.456-.292,2-1.156l20.253-31.947c.548-.863.548-1.773,0-2l-10.9-4.607a1.163,1.163,0,0,0-1,.164Zm0,1.416,10.9,4.6v0l-20.253,31.947-10.9-4.606Zm-1.134,4.9a4.584,4.584,0,0,0-1.594,1.6,3.541,3.541,0,0,0-.531,1.75,1.215,1.215,0,0,0,.531,1.138,1.7,1.7,0,0,0,1.594-.239,4.612,4.612,0,0,0,1.594-1.6,3.557,3.557,0,0,0,.53-1.75,1.217,1.217,0,0,0-.53-1.138,1.7,1.7,0,0,0-1.594.239Zm0,1.417c.3-.171.426-.161.531-.1a.438.438,0,0,1,.177.4,1.258,1.258,0,0,1-.177.605,1.311,1.311,0,0,1-.531.511c-.3.171-.427.161-.531.1a.436.436,0,0,1-.178-.4,1.246,1.246,0,0,1,.178-.605,1.3,1.3,0,0,1,.531-.511Zm4.943-2.155a1.522,1.522,0,0,0-.487.5l-17,26.81a1.02,1.02,0,0,0-.194.8.358.358,0,0,0,.506.214,1.367,1.367,0,0,0,.689-.592l17-26.81a.92.92,0,0,0,.158-.873c-.114-.207-.379-.225-.672-.047Zm-9.193,7.44a4.609,4.609,0,0,0-1.594,1.6,3.561,3.561,0,0,0-.531,1.75A1.218,1.218,0,0,0,822.2,116a1.7,1.7,0,0,0,1.594-.239,4.6,4.6,0,0,0,1.594-1.6,3.546,3.546,0,0,0,.531-1.75,1.215,1.215,0,0,0-.531-1.138,1.7,1.7,0,0,0-1.594.239Zm0,1.417c.3-.171.427-.161.531-.1a.435.435,0,0,1,.177.4,1.244,1.244,0,0,1-.177.605,1.3,1.3,0,0,1-.531.511c-.3.171-.426.161-.531.1a.438.438,0,0,1-.177-.4,1.26,1.26,0,0,1,.177-.605,1.312,1.312,0,0,1,.531-.511Zm9.916-5.725a4.609,4.609,0,0,0-1.594,1.6,3.545,3.545,0,0,0-.531,1.75,1.215,1.215,0,0,0,.531,1.138,1.7,1.7,0,0,0,1.594-.239,4.609,4.609,0,0,0,1.594-1.6,3.557,3.557,0,0,0,.531-1.75,1.22,1.22,0,0,0-.531-1.138,1.7,1.7,0,0,0-1.594.239Zm0,1.417c.3-.171.426-.161.531-.1a.438.438,0,0,1,.177.4,1.258,1.258,0,0,1-.177.605,1.312,1.312,0,0,1-.531.511c-.3.171-.427.161-.531.1a.436.436,0,0,1-.178-.4,1.25,1.25,0,0,1,.178-.605,1.3,1.3,0,0,1,.531-.511Zm-14.164,9.594a4.586,4.586,0,0,0-1.594,1.6,3.545,3.545,0,0,0-.531,1.75,1.215,1.215,0,0,0,.531,1.138,1.7,1.7,0,0,0,1.594-.239,4.6,4.6,0,0,0,1.592-1.6,3.541,3.541,0,0,0,.531-1.75,1.215,1.215,0,0,0-.531-1.138,1.7,1.7,0,0,0-1.592.239Zm0,1.417c.295-.171.426-.161.531-.1a.438.438,0,0,1,.177.4,1.26,1.26,0,0,1-.177.605,1.322,1.322,0,0,1-.531.511c-.3.171-.427.161-.531.1a.436.436,0,0,1-.178-.4,1.246,1.246,0,0,1,.178-.605,1.3,1.3,0,0,1,.531-.511Zm9.914-5.724a4.6,4.6,0,0,0-1.594,1.6,3.561,3.561,0,0,0-.531,1.752,1.217,1.217,0,0,0,.531,1.137,1.7,1.7,0,0,0,1.594-.239,4.585,4.585,0,0,0,1.594-1.6,3.538,3.538,0,0,0,.531-1.75,1.218,1.218,0,0,0-.531-1.138,1.7,1.7,0,0,0-1.594.241Zm0,1.416c.3-.171.427-.161.531-.1a.435.435,0,0,1,.177.4,1.254,1.254,0,0,1-.177.607,1.3,1.3,0,0,1-.531.511c-.3.171-.426.16-.531.1a.438.438,0,0,1-.177-.4,1.264,1.264,0,0,1,.177-.605,1.312,1.312,0,0,1,.531-.511ZM815.3,124.911a4.621,4.621,0,0,0-1.594,1.6,3.561,3.561,0,0,0-.531,1.75,1.218,1.218,0,0,0,.531,1.138,1.7,1.7,0,0,0,1.594-.239,4.6,4.6,0,0,0,1.594-1.6,3.555,3.555,0,0,0,.531-1.75,1.219,1.219,0,0,0-.531-1.138,1.7,1.7,0,0,0-1.594.239Zm0,1.417c.3-.171.426-.161.531-.1a.435.435,0,0,1,.177.4,1.244,1.244,0,0,1-.177.605,1.312,1.312,0,0,1-.531.511c-.3.171-.426.161-.531.1a.438.438,0,0,1-.176-.4,1.265,1.265,0,0,1,.176-.605,1.314,1.314,0,0,1,.531-.511Zm9.916-5.724a4.58,4.58,0,0,0-1.594,1.6,3.546,3.546,0,0,0-.531,1.752,1.214,1.214,0,0,0,.531,1.137,1.7,1.7,0,0,0,1.594-.239,4.6,4.6,0,0,0,1.594-1.6,3.548,3.548,0,0,0,.53-1.75,1.216,1.216,0,0,0-.53-1.137,1.7,1.7,0,0,0-1.594.239Zm0,1.416c.3-.171.426-.16.531-.1a.435.435,0,0,1,.177.4,1.268,1.268,0,0,1-.177.607,1.312,1.312,0,0,1-.531.511c-.3.171-.427.16-.531.1a.435.435,0,0,1-.178-.4,1.251,1.251,0,0,1,.178-.607,1.3,1.3,0,0,1,.531-.511Zm-4.25,5.287a4.6,4.6,0,0,0-1.594,1.6,3.552,3.552,0,0,0-.531,1.75,1.217,1.217,0,0,0,.531,1.137,1.7,1.7,0,0,0,1.594-.239,4.586,4.586,0,0,0,1.594-1.6,3.537,3.537,0,0,0,.531-1.75,1.214,1.214,0,0,0-.531-1.137,1.7,1.7,0,0,0-1.594.239Zm0,1.416c.3-.171.426-.16.531-.1a.434.434,0,0,1,.177.4,1.249,1.249,0,0,1-.177.607,1.312,1.312,0,0,1-.531.511c-.3.171-.426.16-.531.1a.437.437,0,0,1-.177-.4,1.264,1.264,0,0,1,.177-.607,1.312,1.312,0,0,1,.531-.511Z" transform="translate(-782.949 -68.576)"/></g><g transform="translate(920.245 38.311)"><path class="y" d="M948.3,42.893V79.668c0,12.877-9.037,28.536-20.19,34.974-1.574.91-3.14,1.812-4.714,2.72L912.185,144.34l-11.206-14.03q-2.363,1.35-4.716,2.72c-.454.262-.91.507-1.356.726-5.039,2.528-9.569,2.623-12.929.682l-.262-.158c-3.5-2.169-5.651-6.631-5.651-12.912V84.6c0-12.885,9.045-28.543,20.2-34.982q15.916-9.184,31.842-18.378c5.468-3.159,10.428-3.518,14.059-1.54a2.383,2.383,0,0,1,.218.122C946.039,31.932,948.3,36.454,948.3,42.893Z" transform="translate(-859.689 -19.022)"/><path class="x" d="M870.48,127.8c-3.656-2.108-5.913-6.64-5.913-13.069V77.954c0-12.878,9.037-28.536,20.19-34.974q15.916-9.186,31.842-18.388c5.582-3.219,10.629-3.516,14.277-1.409q8.1,4.657,16.166,9.334c-3.63-1.978-8.591-1.619-14.059,1.54q-15.916,9.184-31.842,18.378c-11.153,6.439-20.2,22.1-20.2,34.982v36.767c0,6.281,2.152,10.743,5.651,12.912Q878.538,132.453,870.48,127.8Z" transform="translate(-864.567 -21.839)"/><path class="x" d="M895.367,99.977l11.206,14.03-16.385-9.456-.893-1.128c.446-.219.9-.464,1.356-.726Q893,101.332,895.367,99.977Z" transform="translate(-854.076 11.311)"/><g transform="translate(38.299 47.625)"><path class="bb" d="M902.823,83.831a.9.9,0,0,1-.628-.256,75.922,75.922,0,0,0-9.026-7.584,4.694,4.694,0,0,1-1.712-3.982,12.392,12.392,0,0,1,5.684-9.847,4.512,4.512,0,0,1,4.592-.363,3.435,3.435,0,0,1,.849.679,12.374,12.374,0,0,1,5.026-6.362,4.069,4.069,0,0,1,6.581,3.8,11.806,11.806,0,0,1-1.433,5.2q-4.561,9.109-9.132,18.22a.9.9,0,0,1-.654.483A.865.865,0,0,1,902.823,83.831Zm-2.91-20.71a3.867,3.867,0,0,0-1.876.594,10.754,10.754,0,0,0-4.785,8.293,2.99,2.99,0,0,0,.96,2.521,77.437,77.437,0,0,1,8.357,6.912q4.294-8.565,8.584-17.128a10.219,10.219,0,0,0,1.242-4.4,2.328,2.328,0,0,0-3.89-2.246,10.776,10.776,0,0,0-4.785,8.292.9.9,0,1,1-1.793,0,2.861,2.861,0,0,0-1.084-2.6A1.831,1.831,0,0,0,899.914,63.121Z" transform="translate(-891.458 -55.278)"/></g><g transform="translate(21.739 48.666)"><path class="bb" d="M915.288,82.4l-.043.024a.484.484,0,0,1-.567,0l-10.626-10.36-8.024,18.424a1.636,1.636,0,0,1-.561.681.6.6,0,0,1-.617.105L890.3,88.6l-9.423,10.171c-.356.386-.793.493-.973.239s-.036-.775.323-1.161l9.928-10.717c.3-.32.658-.456.876-.329l4.251,2.5,8.107-18.613a1.6,1.6,0,0,1,.611-.714.5.5,0,0,1,.625-.028l10.732,10.461,6.607-11.8a1.591,1.591,0,0,1,.558-.585l20.62-11.9c.4-.232.725-.094.725.306a1.5,1.5,0,0,1-.725,1.144L922.869,69.28l-7.021,12.536A1.575,1.575,0,0,1,915.288,82.4Z" transform="translate(-879.83 -56.009)"/></g></g><g transform="translate(1045.081 -16.988)"><path class="ax" d="M1024.086-1.515V22.112c0,8.685-6.1,19.243-13.616,23.583q-17.326,10.011-34.663,20.016L962.193,85.318V34.225c0-8.685,6.1-19.243,13.614-23.588q17.328-10,34.663-20.009c3.687-2.125,7.024-2.367,9.474-1.04C1022.5-9.023,1024.086-5.944,1024.086-1.515Z" transform="translate(-947.986 19.431)"/><path class="av" d="M1010.289-15.987q6.952,4,13.888,8.017c-2.45-1.327-5.787-1.085-9.474,1.04Q997.376,3.081,980.039,13.079c-7.516,4.345-13.614,14.9-13.614,23.588V87.761l-14.207-8.2v-51.1c0-8.678,6.1-19.236,13.614-23.581q17.341-10,34.665-20.009c3.761-2.171,7.167-2.374,9.625-.956A1.7,1.7,0,0,1,1010.289-15.987Z" transform="translate(-952.218 16.988)"/><g transform="translate(27.33 22.58)"><path class="ba" d="M999.895-.909A3.161,3.161,0,0,0,998.576.736c-.216.665-.088,1.2.329,1.369l.712.3-2.554,4.028,4.273,1.806,2.554-4.028.712.3a1.4,1.4,0,0,0,1.386-.412A3.085,3.085,0,0,0,1007,2.5c.134-.574-.016-1.021-.389-1.162l-5.7-2.407a1.147,1.147,0,0,0-1.024.162ZM991.366,8.3a3.065,3.065,0,0,0-1.007,1c-.557.879-.557,1.779,0,2.014l.417.177L975.945,34.882a9.768,9.768,0,0,0-1.669,4.992v4.763l-2.431,3.835a2.06,2.06,0,0,0-.389,1.609c.127.427.517.592,1.017.43a2.743,2.743,0,0,0,1.386-1.189l2.431-3.834,4.763-2.75a12.219,12.219,0,0,0,4.028-3.995l14.832-23.395.417.177a1.167,1.167,0,0,0,1.007-.165,3.013,3.013,0,0,0,1.007-1c.557-.877.557-1.777,0-2.014l-9.97-4.213a1.168,1.168,0,0,0-1.007.164Zm1.424,4.041L997,14.123c.511.211.511,1.034,0,1.836s-1.329,1.279-1.842,1.062l-1.436-.607c-.511-.216-1.346.266-1.857,1.072l-3.049,4.81.712.3c.557.236.557,1.137,0,2.014s-1.457,1.4-2.014,1.164l-.712-.3-2.259,3.563.712.3c.557.236.557,1.137,0,2.014s-1.457,1.4-2.014,1.164l-.712-.3-3.2,5.045c-.6.94-1.579,1.4-2.025.947-.328-.322-.251-1.04.178-1.722Z" transform="translate(-971.407 1.134)"/></g></g><g transform="translate(1044.528 91.371)"><path class="y" d="M1034.8,150.277q-8.2,4.728-16.417,9.473c2.762-1.713,4.458-5.238,4.458-10.192V121.9c0-10.166-7.138-22.524-15.937-27.6q-20.282-11.72-40.575-23.43c-4.315-2.487-8.221-2.77-11.089-1.208q8.216-4.768,16.451-9.508c2.886-1.661,6.872-1.421,11.267,1.118q20.283,11.72,40.575,23.43c8.8,5.079,15.937,17.438,15.937,27.6V139.96C1039.465,145.038,1037.68,148.608,1034.8,150.277Z" transform="translate(-950.386 -59.094)"/><path class="x" d="M1024.28,119.041V146.7c0,4.953-1.7,8.478-4.458,10.192-.071.044-.141.08-.212.124-2.885,1.669-6.863,1.43-11.267-1.118l-40.575-23.422-15.937,4.546V77.214c0-5.077,1.785-8.647,4.67-10.316a1.838,1.838,0,0,1,.178-.1c2.868-1.562,6.774-1.279,11.089,1.208q20.283,11.72,40.575,23.43C1017.141,96.517,1024.28,108.875,1024.28,119.041Z" transform="translate(-951.83 -56.234)"/><g transform="translate(22.277 35.888)"><path class="ay" d="M969.617,84.624c-1.186-.684-2.146-.278-2.146.907v19.313a4.448,4.448,0,0,0,2.146,3.385l23.6,13.629c1.186.684,2.146.278,2.146-.907V103.783a4.446,4.446,0,0,0-2.146-3.384l-15.88-9.169-.662-1.488a4.718,4.718,0,0,0-1.84-2.1Zm11.8,13.253c3.553,2.051,6.438,6.6,6.438,10.153s-2.884,4.773-6.437,2.722-6.439-6.6-6.439-10.155,2.884-4.773,6.439-2.72Zm0,2.145c-.593-.34-1.074-.137-1.074.454v2.145l-2.145-1.238c-.592-.342-1.074-.138-1.074.453a2.226,2.226,0,0,0,1.074,1.692l2.145,1.239v2.146a2.228,2.228,0,0,0,1.074,1.692c.591.342,1.073.138,1.073-.453v-2.146l2.146,1.239c.591.342,1.073.138,1.073-.453a2.23,2.23,0,0,0-1.073-1.693l-2.146-1.239v-2.145a2.233,2.233,0,0,0-1.073-1.693Z" transform="translate(-967.471 -84.292)"/></g></g><g transform="translate(864.249 62.915)"><path class="x" d="M858.51,95.359l-24.335-14.05a17.844,17.844,0,0,1-8.924-15.456V44.04a4.919,4.919,0,0,1,7.378-4.26l24.335,14.049a17.848,17.848,0,0,1,8.924,15.457V91.1A4.918,4.918,0,0,1,858.51,95.359Z" transform="translate(-825.251 -39.114)"/><g transform="translate(10.854 13.127)"><path class="w" d="M834.746,48.476c-.433-.249-.806-.172-.909.187a35.506,35.506,0,0,0-.966,9.041,1.717,1.717,0,0,0,.392.987,4.812,4.812,0,0,0-.392,1.785V62.2a5.836,5.836,0,0,0,1.068,3.146,3.644,3.644,0,0,0,.7.786,15.841,15.841,0,0,0,6.569,8.56c.033.023.065.041.1.063s.074.041.11.058c4.669,2.631,6.319-.484,6.557-.98a1.119,1.119,0,0,0,.7.019c.543-.158,1.07-.726,1.07-1.911V70.216a6.363,6.363,0,0,0-.53-2.232c.32.027.53-.181.53-.54a52.953,52.953,0,0,0-.966-10.158,2.039,2.039,0,0,0-.909-1.235Zm.779,2.324,11.562,6.675a50.507,50.507,0,0,1,.718,7.913l-12.993-7.5a34.992,34.992,0,0,1,.714-7.087Zm5.767,4.251c-.516-.286-.93-.1-.923.42v.937l-.937-.541c-.336-.2-.651-.2-.823-.01a.922.922,0,0,0,0,.944,2.076,2.076,0,0,0,.823.94l.937.541v.937a1.78,1.78,0,0,0,.466,1.092,1.388,1.388,0,0,0,.944.545c.292,0,.469-.216.464-.555v-.937l.937.541c.338.2.652.2.825.011a.932.932,0,0,0,0-.946,2.078,2.078,0,0,0-.825-.94l-.937-.541v-.937a1.6,1.6,0,0,0-.273-.836,2.029,2.029,0,0,0-.678-.667ZM838.164,61.7l6.892,3.978c.937.541,2.811,2.857,2.811,4.437v.751c0,.688-.224.812-.429.876a.662.662,0,0,1-.363.006l-.5-.162-.161.395s-1.238,3.145-5.112.909a12.381,12.381,0,0,1-5.11-6.811l-.161-.58-.5-.412a2.176,2.176,0,0,1-.359-.423,2.2,2.2,0,0,1-.432-1.374V62.136c0-1.329,2.285,1.372,3.418-.439Z" transform="translate(-832.872 -48.331)"/></g></g><g transform="translate(1154.891 333.721)"><path class="y" d="M1103.526,246.873v-.923c0-.369.007-.823.007-1.151v11.109c0,3.694-1.861,6.962-4.509,9.564a30.522,30.522,0,0,1-11.266,6.583,53.01,53.01,0,0,1-20.381,2.616h0a39.411,39.411,0,0,0,3.541-3.317,34.822,34.822,0,0,0,5.708-8.021h0c7.831-.813,16.825-3.539,22.395-9.007a.379.379,0,0,1,.289-.141h0c.12.018.2.165.2.424v.922A13.44,13.44,0,0,0,1103.526,246.873Z" transform="translate(-1013.174 -222.661)"/><path class="y" d="M1074.64,243.373l-.866-1.646,27.043,4.184c0,.053,0,.114,0,.179v.011c0,.328-.007.782-.007,1.151v.923l-25.766-3.986c-.13-.273-.265-.547-.407-.815Z" transform="translate(-1010.46 -223.964)"/><path class="x" d="M1074.667,243.456l25.766,3.986a13.44,13.44,0,0,1-4.019,8.658v-.921c0-.259-.076-.406-.2-.424h0l-19.677-3.044A20.153,20.153,0,0,0,1074.667,243.456Z" transform="translate(-1010.081 -223.23)"/><path class="x" d="M1076.878,249.252l19.677,3.044a.378.378,0,0,0-.289.141c-5.57,5.468-14.564,8.194-22.395,9.007h0a26.945,26.945,0,0,0,2.9-9.6A22.491,22.491,0,0,0,1076.878,249.252Z" transform="translate(-1010.419 -220.772)"/><path class="ax" d="M1038.855,275.793c5.592,3.159,12.351,3.965,18.746,3.122,13.178-1.739,25.286-10.314,30.519-21.221,2.834-5.909,3.707-12.632,1.272-18.742a1.568,1.568,0,0,1-.118-.342.862.862,0,0,1,.11.185c.113.215.225.427.338.641q-.261-.583-.554-1.141h0q1.284,2.446,2.571,4.889l.866,1.646h0c.142.268.278.541.407.815a20.147,20.147,0,0,1,1.873,8.255,22.463,22.463,0,0,1-.107,2.6,26.95,26.95,0,0,1-2.9,9.6,34.82,34.82,0,0,1-5.708,8.021,39.394,39.394,0,0,1-3.541,3.317c-9.73,8.065-23.275,11.652-34.479,8.315a22.922,22.922,0,0,1-10.669-6.556,19.429,19.429,0,0,1-2.712-3.9q-1.669-3.177-3.337-6.349a19.475,19.475,0,0,0,2.594,3.68,21.156,21.156,0,0,0,4.764,3.949c-.114-.214-.225-.427-.337-.639-.073-.138-.074-.218-.026-.251l.01-.006C1038.5,275.636,1038.663,275.685,1038.855,275.793Z" transform="translate(-1028.424 -225.42)"/><path class="av" d="M1036.347,275.578l50.838-37.062h0a1.567,1.567,0,0,0,.118.342c2.435,6.11,1.562,12.832-1.272,18.742-5.233,10.907-17.34,19.482-30.519,21.221-6.395.843-13.154.037-18.746-3.122C1036.576,275.59,1036.418,275.542,1036.347,275.578Z" transform="translate(-1026.338 -225.326)"/><path class="ax" d="M1038.649,278.267c.112.212.224.426.337.639a21.158,21.158,0,0,1-4.764-3.949,19.49,19.49,0,0,1-2.594-3.68l-.117-.224c-.2-.373-.382-.752-.554-1.141l50.934-37.131a20.274,20.274,0,0,1,7.474,7.853q.293.558.554,1.141c-.113-.214-.225-.426-.337-.641a.87.87,0,0,0-.11-.185h0l-50.838,37.062-.01.006C1038.575,278.049,1038.576,278.129,1038.649,278.267Z" transform="translate(-1028.624 -227.759)"/><path class="x" d="M1094.193,236.821c5.188,2.893,9.891,7.53,9.972,13.419l-27.043-4.184q-1.286-2.444-2.571-4.889h0a20.274,20.274,0,0,0-7.474-7.853q-.169-.32-.338-.642a2.818,2.818,0,0,0-.854-.87h0C1075.34,230.852,1086.094,232.306,1094.193,236.821Z" transform="translate(-1013.807 -228.292)"/><path class="ax" d="M1080.854,231.667c.037.023.077.046.118.074a2.822,2.822,0,0,1,.854.87l.337.642-50.933,37.131c-.114-.214-.225-.427-.338-.641-.165-.313-.427-.86-.575-1.236Z" transform="translate(-1028.896 -228.232)"/><path class="av" d="M1081.277,232.69l-50.536,36.841c-2.436-6.11-1.564-12.834,1.27-18.742,5.223-10.884,17.314-19.479,30.52-21.223C1068.926,228.725,1075.685,229.53,1081.277,232.69Z" transform="translate(-1029.319 -229.255)"/><g class="ag" transform="translate(1.985 4.1)"><path class="bc" d="M1033.783,272.544a27.349,27.349,0,0,0,3.334,2.925c.83.658,1.289.893,1.263.793s.08-.377,0-.585c.286.1.857.35,1.047.45a25.728,25.728,0,0,0,5.4,2.092,23.179,23.179,0,0,0,5.006.873c1.183.065,3.195.108,4.38.107a33.4,33.4,0,0,0,10.246-1.839,39.421,39.421,0,0,0,12.12-6.183,37.2,37.2,0,0,0,6.389-5.785,35.365,35.365,0,0,0,4.569-6.6,27.3,27.3,0,0,0,2.875-8.346,22.642,22.642,0,0,0,.34-4.912,21.438,21.438,0,0,0-.81-4.851c-.033-.111-.852-2.247-.823-2.387,1.38,2.626,1.911,3.683,2.35,4.471s.943,1.715,1.329,2.542c.4.855.722,1.656,1.037,2.545a23.786,23.786,0,0,1,.628,2.431c1.923,1.451,3.75,2.864,5.646,4.3.024.019.044.047.071.057,1.4.531,1.822,1.862,2.478,3,.194.339.4.669.605,1a1.776,1.776,0,0,1,.231.392,8.133,8.133,0,0,1,.414,3.417c-.041.295.034.48-.007.89a27.923,27.923,0,0,0,10.321-6.257c.624-.466.467.316.486.484s-.033.424-.006.742a6.2,6.2,0,0,0,.712-.809,13.527,13.527,0,0,0,3.029-5.775c.051-.207.178-.853.244-1.055a6.2,6.2,0,0,1,.04-1.04c0,.345,0,2.641,0,2.94-.04,2.5.013,4.587-.063,7.086a9.366,9.366,0,0,1-.729,3.1,14.941,14.941,0,0,1-2.967,4.683,26.548,26.548,0,0,1-9.05,6.221,42.3,42.3,0,0,1-10.94,3.168c-1.772.268-3.552.547-5.338.657-1.946.118-3.9.047-5.856.057a3.483,3.483,0,0,1-.365-.026,2.216,2.216,0,0,0-1.752.565,35.229,35.229,0,0,1-6.332,4.17,41.232,41.232,0,0,1-10.606,3.9,43.56,43.56,0,0,1-5.6.792,29.682,29.682,0,0,1-14.184-2.357,21.775,21.775,0,0,1-9.643-8.2c-.76-1.494-3-5.721-3.79-7.2C1031.567,269.135,1033.738,272.59,1033.783,272.544Z" transform="translate(-1030.369 -229.521)"/><path class="bc" d="M1081.674,232.134l.615,1.074q-25.448,18.55-50.861,37.079c-.441-.2-.528-.6-.715-.929C1031.2,268.827,1080.479,232.826,1081.674,232.134Z" transform="translate(-1030.713 -232.134)"/></g></g><g transform="translate(1129.991 236.73)"><path class="x" d="M1123.449,183.32a5.049,5.049,0,0,0-2.277-3.972,1.626,1.626,0,0,0-1.517-.124l-1.551.916a2.768,2.768,0,0,1,.417-1.587,1.607,1.607,0,0,1,.5-.449,1.633,1.633,0,0,1,.6-.208,3.538,3.538,0,0,1,2.609,1.209,7.6,7.6,0,0,1,1.947,3.441,3.751,3.751,0,0,1-.261,2.92,1.665,1.665,0,0,1-.481.441,1.585,1.585,0,0,1-.611.224,2.6,2.6,0,0,1-1.573-.42c.517-.3,1.031-.611,1.548-.916a1.482,1.482,0,0,0,.621-1.053A3.007,3.007,0,0,0,1123.449,183.32Z" transform="translate(-966.752 -154.059)"/><path class="y" d="M1118.747,180.2q5.661-3.341,11.324-6.687a4.337,4.337,0,0,1,5.164.558,4.579,4.579,0,0,1-.913,7.356l0,0q-5.58,3.292-11.158,6.591l-.005-.01a1.663,1.663,0,0,0,.481-.442,3.751,3.751,0,0,0,.261-2.92,7.6,7.6,0,0,0-1.947-3.441,3.538,3.538,0,0,0-2.609-1.209,1.634,1.634,0,0,0-.6.208Z" transform="translate(-966.48 -156.167)"/><path class="x" d="M1104.276,170.791a3.776,3.776,0,0,1-.261,2.921,1.711,1.711,0,0,1-.484.442,1.617,1.617,0,0,1-.609.224,2.615,2.615,0,0,1-1.574-.423l1.548-.917a1.378,1.378,0,0,0,.567-.806,4.689,4.689,0,0,0-1.608-4.209,2.611,2.611,0,0,0-1.134-.654,1.322,1.322,0,0,0-.97.1c-.517.306-1.031.611-1.548.913a2.726,2.726,0,0,1,.414-1.581,1.6,1.6,0,0,1,.5-.447,1.639,1.639,0,0,1,.594-.209,3.532,3.532,0,0,1,2.609,1.211A7.586,7.586,0,0,1,1104.276,170.791Z" transform="translate(-975.195 -159.046)"/><path class="y" d="M1110.147,161.775l.021-.013a4.327,4.327,0,0,1,5.164.56,4.58,4.58,0,0,1-.75,7.262c-.059.036-.118.068-.177.1q-5.568,3.3-11.14,6.584l-.006-.009a1.709,1.709,0,0,0,.484-.441A3.777,3.777,0,0,0,1104,172.9a7.586,7.586,0,0,0-1.951-3.44,3.533,3.533,0,0,0-2.609-1.211,1.641,1.641,0,0,0-.594.209l-.005-.009Q1104.495,165.107,1110.147,161.775Z" transform="translate(-974.923 -161.155)"/><path class="av" d="M1083.127,182.515q12.265-7.247,24.53-14.493c.517-.3,1.031-.607,1.548-.913a1.322,1.322,0,0,1,.97-.1,2.61,2.61,0,0,1,1.134.654,4.689,4.689,0,0,1,1.608,4.209,1.378,1.378,0,0,1-.567.806l-1.548.917q-12.265,7.247-24.53,14.487l-.006.006a9.528,9.528,0,0,0-3.5,3.286,3.732,3.732,0,0,0-.077,3.78,9.356,9.356,0,0,0,3.582,3.428l.006,0,1.135.671.006,0c3.094,1.863,8.333,3.244,14.175,2.814a23.006,23.006,0,0,0,9.843-2.793v0a.286.286,0,0,1,.044-.027q12.258-7.247,24.525-14.487l1.551-.916a1.626,1.626,0,0,1,1.517.124,5.049,5.049,0,0,1,2.277,3.972,3.007,3.007,0,0,1-.029.423,1.481,1.481,0,0,1-.621,1.052c-.517.3-1.031.611-1.548.916q-12.265,7.242-24.53,14.487v0c-7.88,4.74-20.832,5.119-29.567.45a14.9,14.9,0,0,0-.506-3.69,1.556,1.556,0,0,0-.99-1.168,2.058,2.058,0,0,0-1.5.239l-2.047,1.206a11.644,11.644,0,0,1-4.09-8.528c0-4.68,3.227-8.514,7.207-10.824Z" transform="translate(-984.648 -158.69)"/><path class="v" d="M1031.015,198.529a.585.585,0,0,1,.054-.034l0,0c.245-.142.487-.286.732-.432l4.445-2.625c.316-.187.629-.375.946-.56a.436.436,0,0,1,.185-.051,3.051,3.051,0,0,1,2.21,2.331,1.133,1.133,0,0,1-.393,1.045l0,.007q-1.989,1.179-3.982,2.354c-.745.439-1.493.88-2.237,1.322l-.006,0a1.992,1.992,0,0,0-.739,1.309v.692a5.821,5.821,0,0,1-2.656,4.71l-.005,0q-4.615,2.724-9.232,5.451l-.006,0c-2.29,1.33-4.674,3.606-4.674,6.339s2.357,5,4.674,6.341l.006,0c.3.181.61.359.916.541l0,0c3.573,2.149,9.639,3.636,16.238,2.85a23.788,23.788,0,0,0,9.054-2.85l0,0q27.866-16.463,55.738-32.924c.309-.184.62-.365.93-.55v0a.655.655,0,0,1,.331-.108c.923-.054,1.981,1.393,2,2.545a1.054,1.054,0,0,1-.363.916l-.063.037c-.306.184-.617.366-.924.547h0q-27.867,16.461-55.73,32.92l0,0c-7.9,4.753-21.129,4.807-29.124,0l-.006,0c-.3-.181-.605-.356-.907-.536l0,0c-4.019-2.33-7.217-6.324-6.492-11.052.561-3.653,3.318-6.559,6.445-8.382a.363.363,0,0,0,.047-.03h0q4.619-2.724,9.23-5.453l.007,0a2.005,2.005,0,0,0,.738-1.312V203.2a5.9,5.9,0,0,1,2.257-4.441C1030.781,198.677,1030.9,198.6,1031.015,198.529Z" transform="translate(-1011.836 -147.348)"/><path class="ax" d="M1084.621,191.638a14.93,14.93,0,0,1,.506,3.69l-6.681,3.945,0-.006a1,1,0,0,0,.292-.259,2.284,2.284,0,0,0,.169-1.79,4.656,4.656,0,0,0-1.195-2.114,2.154,2.154,0,0,0-1.6-.743,1.049,1.049,0,0,0-.366.127l0-.006,4.344-2.566,2.047-1.206a2.059,2.059,0,0,1,1.5-.239A1.556,1.556,0,0,1,1084.621,191.638Z" transform="translate(-984.724 -148.741)"/><path class="av" d="M1075.348,194.576a1.714,1.714,0,0,1,.253-.988,1.044,1.044,0,0,1,.677-.4,2.154,2.154,0,0,1,1.6.743,4.657,4.657,0,0,1,1.2,2.114,2.284,2.284,0,0,1-.17,1.79,1,1,0,0,1-.292.259.984.984,0,0,1-.384.14,1.624,1.624,0,0,1-.963-.269c.307-.181.618-.363.924-.547l.063-.037a1.055,1.055,0,0,0,.363-.916c-.023-1.152-1.081-2.6-2-2.545a.656.656,0,0,0-.331.108v0C1075.968,194.211,1075.657,194.392,1075.348,194.576Z" transform="translate(-984.891 -147.569)"/><path class="ax" d="M1048.091,199.941c.006,2.122-1.6,3.824-3.44,4.909-5.342,3.153-14.553,2.6-18.492-1.443v-.622a1.991,1.991,0,0,1,.739-1.309l.006,0q1.117-.662,2.238-1.322c4.653,2.135,11.308,1.906,15.51-.577,2.181-1.292,3.434-3.062,3.44-4.907Z" transform="translate(-1005.759 -146.937)"/><path class="av" d="M1045.556,193.132a5.024,5.024,0,0,1,1.646,3.552c-.006,1.844-1.259,3.615-3.44,4.906-4.2,2.482-10.857,2.712-15.51.577q1.989-1.179,3.982-2.354h0a9.609,9.609,0,0,0,7.6-.541,3.493,3.493,0,0,0,1.675-1.853,2.083,2.083,0,0,0,.138-.835v-3.293a2.806,2.806,0,0,0-1.271-2.276,6.589,6.589,0,0,0-2.316-1.1C1040.681,190.267,1043.692,191.26,1045.556,193.132Z" transform="translate(-1004.871 -148.953)"/><path class="x" d="M1037.765,190.018a6.591,6.591,0,0,1,2.316,1.1,2.805,2.805,0,0,1,1.27,2.276,3.185,3.185,0,0,1-1.813,2.534c-2.757,1.611-7.113,1.333-9.311-.366a2.884,2.884,0,0,1-1.271-2.146,3.127,3.127,0,0,1,1.817-2.666,7.366,7.366,0,0,1,1.76-.729A10.225,10.225,0,0,1,1037.765,190.018Z" transform="translate(-1004.573 -149.054)"/><path class="av" d="M1025.058,196.864a5.2,5.2,0,0,1,2.185-4.214,14.057,14.057,0,0,1,6.946-2.733,7.358,7.358,0,0,0-1.76.729,3.127,3.127,0,0,0-1.817,2.666v3.371a2.083,2.083,0,0,0,.03.356l-4.445,2.625A4.853,4.853,0,0,1,1025.058,196.864Z" transform="translate(-1006.228 -148.953)"/><path class="y" d="M1041.351,195.579a2.083,2.083,0,0,1-.138.835,3.492,3.492,0,0,1-1.675,1.853,9.609,9.609,0,0,1-7.6.541h0l0-.007a1.133,1.133,0,0,0,.393-1.045,3.051,3.051,0,0,0-2.21-2.331.436.436,0,0,0-.185.051c-.316.185-.63.373-.946.56a2.1,2.1,0,0,1-.03-.356v-3.371a2.884,2.884,0,0,0,1.27,2.146c2.2,1.7,6.554,1.977,9.312.366a3.186,3.186,0,0,0,1.813-2.534Z" transform="translate(-1004.572 -147.948)"/><path class="ax" d="M1025.463,198.027l0,0a.554.554,0,0,0-.054.034c-.118.07-.234.148-.349.232v-3.5a4.854,4.854,0,0,0,1.138,2.8C1025.95,197.74,1025.708,197.884,1025.463,198.027Z" transform="translate(-1006.226 -146.883)"/><g class="ag" transform="translate(3.536 2.947)"><path class="bc" d="M1139.768,183.858a1.6,1.6,0,0,1-2.052.806,2.3,2.3,0,0,0-2.146.379c-7.893,4.566-15.8,9.1-23.692,13.673a27.439,27.439,0,0,1-9.552,3.252,36.846,36.846,0,0,1-4.864.544c-3.31.088-10.008-.607-14.127-2.827a9.632,9.632,0,0,1,1.07.148,32.495,32.495,0,0,0,9.844,1.373,36.24,36.24,0,0,0,15.361-3.452c2.442-1.208,4.751-2.686,7.114-4.053q10.635-6.153,21.267-12.31c.188-.108.4-.178.726-.323.368.956.725,1.891,1.084,2.826Z" transform="translate(-985.039 -155.655)"/><path class="bc" d="M1103.119,194.956l.66,1.7c-.41.154-.8.457-1.078.377a2.608,2.608,0,0,0-2.141.6q-26.694,15.392-53.376,30.808a33.828,33.828,0,0,1-10.675,4.331,34.857,34.857,0,0,1-11.033.35,18.542,18.542,0,0,1-4.746-1.048c1.578.134,2.847.142,4.076.365a23.688,23.688,0,0,0,9.38-.269,37.656,37.656,0,0,0,11.17-3.932c13.911-8.157,27.914-16.154,41.881-24.214q7.392-4.262,14.779-8.531C1102.345,195.3,1102.7,195.16,1103.119,194.956Z" transform="translate(-1011.598 -149.762)"/><path class="bc" d="M1110.989,169.258c.335,1.085.614,1.991.881,2.866-.872,1.038-1.841.816-2.857.395-2.233,1.283-4.457,2.555-6.677,3.835q-8.473,4.888-16.941,9.787a17.09,17.09,0,0,0-2.41,1.578,6.635,6.635,0,0,0-2.5,3.593,5.176,5.176,0,0,1,2.1-5.545,55.593,55.593,0,0,1,5.032-3.131q11.31-6.552,22.644-13.063C1110.432,169.473,1110.628,169.412,1110.989,169.258Z" transform="translate(-986.305 -160.664)"/><path class="bc" d="M1045.55,196.129a31.46,31.46,0,0,1-.029,3.576,5.074,5.074,0,0,1-1.918,3.175,13.341,13.341,0,0,1-6.43,2.82,15.22,15.22,0,0,1-4.988.172,35.324,35.324,0,0,1-.078-5.016,21.067,21.067,0,0,0,5.97-.461,24.454,24.454,0,0,0,3.871-1.4,7.323,7.323,0,0,0,3.264-2.952Z" transform="translate(-1006.794 -149.3)"/><path class="bc" d="M1032.78,200.747a1.961,1.961,0,0,0-1.585,2.108,6.038,6.038,0,0,1-3.361,5.331c-2.588,1.48-5.151,3-7.746,4.471-2.366,1.336-4.632,2.759-5.768,5.431a5.025,5.025,0,0,1,1.708-3.8,16.876,16.876,0,0,1,3.011-2.306c2.932-1.765,5.921-3.435,8.889-5.141.191-.111.39-.208.577-.325,1.423-.886,1.49-1.159.591-2.68.509-.786,1.033-1.622,1.582-2.441a6.954,6.954,0,0,1,2.4-2.237c1.779-1,3.536-2.032,5.439-3.132l.842,1.651-4.213,2.554c.784,1.9,1.514,3.67,2.286,5.542a5.219,5.219,0,0,1-3.136-.887c-.273-.157-.4-.635-.515-.99C1033.425,202.855,1033.11,201.8,1032.78,200.747Z" transform="translate(-1014.318 -149.309)"/><path class="bc" d="M1102.481,174.642v-3c.526-.316,1.131-.691,1.745-1.048,2.48-1.44,4.951-2.893,7.446-4.3,1.293-.731,2.638-1.376,3.183-3.068a4.347,4.347,0,0,1-1.937,5.649c-1.414.857-2.863,1.656-4.3,2.48q-2.8,1.6-5.6,3.2A2.331,2.331,0,0,1,1102.481,174.642Z" transform="translate(-976.916 -163.224)"/><path class="bc" d="M1122.241,186.493c.574-.988.159-2.028.1-3.108.964-.563,1.907-1.119,2.854-1.666,2.145-1.241,4.288-2.485,6.442-3.712,1.273-.725,2.621-1.354,3.166-3a3.958,3.958,0,0,1-1.144,4.978,17.273,17.273,0,0,1-1.941,1.25c-2.614,1.528-5.23,3.052-7.863,4.549a13.128,13.128,0,0,1-1.646.671Z" transform="translate(-968.546 -158.224)"/><path class="bc" d="M1039.68,192.734a11.485,11.485,0,0,1,1.2.772,2.4,2.4,0,0,1-.06,3.962,7.843,7.843,0,0,1-3.324,1.41,9.488,9.488,0,0,1-1.81.172c-.981.027-1.964.007-3.041.007v-3.2C1035.31,195.608,1038.089,195.481,1039.68,192.734Z" transform="translate(-1006.545 -150.705)"/></g></g></g></svg>