<svg xmlns="http://www.w3.org/2000/svg" width="166.922" height="180.186" viewBox="0 0 166.922 180.186"><defs><style>.a{fill:#8bc4f0;}.b{fill:#467ca6;}.c{fill:#fff;}.d{fill:#520025;}.e{fill:#ffa080;}.f{fill:#ff3b3b;}</style></defs><g transform="translate(-0.009)"><path class="a" d="M148.383,271.673h12.781l-8.109-24.438h-2.731Z" transform="translate(-121.705 -143.881)"/><path class="b" d="M130.947,207.651h18.868L164.154,258l-1.617,34.077H152.4l-2.8-34.615-8.1-24.582-4.732,59.2H126.756l-4.219-40.869Z" transform="translate(-111.276 -127.909)"/><path class="c" d="M135.784,181.989h18.868l-2.444-34.5-8.338-3.437h-9.344Z" transform="translate(-116.114 -102.248)"/><path class="a" d="M154.328,140.288l12.2,88.233h14.088l-16.1-49.883A122.349,122.349,0,0,1,163.6,166.2l2.836,5.686a4.227,4.227,0,0,0,7.855-.754l4.168-14.978-7.978-2.894-.5,1.842-1.1-4a8.422,8.422,0,0,0-6.665-6.059l-4.381-.769,3.521-2.57Z" transform="translate(-124.103 -100.729)"/><g transform="translate(14.989 4.529)"><path class="d" d="M139.137,115.509a9.844,9.844,0,0,1-4.474-13.963l14.286-6.577a4.668,4.668,0,1,1,2.749,8.9Z" transform="translate(-130.612 -86.843)"/><path class="a" d="M4.534,0h6.613a4.535,4.535,0,0,1,4.535,4.535V8.646A1.051,1.051,0,0,1,14.631,9.7H1.052A1.052,1.052,0,0,1,0,8.646V4.534A4.534,4.534,0,0,1,4.534,0Z" transform="translate(0 6.567) rotate(-24.771)"/><path class="e" d="M153.29,108.27c1.491,7.26,1.911,12.867-4.517,14.448l-.212,7.266a2.893,2.893,0,0,1-3.261,2.785l-9.389-1.21,3.45-13.855a3.326,3.326,0,1,1,3.989-4.582,9.327,9.327,0,0,0,0-6.146,22.126,22.126,0,0,0,9.94,1.294Z" transform="translate(-131.661 -91.818)"/><path class="f" d="M141.148,116.677a2.79,2.79,0,0,1,2.9.937.283.283,0,0,1-.415.381,2,2,0,0,0-2.163-.357.511.511,0,1,1-.441-.921.538.538,0,0,1,.081-.03Z" transform="translate(-133.611 -95.692)"/><path class="f" d="M157.863,124.851a4.675,4.675,0,0,1-2.936-1.037.282.282,0,0,1,.352-.44,4.122,4.122,0,0,0,3.516.808.287.287,0,0,1,.338.212.283.283,0,0,1-.212.338A4.8,4.8,0,0,1,157.863,124.851Z" transform="translate(-139.291 -98.409)"/><path class="d" d="M154.522,135.355a5.046,5.046,0,0,1-4.15-4.34,5.758,5.758,0,0,0,4.235,1.4Z" transform="translate(-137.496 -101.517)"/><g transform="translate(13.311 17.431)"><rect class="c" width="5.786" height="4.313" rx="1.557" transform="translate(0.34) rotate(4.531)"/><path class="d" d="M158.393,114.087c-.053.672-.321,1.2-.6,1.178s-.459-.585-.406-1.258.321-1.2.6-1.178S158.446,113.414,158.393,114.087Z" transform="translate(-153.634 -111.61)"/></g><path class="e" d="M164.364,114.012c.108,1.976,2.623,1.546,2.659,3.737S164.4,118.9,164.4,118.9Z" transform="translate(-143.141 -94.656)"/><path class="f" d="M165.483,119.237a4.223,4.223,0,0,1-1.376-.266.281.281,0,0,1,.205-.524,2.48,2.48,0,0,0,1.883.05,1.027,1.027,0,0,0,.356-.932c-.016-.98-.58-1.34-1.235-1.757a2.4,2.4,0,0,1-1.424-1.97.284.284,0,0,1,.266-.3h.016a.283.283,0,0,1,.282.266c.044.812.563,1.143,1.163,1.525a2.509,2.509,0,0,1,1.5,2.224,1.56,1.56,0,0,1-.6,1.4,1.8,1.8,0,0,1-1.036.284Z" transform="translate(-142.951 -94.466)"/><path class="d" d="M157.572,111.151a5.265,5.265,0,0,0-3.39-1.336.282.282,0,0,1-.051-.56,6.172,6.172,0,0,1,4.091.934l.019.011a.583.583,0,1,1-.6,1C157.616,111.184,157.592,111.166,157.572,111.151Z" transform="translate(-138.918 -92.711)"/></g><path class="a" d="M130.337,163.049l-2.515-4.621,1.374-13.354a7.771,7.771,0,0,0-6.8-8.51l-2.554-.308,1.114,3.558-3.123-.446a7.7,7.7,0,0,0-8.561,5.774l-5.429,21.981a5.981,5.981,0,0,0,9.024,6.476l1.244-.793.916,4.2-9.919,49.883h15.669l6.374-61.942Z" transform="translate(-103.659 -99.103)"/><path class="c" d="M116.743,174.478a.282.282,0,0,1-.132-.53l14.125-7.492a.283.283,0,1,1,.264.5l-14.124,7.492a.282.282,0,0,1-.133.03Z" transform="translate(-108.825 -111.275)"/><path class="c" d="M123.07,192.311a.281.281,0,0,1-.144-.523l9.788-5.844a.282.282,0,1,1,.288.484l-9.788,5.844A.284.284,0,0,1,123.07,192.311Z" transform="translate(-111.377 -119.134)"/><path class="d" d="M125.832,166.626a.268.268,0,0,1-.064-.008.281.281,0,0,1-.209-.338l2.068-8.68a.281.281,0,1,1,.548.129l-2.067,8.68A.281.281,0,0,1,125.832,166.626Z" transform="translate(-112.492 -107.627)"/><path class="c" d="M110.549,187.162a.282.282,0,0,1-.278-.238,6.208,6.208,0,0,1,1.807-5.421.281.281,0,0,1,.391.4,5.641,5.641,0,0,0-1.642,4.929.282.282,0,0,1-.234.322.276.276,0,0,1-.044.008Z" transform="translate(-106.296 -117.327)"/><path class="d" d="M140.011,145.255a.282.282,0,0,1-.282-.276,3.214,3.214,0,0,0-4.808-2.727.285.285,0,0,1-.33-.036.282.282,0,0,1-.066-.325,2.684,2.684,0,0,0,.075-2.04,2.646,2.646,0,0,0-1.391-1.494.282.282,0,0,1,.236-.512,3.209,3.209,0,0,1,1.683,1.811,3.256,3.256,0,0,1,.124,1.83,3.777,3.777,0,0,1,5.04,3.484.282.282,0,0,1-.276.287Z" transform="translate(-115.516 -99.732)"/><path class="d" d="M169.619,171.485a.282.282,0,0,1-.282-.282v-.323a77.383,77.383,0,0,1,.879-12.444.286.286,0,0,1,.323-.233.283.283,0,0,1,.233.323,76.739,76.739,0,0,0-.872,12.354v.323A.282.282,0,0,1,169.619,171.485Z" transform="translate(-130.16 -107.957)"/><path class="d" d="M175.486,176.848a.249.249,0,0,1-.068-.009.28.28,0,0,1-.2-.341l2.48-9.864a.275.275,0,0,1,.341-.2.28.28,0,0,1,.2.341l-2.48,9.864A.28.28,0,0,1,175.486,176.848Z" transform="translate(-132.527 -111.273)"/><path class="d" d="M129.778,207.742h-2.213a.282.282,0,1,1,0-.563h2.213a.282.282,0,0,1,0,.563Z" transform="translate(-113.191 -127.719)"/><path class="a" d="M154.495,212.321H144.037a.282.282,0,0,1,0-.563h10.458a.282.282,0,0,1,0,.563Z" transform="translate(-119.837 -129.566)"/><path class="a" d="M148.194,211.166a.282.282,0,0,1-.282-.282v-1.708a.282.282,0,0,1,.563,0v1.708a.282.282,0,0,1-.281.282Z" transform="translate(-121.515 -128.411)"/><path class="a" d="M154.138,234.506h-.02a.28.28,0,0,1-.261-.3l1.126-16.1a.281.281,0,1,1,.561.039l-1.126,16.1A.28.28,0,0,1,154.138,234.506Z" transform="translate(-123.913 -132.02)"/><path class="c" d="M186.329,323.3h-.009a.281.281,0,0,1-.273-.29l.756-25.553a.281.281,0,0,1,.282-.273h.008a.281.281,0,0,1,.273.29l-.755,25.552a.282.282,0,0,1-.282.274Z" transform="translate(-136.902 -164.037)"/><path class="c" d="M142.228,305.219h-.016a.283.283,0,0,1-.266-.3l2.91-52.29a.282.282,0,1,1,.563.03l-2.91,52.29a.282.282,0,0,1-.281.27Z" transform="translate(-119.107 -145.951)"/><path class="c" d="M180.67,344.385h-3.559a.282.282,0,0,1,0-.563h3.559a.282.282,0,0,1,0,.563Z" transform="translate(-133.183 -182.853)"/><path class="c" d="M137.111,344.385h-3.559a.282.282,0,1,1,0-.563h3.559a.282.282,0,0,1,0,.563Z" transform="translate(-115.607 -182.853)"/><path class="e" d="M143.17,168.72l-1.474-2.8s2.875-1.186,3.7-2.408,1.833-1.509,4.816-1.725,2.731,1.079,2.731,1.079,1.5.368,1.258,1.555a1.186,1.186,0,0,1,.647,1.86c1.1.354,1.132,2.1-.593,1.994s-3.4-.108-4.124.7-1.482,2.075-3.207,1.914-2.153.775-2.153.775Z" transform="translate(-119.006 -109.393)"/><path class="f" d="M155.1,163.727a.282.282,0,0,1-.042-.56,10.063,10.063,0,0,1,2.671-.042.281.281,0,0,1,.248.311.29.29,0,0,1-.311.248,9.507,9.507,0,0,0-2.524.039.254.254,0,0,1-.042,0Z" transform="translate(-124.303 -109.916)"/><path class="f" d="M156.057,166.379a.281.281,0,0,1-.058-.557,9.9,9.9,0,0,1,3.278-.146.281.281,0,0,1,.245.313.27.27,0,0,1-.313.245,9.558,9.558,0,0,0-3.094.137A.257.257,0,0,1,156.057,166.379Z" transform="translate(-124.688 -110.943)"/><path class="f" d="M156.772,169.522a.281.281,0,0,1-.091-.548,6.674,6.674,0,0,1,3.58-.206.282.282,0,0,1-.121.55,6.13,6.13,0,0,0-3.277.188A.26.26,0,0,1,156.772,169.522Z" transform="translate(-124.976 -112.159)"/><path class="e" d="M151.109,161.2a6.041,6.041,0,0,0,2.025-2.475.393.393,0,0,1,.733.047,1.923,1.923,0,0,1-.837,2.428Z" transform="translate(-122.804 -108.076)"/><path class="e" d="M184.117,158.845c2.005-4.915,8.111-2.625,9.909-5.978a.393.393,0,0,1,.71.036c.782,1.908-3.1,3.643-3,4.589,0,0,2.983.585,4.465-1.383s2.264-1.537,2.264-1.537.539-.7,1.159-.378-.593,2.749-2.641,4.34-6.5,2.615-6.5,2.615Z" transform="translate(-136.123 -105.721)"/><path class="f" d="M198.8,160.475a.282.282,0,0,1-.027-.563,6.319,6.319,0,0,0,4.9-3.2.274.274,0,0,1,.382-.108.282.282,0,0,1,.108.383,6.88,6.88,0,0,1-5.339,3.486Z" transform="translate(-141.934 -107.297)"/><g transform="translate(41.116 164.168)"><path class="e" d="M201.351,365.2H172.722l-.1-12.522-.035-3.491h10.071a14.169,14.169,0,0,0,.238,3.491c.555,2.455,2.316,4.6,7.746,5.676C198.578,359.906,201.351,365.2,201.351,365.2Z" transform="translate(-172.587 -349.185)"/><path class="b" d="M197.693,363.663H172.712l-.067-8.626h10.274c.555,2.455,2.316,4.6,7.746,5.676a17.448,17.448,0,0,1,7.028,2.95Z" transform="translate(-172.61 -351.546)"/><path class="a" d="M201.419,373.394H172.79l-.033-3.9h24.981a12.9,12.9,0,0,1,3.681,3.9Z" transform="translate(-172.656 -357.381)"/><path class="c" d="M191.785,363.489h-.025a.283.283,0,0,1-.255-.306c.077-.871-2.108-1.776-4.037-2.574-2.542-1.052-5.17-2.14-5.025-3.787a.289.289,0,0,1,.3-.257.283.283,0,0,1,.257.3c-.109,1.236,2.434,2.289,4.679,3.218,2.412,1,4.5,1.862,4.383,3.145A.283.283,0,0,1,191.785,363.489Z" transform="translate(-176.562 -352.162)"/><path class="a" d="M199.706,362.707a.282.282,0,0,1-.279-.241l-.381-2.609-1.89,2.3a.293.293,0,0,1-.3.089.282.282,0,0,1-.194-.25l-.206-3.082-2.584,2.143a.288.288,0,0,1-.3.035.281.281,0,0,1-.156-.264l.152-3.379-2.465,1.757a.282.282,0,0,1-.328-.458l2.935-2.092a.282.282,0,0,1,.446.241L194,360.218l2.518-2.089a.281.281,0,0,1,.46.2l.2,2.923,1.843-2.243a.291.291,0,0,1,.293-.092.281.281,0,0,1,.2.231l.473,3.24a.281.281,0,0,1-.237.319.231.231,0,0,1-.044,0Z" transform="translate(-179.875 -352.178)"/></g><g transform="translate(9.929 164.168)"><path class="e" d="M120.467,365.2h18.266a14.309,14.309,0,0,0-1.076-5.36,25.213,25.213,0,0,1-1.77-7.162,9.132,9.132,0,0,1-.073-1.081l-.042-2.41H125.96l-.756,3.491-1.362,6.306C119.18,361.572,120.467,365.2,120.467,365.2Z" transform="translate(-120.304 -349.185)"/><path class="b" d="M120.468,367.559h18.266a14.983,14.983,0,0,0-.55-3.9c-.16-.518-.336-1.013-.526-1.464a25.212,25.212,0,0,1-1.77-7.162H125.2l-1.362,6.306a7.274,7.274,0,0,0-2.672,2.32,4.609,4.609,0,0,0-.7,3.9Z" transform="translate(-120.305 -351.546)"/><path class="a" d="M120.468,373.394h18.266a14.983,14.983,0,0,0-.55-3.9H121.17a4.609,4.609,0,0,0-.7,3.9Z" transform="translate(-120.305 -357.381)"/><path class="c" d="M143.4,363.506a.281.281,0,0,1-.263-.181,23.114,23.114,0,0,1-1.494-6.417.28.28,0,0,1,.257-.3.273.273,0,0,1,.3.257,22.578,22.578,0,0,0,1.459,6.26.281.281,0,0,1-.162.364A.27.27,0,0,1,143.4,363.506Z" transform="translate(-128.913 -352.178)"/><path class="c" d="M127.8,365.282a.281.281,0,0,1-.082-.551,12.727,12.727,0,0,1,5.451-.388.284.284,0,0,1,.241.318.277.277,0,0,1-.318.241,12.133,12.133,0,0,0-5.212.368.285.285,0,0,1-.08.012Z" transform="translate(-123.217 -355.248)"/><path class="a" d="M133.5,359.515h-3.723a.282.282,0,1,1,0-.563h2.789l-2.768-1.833a.281.281,0,0,1,.155-.516h3.113a.282.282,0,0,1,0,.563h-2.178L133.659,359a.281.281,0,0,1-.155.515Z" transform="translate(-124.014 -352.178)"/></g><path class="a" d="M242.731,106.3a.278.278,0,0,1-.142-.038l-10.53-6.145H194.6l-10.531,6.145a.286.286,0,0,1-.341-.044.282.282,0,0,1-.044-.342l7.8-13.259V79.434a5.47,5.47,0,0,1,5.463-5.463h32.185a5.47,5.47,0,0,1,5.464,5.463V91.618l8.384,14.262a.281.281,0,0,1-.243.424Zm-45.79-31.77a4.906,4.906,0,0,0-4.9,4.9V92.7a.287.287,0,0,1-.038.143l-7.289,12.4,9.667-5.64a.278.278,0,0,1,.142-.039h37.612a.278.278,0,0,1,.142.039l9.666,5.64-7.877-13.4a.281.281,0,0,1-.038-.143V79.434a4.906,4.906,0,0,0-4.9-4.9Z" transform="translate(-124.764 -73.971)"/><g transform="translate(73.981 6.235)"><g transform="translate(0 0.001)"><path class="a" d="M212.312,96.617a3.359,3.359,0,0,1-2.379-5.724l5.494-5.494a3.356,3.356,0,0,1,4.745,4.747l-5.494,5.494a3.336,3.336,0,0,1-2.366.977Zm5.472-11.628a2.761,2.761,0,0,0-1.96.808l-5.494,5.494a2.793,2.793,0,1,0,3.949,3.95l5.494-5.494a2.793,2.793,0,0,0-1.989-4.759Z" transform="translate(-208.959 -84.425)"/><path class="a" d="M212.313,99.072a3.359,3.359,0,0,1-2.381-5.724l2.755-2.755a.282.282,0,0,1,.4,0l4.349,4.349a.282.282,0,0,1,0,.4L214.68,98.1a3.335,3.335,0,0,1-2.367.975Zm.573-7.882-2.555,2.556a2.793,2.793,0,1,0,3.949,3.95l2.557-2.555Z" transform="translate(-208.959 -86.881)"/></g><g transform="translate(14.303)"><path class="a" d="M239.036,96.608h-.008a6.092,6.092,0,1,1,0-12.184h.008a6.092,6.092,0,0,1,0,12.184Zm0-11.621h-.007a5.529,5.529,0,1,0,0,11.058h.007a5.529,5.529,0,1,0,0-11.058Z" transform="translate(-232.937 -84.424)"/><path class="a" d="M239.036,97.76h-.008a6.088,6.088,0,0,1-4.3-10.4.28.28,0,0,1,.4,0l8.217,8.217a.282.282,0,0,1,0,.4A6.05,6.05,0,0,1,239.036,97.76Zm-4.1-9.8a5.53,5.53,0,0,0,4.1,9.235h.007a5.483,5.483,0,0,0,3.7-1.425Z" transform="translate(-232.937 -85.575)"/></g></g><g transform="translate(93.213 5.503)"><g transform="translate(42.776)"><path class="d" d="M318.433,106.041a6.859,6.859,0,0,1-9.362,8.733l-10.206-11.16a4.511,4.511,0,0,1-.5-8.978Z" transform="translate(-294.47 -87.813)"/><path class="e" d="M302.475,124.646l.316-2.184c-7.612.878-6.982-6.959-3.491-15.383a2.456,2.456,0,0,0,2.23-.36,3.029,3.029,0,0,0,4.482,2.41,2.891,2.891,0,0,0,3.243,3.063,2.993,2.993,0,1,1,1.238,5.382l4.73,13.716-13.333-2.568Z" transform="translate(-295.415 -92.688)"/><path class="f" d="M318.587,117.992a2.6,2.6,0,0,1,3.079-.551l.07.036a.655.655,0,1,1-.592,1.169.666.666,0,0,1-.159-.113,1.662,1.662,0,0,0-2.025-.119.284.284,0,0,1-.374-.421Z" transform="translate(-304.174 -96.902)"/><path class="c" d="M307.371,114.715a3.246,3.246,0,0,1-1.644,1.6,2.284,2.284,0,0,1-.653.248,3.467,3.467,0,0,1-2.883-.563,3.064,3.064,0,0,1,2.207-2.162,2.169,2.169,0,0,1,.518-.067,3,3,0,0,1,2.455.944Z" transform="translate(-297.585 -95.527)"/><path class="d" d="M301.756,112.452a3.646,3.646,0,0,1,3.008-.916.283.283,0,0,1-.041.562,2.81,2.81,0,0,0-2.168,1.105.552.552,0,0,1-.888-.656.6.6,0,0,1,.069-.077Z" transform="translate(-297.33 -94.614)"/><path class="c" d="M302.2,124.569a7,7,0,0,0,4.1-2.048,2.293,2.293,0,1,1-4.1,2.048Z" transform="translate(-297.588 -99.064)"/><path class="d" d="M306.306,134.4l.316-2.184a4.329,4.329,0,0,0,2.41-1.329S309.8,133.337,306.306,134.4Z" transform="translate(-299.246 -102.437)"/><path class="d" d="M305.772,115.9a1.325,1.325,0,0,1-.045.428,2.283,2.283,0,0,1-.653.248,3.467,3.467,0,0,1-2.883-.563,3.064,3.064,0,0,1,2.207-2.162,2.167,2.167,0,0,1,.518-.067A3.038,3.038,0,0,1,305.772,115.9Z" transform="translate(-297.585 -95.537)"/><path class="e" d="M298.527,114.568a4.658,4.658,0,0,1-2.661,3.151.488.488,0,0,0,.163.923,5.89,5.89,0,0,0,2.965-.409Z" transform="translate(-294.924 -95.855)"/><path class="d" d="M308.842,114.8a.283.283,0,0,1-.184-.069,2.846,2.846,0,0,0-2.465-.864.281.281,0,1,1-.158-.54,3.242,3.242,0,0,1,2.748.781l.357-.523a.286.286,0,0,1,.392-.073.283.283,0,0,1,.072.392l-.53.773a.285.285,0,0,1-.2.12Z" transform="translate(-299.056 -95.33)"/><path class="d" d="M309.126,113.781a.289.289,0,0,1-.131-.032.283.283,0,0,1-.118-.381l.425-.813a.287.287,0,0,1,.381-.119.283.283,0,0,1,.119.381l-.425.812a.282.282,0,0,1-.251.152Z" transform="translate(-300.27 -94.983)"/><path class="b" d="M300.832,90.021a5.159,5.159,0,0,1,8.877-4.858,7.83,7.83,0,0,1,12.866,7.4,4.562,4.562,0,0,1-1.671,8.859Z" transform="translate(-296.941 -83.197)"/><path class="a" d="M322.82,103.67a.289.289,0,0,1-.133-.033l-16.7-8.942a.283.283,0,1,1,.266-.5l16.7,8.942a.282.282,0,0,1-.133.53Z" transform="translate(-299.055 -87.623)"/><path class="c" d="M333.779,99.649a.282.282,0,0,1-.28-.253l-.5-4.91a.282.282,0,1,1,.56-.057l.5,4.91a.283.283,0,0,1-.252.31Z" transform="translate(-310.014 -87.627)"/><path class="c" d="M325.926,95.409a.276.276,0,0,1-.1-.017.28.28,0,0,1-.167-.361l1.868-5.091a.281.281,0,1,1,.528.193l-1.868,5.092a.281.281,0,0,1-.261.184Z" transform="translate(-307.048 -85.843)"/><path class="c" d="M314.479,90.684a.282.282,0,0,1-.137-.528l5.1-2.844a.281.281,0,0,1,.384.109.284.284,0,0,1-.109.384l-5.1,2.844a.287.287,0,0,1-.138.035Z" transform="translate(-302.43 -84.843)"/><path class="f" d="M296.559,118.772a7.319,7.319,0,0,1-.751-.041.77.77,0,0,1-.257-1.456,4.348,4.348,0,0,0,2.508-2.949.281.281,0,0,1,.554.1,4.908,4.908,0,0,1-2.814,3.355.205.205,0,0,0,.069.389,5.569,5.569,0,0,0,2.824-.386.282.282,0,0,1,.223.517,5.907,5.907,0,0,1-2.356.471Z" transform="translate(-294.733 -95.664)"/></g><g transform="translate(51.634 157.193)"><path class="e" d="M331.339,358.622l-2.6-11.9-7.583,2.644s2.314,6.6-2.962,9.037a36.8,36.8,0,0,0-6.1,3.542,29.79,29.79,0,0,0-2.782,2.262h9.32l10.6-2.311a2.743,2.743,0,0,0,2.107-3.274Z" transform="translate(-309.319 -346.717)"/><path class="d" d="M331.339,363.875l-.9-4.137c-4.763,8.392-7.385,1.864-18.336,7.456a29.786,29.786,0,0,0-2.782,2.262h9.32l10.6-2.311a2.743,2.743,0,0,0,2.1-3.27Z" transform="translate(-309.319 -351.971)"/></g><g transform="translate(30.896 159.746)"><path class="e" d="M300.138,351v12.184a2.744,2.744,0,0,1-2.748,2.748H274.554a23.671,23.671,0,0,1,6.081-3.6,36.8,36.8,0,0,1,6.711-2.162c5.676-1.261,4.82-8.2,4.82-8.2Z" transform="translate(-274.554 -350.997)"/><path class="d" d="M300.138,364.325v4.234a2.744,2.744,0,0,1-2.748,2.747H274.554a23.671,23.671,0,0,1,6.081-3.6C292.526,364.573,293.7,371.509,300.138,364.325Z" transform="translate(-274.554 -356.375)"/></g><path class="e" d="M275.95,186.5c-6.757-.9-7.835-1.617-9.847-3.091H258.16s-1.855-1.635-2.659-1.078c-1.4.97,2.875,4.529,6.4,5.427s5.1-.323,8.158,1.761,8.769,5.534,8.769,5.534Z" transform="translate(-235.86 -123.149)"/><path class="a" d="M284.115,219.7a71.339,71.339,0,0,0,2.86,36.958c8.694,24.3,7.477,36.372,7.477,36.372h9.054a91.19,91.19,0,0,0-1.148-36.372,38.9,38.9,0,0,1,2.162-24.436,20.256,20.256,0,0,0,6.689-12.522L296.266,210Z" transform="translate(-247.025 -134.361)"/><path class="b" d="M304.442,174.5a20.186,20.186,0,0,1,5.743,14.864c-.023.631-.09,1.238-.157,1.847H297.236l-2.162-8.175-2.748,8.175h-9.391a63.823,63.823,0,0,1,4.369-14.752c-.855-4.189-4.121-11.779-6.576-17.139a8.354,8.354,0,0,1,2.567-10.135l10.315-7.747a10.087,10.087,0,0,1,15.562,4.662,15.537,15.537,0,0,1-.045,10.63C307.168,162.072,304.442,170.247,304.442,174.5Z" transform="translate(-245.845 -105.88)"/><path class="d" d="M297.092,236.589a.282.282,0,0,1-.2-.085l-6.109-6.254a.281.281,0,1,1,.4-.394l6.11,6.254a.281.281,0,0,1,0,.4.278.278,0,0,1-.2.079Z" transform="translate(-250.173 -142.338)"/><path class="a" d="M297.85,202.074a.282.282,0,0,1-.083-.551l10.709-3.3a.287.287,0,0,1,.353.186.283.283,0,0,1-.186.353l-10.709,3.306A.318.318,0,0,1,297.85,202.074Z" transform="translate(-252.944 -129.603)"/><path class="a" d="M312.941,206.673a.279.279,0,0,1-.081-.012,22.473,22.473,0,0,0-11.571-.354.281.281,0,0,1-.128-.548,23.058,23.058,0,0,1,11.862.363.282.282,0,0,1-.081.551Z" transform="translate(-254.306 -132.405)"/><path class="d" d="M297.85,157.152a.281.281,0,0,1-.253-.406l3.521-7.188a.285.285,0,0,1,.378-.128.281.281,0,0,1,.128.377l-3.521,7.187a.284.284,0,0,1-.253.158Z" transform="translate(-252.944 -109.91)"/><path class="d" d="M314.479,170.7a.27.27,0,0,1-.113-.024.28.28,0,0,1-.144-.37l5.1-11.572a.281.281,0,1,1,.514.226l-5.1,11.572a.28.28,0,0,1-.257.168Z" transform="translate(-259.654 -113.605)"/><path class="a" d="M309.611,349.253h-9.272a2.48,2.48,0,1,1,0-4.96h9.272a2.48,2.48,0,1,1,0,4.96Z" transform="translate(-253.061 -188.547)"/><path class="a" d="M306.127,246.221A38.9,38.9,0,0,0,310.26,270.4a91.2,91.2,0,0,1,10.374,34.88l-8.755,2.306s-1.9-11.983-16.494-33.269a69.113,69.113,0,0,1-6.7-12.24Z" transform="translate(-249.359 -148.975)"/><path class="a" d="M335.06,345.214l-8.966,2.362a2.482,2.482,0,0,1-1.263-4.8l8.966-2.362a2.482,2.482,0,1,1,1.263,4.8Z" transform="translate(-263.199 -186.95)"/><path class="e" d="M273.528,145.568l13.42,15.556a4.919,4.919,0,1,1-8.118,5.427c-2.636-5.275-6.965-14.073-8.9-18.754,0,0-7.725-.156-11.414-7.1a.263.263,0,0,1,.424-.3c1.2,1.291,3.161,3.078,5.2,3.589a10.753,10.753,0,0,1-3.526-3.111.3.3,0,0,1,.431-.4,9.627,9.627,0,0,0,8.665,2s-1.064-.159-1.791-2.488a.606.606,0,0,1,.948-.66,14.123,14.123,0,0,0,2.927,1.7,2.569,2.569,0,0,1,1.54,2.177Z" transform="translate(-237.176 -105.795)"/><path class="e" d="M257.274,144.755a.287.287,0,0,1,.376-.429,12.508,12.508,0,0,0,5.07,2.039l2.884,2.264S260.527,148.313,257.274,144.755Z" transform="translate(-236.655 -107.841)"/><path class="d" d="M255.2,173.64H244.916L222.76,155.958h10.287Z" transform="translate(-222.76 -112.555)"/><path class="d" d="M316.5,295.985h-.032a.28.28,0,0,1-.248-.311,90.784,90.784,0,0,0-1.88-31.076,38.925,38.925,0,0,1,2.177-24.613.274.274,0,0,1,.072-.1,19.932,19.932,0,0,0,6.179-10.146.277.277,0,0,1,.341-.2.28.28,0,0,1,.2.341,20.481,20.481,0,0,1-6.3,10.39,38.368,38.368,0,0,0-2.121,24.2,91.3,91.3,0,0,1,1.891,31.27A.28.28,0,0,1,316.5,295.985Z" transform="translate(-259.28 -142.238)"/><path class="d" d="M311.753,220.814H300.561a.281.281,0,0,1-.272-.21l-1.922-7.267-2.449,7.286a.282.282,0,0,1-.267.191h-7.156a.282.282,0,1,1,0-.563h6.954l2.683-7.984a.313.313,0,0,1,.276-.191.28.28,0,0,1,.263.21l2.107,7.965h10.976a.282.282,0,1,1,0,.563Z" transform="translate(-249.169 -135.198)"/><path class="d" d="M311.345,344.385h-5.809a.282.282,0,0,1,0-.563h5.809a.282.282,0,0,1,0,.563Z" transform="translate(-256.046 -188.356)"/><path class="d" d="M327.638,342.811a.282.282,0,0,1-.072-.555L334.6,340.4a.282.282,0,1,1,.143.545L327.71,342.8a.336.336,0,0,1-.072.011Z" transform="translate(-264.963 -186.974)"/><path class="d" d="M294.351,183.649a4.014,4.014,0,0,1-.534-.036c-2.45-.338-3.8-2.842-4.042-3.34l-3.083-6.263.506-.248,3.083,6.262a5.319,5.319,0,0,0,3.613,3.03c1.5.211,3.082-.613,4.712-2.433a.286.286,0,0,1,.4-.021.282.282,0,0,1,.022.4C297.447,182.759,295.876,183.649,294.351,183.649Z" transform="translate(-248.556 -119.739)"/><path class="d" d="M290.367,196.027a.282.282,0,0,1-.27-.2c-.572-1.983-1.855-5.607-1.867-5.644a.281.281,0,1,1,.53-.189c.013.038,1.3,3.678,1.878,5.677a.281.281,0,0,1-.193.348.272.272,0,0,1-.078.008Z" transform="translate(-249.169 -126.211)"/></g><path class="a" d="M146.725,324.207H146.7a.281.281,0,0,1-.258-.3l2.194-27.449a.277.277,0,0,1,.3-.258.281.281,0,0,1,.258.3L147,323.949a.282.282,0,0,1-.275.258Z" transform="translate(-120.922 -163.636)"/><path class="a" d="M189.942,323.377h-.013a.283.283,0,0,1-.268-.295l1.019-21.454a.319.319,0,0,1,.294-.268.283.283,0,0,1,.268.3l-1.018,21.454a.282.282,0,0,1-.282.268Z" transform="translate(-138.36 -165.72)"/><path class="d" d="M129.385,246.4h-4.112a.282.282,0,0,1,0-.563h3.858l6.348-61.689a.279.279,0,0,1,.309-.252.282.282,0,0,1,.252.309l-6.374,61.942A.283.283,0,0,1,129.385,246.4Z" transform="translate(-112.267 -118.322)"/><path class="d" d="M177.534,259.323h-6.957a.282.282,0,0,1-.279-.243l-5.921-42.832a.282.282,0,0,1,.558-.077l5.887,42.589h6.711a.282.282,0,0,1,0,.563Z" transform="translate(-128.157 -131.25)"/><path class="d" d="M138.583,349.276h-6.31a.282.282,0,0,1,0-.563h6.31a.282.282,0,1,1,0,.563Z" transform="translate(-115.091 -184.826)"/><path class="d" d="M181.352,349.276h-5.184a.282.282,0,1,1,0-.563h5.184a.282.282,0,1,1,0,.563Z" transform="translate(-132.802 -184.826)"/><path class="d" d="M145.221,175.755a.28.28,0,0,1-.248-.149l-3.014-5.6a.281.281,0,0,1,.495-.267l3.014,5.6a.28.28,0,0,1-.114.381.273.273,0,0,1-.133.035Z" transform="translate(-119.099 -112.551)"/><path class="d" d="M190.08,165.353a.3.3,0,0,1-.1-.017l-4.773-1.731a.283.283,0,0,1-.169-.361.286.286,0,0,1,.361-.169l4.773,1.731a.282.282,0,0,1-.1.547Z" transform="translate(-136.49 -109.917)"/></g></svg>