<svg xmlns="http://www.w3.org/2000/svg" width="158.567" height="203.324" viewBox="0 0 158.567 203.324"><defs><style>.a{fill:#3e4870;}.b{fill:#6ca8bc;}.c{fill:#422c4f;}.d{fill:#454f6b;}.e{fill:#5195a8;}.f{fill:#f0bf9c;}.g{fill:#fdf7e7;}.h{fill:#495375;}.i{fill:#e4e4e0;}.j{fill:#d4cfbe;}.k{fill:#a59b95;}.l{fill:#fff;}.m{fill:#8c404c;}.n{fill:#5297f4;}.o{fill:#5dabff;}.p{fill:#bd6c67;}.q{fill:#eba588;}.r{fill:#e78882;}.s{fill:#f7dd8c;}.t{fill:#6bc5ff;}.u{fill:#d9d9d9;}.v{fill:#f2c9ad;}.w{fill:#eba58e;}.x{fill:#402c49;}.y{fill:#6a3649;}</style></defs><g transform="translate(-1490.945 -5620.677)"><g transform="translate(1568.794 5620.677)"><g transform="translate(0 86.637)"><path class="a" d="M440.728,512.5H405.275L392.458,617.116h15.029l15.493-88.862h2.657l-1.673,88.862h15.029L445.021,512.5Z" transform="translate(-384.226 -512.501)"/><path class="b" d="M440.728,512.5H405.275L392.458,617.116h15.029l15.493-88.862h2.657l-1.673,88.862h15.029L445.021,512.5Z" transform="translate(-384.226 -512.501)"/><g transform="translate(0 104.615)"><path class="c" d="M395.1,777.6H382.382l-.983,2.034a7.171,7.171,0,0,1-3.711,3.507,7.165,7.165,0,0,0-3.763,3.641h20.29Z" transform="translate(-373.008 -777.6)"/><path class="d" d="M372.517,800.866a7.136,7.136,0,0,0-.389,1.026l-.529,1.864H392.53l.277-2.889Z" transform="translate(-371.599 -791.685)"/></g><g transform="translate(39.294 104.615)"><path class="c" d="M491.926,782.413a9.855,9.855,0,0,1-6.152-4.672l-.081-.142H473.28l-1.172,9.181H497.9A9.853,9.853,0,0,0,491.926,782.413Z" transform="translate(-471.739 -777.6)"/><path class="d" d="M497.33,800.866H471.542l-.369,2.889h27.481l-.564-1.4a9.841,9.841,0,0,0-.76-1.489Z" transform="translate(-471.173 -791.685)"/></g><path class="e" d="M454.771,512.5H419.317l-3.663,29.9a33.287,33.287,0,0,0,17.841,6.086l3.527-20.231h2.657l-.382,20.274h3.365a34.233,34.233,0,0,0,14.509-3.2l1.891-32.829Z" transform="translate(-398.269 -512.501)"/><g transform="translate(15.401 55.658)"><g transform="translate(0 1.969)"><path class="e" d="M422.41,670.34a25.914,25.914,0,0,1-3.54-1.94,21.809,21.809,0,0,1-6.31-6.324,25.92,25.92,0,0,1-1.932-3.544A12.252,12.252,0,0,0,411.8,662.5a14.478,14.478,0,0,0,6.637,6.651,12.253,12.253,0,0,0,3.973,1.189Z" transform="translate(-410.627 -658.532)"/></g><g transform="translate(6.289 7.11)"><path class="e" d="M432.939,671.558c-.968.2-2.078.537-3.2.84s-2.242.585-3.179.906a5.94,5.94,0,0,0,6.375-1.745Z" transform="translate(-426.564 -671.558)"/></g><g transform="translate(26.156 6.621)"><path class="e" d="M489.533,680.77a26.184,26.184,0,0,1-3.63-1.588,21.841,21.841,0,0,1-6.758-5.594,26.2,26.2,0,0,1-2.239-3.269,12.17,12.17,0,0,0,1.541,3.761,14.378,14.378,0,0,0,7.1,5.879A12.177,12.177,0,0,0,489.533,680.77Z" transform="translate(-476.907 -670.319)"/></g><g transform="translate(31.856)"><path class="e" d="M491.352,664.85a14.832,14.832,0,0,0,8.726-11.308,30.069,30.069,0,0,1-8.726,11.308Z" transform="translate(-491.352 -653.542)"/></g></g></g><g transform="translate(0.569 38.257)"><g transform="translate(3.076)"><path class="b" d="M394.74,389.9h0a8.058,8.058,0,0,0-6.28,5.9l-7.624,29.618,16.249.256Z" transform="translate(-380.836 -389.903)"/><path class="e" d="M413.267,433.088l-2.029-30.949h0a75.878,75.878,0,0,0-2.55,14.882L407.566,433Z" transform="translate(-397.018 -397.31)"/></g><path class="f" d="M380.218,480.013l-1.3,5.158-3.07,29.283H382.4l4.534-28.929,1.428-5.384Z" transform="translate(-374.741 -444.454)"/><path class="g" d="M384.34,566.613a5.112,5.112,0,0,0-1.755-3.493l-1.882-1.627,1.082-3.779h-7.479l-.157,3.779-1.02,4.846A4.1,4.1,0,0,0,375.2,570.8l.775.416a4.1,4.1,0,0,1,1.9,2.174h0a1.413,1.413,0,0,0,2.719-.273l1.049-6.544.9,2.754a2.344,2.344,0,0,0,2.114,1.615Z" transform="translate(-373.04 -491.492)"/><path class="c" d="M386.7,480.013l8.148.128-.73,2.751-7.558-2.325Z" transform="translate(-381.228 -444.454)"/></g><g transform="translate(61.391 38.257)"><path class="b" d="M529.514,389.9h0a8.057,8.057,0,0,1,6.28,5.9l7.624,29.618-16.249.256Z" transform="translate(-527.168 -389.903)"/><path class="e" d="M527.168,433.088l2.029-30.949h0a75.94,75.94,0,0,1,2.55,14.882L532.869,433Z" transform="translate(-527.168 -397.31)"/><path class="f" d="M549.763,480.013l1.3,5.158,3.07,29.283h-6.554l-4.534-28.929-1.428-5.384Z" transform="translate(-535.914 -444.454)"/><path class="g" d="M547.019,566.613a5.114,5.114,0,0,1,1.755-3.493l1.883-1.627-1.082-3.779h7.478l.157,3.779,1.021,4.846a4.1,4.1,0,0,1-2.074,4.459l-.775.416a4.1,4.1,0,0,0-1.9,2.174h0a1.413,1.413,0,0,1-2.719-.273l-1.049-6.544-.9,2.754a2.343,2.343,0,0,1-2.114,1.615Z" transform="translate(-538.993 -491.492)"/><path class="c" d="M549.763,480.013l-8.148.128.73,2.751,7.558-2.325Z" transform="translate(-535.914 -444.454)"/></g><g transform="translate(14.193 33.869)"><path class="b" d="M454.764,418.948l2.346-35.778-18.61-4.053-4.479-.335-4.48.335-18.614,4.054,2.345,35.778-5.7,34.7,1.732,1.2a33.191,33.191,0,0,0,20.966,7.242h7.5a33.192,33.192,0,0,0,20.966-7.242h0Z" transform="translate(-407.566 -378.782)"/><g transform="translate(6.012 15.005)"><g transform="translate(0 41.469)"><path class="e" d="M458.773,532.548a8.556,8.556,0,0,1-4.007,1.626,22.152,22.152,0,0,1-4.818.126,35.443,35.443,0,0,1-10.151-2.31,52.673,52.673,0,0,1-9.34-4.767c-2.856-1.8-5.427-3.69-7.655-5.334a57.226,57.226,0,0,0,7.109,6.142,41.085,41.085,0,0,0,9.425,5.175,30.31,30.31,0,0,0,10.579,2.069,19.461,19.461,0,0,0,4.972-.545,8.049,8.049,0,0,0,3.886-2.182Z" transform="translate(-422.8 -521.89)"/></g><g transform="translate(16.646 42.012)"><path class="e" d="M486,523.265a34.949,34.949,0,0,1-4.4,2.977,31.425,31.425,0,0,1-11.307,3.833,35.026,35.026,0,0,1-5.306.316,22.157,22.157,0,0,0,5.365.238,24.435,24.435,0,0,0,11.538-3.912,22.145,22.145,0,0,0,4.11-3.452Z" transform="translate(-464.981 -523.265)"/></g><g transform="translate(6.38 0.56)"><path class="e" d="M438.966,432.677a33.717,33.717,0,0,0,8.581-.27,37.245,37.245,0,0,0,17.765-7.958,33.725,33.725,0,0,0,5.914-6.223,51.7,51.7,0,0,1-6.456,5.516,47.133,47.133,0,0,1-17.39,7.79A51.736,51.736,0,0,1,438.966,432.677Z" transform="translate(-438.966 -418.225)"/></g><g transform="translate(0.482)"><path class="e" d="M450.326,424.775a39.148,39.148,0,0,1-6.611-.009,35.866,35.866,0,0,1-14.19-4.3,39.158,39.158,0,0,1-5.5-3.662,25.786,25.786,0,0,0,5.152,4.26,28.5,28.5,0,0,0,14.5,4.395,25.779,25.779,0,0,0,6.649-.684Z" transform="translate(-424.021 -416.805)"/></g><g transform="translate(5.848 24.323)"><path class="e" d="M468.987,479.284a45.184,45.184,0,0,1-7.284,1.962,41.317,41.317,0,0,1-16.916-.454,45.183,45.183,0,0,1-7.168-2.35,29.62,29.62,0,0,0,6.962,3.114,32.762,32.762,0,0,0,17.285.464,29.634,29.634,0,0,0,7.121-2.736Z" transform="translate(-437.62 -478.442)"/></g></g></g><g transform="translate(28.422 33.407)"><g transform="translate(1.472)"><path class="h" d="M454.7,377.762a8.986,8.986,0,0,0-6.794,7.535l-.129.932a45.389,45.389,0,0,0-.139,11.32l.663,5.844.939-.107-.663-5.844a44.455,44.455,0,0,1,.136-11.084l.129-.932a8.046,8.046,0,0,1,6.084-6.746l.58-.142-.225-.918Z" transform="translate(-447.353 -377.616)"/><path class="h" d="M487.191,386.167l-.252-2.91A6.227,6.227,0,0,0,482,377.671l-.282-.06-.2.924.282.06a5.288,5.288,0,0,1,4.2,4.744l.251,2.9a5.347,5.347,0,0,0-4.51,5.271v1.573h.945V391.5a4.4,4.4,0,1,1,8.8,0v1.573h.944V391.5A5.346,5.346,0,0,0,487.191,386.167Z" transform="translate(-468.039 -377.611)"/></g><g transform="translate(0 24.432)"><path class="i" d="M449.826,442.625a3.1,3.1,0,1,1-3.1-3.1,3.1,3.1,0,0,1,3.1,3.1Z" transform="translate(-443.622 -439.523)"/><path class="j" d="M450.245,443.83a2.317,2.317,0,1,1-2.317-2.317,2.317,2.317,0,0,1,2.317,2.317Z" transform="translate(-444.827 -440.728)"/><path class="k" d="M450.764,445.32a1.345,1.345,0,1,1-1.345-1.345,1.345,1.345,0,0,1,1.345,1.345Z" transform="translate(-446.317 -442.218)"/></g><g transform="translate(15.37 15.467)"><path class="j" d="M484.813,427.581a2.246,2.246,0,0,1-2.243-2.243v-8.532h.472v8.532a1.773,1.773,0,0,0,1.771,1.771Z" transform="translate(-482.57 -416.805)"/><path class="k" d="M488.847,442.428l-.512.064a.091.091,0,0,0-.08.09v.525a.091.091,0,0,0,.08.09l.512.064a.419.419,0,1,0,0-.833Z" transform="translate(-486.012 -432.315)"/></g><g transform="translate(22.356 15.467)"><g transform="translate(1.063)"><path class="j" d="M502.966,427.581a2.246,2.246,0,0,0,2.243-2.243v-8.532h-.472v8.532a1.773,1.773,0,0,1-1.771,1.771Z" transform="translate(-502.966 -416.805)"/></g><path class="k" d="M500.745,442.428l.511.064a.091.091,0,0,1,.08.09v.525a.09.09,0,0,1-.08.09l-.511.064a.42.42,0,1,1,0-.833Z" transform="translate(-500.273 -432.315)"/></g></g><g transform="translate(29.072)"><g transform="translate(7.662 26.725)"><path class="f" d="M464.685,360.679v10c0,.848,1.75,1.535,3.909,1.535s3.909-.687,3.909-1.535v-10Z" transform="translate(-464.685 -360.679)"/><path class="c" d="M464.685,360.679v5.183a4.4,4.4,0,0,0,3.2,1.516H469.3a4.4,4.4,0,0,0,3.2-1.516v-5.183Z" transform="translate(-464.685 -360.679)"/></g><path class="e" d="M463.342,337.223h-13a5.069,5.069,0,0,1-5.069-5.069v3.779A5.069,5.069,0,0,0,450.337,341h13a5.069,5.069,0,0,0,5.069-5.069v-3.779A5.069,5.069,0,0,1,463.342,337.223Z" transform="translate(-445.268 -316.686)"/><path class="b" d="M456.84,292.957a11.571,11.571,0,0,0-11.572,11.573v3.9a5.069,5.069,0,0,0,5.069,5.069h13a5.069,5.069,0,0,0,5.069-5.069v-3.9a11.571,11.571,0,0,0-11.567-11.572Z" transform="translate(-445.268 -292.957)"/><path class="f" d="M460.893,340.3h0a8.929,8.929,0,0,1-8.929-8.929V325.9a5.719,5.719,0,0,1,5.719-5.719h6.42a5.719,5.719,0,0,1,5.719,5.719v5.468A8.929,8.929,0,0,1,460.893,340.3Z" transform="translate(-449.322 -309.44)"/><g transform="translate(3.601 19.247)"><path class="l" d="M470.334,345.05v-1.166c-5.031-.325-6.162-2.155-7.97-2.155s-2.94,1.83-7.97,2.155v1.166c4.873-.472,6.089-2.285,7.97-2.285S465.461,344.578,470.334,345.05Z" transform="translate(-454.394 -341.729)"/><path class="g" d="M462.364,344.354c-1.881,0-3.1,1.813-7.97,2.285v1.856a7.189,7.189,0,0,0,7.027,7.34h1.886a7.189,7.189,0,0,0,7.027-7.34v-1.856C465.461,346.167,464.245,344.354,462.364,344.354Z" transform="translate(-454.394 -343.318)"/></g><g transform="translate(4.316 13.186)"><path class="m" d="M459.055,326.381a3.728,3.728,0,0,0-2.85,1.7l5.926-.455a3.727,3.727,0,0,0-3.076-1.245Z" transform="translate(-456.205 -326.37)"/><path class="c" d="M463.3,333.421a.768.768,0,1,1-.768-.768.768.768,0,0,1,.768.768Z" transform="translate(-459.573 -330.173)"/><g transform="translate(8.585)"><path class="m" d="M481.036,326.381a3.728,3.728,0,0,1,2.85,1.7l-5.926-.455a3.727,3.727,0,0,1,3.076-1.245Z" transform="translate(-477.96 -326.37)"/></g><path class="c" d="M483.524,333.421a.767.767,0,1,0,.225-.543A.767.767,0,0,0,483.524,333.421Z" transform="translate(-472.743 -330.173)"/></g></g></g><g transform="translate(1490.945 5630.14)"><g transform="translate(0 33.949)"><path class="f" d="M183.144,465.362l-1.266-25.821,6.876-36.576a13.385,13.385,0,0,0-9.209,9.972l-4.289,19.743a40.756,40.756,0,0,0-.6,13.827l2.62,20.483v3.926a4.2,4.2,0,0,0,2.525,3.853l4.5,1.958,2.441-3.657-.9-3.069,1.67-1.311Z" transform="translate(-174.327 -402.965)"/><path class="n" d="M189.47,402.965l-.493.149a13.386,13.386,0,0,0-9.022,9.217l-4.446,15.938,9.088.614Z" transform="translate(-175.043 -402.965)"/><path class="c" d="M178.543,467.327l7.688.52-.843,4.486-7.179-3.464Z" transform="translate(-176.677 -441.928)"/></g><g transform="translate(0.081 95.017)"><g transform="translate(6.808)"><path class="o" d="M191.785,557.714l5.138,86.7H209.77l1.688-85.45Z" transform="translate(-191.785 -557.714)"/><path class="n" d="M211.458,558.959l-19.673-1.245.517,8.727c.818.221,1.646.409,2.468.579q.739.153,1.481.291a12.3,12.3,0,0,1,9.812,10.043l4.512,26.318.691-34.979h0Z" transform="translate(-191.785 -557.714)"/></g><g transform="translate(0 86.695)"><path class="f" d="M204.856,784.875h9.235l-.751-7.471h-9.27l-.317.8a7.013,7.013,0,0,1-2.355,3.046,11.52,11.52,0,0,1,1.487.835A4.29,4.29,0,0,1,204.856,784.875Z" transform="translate(-190.796 -777.404)"/><path class="n" d="M188.593,790.771a4.29,4.29,0,0,0-1.972-2.792,11.538,11.538,0,0,0-1.487-.835,7,7,0,0,1-1.3.763l-5.264,2.359a7.017,7.017,0,0,0-4.041,5.183H198.3l-.47-4.677Z" transform="translate(-174.533 -783.3)"/><path class="c" d="M207.683,777.4h9.271l.316,3.144-9.9-2.346Z" transform="translate(-194.409 -777.404)"/></g></g><g transform="translate(19.093 94.87)"><g transform="translate(3.713)"><path class="o" d="M232.119,557.341l7.463,86.842h12.846l1.688-85.45Z" transform="translate(-232.119 -557.341)"/><path class="n" d="M253.965,566.4l.152-7.668-22-1.392.953,11.089a81.892,81.892,0,0,0,20.9-2.029Z" transform="translate(-232.119 -557.341)"/><g transform="translate(16.37 6.357)"><path class="n" d="M274.047,645.125c.933-19.777,1.1-51.868.384-71.676C273.5,593.226,273.325,625.316,274.047,645.125Z" transform="translate(-273.601 -573.449)"/></g></g><g transform="translate(0 86.842)"><path class="f" d="M253.034,784.875h9.235l-.751-7.471h-9.271l-.317.8a7.011,7.011,0,0,1-2.356,3.046,11.547,11.547,0,0,1,1.487.835,4.29,4.29,0,0,1,1.973,2.79Z" transform="translate(-238.973 -777.404)"/><path class="o" d="M236.77,790.771a4.29,4.29,0,0,0-1.972-2.792,11.555,11.555,0,0,0-1.487-.835,6.992,6.992,0,0,1-1.3.763l-5.264,2.359a7.017,7.017,0,0,0-4.042,5.183H246.47l-.47-4.677Z" transform="translate(-222.71 -783.3)"/><path class="c" d="M255.861,777.4h9.271l.316,3.144-9.9-2.346Z" transform="translate(-242.587 -777.404)"/></g></g><g transform="translate(8.272)"><path class="c" d="M206.179,352.45a20.351,20.351,0,0,1-8.522-4.323,6.884,6.884,0,0,1-1.864-7.8l.162-.4a10.841,10.841,0,0,0,.425-6.6,16.516,16.516,0,0,1-.261-8.1,11.334,11.334,0,0,1,7.1-7.52,14.391,14.391,0,0,1,10.489.489c1.711-1.289,4.644-.932,6.389.31a11.052,11.052,0,0,1,3.588,5.219,26.11,26.11,0,0,1,1.676,7.771,14.511,14.511,0,0,0,2.577,7.4l.056.081a8.085,8.085,0,0,1-1.513,10.893,17.53,17.53,0,0,1-5.474,2.96C216.463,354.328,210.836,353.535,206.179,352.45Z" transform="translate(-195.289 -316.936)"/><g transform="translate(4.442 3.373)"><g transform="translate(0 2.046)"><path class="d" d="M215.882,330.668a26.742,26.742,0,0,0-9.336,4.254,12.554,12.554,0,0,0,9.336-4.254Z" transform="translate(-206.546 -330.668)"/></g><g transform="translate(1.923)"><path class="d" d="M219.2,326.222a7.6,7.6,0,0,0-7.777.751,54.126,54.126,0,0,0,7.777-.751Z" transform="translate(-211.419 -325.483)"/></g><g transform="translate(13.814 3.042)"><path class="d" d="M248.32,338.892a14.63,14.63,0,0,0-6.769-5.7,14.624,14.624,0,0,0,6.769,5.7Z" transform="translate(-241.551 -333.192)"/></g></g></g><g transform="translate(4.166 32.287)"><path class="o" d="M202.808,398.753l-7.663,1.662a8.376,8.376,0,0,0-6.582,7.619l-.079,1.167a26.363,26.363,0,0,1-2.779,10.113h0a7.619,7.619,0,0,0,1.18,8.588h0a6.908,6.908,0,0,1,1.775,5.4l-3.28,30.873h0a133.147,133.147,0,0,0,37.879,1.11l6.416-.731-2.59-12.137a109.125,109.125,0,0,1-1.963-32.577l.966-10.707a8.348,8.348,0,0,0-6.988-8.992l-8.612-1.385Z" transform="translate(-184.884 -398.753)"/><path class="n" d="M234.193,409.465a14.31,14.31,0,0,0-2.135,7.519v2.1l-22.341,4.855,4.228,36.367,19.827-2.627a16.374,16.374,0,0,1,8.506,1.142l.168.071-.327-1.533a109.135,109.135,0,0,1-1.963-32.578l.966-10.706a8.336,8.336,0,0,0-2.973-7.156l-3.956,2.55Z" transform="translate(-199.918 -403.694)"/><g transform="translate(2.514 4.215)"><g transform="translate(6.681 2.586)"><path class="n" d="M227.062,421.8c-2.779-.58-6.432-.906-9.909-1.739a27.479,27.479,0,0,1-4.957-1.676,20.68,20.68,0,0,1-4.012-2.4,11.859,11.859,0,0,0,3.531,3.29,17.4,17.4,0,0,0,5.123,2.1,30.325,30.325,0,0,0,10.224.425Z" transform="translate(-208.184 -415.987)"/></g><g transform="translate(15.76)"><path class="n" d="M244.045,409.433a26.955,26.955,0,0,1-12.854,3.9A13.654,13.654,0,0,0,244.045,409.433Z" transform="translate(-231.19 -409.433)"/></g><g transform="translate(0 56.323)"><path class="n" d="M228.259,552.158c-2.545.478-5.478.977-8.621,1.349s-6.492.625-9.848.7-6.713-.049-9.868-.3-6.106-.625-8.668-1a55.3,55.3,0,0,0,8.568,1.907,62,62,0,0,0,19.953-.4,55.293,55.293,0,0,0,8.484-2.251Z" transform="translate(-191.254 -552.158)"/></g><g transform="translate(3.343 50.069)"><path class="n" d="M221.914,540.769c-1.624.054-3.462.078-5.4-.036a41.894,41.894,0,0,1-11.794-2.37c-1.832-.644-3.518-1.376-4.995-2.053a19.957,19.957,0,0,0,4.539,3.117,23.566,23.566,0,0,0,12.259,2.463,19.963,19.963,0,0,0,5.391-1.121Z" transform="translate(-199.725 -536.31)"/></g></g></g><g transform="translate(13.966 34.543)"><rect class="p" width="23.475" height="33.785" transform="translate(0 17.985) rotate(-9.095)"/><path class="f" d="M238.233,404.471h0a8.42,8.42,0,0,0-2.366,8.836l7.33,22.679-21.673,2.194L219,436.712a2.1,2.1,0,0,0-3.035,1.107l-.346.964-2.335.619a1.457,1.457,0,0,0-1.075,1.576h0a1.458,1.458,0,0,0,1.056,1.237l.794.221a1.456,1.456,0,0,1,.787.546l2.3,3.163a3.061,3.061,0,0,0,4.288.664l3.346-2.46,22.631-1.279a6.1,6.1,0,0,0,5.507-7.817l-6.149-20.837a15.985,15.985,0,0,0-8.539-9.945Z" transform="translate(-211.221 -404.471)"/><path class="c" d="M286.307,468.473l9.684-1.386.278.943-8.869,3.826Z" transform="translate(-256.083 -442.377)"/><path class="o" d="M273.412,404.471l-.325.294a8.42,8.42,0,0,0-2.538,8.227l4.315,17.826,13.49-1.93-6.106-15.462a15.985,15.985,0,0,0-8.076-8.6Z" transform="translate(-246.4 -404.471)"/></g><g transform="translate(10.8 9.196)"><g transform="translate(0 8.268)"><path class="q" d="M207.84,364.263a3.073,3.073,0,1,1-3.073-3.073,3.073,3.073,0,0,1,3.073,3.073Z" transform="translate(-201.695 -361.19)"/><circle class="r" cx="1.742" cy="1.742" r="1.742" transform="translate(1.331 1.331)"/></g><g transform="translate(11.29 13.729)"><path class="c" d="M237.985,377.179v-2.151H230.3v8.518a7.661,7.661,0,0,0,5.431-2.444,10.174,10.174,0,0,0,2.254-3.923Z" transform="translate(-230.304 -375.028)"/><path class="f" d="M235.735,384.4a7.661,7.661,0,0,1-5.431,2.444v2h0a7.25,7.25,0,0,0,7.681,0h0v-8.367a10.174,10.174,0,0,1-2.25,3.923Z" transform="translate(-230.304 -378.328)"/></g><g transform="translate(1.59)"><path class="f" d="M205.723,345.86l2.363,8.72a7.493,7.493,0,0,0,3.624,4.607h0a8.591,8.591,0,0,0,4.756,1.04h0a8.591,8.591,0,0,0,4.96-2.036l.545-.465a7.5,7.5,0,0,0,2.573-4.782l.578-4.66h0a13.017,13.017,0,0,1-6.158-6.016l-1.006-2.03-3.982,3.049a12.273,12.273,0,0,1-6.938,2.517Z" transform="translate(-205.723 -340.238)"/><g transform="translate(7.725 4.159)"><path class="c" d="M228.3,350.785a3.655,3.655,0,0,0-3,1.258l5.816.375a3.655,3.655,0,0,0-2.816-1.633Z" transform="translate(-225.299 -350.778)"/></g><g transform="translate(0.661 4.439)"><path class="c" d="M209.512,351.512a2.644,2.644,0,0,1,2.448,1.1l-4.561.673a2.849,2.849,0,0,1,2.113-1.773Z" transform="translate(-207.399 -351.487)"/></g><path class="c" d="M231.737,359.654a.726.726,0,1,1-.717-.841A.786.786,0,0,1,231.737,359.654Z" transform="translate(-220.604 -351.483)"/><path class="c" d="M214,359.9a.726.726,0,1,1-.717-.841.786.786,0,0,1,.717.841Z" transform="translate(-209.866 -351.632)"/><g transform="translate(11.205 8.493)"><rect class="s" width="10.005" height="0.514" transform="matrix(0.932, -0.363, 0.363, 0.932, 0, 3.635)"/></g><g transform="translate(11.88 12.831)"><rect class="s" width="8.008" height="0.514" transform="translate(0 1.845) rotate(-13.318)"/></g><path class="l" d="M218.708,364.327c-2-.942-2.745-2.031-4.236-1.953s-1.711,1.032-3.391,2.355a4.337,4.337,0,0,0-1.633,3.717,5.827,5.827,0,0,0,2.043,4.08,5.318,5.318,0,0,0,7.627-.4C221.281,369.851,221.586,365.684,218.708,364.327Z" transform="translate(-207.974 -353.637)"/></g><g transform="translate(19.991 8.268)"><circle class="f" cx="3.073" cy="3.073" r="3.073" transform="translate(0 0)"/><path class="q" d="M259.209,366.3a1.742,1.742,0,1,1-1.742-1.742A1.742,1.742,0,0,1,259.209,366.3Z" transform="translate(-254.395 -363.232)"/></g></g></g><g transform="translate(1529.295 5620.677)"><g transform="translate(5.19 38.752)"><path class="a" d="M342.927,510.613H308.916L305.376,615.9H320.5l3.192-89.43h9.694l3.7,89.43h15.125l-4.044-105.282Z" transform="translate(-297.2 -463.473)"/><g transform="translate(0 152.422)"><path class="c" d="M308.3,777.4H295.511l-.989,2.048a7.217,7.217,0,0,1-3.735,3.529A7.211,7.211,0,0,0,287,786.644h22.271Z" transform="translate(-286.077 -777.404)"/><path class="c" d="M285.583,800.819a7.222,7.222,0,0,0-.392,1.032l-.532,1.876h23.477l-.282-2.908Z" transform="translate(-284.659 -791.579)"/></g><g transform="translate(40.493 152.422)"><path class="c" d="M388.952,777.4h12.794l.989,2.048a7.217,7.217,0,0,0,3.735,3.529,7.211,7.211,0,0,1,3.786,3.664H387.984Z" transform="translate(-387.703 -777.404)"/><path class="c" d="M409.824,800.819a7.168,7.168,0,0,1,.391,1.032l.533,1.876H387.271l.281-2.908Z" transform="translate(-387.271 -791.579)"/></g><path class="t" d="M353.618,443.29h-39.27l.668-33.422,2.467-18.711h32.61l2.558,18.7Z" transform="translate(-302.632 -391.158)"/><path class="u" d="M359.632,550.785h-9.694l-1.209,34.373h3.844l2.318-17.187,2.318,17.187h3.844Z" transform="translate(-323.445 -487.792)"/><g transform="translate(4.83)"><path class="l" d="M318.91,391.158,308.933,494.7H296.9l7.553-86.624,2.467-16.919Z" transform="translate(-296.9 -391.158)"/><g transform="translate(11.534)"><path class="u" d="M336.6,391.158l-7.7,6.98a3.083,3.083,0,0,0,.155,4.7L330.533,404l-3.411,3.144a3.083,3.083,0,0,0-.8,3.344l6.69,17.951Z" transform="translate(-326.128 -391.158)"/><path class="l" d="M338.724,391.158l-6.564,7.565a2.57,2.57,0,0,0,.257,3.625L334.325,404l-3.964,4.054a2.569,2.569,0,0,0-.623,2.539l5.393,17.846Z" transform="translate(-328.247 -391.158)"/></g></g><g transform="translate(35.47)"><path class="l" d="M374.543,391.158,384.524,494.7h12.033L389,408.077l-2.467-16.919Z" transform="translate(-374.543 -391.158)"/><path class="u" d="M374.543,391.158l7.7,6.98a3.083,3.083,0,0,1-.155,4.7L380.615,404l3.412,3.144a3.083,3.083,0,0,1,.8,3.344l-6.69,17.951Z" transform="translate(-374.543 -391.158)"/><path class="l" d="M374.543,391.158l6.565,7.565a2.57,2.57,0,0,1-.257,3.625L378.941,404l3.964,4.054a2.569,2.569,0,0,1,.622,2.539l-5.392,17.846Z" transform="translate(-374.543 -391.158)"/></g></g><g transform="translate(0 38.753)"><path class="l" d="M275.022,550.868l11.717-1.551-.387-7.354L274.591,543.4Z" transform="translate(-273.374 -482.451)"/><path class="l" d="M289.081,408.077l2.467-16.919a9.358,9.358,0,0,0-8.682,5.865l-9.49,23.582a25.849,25.849,0,0,0-1.826,11.138l1.174,20.36,11.762-1.433-1.1-20.917Z" transform="translate(-271.507 -391.158)"/><path class="v" d="M280.09,561.988l-1.186,7.821,6.031,2.111,1.07,2.455h2.29l.582-5.1,2.262-1.089-2.593-7.312Z" transform="translate(-275.985 -493.897)"/><path class="w" d="M302.688,573.733l-.969-5.492.413.429a4.17,4.17,0,0,1,.556,5.063Z" transform="translate(-289.796 -498.36)"/><path class="x" d="M289.777,560.869l-8.455,1.119-.383,2.526Z" transform="translate(-277.217 -493.897)"/><path class="u" d="M313.111,417.842l1.539-10.554-1.339,3.075a25.387,25.387,0,0,0-1.85,13.756h0Z" transform="translate(-295.537 -400.923)"/></g><g transform="translate(52.655 38.753)"><path class="l" d="M433.569,550.868l-11.717-1.551.387-7.354L434,543.4Z" transform="translate(-415.177 -482.451)"/><path class="l" d="M407.4,408.077l-2.467-16.919a9.358,9.358,0,0,1,8.682,5.865L423.1,420.6a25.842,25.842,0,0,1,1.826,11.138L423.76,452.1,412,450.669l1.1-20.917Z" transform="translate(-404.936 -391.158)"/><path class="v" d="M428.37,561.988l1.186,7.821-6.031,2.111-1.07,2.455h-2.29l-.582-5.1-2.262-1.089,2.593-7.312Z" transform="translate(-412.434 -493.897)"/><path class="w" d="M422.117,573.733l.97-5.492-.413.429a4.172,4.172,0,0,0-.556,5.063Z" transform="translate(-414.968 -498.36)"/><path class="x" d="M423.893,560.869l8.455,1.119.383,2.526Z" transform="translate(-416.412 -493.897)"/><path class="u" d="M408.827,417.842l-1.539-10.554,1.339,3.075a25.386,25.386,0,0,1,1.85,13.756h0Z" transform="translate(-406.36 -400.923)"/></g><g transform="translate(22.982 36.26)"><g transform="translate(2.343)"><path class="h" d="M343.032,384.992a8.987,8.987,0,0,0-6.794,7.535l-.129.932a45.394,45.394,0,0,0-.139,11.32l.663,5.844.938-.107-.663-5.844a44.45,44.45,0,0,1,.136-11.084l.129-.932a8.046,8.046,0,0,1,6.083-6.747l.58-.142-.225-.917Z" transform="translate(-335.682 -384.847)"/><path class="h" d="M375.52,393.4l-.252-2.91a6.228,6.228,0,0,0-4.938-5.586l-.282-.06-.2.924.282.06a5.289,5.289,0,0,1,4.193,4.743l.25,2.895a5.347,5.347,0,0,0-4.509,5.271v1.573h.945v-1.573a4.4,4.4,0,1,1,8.8,0v1.573h.945v-1.573a5.347,5.347,0,0,0-5.234-5.337Z" transform="translate(-356.368 -384.842)"/></g><g transform="translate(0 23.561)"><circle class="i" cx="3.102" cy="3.102" r="3.102" transform="matrix(0.34, -0.94, 0.94, 0.34, 0, 5.833)"/><circle class="j" cx="2.317" cy="2.317" r="2.317" transform="translate(1.656 1.656)"/><path class="k" d="M339.093,452.55a1.345,1.345,0,1,1-1.345-1.345A1.345,1.345,0,0,1,339.093,452.55Z" transform="translate(-333.775 -448.577)"/></g><g transform="translate(16.241 15.467)"><path class="j" d="M373.142,434.811a2.246,2.246,0,0,1-2.243-2.243v-8.532h.472v8.532a1.773,1.773,0,0,0,1.771,1.771Z" transform="translate(-370.899 -424.035)"/><path class="k" d="M377.175,449.658l-.511.064a.091.091,0,0,0-.08.09v.525a.091.091,0,0,0,.08.09l.511.064a.42.42,0,1,0,0-.833Z" transform="translate(-374.341 -439.545)"/></g><g transform="translate(23.227 15.467)"><g transform="translate(1.063)"><path class="j" d="M391.3,434.811a2.246,2.246,0,0,0,2.243-2.243v-8.532h-.472v8.532a1.773,1.773,0,0,1-1.771,1.771Z" transform="translate(-391.295 -424.035)"/></g><path class="k" d="M389.073,449.658l.512.064a.091.091,0,0,1,.08.09v.525a.091.091,0,0,1-.08.09l-.512.064a.42.42,0,1,1,0-.833Z" transform="translate(-388.602 -439.545)"/></g></g><g transform="translate(22.054)"><g transform="translate(9.978 25.251)"><path class="v" d="M361.306,370.445l-4.315,5.609-4.315-5.609v-13.5H361.3Z" transform="translate(-352.676 -356.943)"/><path class="x" d="M352.676,356.943v7.878a6.112,6.112,0,0,0,8.629,0v-7.88Z" transform="translate(-352.676 -356.943)"/></g><g transform="translate(0 20.522)"><path class="v" d="M334.7,348.615a3.654,3.654,0,1,1-3.654-3.655,3.654,3.654,0,0,1,3.654,3.655Z" transform="translate(-327.392 -344.96)"/><circle class="w" cx="1.925" cy="1.925" r="1.925" transform="translate(1.73 1.73)"/></g><g transform="translate(19.765 19.008)"><circle class="v" cx="3.654" cy="3.654" r="3.654" transform="translate(0 5.168) rotate(-45)"/><path class="w" d="M385.7,351.268a1.925,1.925,0,1,0,1.925-1.925,1.925,1.925,0,0,0-1.925,1.925Z" transform="translate(-382.454 -346.1)"/></g><rect class="v" width="20.775" height="28.566" rx="10.387" transform="translate(3.906 4.384)"/><path class="x" d="M351.034,339.311a.678.678,0,0,0-.678.678v.872a.678.678,0,1,0,1.357,0v-.872a.679.679,0,0,0-.679-.678Z" transform="translate(-341.294 -321.018)"/><path class="l" d="M362.161,359.931a14.733,14.733,0,0,1-6.55.069,3.477,3.477,0,0,0,1.825,2.365,3.377,3.377,0,0,0,2.941.06,3.657,3.657,0,0,0,1.784-2.494Z" transform="translate(-344.475 -333.501)"/><g transform="translate(6.475 15.451)"><path class="y" d="M346.391,332.137a3.486,3.486,0,0,0-2.592,1.708l5.519-.672A3.487,3.487,0,0,0,346.391,332.137Z" transform="translate(-343.799 -332.111)"/></g><path class="x" d="M374.112,339.311a.679.679,0,0,1,.678.678v.872a.678.678,0,1,1-1.357,0v-.872a.678.678,0,0,1,.679-.678Z" transform="translate(-355.265 -321.018)"/><g transform="translate(16.595 15.451)"><path class="y" d="M372.371,332.137a3.487,3.487,0,0,1,2.593,1.708l-5.519-.672a3.488,3.488,0,0,1,2.926-1.036Z" transform="translate(-369.444 -332.111)"/></g><path class="y" d="M355.648,300.584a7.822,7.822,0,0,0-.85-1.88,11.074,11.074,0,0,0-4.966-4.05,16.408,16.408,0,0,0-7.7-1.654,8.182,8.182,0,0,0-6.186,3.509,7.006,7.006,0,0,0-5.555,2.568,8.3,8.3,0,0,0-1.594,5.31,24.049,24.049,0,0,0,.966,5.507,59.054,59.054,0,0,0,2.487,6.555l1.371-10.426a7.768,7.768,0,0,0,3.755,1.327,2.5,2.5,0,0,0,1.428-.222,1.165,1.165,0,0,0,.6-.987,1.321,1.321,0,0,0-.527-1.118,10.511,10.511,0,0,0,4.187,1.966,2.382,2.382,0,0,0,2.077-.257,1.274,1.274,0,0,0,.288-1.328,3.992,3.992,0,0,0-.761-1.236,7.294,7.294,0,0,0,2.518,1.882,4.974,4.974,0,0,0,3.063.407,3.992,3.992,0,0,0,1.718-.815c.018.133.035.262.053.382l.842,10.642a70.417,70.417,0,0,0,2.562-6.771,26.987,26.987,0,0,0,.852-5.507A10.171,10.171,0,0,0,355.648,300.584Z" transform="translate(-328.241 -292.957)"/><path class="w" d="M363,351.642l-2.747-.042a1.566,1.566,0,0,0,1.334,1.13A1.627,1.627,0,0,0,363,351.642Z" transform="translate(-347.288 -328.458)"/><g transform="translate(6.324 20.788)"><path class="l" d="M359.357,348.956V347.79c-5.031-.325-6.161-2.155-7.97-2.155s-2.94,1.83-7.97,2.155v1.166c4.873-.472,6.09-2.285,7.97-2.285S354.485,348.484,359.357,348.956Z" transform="translate(-343.417 -345.635)"/><path class="g" d="M351.387,348.26c-1.88,0-3.1,1.813-7.97,2.285V352.4a7.189,7.189,0,0,0,7.027,7.34h1.886a7.189,7.189,0,0,0,7.027-7.34v-1.856C354.485,350.073,353.268,348.26,351.387,348.26Z" transform="translate(-343.417 -347.224)"/></g></g></g></g></svg>