<svg xmlns="http://www.w3.org/2000/svg" width="165.107" height="207.114" viewBox="0 0 165.107 207.114"><defs><style>.a{fill:#191c26;}.b{fill:#fe9c70;}.c{fill:#fff;}.d{fill:#2e2f44;}.ac,.ad,.ae,.ah,.ai,.aj,.e,.f,.g,.l,.p,.q,.r,.s,.t,.u,.y,.z{fill:none;}.e,.f,.g,.z{stroke:#fff;}.e,.f,.g,.r,.z{stroke-linecap:round;stroke-linejoin:round;}.e{stroke-width:0.859px;}.f,.p,.q,.r{stroke-width:0.83px;}.g{stroke-width:0.749px;}.h{fill:#ff8980;}.i,.n{fill:#dd966f;}.i,.j{opacity:0.45;}.k{fill:#ffccb0;}.l{stroke:#ba6858;stroke-width:0.57px;}.ac,.ad,.ae,.ah,.ai,.aj,.l,.p,.q,.s,.t,.u,.y{stroke-miterlimit:10;}.m{fill:#f9f6ed;}.o{fill:#7a86de;}.p{stroke:#596bc1;}.ah,.q{stroke:#ef8054;}.r{stroke:#3f3f3f;}.aj,.s{stroke:#191c26;}.s{stroke-width:0.956px;}.t{stroke:#272f44;}.u{stroke:#e3e4e5;stroke-width:0.75px;}.v{fill:#fc8876;}.w{fill:#f8f5ec;}.x{fill:#bb675a;}.y{stroke:#bb675a;stroke-width:0.462px;}.z{stroke-width:0.873px;}.aa{fill:#75aaf5;}.ab{fill:#f3f3f3;}.ac{stroke:#40507f;}.ac,.ad{stroke-width:0.844px;}.ad,.ae{stroke:#c5c8d3;}.af{fill:#1c1e3d;}.ag{fill:#343b4f;}.ai{stroke:#2e2f44;}.aj{stroke-width:1.086px;}</style></defs><g transform="translate(-1024.887 -5624.306)"><g transform="translate(1023.537 5627.404)"><path class="a" d="M90.94,180.559s-6.439-.047-8.678,8.352c-1.7,6.364-1.807,11.239-2.24,17.776a63.506,63.506,0,0,0,1.175,14.39,12.081,12.081,0,0,0,2.946,6.236c1.822,2.065,4.282,2.33,6.983,2.33C95.978,229.082,102.7,185.784,90.94,180.559Z" transform="translate(-78.639 -138.189)"/><path class="b" d="M168.842,252.732s1.868,23.621-2.936,25.622c0,0-1.467.667-.734-8.541-.266-.534-.822-.6-.889-.134-.053.366-.091,3.041-.1,4.181a.882.882,0,0,1-.741.883.462.462,0,0,1-.4-.126c-.4-.4-.8-8.008.8-11.61-.467-4.8-.867-10.543-.867-10.543S166.307,247.66,168.842,252.732Z" transform="translate(-105.555 -160.913)"/><g transform="translate(30.257 80.695)"><path class="c" d="M163.233,409.086s-.669.643.4,2.348c.118.188,6.291-1.593,12.567-3.274,7.946-2.129,16.151-4.414,13.5-5.833" transform="translate(-135.925 -291.032)"/><path class="b" d="M168.092,390.383l-3.655-9.917-8.036.3s2.514,7.53,3.9,12.948C160.3,393.715,165.549,402.105,168.092,390.383Z" transform="translate(-133.769 -283.921)"/><path class="d" d="M162.654,406.337c.925-.183,3.265-.756,6.189-1.5,1.788-.451,3.789-.961,5.826-1.488,7.039-1.816,14.454-3.775,14.454-3.775s-.97-.778-4.772-.224a13.206,13.206,0,0,1-5.966-.426c-.331-.107-.667-.217-1.009-.345a24.846,24.846,0,0,1-7.394-4.6.436.436,0,0,0-.727.275c-.374,2.855-1.8,8.085-6.944,3.746l-.46-.4c-.509.13-.438.663-.486,1.206a18.65,18.65,0,0,0,.089,4.852,5.182,5.182,0,0,0,1.2,2.679Z" transform="translate(-135.347 -288.281)"/><path class="a" d="M162.753,410.522c.925-.183,3.265-.756,6.189-1.5l.517-.215s-2.451-3.935-7.9-.968a5.182,5.182,0,0,0,1.2,2.683Z" transform="translate(-135.446 -292.466)"/><path class="a" d="M181.129,405.624c7.039-1.816,14.454-3.775,14.454-3.775s-.97-.778-4.772-.224a13.206,13.206,0,0,1-5.966-.426c-.331-.107-.667-.217-1.009-.345C182.39,401.921,180.9,403.549,181.129,405.624Z" transform="translate(-141.806 -290.553)"/><path class="e" d="M178.858,401.7a7.389,7.389,0,0,1,1.561-2.546" transform="translate(-141.075 -290.002)"/><path class="e" d="M176.682,400.283a6.421,6.421,0,0,1,1.407-2.411" transform="translate(-140.367 -289.583)"/><path class="a" d="M125.343,237.365s-2.6,9.958-2.484,16.975c.124,7.914,5.022,14.48,7.2,22.029s15.222,54.489,16.553,63.8c0,0,7.4,2.363,10.166-2.6,1.179-.223-2.793-25.945-2.937-34.278s-.762-12.693-4.063-23.673-4.476-25.295-1.994-31.11" transform="translate(-122.856 -237.365)"/></g><g transform="translate(7.707 84.566)"><path class="c" d="M89.968,408.28s-.845.345-.412,2.185c.048.2,6.457.654,12.929,1.224,8.194.722,16.685,1.392,14.666-.713" transform="translate(-89.432 -296.84)"/><path class="b" d="M101.7,390.727l-.113-9.872L93.922,378.5s-.161,7.411-.675,12.6C93.247,391.108,95.374,400.163,101.7,390.727Z" transform="translate(-90.673 -287.152)"/><path class="d" d="M90.063,404.11c.932.142,3.327.4,6.329.7,1.834.188,3.889.391,5.984.594,7.236.7,14.874,1.4,14.874,1.4s-.652-1-4.417-1.749a13.857,13.857,0,0,1-5.474-2.315c-.275-.2-.555-.408-.834-.63a23.986,23.986,0,0,1-5.416-6.434.45.45,0,0,0-.776,0c-1.311,2.379-4.4,6.495-7.794,1.019l-.3-.5c-.523-.052-.635.438-.863.9a16.45,16.45,0,0,0-1.544,4.277,4.559,4.559,0,0,0,.231,2.738Z" transform="translate(-89.53 -292.668)"/><path class="a" d="M90.063,406.911c.932.142,3.327.4,6.329.7l.559-.02s-.987-4.243-7.116-3.421a4.559,4.559,0,0,0,.228,2.741Z" transform="translate(-89.53 -295.47)"/><path class="a" d="M108.473,408.616c7.236.7,14.874,1.4,14.874,1.4s-.652-1-4.417-1.749a13.857,13.857,0,0,1-5.474-2.315c-.275-.2-.555-.408-.834-.63C110.9,405.785,108.95,406.724,108.473,408.616Z" transform="translate(-95.627 -295.877)"/><path class="f" d="M108,404.26a7.2,7.2,0,0,1,2.324-1.72" transform="translate(-95.472 -294.973)"/><path class="f" d="M106.45,402.284a6.222,6.222,0,0,1,2.134-1.652" transform="translate(-94.968 -294.352)"/><path class="a" d="M107.325,243.1s-5.784,7.875-8.035,14.054c-2.539,6.971-.131,14.313-.615,21.63s-3.954,52.662-5.823,61.243c0,0,6.177,4.479,10.442,1.036,1.185.189,6.075-23.625,8.736-30.968s3.541-11.36,4.118-22.049,4.273-23.6,8.562-27.887" transform="translate(-90.545 -243.102)"/><path class="g" d="M108.931,248.859a51.351,51.351,0,0,0-5.575,11.488c-1.857,5.941.016,19.013-.92,26.313S97.854,333.751,95.2,341.3" transform="translate(-91.309 -244.975)"/></g><g transform="translate(23.963)"><path class="a" d="M139.436,127.835a1.671,1.671,0,0,0-.119.455c-.321,1.538-2.861,2.671-4.275,2.7a1.886,1.886,0,0,1-1.492-.588.458.458,0,0,0-.195-.168c-.141-.043-.273.079-.378.183-1.343,1.334-2.337.542-3.783.1a22.939,22.939,0,0,0-4.3-.36c-.041.3-.141.756-.266,1.3-.347,1.492-.949,3.686-1.395,5.373a3.561,3.561,0,0,0-.838-1.686l.882,3.708.54.685,1.123,1.43c.3.389-4.947,2.006-5.479,1.915a1.612,1.612,0,0,1-1.423-1.612,2.429,2.429,0,0,1-2.56-2.712,1.381,1.381,0,0,0,.035-.766,1.09,1.09,0,0,0-.312-.372,5.323,5.323,0,0,1-1.476-1.84,2.2,2.2,0,0,1,.227-2.247,2.7,2.7,0,0,0,.306-.364,1.447,1.447,0,0,0,.067-.986c-.169-.953-.37-2.059.27-2.786a2.847,2.847,0,0,0,.5-.573c.2-.4,0-.872-.015-1.318a2.089,2.089,0,0,1,.819-1.592,9.54,9.54,0,0,1,2.259-.988c1.009-.48.426-1.319.835-2.265a1.677,1.677,0,0,1,1.558-1.076,5.042,5.042,0,0,1,1.207-2.255,1.918,1.918,0,0,1,2.363-.3,7.419,7.419,0,0,1,1.978-.972,2.57,2.57,0,0,1,2.125.277,1.408,1.408,0,0,0,.52.3,1.2,1.2,0,0,0,.673-.167,3.925,3.925,0,0,1,4.573,1.225c-.291-.393,1.906-.969,2.969-.506a4.2,4.2,0,0,1,2.2,2.384,2.43,2.43,0,0,1-.4,2.435,2.12,2.12,0,0,1,1.033,3.637,1.584,1.584,0,0,0-.356.392Z" transform="translate(-113.527 -117.758)"/><g transform="translate(9 12.129)"><path class="h" d="M136.3,135.769c-.945.658-5.813.3-8.145.081-.041.3-.141.756-.266,1.3-.258,1.108-.655,2.6-1.025,3.988a4.485,4.485,0,0,1,.71,1.545c.446-1.687,1.048-3.881,1.395-5.373.125-.546.225-1,.266-1.3,2.332.222,7.2.577,8.145-.08a.342.342,0,0,1,.177-.032,3.211,3.211,0,0,0-1.257-.129Z" transform="translate(-126.867 -135.735)"/></g><path class="b" d="M133.052,162.345s-2.521,1.668-2.785,1.811a6.164,6.164,0,0,1-1.26.551,7.417,7.417,0,0,1-1.469.207,12.507,12.507,0,0,1-3.293-.05,10.268,10.268,0,0,1-3.7-1.137,2.469,2.469,0,0,1-.7-.826c-.14-.229-.405-.424-.508-.653,2.907-.9,3.858-4.686,4.29-7.311.134-.81.227-1.627.281-2.446.042-.528.044-.845.044-.845,1.384.719,2.749,1.482,4.1,2.26,1.049.609,2.089,1.229,3.1,1.9a11.469,11.469,0,0,1,1.226.874c.647.571.3.856.039,1.635-.027.08-.048.159-.069.238a5.851,5.851,0,0,0-.148,1.874c.045.785.065,1.3.7,1.8C132.977,162.3,133.028,162.323,133.052,162.345Z" transform="translate(-115.418 -128.783)"/><path class="i" d="M135.053,158.756c-.027.08-.048.159-.069.238-4.29.035-7.384-5.915-7.514-6.006-.187.094,1.874.577,3.224,1.355,1.049.609,2.089,1.229,3.1,1.9a11.467,11.467,0,0,1,1.226.874C135.661,157.691,135.314,157.976,135.053,158.756Z" transform="translate(-118.059 -129.219)"/><path class="b" d="M139.789,136.056c.013.393.023.822.024,1.288,0,.69-.012,1.449-.053,2.244-.007.154-.012.318-.024.478-.29,4.479-1.5,9.887-5.609,10.833-4.385.692-9.229-6-9.379-6.113a2.677,2.677,0,0,1-2.936-3.134c.532-4.261,3.278-1.269,3.278-1.269-.2-1.36-.364-5.671-.364-5.671l6.486-4.146,8.431,3.278S139.741,134.708,139.789,136.056Z" transform="translate(-116.213 -121.925)"/><g class="j" transform="translate(7.733 22.788)"><path class="k" d="M124.989,151.587a1.989,1.989,0,0,0,.327.072,1.412,1.412,0,0,0-.107-.125.642.642,0,0,1-.22.053Z" transform="translate(-124.989 -151.534)"/></g><path class="a" d="M141.208,132.554a4.789,4.789,0,0,1-3.038,1.507,1.621,1.621,0,0,1-1.715-.649,1.822,1.822,0,0,1-2.89.053c-.147-.214-.288-.488-.546-.512a.754.754,0,0,0-.407.128,5.54,5.54,0,0,1-3.3.575c-.185-.026-.374-.311-.188-.325a2.433,2.433,0,0,1-1.478,3.159,3.322,3.322,0,0,1,.281,2.031,1.519,1.519,0,0,1-1.959,1.2c-2.393-.962-2.581-5.185-2.581-5.185s.75-3.2.817-3.543S128.032,128,128.032,128l4.042-.75,3.219-.059.4.353.771.675,4.52,3.967S141.274,132.468,141.208,132.554Z" transform="translate(-116.734 -120.825)"/><path class="l" d="M144.193,145.994a4.011,4.011,0,0,0,1.258,2.83s-1.058.58-1.152.943" transform="translate(-123.502 -126.944)"/><g transform="translate(16.276 24.445)"><path class="m" d="M138.7,156.446a2.245,2.245,0,0,0,2.417-1.066c.156-.461-.381-.6-1.455-.968s-1.795-.643-1.95-.181a1.884,1.884,0,0,0,.988,2.215Z" transform="translate(-137.652 -153.99)"/></g><path class="n" d="M132.292,150.087c-.028.467.718.891,1.665.948s1.737-.277,1.765-.743-.717-.891-1.664-.948S132.32,149.62,132.292,150.087Z" transform="translate(-119.631 -128.032)"/></g><path class="c" d="M118.121,225.093s14.37,1.866,23.142-.373c1.306-5.412,2.749-51.919-9.335-57.7l-1.4.295A16.265,16.265,0,0,1,119.8,166h0S112.242,204,118.121,225.093Z" transform="translate(-90.33 -133.453)"/><path class="o" d="M139.665,167.484s4.551,10.772,4.59,19.037a39.325,39.325,0,0,0,.257,4.447c.389,3.277.419,7.712.569,15.558,1.026,9.891,3.545,31.727,3.545,31.727l6.625.559.28-4.2s4.2,1.307,7.092-.186c-.093-3.639-.093-12.131-1.306-15.49s-1.4-27.061-2.053-30.14-1.213-14.744-6.625-17.076S144.517,167.111,139.665,167.484Z" transform="translate(-98.068 -133.922)"/><path class="o" d="M113.875,165.967c.038-.009.059,4.946.085,5.34.188,2.8,1.341,5.431,1.587,8.223.354,4.02-1.193,7.938-1.755,11.934a61.155,61.155,0,0,0-.283,8.779c.016,3.833-.144,7.666-.384,11.492-.215,3.432-.812,6.984-.48,10.387.324,3.324-.289,6.979-.439,10.322q-.125,2.8-.247,5.607l-.008.187s-11.851-.466-13.437-2.146c-.28-4.2-1.68-21-.653-25.2.746-8.118,2.519-35.179,1.773-37.979C102.525,171.053,103.517,169.886,113.875,165.967Z" transform="translate(-84.346 -133.442)"/><path class="o" d="M96.775,195.494c5.949,1.89,5.949,3.57,5.389,10.008-.98,5.039-7.489,9.028-7.489,9.028l-4.479-.56s-2.38-.98-3.779-6.159c-.56-10.218.42-11.477,3.359-16.1,2.38-15.117,6.206-15.444,6.206-15.444s2.682,10.055,1.563,14.394" transform="translate(-80.695 -136.794)"/><path class="p" d="M98.042,205.386s-4.549-.14-6.158,3.5" transform="translate(-82.523 -146.266)"/><path class="p" d="M92.921,205.027a4.655,4.655,0,0,1,2.94-.49" transform="translate(-82.86 -145.977)"/><path class="a" d="M109.94,169.757a28.944,28.944,0,0,1,2.322,14.148,39.981,39.981,0,0,1-3.01,12.458s-1.33,5.109-.49,6.124c1.646-1.92,7.142-10.787,6.685-22.8a14.687,14.687,0,0,0-.14-1.5,69.764,69.764,0,0,0-2.008-9.834c-.186-.6-2.342.559-2.653.8C110.584,169.2,109.9,169.681,109.94,169.757Z" transform="translate(-87.923 -134.164)"/><path class="b" d="M101.012,200.736s.14,4.409,4.549,3.5c.98-2.029,2.8-5.179,2.8-5.179s3.36-.21,4.2-.35.28-1.469.28-1.469,1.33.07,1.54-.28a4.049,4.049,0,0,0,0-1.61,2.73,2.73,0,0,0,.349-1.469c-.14-.56.07-2.309-.77-2.589s-5.039-.28-5.6.14S101.012,200.736,101.012,200.736Z" transform="translate(-85.492 -141.616)"/><path class="p" d="M100.667,176.271s2.473,7.185,1.82,12.6" transform="translate(-85.38 -136.794)"/><path class="p" d="M162.149,239.026s.094-14.277-.559-18.756.373-14.557,0-17.636-1.773-7.278-1.563-10.848,1.4-10.778,1.4-10.778" transform="translate(-104.685 -138.335)"/><path class="c" d="M128.974,152.753h0c1.784,1.93,4.478,4.211,7.093,3.883,3.329-.656,4.874-4.269,5.572-7.983-.772-.676-3.747-2.831-9.555-1.894-1.334.368-1.944.559-1.944.559Z" transform="translate(-94.589 -127.118)"/><path class="c" d="M129.278,146.948s-2.319-1.232-2.954-1.475c.8-.358,2.27.452,3.939,1.2-.986.274-.77.21-.77.21" transform="translate(-93.727 -126.746)"/><path class="c" d="M127.842,154.455l-2.344-2.7a1.052,1.052,0,0,0,.674,0c1.725,1.7,1.938,1.923,1.938,1.923Z" transform="translate(-93.459 -128.817)"/><path class="p" d="M101.617,254.6a11.632,11.632,0,0,0,7.8-6.651" transform="translate(-85.689 -160.112)"/><path class="p" d="M104.63,210.987a10.991,10.991,0,0,1-.283,8.316,12.516,12.516,0,0,1-1.69,2.489,10.17,10.17,0,0,1-4.58,3.487" transform="translate(-84.538 -148.088)"/><path class="q" d="M113.463,193.682a20.43,20.43,0,0,1,5.074.08" transform="translate(-89.543 -142.419)"/><path class="q" d="M113.615,197q2.344.118,4.69.137" transform="translate(-89.593 -143.538)"/><path class="q" d="M113.46,200.1a24.612,24.612,0,0,0,3.849.13" transform="translate(-89.542 -144.545)"/><path class="r" d="M131.326,281.62a11.8,11.8,0,0,1,1.093-4.489,54.394,54.394,0,0,1,4.518-8.774c.126-.2.375-.422.559-.274" transform="translate(-95.354 -166.648)"/><path class="p" d="M148.522,227.8a3.257,3.257,0,0,0,1.959-.422" transform="translate(-100.949 -153.419)"/><path class="p" d="M149.975,196.05v.14" transform="translate(-101.422 -143.229)"/><path class="p" d="M151.381,211.414l.141.559" transform="translate(-101.879 -148.227)"/><path class="q" d="M124.709,146.749a1.619,1.619,0,0,0-.284-1.307.923.923,0,0,0-1.232-.183,1.421,1.421,0,0,0-.387.976" transform="translate(-92.583 -126.652)"/><path class="q" d="M124.889,146.351a.873.873,0,0,0-1.093.134" transform="translate(-92.905 -127.016)"/><path class="s" d="M139.43,140.746a4.39,4.39,0,0,0-3.9.152" transform="translate(-96.722 -125.111)"/><path class="s" d="M146.2,141.527a1.4,1.4,0,0,1,1.143.222" transform="translate(-100.194 -125.478)"/><path class="s" d="M138.98,142.926a2.461,2.461,0,0,0-.4.7.97.97,0,0,0,.059.785c.043.072.123.143.2.111a.2.2,0,0,0,.09-.111,2.261,2.261,0,0,0,.155-1.315" transform="translate(-97.697 -125.946)"/><path class="s" d="M146.542,143.934a1.941,1.941,0,0,0-.159,1.209,1.512,1.512,0,0,0,.323-1.2" transform="translate(-100.242 -126.274)"/><path class="t" d="M127.536,132.416a9.864,9.864,0,0,1-3.455-2.75,4.267,4.267,0,0,1-1.115-2.95" transform="translate(-92.631 -120.672)"/><path class="t" d="M134.834,132.862a2.6,2.6,0,0,1,2.481-.48c.708.241,1.338.8,2.085.764.537-.024,1.019-.356,1.554-.412a5.316,5.316,0,0,1,1.453.223,2.336,2.336,0,0,0,2.277-.708,1.374,1.374,0,0,0-.5-2.082" transform="translate(-96.496 -121.795)"/><path class="t" d="M150.309,128.056c.281-.188.631.1.839.37a2.285,2.285,0,0,1,.489.857.793.793,0,0,1-.316.872" transform="translate(-101.53 -121.089)"/><path class="t" d="M145.059,121.957" transform="translate(-99.822 -119.124)"/><path class="t" d="M145.429,122.014a2.554,2.554,0,0,1,2.158,3.358" transform="translate(-99.943 -119.142)"/><path class="t" d="M140.531,121.964a2.056,2.056,0,0,1,2.888,1.885" transform="translate(-98.349 -119.07)"/><path class="t" d="M126.717,141.064a1.162,1.162,0,0,1-.081,2.319" transform="translate(-93.829 -125.34)"/><path class="t" d="M118.473,143.938a2.713,2.713,0,0,0-.622,2.2,1.437,1.437,0,0,0,1.782,1.08" transform="translate(-90.953 -126.275)"/><path class="t" d="M118.563,137.616a2.278,2.278,0,0,0,1.707,2.577" transform="translate(-91.19 -124.218)"/><path class="u" d="M143.806,149.15c.217,2.2.1,4.654-1.406,6.275" transform="translate(-98.957 -127.971)"/></g><g transform="translate(1123.006 5624.306)"><path class="a" d="M266.978,128.067a3.515,3.515,0,0,0-.908,1.625c-.5-2.305-1.215-5.557-1.316-6.664-2.309.106-7.125.223-8.025-.472-2.439.414-4.878.26-5.627-2.138s.327-6.428,2.083-7.067,1.828.587,1.828.587-1.45-.546-1.092.961c.092.518,1.845-.263,1.45-1.438.222.847.351,1.034.023,1.606.509.276,1.6-.448,2.452-.839a5.917,5.917,0,0,1,4.431.219c.867-1.1,6.363-1.643,8.319,2.788.432.816,2.777.231,3.672,3.989s.235,13.261-6.6,13.974a5.192,5.192,0,0,1-3.468-1.508l1.736-2.006Z" transform="translate(-233.712 -113.166)"/><path class="b" d="M263.3,155.377c3.8.627,6.887.594,8.808-2.324-2.067-1.191-1.944-9.784-1.944-9.784s-7.13,3.307-9.074,4.979c.019.25.035.475.04.668.03.9.909,2.808-.541,4.717C260.591,153.633,259.5,154.75,263.3,155.377Z" transform="translate(-236.831 -122.96)"/><path class="v" d="M232.276,246.023s-2.1,26.565,3.3,28.816c0,0,1.651.75.826-9.606.3-.6.925-.675,1-.15.059.412.1,3.421.118,4.7a.992.992,0,0,0,.833.993.52.52,0,0,0,.45-.142c.45-.45.9-9-.9-13.057.526-5.4.976-11.857.976-11.857S235.128,240.319,232.276,246.023Z" transform="translate(-227.536 -155.538)"/><g transform="translate(18.149 3.562)"><path class="b" d="M267.837,136.361c-.063.04-.938,1.113-2.247,2.313h0c-1.911,1.758-4.744,3.79-7.293,3.26-2.7-.76-4-3.462-4.588-6.5-.093-.486-.168-.985-.227-1.48-.016-.109-.025-.215-.037-.321-.1-.9-.144-1.789-.156-2.646v-.47c0-.786.016-1.537.053-2.216.025-.458.056-.882.088-1.268.112-1.328.249-2.172.249-2.172l8.468-2.83,6.2,4.4s-.277,4.525-.539,5.856c0,0,2.7-1.191,3.079,1.128a2.59,2.59,0,0,1-3.05,2.946Z" transform="translate(-252.65 -119.612)"/><path class="a" d="M252.352,123.457c1.329,1.874,5.955,1.99,9.215.312,1.463-.688,3.647-.96,3.908,1.138.083.8-.383,7.044,2.023,6.211s2.331-4.856,2.331-4.856-.587-3.19-.634-3.533-3.635-3.137-3.635-3.137l-3.949-.931-3.172-.215L252.59,123.1S252.29,123.369,252.352,123.457Z" transform="translate(-252.343 -118.446)"/><g transform="translate(0.832 11.698)"><path class="w" d="M259.919,143.786c.871-.1,2.007-1.383,1.514-2.251a.465.465,0,0,0-.2-.2.585.585,0,0,0-.339-.013c-.437.07-.875.149-1.314.2-1.185.141-1.924.1-1.864.613a2.3,2.3,0,0,0,2.2,1.651Z" transform="translate(-254.923 -137.58)"/><path class="x" d="M254.8,140.328c.038.352-.387.7-1,.857-.093-.486-.168-.985-.227-1.48C254.24,139.711,254.763,139.961,254.8,140.328Z" transform="translate(-253.576 -137.06)"/><path class="y" d="M259.419,135.785a3.037,3.037,0,0,1-.856,2.183s.915.4.9.675" transform="translate(-255.198 -135.785)"/></g></g><path class="c" d="M250.645,158.63s-14.167,1.678-17.018,24.791c-1.8,21.313-3.752,53.337-3.752,53.337l4.053-.3S232.02,270,233.822,270.6a43.023,43.023,0,0,0,4.8,0Z" transform="translate(-226.885 -127.957)"/><g transform="translate(4.988 85.013)"><g transform="translate(25.134 96.685)"><path class="c" d="M289.354,402.786s1.633.6,1.621,3.634c-.005,1.459-7.792,6.471-8.126,6.644s-6.968,3.133-12.3.027a4.44,4.44,0,0,1-.453-1.8Z" transform="translate(-270.091 -389.087)"/><path class="b" d="M285,392.776l-1-9.252,7.506-1.044v11.552S289.489,402.036,285,392.776Z" transform="translate(-274.614 -382.481)"/><path class="d" d="M289.354,400.255c.2.088.175.818.163.987a3.483,3.483,0,0,1-.652,2.288,19.3,19.3,0,0,1-5.368,4.893,16.3,16.3,0,0,1-6.825,1.893q-.18.011-.36.018a15.122,15.122,0,0,1-4.687-.706c-.153-.053-1.558-.851-1.534-.864a30.241,30.241,0,0,0,6.559-5.523c.345-.393.676-.8.991-1.216,1.551-2.055,2.647-4.358,2.456-6.636,0,0,1.876-1.517,2.877,1.527a11.085,11.085,0,0,0,3.507-1.346.778.778,0,0,1,1.136.569,18.362,18.362,0,0,0,.42,1.849C288.343,399.024,288.774,400,289.354,400.255Z" transform="translate(-270.091 -386.558)"/><path class="z" d="M283.421,407.655A7.512,7.512,0,0,0,280.875,406" transform="translate(-273.599 -390.132)"/><path class="z" d="M284.866,405.368a6.538,6.538,0,0,0-2.345-1.6" transform="translate(-274.135 -389.407)"/></g><g transform="translate(0 96.685)"><path class="c" d="M257.566,410.245s.721.395.174,2.048c-.061.183-5.8.012-11.606-.054-7.35-.083-14.961-.242-12.979-1.994" transform="translate(-232.836 -391.514)"/><path class="b" d="M256.611,393.018l-.164-8.836,8.159-1.7s-.511,6.834-.511,11.659C264.1,394.14,261.4,402.277,256.611,393.018Z" transform="translate(-240.518 -382.481)"/><path class="d" d="M257.72,405.938c-.841.045-2.993.065-5.69.07h-5.374c-6.5-.016-13.35-.07-13.35-.07s.668-.857,4.082-1.206a12.082,12.082,0,0,0,5.071-1.631c.262-.159.53-.324.8-.5a21.809,21.809,0,0,0,5.385-5.426.4.4,0,0,1,.69.074c.955,2.307,3.342,6.377,6.841,1.649l.31-.437c.469,0,.526.461.688.9a15.638,15.638,0,0,1,1,4.076A4.331,4.331,0,0,1,257.72,405.938Z" transform="translate(-232.989 -387.206)"/><path class="z" d="M251.867,405.948a7.512,7.512,0,0,0-1.587-2.587" transform="translate(-238.511 -389.274)"/><path class="z" d="M254.155,404.5a6.526,6.526,0,0,0-1.431-2.451" transform="translate(-239.307 -388.848)"/></g><path class="aa" d="M239.89,259.583a70.5,70.5,0,0,1,1.471-10.79l.977-4.515.261-1.209.094-.047,4.607-2.292,14.612-1.558,2.907,2.54,6.4-.885,2.647-.364.661-.09.713-.1s1.829,5,1.829,5.008l.956,2.608A43.986,43.986,0,0,1,279,264.8V291.32q.036,4.239.072,8.478l.154,18.171q.073,8.495.145,16.99c.011,1.376.836,4.551-.483,5.532a5.743,5.743,0,0,1-2.287.432,21.487,21.487,0,0,1-7.892-.528,1.043,1.043,0,0,1-.762-.87l-6.714-48.206c-1.916-12.894-3.119-22.172-3.119-22.172l-1.216,12.585a96.408,96.408,0,0,0,.062,19.17l3.912,37.924a1.165,1.165,0,0,1-.814,1.226,19.758,19.758,0,0,1-10.6.366l-.091-.022-8.22-36.253a96.5,96.5,0,0,1-2.255-26.388C239.239,271,239.627,264.156,239.89,259.583Z" transform="translate(-234.761 -239.173)"/><g transform="translate(7.578)"><path class="ab" d="M276.255,240.375a15.041,15.041,0,0,1-4.173,4.908c-2.278,1.482-5.028,1.442-7.6,1s-5.115-1.235-7.709-1.137c-2.705.1-5.355,1.177-8.061,1.1a6.758,6.758,0,0,1-4.649-1.968l.261-1.209.094-.047,4.607-2.292,14.612-1.558,2.907,2.54,6.4-.885,2.647-.364Z" transform="translate(-244.068 -239.173)"/><g transform="translate(11.331 4.253)"><path class="ac" d="M264.223,247.734s.4,13.334.652,16.593c-2.1.464-1.94-5-2.169-8.136s-1.843-10.714-1.843-10.714" transform="translate(-260.863 -245.477)"/><path class="ac" d="M266.81,269.448s.176,7.646.427,9.549" transform="translate(-262.798 -253.276)"/></g></g></g><path class="c" d="M265.989,143.82h0c-1.966,1.809-4.882,3.9-7.506,3.355-3.32-.936-4.59-4.725-4.995-8.546.837-.622,4.029-2.562,9.839-1.139,1.322.482,1.925.725,1.925.725Z" transform="translate(-234.567 -120.915)"/><path class="c" d="M270.453,138.147s2.452-1.059,3.114-1.254c-.779-.428-2.338.273-4.091.9a4.826,4.826,0,0,0,.764.277" transform="translate(-239.769 -120.842)"/><path class="aa" d="M254.191,158.351s-11.815,6.881-11.716,22.89c-1.8,16.21-1.7,46.552-1.7,46.552s4.731.627,9.911.947a30.848,30.848,0,0,0,19.063-5.152c2.515-1.685,4.636-3.107,5.772-3.674a16.12,16.12,0,0,0-.15-8.48l-3.677-47.652-5.982-6.01S260.253,161.774,254.191,158.351Z" transform="translate(-230.431 -127.678)"/><path class="c" d="M277.736,157.732s2.579,19.167,3.58,30.574c.118,4.931.3,8.715.47,11.493.239,3.826,1.618,67.3,1.618,67.3s17.2-.649,17.6-3.451c-.7-3.7-2.777-48.124-3.177-49.925s-3.1-50.629-3.1-50.629S288.665,156.875,277.736,157.732Z" transform="translate(-242.456 -127.639)"/><path class="c" d="M271.917,145.869l2.6-2.547a1.068,1.068,0,0,1-.683-.051c-1.888,1.583-2.122,1.791-2.122,1.791Z" transform="translate(-240.495 -122.96)"/><path class="ad" d="M236.128,246.787s1.062-47.708,2.77-52.4" transform="translate(-228.92 -139.588)"/><path class="ad" d="M300.094,165.521a3.393,3.393,0,0,0-2.255,1.146,10.063,10.063,0,0,0-1.429,2.156" transform="translate(-248.531 -130.199)"/><path class="ad" d="M281.009,169.855a200.27,200.27,0,0,1,2.257,21.392c.36,7,.366,14.111,2.272,20.858" transform="translate(-243.521 -131.609)"/><path class="ad" d="M240.332,188.2q.767-5.812,2.085-11.533" transform="translate(-230.287 -133.825)"/><path class="ad" d="M299.6,165.055a3.45,3.45,0,0,0-1.565.36" transform="translate(-249.06 -130.047)"/><path class="ad" d="M247.3,169.383a6.432,6.432,0,0,0-2.2,3.419" transform="translate(-231.838 -131.455)"/><path class="ac" d="M241.946,260.442c8.66.523,17.609,2.324,25.829-.453" transform="translate(-230.812 -160.933)"/><path class="ae" d="M281.046,159.011l5.339,16.45a2.713,2.713,0,0,1-.229,2.676l-3.67,7.383" transform="translate(-243.533 -128.081)"/><path class="ae" d="M290.525,274.151q4.545-.345,9.1-.482" transform="translate(-246.617 -165.383)"/><path class="ae" d="M290.464,274.449a14.728,14.728,0,0,0,.522,2.048,2.609,2.609,0,0,0,.617,1.123,2.9,2.9,0,0,0,2.2.466l2.521-.153c1.146-.069,2.452-.224,3.114-1.163s.36-2.245.026-3.356" transform="translate(-246.597 -165.3)"/><path class="ae" d="M290.07,275.363q.552,4.6,1.329,9.171a2.726,2.726,0,0,0,.53,1.415,2.123,2.123,0,0,0,1.133.577,9.072,9.072,0,0,0,4.41-.472,4.572,4.572,0,0,0,2.641-1.467,4.652,4.652,0,0,0,.38-3.3q-.265-2-.529-4" transform="translate(-246.469 -165.934)"/><path class="ae" d="M295.964,173.141a46.674,46.674,0,0,0-1.015,12.934" transform="translate(-248.028 -132.678)"/><path class="ae" d="M282.7,159.941a12.439,12.439,0,0,1,8.989,4.492" transform="translate(-244.073 -128.384)"/><g transform="translate(23.221 76.72)"><rect class="af" width="21.441" height="29.067" transform="translate(0 18.781) rotate(-61.158)"/><rect class="ag" width="6.619" height="3.885" rx="1.608" transform="translate(1.958 11.646) rotate(-61.157)"/></g><g transform="translate(35.714 35.453)"><path class="ad" d="M293.776,194.949c.513,3.815.907,7.653,1.724,11.419.566,2.611,2.079,5.023,2.767,7.637.736,2.794-7.813,15.3-9.188,17.655" transform="translate(-281.86 -175.226)"/><path class="b" d="M285.3,253.309a7.8,7.8,0,0,1-1.86.814,12.688,12.688,0,0,0-4.111,2.484c-.621.561-1.225,1.443-.808,2.169.105.184.266.331.36.521a2.107,2.107,0,0,1-.14,1.482c-.27.934-.067,2.175.848,2.5.588.211,1.294-.034,1.837.276a3.591,3.591,0,0,0,.623.4c.3.1.64-.039.944.053.352.107.548.482.864.671.671.4,1.512-.161,2.009-.768a7.863,7.863,0,0,0,1.708-3.972,9.31,9.31,0,0,1,1.73-4.766,6.579,6.579,0,0,0,1.654-2.593.564.564,0,0,0,0-.384.676.676,0,0,0-.281-.264l-1.774-1.116a2.4,2.4,0,0,0-1.223-.482c-.855,0-.764.65-.963,1.2a4.128,4.128,0,0,1-1.417,1.775Z" transform="translate(-278.379 -193.245)"/><path class="c" d="M298.346,165.715c-2.768,6-5.536,13.048-4.638,19.723.513,3.815.907,7.653,1.724,11.419.566,2.611,2.079,5.023,2.767,7.637.736,2.794-7.954,15.629-9.33,17.987a13.438,13.438,0,0,0,9.325,5.978c1.815-1.32,8.593-14.109,10.048-15.8,1.785-2.074,3.724-3.938,4.436-6.666a15.369,15.369,0,0,0-.21-7.674,88.537,88.537,0,0,0-4.64-12.439c-1.948-4.538-3.3-9.292-5.085-13.887C302.028,170.163,300.267,166.539,298.346,165.715Z" transform="translate(-281.792 -165.715)"/><path class="ae" d="M303.6,223.532a3.9,3.9,0,0,1,4.039.756" transform="translate(-286.584 -184.438)"/><path class="ae" d="M303.773,225.089a4.354,4.354,0,0,1,3.552,4.436" transform="translate(-286.641 -185.031)"/><path class="ae" d="M289.032,249.7a11.678,11.678,0,0,0,8.639,5.318" transform="translate(-281.845 -193.037)"/><path class="ae" d="M302.9,254.659a25.964,25.964,0,0,0,2.952-3.209" transform="translate(-286.357 -193.607)"/><path class="ah" d="M279.354,263.578a6.891,6.891,0,0,1,.674-1.088" transform="translate(-278.696 -197.199)"/><path class="ah" d="M282.564,269.187l.549-.708" transform="translate(-279.741 -199.148)"/><path class="ah" d="M285.438,270.128l.574-.647" transform="translate(-280.676 -199.474)"/></g><path class="ah" d="M274.65,139.3a1.978,1.978,0,0,1,.967-1.191,1.053,1.053,0,0,1,.489-.14.745.745,0,0,1,.716.673" transform="translate(-241.452 -121.236)"/><path class="ah" d="M275.2,138.989a2.229,2.229,0,0,1,.879.011" transform="translate(-241.632 -121.555)"/><path class="s" d="M263.383,132.668a2.451,2.451,0,0,1,.382.712.97.97,0,0,1-.078.784c-.045.071-.127.14-.2.106a.192.192,0,0,1-.088-.113,2.264,2.264,0,0,1-.123-1.318" transform="translate(-237.735 -119.511)"/><path class="s" d="M255.908,133.5a1.941,1.941,0,0,1,.13,1.212,1.51,1.51,0,0,1-.294-1.206" transform="translate(-235.293 -119.781)"/><path class="t" d="M253.4,116.25a1.837,1.837,0,0,0-.723,2.242,2.856,2.856,0,0,0,1.9,1.6,6.774,6.774,0,0,0,2.558.125q1.1-.107,2.188-.323a9.222,9.222,0,0,1,3.4-.329,2.49,2.49,0,0,1,2.189,2.268" transform="translate(-234.262 -114.169)"/><path class="t" d="M253.282,123a3.457,3.457,0,0,0,5.1,1.18" transform="translate(-234.5 -116.364)"/><path class="t" d="M273.25,125.561a1.352,1.352,0,0,1,1.059.81,3.128,3.128,0,0,1,.23,1.366,9.63,9.63,0,0,1-.23,2.033,3.606,3.606,0,0,0-.156,1.257.99.99,0,0,0,.775.893" transform="translate(-240.997 -117.199)"/><path class="t" d="M275.95,132.1a2.78,2.78,0,0,0,1.8,2.672" transform="translate(-241.874 -119.326)"/><path class="t" d="M272.514,123.441a1.092,1.092,0,0,1,.28-.432,7.336,7.336,0,0,1,4.562-2.3" transform="translate(-240.757 -115.621)"/><path class="t" d="M269.173,115.976a4.057,4.057,0,0,1,2.783,3.652" transform="translate(-239.67 -114.08)"/><path class="t" d="M280.737,132.61c.124.635.408,1.231.522,1.867a4.271,4.271,0,0,1-.6,2.912,6.43,6.43,0,0,1-2.158,2.1" transform="translate(-242.705 -119.492)"/><path class="t" d="M282.118,139.13a5.25,5.25,0,0,1-2.5,2.839" transform="translate(-243.067 -121.613)"/><g transform="translate(15.291 28.924)"><path class="ai" d="M277.259,156.038c2.093,1.322,3.367,5.507,3.473,8.413a42.677,42.677,0,0,1-.868,8.665" transform="translate(-257.592 -156.038)"/><path class="ai" d="M271.925,196.868a24.569,24.569,0,0,1,3.6-12.869,4.03,4.03,0,0,1,2.366-2.1,2.927,2.927,0,0,1,2.884,1.465,7.976,7.976,0,0,1,.951,3.278,74,74,0,0,1,.484,14.194" transform="translate(-255.857 -164.437)"/><path class="ai" d="M271.935,204.06a27.5,27.5,0,0,0-.2,4.725,4.5,4.5,0,0,0,.563,2.368,1.689,1.689,0,0,0,2.133.672" transform="translate(-255.787 -171.661)"/><path class="ai" d="M275.874,214.659a1.663,1.663,0,0,0-.016,1.76,5.04,5.04,0,0,0,.047-1.862,1.419,1.419,0,0,0,.213,1.26.547.547,0,0,1,.063-.345.337.337,0,0,0-.012-.339c-.08-.088-.278-.006-.226.1" transform="translate(-257.057 -175.076)"/><path class="ai" d="M285.267,209.612q-.129,1.212-.342,2.413a3.17,3.17,0,0,1-.724,1.762,3.337,3.337,0,0,1-2.36.646" transform="translate(-259.083 -173.467)"/><path class="ai" d="M281.015,215.908a2.225,2.225,0,0,0-.16,1.317.266.266,0,0,0,.08.169c.151.113.31-.135.337-.321l.129-.862c.026-.169-.026-.421-.2-.391-.1.018-.143.126-.168.22a2.965,2.965,0,0,0-.053,1.295,1.41,1.41,0,0,0,.084-.658q-.046.18-.09.36" transform="translate(-258.75 -175.486)"/><path class="ai" d="M257.372,157.068a12.932,12.932,0,0,0-4.294,5.594,29.961,29.961,0,0,0-1.815,6.892,33.152,33.152,0,0,0-.471,9.64" transform="translate(-248.923 -156.373)"/><path class="ai" d="M250.048,189.209a1.641,1.641,0,0,0-.768,3.186,1.555,1.555,0,0,0,1.869-1.137,1.45,1.45,0,0,0-1.355-1.665,1.358,1.358,0,0,0-1.23,1.706,1.036,1.036,0,0,0,.388.523.872.872,0,0,0,.959-1.457.552.552,0,0,0-.438-.09c-.349.1-.391.571-.357.932a.538.538,0,0,0,.2.443c.227.128.493-.136.54-.392.042-.235-.053-.53-.285-.582s-.419.354-.192.43a.475.475,0,0,0,.342-.23l-.012.519" transform="translate(-248.108 -166.821)"/></g><path class="aj" d="M254.673,130.761a1.306,1.306,0,0,1,1.99.487" transform="translate(-234.953 -118.801)"/><path class="s" d="M260.96,131.013a3.066,3.066,0,0,1,3.458-.579" transform="translate(-236.998 -118.687)"/><path class="u" d="M259.324,138.632a10.476,10.476,0,0,0,1.548,8.543" transform="translate(-236.361 -121.451)"/></g></g></svg>