<svg xmlns="http://www.w3.org/2000/svg" width="130.243" height="214.223" viewBox="0 0 130.243 214.223"><defs><style>.a{fill:#fab29a;}.b{fill:#cc8a79;}.b,.f,.p{opacity:0.5;}.c{fill:#e29b88;}.d{fill:#fff;}.e,.f{fill:#129486;}.g{fill:#1cbaa8;}.h{fill:#51cebc;}.i{fill:#280600;}.j{fill:#5c96c2;}.k{fill:#e29386;}.l{fill:#e6e6e6;}.m{fill:#666;}.n{fill:#72342e;}.o,.p{fill:#ccc;}.q{fill:#b3b3b3;}.r{fill:#999;}.s{fill:none;stroke:#e29386;stroke-linecap:round;stroke-miterlimit:10;}</style></defs><g transform="translate(-1492.002 -5908.159)"><path class="a" d="M188.841,171.863s-.9,4.168-2.445,8.81c-1.986,5.928-5.033,12.624-8.651,12.443-3.386-.173-12.436-4.491-20.268-8.561-1.5-.776-2.95-1.542-4.3-2.272a6.751,6.751,0,0,1-3.475-.173c-1.016-.482-6.884-3.025-10.826-4.965A18.143,18.143,0,0,1,135.3,175.1c-1.039-1.181-2.566-5.966-1.5-7.155a46.773,46.773,0,0,1,3.55-3.25s.136.038.369.113a18.227,18.227,0,0,1,2.777,1.06c1.361.693,6.2,4.176,6.2,4.176a11.562,11.562,0,0,1-.812-1.94c-.278-.956,1.106-2.626,1.106-2.626a59.244,59.244,0,0,1,6.319,5.371,7.752,7.752,0,0,1,1.316,3.958l.7.315c7.869,3.566,18.928,8.305,19.567,7.207a48.386,48.386,0,0,0,2.341-6.3c.707-2.167,1.27-4.04,1.27-4.04Z" transform="translate(1387.887 5801.967)"/><path class="b" d="M157.132,184.546c-1.5-.776-2.95-1.542-4.3-2.272a6.751,6.751,0,0,1-3.475-.173c-1.016-.482-6.884-3.025-10.826-4.965-.445-4.56-.873-9.292-1.152-12.339a18.228,18.228,0,0,1,2.777,1.061c1.361.693,6.2,4.176,6.2,4.176a11.562,11.562,0,0,1-.812-1.94c-.278-.956,1.106-2.626,1.106-2.626a59.242,59.242,0,0,1,6.319,5.371,7.752,7.752,0,0,1,1.316,3.958l.7.315a71.745,71.745,0,0,1,2.147,9.434Z" transform="translate(1388.232 5801.977)"/><path class="c" d="M152.286,184.46l-2.508,23.2-4.138-13.166.376-9.153,3.135-2.006Z" transform="translate(1388.957 5803.602)"/><g transform="translate(1560.901 6107.328)"><path class="d" d="M199.914,300.914v5.4H170.032l.023-.053,1.016-2.588,4.138-1.5,3.754-2.219,1.2-.715,1.023-.6,1.2-.707,1.143-.677,1.174-.692,4.3-2.543,9.306,1.49,1.362,4.574Z" transform="translate(-169.806 -294.022)"/><rect class="e" width="30.341" height="2.814" transform="translate(0 12.24)"/><g transform="translate(9.019 4.839)"><path class="e" d="M179.991,301.187a.69.69,0,0,1-.517-.233l-1.184-1.336a.69.69,0,1,1,1.032-.916l1.184,1.337a.69.69,0,0,1-.516,1.148Z" transform="translate(-178.117 -298.471)"/></g><g transform="translate(11.261 3.546)"><path class="e" d="M182.051,300a.686.686,0,0,1-.516-.233l-1.184-1.336a.689.689,0,0,1,1.031-.915l1.184,1.336A.69.69,0,0,1,182.05,300Z" transform="translate(-180.178 -297.282)"/></g><g transform="translate(13.675 2.296)"><path class="e" d="M184.27,298.849a.69.69,0,0,1-.516-.233l-1.184-1.336a.69.69,0,0,1,1.031-.916l1.186,1.337a.69.69,0,0,1-.517,1.147Z" transform="translate(-182.397 -296.133)"/></g></g><path class="f" d="M198.3,305.774v2.814h-7.245v-2.814a2.241,2.241,0,0,1,.745-1.671l.677-1.737a2.242,2.242,0,0,1,1.339-1.3l3.935-1.422.067-.046.248.828v5.349Z" transform="translate(1392.939 5813.794)"/><g transform="translate(1587.01 6107.325)"><path class="d" d="M213,294.02l-13.792,8.161-4.138,1.494-1.034,2.643H223.92v-5.4l-1.609-5.4Z" transform="translate(-193.81 -294.02)"/><rect class="e" width="30.343" height="2.816" transform="translate(0 12.241)"/><g transform="translate(9.023 4.841)"><path class="e" d="M204,301.187a.688.688,0,0,1-.516-.233l-1.184-1.336a.69.69,0,0,1,1.031-.916l1.184,1.337a.69.69,0,0,1-.516,1.148Z" transform="translate(-202.125 -298.471)"/></g><g transform="translate(11.264 3.549)"><path class="e" d="M206.059,300a.686.686,0,0,1-.517-.233l-1.184-1.336a.69.69,0,1,1,1.032-.915l1.184,1.336a.69.69,0,0,1-.516,1.147Z" transform="translate(-204.185 -297.282)"/></g><g transform="translate(13.677 2.299)"><path class="e" d="M208.278,298.849a.688.688,0,0,1-.516-.233l-1.186-1.336a.69.69,0,1,1,1.032-.916l1.184,1.337a.69.69,0,0,1-.516,1.147Z" transform="translate(-206.404 -296.133)"/></g></g><path class="g" d="M223.966,305.641s-5.267.188-9.216,0l-4.139-1.881-7.944-78.054h-4.385l.549,80.687-7.147.248c-4.867-.73-6.771-2.129-6.523-4.762l-1.129-83.328v-.219l-.052-3.987-.933-12.962c0-.918.015-1.5.015-1.5h35.592s.038.549.1,1.46c.023.353.053.76.083,1.2.2,3.024.5,7.989.572,11.337a23.528,23.528,0,0,1-.067,3.107c-.038.263-.09.707-.15,1.264-.271,2.528-.745,7.351-1.137,8.013Z" transform="translate(1392.236 5805.052)"/><path class="b" d="M185.311,171.285s-.9,4.168-2.445,8.81a87.8,87.8,0,0,1-9.163-4.65c.707-2.167,1.27-4.04,1.27-4.04Z" transform="translate(1391.417 5802.544)"/><path class="h" d="M186.673,152.83l-1.363.289s-6.018,3.424-8.689,9.6c-1.794,4.146-4.155,12.227-4.155,12.227l13.654,3.93,2.125-19.829-.852-5.42Z" transform="translate(1391.309 5800.926)"/><path class="f" d="M219.347,216.873c-.038.263-.09.707-.15,1.264-9.638-.745-23.052-1.994-35.217-3.912l-.933-12.962,35.8,1.166c.2,3.024.5,7.989.572,11.337A23.531,23.531,0,0,1,219.347,216.873Z" transform="translate(1392.236 5805.173)"/><path class="g" d="M222.372,217.4l-10.57.987-7.456-.038-4.078-.023c-2.151.03-4.649-.015-7.117-.09-6.026-.2-11.834-.594-11.834-.594s.256-23.277.24-29.657c-.015-4.3.444-9.826.053-14.37-.09-.444-.188-.932-.286-1.459.211-10.917,2.407-16.852,3.378-18.952,2.956-1.813,7.4-4.95,11.307-5.311l4.453-.121,1.083-.03,1.6-.225c10.841,2.174,15.8,6.831,15.8,6.831.8,7.952-.459,16.5-1.016,20.156-.142,4.566-.526,12.714.467,16.724.3,1.226.632,2.874.955,4.754.43,2.453.866,5.289,1.273,8.088C221.6,210.866,222.372,217.4,222.372,217.4Z" transform="translate(1392.085 5800.46)"/><path class="f" d="M219.733,200.158c-3.724,2.753-7.7,5.665-8.652,6.108a12.888,12.888,0,0,0-2.754,1.625s-.819,3.2-4.875,6.546l-4.078-.023c-2.151.03-4.649-.015-7.117-.09a8.462,8.462,0,0,1-.737-1.166l18.936-14.415,8-6.673C218.89,194.523,219.326,197.359,219.733,200.158Z" transform="translate(1392.979 5804.367)"/><path class="a" d="M226.746,191.694c-1.671,4.342-25.993,20.381-25.993,20.381l-4.1-6.838s21.622-14.1,21.538-18.018c-.037-1.512-.3-4.01-.617-6.492-.24-1.919-.519-3.837-.736-5.289-.219-1.52-.384-2.543-.384-2.543l9.163-.571s.166.888.392,2.286c.241,1.505.557,3.6.813,5.839C227.3,184.728,227.573,189.535,226.746,191.694Z" transform="translate(1393.429 5802.635)"/><path class="b" d="M225.194,180.264a89.459,89.459,0,0,1-9.246.278c-.24-1.919-.519-3.837-.736-5.289l9.17-.828C224.623,175.93,224.938,178.022,225.194,180.264Z" transform="translate(1395.056 5802.82)"/><path class="h" d="M213.481,179.28c-.161,0-2.161-12.682-1.4-17.517s1.98-7.929,3.189-8.126,6.459,1.949,8.259,6.031c1.786,4.048,3.949,19.56,3.949,19.56l-13.73,2.184Z" transform="translate(1394.767 5800.996)"/><path class="e" d="M196.469,170.326l-1.766-.1.69-11.575,1.766.1Z" transform="translate(1393.258 5801.436)"/><path class="a" d="M203.883,151.169l-3.337,6.251a24.507,24.507,0,0,1-4.653,6.471l-2.084-11.335-.11-.588,1.849-5.686.008-3.924.008-2.108,7.677.016.009.3.25,6.557a7.17,7.17,0,0,0,.149,1.042C203.844,149.258,204.157,150.761,203.883,151.169Z" transform="translate(1393.17 5799.822)"/><path class="b" d="M203.648,148.135c-1.739,1.48-4.739,3.18-9.839,4.4l-.11-.588,1.849-5.686.008-3.924,7.693-1.795.25,6.557A7.174,7.174,0,0,0,203.648,148.135Z" transform="translate(1393.17 5799.85)"/><g transform="translate(1576.342 5947.55)"><path class="i" d="M195.088,148.748l.528-1.624c-4.727,1.652-6.769,5.942-6.05,12.816,1.02,9.749-1.971,14.683-2,14.731l1.136.714c.134-.213,3.273-5.329,2.2-15.584C190.181,152.917,192.4,150.025,195.088,148.748Z" transform="translate(-183.71 -147.124)"/><g transform="translate(0 26.345)"><path class="d" d="M191.466,175.22a3.727,3.727,0,1,1-3.5-3.868A3.688,3.688,0,0,1,191.466,175.22Z" transform="translate(-184.021 -171.345)"/><path class="j" d="M189.249,174.933a1.671,1.671,0,1,1-1.568-1.734A1.653,1.653,0,0,1,189.249,174.933Z" transform="translate(-183.855 -171.183)"/></g></g><g transform="translate(1576.368 5908.16)"><path class="a" d="M187.579,130.179s-.549-2.359-2.526-2.107-1.077,6.963,2.917,6.717Z" transform="translate(-184.044 -109.405)"/><path class="b" d="M187.1,130.563s-1.076-1.158-1.77-.741-.186,1.3.266,1.73a1.376,1.376,0,0,0,1.021.37s-.461.534-.44.844,1.345,1.1,1.345,1.1Z" transform="translate(-183.961 -109.258)"/><path class="i" d="M211.553,115.248a5,5,0,0,0-3.9-1.359c-1.2-.792-3.844-4.446-15.016-2.33-5.729,1.085-9.528,6.742-7.576,11.214a29.4,29.4,0,0,0,.226,6.834,1.854,1.854,0,0,1,.8,1.333,11.2,11.2,0,0,1,.057,2.287l.559.867s.053-1.638-.025-3.388c.274.669.579,1.331.92,1.981,3.893,7.4,14.958-6.689,18.312-11.263-.606,6.335-1.359,14.455-1.24,14.5.194.072-.512,5.666,3.687,5.085s4.775-10.23,5.036-10.221S213.576,117.274,211.553,115.248Z" transform="translate(-184 -110.909)"/><path class="a" d="M207.7,128.739a3.393,3.393,0,0,1,3.435-2.581c2.745.191,1.7,8.043-3.837,7.965Z" transform="translate(-182.006 -109.572)"/><path class="b" d="M208.223,129.163s1.455-1.4,2.43-.954.3,1.5-.318,2.027a2.185,2.185,0,0,1-1.4.483s.656.6.636.958-1.831,1.35-1.831,1.35Z" transform="translate(-181.967 -109.399)"/><path class="a" d="M210.525,132.758a18.632,18.632,0,0,1-.415,2.961,16.667,16.667,0,0,1-7.543,11.124c-7.5,4.5-11.179.658-14.187-4.1-2.876-4.56-1.457-13.254-1.912-15.824a5.59,5.59,0,0,1-.086-.948,11.45,11.45,0,0,1,.839-4.214c10.128-11.821,22.529-.925,22.529-.925S210.69,130.016,210.525,132.758Z" transform="translate(-183.839 -110.44)"/><path class="b" d="M210.525,132.758a18.632,18.632,0,0,1-.415,2.961c-2.138-2.107-1.5-6.706-1.5-6.706-4.176-1.9-5.876-6.791-5.876-6.791-4.183,2.828-13.827,3.6-16.356,3.744a11.451,11.451,0,0,1,.839-4.214c10.128-11.821,22.529-.925,22.529-.925S210.69,130.016,210.525,132.758Z" transform="translate(-183.839 -110.44)"/><path class="k" d="M196.882,133.862c0,.629-1.075,1.144-2.408,1.152s-2.417-.5-2.42-1.127,1.075-1.144,2.408-1.151S196.879,133.232,196.882,133.862Z" transform="translate(-183.342 -108.995)"/><g transform="translate(4.244 15.136)"><path class="i" d="M188.6,126.876a.7.7,0,0,1-.442-1.2,3.206,3.206,0,0,1,4.307-.052.7.7,0,1,1-.861,1.1,1.812,1.812,0,0,0-2.467-.052.7.7,0,0,1-.537.2Z" transform="translate(-187.946 -124.825)"/></g><g transform="translate(15.547 15.032)"><path class="i" d="M198.988,126.78a.7.7,0,0,1-.441-1.2,3.206,3.206,0,0,1,4.307-.052.7.7,0,0,1-.861,1.1,1.812,1.812,0,0,0-2.468-.051A.7.7,0,0,1,198.988,126.78Z" transform="translate(-198.338 -124.729)"/></g><g transform="translate(5.608 18.447)"><path class="i" d="M191.1,129.6c0,.957-.429,1.733-.954,1.732s-.951-.778-.948-1.734.429-1.733.954-1.732S191.1,128.646,191.1,129.6Z" transform="translate(-189.2 -127.869)"/><path class="d" d="M189.953,128.884c-.007.2-.122.356-.257.351s-.239-.169-.233-.368.121-.355.257-.35S189.96,128.686,189.953,128.884Z" transform="translate(-189.177 -127.812)"/></g><g transform="translate(16.808 18.487)"><path class="i" d="M201.4,129.639c0,.957-.429,1.733-.955,1.732s-.95-.777-.948-1.734.429-1.733.954-1.732S201.4,128.683,201.4,129.639Z" transform="translate(-199.497 -127.905)"/><path class="d" d="M200.25,128.92c-.007.2-.121.356-.257.351s-.239-.169-.233-.367.122-.356.257-.351S200.257,128.722,200.25,128.92Z" transform="translate(-199.474 -127.848)"/></g><path class="i" d="M210.731,120.748s-.157-3.58-2.217-5.418l.454-.607s-8.265-5.075-13.632-2.775S185.114,117.157,186,126.07c0,0,9.2-1.042,16.788-5.523.587,1.4,2.248,4.628,5.537,5.914a25.2,25.2,0,0,0,.027,7.133l2.514-.955Z" transform="translate(-183.882 -110.87)"/><path class="d" d="M191.115,137.11l8.954-.165s-1.506,4.131-4.777,4.285S191.115,137.11,191.115,137.11Z" transform="translate(-183.424 -108.626)"/></g><g transform="translate(1594.908 5947.016)"><path class="i" d="M204.9,148a8.317,8.317,0,0,0-2.192-1.365,8.438,8.438,0,0,0,.145.968c.038.214.08.445.123.679a6.5,6.5,0,0,1,1.045.732c2.122,1.838,3.1,4.925,2.9,9.176l1.34.061C208.483,153.568,207.352,150.119,204.9,148Z" transform="translate(-200.947 -146.633)"/><g transform="translate(0 10.443)"><path class="d" d="M211.272,174.474a.847.847,0,0,1-.775.822l-2.608-.054a.135.135,0,0,0-.054-.008.806.806,0,0,1-.635-.893.84.84,0,0,1,.776-.861l1.23.023a.769.769,0,0,0,.721-.776,57.62,57.62,0,0,0-.165-10.16,8.616,8.616,0,0,0-1.3-4.176.975.975,0,0,0-.964-.384c-.917.165-1.771,1.59-2.515,3.627a52.827,52.827,0,0,0-2.272,10.238.692.692,0,0,0,.447.783l1.441.369a.855.855,0,0,1,.533,1.042.776.776,0,0,1-.893.673c-.431-.11-.854-.211-1.277-.321-.548-.141-1.457-.259-1.786-.861a1.361,1.361,0,0,1-.047-.816c.039-.431.094-.861.157-1.292.25-1.943.571-3.878.994-5.789A36.12,36.12,0,0,1,203.5,161.3a18.947,18.947,0,0,1,.736-1.794c.673-1.418,1.676-2.985,3.11-3.235a2.258,2.258,0,0,1,2.162.83c.979,1.113,1.512,3.259,1.786,5.687A66.829,66.829,0,0,1,211.272,174.474Z" transform="translate(-201.089 -156.234)"/></g><path class="i" d="M211.094,162.787l-1.528-.22a8.616,8.616,0,0,0-1.3-4.176.975.975,0,0,0-.964-.384c-.917.165-1.771,1.59-2.515,3.627L203.3,161.3a18.956,18.956,0,0,1,.736-1.794c.673-1.418,1.676-2.985,3.11-3.235a2.258,2.258,0,0,1,2.162.83C210.287,158.212,210.82,160.358,211.094,162.787Z" transform="translate(-200.896 -145.791)"/></g><g transform="translate(1491.999 5919.771)"><path class="l" d="M133.422,131.169a6.387,6.387,0,0,1-8.338,2.927c-.09-.038-.172-.077-.262-.124a6.4,6.4,0,0,1,5.8-11.4c.089.047.178.092.261.147A6.39,6.39,0,0,1,133.422,131.169Z" transform="translate(-105.174 -121.559)"/><path class="l" d="M133.119,131.1a6.387,6.387,0,0,1-8.338,2.927c.741-6.43,3.834-9.835,5.8-11.38A6.39,6.39,0,0,1,133.119,131.1Z" transform="translate(-104.871 -121.491)"/><path class="l" d="M156.427,126.148a6.82,6.82,0,0,0-4.018-.93,19.517,19.517,0,0,0-15.018-3.308c-9.929,1.747-18.931,18.3-5.83,32.525l8.176-11.175,2.557-3.233-1.192,6.6s8.463,7.073,13.652-1.133S158.852,127.591,156.427,126.148Z" transform="translate(-104.85 -121.584)"/><path class="m" d="M169.925,304.549a3.95,3.95,0,1,1-3.95-3.949,3.95,3.95,0,0,1,3.95,3.949Z" transform="translate(-101.606 -105.889)"/><path class="c" d="M161.727,218.338c-.212-1.66-2.986-5.248-2.986-5.248l-4.68-1.721-8.458-.587-.2,1.833,3.8,3.585c.115,1.221.471,4.5.979,4.942a2.964,2.964,0,0,0,1.807.469,2.215,2.215,0,0,0,2.731.125,1.866,1.866,0,0,0,2.632,1.13s3.1,2.384,4.07-.71a12.807,12.807,0,0,0,.3-3.818Z" transform="translate(-103.063 -113.764)"/><g transform="translate(29.731 142.08)"><path class="a" d="M143.266,310.48l-1.677-.135-5.891-.467-.737-.061s0-.579.067-1.452c.023-.293.053-.632.09-.985.061-.488.144-1.022.257-1.564a10.141,10.141,0,0,1,1.143-3.3c.557-.91,1.008-4.153,1.347-8.569.219-2.912.4-6.327.526-9.915.234-6.244.324-13.024.286-18.591V252.212l7.531,5.259s1.354,7.388,1.625,11.45c.121,1.821-.361,8.562-.926,15.475-.338,4.123-.7,8.307-.993,11.534-.308,3.469-.534,5.838-.534,5.838a26.676,26.676,0,0,0,3.469,3.251,18.452,18.452,0,0,0,5.04,2.9C158.569,309.592,156.109,311.135,143.266,310.48Z" transform="translate(-133.709 -252.212)"/><path class="b" d="M146.674,281.832c-.338,4.123-.7,8.307-.993,11.534-2.761-.594-5.808-1.377-8.05-1.986.219-2.912.4-6.327.526-9.915Z" transform="translate(-133.475 -249.647)"/><path class="i" d="M135.056,301.47s7.618,2.5,14.4-.952c0,0,5.475,3.094,9.166,3.571s3.809,3.452,1.31,3.928H134.461S133.152,305.815,135.056,301.47Z" transform="translate(-133.791 -247.977)"/><path class="n" d="M161.592,307.932H134.241a.43.43,0,0,1-.431-.431h0a.43.43,0,0,1,.431-.43h27.352a.43.43,0,0,1,.43.43h0a.43.43,0,0,1-.431.431Z" transform="translate(-133.81 -247.402)"/></g><g transform="translate(9.793 147.339)"><path class="a" d="M137.3,309.454a5.955,5.955,0,0,1-1.746.459,57.9,57.9,0,0,1-10.622.142l-8.305-.662a22.989,22.989,0,0,1,.413-4,10.167,10.167,0,0,1,1.143-3.3c.549-.888.985-4.032,1.325-8.328.225-2.874.406-6.26.542-9.833.24-6.335.331-13.249.294-18.914l-2.792-6.583,10.322-1.385s1.354,7.387,1.625,11.45c.121,1.851-.376,8.8-.955,15.822-.331,4.062-.692,8.148-.97,11.3-.309,3.408-.528,5.724-.528,5.724a26.674,26.674,0,0,0,3.469,3.251,18.453,18.453,0,0,0,5.04,2.9l.241.09a7.738,7.738,0,0,1,.834.353C137.832,308.514,138.1,309.048,137.3,309.454Z" transform="translate(-115.379 -257.047)"/><path class="b" d="M128.316,282.153c-.331,4.062-.692,8.148-.97,11.3-2.453-.49-5.508-1.219-8.065-1.859.225-2.874.406-6.26.542-9.833Z" transform="translate(-115.147 -254.88)"/><path class="i" d="M116.726,301.47s7.619,2.5,14.4-.952c0,0,5.475,3.094,9.166,3.571s3.809,3.452,1.31,3.928H116.131S114.822,305.815,116.726,301.47Z" transform="translate(-115.461 -253.236)"/><path class="n" d="M143.262,307.932H115.911a.431.431,0,0,1-.431-.431h0a.431.431,0,0,1,.431-.43h27.352a.43.43,0,0,1,.431.43h0a.43.43,0,0,1-.432.431Z" transform="translate(-115.48 -252.661)"/></g><path class="d" d="M154.034,256.425,152.116,296l-16.45-.9,1.7-22.579-.087-19.21-.582-21.594-1.211-.016-1.451,30.572-3.049,33.615-16.1-1.406,1.8-30.568-.358-34.871a12.4,12.4,0,0,1-.834-2.269,16.832,16.832,0,0,1,.018-8.057l15.755.573.007.061,20.587-.739.323,5.6Z" transform="translate(-105.739 -113.078)"/><path class="o" d="M152.171,224.206c-9.69,1.637-27.734,2.311-36.691,2.567a16.832,16.832,0,0,1,.018-8.057l15.755.573.007.061,20.587-.739Z" transform="translate(-105.729 -113.078)"/><path class="o" d="M143.619,189.383c-.079-.543-.161-1.151-.237-1.85l-.3-1.9c-.145,0-2.293-11.306-1.746-15.66s1.552-7.162,2.631-7.372,4.841,1.7,6.568,5.307c1.714,3.578,4.031,17.545,4.031,17.545s.112.782.246,2.015C152.224,187.917,147.23,188.769,143.619,189.383Z" transform="translate(-103.427 -117.99)"/><path class="d" d="M153.751,229.549,111.3,227.343l.16-10.177.22-13.661c2.237-8.1,4.433-16.3,4.55-24.767-.039-.409-.091-.856-.134-1.348,1.219-9.836,3.853-14.995,4.964-16.8.362-.17.756-.352,1.157-.543,2.889-1.372,6.729-3.213,10-3.179l4.21.318,1.02.075,1.531-.048a25.625,25.625,0,0,1,4.917,1.927,12.841,12.841,0,0,1,1.663,1.051,9.325,9.325,0,0,1,1.432,1.423c1.1,1.323,2.149,3,3.05,4.084,3.715,4.471,5.763,17.106,5.59,18.114-.708,4.219-2.2,3.532-2.579,6.149s.452,15.347.494,19.492S153.751,229.549,153.751,229.549Z" transform="translate(-106.053 -118.491)"/><path class="p" d="M131.687,228.147l-6.9-.358c-3.384-2.594-7.492-5.746-9.144-7a29.753,29.753,0,0,1-4.19-3.88l.22-13.661c2.237-8.1,4.433-16.3,4.55-24.767-.039-.409-.091-.856-.134-1.348,1.219-9.836,3.853-14.995,4.964-16.8.362-.17.756-.352,1.157-.543a2.519,2.519,0,0,1,2.684,1.21c1.487,2.834,3.952,13.389-3.052,29.72l-2.724-.64S116.331,205,115.94,207.739s7.1,13.055,11.2,16.4C129.193,225.834,130.7,227.2,131.687,228.147Z" transform="translate(-106.04 -118.236)"/><path class="a" d="M141.431,171.833s-1.071-.865-2.417-2.063-10.162-10.859-10.162-10.859l1.906-7.407,1.128-4.4,5.246,1.575s.3,7.544,1.282,9.829a32.261,32.261,0,0,1,1.6,5.085,70.413,70.413,0,0,1,1.417,8.24Z" transform="translate(-104.514 -119.347)"/><path class="m" d="M154.059,304.549a3.949,3.949,0,1,1-3.949-3.949,3.949,3.949,0,0,1,3.949,3.949Z" transform="translate(-102.997 -105.889)"/><g transform="translate(0 42.607)"><g transform="translate(43.471 70.005)"><path class="q" d="M151.7,309.974l-3.009.075-.444-16.9-.068-2.5-1.648-62.263-.06-2.152-.03-1.046,3.009-.075.023.873.06,2.287,1.655,62.315.075,3Z" transform="translate(-146.443 -225.119)"/></g><path class="r" d="M149.451,225.117l.081,3.163c-1.122.053-2.132.086-3,.109l-.088-3.193Z" transform="translate(-102.972 -155.114)"/><g transform="translate(57.901 63.467)"><path class="q" d="M167.729,310.892l-3.009.166-1.038-19-.151-2.716-3.385-62.075-.128-2.415-.173-3.047-.06-1.144-.075-1.392,3-.166.271,4.935.136,2.52,3.34,61.1.158,2.851Z" transform="translate(-159.71 -219.108)"/></g><path class="r" d="M163.118,226.564c-.941.263-1.941.5-2.972.707l-.436-8,3-.165Z" transform="translate(-101.809 -155.641)"/><g transform="translate(11.625 60.699)"><path class="q" d="M169.842,221.219c.121,1.513-1.279,2.4-3.13,3.048-.548.188-1.136.361-1.737.519-.392.106-.8.2-1.227.294a94.639,94.639,0,0,1-11.706,1.662l-3,.249c-10.706.812-22.329.932-26.4.947L120.8,290.366l-.1,3.2-.526,17.919-3.01-.09.549-18.461.083-2.8,1.881-63.752a1.506,1.506,0,0,1,1.5-1.46h.173c2.46,0,30.484-.067,42.22-2.9q.328-.078.632-.158c.67-.173,1.181-.331,1.58-.474a18.223,18.223,0,0,0-2.272-.511c-2.558-.444-6.139-.8-8.937-1.068l-.234-3.258C168.194,217.871,169.76,220.242,169.842,221.219Z" transform="translate(-117.164 -216.563)"/></g><path class="m" d="M121.348,308.341h-5a1.021,1.021,0,0,1-.836-1.3l.754-3.82a.914.914,0,0,1,.836-.8h3.488a.916.916,0,0,1,.838.8l.754,3.82a1.021,1.021,0,0,1-.834,1.3Z" transform="translate(-105.686 -148.337)"/><g transform="translate(21.092 67.743)"><path class="i" d="M128.109,228.2a2.257,2.257,0,0,1,.033-4.514c.088,0,8.984.054,15.554-.629a2.257,2.257,0,1,1,.467,4.49C137.341,228.251,128.483,228.2,128.109,228.2Z" transform="translate(-125.868 -223.04)"/></g><path class="a" d="M136.654,221.5l-5.515,4.266s-24.827-15.174-24.578-23.195a131.156,131.156,0,0,1,2.129-15.881c.429-2.347.753-3.935.753-3.935l8.78,1.505s-.61,2.565-1.249,5.732c-.82,4.138-1.686,9.3-1.257,11.075C116.469,204.194,136.654,221.5,136.654,221.5Z" transform="translate(-106.469 -158.829)"/><path class="b" d="M118.05,184.258s-.61,2.565-1.249,5.732c-2.6-.888-6.027-2.324-8.284-3.3.429-2.347.753-3.935.753-3.935Z" transform="translate(-106.297 -158.829)"/><path class="d" d="M119.9,189.462c.122-.576.249-1.223.375-1.968l.451-2.022c.174.011,3.309-11.986,2.858-16.672s-1.529-7.739-2.821-8.016-5.925,1.583-8.183,5.359c-2.241,3.746-5.707,18.577-5.707,18.577s-.172.831-.394,2.145C109.582,187.476,115.567,188.63,119.9,189.462Z" transform="translate(-106.476 -160.757)"/><path class="a" d="M143.745,225.894c-.263-1.8-3.419-5.661-3.419-5.661l-5.259-1.8-9.465-.514-.194,1.995,4.3,3.842c.148,1.326.6,4.889,1.169,5.359a3.394,3.394,0,0,0,2.026.482,2.531,2.531,0,0,0,3.056.1,2.1,2.1,0,0,0,2.96,1.19s3.257,2.381,4.3-1a9.849,9.849,0,0,0,.526-3.993Z" transform="translate(-104.816 -155.746)"/><path class="a" d="M154.228,221.069s-1.237-4.246-.417-5.312,3.409,0,3.323,5.149l.086.71a1.85,1.85,0,0,1-2.992-.547Z" transform="translate(-102.35 -155.968)"/><path class="a" d="M151.7,220.984s-.748-4.157-.4-5.045,1.726-.844,2.374.487a16.657,16.657,0,0,1,.761,4.647A1.957,1.957,0,0,1,151.7,220.984Z" transform="translate(-102.554 -155.972)"/><path class="a" d="M156.624,222.077s-.265-2.975-.219-4.292a1.254,1.254,0,0,1,1.834-1.269c.753.376.894,3.856.846,4.7l-.047.846-1.552.376A.886.886,0,0,1,156.624,222.077Z" transform="translate(-102.099 -155.881)"/><path class="q" d="M164.032,278.893a81.555,81.555,0,0,0-13.307-3.041l-.088,2.263a77.433,77.433,0,0,1,13.527,3.215h0Z" transform="translate(-102.604 -150.666)"/><path class="r" d="M120.754,284.435l-.1,3.2c-1-.188-2.054-.422-2.987-.632l.083-2.8Z" transform="translate(-105.495 -149.934)"/><path class="r" d="M151.126,288.318a29.3,29.3,0,0,1-3.017-.444l-.067-2.5,3.01-.061Z" transform="translate(-102.832 -149.836)"/><path class="r" d="M166.308,284.986a15.255,15.255,0,0,1-2.933,1.55l-.151-2.716,2.927-1.686Z" transform="translate(-101.501 -150.115)"/><path class="q" d="M171.5,281.037a3.97,3.97,0,0,0-1.378-1.158l.057,1.176a3.432,3.432,0,0,1-1.8,1.4h-.016c-1.56.671-5.083,1.558-12.879,2.5-6.031.729-37.684-1.117-38-1.136a1.129,1.129,0,1,0-.14,2.253c1.084.064,22.394,1.307,33.263,1.307a49.648,49.648,0,0,0,5.169-.186c10.584-1.282,14.88-2.53,15.853-4.6a1.6,1.6,0,0,0-.129-1.561Z" transform="translate(-105.62 -150.313)"/></g><path class="q" d="M152.129,304.4a2.163,2.163,0,1,1-2.163-2.162,2.163,2.163,0,0,1,2.163,2.162Z" transform="translate(-102.853 -105.745)"/><path class="m" d="M150.5,304.284a.658.658,0,1,1-.658-.658.658.658,0,0,1,.658.658Z" transform="translate(-102.731 -105.624)"/><path class="q" d="M167.994,304.4a2.163,2.163,0,1,1-2.163-2.162,2.163,2.163,0,0,1,2.163,2.162Z" transform="translate(-101.462 -105.745)"/><path class="m" d="M166.368,304.284a.659.659,0,1,1-.659-.658.659.659,0,0,1,.659.658Z" transform="translate(-101.34 -105.624)"/><path class="b" d="M139.861,163.59A35.409,35.409,0,0,1,130.6,151.5l1.128-4.4,5.246,1.575s.3,7.544,1.282,9.829a32.261,32.261,0,0,1,1.6,5.086Z" transform="translate(-104.361 -119.347)"/><path class="a" d="M150.714,142.7s.865-2.159,2.7-1.632.008,6.766-3.747,5.952Z" transform="translate(-102.689 -119.883)"/><path class="b" d="M150.977,143.131s1.189-.943,1.787-.446-.012,1.26-.5,1.6a1.32,1.32,0,0,1-1.024.2s.36.574.3.866-1.438.848-1.438.848Z" transform="translate(-102.652 -119.747)"/><path class="a" d="M131.887,138.433a3.26,3.26,0,0,0-2.886-2.95c-2.634-.219-2.788,7.387,2.483,8.119Z" transform="translate(-104.658 -120.366)"/><path class="b" d="M131.156,138.745s-1.177-1.544-2.168-1.26-.5,1.381.007,1.971a2.1,2.1,0,0,0,1.263.662s-.71.471-.744.817,1.541,1.549,1.541,1.549Z" transform="translate(-104.552 -120.193)"/><path class="a" d="M154.22,138.416a6.806,6.806,0,0,1-.306,1.486c-.807,2.367-.725,10.832-4.127,14.745-3.546,4.082-7.6,7.187-14.057,1.826-5.752-4.779-5.753-11.9-5.507-14.535a41.264,41.264,0,0,1,.81-4.316c.721-3.263,1.665-6.891,1.665-6.891s13.358-8.54,21.244,4.16A11.324,11.324,0,0,1,154.22,138.416Z" transform="translate(-104.401 -121.029)"/><path class="b" d="M154.149,138.416c-1.239-3-5.237-6.661-5.237-6.661A16.875,16.875,0,0,1,143.8,133.9c-3.117.756-12.343,4.724-12.343,4.724l-.5-1c.721-3.263,1.665-6.891,1.665-6.891s13.358-8.54,21.244,4.16A11.324,11.324,0,0,1,154.149,138.416Z" transform="translate(-104.329 -121.029)"/><path class="k" d="M141.35,144.861c-.1.6.854,1.243,2.119,1.443s2.367-.12,2.461-.716-.854-1.243-2.119-1.444S141.445,144.263,141.35,144.861Z" transform="translate(-103.419 -119.612)"/><g transform="translate(43.9 16.456)"><path class="l" d="M150.464,139.213a.671.671,0,0,0,.744-.973,3.078,3.078,0,0,0-3.938-1.266.671.671,0,0,0,.479,1.254,1.741,1.741,0,0,1,2.28.652.664.664,0,0,0,.435.333Z" transform="translate(-146.837 -136.714)"/></g><g transform="translate(32.588 15.62)"><path class="l" d="M140.468,137.7a.671.671,0,0,0,.268-1.2,3.08,3.08,0,0,0-4.107.5.671.671,0,1,0,.96.939,1.74,1.74,0,0,1,2.343-.364A.669.669,0,0,0,140.468,137.7Z" transform="translate(-136.437 -135.945)"/></g><g transform="translate(44.473 19.838)"><path class="i" d="M147.375,141.407c-.077.916.268,1.692.771,1.735s.973-.666,1.05-1.581-.268-1.692-.771-1.735S147.452,140.491,147.375,141.407Z" transform="translate(-147.364 -139.823)"/><path class="d" d="M148.415,140.808c-.011.19.087.35.216.357s.243-.141.252-.332-.087-.35-.216-.357S148.425,140.617,148.415,140.808Z" transform="translate(-147.272 -139.766)"/></g><g transform="translate(33.752 18.958)"><path class="i" d="M137.518,140.6c-.077.916.269,1.692.771,1.735s.973-.666,1.051-1.581-.269-1.694-.771-1.736S137.6,139.683,137.518,140.6Z" transform="translate(-137.507 -139.014)"/><path class="d" d="M138.558,140c-.01.19.087.349.216.357s.244-.142.253-.332-.087-.35-.216-.357S138.568,139.809,138.558,140Z" transform="translate(-137.415 -138.957)"/></g><path class="s" d="M140.009,148.52a4.031,4.031,0,0,0,2.844,2.358,2.653,2.653,0,0,0,2.949-1.331" transform="translate(-103.536 -119.223)"/><path class="l" d="M151.626,126.168c.264.1-.891,3.279-6.38,5.839s-11.927,5.765-13.078,7.442c0,0-2.866-3.707-2.845-5.211a41.649,41.649,0,0,1,1.4-6.188S135.437,120.119,151.626,126.168Z" transform="translate(-104.473 -121.382)"/><path class="l" d="M133.529,134.57s-2.862,7.61-1.741,12.892a10.947,10.947,0,0,1-1.982-6.485,67.229,67.229,0,0,1,1.107-7.7Z" transform="translate(-104.432 -120.559)"/><path class="l" d="M153.137,138.594l-2.373,8.619s.727-5.627,1.034-6.919.992-3.838.992-3.838Z" transform="translate(-102.593 -120.281)"/></g><path class="a" d="M185.75,212.409a1.781,1.781,0,0,1-.571-1.837c.393-1.014,6.356-4.272,6.356-4.272,1.945-1.052,4.188-2.25,4.188-2.25s-1.617-.216-3.212-.613a2.153,2.153,0,0,1-1.479-1.461.715.715,0,0,1,.672-.958,37.762,37.762,0,0,0,4.273-.227,43.62,43.62,0,0,1,5.153-.223l8.113.9s-1.056,2.42-2.893,6.565c-1.5,3.394-8.656,7.748-11.2,9.215-.308.177-2.265.941-2.838,1.174a1.939,1.939,0,0,1-2.681-.744,2.242,2.242,0,0,1-1.9-.561,1.84,1.84,0,0,1-.511-1.869l-.873-.21C184.995,214.493,185.75,212.409,185.75,212.409Z" transform="translate(1392.415 5805.111)"/></g></svg>