<svg xmlns="http://www.w3.org/2000/svg" xmlns:xlink="http://www.w3.org/1999/xlink" width="182.372" height="107.684" viewBox="0 0 182.372 107.684"><defs><style>.a{fill:none;}.b{fill:#181b1f;opacity:0.1;}.c{fill:#e6c673;}.d,.g{fill:#d1a965;}.d{opacity:0.38;}.e{fill:#3d3d3d;}.f{fill:#474747;}.h{fill:#e61122;}.i{fill:#ffc30d;}.j{fill:#fd0;}.k{fill:#fff;}.l{fill:#f0a700;}.m{fill:#ffc000;}.n{clip-path:url(#a);}.o{fill:#d48200;}.p{fill:#ffaf00;}.q,.v,.y{fill:#ffde00;}.r{opacity:0.6;}.s{fill:#ffe600;}.t,.u,.x{fill:#a20012;}.t{opacity:0.21;}.u{opacity:0.15;}.v{opacity:0.25;}.w{fill:#fabc00;}.x{opacity:0.11;}.y{opacity:0.59;}.z{fill:#ffe745;}.aa{clip-path:url(#b);}</style><clipPath id="a"><path class="a" d="M282.382,230.374c0,9.023-7.314,15.9-16.337,15.9s-16.337-6.877-16.337-15.9a16.337,16.337,0,0,1,32.674,0Z" transform="translate(-249.708 -214.037)"/></clipPath><clipPath id="b"><path class="a" d="M260.448,245.961c-12.309,0-21.95-9.409-21.95-21.419a21.95,21.95,0,0,1,43.9,0C282.4,236.553,272.756,245.961,260.448,245.961Z" transform="translate(-238.498 -202.593)"/></clipPath></defs><g transform="translate(-1011.63 -6012.657)"><ellipse class="b" cx="90.497" cy="2.491" rx="90.497" ry="2.491" transform="translate(1013.007 6115.358)"/><g transform="translate(1011.631 6012.662)"><path class="c" d="M100.734,243.782c26.577-.189,52.993,4.526,35.88-45.183-9.3-27.021-28.017-33.555-28.017-33.555L121.14,147.8a2.668,2.668,0,0,0-3.236-3.659l-3.88.643c-2.344.39-5.638-.561-7.137-2.4l-.314-.387a5.158,5.158,0,0,0-6.864-1.039l-2.847,1.9c-2.371,1.581-5.192,1.122-7.892.21-1.839-.623-7.712-.91-7.712-.91a1.006,1.006,0,0,0-.977,1.523l12.7,20.812s-16.119,10.971-24.9,34.109C51.8,241.5,74.6,243.968,100.734,243.782Z" transform="translate(-62.615 -140.092)"/><path class="d" d="M123.48,245.668c26.578-.109,52.993,4.526,35.88-45.183-9.3-27.021-28.017-33.555-28.017-33.555l12.543-17.239a2.668,2.668,0,0,0-3.236-3.659s-7.277,2.33-11.017-1.762l-.314-.387c-1.678-2.065-2.442,23.379-2.442,23.379,11.416,11.752-14.492,54.569-19.661,69.251C102.389,250.221,154.931,238.433,123.48,245.668Z" transform="translate(-85.362 -141.978)"/><path class="d" d="M120.106,167.227l-5.18-19.82s-.136.261-1.981,0a21.761,21.761,0,0,1-3.507-.686c-.334-.085-4.455-.3-4.651,0-.15.225,13.547,20.949,13.547,20.949Z" transform="translate(-84.276 -143.418)"/><path class="d" d="M123.045,193.642l-6.1,13.881,10.928-13.881Z" transform="translate(-90.522 -167.598)"/><rect class="e" width="20.879" height="2.709" rx="1.354" transform="translate(28.931 22.776) rotate(-6.507)"/><path class="f" d="M140.682,192.377H120.808a1.369,1.369,0,0,1-1.369-1.369h0a1.369,1.369,0,0,1,1.369-1.369h19.875a1.369,1.369,0,0,1,1.369,1.369h0a1.369,1.369,0,0,1-1.37,1.369Z" transform="translate(-91.803 -165.542)"/><path class="f" d="M160.329,206.649c-2.47-7.282-6.457-13.926-12.658-18.8.886-.443,2.215-1.772,2.658-1.329a42.45,42.45,0,0,1,12.456,18.536h0a1.28,1.28,0,0,1-1.269,1.625Z" transform="translate(-106.304 -163.894)"/><path class="f" d="M144.884,200.035a13.672,13.672,0,0,0,1.315-10.623,1.05,1.05,0,0,1,1.116-1.354c.639.072,1.176.165,1.221.36a14.755,14.755,0,0,1-1.253,12.881h0a1.716,1.716,0,0,1-1.982.143h0a1.046,1.046,0,0,1-.417-1.407Z" transform="translate(-104.809 -164.726)"/><path class="g" d="M75.535,315.335a5.151,5.151,0,0,0,2.484,5.931c3.523,2.018,7.543-2.147,7.543-2.147s-4.62,1.156-6.622,0a9.282,9.282,0,0,1-3.405-3.784Z" transform="translate(-69.156 -230.105)"/><path class="g" d="M92.829,330.553a5.151,5.151,0,0,0,3.535,5.37c3.835,1.334,7.018-3.5,7.018-3.5s-1.768,2.567-6.151,1.963C94.6,334.022,92.829,330.553,92.829,330.553Z" transform="translate(-78.126 -237.921)"/></g><path class="h" d="M93.825,250.717l79.7-77.73,34.982,17.4,33.535-29.976-3.971-4.4,18.683-4.242-3.339,18.719-4.679-4.219-37.961,38.842-37.25-16.288-50.044,61.9Z" transform="translate(932.985 5866.572)"/><g transform="translate(1053.387 6043.061)"><g transform="translate(43.625)"><g transform="translate(5.461 8.47)"><path class="i" d="M282.374,236.5c0,9.107-7.382,16.047-16.489,16.047S249.4,245.6,249.4,236.5a16.489,16.489,0,0,1,32.978,0Z" transform="translate(-249.396 -220.008)"/></g><path class="j" d="M260.117,245.961c-12.309,0-21.95-9.409-21.95-21.419a21.95,21.95,0,0,1,43.9,0C282.067,236.553,272.425,245.961,260.117,245.961Z" transform="translate(-238.167 -202.593)"/><path class="k" d="M263.818,211.462a18.467,18.467,0,0,0-18.446,18.446c0,10.033,8.1,17.893,18.446,17.893s18.446-7.859,18.446-17.893A18.467,18.467,0,0,0,263.818,211.462Z" transform="translate(-241.868 -207.149)"/><path class="l" d="M264.128,209.413a18.467,18.467,0,0,0-18.446,18.446c0,10.033,8.1,17.892,18.446,17.892s18.446-7.859,18.446-17.892A18.467,18.467,0,0,0,264.128,209.413Z" transform="translate(-242.027 -206.096)"/><path class="m" d="M263.818,210.765a18.467,18.467,0,0,0-18.446,18.446c0,10.033,8.1,17.892,18.446,17.892s18.446-7.859,18.446-17.892a18.467,18.467,0,0,0-18.446-18.446Z" transform="translate(-241.868 -206.791)"/><g transform="translate(5.613 5.566)"><g class="n"><g transform="translate(-2.665 -6.677)"><rect class="j" width="3.879" height="45.987" transform="translate(32.519) rotate(45)"/></g><g transform="translate(-0.838 -2.015)"><rect class="j" width="9.107" height="49.648" transform="translate(35.106) rotate(45)"/></g></g></g></g><g transform="translate(0 64.138)"><path class="o" d="M.523,0H42.8a.523.523,0,0,1,.523.523V8.478A.523.523,0,0,1,42.8,9H.524A.524.524,0,0,1,0,8.478V.523A.523.523,0,0,1,.523,0Z" transform="translate(0 1.422)"/><path class="m" d="M.524,0H42.8a.523.523,0,0,1,.523.523V9.466a.523.523,0,0,1-.523.523H.524A.524.524,0,0,1,0,9.466V.524A.524.524,0,0,1,.524,0Z"/><rect class="p" width="9.128" height="9.99" transform="translate(11.647 9.99) rotate(180)"/><rect class="q" width="3.197" height="9.99" transform="translate(37.834 9.99) rotate(180)"/><g class="r" transform="translate(1.706 0.795)"><path class="s" d="M152.334,344.635a.356.356,0,0,1-.356-.356v-7.821a.356.356,0,1,1,.711,0v7.821a.356.356,0,0,1-.355.356Z" transform="translate(-151.978 -336.103)"/><g transform="translate(2.799)"><path class="s" d="M158.09,344.635a.356.356,0,0,1-.356-.356v-7.821a.356.356,0,1,1,.711,0v7.821a.356.356,0,0,1-.355.356Z" transform="translate(-157.734 -336.103)"/></g><g transform="translate(5.599)"><path class="s" d="M163.846,344.635a.356.356,0,0,1-.355-.356v-7.821a.356.356,0,1,1,.712,0v7.821a.356.356,0,0,1-.357.356Z" transform="translate(-163.49 -336.103)"/></g><g transform="translate(8.399)"><path class="s" d="M169.6,344.635a.356.356,0,0,1-.356-.356v-7.821a.356.356,0,1,1,.711,0v7.821a.356.356,0,0,1-.355.356Z" transform="translate(-169.247 -336.103)"/></g><g transform="translate(11.198)"><path class="s" d="M175.359,344.635a.356.356,0,0,1-.355-.356v-7.821a.356.356,0,1,1,.711,0v7.821A.356.356,0,0,1,175.359,344.635Z" transform="translate(-175.003 -336.103)"/></g><g transform="translate(13.998)"><path class="s" d="M181.116,344.635a.356.356,0,0,1-.356-.356v-7.821a.356.356,0,1,1,.711,0v7.821a.356.356,0,0,1-.355.356Z" transform="translate(-180.76 -336.103)"/></g><g transform="translate(16.798)"><path class="s" d="M186.872,344.635a.356.356,0,0,1-.356-.356v-7.821a.356.356,0,1,1,.711,0v7.821a.356.356,0,0,1-.355.356Z" transform="translate(-186.516 -336.103)"/></g><g transform="translate(19.598)"><path class="s" d="M192.629,344.635a.356.356,0,0,1-.356-.356v-7.821a.356.356,0,1,1,.711,0v7.821a.356.356,0,0,1-.355.356Z" transform="translate(-192.273 -336.103)"/></g><g transform="translate(22.397)"><path class="s" d="M198.385,344.635a.356.356,0,0,1-.356-.356v-7.821a.356.356,0,1,1,.711,0v7.821a.356.356,0,0,1-.355.356Z" transform="translate(-198.029 -336.103)"/></g><g transform="translate(25.197)"><path class="s" d="M204.141,344.635a.356.356,0,0,1-.355-.356v-7.821a.355.355,0,0,1,.711,0v7.821a.356.356,0,0,1-.356.356Z" transform="translate(-203.786 -336.103)"/></g><g transform="translate(27.997)"><path class="s" d="M209.9,344.635a.356.356,0,0,1-.356-.356v-7.821a.356.356,0,1,1,.711,0v7.821a.356.356,0,0,1-.355.356Z" transform="translate(-209.542 -336.103)"/></g><g transform="translate(30.796)"><path class="s" d="M215.654,344.635a.356.356,0,0,1-.356-.356v-7.821a.356.356,0,1,1,.711,0v7.821a.356.356,0,0,1-.355.356Z" transform="translate(-215.298 -336.103)"/></g><g transform="translate(33.596)"><path class="s" d="M221.411,344.635a.356.356,0,0,1-.356-.356v-7.821a.356.356,0,1,1,.711,0v7.821A.356.356,0,0,1,221.411,344.635Z" transform="translate(-221.055 -336.103)"/></g><g transform="translate(36.395)"><path class="s" d="M227.167,344.635a.356.356,0,0,1-.356-.356v-7.821a.356.356,0,1,1,.711,0v7.821A.356.356,0,0,1,227.167,344.635Z" transform="translate(-226.811 -336.103)"/></g><g transform="translate(39.195)"><path class="s" d="M232.924,344.635a.356.356,0,0,1-.356-.356v-7.821a.356.356,0,1,1,.711,0v7.821a.356.356,0,0,1-.355.356Z" transform="translate(-232.568 -336.103)"/></g></g></g><g transform="translate(46.232 64.138)"><rect class="o" width="43.319" height="9.001" rx="0.523" transform="translate(0 1.422)"/><path class="m" d="M.524,0H42.8a.523.523,0,0,1,.523.523V9.466a.523.523,0,0,1-.523.523H.523A.523.523,0,0,1,0,9.466V.524A.524.524,0,0,1,.524,0Z"/><rect class="p" width="9.128" height="9.99" transform="translate(9.128 9.99) rotate(180)"/><rect class="t" width="2.765" height="9.99" transform="translate(2.765 9.99) rotate(180)"/><rect class="q" width="3.197" height="9.99" transform="translate(37.834 9.99) rotate(180)"/><g class="r" transform="translate(1.706 0.795)"><path class="s" d="M247.392,344.635a.356.356,0,0,1-.356-.356v-7.821a.356.356,0,1,1,.711,0v7.821A.356.356,0,0,1,247.392,344.635Z" transform="translate(-247.036 -336.103)"/><g transform="translate(2.799)"><path class="s" d="M253.148,344.635a.356.356,0,0,1-.356-.356v-7.821a.356.356,0,1,1,.712,0v7.821a.356.356,0,0,1-.356.356Z" transform="translate(-252.792 -336.103)"/></g><g transform="translate(5.599)"><path class="s" d="M258.9,344.635a.356.356,0,0,1-.356-.356v-7.821a.356.356,0,1,1,.711,0v7.821a.356.356,0,0,1-.355.356Z" transform="translate(-258.549 -336.103)"/></g><g transform="translate(8.399)"><path class="s" d="M264.661,344.635a.356.356,0,0,1-.356-.356v-7.821a.356.356,0,1,1,.711,0v7.821A.356.356,0,0,1,264.661,344.635Z" transform="translate(-264.305 -336.103)"/></g><g transform="translate(11.199)"><path class="s" d="M270.418,344.635a.356.356,0,0,1-.356-.356v-7.821a.356.356,0,1,1,.711,0v7.821a.356.356,0,0,1-.355.356Z" transform="translate(-270.062 -336.103)"/></g><g transform="translate(13.998)"><path class="s" d="M276.174,344.635a.356.356,0,0,1-.356-.356v-7.821a.356.356,0,1,1,.711,0v7.821a.356.356,0,0,1-.355.356Z" transform="translate(-275.818 -336.103)"/></g><g transform="translate(16.798)"><path class="s" d="M281.931,344.635a.356.356,0,0,1-.356-.356v-7.821a.356.356,0,1,1,.711,0v7.821a.356.356,0,0,1-.355.356Z" transform="translate(-281.575 -336.103)"/></g><g transform="translate(19.598)"><path class="s" d="M287.687,344.635a.356.356,0,0,1-.356-.356v-7.821a.356.356,0,1,1,.711,0v7.821a.356.356,0,0,1-.355.356Z" transform="translate(-287.331 -336.103)"/></g><g transform="translate(22.398)"><path class="s" d="M293.443,344.635a.356.356,0,0,1-.355-.356v-7.821a.356.356,0,1,1,.711,0v7.821A.356.356,0,0,1,293.443,344.635Z" transform="translate(-293.088 -336.103)"/></g><g transform="translate(25.197)"><path class="s" d="M299.2,344.635a.356.356,0,0,1-.356-.356v-7.821a.356.356,0,1,1,.711,0v7.821A.356.356,0,0,1,299.2,344.635Z" transform="translate(-298.844 -336.103)"/></g><g transform="translate(27.997)"><path class="s" d="M304.956,344.635a.356.356,0,0,1-.355-.356v-7.821a.355.355,0,1,1,.711,0v7.821a.356.356,0,0,1-.356.356Z" transform="translate(-304.601 -336.103)"/></g><g transform="translate(30.796)"><path class="s" d="M310.712,344.635a.356.356,0,0,1-.355-.356v-7.821a.356.356,0,1,1,.711,0v7.821a.356.356,0,0,1-.356.356Z" transform="translate(-310.357 -336.103)"/></g><g transform="translate(33.596)"><path class="s" d="M316.469,344.635a.356.356,0,0,1-.356-.356v-7.821a.356.356,0,1,1,.711,0v7.821a.356.356,0,0,1-.355.356Z" transform="translate(-316.113 -336.103)"/></g><g transform="translate(36.396)"><path class="s" d="M322.225,344.635a.356.356,0,0,1-.355-.356v-7.821a.356.356,0,1,1,.711,0v7.821a.356.356,0,0,1-.356.356Z" transform="translate(-321.87 -336.103)"/></g><g transform="translate(39.195)"><path class="s" d="M327.982,344.635a.356.356,0,0,1-.355-.356v-7.821a.356.356,0,1,1,.711,0v7.821A.356.356,0,0,1,327.982,344.635Z" transform="translate(-327.626 -336.103)"/></g></g></g><g transform="translate(96.846 64.138)"><path class="o" d="M.523,0H42.8a.523.523,0,0,1,.523.523V8.478A.523.523,0,0,1,42.8,9H.524A.524.524,0,0,1,0,8.478V.523A.523.523,0,0,1,.523,0Z" transform="translate(0 1.422)"/><path class="m" d="M.524,0H42.8a.523.523,0,0,1,.523.523V9.466a.523.523,0,0,1-.523.523H.524A.524.524,0,0,1,0,9.466V.524A.524.524,0,0,1,.524,0Z"/><rect class="p" width="9.128" height="9.99" transform="translate(9.128 9.99) rotate(180)"/><rect class="t" width="2.765" height="9.99" transform="translate(2.765 9.99) rotate(180)"/><rect class="q" width="3.197" height="9.99" transform="translate(37.834 9.99) rotate(180)"/><g class="r" transform="translate(1.706 0.795)"><path class="s" d="M351.46,344.635a.356.356,0,0,1-.355-.356v-7.821a.356.356,0,1,1,.711,0v7.821A.356.356,0,0,1,351.46,344.635Z" transform="translate(-351.104 -336.103)"/><g transform="translate(2.8)"><path class="s" d="M357.217,344.635a.356.356,0,0,1-.356-.356v-7.821a.356.356,0,1,1,.711,0v7.821A.356.356,0,0,1,357.217,344.635Z" transform="translate(-356.861 -336.103)"/></g><g transform="translate(5.599)"><path class="s" d="M362.973,344.635a.356.356,0,0,1-.355-.356v-7.821a.356.356,0,1,1,.711,0v7.821a.356.356,0,0,1-.356.356Z" transform="translate(-362.617 -336.103)"/></g><g transform="translate(8.399)"><path class="s" d="M368.73,344.635a.356.356,0,0,1-.355-.356v-7.821a.356.356,0,1,1,.711,0v7.821A.356.356,0,0,1,368.73,344.635Z" transform="translate(-368.374 -336.103)"/></g><g transform="translate(11.199)"><path class="s" d="M374.486,344.635a.356.356,0,0,1-.355-.356v-7.821a.356.356,0,1,1,.711,0v7.821a.356.356,0,0,1-.356.356Z" transform="translate(-374.13 -336.103)"/></g><g transform="translate(13.999)"><path class="s" d="M380.243,344.635a.356.356,0,0,1-.356-.356v-7.821a.356.356,0,1,1,.711,0v7.821a.356.356,0,0,1-.355.356Z" transform="translate(-379.887 -336.103)"/></g><g transform="translate(16.798)"><path class="s" d="M386,344.635a.356.356,0,0,1-.355-.356v-7.821a.356.356,0,1,1,.711,0v7.821A.356.356,0,0,1,386,344.635Z" transform="translate(-385.643 -336.103)"/></g><g transform="translate(19.598)"><path class="s" d="M391.755,344.635a.356.356,0,0,1-.355-.356v-7.821a.355.355,0,0,1,.711,0v7.821A.356.356,0,0,1,391.755,344.635Z" transform="translate(-391.4 -336.103)"/></g><g transform="translate(22.398)"><path class="s" d="M397.512,344.635a.356.356,0,0,1-.355-.356v-7.821a.356.356,0,1,1,.711,0v7.821A.356.356,0,0,1,397.512,344.635Z" transform="translate(-397.156 -336.103)"/></g><g transform="translate(25.197)"><path class="s" d="M403.267,344.635a.356.356,0,0,1-.355-.356v-7.821a.356.356,0,1,1,.711,0v7.821A.356.356,0,0,1,403.267,344.635Z" transform="translate(-402.912 -336.103)"/></g><g transform="translate(27.997)"><path class="s" d="M409.025,344.635a.356.356,0,0,1-.355-.356v-7.821a.356.356,0,1,1,.711,0v7.821a.356.356,0,0,1-.356.356Z" transform="translate(-408.669 -336.103)"/></g><g transform="translate(30.796)"><path class="s" d="M414.78,344.635a.356.356,0,0,1-.356-.356v-7.821a.356.356,0,1,1,.711,0v7.821a.356.356,0,0,1-.355.356Z" transform="translate(-414.425 -336.103)"/></g><g transform="translate(33.596)"><path class="s" d="M420.538,344.635a.356.356,0,0,1-.355-.356v-7.821a.356.356,0,1,1,.711,0v7.821A.356.356,0,0,1,420.538,344.635Z" transform="translate(-420.182 -336.103)"/></g><g transform="translate(36.396)"><path class="s" d="M426.293,344.635a.356.356,0,0,1-.356-.356v-7.821a.356.356,0,1,1,.711,0v7.821a.356.356,0,0,1-.355.356Z" transform="translate(-425.938 -336.103)"/></g><g transform="translate(39.196)"><path class="s" d="M432.05,344.635a.356.356,0,0,1-.355-.356v-7.821a.356.356,0,1,1,.711,0v7.821A.356.356,0,0,1,432.05,344.635Z" transform="translate(-431.695 -336.103)"/></g></g></g><g transform="translate(82.626 53.71)"><path class="o" d="M.524,0H42.8a.524.524,0,0,1,.524.524V8.478A.523.523,0,0,1,42.8,9H.523A.523.523,0,0,1,0,8.478V.524A.524.524,0,0,1,.524,0Z" transform="translate(0 1.422)"/><path class="m" d="M.523,0H42.8a.524.524,0,0,1,.524.524V9.466a.524.524,0,0,1-.524.524H.523A.523.523,0,0,1,0,9.466V.523A.523.523,0,0,1,.523,0Z"/><rect class="u" width="43.319" height="9.99" transform="translate(43.319 9.99) rotate(180)"/><rect class="t" width="3.984" height="9.99" transform="translate(4.008 9.99) rotate(180)"/><rect class="v" width="3.197" height="9.99" transform="translate(37.834 9.99) rotate(180)"/><g class="r" transform="translate(1.707 0.795)"><path class="s" d="M322.221,323.194a.356.356,0,0,1-.355-.355v-7.821a.355.355,0,1,1,.711,0v7.821a.356.356,0,0,1-.356.355Z" transform="translate(-321.866 -314.662)"/><g transform="translate(2.799)"><path class="s" d="M327.978,323.194a.356.356,0,0,1-.356-.355v-7.821a.356.356,0,1,1,.711,0v7.821A.356.356,0,0,1,327.978,323.194Z" transform="translate(-327.622 -314.662)"/></g><g transform="translate(5.599)"><path class="s" d="M333.733,323.194a.356.356,0,0,1-.356-.355v-7.821a.356.356,0,1,1,.711,0v7.821a.356.356,0,0,1-.355.355Z" transform="translate(-333.378 -314.662)"/></g><g transform="translate(8.399)"><path class="s" d="M339.491,323.194a.356.356,0,0,1-.356-.355v-7.821a.356.356,0,1,1,.711,0v7.821A.356.356,0,0,1,339.491,323.194Z" transform="translate(-339.135 -314.662)"/></g><g transform="translate(11.198)"><path class="s" d="M345.246,323.194a.356.356,0,0,1-.356-.355v-7.821a.356.356,0,1,1,.711,0v7.821a.356.356,0,0,1-.355.355Z" transform="translate(-344.891 -314.662)"/></g><g transform="translate(13.998)"><path class="s" d="M351,323.194a.356.356,0,0,1-.356-.355v-7.821a.355.355,0,0,1,.711,0v7.821a.356.356,0,0,1-.355.355Z" transform="translate(-350.648 -314.662)"/></g><g transform="translate(16.798)"><path class="s" d="M356.759,323.194a.356.356,0,0,1-.355-.355v-7.821a.356.356,0,1,1,.711,0v7.821A.356.356,0,0,1,356.759,323.194Z" transform="translate(-356.404 -314.662)"/></g><g transform="translate(19.597)"><path class="s" d="M362.516,323.194a.356.356,0,0,1-.356-.355v-7.821a.356.356,0,1,1,.711,0v7.821A.356.356,0,0,1,362.516,323.194Z" transform="translate(-362.16 -314.662)"/></g><g transform="translate(22.397)"><path class="s" d="M368.272,323.194a.356.356,0,0,1-.355-.355v-7.821a.356.356,0,1,1,.711,0v7.821A.356.356,0,0,1,368.272,323.194Z" transform="translate(-367.917 -314.662)"/></g><g transform="translate(25.197)"><path class="s" d="M374.029,323.194a.356.356,0,0,1-.356-.355v-7.821a.356.356,0,0,1,.711,0v7.821a.356.356,0,0,1-.355.355Z" transform="translate(-373.673 -314.662)"/></g><g transform="translate(27.996)"><path class="s" d="M379.786,323.194a.356.356,0,0,1-.356-.355v-7.821a.356.356,0,1,1,.711,0v7.821a.356.356,0,0,1-.355.355Z" transform="translate(-379.43 -314.662)"/></g><g transform="translate(30.796)"><path class="s" d="M385.542,323.194a.356.356,0,0,1-.355-.355v-7.821a.356.356,0,1,1,.711,0v7.821a.356.356,0,0,1-.356.355Z" transform="translate(-385.186 -314.662)"/></g><g transform="translate(33.596)"><path class="s" d="M391.3,323.194a.356.356,0,0,1-.356-.355v-7.821a.356.356,0,1,1,.711,0v7.821a.356.356,0,0,1-.355.355Z" transform="translate(-390.943 -314.662)"/></g><g transform="translate(36.395)"><path class="s" d="M397.055,323.194a.356.356,0,0,1-.355-.355v-7.821a.356.356,0,1,1,.711,0v7.821A.356.356,0,0,1,397.055,323.194Z" transform="translate(-396.699 -314.662)"/></g><g transform="translate(39.195)"><path class="s" d="M402.81,323.194a.356.356,0,0,1-.356-.355v-7.821a.356.356,0,0,1,.712,0v7.821A.356.356,0,0,1,402.81,323.194Z" transform="translate(-402.455 -314.662)"/></g></g></g><g transform="translate(37.122 53.71)"><path class="o" d="M.524,0H42.8a.523.523,0,0,1,.523.523V8.478A.523.523,0,0,1,42.8,9H.523A.523.523,0,0,1,0,8.478V.524A.524.524,0,0,1,.524,0Z" transform="translate(0 1.422)"/><rect class="m" width="43.319" height="9.99" rx="0.523"/><rect class="p" width="20.215" height="9.99" transform="translate(20.215 9.99) rotate(180)"/><rect class="t" width="2.765" height="9.99" transform="translate(2.765 9.99) rotate(180)"/><rect class="q" width="3.197" height="9.99" transform="translate(37.834 9.99) rotate(180)"/><g class="r" transform="translate(1.706 0.795)"><path class="s" d="M228.661,323.194a.356.356,0,0,1-.356-.355v-7.821a.356.356,0,1,1,.711,0v7.821A.356.356,0,0,1,228.661,323.194Z" transform="translate(-228.305 -314.662)"/><g transform="translate(2.799)"><path class="s" d="M234.417,323.194a.356.356,0,0,1-.356-.355v-7.821a.356.356,0,1,1,.711,0v7.821a.356.356,0,0,1-.355.355Z" transform="translate(-234.061 -314.662)"/></g><g transform="translate(5.599)"><path class="s" d="M240.174,323.194a.356.356,0,0,1-.356-.355v-7.821a.356.356,0,1,1,.711,0v7.821a.356.356,0,0,1-.355.355Z" transform="translate(-239.818 -314.662)"/></g><g transform="translate(8.399)"><path class="s" d="M245.93,323.194a.356.356,0,0,1-.356-.355v-7.821a.356.356,0,1,1,.711,0v7.821a.356.356,0,0,1-.355.355Z" transform="translate(-245.574 -314.662)"/></g><g transform="translate(11.199)"><path class="s" d="M251.687,323.194a.356.356,0,0,1-.356-.355v-7.821a.355.355,0,0,1,.711,0v7.821a.356.356,0,0,1-.355.355Z" transform="translate(-251.331 -314.662)"/></g><g transform="translate(13.998)"><path class="s" d="M257.443,323.194a.356.356,0,0,1-.356-.355v-7.821a.356.356,0,1,1,.711,0v7.821A.356.356,0,0,1,257.443,323.194Z" transform="translate(-257.087 -314.662)"/></g><g transform="translate(16.798)"><path class="s" d="M263.2,323.194a.356.356,0,0,1-.355-.355v-7.821a.355.355,0,1,1,.711,0v7.821A.356.356,0,0,1,263.2,323.194Z" transform="translate(-262.844 -314.662)"/></g><g transform="translate(19.598)"><path class="s" d="M268.956,323.194a.356.356,0,0,1-.356-.355v-7.821a.356.356,0,1,1,.711,0v7.821a.356.356,0,0,1-.355.355Z" transform="translate(-268.6 -314.662)"/></g><g transform="translate(22.397)"><path class="s" d="M274.712,323.194a.356.356,0,0,1-.356-.355v-7.821a.356.356,0,0,1,.711,0v7.821a.356.356,0,0,1-.355.355Z" transform="translate(-274.356 -314.662)"/></g><g transform="translate(25.197)"><path class="s" d="M280.469,323.194a.356.356,0,0,1-.356-.355v-7.821a.356.356,0,0,1,.711,0v7.821a.356.356,0,0,1-.355.355Z" transform="translate(-280.113 -314.662)"/></g><g transform="translate(27.996)"><path class="s" d="M286.225,323.194a.356.356,0,0,1-.356-.355v-7.821a.356.356,0,1,1,.711,0v7.821a.356.356,0,0,1-.355.355Z" transform="translate(-285.869 -314.662)"/></g><g transform="translate(30.796)"><path class="s" d="M291.982,323.194a.356.356,0,0,1-.356-.355v-7.821a.356.356,0,0,1,.711,0v7.821A.356.356,0,0,1,291.982,323.194Z" transform="translate(-291.626 -314.662)"/></g><g transform="translate(33.596)"><path class="s" d="M297.738,323.194a.356.356,0,0,1-.356-.355v-7.821a.356.356,0,1,1,.711,0v7.821A.356.356,0,0,1,297.738,323.194Z" transform="translate(-297.382 -314.662)"/></g><g transform="translate(36.395)"><path class="s" d="M303.494,323.194a.356.356,0,0,1-.356-.355v-7.821a.356.356,0,1,1,.712,0v7.821A.356.356,0,0,1,303.494,323.194Z" transform="translate(-303.138 -314.662)"/></g><g transform="translate(39.195)"><path class="s" d="M309.251,323.194a.356.356,0,0,1-.356-.355v-7.821a.356.356,0,1,1,.711,0v7.821A.356.356,0,0,1,309.251,323.194Z" transform="translate(-308.895 -314.662)"/></g></g></g><g transform="translate(32.522 43.221)"><rect class="o" width="43.319" height="9.001" rx="0.523" transform="translate(0 1.422)"/><rect class="m" width="43.319" height="9.99" rx="0.523"/><rect class="p" width="21.727" height="9.99" transform="translate(21.727 9.99) rotate(180)"/><rect class="t" width="2.765" height="9.99" transform="translate(2.765 9.99) rotate(180)"/><rect class="q" width="3.197" height="9.99" transform="translate(37.834 9.99) rotate(180)"/><g class="r" transform="translate(1.706 0.795)"><path class="s" d="M219.2,301.628a.356.356,0,0,1-.356-.356v-7.821a.356.356,0,1,1,.711,0v7.821a.356.356,0,0,1-.355.356Z" transform="translate(-218.847 -293.096)"/><g transform="translate(2.799)"><path class="s" d="M224.959,301.628a.356.356,0,0,1-.356-.356v-7.821a.356.356,0,0,1,.711,0v7.821a.356.356,0,0,1-.355.356Z" transform="translate(-224.603 -293.096)"/></g><g transform="translate(5.599)"><path class="s" d="M230.716,301.628a.356.356,0,0,1-.356-.356v-7.821a.356.356,0,1,1,.711,0v7.821a.356.356,0,0,1-.355.356Z" transform="translate(-230.36 -293.096)"/></g><g transform="translate(8.399)"><path class="s" d="M236.472,301.628a.356.356,0,0,1-.356-.356v-7.821a.356.356,0,1,1,.711,0v7.821a.356.356,0,0,1-.355.356Z" transform="translate(-236.116 -293.096)"/></g><g transform="translate(11.199)"><path class="s" d="M242.228,301.628a.356.356,0,0,1-.355-.356v-7.821a.356.356,0,0,1,.711,0v7.821a.356.356,0,0,1-.356.356Z" transform="translate(-241.873 -293.096)"/></g><g transform="translate(13.998)"><path class="s" d="M247.985,301.628a.356.356,0,0,1-.356-.356v-7.821a.356.356,0,1,1,.711,0v7.821a.356.356,0,0,1-.355.356Z" transform="translate(-247.629 -293.096)"/></g><g transform="translate(16.798)"><path class="s" d="M253.741,301.628a.356.356,0,0,1-.355-.356v-7.821a.355.355,0,1,1,.711,0v7.821a.356.356,0,0,1-.356.356Z" transform="translate(-253.386 -293.096)"/></g><g transform="translate(19.598)"><path class="s" d="M259.5,301.628a.356.356,0,0,1-.356-.356v-7.821a.356.356,0,1,1,.711,0v7.821a.356.356,0,0,1-.355.356Z" transform="translate(-259.142 -293.096)"/></g><g transform="translate(22.397)"><path class="s" d="M265.254,301.628a.356.356,0,0,1-.356-.356v-7.821a.356.356,0,1,1,.711,0v7.821a.356.356,0,0,1-.355.356Z" transform="translate(-264.898 -293.096)"/></g><g transform="translate(25.197)"><path class="s" d="M271.011,301.628a.356.356,0,0,1-.356-.356v-7.821a.356.356,0,0,1,.711,0v7.821a.356.356,0,0,1-.355.356Z" transform="translate(-270.655 -293.096)"/></g><g transform="translate(27.997)"><path class="s" d="M276.767,301.628a.356.356,0,0,1-.356-.356v-7.821a.356.356,0,1,1,.711,0v7.821a.356.356,0,0,1-.355.356Z" transform="translate(-276.411 -293.096)"/></g><g transform="translate(30.796)"><path class="s" d="M282.523,301.628a.356.356,0,0,1-.356-.356v-7.821a.356.356,0,0,1,.711,0v7.821a.356.356,0,0,1-.355.356Z" transform="translate(-282.168 -293.096)"/></g><g transform="translate(33.596)"><path class="s" d="M288.28,301.628a.356.356,0,0,1-.356-.356v-7.821a.356.356,0,0,1,.711,0v7.821a.356.356,0,0,1-.355.356Z" transform="translate(-287.924 -293.096)"/></g><g transform="translate(36.395)"><path class="s" d="M294.036,301.628a.356.356,0,0,1-.356-.356v-7.821a.356.356,0,1,1,.712,0v7.821a.356.356,0,0,1-.356.356Z" transform="translate(-293.68 -293.096)"/></g><g transform="translate(39.195)"><path class="s" d="M299.793,301.628a.356.356,0,0,1-.356-.356v-7.821a.356.356,0,1,1,.711,0v7.821A.356.356,0,0,1,299.793,301.628Z" transform="translate(-299.437 -293.096)"/></g></g></g><g transform="translate(85.005 43.221)"><rect class="o" width="43.319" height="9.001" rx="0.523" transform="translate(0 1.422)"/><rect class="m" width="43.319" height="9.99" rx="0.523"/><rect class="p" width="21.735" height="9.99" transform="translate(21.735 9.99) rotate(180)"/><rect class="t" width="2.765" height="9.99" transform="translate(2.765 9.99) rotate(180)"/><rect class="q" width="3.197" height="9.99" transform="translate(37.834 9.99) rotate(180)"/><g class="r" transform="translate(1.706 0.795)"><path class="s" d="M327.113,301.628a.356.356,0,0,1-.356-.356v-7.821a.356.356,0,0,1,.711,0v7.821A.356.356,0,0,1,327.113,301.628Z" transform="translate(-326.757 -293.096)"/><g transform="translate(2.8)"><path class="s" d="M332.87,301.628a.356.356,0,0,1-.356-.356v-7.821a.355.355,0,1,1,.711,0v7.821a.356.356,0,0,1-.355.356Z" transform="translate(-332.514 -293.096)"/></g><g transform="translate(5.599)"><path class="s" d="M338.626,301.628a.356.356,0,0,1-.356-.356v-7.821a.356.356,0,1,1,.711,0v7.821a.356.356,0,0,1-.355.356Z" transform="translate(-338.27 -293.096)"/></g><g transform="translate(8.399)"><path class="s" d="M344.382,301.628a.356.356,0,0,1-.356-.356v-7.821a.356.356,0,1,1,.711,0v7.821a.356.356,0,0,1-.355.356Z" transform="translate(-344.026 -293.096)"/></g><g transform="translate(11.199)"><path class="s" d="M350.139,301.628a.356.356,0,0,1-.356-.356v-7.821a.356.356,0,1,1,.711,0v7.821a.356.356,0,0,1-.355.356Z" transform="translate(-349.783 -293.096)"/></g><g transform="translate(13.998)"><path class="s" d="M355.895,301.628a.356.356,0,0,1-.355-.356v-7.821a.356.356,0,1,1,.711,0v7.821a.356.356,0,0,1-.356.356Z" transform="translate(-355.539 -293.096)"/></g><g transform="translate(16.798)"><path class="s" d="M361.652,301.628a.356.356,0,0,1-.355-.356v-7.821a.356.356,0,1,1,.711,0v7.821a.356.356,0,0,1-.356.356Z" transform="translate(-361.296 -293.096)"/></g><g transform="translate(19.598)"><path class="s" d="M367.408,301.628a.356.356,0,0,1-.355-.356v-7.821a.356.356,0,1,1,.711,0v7.821a.356.356,0,0,1-.356.356Z" transform="translate(-367.052 -293.096)"/></g><g transform="translate(22.398)"><path class="s" d="M373.165,301.628a.356.356,0,0,1-.356-.356v-7.821a.356.356,0,0,1,.711,0v7.821a.356.356,0,0,1-.355.356Z" transform="translate(-372.809 -293.096)"/></g><g transform="translate(25.197)"><path class="s" d="M378.921,301.628a.356.356,0,0,1-.356-.356v-7.821a.356.356,0,0,1,.711,0v7.821A.356.356,0,0,1,378.921,301.628Z" transform="translate(-378.565 -293.096)"/></g><g transform="translate(27.997)"><path class="s" d="M384.677,301.628a.356.356,0,0,1-.356-.356v-7.821a.356.356,0,1,1,.712,0v7.821A.356.356,0,0,1,384.677,301.628Z" transform="translate(-384.321 -293.096)"/></g><g transform="translate(30.796)"><path class="s" d="M390.434,301.628a.356.356,0,0,1-.356-.356v-7.821a.356.356,0,0,1,.711,0v7.821a.356.356,0,0,1-.355.356Z" transform="translate(-390.078 -293.096)"/></g><g transform="translate(33.596)"><path class="s" d="M396.19,301.628a.356.356,0,0,1-.355-.356v-7.821a.355.355,0,0,1,.711,0v7.821a.356.356,0,0,1-.356.356Z" transform="translate(-395.834 -293.096)"/></g><g transform="translate(36.396)"><path class="s" d="M401.947,301.628a.356.356,0,0,1-.356-.356v-7.821a.356.356,0,1,1,.711,0v7.821A.356.356,0,0,1,401.947,301.628Z" transform="translate(-401.591 -293.096)"/></g><g transform="translate(39.195)"><path class="s" d="M407.7,301.628a.356.356,0,0,1-.356-.356v-7.821a.356.356,0,1,1,.711,0v7.821a.356.356,0,0,1-.355.356Z" transform="translate(-407.347 -293.096)"/></g></g></g><g transform="translate(85.005 32.911)"><rect class="o" width="43.319" height="9.001" rx="0.523" transform="translate(0 1.422)"/><path class="w" d="M.523,0H42.8a.523.523,0,0,1,.523.523V9.466a.524.524,0,0,1-.524.524H.523A.523.523,0,0,1,0,9.466V.523A.523.523,0,0,1,.523,0Z"/><rect class="p" width="21.38" height="9.99" transform="translate(21.38 9.99) rotate(180)"/><rect class="x" width="43.319" height="9.99" transform="translate(43.319 9.99) rotate(180)"/><rect class="y" width="3.197" height="9.99" transform="translate(37.834 9.99) rotate(180)"/><g class="r" transform="translate(1.706 0.795)"><path class="s" d="M327.113,280.43a.356.356,0,0,1-.356-.356v-7.821a.356.356,0,1,1,.711,0v7.821A.356.356,0,0,1,327.113,280.43Z" transform="translate(-326.757 -271.897)"/><g transform="translate(2.8)"><path class="s" d="M332.87,280.43a.356.356,0,0,1-.356-.356v-7.821a.355.355,0,1,1,.711,0v7.821A.356.356,0,0,1,332.87,280.43Z" transform="translate(-332.514 -271.897)"/></g><g transform="translate(5.599)"><path class="s" d="M338.626,280.43a.356.356,0,0,1-.356-.356v-7.821a.356.356,0,1,1,.711,0v7.821A.356.356,0,0,1,338.626,280.43Z" transform="translate(-338.27 -271.897)"/></g><g transform="translate(8.399)"><path class="s" d="M344.382,280.43a.356.356,0,0,1-.356-.356v-7.821a.356.356,0,1,1,.711,0v7.821a.356.356,0,0,1-.355.356Z" transform="translate(-344.026 -271.897)"/></g><g transform="translate(11.199)"><path class="s" d="M350.139,280.43a.356.356,0,0,1-.356-.356v-7.821a.356.356,0,1,1,.711,0v7.821a.356.356,0,0,1-.355.356Z" transform="translate(-349.783 -271.897)"/></g><g transform="translate(13.998)"><path class="s" d="M355.895,280.43a.356.356,0,0,1-.355-.356v-7.821a.356.356,0,1,1,.711,0v7.821A.356.356,0,0,1,355.895,280.43Z" transform="translate(-355.539 -271.897)"/></g><g transform="translate(16.798)"><path class="s" d="M361.652,280.43a.356.356,0,0,1-.355-.356v-7.821a.356.356,0,1,1,.711,0v7.821a.356.356,0,0,1-.356.356Z" transform="translate(-361.296 -271.897)"/></g><g transform="translate(19.598)"><path class="s" d="M367.408,280.43a.356.356,0,0,1-.355-.356v-7.821a.356.356,0,1,1,.711,0v7.821A.356.356,0,0,1,367.408,280.43Z" transform="translate(-367.052 -271.897)"/></g><g transform="translate(22.398)"><path class="s" d="M373.165,280.43a.356.356,0,0,1-.356-.356v-7.821a.356.356,0,1,1,.711,0v7.821A.356.356,0,0,1,373.165,280.43Z" transform="translate(-372.809 -271.897)"/></g><g transform="translate(25.197)"><path class="s" d="M378.921,280.43a.356.356,0,0,1-.356-.356v-7.821a.356.356,0,1,1,.711,0v7.821a.356.356,0,0,1-.355.356Z" transform="translate(-378.565 -271.897)"/></g><g transform="translate(27.997)"><path class="s" d="M384.677,280.43a.356.356,0,0,1-.356-.356v-7.821a.356.356,0,1,1,.712,0v7.821A.356.356,0,0,1,384.677,280.43Z" transform="translate(-384.321 -271.897)"/></g><g transform="translate(30.796)"><path class="s" d="M390.434,280.43a.356.356,0,0,1-.356-.356v-7.821a.356.356,0,1,1,.711,0v7.821a.356.356,0,0,1-.355.356Z" transform="translate(-390.078 -271.897)"/></g><g transform="translate(33.596)"><path class="s" d="M396.19,280.43a.356.356,0,0,1-.355-.356v-7.821a.355.355,0,0,1,.711,0v7.821a.356.356,0,0,1-.356.356Z" transform="translate(-395.834 -271.897)"/></g><g transform="translate(36.396)"><path class="s" d="M401.947,280.43a.356.356,0,0,1-.356-.356v-7.821a.356.356,0,1,1,.711,0v7.821A.356.356,0,0,1,401.947,280.43Z" transform="translate(-401.591 -271.897)"/></g><g transform="translate(39.195)"><path class="s" d="M407.7,280.43a.356.356,0,0,1-.356-.356v-7.821a.356.356,0,1,1,.711,0v7.821A.356.356,0,0,1,407.7,280.43Z" transform="translate(-407.347 -271.897)"/></g></g></g><g transform="translate(85.005 22.483)"><rect class="o" width="43.319" height="9.001" rx="0.523" transform="translate(2.52 1.422)"/><rect class="m" width="43.319" height="9.99" rx="0.523" transform="translate(2.52)"/><rect class="p" width="21.584" height="9.99" transform="translate(24.104 9.99) rotate(180)"/><rect class="t" width="2.765" height="9.99" transform="translate(5.285 9.99) rotate(180)"/><rect class="t" width="2.765" height="9.99" transform="translate(2.765 20.484) rotate(180)"/><rect class="z" width="3.197" height="9.99" transform="translate(40.354 9.99) rotate(180)"/><g class="r" transform="translate(4.227 0.795)"><path class="s" d="M332.3,258.988a.356.356,0,0,1-.356-.356v-7.821a.356.356,0,0,1,.711,0v7.821a.356.356,0,0,1-.355.356Z" transform="translate(-331.939 -250.456)"/><g transform="translate(2.799)"><path class="s" d="M338.051,258.988a.356.356,0,0,1-.356-.356v-7.821a.356.356,0,1,1,.711,0v7.821a.356.356,0,0,1-.355.356Z" transform="translate(-337.695 -250.456)"/></g><g transform="translate(5.599)"><path class="s" d="M343.808,258.988a.356.356,0,0,1-.356-.356v-7.821a.356.356,0,0,1,.711,0v7.821a.356.356,0,0,1-.355.356Z" transform="translate(-343.452 -250.456)"/></g><g transform="translate(8.399)"><path class="s" d="M349.564,258.988a.356.356,0,0,1-.356-.356v-7.821a.356.356,0,0,1,.711,0v7.821A.356.356,0,0,1,349.564,258.988Z" transform="translate(-349.208 -250.456)"/></g><g transform="translate(11.199)"><path class="s" d="M355.32,258.988a.356.356,0,0,1-.355-.356v-7.821a.355.355,0,0,1,.711,0v7.821a.356.356,0,0,1-.356.356Z" transform="translate(-354.965 -250.456)"/></g><g transform="translate(13.998)"><path class="s" d="M361.077,258.988a.356.356,0,0,1-.356-.356v-7.821a.356.356,0,0,1,.711,0v7.821a.356.356,0,0,1-.355.356Z" transform="translate(-360.721 -250.456)"/></g><g transform="translate(16.798)"><path class="s" d="M366.832,258.988a.356.356,0,0,1-.355-.356v-7.821a.356.356,0,1,1,.711,0v7.821a.356.356,0,0,1-.356.356Z" transform="translate(-366.477 -250.456)"/></g><g transform="translate(19.598)"><path class="s" d="M372.59,258.988a.356.356,0,0,1-.355-.356v-7.821a.356.356,0,0,1,.711,0v7.821a.356.356,0,0,1-.356.356Z" transform="translate(-372.234 -250.456)"/></g><g transform="translate(22.397)"><path class="s" d="M378.346,258.988a.356.356,0,0,1-.356-.356v-7.821a.356.356,0,1,1,.711,0v7.821a.356.356,0,0,1-.355.356Z" transform="translate(-377.99 -250.456)"/></g><g transform="translate(25.197)"><path class="s" d="M384.1,258.988a.356.356,0,0,1-.356-.356v-7.821a.356.356,0,0,1,.711,0v7.821a.356.356,0,0,1-.355.356Z" transform="translate(-383.747 -250.456)"/></g><g transform="translate(27.996)"><path class="s" d="M389.859,258.988a.356.356,0,0,1-.356-.356v-7.821a.356.356,0,0,1,.711,0v7.821a.356.356,0,0,1-.355.356Z" transform="translate(-389.503 -250.456)"/></g><g transform="translate(30.796)"><path class="s" d="M395.615,258.988a.356.356,0,0,1-.356-.356v-7.821a.356.356,0,0,1,.711,0v7.821a.356.356,0,0,1-.355.356Z" transform="translate(-395.259 -250.456)"/></g><g transform="translate(33.596)"><path class="s" d="M401.371,258.988a.356.356,0,0,1-.355-.356v-7.821a.356.356,0,0,1,.711,0v7.821a.356.356,0,0,1-.356.356Z" transform="translate(-401.016 -250.456)"/></g><g transform="translate(36.395)"><path class="s" d="M407.128,258.988a.356.356,0,0,1-.355-.356v-7.821a.356.356,0,1,1,.711,0v7.821a.356.356,0,0,1-.356.356Z" transform="translate(-406.772 -250.456)"/></g><g transform="translate(39.195)"><path class="s" d="M412.884,258.988a.356.356,0,0,1-.355-.356v-7.821a.356.356,0,1,1,.711,0v7.821a.356.356,0,0,1-.356.356Z" transform="translate(-412.529 -250.456)"/></g></g></g><g transform="translate(37.122)"><path class="t" d="M292.817,301.606v-9.843h-4.162l-6.969,9.843Z" transform="translate(-254.018 -248.395)"/><path class="t" d="M309.509,323.021V313.41a.232.232,0,0,0-.232-.232h-3.93l2.731,9.843Z" transform="translate(-266.171 -259.395)"/><path class="t" d="M321.947,344.462v-9.843H311.819l3.563,9.843Z" transform="translate(-269.495 -270.407)"/><path class="t" d="M231.2,344.462v-9.843h-6.4l2.417,9.843Z" transform="translate(-224.796 -270.407)"/><path class="t" d="M366.812,344.462l2.222-9.843H347.6v9.843Z" transform="translate(-287.872 -270.407)"/><g transform="translate(6.664)"><g class="aa"><path class="t" d="M312.94,248.821l-14.981,19.82,8.971-.26,3.744-9.132,1.872-3.918Z" transform="translate(-269.04 -226.338)"/></g></g></g><g transform="translate(0.032 22.375)"><path class="k" d="M376.89,291.671c0-.116-5-.21-11.175-.21s-11.175.094-11.175.21,5,.21,11.175.21S376.89,291.786,376.89,291.671Z" transform="translate(-254.349 -270.614)"/><path class="k" d="M403.938,334.669c0-.116-4.354-.21-9.725-.21s-9.725.094-9.725.21,4.354.21,9.725.21S403.938,334.784,403.938,334.669Z" transform="translate(-269.732 -292.7)"/><path class="k" d="M382.076,248.808c0-.116-5-.21-11.175-.21s-11.174.094-11.174.21,5,.21,11.174.21S382.076,248.923,382.076,248.808Z" transform="translate(-257.013 -248.598)"/><ellipse class="k" cx="8.969" cy="0.21" rx="8.969" ry="0.21" transform="translate(52.631 31.199)"/><path class="k" d="M176.384,334.53c0-.116-6.234-.21-13.924-.21s-13.924.094-13.924.21,6.234.21,13.924.21S176.384,334.645,176.384,334.53Z" transform="translate(-148.535 -292.629)"/><path class="k" d="M274.067,291.542c0-.116-4.016-.21-8.97-.21s-8.969.094-8.969.21,4.016.21,8.969.21S274.067,291.657,274.067,291.542Z" transform="translate(-203.8 -270.548)"/><path class="k" d="M283.69,334.53a79.439,79.439,0,0,0-8.15-.21,79.43,79.43,0,0,0-8.15.21,79.369,79.369,0,0,0,8.15.21,79.369,79.369,0,0,0,8.15-.21Z" transform="translate(-209.584 -292.629)"/></g></g></g></svg>