<svg xmlns="http://www.w3.org/2000/svg" width="115.437" height="227.456" viewBox="0 0 115.437 227.456"><defs><style>.a{fill:#916e4b;}.b{fill:#ffbe91;}.c,.k{fill:#6e8c8c;}.c{opacity:0.3;}.d{fill:#ffc832;}.d,.g,.n{opacity:0.5;}.e{fill:#dcdcc8;}.f,.i{fill:#a07850;}.g{fill:#f07864;}.h,.n{fill:#f0a078;}.i,.s{opacity:0.2;}.j{fill:#dc6450;}.l{fill:#e68c6e;}.m{fill:#644632;}.o{fill:#be5a46;}.p{fill:#f5f0e1;}.q{fill:#1e4b64;}.r{fill:#5f4637;}.t{fill:#dce6e6;}.u{fill:#8c6450;}.v{fill:#829696;}.w{fill:#96aaaa;}</style></defs><g transform="translate(-586.407 -5893.271)"><path class="a" d="M146.738,164.222c-5.689,2.465-12.135-.379-10.177-6.826,1.707,6,12.516-.063,2.9-8.714s-9.909-15.746-8.771-20.823a8.324,8.324,0,0,1,.629-1.807c1.76-3.661,5.855-5.462,7.854-4.95a1.859,1.859,0,0,1,.288.1s1.54,3,3.61,7.123c2.3,4.587,5.264,10.557,7.488,15.317.781,1.673,1.471,3.2,2.01,4.455a23.615,23.615,0,0,1,1.161,3.094v.012C154.649,155.174,152.426,161.758,146.738,164.222Z" transform="translate(459.733 5800.516)"/><path class="b" d="M215.892,172.154c-.4.958-5.524,9.908-6.564,11.664-1.255,2.113-2.9,4.847-2.9,4.847s-18.934-16.118-21.808-16.9a5.516,5.516,0,0,0-1.08-.173,12.355,12.355,0,0,0-1.762.03c-1.515.122-3.129.428-4.424.51a3.274,3.274,0,0,1-2.2-.367,3.827,3.827,0,0,1-.779-.972,15.41,15.41,0,0,1-1.428-3.847l-8.138.31a11.572,11.572,0,0,1,2.991,4.9,4.009,4.009,0,0,1-.228,2.365,9.739,9.739,0,0,1-3.66,4.144c-1.541,1-4.352,1.743-5.833,4.358h0a7.33,7.33,0,0,0-.845,2.487c-.069.433-.151.922-.239,1.45-.421,2.507-1.037,5.978-1.64,9.264-.291,1.588-.58,3.131-.842,4.5-.335,1.746-.627,3.215-.83,4.139-.761,3.466-2.367,5.579-3.213,8.537s-4.437,20.963-6.085,24.176c-.079.154-.153.287-.226.41l3.035,1.938c.557-1.493,7.057-11.89,9.308-17.652a33.974,33.974,0,0,0,1.939-7.186,51.3,51.3,0,0,1,1.274-6.418c.425-1.486,1.153-3.638,1.942-5.741.519-1.386,1.065-2.751,1.567-3.892.758-1.722,1.415-2.933,1.732-2.933.845,0,3.155,2.14,4.057,2.761a2.587,2.587,0,0,0,1.2-.129c3.84-.873,15.611-5.013,20.118-6.617,1.113-.4,1.408-2.528,1.408-2.528s15.6,8.592,17.506,7.921a2.489,2.489,0,0,0,1.124-1.069,22.524,22.524,0,0,0,1.521-2.534c.641-1.265,1.118-2.464,1.609-3.637,1.543-3.692,4-13.755,5.1-15.949l-.052-.515h0l-2.608-1.814a1.061,1.061,0,0,1-.047.167Z" transform="translate(453.794 5780.941)"/><path class="c" d="M203.842,461.264c0,1.538-17.863,2.785-39.9,2.785s-39.9-1.247-39.9-2.785,17.862-2.787,39.9-2.787S203.842,459.724,203.842,461.264Z" transform="translate(462.365 5656.678)"/><path class="d" d="M187.961,360.54s-.078.273-.213.735-.34,1.15-.575,1.93c-.22.735-.472,1.561-.734,2.406-.656,2.11-10.6,14.4-18.822,27.448h0q-.738,1.172-1.456,2.35c-1.458,2.393-2.833,4.793-4.065,7.141-1.581,3.019-3.381,9.807-4.733,12.6a5.605,5.605,0,0,1-.3.542c.569-1.24.889-7.2,4.715-14.292,2.915-5.4,15.612-24.936,22.384-34.347a13.913,13.913,0,0,0,2.4-5.751l.813-.965Z" transform="translate(448.294 5698.511)"/><path class="e" d="M208.707,458.5a11.028,11.028,0,0,0-.028,2.056c.507.337,5.24,0,6.819,0s7.833.559,11.214.559,6.48-.339,6.368-1.209-1.3-1.211-2.93-1.211S209.186,456.869,208.707,458.5Z" transform="translate(426.308 5656.957)"/><path class="b" d="M182.253,140.029a12.213,12.213,0,0,1-2.066,2.762c-8.03,8.115-25.1,2.226-25.1,2.226V119.883c2.292-3.019,8.948-5,14.342-5.07,2.76-.036,5.19.433,6.536,1.52,3.973,3.213,4.226,5.579,4.226,5.579a27,27,0,0,1,2.382,5.217,23.655,23.655,0,0,1,.881,3.382A14.357,14.357,0,0,1,182.253,140.029Z" transform="translate(449.136 5803.16)"/><path class="f" d="M173.746,119.736s-1.017-1.248-1.38-1.749c-.247-.34-.45-.683-.686-1.043a9,9,0,0,0-3.361-3.013,9.248,9.248,0,0,0-6.437-1.322c-.953.136-7.342,4.152-8.357,9.845-.022.123-.043.246-.062.369a16.324,16.324,0,0,0-.1,3.957,23.732,23.732,0,0,0,4.384,11.341,7.923,7.923,0,0,1-3.455.032c-2.052-.314-3.939-.831-4.5.488a1.689,1.689,0,0,0,.392,1.884,7.757,7.757,0,0,0,3.961,1.92,14.182,14.182,0,0,0,2.161.162c1.418-.016,2.814-.355,2.234-1.726a20.227,20.227,0,0,0,4.4,1.739,8.854,8.854,0,0,1,1.827,2.523,3.448,3.448,0,0,0-2.206-.429,29.77,29.77,0,0,1-5.1.987c-5.945.586-13.9-.8-17.128-11.561a34.947,34.947,0,0,1-.916-3.752,19.788,19.788,0,0,1,.083-8.553,14.414,14.414,0,0,1,3.4-6.217,27.37,27.37,0,0,1,4.869-4.069c8.471-5.823,20.283-4.1,24.7,4.652a15.767,15.767,0,0,1,1.272,3.535Z" transform="translate(455.99 5806.001)"/><path class="g" d="M203.071,139.658a1.155,1.155,0,0,1-.566-.06,2.366,2.366,0,0,1-1.385-2.279c.023-.448.106-.843.57-.989a1.3,1.3,0,0,1,.5-.055A23.658,23.658,0,0,1,203.071,139.658Z" transform="translate(429.514 5794.013)"/><path class="h" d="M181.692,216.523a2.567,2.567,0,0,1-1.2.129c-.9-.62-3.212-2.76-4.057-2.76-.316,0-.974,1.211-1.732,2.933-.5,1.141-1.048,2.505-1.566,3.892-.79,2.1-1.519,4.255-1.943,5.741a87.889,87.889,0,0,1,2.2-10.763c.872-3.47,1.917-7.091,2.592-7.12A26.1,26.1,0,0,1,180,210.252Z" transform="translate(442.271 5763.195)"/><path class="i" d="M169.544,116.2q-.371.38-.8.744a9,9,0,0,0-3.361-3.013,9.248,9.248,0,0,0-6.437-1.322c-.953.136-7.342,4.152-8.357,9.845-.022.123-.043.246-.062.369q-1.676.111-3.421.111-1.644,0-3.233-.1a47.176,47.176,0,0,1-7.3-1,36.162,36.162,0,0,1-4.45-1.267c1.76-3.661,5.855-5.462,7.854-4.95a27.369,27.369,0,0,1,4.869-4.069C153.32,105.724,165.132,107.445,169.544,116.2Z" transform="translate(458.921 5806.001)"/><path class="h" d="M250.456,186c-.77,2.5-5.872,13.893-6.844,14.857-5.139,1.175-16.679-8.151-16.679-8.151L225.1,195c1.113-.4,1.391.127,1.391.127s15.351,8.466,17.253,7.795c.472-.167.6-.333,1.032-.935l.413-.613a22.549,22.549,0,0,0,1.306-2.266c.641-1.265,1.1-2.48,1.6-3.652,1.534-3.653,3.935-13.778,5.086-15.827A46.516,46.516,0,0,0,250.456,186Z" transform="translate(419.292 5775.533)"/><path class="j" d="M190.855,150.035a25.551,25.551,0,0,1,2.992-3.917c.2-.062.818.033,1.013-.029s.491-.6.687-.639a9.229,9.229,0,0,1,2.37,1.061,4.49,4.49,0,0,0-2.732.218C194.826,146.879,190.855,150.035,190.855,150.035Z" transform="translate(433.889 5790.102)"/><path class="g" d="M177.324,150.091a2.708,2.708,0,0,0,1.254-.543,3.729,3.729,0,0,0,1.263-3.016,1.738,1.738,0,0,0-2.6-1.586,3.762,3.762,0,0,0-2.035,3.217,1.885,1.885,0,0,0,.57,1.586A1.933,1.933,0,0,0,177.324,150.091Z" transform="translate(440.559 5790.396)"/><path class="j" d="M197.2,151.377s.142-.1.352-.217l.357-.2c.128-.076.269-.146.4-.229a4.274,4.274,0,0,0,.7-.476,1.52,1.52,0,0,0,.193-.208c.042-.057.072-.091.072-.091a.912.912,0,0,1-.011.116.86.86,0,0,1-.1.3,1.6,1.6,0,0,1-.274.352,2.15,2.15,0,0,1-.4.3,2.775,2.775,0,0,1-.861.32,1.927,1.927,0,0,1-.428.033Z" transform="translate(431.183 5788.182)"/><path class="h" d="M190.873,154.705s-1.78,6.4-7.919,6.908a21.429,21.429,0,0,1-9.857-1.184l-.042.3a12.076,12.076,0,0,0,4.4,1.738c2.738.333,6.412.026,7.758-.7a11.721,11.721,0,0,0,5.66-7.067Z" transform="translate(441.476 5786.156)"/><path class="b" d="M143.63,297.5c-.089-1.206-1.207-4.066-1.117-4.691a.63.63,0,0,1,.033-.108l-3.026-1.936a3.315,3.315,0,0,1-.321.47h0c-.555.65-1.024.426-2.538,2.062,0,0-3.3,3.732-3.4,5.473s1.939,5.575,3.173,6.278c1.673.951,2.431,1.109,2.557.509a2.377,2.377,0,0,0-1.043-1.991,29.663,29.663,0,0,1,3.366-4.315h0a5.608,5.608,0,0,1,.648-.551,5.61,5.61,0,0,0-.648.551c0,.006-1.47,2.451-1.807,3.083s-.358,1.265.41,1.454c.75.189,2.254-1.9,2.254-1.9a6.524,6.524,0,0,0,1.454-4.388Z" transform="translate(458.436 5728.16)"/><path class="d" d="M229.068,359.555c-.257,1.8-3.993,9.239-5.8,26.229-.049.473-.1.952-.145,1.441q-.035.361-.07.734-.116,1.248-.214,2.564h0q-.149,1.98-.262,4.109c-.028.535-.054,1.08-.079,1.631q-.118,2.753-.167,5.75c0,.319-.01.641-.011.969a.455.455,0,0,1-.295-.377c-.282-2.124.565-20.117,2.028-28.232s4.457-16.861,4.606-18.545l.348-1.125.232-.054a27.216,27.216,0,0,1-.171,4.906Z" transform="translate(420.627 5700.932)"/><path class="h" d="M189.636,170.861c-1,2.852-4.91,3.557-6.8,3.731a4.006,4.006,0,0,0,.228-2.365,11.58,11.58,0,0,0-2.99-4.9l8.138-.309a15.4,15.4,0,0,0,1.424,3.843Z" transform="translate(438.485 5780.91)"/><path class="d" d="M237.062,452.5l-.106.087s-.053-1.86-1.352-2.005c-11.656-1.31-14.959-7.573-14.959-7.573l1.117-.811c.431,2.3,8.593,6.721,11.771,7.2l.174.022C236.739,449.743,238.1,451.568,237.062,452.5Z" transform="translate(421.191 5663.617)"/><path class="i" d="M183.571,113.98a17.943,17.943,0,0,0-8.786-5.712,14.606,14.606,0,0,1,5.3.847C181.772,110.327,183.312,111.96,183.571,113.98Z" transform="translate(440.738 5805.951)"/><path class="i" d="M169.883,112.835s-8.767-3.663-14.509-1.305a22.239,22.239,0,0,1,7.555-2.607c4.967,1.063,6.711,3.529,6.955,3.913Z" transform="translate(449.012 5805.671)"/><path class="i" d="M162.532,117c-3.523-1.531-11.285-1.205-15.523.975a18.177,18.177,0,0,1,1.457-1.542c.369-.347.764-.689,1.19-1.026C153.717,113.989,160.887,114.436,162.532,117Z" transform="translate(452.577 5803.244)"/><path class="k" d="M169.157,355.1h-.008C169.144,355.088,169.148,355.09,169.157,355.1Z" transform="translate(443.141 5700.744)"/><path class="l" d="M138.494,306.848l-.131.192a1.636,1.636,0,0,0-.137.226,2.761,2.761,0,0,0-.153.3,4.6,4.6,0,0,0-.275.8,5.021,5.021,0,0,0-.146.96,5.937,5.937,0,0,0,.031.965,5.628,5.628,0,0,0,.133.826,3.291,3.291,0,0,0,.192.562l.108.2-.019.017s-.061-.059-.165-.172a2.182,2.182,0,0,1-.308-.547,3.463,3.463,0,0,1-.2-.862,5.435,5.435,0,0,1,.573-2.794,3.016,3.016,0,0,1,.18-.3,1.688,1.688,0,0,1,.155-.217l.145-.18Z" transform="translate(456.669 5721.314)"/><path class="l" d="M135.82,309.616a2.446,2.446,0,0,1-.256-.649,4.428,4.428,0,0,1-.12-.708,5.314,5.314,0,0,1,.06-.822l.075-.411a1.8,1.8,0,0,1,.114-.387l.129-.353a1.111,1.111,0,0,1,.148-.3l.36-.59.021.015-.3.612a1.064,1.064,0,0,0-.116.306l-.1.352a1.635,1.635,0,0,0-.084.379c-.015.131-.03.265-.045.4a7.783,7.783,0,0,0,0,.786c.033.248.02.487.055.686.018.2.04.37.057.488s.026.189.026.189Z" transform="translate(457.507 5721.927)"/><path class="l" d="M134.534,303.988a4.883,4.883,0,0,0-.251.5,3.971,3.971,0,0,0-.17.542,3.57,3.57,0,0,0-.09.638,5.069,5.069,0,0,0,.057.636c.045.2.036.4.087.553a4.988,4.988,0,0,1,.1.555l-.023.01a4.563,4.563,0,0,1-.275-.508,2.606,2.606,0,0,1-.155-.576A1.317,1.317,0,0,1,133.8,306c.005-.116.005-.232.015-.348a3.764,3.764,0,0,1,.151-.664,3.176,3.176,0,0,1,.231-.54,4.805,4.805,0,0,1,.31-.477Z" transform="translate(458.207 5722.533)"/><path class="l" d="M144.554,460.236s-.006-.062-.018-.17a1.217,1.217,0,0,1,.056-.456,1.742,1.742,0,0,1,.3-.577,4.013,4.013,0,0,1,.51-.544c.186-.17.38-.332.567-.472s.379-.247.536-.345l.537-.314.017.019a2.891,2.891,0,0,1-.435.458c-.144.122-.312.261-.5.4s-.4.266-.592.414a3.772,3.772,0,0,0-.526.481,1.809,1.809,0,0,0-.336.514,1.133,1.133,0,0,0-.1.425v.171Z" transform="translate(453.632 5657.156)"/><path class="l" d="M143.315,458.558a1.26,1.26,0,0,1,.069-.439,2.729,2.729,0,0,1,.5-.847,3.357,3.357,0,0,1,.372-.373,2.555,2.555,0,0,1,.373-.267,1.76,1.76,0,0,1,.3-.135l.113-.045-.1.071c-.062.047-.155.1-.254.187a3.437,3.437,0,0,0-.328.3,3.192,3.192,0,0,0-.342.373,4.188,4.188,0,0,0-.313.4,4.031,4.031,0,0,0-.228.374,1.161,1.161,0,0,0-.124.289Z" transform="translate(454.152 5657.542)"/><path class="h" d="M156.459,201.83c-.029,3.832-1.792,16.39-2.817,19.528-.322.982-.671,2.42-2.144,6.439-1.309,3.846-6.36,23.682-7.608,25.539l-.984.352.31-.238a5.215,5.215,0,0,0,.631-1c1.648-3.213,5.241-21.217,6.085-24.176s2.452-5.071,3.213-8.537c.2-.923.5-2.393.83-4.139.262-1.373.551-2.916.842-4.5C155.422,207.808,156.038,204.337,156.459,201.83Z" transform="translate(454.326 5766.07)"/><path class="l" d="M142.6,457.017a1.165,1.165,0,0,1-.04-.33,1.262,1.262,0,0,1,.279-.686,1.991,1.991,0,0,1,.566-.464,1.71,1.71,0,0,1,.3-.127s-.106.08-.252.2a3.549,3.549,0,0,0-.488.491,1.614,1.614,0,0,0-.317.593,1.2,1.2,0,0,0-.044.227Z" transform="translate(454.473 5657.984)"/><path class="h" d="M147.62,387.6Z" transform="translate(452.317 5686.891)"/><path class="m" d="M276.987,156.814a.948.948,0,0,1-.948-.948V116.841a.95.95,0,1,1,1.9,0v39.025a.948.948,0,0,1-.952.948Z" transform="translate(397.58 5802.699)"/><path class="b" d="M271.882,169.8a19.913,19.913,0,0,0,4.247-2.53,1.315,1.315,0,0,0,.354-.509,5.054,5.054,0,0,0,0-2.235c.254-.887.38-3.8-.465-4.939.422-1.689-.337-1.815-1.18-1.9a4.672,4.672,0,0,0-2.323.422c.1-.593.021-1.449-.8-1.434-.777.014-.806.548-.806,1.35a5.289,5.289,0,0,1-.333,1.978c-.167.415-1.005,1.778-1.4,2.879a4.374,4.374,0,0,0-.141.462c-.479,1.981.233,3.506.057,4.271l2.665,2.332a.749.749,0,0,1,.076-.1A.18.18,0,0,1,271.882,169.8Z" transform="translate(400.638 5785.316)"/><g transform="translate(671.209 5943.46)"><path class="l" d="M273.751,159.233a2.989,2.989,0,0,0-1.16,1.11,1.567,1.567,0,0,0-.2.75,1.861,1.861,0,0,0,.172.755l.029.068-.051.054a1.6,1.6,0,0,0-.455,1.083,1.121,1.121,0,0,0,.137.558c.092.164.244.268.364.218l.4-.167-.248.362a2.072,2.072,0,0,0-.4,1.063,1.291,1.291,0,0,0,.09.546c.069.161.2.32.329.335l.144.017-.052.125a1.449,1.449,0,0,0,.011,1.247,1.013,1.013,0,0,0,.456.448,1.083,1.083,0,0,0,.656.081,1.379,1.379,0,0,1-.341.051,1.158,1.158,0,0,1-.343-.067,1.12,1.12,0,0,1-.543-.447,1.619,1.619,0,0,1-.09-1.39l.092.141a.681.681,0,0,1-.53-.45,1.525,1.525,0,0,1-.119-.645,2.321,2.321,0,0,1,.42-1.2l.153.2a.469.469,0,0,1-.425-.048.774.774,0,0,1-.256-.285,1.369,1.369,0,0,1-.16-.686,1.83,1.83,0,0,1,.539-1.237l-.022.122a1.961,1.961,0,0,1-.15-.849,1.741,1.741,0,0,1,.262-.815A2.819,2.819,0,0,1,273.751,159.233Z" transform="translate(-271.839 -159.233)"/><path class="l" d="M272.73,162.645a3.17,3.17,0,0,1,.561-.578,3.744,3.744,0,0,1,.678-.452,3.793,3.793,0,0,1,.869-.329,4.219,4.219,0,0,1,.915-.112,4.736,4.736,0,0,1,.8.076,3.832,3.832,0,0,1,.548.13l.206.057-.208-.046a3.887,3.887,0,0,0-.551-.1,4.729,4.729,0,0,0-.788-.034,4.113,4.113,0,0,0-.883.157,3.626,3.626,0,0,0-.815.359,3.557,3.557,0,0,0-.619.462,2.884,2.884,0,0,0-.489.558Z" transform="translate(-272.219 -160.061)"/><path class="l" d="M273.08,166.2s.266-.2.676-.487c.2-.143.449-.3.714-.468l.419-.24a2.8,2.8,0,0,1,.468-.2,1.09,1.09,0,0,1,.5-.037,4.82,4.82,0,0,1,.479.1c.3.077.578.17.812.253.469.166.774.295.774.295s-.311-.114-.787-.255c-.237-.071-.516-.15-.818-.211-.151-.038-.3-.05-.461-.075a.985.985,0,0,0-.465.056,2.671,2.671,0,0,0-.429.21l-.4.254c-.253.177-.485.345-.681.5-.391.3-.642.513-.642.513Z" transform="translate(-272.368 -161.588)"/><path class="l" d="M273.3,169.944s.26-.2.662-.482c.2-.141.439-.3.7-.463.136-.076.267-.164.415-.235a1.94,1.94,0,0,1,.47-.184.526.526,0,0,1,.256,0,.844.844,0,0,1,.242.057,3.1,3.1,0,0,1,.449.174c.281.125.532.261.746.38.426.239.7.415.7.415s-.283-.162-.72-.379c-.218-.107-.476-.23-.759-.339a3.117,3.117,0,0,0-.435-.146.743.743,0,0,0-.23-.043c-.088,0-.154-.025-.224.014a1.81,1.81,0,0,0-.421.192c-.137.074-.264.169-.392.248-.248.173-.476.341-.667.491-.383.3-.628.508-.628.508Z" transform="translate(-272.462 -163.209)"/></g><path class="n" d="M277,173.219a2.737,2.737,0,0,1,1.328,1,19.233,19.233,0,0,1-4.3,2.573s.655-.5.632-.938a3.676,3.676,0,0,0-.43-2.162s.606.154.769.03C275.559,173.3,275.887,172.618,277,173.219Z" transform="translate(398.435 5778.365)"/><path class="o" d="M190.322,130.335c.017.289.01.581.029.866a3.8,3.8,0,0,0,.143.829,2.3,2.3,0,0,0,.376.726,2.4,2.4,0,0,0,.272.3,3.4,3.4,0,0,0,.309.27,3.192,3.192,0,0,0,.344.232,2.6,2.6,0,0,0,.367.2,3.7,3.7,0,0,0,.381.176l.4.15c.264.1.538.177.807.266l.83.206.111.028.02.1a2.415,2.415,0,0,1-.461,1.814,3.059,3.059,0,0,1-.3.358,2.568,2.568,0,0,1-.372.284,2.027,2.027,0,0,1-.425.187,1.545,1.545,0,0,1-.454.049,1.821,1.821,0,0,0,.429-.118,1.891,1.891,0,0,0,.374-.227,2.5,2.5,0,0,0,.56-.656,2.356,2.356,0,0,0,.322-1.616l.13.127-.857-.189-.423-.124a3.728,3.728,0,0,1-.42-.135l-.411-.169a3.97,3.97,0,0,1-.4-.2,2.934,2.934,0,0,1-.387-.225,3.574,3.574,0,0,1-.366-.263,3.752,3.752,0,0,1-.334-.308,2.683,2.683,0,0,1-.629-1.2,4.9,4.9,0,0,1,.04-1.738Z" transform="translate(434.161 5796.544)"/><path class="a" d="M173.139,134.764c-.084-1.2.548-3.034,2.212-3.287s2.711.648,4.551.147c1.006-.274.737,1.1-.316,1.1-2.366,0-3.4-.661-4.529-.252C173.771,132.93,173.139,134.764,173.139,134.764Z" transform="translate(441.443 5796.076)"/><path class="a" d="M192.521,123.855c-.752.166-1.052,2.2-1.627,2.549-.822.506-.46,1.209.23,1.033.823-.211.971-1.075,1.118-1.623s.38-1.222.864-1.222a1.892,1.892,0,0,1,1.561.586C195.25,125.757,193.76,123.582,192.521,123.855Z" transform="translate(434.073 5799.316)"/><path class="p" d="M178.239,138.694c.11-1.349.784-3.013,2.028-3.034a2.375,2.375,0,0,1,1.917,1.1,2.594,2.594,0,0,1-1.854,2.17,7,7,0,0,1-2.091-.236Z" transform="translate(439.266 5794.273)"/><path class="q" d="M203.431,372.408l-.106.086c-.729.536-5.38.617-9.975.326-4.281-.273-8.806-.842-9.89-.8-2.286.087-3.465-.635-3.3-3.253s2.114-5.156,2.2-8.03a60.582,60.582,0,0,0-.878-6.793c-.072-.465-.151-.945-.227-1.436q-.114-.706-.229-1.441c-.231-1.471-.47-3.028-.7-4.618h0c-.114-.773-.224-1.555-.33-2.335h0c-.059-.422-.114-.844-.169-1.265-.731-5.621-1.187-11.121-.59-14.144a46.6,46.6,0,0,1,3.8-10.06l-.182-3.5-.154-3a54.007,54.007,0,0,1-2.965,8.685v.005c-1.508,2.979-10.852,14.668-18.645,27.037h0q-.739,1.171-1.456,2.35c-1.457,2.393-2.833,4.793-4.064,7.141-1.581,3.019-3.381,9.807-4.734,12.6a5.335,5.335,0,0,1-.3.542c-1.549,2.487-4.984,4.112-6.247,3.875-1.352-.253-3.172-4.5-2.326-9.151s7.777-8.875,9.129-10.566a2.338,2.338,0,0,0,.248-.432,18.04,18.04,0,0,0,.666-1.708c.281-.806.6-1.8.964-2.942h0c2.262-7.137,5.995-19.851,10.037-26.529,1.984-3.276,7.524-6.847,7.524-6.847v-1.043a.5.5,0,0,1,0-.2v-.7h.014c-.194-4.064-3.132-22.972-4.561-32.978-1.552-10.872.625-18.118,4.09-23.733l2.223-2.315.885-.923h21.636s3.563,1.436,4.151,13.066c.444,8.759-1.741,29.228-3.063,40.636,0,0,0,.007,0,.01v.034c-.429,3.7-.767,6.441-.893,7.508-.032.406-.075.821-.134,1.231-.257,1.8-3.993,9.24-5.8,26.23q-.074.708-.146,1.441-.036.361-.069.734-.118,1.247-.215,2.565h0q-.15,1.979-.263,4.109c-.026.535-.053,1.081-.077,1.631q-.12,2.753-.168,5.75c-.005.32-.01.641-.011.969,0,.188,0,.378-.005.567,0,.376-.005.757-.008,1.141a.158.158,0,0,0,0,.036.793.793,0,0,0,.019.153c.431,2.3,8.593,6.721,11.771,7.2l.175.023C203.107,369.651,204.466,371.475,203.431,372.408Z" transform="translate(454.823 5743.71)"/><path class="p" d="M194.076,131.39c-.068-.97.375-2,1.2-2.086s1.391,1.043,1.391,1.043c.084.537-.255,1.428-.885,1.527A2.392,2.392,0,0,1,194.076,131.39Z" transform="translate(432.519 5796.984)"/><path class="r" d="M182.029,136.677a.858.858,0,1,1-1.109-.728.947.947,0,0,1,1.109.728Z" transform="translate(438.359 5794.164)"/><path class="r" d="M196.446,130.223c.151.483,0,.959-.338,1.065s-.733-.2-.885-.682,0-.959.338-1.065S196.295,129.741,196.446,130.223Z" transform="translate(432.052 5796.891)"/><g class="s" transform="translate(596.564 5995.937)"><path class="q" d="M200.076,369.323l-.175-.023c-3.178-.474-11.34-4.891-11.771-7.2a.791.791,0,0,1-.019-.153.16.16,0,0,1,0-.036c0-.384,0-.765.008-1.141,0-.189,0-.379.005-.567,0-.328.006-.649.011-.969q.046-3,.168-5.75c.024-.55.05-1.1.077-1.631q.114-2.132.263-4.109h0q.1-1.317.215-2.565.034-.372.069-.734.071-.733.146-1.441c1.807-16.99,5.543-24.426,5.8-26.23.059-.41.1-.826.134-1.231.126-1.067.464-3.807.893-7.508-.08.627-.981,7.489-2.83,7.1-4.875-1.034-4.8-16.765-4.467-26.373s1.18-21.825,1.18-21.825l-2.008,1.517s-1.531,19.972-2.375,27.978-4.719,19.467-7.247,19.382-3.54-5.057-6.068-24.86c-2.343-18.358.889-25.273,2.718-30.1h0c2.949.371,14.323-.352,20.012-6.563-2.51,2.191-10.747,5.534-16.178,5.671a18.624,18.624,0,0,1-3.431-.212l-2.911-4.536-2.223,2.315c-3.466,5.615-5.642,12.862-4.09,23.733,1.429,10.006,4.366,28.914,4.561,32.978h-.014v.7a.5.5,0,0,0,0,.2v1.043s-5.54,3.571-7.524,6.847c-4.042,6.677-7.775,19.392-10.037,26.529h0c-.359,1.137-.684,2.136-.964,2.942a18.036,18.036,0,0,1-.666,1.708,2.337,2.337,0,0,1-.248.432c-1.352,1.691-8.285,5.919-9.129,10.566s.974,8.9,2.326,9.151c1.263.238,4.7-1.387,6.247-3.875a5.344,5.344,0,0,0,.3-.542c1.353-2.789,3.153-9.576,4.734-12.6,1.231-2.347,2.607-4.747,4.064-7.141q.715-1.176,1.456-2.35h0c7.793-12.369,17.137-24.058,18.645-27.037v-.005a54.009,54.009,0,0,0,2.965-8.685l.154,3,.182,3.5a46.6,46.6,0,0,0-3.8,10.06c-.6,3.023-.141,8.523.59,14.144.056.421.111.843.169,1.265h0c.106.78.216,1.561.33,2.335h0c.234,1.589.473,3.147.7,4.618q.116.735.229,1.441c.076.491.154.971.227,1.436a60.58,60.58,0,0,1,.878,6.793c-.085,2.873-2.029,5.409-2.2,8.03s1.009,3.34,3.3,3.253c1.084-.04,5.609.53,9.89.8,4.6.291,9.246.21,9.975-.326l.106-.086C204.466,371.476,203.107,369.651,200.076,369.323Z" transform="translate(-141.742 -252.228)"/><path class="q" d="M234.241,254.291Z" transform="translate(-181.168 -252.227)"/><path class="q" d="M234.658,250.694c.233.543.4.92.46,1.064a.721.721,0,0,0-.46-1.064Z" transform="translate(-181.346 -250.694)"/></g><path class="o" d="M193.065,129.868s-.027-.072-.065-.2a1.552,1.552,0,0,1-.057-.232,1.7,1.7,0,0,1-.043-.315,1.992,1.992,0,0,1,.1-.8,1.2,1.2,0,0,1,.26-.421.636.636,0,0,1,.211-.165l.12-.068c.08-.026.084-.023.13-.036a1.673,1.673,0,0,1,.5-.04,1.815,1.815,0,0,1,.458.112,1.7,1.7,0,0,1,.679.455,1.321,1.321,0,0,1,.182.269.745.745,0,0,1,.091.227c.038.13.052.2.052.2s-.048-.063-.118-.17a.667.667,0,0,0-.141-.177,2.2,2.2,0,0,0-.215-.191,1.9,1.9,0,0,0-.287-.17,1.683,1.683,0,0,0-.346-.126,2.085,2.085,0,0,0-.382-.064,1.212,1.212,0,0,0-.38.042l-.087.019-.073.042a.334.334,0,0,0-.137.1,1.026,1.026,0,0,0-.211.291,2.056,2.056,0,0,0-.123.347,2.817,2.817,0,0,0-.069.337c-.021.107-.021.2-.033.294a1.518,1.518,0,0,0-.011.235C193.071,129.792,193.065,129.868,193.065,129.868Z" transform="translate(433.019 5797.716)"/><path class="r" d="M178.223,138.519s-.011-.1-.021-.273a3.841,3.841,0,0,1,.05-.727,3.739,3.739,0,0,1,.3-1,2.424,2.424,0,0,1,.778-.981,1.691,1.691,0,0,1,.627-.264,1.45,1.45,0,0,1,.355-.019l.277.038a2.286,2.286,0,0,1,.563.182,2.468,2.468,0,0,1,.419.291,2.2,2.2,0,0,1,.474.566,1.569,1.569,0,0,1,.122.247s-.069-.073-.2-.184A3.253,3.253,0,0,0,181.4,136a3.933,3.933,0,0,0-.4-.181l-.215-.048a.768.768,0,0,0-.24-.038l-.279-.013c-.039,0-.145.019-.214.029a1.219,1.219,0,0,0-.435.2,1.691,1.691,0,0,0-.374.347,3.12,3.12,0,0,0-.3.426,6.136,6.136,0,0,0-.415.868c-.106.269-.176.5-.23.663Z" transform="translate(439.282 5794.449)"/><path class="r" d="M194,131.211s-.022-.07-.051-.192a1.883,1.883,0,0,1-.052-.529,2.276,2.276,0,0,1,.17-.756,1.882,1.882,0,0,1,.247-.388l.171-.177a2.561,2.561,0,0,1,.215-.141.613.613,0,0,1,.24-.094,1.776,1.776,0,0,1,.27-.053,1.141,1.141,0,0,1,.479.094,1.5,1.5,0,0,1,.6.526,1.758,1.758,0,0,1,.3.667,5.144,5.144,0,0,0-.509-.47,1.719,1.719,0,0,0-.547-.306.855.855,0,0,0-.314-.023c-.063.037-.2.032-.278.1-.045.028-.1.049-.14.08l-.122.118a2.443,2.443,0,0,0-.217.269c-.048.107-.115.2-.16.3l-.119.3a4.3,4.3,0,0,0-.133.479A1.531,1.531,0,0,1,194,131.211Z" transform="translate(432.59 5797.164)"/><path class="o" d="M177.192,136.729s-.02-.087-.045-.239a3.581,3.581,0,0,1-.042-.647c.013-.134.021-.282.048-.436a3.2,3.2,0,0,1,.135-.479,1.968,1.968,0,0,1,.255-.479,2.4,2.4,0,0,1,.174-.224l.217-.191a2.241,2.241,0,0,1,.5-.279,2.724,2.724,0,0,1,.524-.1,1.96,1.96,0,0,1,.52.036,1.664,1.664,0,0,1,.426.126,2.5,2.5,0,0,1,.566.322,1.5,1.5,0,0,1,.184.161s-.08-.039-.221-.1a3.232,3.232,0,0,0-.593-.178,2,2,0,0,0-.4-.053,2.4,2.4,0,0,0-.421.012,3.713,3.713,0,0,0-.458.117,1.893,1.893,0,0,0-.4.235l-.18.149a1.974,1.974,0,0,0-.147.183,2.016,2.016,0,0,0-.244.394c-.072.135-.111.282-.168.414l-.106.4a5.543,5.543,0,0,0-.1.617C177.206,136.641,177.192,136.729,177.192,136.729Z" transform="translate(439.75 5795.129)"/><path class="p" d="M198.607,206.993c1.2,4.077,4.835,12.356,4.835,12.356-.569,1.991-10.618,6.447-16.907,6.6a18.628,18.628,0,0,1-3.431-.212c-3.709-.6-5.134-2.221-5.134-2.221s4.993-9.354,4.677-11.282-6.98-10.675-10.426-12.748c-.652.7-1.457,3.81-1.924,5.817-.236,1.015-.386,1.748-.386,1.748a7.488,7.488,0,0,1-2.335-.174,19.7,19.7,0,0,1-7.3-2.891c.1-.463.255-1.067.427-1.766.344-1.4.773-3.183,1.09-4.934.474-2.623,1.506-11.293,4.266-12.862,1.014-.577,3.287-2.276,4.046-2.782.5-.332,1.495-1.3,2.4-1.973a3.6,3.6,0,0,1,1.267-.687l-.464.627-.153.183c.885.885,5.742,4.632,9.654,2.736,3.739-1.813,2.581-5.607,1.186-7.171a3.015,3.015,0,0,1-1.327-.08,3.353,3.353,0,0,1,.957-.334c.2-.025.38-.042.552-.05.9-.056,1.53.053,2.829-.106,1.549-.19,3.76-.537,4.8,0a83.21,83.21,0,0,1,7.236,4.993c1.666,1.263,3.563,2.848,4.728,3.838.671.57,1.1.943,1.1.943-.189,2.907-4.406,10.428-4.406,10.428l-1.246-.409-.79-.258S197.406,202.916,198.607,206.993Z" transform="translate(446.923 5777.717)"/><path class="t" d="M230.116,203.074c-1.327-.964-2.654-1.593-3.169-3.323s-.225,5.218-.225,5.218l2.036.666Z" transform="translate(418.636 5767.074)"/><path class="j" d="M193.175,183.913c-3.583,2.276-8.649-.2-10.587-1.552s-1.517-1.811-1.2-2.394a3.6,3.6,0,0,1,1.267-.687l-.464.627-.153.183c.885.885,5.742,4.632,9.654,2.736,3.739-1.813,2.581-5.607,1.186-7.172a3.016,3.016,0,0,1-1.327-.08,3.352,3.352,0,0,1,.957-.334c.2-.025.38-.042.552-.05C195.783,176.316,196.757,181.638,193.175,183.913Z" transform="translate(438.04 5777.426)"/><path class="u" d="M182.184,137.569l-.005.223a.84.84,0,0,1-.033.252,3.386,3.386,0,0,1-.1.329l-.188.356c-.081.115-.169.239-.269.36a3.013,3.013,0,0,1-.767.613,1.457,1.457,0,0,1-.508.155l-.465-.008a4.592,4.592,0,0,1-.831-.111c-.241-.045-.431-.119-.568-.154a.922.922,0,0,1-.209-.076s.322.044.8.089l.38.026a2.912,2.912,0,0,0,.428.007l.465-.009a1.3,1.3,0,0,0,.4-.145,2.774,2.774,0,0,0,.721-.536l.278-.316.211-.314.137-.284a.82.82,0,0,0,.076-.24Z" transform="translate(439.266 5793.46)"/><path class="u" d="M196.668,131.125l.033.159a.871.871,0,0,1,.011.188.845.845,0,0,1-.023.248,1.6,1.6,0,0,1-.224.588,1.3,1.3,0,0,1-.251.271c-.053.037-.1.078-.161.112l-.192.068a1.918,1.918,0,0,1-.365.03,3.317,3.317,0,0,1-.361-.039,2.311,2.311,0,0,1-.581-.22,1.87,1.87,0,0,1-.472-.361l.144.072a4.127,4.127,0,0,0,.387.16,3.306,3.306,0,0,0,.558.134c.1,0,.2.025.31.02a1.884,1.884,0,0,0,.325-.04l.141-.041.126-.081a1.084,1.084,0,0,0,.215-.211,2.6,2.6,0,0,0,.158-.249,1.22,1.22,0,0,0,.108-.247,1.639,1.639,0,0,0,.1-.4Z" transform="translate(432.514 5796.207)"/><path class="j" d="M170.3,225.9c-.236,1.015-.386,1.748-.386,1.748-1.58.285-7.079-1.106-9.639-3.065.1-.463.255-1.067.427-1.766C162.16,223.942,166.891,226.343,170.3,225.9Z" transform="translate(446.923 5757.123)"/><path class="j" d="M233.811,191.338c-.189,2.907-4.406,10.428-4.406,10.428l-1.246-.409c.858-1.264,4.582-8.274,4.553-10.962C233.383,190.965,233.811,191.338,233.811,191.338Z" transform="translate(417.988 5770.943)"/><path class="v" d="M213.8,183.558s1,.543,2.4,1.5c.7.477,1.514,1.052,2.343,1.724.415.334.834.7,1.244,1.079a9.4,9.4,0,0,1,1.153,1.281,2.634,2.634,0,0,1,.416.817,8.144,8.144,0,0,1,.189.825l.109.854q.025.414.047.816a27.791,27.791,0,0,1-.08,2.916,26.567,26.567,0,0,1-.36,2.817l-.051-.005s0-1.131.01-2.828c0-.423,0-.881-.006-1.364-.026-.483,0-.994-.039-1.516-.008-.262-.017-.528-.026-.8s-.046-.525-.069-.791a7.545,7.545,0,0,0-.151-.82,2.224,2.224,0,0,0-.324-.7A13.282,13.282,0,0,0,218.354,187c-.8-.688-1.578-1.3-2.257-1.8-1.358-1.014-2.327-1.6-2.327-1.6Z" transform="translate(424.122 5773.857)"/><path class="t" d="M191.518,227.474c-.17,4.592-3.073,12.786-3.073,12.786-3.709-.6-5.134-2.221-5.134-2.221s4.993-9.354,4.677-11.282-6.98-10.675-10.426-12.748c-.652.7-1.457,3.81-1.924,5.817-.236,1.015-.386,1.748-.386,1.748a7.488,7.488,0,0,1-2.335-.174l-.115-.224c.386-2.13,2.877-12.505,4.771-12.606s4.337,2.092,6.569,4.535S191.686,222.881,191.518,227.474Z" transform="translate(441.583 5763.199)"/><path class="v" d="M232.885,106.461l1.159.414c11.25-2.838,30.338-7.594,50.626-4.813,0-4.8.084-21.173,1.2-26.771l-1.113-1.65Z" transform="translate(415.974 5820.708)"/><path class="w" d="M181.1,212.968l.064-.295c.022-.093.05-.205.081-.335l.069-.437c.061-.313.109-.689.173-1.089l.184-1.255c.059-.427.116-.855.171-1.257s.108-.776.138-1.1a7.27,7.27,0,0,0,.075-.78c.014-.191.023-.3.023-.3s.018.108.051.3a4.809,4.809,0,0,1,.068.793,10.391,10.391,0,0,1-.023,1.122c-.019.41-.08.843-.128,1.278-.076.43-.134.863-.231,1.262a10.249,10.249,0,0,1-.292,1.087,4.455,4.455,0,0,1-.289.738Z" transform="translate(438.047 5764.24)"/><path class="w" d="M177.366,205.785l.243.228a4.913,4.913,0,0,1,.526.715,8,8,0,0,1,.54,1.127,12.417,12.417,0,0,1,.444,1.358,13.416,13.416,0,0,1,.419,2.632,7.246,7.246,0,0,1-.032,1.212l-.044-.329c-.025-.209-.079-.5-.141-.858-.126-.706-.329-1.64-.57-2.561a18.6,18.6,0,0,0-.811-2.483,6.729,6.729,0,0,0-.388-.766Z" transform="translate(439.638 5764.384)"/><path class="e" d="M210.48,438.347c-1.223,1.066-1.531,2.579-2.2,5.3a12.969,12.969,0,0,0,.007,7.053c-.3.575,21.444,2.109,24.037.247,1.033-3.127-1.454-4.861-3.645-5.194s-5.14-.882-6.91-2.315-3.455-4.172-3.961-4.467-3.2.169-3.371.675a1.4,1.4,0,0,0,0,.912c-.885.057-3.371-.279-3.75-.659Z" transform="translate(426.667 5665.259)"/><path class="e" d="M149.351,429.2c-1.1-.228-2.337.505-4.739,3.16s-5.435,6.194-5.119,10.556,1.643,6.446,3.476,6.826,5.941-1.117,7.458-4.035a47.671,47.671,0,0,0,3.6-8.858c.822-2.907.982-4.258.791-4.93a1.654,1.654,0,0,0-.569-.759c.158-.5-.3-1.283-2.033-1.947S149.647,428.722,149.351,429.2Z" transform="translate(455.791 5669.337)"/><path class="v" d="M208.653,459.874l1.052.115c.333.051.742.057,1.208.083l1.565.074,1.857.053,1.008-.011h.534l.535.027c.733.078,1.476.189,2.219.293s1.507.2,2.27.259c.76.091,1.523.137,2.276.178.75.065,1.492.029,2.208.046s1.407-.056,2.066-.073,1.278-.085,1.852-.134c1.145-.107,2.1-.2,2.762-.314a2.432,2.432,0,0,0,.742-.2c.094-.056-.014-.119-.049-.125a.393.393,0,0,0-.067-.022.4.4,0,0,1,.068.017.249.249,0,0,1,.079.038c.037.023.023.085-.018.108a2.274,2.274,0,0,1-.741.255c-.658.148-1.608.313-2.754.454-.573.068-1.19.155-1.853.2s-1.358.138-2.082.126-1.472.035-2.23-.022c-.759-.033-1.53-.07-2.3-.154-1.529-.144-3.071-.426-4.46-.6l-.535-.033-.517-.009-1.024-.023-1.86-.116c-.576-.033-1.1-.1-1.572-.147s-.874-.08-1.2-.149Z" transform="translate(426.303 5656.083)"/><path class="v" d="M141.038,444.233l-.157.992c-.1.629-.216,1.535-.285,2.622a16.361,16.361,0,0,0-.014,1.753,11.251,11.251,0,0,0,.251,1.924,5.823,5.823,0,0,0,.761,1.892,4.524,4.524,0,0,0,.648.81,4.216,4.216,0,0,0,.848.605l.228.13.1.057.129.045.516.181a3.3,3.3,0,0,0,.5.089l.25.037a2,2,0,0,0,.257-.005,4.582,4.582,0,0,0,1.96-.476,6.957,6.957,0,0,0,.857-.484,7.854,7.854,0,0,0,.771-.551c.246-.188.461-.4.682-.591.206-.208.408-.4.594-.6.363-.4.685-.785.955-1.137s.484-.672.658-.939a9.7,9.7,0,0,0,.5-.871l-.1.241c-.063.16-.179.383-.328.667a13.4,13.4,0,0,1-1.517,2.18c-.181.208-.379.416-.581.635-.219.2-.431.427-.677.629a7.671,7.671,0,0,1-1.663,1.119,4.918,4.918,0,0,1-2.1.534c-.094,0-.186.013-.281.008l-.287-.038a3.829,3.829,0,0,1-.565-.1l-.518-.174-.13-.044a1.461,1.461,0,0,1-.142-.073l-.25-.138a4.641,4.641,0,0,1-.917-.672,4.911,4.911,0,0,1-.693-.885,6.165,6.165,0,0,1-.783-2.008,9.692,9.692,0,0,1-.205-1.988,16.669,16.669,0,0,1,.077-1.778,23.564,23.564,0,0,1,.425-2.619C140.943,444.586,141.038,444.233,141.038,444.233Z" transform="translate(455.435 5662.75)"/><path class="v" d="M154.161,429.518c-.213.71-.447,1.411-.672,2.115s-.472,1.4-.707,2.1-.47,1.4-.722,2.1l-.751,2.087-.208-.316a6.154,6.154,0,0,1,1.88.462,5.253,5.253,0,0,1,.865.443,3.3,3.3,0,0,1,.4.3,1.356,1.356,0,0,1,.345.458l-.436-.02,1.156-1.99c.192-.332.384-.664.585-.991s.391-.659.6-.982q1.253-1.928,2.562-3.81-1.1,2.022-2.266,3.988c-.19.33-.363.671-.546,1.005s-.364.669-.55,1l-1.114,1.993-.2.356-.238-.376a.686.686,0,0,0-.088-.131,1.264,1.264,0,0,0-.135-.138,2.9,2.9,0,0,0-.344-.247,5.979,5.979,0,0,0-.8-.4,5.733,5.733,0,0,0-1.713-.455l-.319-.024.11-.291.786-2.075c.26-.692.544-1.375.815-2.063s.539-1.378.83-2.058S153.861,430.2,154.161,429.518Z" transform="translate(450.981 5669.021)"/><path class="v" d="M219.373,442.2l.384.31c.24.2.593.473,1.017.8s.925.686,1.48,1.045c.273.186.567.357.865.535s.609.336.919.5c.317.145.626.312.951.426l.475.186.474.15c.309.111.622.154.913.231.294.06.577.081.837.123.261.024.5.02.718.034a3.384,3.384,0,0,0,.557-.022l.492-.032s-.17.051-.477.129a3.353,3.353,0,0,1-.559.112c-.218.022-.468.065-.741.068a6.337,6.337,0,0,1-.884-.04,7.305,7.305,0,0,1-.972-.175,6.978,6.978,0,0,1-1.009-.311c-.341-.114-.666-.281-1-.429-.32-.173-.644-.341-.945-.532s-.594-.385-.866-.588-.526-.411-.768-.6a8.1,8.1,0,0,1-.647-.586,13.312,13.312,0,0,1-1.214-1.329Z" transform="translate(421.733 5663.617)"/><g transform="translate(600.687 6101.012)"><path class="j" d="M155.593,443.689a.443.443,0,0,1-.384-.223c-1.277-2.233-4.65-2.781-5.778-2.626a.442.442,0,0,1-.122-.876c1.637-.23,5.26.6,6.668,3.063a.443.443,0,0,1-.384.662Z" transform="translate(-148.928 -436.427)"/><path class="j" d="M156.982,440.751a.441.441,0,0,1-.356-.18,6.209,6.209,0,0,0-6.091-2.614.443.443,0,1,1-.127-.876,7.059,7.059,0,0,1,6.929,2.964.443.443,0,0,1-.356.706Z" transform="translate(-149.397 -435.18)"/><path class="j" d="M158.468,437.38a.441.441,0,0,1-.366-.194,5.888,5.888,0,0,0-5.618-2.4.442.442,0,1,1-.167-.869,6.727,6.727,0,0,1,6.517,2.776.442.442,0,0,1-.365.691Z" transform="translate(-150.219 -433.827)"/><path class="j" d="M220.316,444.526a.443.443,0,0,1-.053-.882,8.069,8.069,0,0,0,3.816-1.771.443.443,0,0,1,.627.625,8.853,8.853,0,0,1-4.335,2.024.425.425,0,0,1-.055,0Z" transform="translate(-179.168 -437.201)"/><path class="j" d="M227.489,448.988a.443.443,0,0,1-.172-.851,5.37,5.37,0,0,0,2.3-1.51.443.443,0,0,1,.714.523,6.071,6.071,0,0,1-2.671,1.8.444.444,0,0,1-.171.038Z" transform="translate(-182.225 -439.206)"/><path class="j" d="M223.67,446.869a.442.442,0,0,1-.077-.878,6.535,6.535,0,0,0,3.043-1.765.442.442,0,1,1,.661.587,7.355,7.355,0,0,1-3.549,2.049.443.443,0,0,1-.078.007Z" transform="translate(-180.597 -438.196)"/></g><path class="m" d="M276.987,181.172a.948.948,0,0,1-.948-.948v-6.236a.95.95,0,1,1,1.9,0v6.236a.948.948,0,0,1-.952.948Z" transform="translate(397.58 5778.342)"/><path class="p" d="M224.073,76.844c.5,4.577,5.056,28.816,5.056,28.816,9.691-3.138,31.1-7.243,50.942-5.852L281,72.84C262.543,70.312,232.837,72.461,224.073,76.844Z" transform="translate(419.73 5821.51)"/><path class="j" d="M207.521,202.913h0a5.092,5.092,0,0,1,4.56,4.04c.726,2.765-.549,5.5-2.841,6.106a3.6,3.6,0,0,1-.912.118,5.092,5.092,0,0,1-4.561-4.04c-.726-2.764.549-5.5,2.841-6.1a3.6,3.6,0,0,1,.913-.118Zm0-1.264a4.867,4.867,0,0,0-1.234.16c-2.971.78-4.646,4.2-3.743,7.648a6.318,6.318,0,0,0,5.784,4.984,4.838,4.838,0,0,0,1.234-.16c2.97-.78,4.646-4.2,3.743-7.649a6.317,6.317,0,0,0-5.784-4.983Z" transform="translate(429.011 5766.146)"/><rect class="j" width="10.802" height="1.264" transform="translate(634.34 5979.324) rotate(-65.094)"/><g transform="translate(627.953 5961.648)"><path class="v" d="M198.187,197.322a.77.77,0,0,0-.192-.072.476.476,0,0,0-.2,0,.624.624,0,0,0-.23.107.541.541,0,0,0-.149.149.381.381,0,0,0-.049.329.513.513,0,0,0,.078.153.362.362,0,0,0,.1.095.457.457,0,0,0,.125.053.719.719,0,0,0,.137.02.7.7,0,0,0,.131-.006c.356-.054.534-.077.887-.114a1.989,1.989,0,0,1,.541,0,1.415,1.415,0,0,1,.39.116,1.018,1.018,0,0,1,.265.18,1.217,1.217,0,0,1,.166.2,1.4,1.4,0,0,1,.161,1.065,1.42,1.42,0,0,1-.224.473,1.712,1.712,0,0,1-.85.606,1.472,1.472,0,0,1-.457.065,1.619,1.619,0,0,1-.455-.076,2.065,2.065,0,0,1-.434-.195c.151-.293.231-.439.4-.728.075.026.16.057.248.091a1.836,1.836,0,0,0,.272.079.908.908,0,0,0,.275.015.549.549,0,0,0,.266-.1.347.347,0,0,0,.105-.113.41.41,0,0,0,.052-.148.494.494,0,0,0,0-.162.39.39,0,0,0-.059-.152.508.508,0,0,0-.239-.2.684.684,0,0,0-.3-.048c-.371.038-.558.063-.934.12a2.16,2.16,0,0,1-.379.033,1.613,1.613,0,0,1-.357-.041,1.147,1.147,0,0,1-.32-.125.929.929,0,0,1-.261-.224,1.085,1.085,0,0,1-.229-.48,1.176,1.176,0,0,1,.017-.526,1.507,1.507,0,0,1,.258-.522,2.03,2.03,0,0,1,.481-.457,1.7,1.7,0,0,1,.894-.324,1.261,1.261,0,0,1,.815.258c-.225.283-.334.427-.545.717Z" transform="translate(-196.449 -193.286)"/><path class="v" d="M204.011,196.938c.1.361.144.542.246.9-.267.138-.4.211-.659.36a40.11,40.11,0,0,1-1.123-4.185c.516-.286.78-.421,1.315-.673a36.122,36.122,0,0,1,2.555,3.534c-.341.142-.51.216-.843.374-.2-.31-.307-.464-.516-.772C204.59,196.649,204.4,196.742,204.011,196.938Zm.547-1.018c-.494-.674-.749-1.006-1.274-1.66.213.8.326,1.2.565,2,.28-.145.422-.212.709-.341Z" transform="translate(-199.017 -191.96)"/><path class="v" d="M208.358,193.973a23.22,23.22,0,0,0-2-2.029c.427-.163.643-.24,1.078-.382.5.585.742.883,1.2,1.49.08-.764.132-1.147.262-1.914.349-.088.525-.13.878-.2a23.477,23.477,0,0,0-.55,2.683c.183.676.275,1.015.457,1.692-.325.115-.486.176-.8.3C208.673,194.957,208.569,194.629,208.358,193.973Z" transform="translate(-200.672 -190.934)"/></g><g transform="translate(635.937 5981.197)"><path class="v" d="M211.613,228.1c.295,1,.442,1.5.738,2.493-.283.1-.424.148-.705.251l-1.281-4.035c.366-.13.549-.192.919-.314.756.837,1.121,1.263,1.824,2.129l-.625-2.393c.3-.1.448-.156.748-.255.4,1.646.6,2.469.993,4.114-.261.091-.39.137-.648.231C212.821,229.412,212.428,228.966,211.613,228.1Z" transform="translate(-210.364 -225.418)"/><path class="v" d="M219.044,229.384a1.2,1.2,0,0,1-.487,0,1.075,1.075,0,0,1-.4-.18,1.429,1.429,0,0,1-.322-.327,2.679,2.679,0,0,1-.254-.442,4.146,4.146,0,0,1-.2-.523q-.087-.28-.152-.573a3.9,3.9,0,0,1-.1-.831,1.9,1.9,0,0,1,.114-.7,1.2,1.2,0,0,1,.359-.5,1.344,1.344,0,0,1,.624-.274,1.361,1.361,0,0,1,.682.028,1.222,1.222,0,0,1,.523.341,1.879,1.879,0,0,1,.36.607,3.927,3.927,0,0,1,.207.811c.029.2.052.394.066.589a4.142,4.142,0,0,1,0,.56,2.752,2.752,0,0,1-.078.5,1.436,1.436,0,0,1-.182.422,1.071,1.071,0,0,1-.307.311A1.193,1.193,0,0,1,219.044,229.384Zm-.131-.7a.348.348,0,0,0,.246-.162.787.787,0,0,0,.094-.352,2.783,2.783,0,0,0-.024-.526c-.025-.2-.061-.43-.1-.682-.015-.087-.032-.179-.052-.274s-.044-.193-.074-.294a2.532,2.532,0,0,0-.1-.289,1.023,1.023,0,0,0-.14-.239.546.546,0,0,0-.18-.152.339.339,0,0,0-.223-.026.334.334,0,0,0-.2.106.537.537,0,0,0-.11.2,1.093,1.093,0,0,0-.041.273,2.524,2.524,0,0,0,.008.308c.009.1.021.205.037.3s.033.188.05.275q.076.375.15.674a2.936,2.936,0,0,0,.168.5.783.783,0,0,0,.213.295.337.337,0,0,0,.277.07Z" transform="translate(-213.249 -225.006)"/></g><g transform="translate(650.374 5905.783)"><path class="j" d="M240.255,102.441a2.122,2.122,0,0,0-.386-.364,1.182,1.182,0,0,0-.457-.2,1.374,1.374,0,0,0-.6.035,1.176,1.176,0,0,0-.455.215.965.965,0,0,0-.275.337,1.084,1.084,0,0,0-.106.415,1.492,1.492,0,0,0,.049.455,1.022,1.022,0,0,0,.152.336,1.226,1.226,0,0,0,.243.259,1.7,1.7,0,0,0,.606.3c.866.224,1.3.34,2.153.578a5.23,5.23,0,0,1,1.273.5,3.861,3.861,0,0,1,.841.637,2.758,2.758,0,0,1,.495.683,3.285,3.285,0,0,1,.251.638,3.656,3.656,0,0,1,.042,1.526,3.506,3.506,0,0,1-.507,1.3,3.569,3.569,0,0,1-.965.989,4.032,4.032,0,0,1-1.34.6,3.988,3.988,0,0,1-1.328.116,3.683,3.683,0,0,1-1.181-.3,4.059,4.059,0,0,1-1.024-.657,5.235,5.235,0,0,1-.841-.937c.651-.55.978-.823,1.642-1.363.155.143.324.3.507.475a4.659,4.659,0,0,0,.578.47,2.347,2.347,0,0,0,.652.31,1.389,1.389,0,0,0,.744,0,.864.864,0,0,0,.356-.183,1.072,1.072,0,0,0,.256-.321,1.349,1.349,0,0,0,.138-.406,1.079,1.079,0,0,0-.015-.435,1.394,1.394,0,0,0-.4-.718,1.827,1.827,0,0,0-.671-.4c-.919-.259-1.381-.384-2.311-.627a5.036,5.036,0,0,1-.912-.318,3.963,3.963,0,0,1-.79-.48,3.051,3.051,0,0,1-.616-.648,2.687,2.687,0,0,1-.386-.831,3.161,3.161,0,0,1,.406-2.661,3.575,3.575,0,0,1,1.006-.993,4.5,4.5,0,0,1,1.435-.621,3.776,3.776,0,0,1,2.25.066,3.379,3.379,0,0,1,1.671,1.393c-.721.508-1.077.766-1.786,1.284C240.5,102.738,240.375,102.585,240.255,102.441Z" transform="translate(-235.525 -96.317)"/><path class="j" d="M249.024,99.6c-.073-.711-.111-1.068-.182-1.779,2.864-.609,4.3-.874,7.193-1.329.033.715.049,1.072.085,1.786-.909.145-1.363.22-2.269.38.66,3.746.99,5.619,1.651,9.366-.869.225-1.3.341-2.166.582-.741-3.8-1.111-5.7-1.852-9.508C250.5,99.288,250.007,99.388,249.024,99.6Z" transform="translate(-241.201 -94.814)"/><path class="j" d="M265.4,107.123c-.664-4.5-.995-6.753-1.658-11.255,1.164-.208,1.745-.305,2.914-.488a8.351,8.351,0,0,1,1.875-.04,4.2,4.2,0,0,1,1.5.415,2.663,2.663,0,0,1,1.018.894,2.944,2.944,0,0,1,.453,1.394,3.7,3.7,0,0,1-.034,1.008,2.887,2.887,0,0,1-.277.822,2.853,2.853,0,0,1-.481.664c-.191.2-.588.419-.644.543,0,0,.04.076.116.212l.3.535q.185.331.417.755c.154.282.313.57.473.861q.567,1.031,1.27,2.344c-.857.314-1.284.475-2.132.8-1.029-1.977-1.559-2.96-2.654-4.915-.36.044-.54.066-.9.112.251,1.942.377,2.914.628,4.856C266.7,106.827,266.267,106.923,265.4,107.123Zm1.342-6.967c.317-.041.477-.061.794-.1a4.066,4.066,0,0,0,.663-.136,1.465,1.465,0,0,0,.54-.286,1.156,1.156,0,0,0,.338-.512,1.876,1.876,0,0,0,.057-.818,1.707,1.707,0,0,0-.188-.654,1.12,1.12,0,0,0-.366-.4,1.217,1.217,0,0,0-.5-.18,2.369,2.369,0,0,0-.6,0c-.446.054-.667.082-1.113.139.143,1.18.22,1.768.372,2.947Z" transform="translate(-247.551 -94.308)"/><path class="j" d="M279.993,94.354c.965-.147,1.447-.216,2.416-.346.272,4.507.41,6.76.683,11.268-.889.125-1.333.19-2.218.331C280.521,101.1,280.345,98.855,279.993,94.354Z" transform="translate(-254.479 -93.756)"/><path class="j" d="M291.96,100.033c-.445.793-.663,1.191-1.094,1.987.03,1.188.046,1.781.077,2.969-.895.024-1.341.039-2.235.078-.2-4.475-.293-6.712-.488-11.188.97-.114,1.454-.167,2.426-.263l.13,4.976c1.088-2.02,1.653-3.025,2.828-5.021,1.041,0,1.562,0,2.6.013-1.1,1.863-1.628,2.8-2.652,4.684,1.062,2.54,1.57,3.815,2.531,6.375-.915.194-1.372.294-2.28.5C293.1,103.1,292.726,102.073,291.96,100.033Z" transform="translate(-257.986 -93.568)"/><path class="j" d="M304.289,93.64c2.538.061,3.807.122,6.344.3-.128.7-.193,1.056-.32,1.76-1.464-.1-2.194-.142-3.658-.2-.045,1.083-.069,1.625-.115,2.709,1.016.042,1.525.068,2.541.131-.05.763-.074,1.144-.123,1.907-1-.061-1.5-.086-2.5-.128-.054,1.279-.08,1.916-.134,3.2,1.5.063,2.25.107,3.751.214-.123.7-.184,1.056-.3,1.76-2.3-.161-3.456-.216-5.761-.271C304.123,100.464,304.178,98.189,304.289,93.64Z" transform="translate(-264.717 -93.599)"/></g><g transform="translate(664.897 5895.934)"><path class="j" d="M264.6,85.532a2.215,2.215,0,0,1-.866.038,1.989,1.989,0,0,1-.729-.281,2.573,2.573,0,0,1-.611-.545,4.957,4.957,0,0,1-.511-.752,7.383,7.383,0,0,1-.422-.9q-.189-.485-.343-.994a6.374,6.374,0,0,1-.271-1.465,3.147,3.147,0,0,1,.163-1.259,2.221,2.221,0,0,1,.664-.953,2.774,2.774,0,0,1,1.208-.562,2.812,2.812,0,0,1,1.34-.007,2.236,2.236,0,0,1,1.014.578,3.125,3.125,0,0,1,.685,1.07,6.372,6.372,0,0,1,.379,1.441c.053.352.091.7.114,1.047a7.129,7.129,0,0,1,0,1,4.957,4.957,0,0,1-.146.9,2.659,2.659,0,0,1-.324.754,1.972,1.972,0,0,1-.541.565A2.242,2.242,0,0,1,264.6,85.532Zm-.274-1.23a.636.636,0,0,0,.438-.3,1.4,1.4,0,0,0,.158-.631,4.873,4.873,0,0,0-.06-.934c-.052-.36-.123-.764-.21-1.209-.03-.155-.064-.317-.1-.485a5.241,5.241,0,0,0-.145-.519,4.186,4.186,0,0,0-.2-.51,1.746,1.746,0,0,0-.272-.416.97.97,0,0,0-.351-.254.715.715,0,0,0-.435-.029.69.69,0,0,0-.376.211.965.965,0,0,0-.2.378,1.819,1.819,0,0,0-.067.492,4.238,4.238,0,0,0,.031.548c.022.186.054.364.09.532s.073.33.112.483q.165.66.325,1.182a5.048,5.048,0,0,0,.342.872,1.4,1.4,0,0,0,.407.5.629.629,0,0,0,.509.087Z" transform="translate(-260.837 -76.985)"/><path class="j" d="M273.671,79.409l.36,4.608c-.531.065-.8.1-1.325.189-.351-2.989-.524-4.485-.876-7.474.753-.112,1.13-.16,1.889-.238a40.7,40.7,0,0,1,2.469,4.412c-.023-1.758-.033-2.636-.056-4.394.617-.056.927-.077,1.547-.11-.073,3.009-.109,4.513-.182,7.523-.493.036-.739.058-1.228.111A37.524,37.524,0,0,0,273.671,79.409Z" transform="translate(-265.523 -76.402)"/></g></g></svg>