<svg xmlns="http://www.w3.org/2000/svg" width="176.162" height="196.995" viewBox="0 0 176.162 196.995"><defs><style>.a{fill:#fcddcd;}.a,.c,.d,.e,.f,.h,.k,.m,.n,.o,.p,.s,.t,.v,.w,.x,.y{fill-rule:evenodd;}.b,.c{fill:#dbb79e;}.d,.q{fill:#b59aef;}.e{fill:#eaa568;}.f,.g{fill:#d17834;}.h{fill:#fff;}.i,.k{fill:#7f4e2d;}.j,.n{fill:#cea080;}.l,.s{fill:#9b6237;}.m{fill:#f2c8ad;}.o,.r{fill:#9579e2;}.p{fill:#cc5411;}.t{fill:#e2e2e2;}.u,.v{fill:#d1d1d1;}.w{fill:#f0f0f0;}.x{fill:#c2b0f4;}.y,.z{fill:#efb392;}</style></defs><g transform="translate(-63 -5933.006)"><g transform="translate(117.17 5933.01)"><g transform="translate(46.037 15.79)"><g transform="translate(33.492 102.121)"><g transform="translate(19.084)"><g transform="translate(2.052)"><path class="a" d="M943.039,490.636c-3.288.311-6.98.218-10.427.369.924,5,2.163,10.092,3.032,15.382.866,5.274,1.663,10.664,2.219,16.268,1.108,11.229,1.547,23.088,1.552,35.5,2.019.174,4.277.111,6.359.222,1.082-5.51,2.184-11.178,2.959-17.01a137.733,137.733,0,0,0,1.7-18.265A50.5,50.5,0,0,0,947.77,505.8C946.033,500.884,943.38,496.616,943.039,490.636Z" transform="translate(-932.612 -490.199)"/><path class="b" d="M952.656,539.414a137.676,137.676,0,0,0,1.7-18.266,50.474,50.474,0,0,0-2.663-17.3c-1.612-4.558-4.012-8.564-4.621-13.9.738-.036,1.465-.082,2.172-.148.34,5.981,2.994,10.248,4.732,15.16a50.514,50.514,0,0,1,2.662,17.3,137.749,137.749,0,0,1-1.7,18.266c-.775,5.832-1.878,11.5-2.959,17.009-2.082-.111-4.34-.047-6.359-.222v-1c1.36.035,2.756.036,4.082.106C950.778,550.914,951.881,545.246,952.656,539.414Z" transform="translate(-938.818 -489.8)"/><path class="c" d="M947.885,543.865c-.521,1.094-3.631,2.14-5.04.321,0,0,4.638-.33,5.04-.321" transform="translate(-937.495 -515.601)"/></g><path class="d" d="M937.521,610.661c-.489,3.364-2.2,11.045-4.559,12.043-1.087.461-4.472.767-4.267,2.393.133,1.041,2.043,1.093,3.536,1.128,2.382.059,5.3.17,6.793-.748,2.074-1.279,2.428-3.387,3.925-5,.1,1.929.471,3.566.539,5.534l2.931-.12c.1-3.089,1.949-7.067-1.491-15.849Z" transform="translate(-928.687 -547.183)"/></g><g transform="translate(2.053)"><path class="a" d="M906.536,490.636c-3.287.311-6.98.218-10.427.369.924,5,2.163,10.092,3.032,15.382.866,5.274,1.665,10.664,2.219,16.268,1.108,11.229,1.549,23.088,1.552,35.5,2.021.174,4.277.111,6.361.222,1.079-5.51,2.184-11.178,2.957-17.01a137.682,137.682,0,0,0,1.7-18.265,50.543,50.543,0,0,0-2.663-17.3C909.53,500.884,906.876,496.616,906.536,490.636Z" transform="translate(-896.109 -490.199)"/><path class="b" d="M916.153,539.414a137.862,137.862,0,0,0,1.7-18.266,50.536,50.536,0,0,0-2.661-17.3c-1.614-4.558-4.012-8.564-4.622-13.9.738-.036,1.465-.082,2.172-.148.34,5.981,2.994,10.248,4.733,15.16a50.548,50.548,0,0,1,2.663,17.3,137.665,137.665,0,0,1-1.7,18.266c-.773,5.832-1.878,11.5-2.957,17.009-2.083-.111-4.34-.047-6.361-.222v-1c1.36.035,2.756.036,4.082.106C914.275,550.914,915.378,545.246,916.153,539.414Z" transform="translate(-902.315 -489.8)"/><path class="c" d="M911.383,543.865c-.521,1.094-3.631,2.14-5.039.321,0,0,4.638-.33,5.039-.321" transform="translate(-900.993 -515.601)"/></g><path class="d" d="M901.018,610.661c-.489,3.364-2.2,11.045-4.558,12.043-1.088.461-4.474.767-4.268,2.393.132,1.041,2.044,1.093,3.537,1.128,2.382.059,5.3.17,6.794-.748,2.073-1.279,2.428-3.387,3.924-5,.1,1.929.47,3.566.538,5.534l2.933-.12c.095-3.089,1.949-7.067-1.491-15.849Z" transform="translate(-892.183 -547.183)"/></g><g transform="translate(26.71 23.502)"><path class="e" d="M899.521,339.413c2.433.442,5.411.71,6.9,2.332,1.841,2.01,2.388,5.465,2.758,9.065.373,3.627.452,7.557.711,11.036s-1.628,11.857,4.477,21.866c9.083,14.89,5.075,28.4,7.609,41.732H879.931c.668-9.681.924-52.789,1.2-58.64a20.29,20.29,0,0,0,.008-2.835s-.578-1.081-.9-1.73a6.132,6.132,0,0,1-.867-4.651,19.931,19.931,0,0,1,1.5-3.232c1.495-3.223,1.438-7.554,3.706-10.328.672-.821,4.618-3.54,5.86-3.753.369,1.865.833,3.736,1.234,5.567.468.079.819-.38,1.1-.631.949-.834,1.951-1.72,3-2.6,1.455-1.226,2.369-1.991,3.747-3.2" transform="translate(-879.208 -339.413)"/><g transform="translate(0.723 22.196)"><path class="f" d="M912.646,382.022c-1.112,2.365-5.076,4.459-8.987,3.152,3.6-.443,6.7-1.392,8.987-3.152" transform="translate(-891.6 -381.943)"/><path class="f" d="M880.591,381.871a7.078,7.078,0,0,0,6.463,3.074c-1.84.857-4.41.486-5.439-.946a8.971,8.971,0,0,1-1.024-2.128" transform="translate(-880.591 -381.871)"/></g><g transform="translate(13.984 45.872)"><path class="g" d="M920.82,465.4c-8.592-10.74-13.732-38.241-13.732-38.241Z" transform="translate(-906.497 -427.16)"/><path class="g" d="M912.557,466.948c-5.064-7.889-6.6-26.9-6.6-26.9Z" transform="translate(-905.957 -433.312)"/></g></g><g transform="translate(0 24.888)"><path class="e" d="M832.847,396.77a30.159,30.159,0,0,1-4.73-4.809c4-6.457,9.35-12.292,14.269-18.131,4.828-5.733,8.428-13.113,11.506-20.811,1.925-4.812,6.089-8.423,10.894-10.955.113.035-3.41,7.4-4.667,11.192a43.471,43.471,0,0,0-2.442,14.425,96.7,96.7,0,0,1-4.81,8.671c-3.4,5.419-17.47,18.483-20.021,20.417" transform="translate(-828.117 -342.065)"/><path class="g" d="M879.772,367.917s-.579-1.081-.9-1.729a6.134,6.134,0,0,1-.868-4.651,19.906,19.906,0,0,1,1.5-3.232c1.495-3.223,3.706-10.619,3.706-10.619-3.208,8.212-6.21,11.137-6.792,15.02-.6,4.02,2.2,8.076,3.252,9.667.033-.536.067-1.073.093-1.622a20.3,20.3,0,0,0,.009-2.834" transform="translate(-851.127 -344.747)"/><path class="f" d="M860.859,400.793c-.554.616-2.854-1.265-4.107-1.958,0,0,1.458-1.854,1.924-2.585a16.135,16.135,0,0,1,3.723,1.673c.983.661,2.829,1.875,2.4,2.632-.277.489-1.931-.173-2.758-.552-.87-.4-1.769-.865-2.523-1.261.6.628,1.73,1.584,1.341,2.049" transform="translate(-841.782 -367.924)"/></g><g transform="translate(29.88)"><path class="h" d="M910.216,340.462c-.275,1.837-5.675,9.322-6.315,9.3-.677-.024-3.432-3.96-3.664-4.007-.311-.063-2.653,2.813-3.247,2.588-.739-.281.353-8.072,1.8-8.393,0,0,1.133,4.313,1.522,5.633.879-.309,7.763-6.271,8.468-6.7.226-.137,1.534.883,1.43,1.577" transform="translate(-890.752 -315.653)"/><path class="i" d="M891.083,299.232s-3.2-.543-4.7,3.279-2.081,14.678,2.233,17.628l.235-1.36s.323,2.564,4.365,1.837S891.083,299.232,891.083,299.232Z" transform="translate(-885.274 -296.723)"/><path class="a" d="M895.194,317.281l.17,3.02,1.5,5.567s6.477-3.145,7.74-4.4.952-2.093.755-3.619c-.266-2.068-.517-4.192-.847-6.181a3,3,0,0,0,2.146-1.863,1.514,1.514,0,0,0-.985-2.016c.765-4.22-.182-7.846-4.3-9.544-3.873-1.6-8.271-.355-10.048,3.184-2.328,4.64-2.257,10.4-.627,13.332a4.539,4.539,0,0,0,4.493,2.523" transform="translate(-887.302 -295.935)"/><g transform="translate(2.355 9.635)"><path class="c" d="M905.486,330.545a10.064,10.064,0,0,1-5.119,2.48l.119,2.073a5.759,5.759,0,0,0,5-4.552" transform="translate(-894.832 -321.314)"/><g transform="translate(2.588 0.532)"><path class="j" d="M895.759,319.216a.193.193,0,0,1-.043-.006,1.279,1.279,0,0,1-.837-.581c-.316-.57-.079-1.359.217-2.358a14.138,14.138,0,0,0,.508-2.137.263.263,0,0,1,.522.071,14.945,14.945,0,0,1-.526,2.216c-.254.849-.47,1.579-.264,1.954a.791.791,0,0,0,.513.328.265.265,0,0,1,.187.323.261.261,0,0,1-.278.192" transform="translate(-894.729 -313.906)"/><path class="j" d="M896.079,327.8c-1.031-.039-1.252-1.5-1.2-1.638a.262.262,0,0,1,.335-.157c1.447.526,2-.293,2.022-.328.078-.123.264-.188.362-.083.4.437-.288,2.309-1.517,2.207" transform="translate(-894.797 -319.457)"/></g><path class="k" d="M889.781,313.575c.031.21.716.274,1.525.143s1.436-.407,1.4-.618-.716-.276-1.526-.143-1.436.4-1.4.618" transform="translate(-889.779 -312.888)"/><g transform="translate(4.808 0.068)"><path class="k" d="M898.98,313.19c-.053.212.571.542,1.391.738s1.524.18,1.574-.031-.571-.546-1.392-.743-1.523-.18-1.573.036" transform="translate(-898.977 -313.018)"/></g><g transform="translate(0.398 2.378)"><path class="i" d="M900.752,318.666a.248.248,0,0,1-.193-.092.828.828,0,0,0-.606-.369.9.9,0,0,0-.648.332.248.248,0,0,1-.379-.321,1.481,1.481,0,0,1,1.018-.508h.011a1.293,1.293,0,0,1,.99.554.248.248,0,0,1-.193.4Z" transform="translate(-894.515 -317.566)"/><path class="i" d="M892.426,318.395a.247.247,0,0,1-.193-.092.828.828,0,0,0-.61-.369h-.006a.987.987,0,0,0-.638.331.248.248,0,0,1-.38-.32,1.483,1.483,0,0,1,1.018-.508h.011a1.3,1.3,0,0,1,.991.554.248.248,0,0,1-.193.4Z" transform="translate(-890.542 -317.437)"/></g></g><path class="l" d="M891.881,298.31s-1,3.519,4.126,5.534l-.813-1.623s1.977,1.807,6.609,2.384l-.179-.807s2.674,9.666-.708,14.733c0,0,3.066-2.824,3.246-11.241,0,0,1.678-1.269,1.709.6.035,2.1-.767,2.633-2.163,3.336,0,0-.208,6.278-1.378,7.431,0,0,5.285-.213,6.647-3.01s1.078-13.361-3.487-17.858S894.191,293.24,891.881,298.31Z" transform="translate(-888.389 -294.457)"/></g></g><g transform="translate(5.896)"><g transform="translate(0 82.721)"><g transform="translate(0 97.104)"><g transform="translate(1.033)"><path class="m" d="M756.148,608.233s-2.018,9.94-2.838,12.215c1.918,1.479,8.535,3.32,10.475.6a1.814,1.814,0,0,1-1.213-1.444c-.482-2.045,1.3-5.633,2.561-10.81Z" transform="translate(-753.31 -608.233)"/><path class="n" d="M758.607,610.017c.97,1.447,6.476,2.461,8.962,0,0,0-8.878-.008-8.962,0" transform="translate(-755.838 -609.083)"/></g><path class="o" d="M753.608,621.291c3.208-.009,6.392.007,9.429.168.332-.051.319.958.388,1.169.664,1.8,2.371,2.635,4.242,3.377,2.865,1.137,6.241,1.276,6.179,5.1l-22.513.037a26.424,26.424,0,0,1,.927-4.967c.359-1.574.729-3.085,1.178-4.63A.23.23,0,0,1,753.608,621.291Z" transform="translate(-751.334 -614.464)"/></g><g transform="translate(23.269 97.104)"><g transform="translate(1.032)"><path class="m" d="M800.657,608.233s-2.017,9.94-2.838,12.215c1.918,1.479,8.535,3.32,10.475.6a1.814,1.814,0,0,1-1.213-1.444c-.483-2.045,1.3-5.633,2.562-10.81Z" transform="translate(-797.819 -608.233)"/><path class="n" d="M803.117,610.017c.969,1.447,6.475,2.461,8.963,0,0,0-8.878-.008-8.963,0" transform="translate(-800.347 -609.083)"/></g><path class="o" d="M798.118,621.291c3.208-.009,6.391.007,9.429.168.332-.051.32.958.389,1.169.664,1.8,2.371,2.635,4.242,3.377,2.865,1.137,6.24,1.276,6.179,5.1l-22.512.037a26.348,26.348,0,0,1,.927-4.967c.358-1.574.729-3.085,1.178-4.63a.23.23,0,0,1,.168-.254Z" transform="translate(-795.844 -614.464)"/></g><g transform="translate(1.311)"><path class="e" d="M798.113,422.487q-18.222.583-36.482,1.132c-1.316,4.042-.027,8.589.732,12.383.829,4.137.6,8.73.6,13.381,0,2.289.187,4.593.2,6.924.025,4.528.465,9.393-.066,13.647a29.289,29.289,0,0,1-1.464,5.592c-1.162,3.509-2.331,7.1-3.262,10.918a100.811,100.811,0,0,0-2.064,12.05c-.992,8.337-1.825,17.047-2.463,25.764,5.082-.089,10.254-.087,15.312-.2,1.972-13.9,3.99-27.589,5.991-41.342,2-13.728,4.247-27.473,5.659-41.675.871,7.118,1.7,13.9,2.663,20.771.251,1.8.488,3.525.6,5.259a23.833,23.833,0,0,1-.332,5.393c-.523,3.192-1.436,6.292-2.063,9.586a98.025,98.025,0,0,0-1.2,10.518c-.852,10.686-2.009,21.373-3.662,31.423,4.407-.032,8.737-.139,13.182-.133,1.983-7.212,4.172-14.589,5.791-22.435a214.378,214.378,0,0,0,3.662-24.566c.8-9.07.262-18.017-.267-27.029s-.417-18.085-1-27.162C798.185,422.592,798.191,422.5,798.113,422.487Z" transform="translate(-753.842 -422.487)"/><g transform="translate(0 1.092)"><path class="g" d="M764.1,436.478c.934,4.115.822,8.713.94,13.361.059,2.289.3,4.587.377,6.916.14,4.527.7,9.378.281,13.645a29.237,29.237,0,0,1-1.321,5.627c-1.072,3.538-2.15,7.162-2.982,11a101.025,101.025,0,0,0-1.756,12.1c-.753,8.1-1.349,17.575-1.764,26.1q-2.022.022-4.035.055c.639-8.717,1.472-17.427,2.463-25.764a100.811,100.811,0,0,1,2.064-12.05c.931-3.814,2.1-7.409,3.262-10.918a29.3,29.3,0,0,0,1.464-5.592c.531-4.254.091-9.119.066-13.647-.012-2.331-.2-4.634-.2-6.924,0-4.651.229-9.244-.6-13.381-.759-3.793-2.048-8.34-.732-12.383l1.306-.04C761.953,428.528,763.278,432.846,764.1,436.478Z" transform="translate(-753.842 -424.575)"/><g transform="translate(15.283 3.142)"><path class="f" d="M783.077,430.776c-.077,1.121,11.145,3.467,11.263,2.611.185-1.32-11.207-3.452-11.263-2.611" transform="translate(-783.076 -430.585)"/><path class="f" d="M786.809,438.9c-.208.8,5.975,1.488,6.116.766.151-.762-5.948-1.413-6.116-.766" transform="translate(-784.855 -434.425)"/><g transform="translate(17.127 0.718)"><path class="f" d="M815.841,434.341c.2.8,5.962-1.535,5.745-2.237-.231-.743-5.9,1.588-5.745,2.237" transform="translate(-815.838 -431.959)"/></g></g><path class="f" d="M787.125,530.663c-.622.943-3.861,1.589-5.129-.2,0,0,4.724.153,5.129.2" transform="translate(-767.278 -475.106)"/><path class="f" d="M834.2,530.663c-.622.943-3.861,1.589-5.13-.2,0,0,4.724.153,5.13.2" transform="translate(-789.743 -475.106)"/><path class="g" d="M803.9,436.495c.17,1.017,4.23,25.016,5.392,31.023.768,3.968,1.931,8.212,1.464,12.783a38.356,38.356,0,0,1-1.265,6.058c-1.014,3.807-2.135,7.613-2.863,11.65-1.506,8.353-1.812,17.58-3.4,25.764-.387,2-.875,3.947-1.4,5.859-.093.338-.186.68-.278,1.023q-1.887.026-3.783.042c1.652-10.05,2.809-20.737,3.662-31.423a97.977,97.977,0,0,1,1.2-10.518c.627-3.294,1.541-6.394,2.063-9.586a23.822,23.822,0,0,0,.332-5.393c-.111-1.734-.348-3.457-.6-5.259-.921-6.609-1.828-13.952-2.662-20.771C801.825,447.115,803.844,436.441,803.9,436.495Z" transform="translate(-774.808 -430.263)"/></g></g></g><g transform="translate(7.087)"><g transform="translate(36.151 30.472)"><path class="o" d="M835.024,322.551c.144-.048.085.106.1.191,3.22,1.171,4.056,5.4,4.582,9.355.43,3.238.754,6.6,1.1,9.689.724,6.516,1.484,13.189,1.862,19.664.8-.793,1.452-1.73,2.2-2.625,2.17-2.614,4.563-5.215,6.777-7.828,2.024,1.349,3.862,2.884,5.966,4.152-1.095,2.031-2.5,3.912-3.77,5.918-3.1,4.884-6.116,9.963-9.88,14.319a9.012,9.012,0,0,1-2.482,2.338c-1.822.836-3.6-.8-4.629-1.67-.5-.419-.858-.782-1.384-1.289-.367-.353-1.1-.921-1.241-1.384a9.221,9.221,0,0,1-.1-1.575c-.1-1.41-.089-3.238-.048-4.725.064-2.3,0-4.313.1-6.443.1-2.1.143-4.253.143-6.4,0-2.118.143-4.289.143-6.348,0-2.11.058-4.266.143-6.4s.028-4.244.1-6.4c.11-3.5.239-7.433.239-11.169,0-.379.082-.786.048-1-.015-.1-.231-.063-.191-.191.019-.063.116-.041.191-.048C834.973,322.626,834.969,322.559,835.024,322.551Z" transform="translate(-834.041 -322.542)"/><path class="p" d="M849.762,396.926c-1.067.911-1.371,5,1.032,6.3,0,0-.91-5.8-1.032-6.3" transform="translate(-841.162 -358.039)"/></g><path class="q" d="M806.272,367.825c-.254-1.59-.389-3.179-.621-4.773a41.525,41.525,0,0,1-.621-4.725c-.052-1.666.064-3.4.143-5.2.154-3.487.122-7.087.191-10.548.067-3.376.33-6.872.477-10.214.231-5.255-.215-10.63-2.721-13.269-1.686-1.777-4.32-2.844-7.071-3.54a38.2,38.2,0,0,0-4.814-.707,1.7,1.7,0,0,0-.236-.111l-.184-.237-10.364.322c-.133-.187-.218-.016-.337-.022h-.1c-.316.007-.636.033-.958.065h-.036c-.546.054-1.1.126-1.632.17a29.319,29.319,0,0,0-7.255,1.384c-5.64,2.027-4.331,8.46-5.2,15.291-.428,3.384,1.683,24.061,3.131,30.535a14.351,14.351,0,0,1-.36,5.543c-.282,1.4-.587,2.881-.817,4.314l40.046-.1C806.77,370.56,806.488,369.186,806.272,367.825Z" transform="translate(-764.889 -288.231)"/><g transform="translate(14.139)"><g transform="translate(0 5.555)"><path class="m" d="M808.51,282.357c-.222-2.265.3-3.971-.293-6.352a5.16,5.16,0,0,0-.428-1.125c-1.037-.008-2.074.014-3.107.1a38.056,38.056,0,0,0-5.023.851c-1.775.384-3.564.717-5.333,1.122a9.25,9.25,0,0,0-1.011.292,18.844,18.844,0,0,0-.045,3.645,1.556,1.556,0,0,0-.956.567c-1.325,1.667,1.141,4.547,2.569,5.338-.173,2.8-.714,9-.714,9,.837,2.875,3,5.619,5.69,6.02a3.219,3.219,0,0,0,2.723-.9c1.264-1.433,1.036-5.244,1.086-7.584a6,6,0,0,0,3.7-4.19c.1-.339.275-1.14.422-1.49a7.916,7.916,0,0,0,1.737-2.068c.226-.468.9-2.552,0-3.361C809.22,281.938,808.9,282.036,808.51,282.357Z" transform="translate(-791.934 -274.879)"/><g transform="translate(5.012 7.478)"><path class="n" d="M801.522,304.541a5.411,5.411,0,0,0,6.692,4.542l.03-1.606c-3.215.349-5.134-1.123-6.722-2.936" transform="translate(-801.522 -296.513)"/><path class="n" d="M822.263,294.469a26.335,26.335,0,0,0,.72-5.285,5.811,5.811,0,0,1-.72,5.285" transform="translate(-811.42 -289.184)"/></g></g><path class="i" d="M806.282,267.7c.808.044,3.772.131,3.473-1-.347-1.3-4.415-.125-4.415-.125s2.849-1.874,1.978-2.243-3.29,1.764-3.29,1.764,1.185-1.706-.529-1.842c-1.33-.105-3.96,1.447-5.411,2.856-.97-.534-2.546-.885-3.979,1.124-1.772,2.484-1.992,4.459-.514,7.576,0,0,1.541-.3,1.682.7.333,2.343-2,11.162,4.023,12.313,8.571,1.638,10.311-2.109,9.535-11.537,0,0-.982,7.38-1.724,7.473-1.062.134-.246-2.482-1.564-2.974-1.448-.54-4.376-.889-5.122,1.352-.685,2.058-1.519,2.129-2.05,1.263-.63-1.028-1.3-9.177-.5-9.714s1.939-.363,1.528-3.7c0,0,3.157,1.367,4.963,1.286s-.4-1.606-.4-1.606,5.693,2.926,6.818.09C811.785,268.238,807.286,267.773,806.282,267.7Z" transform="translate(-792.261 -264.253)"/><g transform="translate(7.993 10.304)"><g transform="translate(5.138 0.066)"><path class="k" d="M820.388,284.873c-.038.24-.818.313-1.738.163s-1.635-.467-1.6-.706.817-.313,1.738-.165,1.635.466,1.6.707" transform="translate(-817.052 -284.09)"/><path class="k" d="M820.529,289.657c-.019.418-.281.744-.586.729s-.537-.362-.518-.778.28-.743.586-.729.536.363.518.778" transform="translate(-818.184 -286.375)"/></g><path class="k" d="M810.579,284.248c.029.241-.7.524-1.626.633s-1.7,0-1.729-.238.7-.527,1.628-.636,1.7,0,1.727.241" transform="translate(-807.223 -283.964)"/><path class="k" d="M809.7,289.719c-.017.417-.278.743-.583.73s-.536-.363-.519-.779.282-.743.587-.729.534.363.516.778" transform="translate(-807.877 -286.339)"/><g transform="translate(2.057 0.96)"><path class="j" d="M814.647,291.434a.207.207,0,0,0,.051,0,1.346,1.346,0,0,0,.962-.5c.412-.557.27-1.425.092-2.522a14.73,14.73,0,0,1-.249-2.332.28.28,0,0,0-.56,0,15.374,15.374,0,0,0,.256,2.417c.152.931.281,1.733.011,2.1a.832.832,0,0,1-.588.279.281.281,0,0,0-.239.316.278.278,0,0,0,.264.241" transform="translate(-812.695 -285.8)"/><path class="j" d="M812.955,300.725a3.637,3.637,0,0,0,.953-.1.282.282,0,0,0,.212-.336.278.278,0,0,0-.334-.21c-1.6.359-2.075-.584-2.094-.624a.283.283,0,0,0-.371-.134.277.277,0,0,0-.137.369,1.988,1.988,0,0,0,1.772,1.03" transform="translate(-811.157 -292.242)"/></g></g></g></g></g><g transform="translate(0 26.484)"><g transform="translate(36.349 93.539)"><g transform="translate(3.605)"><path class="d" d="M819.273,493.839a2.915,2.915,0,0,0,1.264.106c13.48.5,27.23.958,40.777,1.422.391,16.693.967,34.149,1.475,51.051H816.481c.693-17.66,1.811-34.913,2.687-52.42A.144.144,0,0,1,819.273,493.839Z" transform="translate(-816.481 -493.839)"/><path class="r" d="M899.665,496.675l-2.784-.1c-.012.032-.025.063-.038.094h.032c.391,16.693.967,34.149,1.475,51.051h2.79C900.632,530.824,900.055,513.369,899.665,496.675Z" transform="translate(-854.831 -495.147)"/></g><g transform="translate(0 52.579)"><path class="m" d="M827.995,594.414h11.7c-.087,5.912.407,12.688-.211,18.439-.188,1.754-.158,4.127-1.37,4.847-.614.364-2.73-.079-3.725-.021a65.037,65.037,0,0,1-7.167.186c-1.258-.059-2.632.552-3.28-.27a4.761,4.761,0,0,1,1.423-2.95,13.86,13.86,0,0,0,1.738-2.581c1.044-2.2.843-5.258.843-8.324v-9.167C827.938,594.5,827.933,594.423,827.995,594.414Z" transform="translate(-816.435 -594.414)"/><path class="k" d="M832.863,621.366c-3.315-.1-8.471-.169-11.614-.086-.341-.062-.2.6-.276.815-.738,1.839-2.68,3.039-4.633,3.755-2.99,1.1-6.713,1.21-6.754,5.161h23.953c.376-3.056-.1-5.735-.51-9.38a.237.237,0,0,0-.166-.265Z" transform="translate(-809.586 -607.217)"/><g transform="translate(17.479)"><path class="m" d="M861.43,594.414h11.7c-.087,5.912.407,12.688-.211,18.439-.188,1.754-.158,4.127-1.37,4.847a11.106,11.106,0,0,1-3.425.527,71.691,71.691,0,0,1-7.534.052c-1.259-.059-2.566.137-3.214-.685a4.761,4.761,0,0,1,1.422-2.95,13.858,13.858,0,0,0,1.738-2.581c1.044-2.2.843-5.258.843-8.324v-9.167C861.373,594.5,861.368,594.423,861.43,594.414Z" transform="translate(-849.87 -594.414)"/><path class="s" d="M866.3,621.366c-3.315-.1-8.471-.169-11.614-.086-.341-.062-.2.6-.276.815-.738,1.839-2.68,3.039-4.633,3.755-2.99,1.1-6.713,1.21-6.754,5.161,0,0,16.469-.032,23.783.147a39.572,39.572,0,0,0-.339-9.527.237.237,0,0,0-.167-.265Z" transform="translate(-843.021 -607.217)"/></g></g></g><g transform="translate(0 25.219)"><g transform="translate(0 47.57)"><path class="m" d="M748.625,466.492c-1.3.981-3,2.67-4.57,4.013-.388.331-1.622,1.514-2.27.986-.491-.4.914-1.943,1.213-2.224,1.388-1.3,2.492-2.465,3.766-3.833.223-.239.61-.449.615-.863a3.549,3.549,0,0,0-1.646.842c-1.031.668-2,1.376-3.2,2.056a4.6,4.6,0,0,1-1.822.766c-.67,0-.708-.428-.622-.6A8.364,8.364,0,0,1,741.737,466c1.511-1.2,3.124-2.173,4.7-3.394a5.323,5.323,0,0,0,1.536-1.762c.211-.354.428-.708.629-1.045a8.985,8.985,0,0,0-3.121-.489c-1.1-.085-2.351-.427-2.213-1.208.133-.743,2.008-.639,2.854-.747,1.168-.146,2.02-.574,2.964-.615a23.884,23.884,0,0,1,3.8.361c3.133.395,13.127-3.109,13.551-2.956a24.494,24.494,0,0,1,2.775,5.2c-.1.276-11.68,2.264-12.021,2.468a4.313,4.313,0,0,0-.881,1.146c-.517.776-1.077,1.653-1.649,2.42a8.177,8.177,0,0,0-.876,1.086,15.947,15.947,0,0,0-.664,2.255c-.231.743-.533,1.453-.775,2.125-.235.648-.431,1.5-.72,2.191-.231.552-.755,1.8-1.5,1.278-.372-.258-.093-1.222.023-1.821.322-1.66.749-3.531.972-5.39-1.438,1.476-2.99,3.573-4.665,5.22-.481.474-1.773,1.728-2.063.748-.094-.314.432-1.276.806-1.759,1.3-1.675,2.182-3.184,3.29-4.722.015-.048.065-.055.071-.116Z" transform="translate(-740.055 -454.148)"/><path class="n" d="M758.782,475.728a2.6,2.6,0,0,1-1.05.221,5.7,5.7,0,0,1-4.616-3.1,8.3,8.3,0,0,0,5.666,2.879Z" transform="translate(-746.288 -463.073)"/><path class="n" d="M756.412,464.974a9.289,9.289,0,0,0,5.921.408C761.213,466.884,757.416,466.432,756.412,464.974Z" transform="translate(-747.861 -459.314)"/></g><g transform="translate(11.587)"><path class="t" d="M801.87,378.66c-.435.089-.87.179-1.3.271-1.914.409-3.831.827-5.73,1.309.129-6.092,1.03-12.514,3.693-17.068h0l.014-.022c-3.218,1.908-6.221,3.854-8.448,6.891-2.5,3.414-3.535,7.6-4.215,12.907-.1.791-.188,1.605-.267,2.429-.012.026-.021.053-.033.078a74.667,74.667,0,0,1-1.685,12.333,11.365,11.365,0,0,1-1.469,4.04c-1.1,1.42-3.684,2.621-5.687,3.749-4.7,2.644-10.121,5.7-14.518,7.873.865,2.136,2.5,5.869,3.4,8.013,4.675-1.236,9.368-3.2,14.6-5.173,2.307-.873,4.738-1.714,7.2-2.735,2.28-.945,5.31-2.062,7.43-3.837A7.651,7.651,0,0,0,796.1,407c.2-.11.405-.221.615-.331q.448-.234.9-.451-.264-1.334-.512-2.694c1.607-6.158,3.338-15.144,3.865-18.887C801.248,382.624,801.556,380.635,801.87,378.66Z" transform="translate(-762.219 -363.154)"/><path class="u" d="M804.013,392.815c-.435.089-.87.179-1.3.271l-.54.118q-.245,1.6-.475,3.215c-.528,3.743-2.258,12.729-3.865,18.887q.249,1.358.512,2.694-.449.216-.9.451c-.21.11-.409.22-.614.33a7.649,7.649,0,0,1-1.245,2.726c-2.12,1.774-5.15,2.892-7.43,3.837-2.465,1.022-4.9,1.863-7.2,2.735-5.1,1.925-9.686,3.831-14.244,5.072.394.917.763,1.778,1.056,2.471,4.675-1.236,9.368-3.2,14.6-5.173,2.307-.873,4.738-1.714,7.2-2.735,2.28-.945,5.31-2.062,7.43-3.837a7.65,7.65,0,0,0,1.244-2.725c.2-.11.405-.221.615-.331q.448-.234.9-.451-.264-1.334-.512-2.694c1.607-6.158,3.338-15.144,3.865-18.887C803.39,396.779,803.7,394.79,804.013,392.815Z" transform="translate(-764.361 -377.309)"/><path class="v" d="M801.143,437.039c-.246,1.1,1.525,3.858,3.681,3.528,0,0-3.369-3.27-3.681-3.528" transform="translate(-780.783 -398.413)"/></g></g><g transform="translate(39.269 20.942)"><path class="w" d="M863.482,429.576q-24.125-.506-48.311-.948c.244-5.9.316-11.8.316-17.86,0-1.976-.015-3.986.053-5.953.279-8.046-.263-16.023-.263-23.813,0-1.03.007-2.03.053-3,.023-.5-.094-.949-.1-1.422a12.717,12.717,0,0,1,.105-1.37,49.786,49.786,0,0,1,.685-5.374,13.88,13.88,0,0,1,4.162-7.9,25.113,25.113,0,0,1,3.478-2.581,28.741,28.741,0,0,1,13.856-4.267c6.714-.493,12.413.882,16.279,3.424a22.1,22.1,0,0,1,3.53,2.951c4.323,4.322,3.748,11.589,4.789,19.143a93.751,93.751,0,0,1,.421,12.486c0,4.242-.429,8.4-.738,12.275C861.471,409.369,863.208,425.345,863.482,429.576Z" transform="translate(-815.171 -354.977)"/><path class="h" d="M853.739,355.1c-3.839-.119-9.018-.624-14.817,1.828.18,19.917-2.111,51.942-1.864,71.9l4.08.077C845.292,408.077,853.835,355.11,853.739,355.1Z" transform="translate(-825.607 -354.973)"/><path class="t" d="M845.315,360.6c-.073,1.914,1.3,5.443,2.9,5.448,2.491.007,5.817-2.268,6.4-10.9-2.123-.292-14.433.52-14.817,1.828-1.883,6.417-.51,8.96.9,8.8C842.886,365.541,844.659,361.986,845.315,360.6Z" transform="translate(-826.488 -355.032)"/></g><g transform="translate(50.688)"><g transform="translate(1.074 4.205)"><path class="m" d="M847.438,322.992a8.807,8.807,0,0,1,8.587,4.11,10.094,10.094,0,0,1,1.159,5.163,13.8,13.8,0,0,1-1.211,5.11,16.555,16.555,0,0,1-5.584,7.112,7.672,7.672,0,0,1-4.794,1.528,6.159,6.159,0,0,1-6.48-5.8c-.179-2.183.238-4.142.158-6.27a17.355,17.355,0,0,1,.474-5.8,7.36,7.36,0,0,1,5-4.583,10.973,10.973,0,0,1,2.691-.575Z" transform="translate(-839.069 -322.957)"/><path class="j" d="M855.973,344.364a16.548,16.548,0,0,1-5.584,7.112,7.673,7.673,0,0,1-4.8,1.524,6.159,6.159,0,0,1-6.48-5.8c-.021-.259-.033-.516-.04-.77a15.085,15.085,0,0,0,.04,1.582,6.159,6.159,0,0,0,6.48,5.8,7.673,7.673,0,0,0,4.794-1.528,16.553,16.553,0,0,0,5.584-7.112,13.8,13.8,0,0,0,1.211-5.11c.008-.255.007-.51,0-.762a13.825,13.825,0,0,1-1.21,5.069Z" transform="translate(-839.069 -330.758)"/></g><g transform="translate(1.054)"><path class="w" d="M858.957,325.739a15.285,15.285,0,0,1-3.214,8.324c-2.1-1.094-2.565-3.827-3.214-6.375-1.03-.178-1.974-.191-2.845-.369a13.416,13.416,0,0,1-6.164-3.424,14.308,14.308,0,0,1-2.95,2.371,2.129,2.129,0,0,1-1.264.369c-.287-.129-.248-.539-.264-.79a7.245,7.245,0,0,1,1.949-5.374c2.533-2.532,8.658-4.1,13.224-2.318a3.341,3.341,0,0,1,3.161-3.214c3.077-.318,4.952,2.406,4.952,5.163a6.514,6.514,0,0,1-3.371,5.637Z" transform="translate(-839.03 -314.914)"/><g transform="translate(0.487 2.476)"><path class="t" d="M840.264,329.451a8.8,8.8,0,0,0,3-1.791C842.732,329.042,840.868,329.428,840.264,329.451Z" transform="translate(-840.106 -323.472)"/><path class="t" d="M850.543,327.66a17.848,17.848,0,0,0,10.484,2.529c-.823.461-4.342.479-5.9,0A11.548,11.548,0,0,1,850.543,327.66Z" transform="translate(-845.012 -323.472)"/><path class="t" d="M859.263,332.825a20.013,20.013,0,0,1-11.643-4.057C851.989,333.386,855.644,333.2,859.263,332.825Z" transform="translate(-843.617 -324.001)"/><path class="t" d="M839.962,332.52a14.075,14.075,0,0,0,3.214-2.845,5.019,5.019,0,0,1-3.214,2.845Z" transform="translate(-839.962 -324.434)"/><path class="t" d="M860.534,319.652a9.473,9.473,0,0,1,6.523,2.411c1.978,2.021,2.809,5.935,1.6,9.453a13.235,13.235,0,0,1-1.05,2.3c-.011.019-.176.345-.158.106a15.714,15.714,0,0,0,.843-3.846,10.16,10.16,0,0,0-2.107-7.007,9.512,9.512,0,0,0-5.651-3.417Z" transform="translate(-849.779 -319.649)"/></g></g><g transform="translate(0 12.992)"><g transform="translate(1.706)"><g transform="translate(2.827 1.778)"><path class="j" d="M847.673,349.025a.2.2,0,0,1-.048,0,1.416,1.416,0,0,1-.969-.573c-.393-.6-.195-1.49.054-2.615a15.734,15.734,0,0,0,.392-2.394.291.291,0,0,1,.58.037,16.556,16.556,0,0,1-.406,2.482c-.213.955-.394,1.776-.137,2.173a.877.877,0,0,0,.592.32.293.293,0,0,1,.231.34.287.287,0,0,1-.29.234" transform="translate(-846.042 -343.167)"/><path class="j" d="M846.908,358.125c-1.134-.115-1.277-1.742-1.211-1.889a.289.289,0,0,1,.38-.151c1.559.68,2.223-.185,2.251-.221.094-.13.3-.189.4-.067.411.509-.476,2.525-1.824,2.327" transform="translate(-845.683 -349.163)"/></g><path class="k" d="M840.277,340.337c.015.234.762.368,1.665.3s1.619-.316,1.6-.552-.763-.37-1.667-.3-1.618.314-1.6.552" transform="translate(-840.276 -339.766)"/><g transform="translate(5.259)"><path class="k" d="M850.338,340.038c-.034.239.691.529,1.614.649s1.7.02,1.725-.218-.692-.533-1.614-.653-1.694-.019-1.724.222" transform="translate(-850.337 -339.766)"/></g></g><path class="r" d="M852.011,342.284l-3.683,2.253a2.612,2.612,0,0,0-.036-.318,2.682,2.682,0,0,0-5.3.392l-.7-.044a2.64,2.64,0,1,0-2.313,2.483c.081-.01.162-.023.243-.04a2.639,2.639,0,0,0,1.978-1.891l.813.049c.009.064.007.127.021.191a2.678,2.678,0,0,0,2.953,2.1,2.44,2.44,0,0,0,.246-.043,2.688,2.688,0,0,0,2.082-2.221l3.848-2.353ZM840.1,346.466a2.091,2.091,0,0,1-.888-4.087c.063-.014.129-.024.192-.032a2.091,2.091,0,0,1,.7,4.119m6.011.408a2.135,2.135,0,1,1-.908-4.172,1.976,1.976,0,0,1,.2-.033,2.135,2.135,0,0,1,.71,4.2" transform="translate(-837.014 -340.725)"/><g transform="translate(1.929 3.289)"><path class="i" d="M853.1,347.456a.246.246,0,0,1-.193-.092A.831.831,0,0,0,852.3,347a1.12,1.12,0,0,0-.647.332.248.248,0,1,1-.378-.321,1.547,1.547,0,0,1,1.029-.507,1.29,1.29,0,0,1,.99.553.248.248,0,0,1-.193.4Z" transform="translate(-845.718 -346.268)"/><path class="i" d="M842.587,347.015a.246.246,0,0,1-.193-.093.828.828,0,0,0-.61-.369h-.006a.988.988,0,0,0-.638.331.248.248,0,1,1-.38-.32,1.485,1.485,0,0,1,1.018-.507h.011a1.29,1.29,0,0,1,.99.553.248.248,0,0,1-.193.4Z" transform="translate(-840.703 -346.058)"/></g></g></g><g transform="translate(41.709 23.555)"><g transform="translate(0 49.234)"><path class="m" d="M828.407,466.492c-1.3.981-3,2.67-4.57,4.013-.388.331-1.622,1.514-2.27.986-.491-.4.914-1.943,1.213-2.224,1.388-1.3,2.492-2.465,3.767-3.833.223-.239.609-.449.614-.863a3.55,3.55,0,0,0-1.646.842c-1.031.668-2,1.376-3.2,2.056a4.6,4.6,0,0,1-1.822.766c-.67,0-.708-.428-.622-.6A8.358,8.358,0,0,1,821.519,466c1.511-1.2,3.124-2.173,4.7-3.394a5.319,5.319,0,0,0,1.536-1.762c.211-.354.428-.708.629-1.045a8.985,8.985,0,0,0-3.121-.489c-1.1-.085-2.352-.427-2.213-1.208.133-.743,2.008-.639,2.854-.747,1.168-.146,2.021-.574,2.964-.615a23.881,23.881,0,0,1,3.8.361c3.133.4,13.127-3.109,13.551-2.956a24.515,24.515,0,0,1,2.775,5.2c-.1.276-11.681,2.264-12.022,2.468a4.33,4.33,0,0,0-.881,1.146c-.517.776-1.077,1.653-1.648,2.42a8.14,8.14,0,0,0-.877,1.086,16.026,16.026,0,0,0-.664,2.255c-.231.743-.533,1.453-.775,2.125-.235.648-.431,1.5-.72,2.191-.23.552-.755,1.8-1.5,1.278-.372-.258-.093-1.222.023-1.821.321-1.66.749-3.531.972-5.39-1.438,1.476-2.99,3.573-4.665,5.22-.481.474-1.773,1.728-2.063.748-.094-.314.432-1.276.806-1.759,1.3-1.675,2.182-3.184,3.29-4.722.015-.048.065-.055.071-.116Z" transform="translate(-819.838 -454.148)"/></g><g transform="translate(11.587)"><path class="t" d="M876.557,385.685c-.1-1.577-.31-3.171-.431-4.771a44.317,44.317,0,0,0-3.482-14.29c-2.02-4.426-7.189-6.839-8.008-6.644-2.7.643-3.655,4.476-4.1,6.974a45.214,45.214,0,0,0-.263,8.456c.061,2.947,1.694,15.763,1.822,18.7l.258,5.989c-.049.074-.1.152-.148.22-1.1,1.42-3.684,2.621-5.687,3.749-4.7,2.644-10.121,5.7-14.518,7.873.865,2.136,2.5,5.869,3.4,8.013,4.675-1.236,9.368-3.2,14.6-5.173,2.307-.872,4.738-1.714,7.2-2.735,1.064-.441,2.292-.923,3.514-1.489,5.3-2.021,5.888-3.619,6.049-15.765C876.81,391.911,876.745,388.809,876.557,385.685Z" transform="translate(-842.002 -359.97)"/><g transform="translate(2.278 1.53)"><path class="u" d="M878.637,387.082c-.1-1.577-.309-3.171-.431-4.771a44.318,44.318,0,0,0-3.482-14.29,12.929,12.929,0,0,0-4.561-5.124,11.2,11.2,0,0,1,1.967,2.908,44.324,44.324,0,0,1,3.482,14.29c.122,1.6.336,3.194.431,4.771.188,3.123.253,6.226.215,9.1-.162,12.147-.744,13.744-6.049,15.765-1.222.566-2.45,1.048-3.514,1.489-2.465,1.022-4.9,1.863-7.2,2.735-4.685,1.769-8.937,3.522-13.131,4.758.42.978.815,1.9,1.125,2.632,4.675-1.236,9.368-3.2,14.6-5.173,2.307-.873,4.738-1.714,7.2-2.735,1.064-.441,2.292-.923,3.514-1.489,5.3-2.021,5.888-3.619,6.049-15.765C878.889,393.308,878.825,390.2,878.637,387.082Z" transform="translate(-846.36 -362.897)"/><path class="v" d="M880.927,437.039c-.247,1.1,1.524,3.858,3.681,3.528,0,0-3.37-3.27-3.681-3.528" transform="translate(-862.845 -398.279)"/></g></g></g></g><g transform="translate(83.543 39.46)"><g transform="translate(0 16.61)"><path class="m" d="M902.025,373.838a19.87,19.87,0,0,1,4.619,1.843c-.451-.5-1.191-1.148-1.809-1.82-.48-.523-1.548-1.7-1.148-2.165.413-.476,1.362.061,1.866.37.682.419,1.268.863,1.8,1.236a18.577,18.577,0,0,1,1.787,1.364,10.138,10.138,0,0,1,1.73,1.874,9.747,9.747,0,0,1,.857,2.164c.1.3.238.691.4,1.079a4.2,4.2,0,0,0,.489,1.121,3.66,3.66,0,0,0,1.348.377c1.409.289,2.837.622,4.1.911,1.234.283,2.508.617,3.709.95-.47,2.621-.779,5.267-1,7.926-2.1-.719-4.215-1.545-6.409-2.371-1.276-.48-2.625-.948-3.994-1.578a12.187,12.187,0,0,1-3.908-2.344c-1.244-1.336-1.575-2.649-2.333-4.011-.563-.105-1.1-.015-1.76-.164-.431-.1-1.59-.455-1.432-1.065.141-.547,1.161-.608,1.562-.667a9.668,9.668,0,0,1,1.632-.141c-.028-.036-.062-.019-.092-.042-.958-.538-2.26-1.214-3.249-1.883-.327-.221-.9-.508-.73-.987.221-.636,1.906-.106,2.27-.07-.331-.2-.655-.324-1.064-.6-.3-.208-.925-.7-.787-1.058C900.672,373.579,901.6,373.752,902.025,373.838Z" transform="translate(-899.941 -371.507)"/><path class="j" d="M900.354,380.592a1.115,1.115,0,0,1-.432-1.2c.324-.711,1.962-.081,2.327-.045-1.148-.128-1.849-.092-1.8.32.071.647,2.593,1.566,3.08,1.858a11.734,11.734,0,0,1,2.107,1.4c-.45-.122-1.191-.473-1.6-.6a8.9,8.9,0,0,1-3.682-1.733Z" transform="translate(-899.861 -375.11)"/><path class="j" d="M902.276,376.279c-.136.431.813.949,1.276,1.306.479.369,1.51.917,1.941,1.316-.667-.2-2.444-.955-2.771-1.118-.331-.2-.655-.324-1.064-.6-.3-.208-.925-.7-.787-1.058.194-.506,1.127-.333,1.547-.247.244.05.489.114.735.186C902.643,376.008,902.383,375.941,902.276,376.279Z" transform="translate(-900.333 -373.544)"/><path class="j" d="M902.275,386.2c.268.614,2.841.645,3.117.747.427,2.1,2.823,5.065,5,6.525a9.751,9.751,0,0,1-3.113-1.982c-1.244-1.336-1.575-2.649-2.333-4.011-.562-.105-1.1-.015-1.76-.164-.431-.1-1.59-.455-1.432-1.065.141-.547,1.161-.608,1.561-.667C902.752,385.769,902.1,385.8,902.275,386.2Z" transform="translate(-900.756 -378.227)"/><path class="j" d="M907.618,371.848c-.143.3.4,1.187.8,1.693.8,1,1.9,2.046,2.659,2.819-.254.117-.589-.2-.858-.419-.1-.083-.209-.169-.319-.26-.451-.5-1.191-1.148-1.809-1.82-.48-.523-1.548-1.7-1.148-2.165.246-.284.683-.207,1.1-.033A.375.375,0,0,0,907.618,371.848Z" transform="translate(-903.201 -371.507)"/></g><path class="e" d="M924.908,373.928c.448-2.31.728-4.9,1.1-7.279a84.246,84.246,0,0,1,8.357,1.261c-1.556-3.492-5.347-11.162-5.347-11.162-1.191-6.385-2.036-9.773-5.513-13.851a27.976,27.976,0,0,0-3.569-3.163,27,27,0,0,1,6.895,1.575,19.611,19.611,0,0,1,4.852,2.8,22.565,22.565,0,0,1,3.863,4.335,89.172,89.172,0,0,1,8.671,15.924,58.384,58.384,0,0,1,2.208,5.991c.8,2.613,2.241,6.247.947,8.749-1.4,2.708-6.4,1.421-9.223.632a49.431,49.431,0,0,1-13.221-5.929" transform="translate(-909.443 -339.735)"/><g transform="translate(15.465 27.424)"><path class="g" d="M952.3,406.487c-1.4,2.707-6.4,1.42-9.223.63A49.87,49.87,0,0,1,929.8,401.2s.006-.038-.353,2.062c0,0,7.515,4.574,13.244,5.807,2.864.616,7.823,2.077,9.224-.63a5.061,5.061,0,0,0,.512-2.218c-.039.09-.073.181-.118.269" transform="translate(-929.443 -396.49)"/><path class="f" d="M953.767,394.521c2.682.209,4.991.789,5.6,3.075-1.436-1.055-7.969-3.608-11.823-4.651a3.394,3.394,0,0,1,1.576-.63c1.716-.319,4.97-.062,5.045,1.419a.739.739,0,0,1-.394.788" transform="translate(-938.079 -392.193)"/></g><path class="g" d="M936.333,360.058s-.964-7.974,1.684-13.388c0,0-4.851,3.36-1.684,13.388" transform="translate(-916.754 -343.045)"/></g><g transform="translate(10.08 28.547)"><g transform="translate(36.571 50)"><path class="m" d="M855.313,417.908a21.037,21.037,0,0,0-5.245-.508c.669-.255,1.679-.5,2.588-.835.706-.259,2.286-.854,2.132-1.481-.158-.648-1.312-.6-1.937-.558-.846.062-1.613.2-2.3.288a19.9,19.9,0,0,0-2.346.416,10.732,10.732,0,0,0-2.539.924,10.364,10.364,0,0,0-1.859,1.622c-.236.231-.559.535-.9.823a4.424,4.424,0,0,1-1,.819,3.891,3.891,0,0,1-1.453-.3c-1.466-.413-2.973-.793-4.3-1.134-1.3-.334-2.661-.638-3.954-.907-.83,2.7-1.825,5.338-2.908,7.948,2.33.344,4.72.592,7.186.88,1.434.168,2.932.383,4.528.455a12.921,12.921,0,0,0,4.818-.308c1.82-.653,2.769-1.729,4.144-2.644.581.175,1.047.522,1.737.7.454.117,1.717.344,1.866-.307.133-.584-.8-1.137-1.146-1.386a10.223,10.223,0,0,0-1.468-.925c.043-.02.068.012.107,0,1.163-.042,2.717-.045,3.973-.2.416-.049,1.092-.042,1.167-.574.1-.706-1.743-1.025-2.1-1.168.407-.024.774.013,1.295-.051.386-.049,1.21-.208,1.254-.614C856.712,418.322,855.75,418.031,855.313,417.908Z" transform="translate(-829.292 -414.503)"/><path class="j" d="M873.431,426.263c.407-.1.964-.406.989-.918.04-.827-1.808-1.029-2.169-1.173,1.143.437,1.786.811,1.543,1.177-.38.575-3.2.215-3.8.255a12.381,12.381,0,0,0-2.663.294c.482.1,1.351.133,1.8.215a9.435,9.435,0,0,0,4.3.15Z" transform="translate(-847.444 -419.117)"/><path class="j" d="M875.018,421.3c-.081.473-1.226.5-1.835.61-.63.115-1.868.131-2.467.3.724.136,2.765.288,3.152.294.407-.023.774.013,1.295-.051.386-.049,1.21-.208,1.254-.614.064-.57-.9-.861-1.336-.984-.254-.072-.516-.13-.783-.182C874.8,420.867,875.081,420.93,875.018,421.3Z" transform="translate(-849.06 -417.445)"/><path class="j" d="M864.639,430.723c-.55.447-2.988-.773-3.3-.81-1.422,1.771-5.119,3.4-7.874,3.716a10.332,10.332,0,0,0,3.893-.354c1.82-.653,2.769-1.729,4.144-2.644.581.175,1.047.522,1.737.7.454.117,1.717.344,1.866-.307.133-.584-.8-1.137-1.146-1.386C864.4,430.081,865.006,430.425,864.639,430.723Z" transform="translate(-840.829 -421.725)"/><path class="j" d="M871.736,414.914c-.012.353-.95.925-1.579,1.2-1.241.552-2.78,1.005-3.873,1.362.182.233.653.1,1.012.022l.426-.09c.669-.255,1.679-.5,2.588-.835.706-.259,2.286-.854,2.132-1.481-.094-.387-.543-.526-1.022-.567C871.612,414.6,871.742,414.714,871.736,414.914Z" transform="translate(-846.945 -414.516)"/></g><path class="x" d="M806.867,371.5a38.058,38.058,0,0,1-.611,6.469,21.4,21.4,0,0,1-1.572,5.607,114.453,114.453,0,0,1-11.552-3.113,95.882,95.882,0,0,1-15.654-6.138c-1.591-.812-3.1-1.711-4.65-2.575a45.483,45.483,0,0,1-8.5-5.827,10.607,10.607,0,0,1-2.947-4.114,29.4,29.4,0,0,1-1.1-5.79c-.272-1.984-.531-4-.744-6.106a84.626,84.626,0,0,1,.2-13.514,52.241,52.241,0,0,1,1.349-9.729,19.174,19.174,0,0,1,2.12-5.1,8.387,8.387,0,0,1,1.581-1.976,3.007,3.007,0,0,1,3.27-.409c1.1.613,1.669,2.515,1.947,4.064.91,5.07,1.471,10.06,2.442,15.128,1.292,6.744,2.994,12.83,4.592,18.964A127.291,127.291,0,0,0,806.867,371.5Z" transform="translate(-759.337 -318.86)"/><path class="r" d="M779.874,372.138c-1.59-.812-3.1-1.711-4.649-2.575a45.532,45.532,0,0,1-8.5-5.827,10.618,10.618,0,0,1-2.947-4.115,29.393,29.393,0,0,1-1.1-5.79c-.273-1.984-.532-4-.745-6.106a84.548,84.548,0,0,1,.2-13.514,52.241,52.241,0,0,1,1.349-9.729,19.174,19.174,0,0,1,2.12-5.1l.054-.085a3.252,3.252,0,0,0-.869.5,8.387,8.387,0,0,0-1.581,1.976,19.176,19.176,0,0,0-2.12,5.1,52.246,52.246,0,0,0-1.349,9.729,84.626,84.626,0,0,0-.2,13.514c.214,2.1.472,4.122.744,6.106a29.39,29.39,0,0,0,1.1,5.79,10.609,10.609,0,0,0,2.947,4.114,45.485,45.485,0,0,0,8.5,5.827c1.547.864,3.059,1.762,4.65,2.575a95.881,95.881,0,0,0,15.654,6.138,114.454,114.454,0,0,0,11.552,3.113,13.965,13.965,0,0,0,.958-2.692c-3.567-.786-6.879-1.83-10.115-2.813a95.987,95.987,0,0,1-15.658-6.136Z" transform="translate(-759.337 -319.067)"/><path class="o" d="M788.107,392.56c-1.313-.493-5.042,1.222-5.009,3.95,0,0,4.639-3.6,5.009-3.95" transform="translate(-770.676 -353.991)"/></g></g><g transform="translate(63 5985.486)"><g transform="translate(0 64.193)"><path class="k" d="M636.436,588.04l4.514,15.618c3.712-1,3.273-5.917,3.371-8.557l3.534-2.068-2.994-8.059S639.241,586.987,636.436,588.04Z" transform="translate(-636.436 -533.976)"/><path class="k" d="M719.854,620.671l14.32,5.929c1.516-3.734-2.4-6.425-4.3-8.153l.612-4.252-7.792-2.5S720.776,617.664,719.854,620.671Z" transform="translate(-676.245 -546.726)"/><path class="d" d="M695.139,487.423l-27.415,4.562a60.6,60.6,0,0,0,.865,18.07c.808,4.355,2.255,8.2,3.271,12.105l-20.545,15.516,3.9,9.754s19.752-11.04,22.182-12.055c2.687-1.123,5.631-2.323,7.122-4.71,1.32-2.11,1.45-11.728,1.524-13.827,2.933,3.6,7.428,7.248,10.135,11.339-.546,4.308-7.085,25.2-7.085,25.2l8.884,3.732s12.782-27.3,12.218-34c-.327-3.915-7.809-14.906-9.789-17.2C695.5,499.06,695.55,491.717,695.139,487.423Z" transform="translate(-643.537 -487.423)"/><path class="o" d="M716.34,529.929s.7,6.147.736,7.194c3,3.568,7.909,8.469,10.091,11.308-.109-3.413-2.077-6.8-3.955-9.761a48.02,48.02,0,0,0-6.872-8.741Z" transform="translate(-674.568 -507.708)"/></g><g transform="translate(10.404)"><path class="w" d="M712.046,473.519c-.711.222-1.794-20.165-2.992-26.191-1.416-7.119-3.907-12.737-10.818-13.427-5.355-.534-9.316,3.068-11.387,6.2-4.661,7.062-5.542,24.4-4.425,35.681A67.4,67.4,0,0,0,712.046,473.519Z" transform="translate(-668.578 -397.663)"/><g transform="translate(0 0.488)"><path class="m" d="M659.3,377.432a10.5,10.5,0,0,1,.281,1.421c.04.214.077.426.114.639,2.488-.063,4.565.112,7.051.2-1.949-3.922,2.39-10.176,1.711-10.758-.34-.292-2.694,3.025-3.037,3.244a9.373,9.373,0,0,1,.326-1.5c.085-.4,1.639-3.682,1.22-3.875-.562-.261-2.561,3.673-2.82,4.193.06-1.056,2.057-4.593,1.374-4.977-.946-.27-2.9,4.34-3.586,5.1.017-.992,2.086-5.209,1.359-5.54-.4-.183-2.14,3.15-2.431,3.6a21.026,21.026,0,0,0-1.979,5.057c-.52-.415-2.184-2.582-2.483-2.294-.381.369,1.085,2.936,1.54,3.579a10.5,10.5,0,0,1,1.36,1.916" transform="translate(-656.338 -365.565)"/><g transform="translate(2.175 11.162)"><path class="w" d="M660.5,387.928c.518,6.244.478,13,1.648,18.7a17.251,17.251,0,0,0,1.885,4.752c3.12,5.837,6.4,11.241,9.238,16.92,2.106-3.84,3.983-7.836,6.646-11.28.439-.57.914-1.065,1.4-1.63.438-.509.792-1.253,1.525-1.422-2.5-2.244-5.4-3.823-8.086-6.128a9.363,9.363,0,0,1-2.364-2.431,23.117,23.117,0,0,1-1.111-4.594c-.88-4.328-2.137-8.891-3.106-13.58,0-.154-.007-.307-.133-.317-2.519.332-5.1.611-7.538,1.012" transform="translate(-660.498 -386.916)"/><path class="u" d="M660.5,387.928c2.439-.4,5.02-.679,7.538-1.012a.114.114,0,0,1,.1.081c-1.958.244-3.927.482-5.809.791.517,6.243.478,13,1.647,18.7a17.255,17.255,0,0,0,1.886,4.752c3.087,5.776,6.327,11.131,9.146,16.746-.879,6.411-1.538,18.786-.855,25.693l-1.986-.288a101.089,101.089,0,0,1,.818-25.478c-2.819-5.615-5.867-10.756-8.954-16.532a17.252,17.252,0,0,1-1.885-4.752c-1.17-5.7-1.13-12.454-1.648-18.7" transform="translate(-660.498 -386.916)"/></g></g><g transform="translate(31.777)"><path class="m" d="M740.354,375.27a10.592,10.592,0,0,1,.021,1.447v.649c2.458.39,4.467.938,6.9,1.469-1.207-4.21,3.55-9.223,2.988-9.917-.285-.348-2.556,2.132-2.932,2.286a9.553,9.553,0,0,1,.591-1.422c.156-.373,1.637-2.97,1.26-3.235-.507-.36-2.54,2.8-2.891,3.259.251-1.029,2.211-3.791,1.613-4.292-.886-.435-3,3.391-3.811,4.016.2-.971,2.35-4.39,1.7-4.847-.363-.254-1.055.5-1.424.889-1.2,1.269-2.98,4.856-3.842,6.475-.433-.5-2.219-2.688-2.565-2.459-.442.293,1.078,2.837,1.409,3.551a10.441,10.441,0,0,1,.991,2.131" transform="translate(-727.026 -364.631)"/><g transform="translate(0 10.853)"><path class="w" d="M717.123,412.9a110.468,110.468,0,0,1,8.657,12.178,87.3,87.3,0,0,0,9.552-15.963,22.463,22.463,0,0,0,1.115-2.481c.98-3.277,1.182-16.595.921-20.686,0,0-5.58-.448-7.182-.555,0,0-.549,3.574-.7,4.256-.856,3.962-1.523,7.992-2.35,11.931a15.6,15.6,0,0,1-.477,2.321,7.882,7.882,0,0,1-2.091,2.554c-2.678,2.456-4.684,3.776-7.448,6.445" transform="translate(-717.123 -385.392)"/><path class="u" d="M728.217,404.9a7.892,7.892,0,0,1-2.091,2.554c-2.609,2.394-5.728,4.338-8.386,6.874-.332.058-.352-1.091-.618-1.434,2.764-2.669,4.77-3.989,7.448-6.445a7.889,7.889,0,0,0,2.091-2.554,15.648,15.648,0,0,0,.476-2.321c.827-3.939,1.495-7.969,2.35-11.931.147-.682.7-4.257.7-4.257l.191.014c-.369,5.106-1.094,14.374-1.682,17.179a15.6,15.6,0,0,1-.476,2.321" transform="translate(-717.123 -385.391)"/></g></g><g transform="translate(18.155 12.599)"><path class="m" d="M695.633,409.607l.356,6.419c3.537,4.187,10.083,4.463,10.024.14-.015-1.041-.08-2.189-.118-3.023,1.643-.516,3.647-2.63,3.353-6.478a21.967,21.967,0,0,0-1-4.394c-.737-2.543-1.721-5.6-3.333-7.235-.649-.662-2-.578-2.771-.933a6.594,6.594,0,0,0-3.778-.435,7.522,7.522,0,0,0-5.829,10.935s-2.516,1.014-.964,3.761c1,1.778,2.429,1.5,4.061,1.244" transform="translate(-691.066 -391.042)"/><path class="s" d="M696.873,390.752a4.135,4.135,0,0,0,.69-1.254c.331.239.2.649.026,1,2.853-1.511,5.193.072,7.8-.16a10.622,10.622,0,0,0,2.785-.732,5.505,5.505,0,0,1-1.657,1.338,8.714,8.714,0,0,0,3.794-1.7,2.782,2.782,0,0,1-.337,1.051,12.934,12.934,0,0,1-2.027,2.877,16.213,16.213,0,0,0,2.347-.951c-.108.551-.741,1.043-1.254,1.5-4.266,3.785-10.309,3.842-14.1,2.669a28.5,28.5,0,0,1,.564,3.037,13.217,13.217,0,0,1,.253,2.9,2.816,2.816,0,0,1-.673,1.556c-1.1.676-1.624-1.362-2.589-1.543a7.763,7.763,0,0,1-1.156-6.238c.567-2.319,2.1-4.757,5.064-5.082a3.811,3.811,0,0,0,.176-2.289C697.3,389.18,696.862,390.732,696.873,390.752Z" transform="translate(-691.086 -388.731)"/><g transform="translate(7.779 8.988)"><path class="n" d="M709.307,429.007a4.519,4.519,0,0,0,5.4,3.77l-.106-2.726a6.679,6.679,0,0,1-5.294-1.045" transform="translate(-707.55 -416.939)"/><g transform="translate(1.234)"><path class="j" d="M716.951,413.463l.042-.015a1.255,1.255,0,0,0,.7-.707c.2-.6-.169-1.317-.632-2.224a13.521,13.521,0,0,1-.873-1.957.257.257,0,0,0-.488.162,14.559,14.559,0,0,0,.9,2.03c.4.767.736,1.431.605,1.827a.763.763,0,0,1-.434.406.262.262,0,0,0-.121.345.255.255,0,0,0,.3.134" transform="translate(-711.828 -407.098)"/><path class="k" d="M719.549,406.2c.016.206-.617.425-1.414.487s-1.456-.053-1.474-.262.616-.426,1.416-.487,1.455.054,1.472.263" transform="translate(-712.294 -405.924)"/><path class="k" d="M711.1,407.244c.1.2-.437.681-1.206,1.074s-1.473.551-1.574.351.436-.682,1.2-1.077,1.472-.55,1.576-.349" transform="translate(-708.307 -406.512)"/></g><path class="y" d="M706.3,416.369c.934-.716,3.724-.078,3.972,1.128.153.749-.694,1.26-1.5,1.354C707.91,418.95,704.935,417.413,706.3,416.369Z" transform="translate(-705.946 -410.765)"/><path class="z" d="M723.452,412.465a2.344,2.344,0,0,0-.749,1.121,1.483,1.483,0,0,0,.122,1.283,1.21,1.21,0,0,0,1.4.025,19.4,19.4,0,0,0-.592-2.561A1.844,1.844,0,0,0,723.452,412.465Z" transform="translate(-713.902 -408.982)"/><g transform="translate(2.461 2.088)"><path class="i" d="M719.385,411.025a.246.246,0,0,1-.106-.024.243.243,0,0,1-.112-.325,1.441,1.441,0,0,1,.853-.728,1.259,1.259,0,0,1,1.071.285.243.243,0,0,1-.291.388.809.809,0,0,0-.666-.2.965.965,0,0,0-.531.468A.242.242,0,0,1,719.385,411.025Z" transform="translate(-714.704 -409.919)"/><path class="i" d="M710.9,413.512a.243.243,0,0,1-.224-.337,1.858,1.858,0,0,1,1-.985,1.328,1.328,0,0,1,1.14.214.243.243,0,0,1-.264.407.86.86,0,0,0-.734-.158,1.4,1.4,0,0,0-.7.71.242.242,0,0,1-.218.149Z" transform="translate(-710.653 -410.978)"/><path class="j" d="M716.971,421.053a3.208,3.208,0,0,1-.97-.148.227.227,0,0,1,.141-.431c.073.024,1.8.566,2.447-.8a.227.227,0,0,1,.41.194A2.108,2.108,0,0,1,716.971,421.053Z" transform="translate(-713.131 -414.515)"/></g></g></g></g></g></g></svg>