<svg xmlns="http://www.w3.org/2000/svg" width="173.001" height="192.278" viewBox="0 0 173.001 192.278"><defs><style>.a{fill:#cdeef7;}.b{fill:#f6e446;}.c{fill:#606060;opacity:0.09;}.d{fill:#1d3966;}.e{fill:#15294a;}.f,.g,.h,.p{fill:none;stroke-miterlimit:10;}.f,.h{stroke:#1d3966;}.f{stroke-width:6px;}.g{stroke:#d61313;stroke-linecap:round;stroke-width:2px;}.i{fill:#d61313;}.j{fill:#ffd5a8;}.k{fill:#563312;}.l{fill:#18181c;}.m{fill:#f3f3f3;}.n{fill:#f7f7f7;}.o{fill:#ffcb94;}.p{stroke:#563312;stroke-width:3px;}.q{fill:#45290e;}.r{fill:#331e0a;}</style></defs><g transform="translate(-548.5 -5631.722)"><path class="a" d="M147.466,188.633H95.786a10.219,10.219,0,0,1,14.1-9.338A14.971,14.971,0,0,1,139,183.373a6.917,6.917,0,0,1,8.462,5.261Z" transform="translate(452.714 5515.396)"/><path class="a" d="M193.838,263.14H149.42a8.782,8.782,0,0,1,12.12-8.025,12.867,12.867,0,0,1,25.025,3.5,5.943,5.943,0,0,1,7.274,4.521Z" transform="translate(429.749 5482.322)"/><path class="a" d="M342.434,114.389h-51.68a10.219,10.219,0,0,1,14.1-9.338,14.971,14.971,0,0,1,29.117,4.077,6.917,6.917,0,0,1,8.463,5.261Z" transform="translate(369.231 5547.188)"/><g transform="translate(641.337 5726.248)"><path class="b" d="M322.248,243.212a1.412,1.412,0,0,0-1.387-1.147H312.8a1.413,1.413,0,0,0-1.387,1.147l-1.507,7.877h13.85Z" transform="translate(-280.306 -242.065)"/><path class="b" d="M279.048,255.309a1.412,1.412,0,0,0-1.792.17l-2.67,2.67-.361.361-2.67,2.67a1.412,1.412,0,0,0-.17,1.792l4.5,6.634,4.716-4.716.361-.361,4.716-4.716Z" transform="translate(-263.708 -247.632)"/><path class="b" d="M259.288,295.336a1.412,1.412,0,0,0-1.146,1.387v8.061a1.412,1.412,0,0,0,1.146,1.387l7.877,1.507v-13.85Z" transform="translate(-258.142 -264.23)"/><path class="b" d="M271.385,338.019a1.412,1.412,0,0,0,.17,1.792l2.67,2.669.361.361,2.67,2.67a1.412,1.412,0,0,0,1.792.17l6.635-4.5-4.716-4.716-.361-.361-4.716-4.716Z" transform="translate(-263.708 -280.31)"/><path class="b" d="M311.412,361.91a1.413,1.413,0,0,0,1.387,1.147h8.061a1.412,1.412,0,0,0,1.387-1.147l1.507-7.877H309.9Z" transform="translate(-280.306 -290.008)"/><path class="b" d="M354.094,345.681a1.412,1.412,0,0,0,1.792-.17l2.67-2.67.361-.361,2.669-2.669a1.412,1.412,0,0,0,.17-1.792l-4.5-6.635L352.54,336.1l-.361.361-4.716,4.716Z" transform="translate(-296.386 -280.31)"/><path class="b" d="M377.986,306.172a1.413,1.413,0,0,0,1.146-1.387v-8.061a1.412,1.412,0,0,0-1.146-1.387l-7.877-1.507v13.85Z" transform="translate(-306.085 -264.23)"/><path class="b" d="M361.757,262.972a1.412,1.412,0,0,0-.17-1.792l-2.669-2.67-.361-.361-2.67-2.67a1.413,1.413,0,0,0-1.792-.17l-6.635,4.5,4.716,4.716.361.361,4.716,4.716Z" transform="translate(-296.386 -247.632)"/><path class="b" d="M298.776,251.671A31.031,31.031,0,1,0,329.81,282.7a31.03,31.03,0,0,0-31.034-31.031Zm0,48.019a16.988,16.988,0,1,1,16.991-16.99A16.987,16.987,0,0,1,298.776,299.69Z" transform="translate(-262.255 -246.178)"/><path class="c" d="M306.119,268.82a21.225,21.225,0,1,0,21.227,21.226,21.225,21.225,0,0,0-21.227-21.226Zm0,38.213a16.988,16.988,0,1,1,16.991-16.988,16.987,16.987,0,0,1-16.991,16.988Z" transform="translate(-269.598 -253.521)"/></g><g transform="translate(594.868 5765.82)"><path class="d" d="M227.934,312.182a1.124,1.124,0,0,0-1.1-.913h-6.421a1.124,1.124,0,0,0-1.1.913l-1.2,6.274h11.031Z" transform="translate(-194.528 -311.269)"/><path class="d" d="M193.527,321.817a1.125,1.125,0,0,0-1.427.135l-2.127,2.127-.288.288-2.126,2.127a1.125,1.125,0,0,0-.136,1.427l3.588,5.284,3.756-3.756.288-.288,3.756-3.757Z" transform="translate(-181.309 -315.702)"/><path class="d" d="M177.789,353.7a1.125,1.125,0,0,0-.914,1.1v6.421a1.126,1.126,0,0,0,.914,1.1l6.273,1.2V352.5Z" transform="translate(-176.875 -328.922)"/><path class="d" d="M187.424,387.691a1.125,1.125,0,0,0,.136,1.428l2.126,2.126.288.288,2.127,2.127a1.125,1.125,0,0,0,1.427.135l5.284-3.587-3.756-3.756-.288-.287-3.756-3.757Z" transform="translate(-181.309 -341.729)"/><path class="d" d="M219.3,406.72a1.125,1.125,0,0,0,1.1.914h6.421a1.125,1.125,0,0,0,1.1-.914l1.2-6.273H218.1Z" transform="translate(-194.528 -349.454)"/><path class="d" d="M253.3,393.794a1.125,1.125,0,0,0,1.427-.135l2.127-2.127.288-.288,2.126-2.126a1.125,1.125,0,0,0,.135-1.427l-3.588-5.285-3.756,3.757-.288.287-3.756,3.756Z" transform="translate(-207.336 -341.729)"/><path class="d" d="M272.327,362.327a1.125,1.125,0,0,0,.914-1.105V354.8a1.123,1.123,0,0,0-.913-1.1l-6.273-1.2v11.031Z" transform="translate(-215.06 -328.922)"/><path class="d" d="M259.4,327.92a1.125,1.125,0,0,0-.135-1.427l-2.126-2.127-.288-.288-2.127-2.127a1.125,1.125,0,0,0-1.427-.135l-5.285,3.587,3.756,3.757.288.288,3.756,3.756Z" transform="translate(-207.336 -315.702)"/><path class="d" d="M209.239,318.919a24.715,24.715,0,1,0,24.717,24.715,24.715,24.715,0,0,0-24.717-24.715Zm0,38.246a13.531,13.531,0,1,1,13.532-13.531,13.531,13.531,0,0,1-13.532,13.531Z" transform="translate(-180.151 -314.545)"/><path class="e" d="M215.088,332.577A16.9,16.9,0,1,0,232,349.485a16.9,16.9,0,0,0-16.912-16.908Zm0,30.436a13.531,13.531,0,1,1,13.532-13.531,13.531,13.531,0,0,1-13.532,13.531Z" transform="translate(-186 -320.393)"/></g><g transform="translate(663.32 5671.005)"><path class="d" d="M347.644,146.369a1.125,1.125,0,0,0-1.1-.914h-6.421a1.125,1.125,0,0,0-1.1.914l-1.2,6.273h11.031Z" transform="translate(-314.239 -145.455)"/><path class="d" d="M313.237,156a1.125,1.125,0,0,0-1.427.136l-2.126,2.126-.288.288-2.125,2.127a1.125,1.125,0,0,0-.136,1.427l3.588,5.285,3.756-3.756.288-.288,3.756-3.756Z" transform="translate(-301.019 -149.889)"/><path class="d" d="M297.5,187.884a1.124,1.124,0,0,0-.914,1.1v6.421a1.125,1.125,0,0,0,.914,1.1l6.273,1.2V186.68Z" transform="translate(-296.586 -163.109)"/><path class="d" d="M307.134,221.879a1.125,1.125,0,0,0,.136,1.427l2.125,2.126.288.288,2.127,2.126a1.125,1.125,0,0,0,1.427.136l5.285-3.588-3.756-3.756-.288-.288-3.756-3.756Z" transform="translate(-301.019 -175.916)"/><path class="d" d="M339.014,240.907a1.124,1.124,0,0,0,1.1.913h6.421a1.124,1.124,0,0,0,1.1-.913l1.2-6.273H337.813Z" transform="translate(-314.239 -183.64)"/><path class="d" d="M373.01,227.982a1.125,1.125,0,0,0,1.427-.136l2.126-2.126.288-.288,2.125-2.126a1.125,1.125,0,0,0,.136-1.427l-3.588-5.285-3.756,3.756-.288.288-3.756,3.756Z" transform="translate(-327.047 -175.916)"/><path class="d" d="M392.038,196.515a1.125,1.125,0,0,0,.914-1.1v-6.421a1.124,1.124,0,0,0-.914-1.1l-6.273-1.2v11.03Z" transform="translate(-334.771 -163.109)"/><path class="d" d="M379.113,162.107a1.125,1.125,0,0,0-.136-1.427l-2.125-2.127-.288-.288-2.126-2.126A1.125,1.125,0,0,0,373.01,156l-5.285,3.588,3.756,3.756.288.288,3.756,3.756Z" transform="translate(-327.047 -149.889)"/><path class="d" d="M328.95,153.1a24.716,24.716,0,1,0,24.718,24.716A24.716,24.716,0,0,0,328.95,153.1Zm0,38.246a13.53,13.53,0,1,1,13.533-13.531,13.529,13.529,0,0,1-13.533,13.531Z" transform="translate(-299.862 -148.731)"/><path class="e" d="M334.8,166.765a16.9,16.9,0,1,0,16.907,16.906A16.9,16.9,0,0,0,334.8,166.765Zm0,30.435a13.53,13.53,0,1,1,13.533-13.531A13.529,13.529,0,0,1,334.8,197.2Z" transform="translate(-305.71 -154.58)"/></g><g transform="translate(557.901 5742.65)"><path class="d" d="M152.893,271.477a.9.9,0,0,0-.88-.728H146.9a.9.9,0,0,0-.88.728l-.956,5h8.786Z" transform="translate(-126.286 -270.749)"/><path class="d" d="M125.488,279.151a.9.9,0,0,0-1.137.108l-1.694,1.693-.229.229-1.694,1.693a.9.9,0,0,0-.107,1.137l2.857,4.209,2.992-2.991L126.7,285l2.991-2.992Z" transform="translate(-115.757 -274.28)"/><path class="d" d="M112.953,304.542a.9.9,0,0,0-.727.88v5.114a.9.9,0,0,0,.727.88l5,.956v-8.785Z" transform="translate(-112.226 -284.809)"/><path class="d" d="M120.628,331.618a.9.9,0,0,0,.107,1.137l1.694,1.694.229.229,1.694,1.694a.9.9,0,0,0,1.137.108l4.209-2.858-2.991-2.991-.229-.229-2.992-2.992Z" transform="translate(-115.757 -295.01)"/><path class="d" d="M146.019,346.773a.9.9,0,0,0,.88.727h5.114a.9.9,0,0,0,.88-.727l.956-5h-8.786Z" transform="translate(-126.286 -301.162)"/><path class="d" d="M173.1,336.479a.9.9,0,0,0,1.137-.108l1.694-1.694.229-.229,1.694-1.694a.9.9,0,0,0,.108-1.137l-2.857-4.209-2.992,2.992-.229.229-2.991,2.991Z" transform="translate(-136.488 -295.01)"/><path class="d" d="M188.251,311.416a.9.9,0,0,0,.727-.88v-5.114a.9.9,0,0,0-.727-.88l-5-.956v8.785Z" transform="translate(-142.639 -284.809)"/><path class="d" d="M177.957,284.011a.9.9,0,0,0-.108-1.137l-1.693-1.693-.229-.229-1.694-1.693a.9.9,0,0,0-1.137-.108l-4.209,2.857L171.878,285l.229.229,2.992,2.991Z" transform="translate(-136.488 -274.28)"/><path class="d" d="M138,276.842a19.685,19.685,0,1,0,19.687,19.685A19.685,19.685,0,0,0,138,276.842Zm0,30.462a10.776,10.776,0,1,1,10.778-10.776A10.776,10.776,0,0,1,138,307.3Z" transform="translate(-114.835 -273.358)"/><path class="e" d="M142.662,287.721a13.464,13.464,0,1,0,13.466,13.465,13.464,13.464,0,0,0-13.466-13.465Zm0,24.241a10.776,10.776,0,1,1,10.778-10.776A10.776,10.776,0,0,1,142.662,311.962Z" transform="translate(-119.494 -278.016)"/></g><g transform="translate(666.414 5751.326)"><path class="f" d="M324.89,297.369a11.447,11.447,0,1,1-11.447-11.447,11.447,11.447,0,0,1,11.447,11.447Z" transform="translate(-301.997 -285.922)"/><path class="g" d="M322.016,294.931v6.3l3.864,3.865" transform="translate(-310.569 -289.779)"/></g><g transform="translate(618.201 5786.164)"><path class="b" d="M223.31,346.848a5.518,5.518,0,0,0-4.054,9.36c3,3.145,2,4.9,2,4.9h4.106s-1-1.755,2-4.9a5.518,5.518,0,0,0-4.052-9.36Z" transform="translate(-217.682 -346.848)"/><path class="d" d="M222.741,370.91H228.1a.554.554,0,0,1,.554.554h0a.555.555,0,0,1-.554.554h-5.361a.555.555,0,0,1-.554-.554h0a.554.554,0,0,1,.556-.554Z" transform="translate(-219.611 -357.151)"/><path class="d" d="M222.741,372.848H228.1a.554.554,0,0,1,.554.554h0a.554.554,0,0,1-.554.554h-5.361a.554.554,0,0,1-.554-.554h0a.554.554,0,0,1,.556-.554Z" transform="translate(-219.611 -357.981)"/><path class="d" d="M222.741,374.785H228.1a.554.554,0,0,1,.554.554h0a.555.555,0,0,1-.554.554h-5.361a.555.555,0,0,1-.554-.554h0a.554.554,0,0,1,.556-.554Z" transform="translate(-219.611 -358.81)"/><path class="h" d="M224.041,356.389h3.979l-1.948,2.287Z" transform="translate(-220.405 -350.933)"/></g><g transform="translate(576.677 5760.152)"><rect class="b" width="1.648" height="5.639" transform="translate(0 3.621)"/><rect class="i" width="1.649" height="3.209" transform="translate(3.049 6.051)"/><rect class="d" width="1.648" height="9.26" transform="translate(6.099)"/></g><g transform="translate(605.71 5631.727)"><path class="j" d="M281.458,85.96s8.291-9.2,8.53-9.2.762.429,0,1.477-1.906,3.122-1.906,3.122,1.239,1.548.953,2.263-4.669,4.241-4.669,4.241l-2.907-1.525" transform="translate(-232.499 -76.764)"/><g transform="translate(41.417 93.134)"><path class="i" d="M269.266,239.756a22.592,22.592,0,0,0,.5,3.5c.206.133,3.647.795,4.67-.211l-.152-3.4-5.018.045" transform="translate(-268.695 -239.639)"/><g transform="translate(0 2.175)"><path class="k" d="M269.2,244.194a1.042,1.042,0,0,0-.933,1.045c.023.73.29,3.06.4,4.014.029.257.048.414.048.414s7.448-.028,8.949-.107a12.762,12.762,0,0,0,4.539-.771c1.211-.592,3.582-1.985,3.582-1.985a2.716,2.716,0,0,0-3.462-1.443,18.842,18.842,0,0,1-3.023.79l-4.915-2.524s-.275-.535-1.092.222a4.1,4.1,0,0,1-4.093.345Z" transform="translate(-268.268 -243.442)"/><path class="l" d="M269.143,253.24l-.146-1.6s9.294-.035,11.419-.438a24.6,24.6,0,0,0,5.557-2.368s.359-.16.471.006-.038.456-.038.456a23.909,23.909,0,0,1-4.927,2.287,38.755,38.755,0,0,1-6.487.477l-.124,1.1Z" transform="translate(-268.58 -245.72)"/></g></g><path class="e" d="M228.687,183.494s23.337-.991,24.968,1.02,2.194,31.6,2.194,31.6l-5.664.625-3.234-23.709s-18.526,4.733-20.925,2.764,2.26-12.038,2.26-12.038" transform="translate(-208.47 -122.36)"/><path class="i" d="M220.338,290.754l4.5.105.061,5.055c-1.049.979-4.3-1.308-4.5-1.448a22.964,22.964,0,0,1-.057-3.713" transform="translate(-206.306 -168.392)"/><g transform="translate(12.279 126.106)"><path class="k" d="M219.238,297.3a1.039,1.039,0,0,0-1.132.822c-.136.717-.369,3.051-.461,4.008-.023.257-.039.415-.039.415s7.284,1.553,8.767,1.8a12.747,12.747,0,0,0,4.6.213c1.309-.323,3.921-1.18,3.921-1.18a2.715,2.715,0,0,0-3.075-2.145,18.52,18.52,0,0,1-3.124.128l-4.264-3.509s-.154-.581-1.114-.016a4.1,4.1,0,0,1-4.079-.536Z" transform="translate(-217.437 -297.302)"/><path class="l" d="M217.311,307.538l.2-1.6s9.09,1.941,11.252,2a24.676,24.676,0,0,0,5.934-1.133s.385-.081.459.1-.133.439-.133.439a23.89,23.89,0,0,1-5.3,1.185,38.728,38.728,0,0,1-6.441-.911l-.356,1.051Z" transform="translate(-217.311 -301.001)"/></g><path class="e" d="M213.341,189.18l2.889,26.046.275,29.973h6.576s2.025-15.952,2.527-30.717a275.178,275.178,0,0,0-1.129-32.021C223.983,178.461,213.341,189.18,213.341,189.18Z" transform="translate(-203.332 -121.639)"/><path class="j" d="M227.373,128.947s-4.163,2.46-5.736,1.089l-.162-2.37-.093-1.356-.1-1.476,4.374-.157.22.554.27.674Z" transform="translate(-206.733 -97.28)"/><path class="d" d="M225.955,155.915c-1.022,13.07-14.557,9.26-14.557,9.26s.574-5.236.567-7.615c-.018-5.866-4.983-9.567-5.261-16.066-.238-5.575,6.615-7.275,8.024-8.192a11.378,11.378,0,0,0,6.755-1.383,4.636,4.636,0,0,1,1.862-.336,4.364,4.364,0,0,1,1.59,1.518C229.652,139.576,226.323,151.222,225.955,155.915Z" transform="translate(-200.487 -100.228)"/><path class="m" d="M227.493,132.184a31.966,31.966,0,0,1,2.085,10.27,23.226,23.226,0,0,1-.666,6.853,19.422,19.422,0,0,0-2.027-5.6h0a91.278,91.278,0,0,0-6.142-10.135,32.871,32.871,0,0,0,4.789-.761h.009A11.254,11.254,0,0,0,227.493,132.184Z" transform="translate(-206.5 -100.494)"/><path class="i" d="M230.292,133.91l-.18,2.2,2.287,6.811a23.227,23.227,0,0,1-.666,6.853,19.423,19.423,0,0,0-2.027-5.6h0l-.5-7.965-1.878-1.435.446-.229.576-1.267h.009Z" transform="translate(-209.321 -100.96)"/><path class="n" d="M220.49,133.222l.369-1.859a12.042,12.042,0,0,0,4.564,1.093l-.494,2.638a6.88,6.88,0,0,1-4.439-1.872Z" transform="translate(-206.393 -100.143)"/><path class="n" d="M231.281,133.264l-2.164-1.355s1.283-.943,1.385-1.824l.974,1.009a3.611,3.611,0,0,1-.195,2.17Z" transform="translate(-210.087 -99.595)"/><path class="e" d="M214.784,165.181l2.392-6.911a83.589,83.589,0,0,1,.136,11.258A62.348,62.348,0,0,1,216.1,177l-1.144-.113a39.77,39.77,0,0,0-.172-11.706Z" transform="translate(-203.95 -111.664)"/><path class="o" d="M226.1,125.528l.118.741.006.016s.187,1.142-1.442,1.835a5.281,5.281,0,0,1-3.236-.09l-.093-1.356c.628.469,3.764-.783,4.5-1.079C226.052,125.553,226.1,125.528,226.1,125.528Z" transform="translate(-206.807 -97.644)"/><path class="j" d="M225.184,115.173c-.15,1.339-5.483,3.063-6.8,2.851a2.418,2.418,0,0,1-1.252-1.1c-.137-.2-.309-.475-.509-.8-1.1-1.836-2.882-5.21-2.882-5.21a6.471,6.471,0,0,1,.446-4.386,53.909,53.909,0,0,1,6.273-3.173,2.564,2.564,0,0,1,1.51.8,17.492,17.492,0,0,1,.5,1.738C222.857,108.6,225.307,114.068,225.184,115.173Z" transform="translate(-203.416 -88.149)"/><path class="j" d="M230.113,113.215a21.7,21.7,0,0,1,2.173,2.3c0,.465-1.907,1.113-1.907,1.113Z" transform="translate(-210.513 -92.372)"/><path class="d" d="M205.835,148.386l-1.166,12.52,3.53,24.435,4.97-1.263s-.531-16.216-1.282-18.933,3.937-12.274,2.977-14.255S207.314,146.4,205.835,148.386Z" transform="translate(-199.619 -107.12)"/><path class="k" d="M227.345,114.08a.4.4,0,1,1-.6-.24.463.463,0,0,1,.6.24Z" transform="translate(-209.005 -92.621)"/><path class="d" d="M227.617,169.6s-1.783,15.735-5.466,19.828l-8.454,1.234,3.628-14.218Z" transform="translate(-203.484 -116.514)"/><path class="d" d="M238.427,162.971l1.222,11.634s-3.562.364-5.236,2.406,0-.312,0-.312Z" transform="translate(-212.036 -113.677)"/><path class="d" d="M237.491,123.758S250.7,111.9,252.265,109.684s12.979-15.959,12.979-15.959l-3.5-2.972-27.559,23.7Z" transform="translate(-212.257 -82.754)"/><path class="k" d="M221.615,106.37s-.874.352-1.791.708c-1.007.391-3.93,1.69-3.93,1.69l.7,3.562-.429.2-.753-1.039a1.2,1.2,0,0,0-1.375-.087c-.68.408.5,2.338.921,2.465a1.311,1.311,0,0,0,.76,0l-.08,2.006-.006.006c-.063.022-.269.24-.417.24a51.466,51.466,0,0,1-3.86-6.073c-.109-.543-.309-2.121.263-2.739a10.634,10.634,0,0,1,1.578-1.024,53.914,53.914,0,0,1,6.273-3.173c.189-.069.481-.185.548-.205.825-.25,1.094-.107,1.336.673a6.65,6.65,0,0,1,.262,2.79Z" transform="translate(-202.427 -87.911)"/><path class="p" d="M207.518,219.5l.3-1.88a2.423,2.423,0,0,1,1.973-1.909l5.1-.643a2.338,2.338,0,0,1,2.339,1.379l.935,2.338" transform="translate(-200.838 -135.977)"/><g transform="translate(0 81.058)"><path class="q" d="M220.941,220.036l1.211,14.442a1.676,1.676,0,0,1-1.546,1.819l-21.716,1.636a1.73,1.73,0,0,1-1.688-.992,1.627,1.627,0,0,1-.156-.571l-.456-5.165-.746-8.453a1.742,1.742,0,0,1,1.535-1.873l21.735-2.349a1.141,1.141,0,0,1,.285,0,1.645,1.645,0,0,1,1.542,1.506Z" transform="translate(-195.837 -218.52)"/></g><path class="j" d="M210.8,212.279a21.954,21.954,0,0,0,.059,2.418c.091.132,1.034,1.822,1.607,1.969s3.806-.954,3.9-1.371a17.324,17.324,0,0,0-.23-2.636l.92-.171s-.655-1.253-1.229-1.2S210.8,212.279,210.8,212.279Z" transform="translate(-202.24 -134.364)"/><path class="q" d="M195.837,234.225l.007-8.3,3.2,8.3-3.208.107" transform="translate(-195.837 -140.632)"/><path class="r" d="M197.13,231.446l23.339-1.4s-.774-10.856,0-10.6c0,0,.071,8.551.786,11.365l-24.08,1.156Z" transform="translate(-196.39 -137.853)"/><path class="a" d="M215.472,238.178s.158,2.047.882,2.288,1.114-1.4,1.007-2.362a2.7,2.7,0,0,0-1.889.074Z" transform="translate(-204.244 -145.794)"/></g></g></svg>