<svg xmlns="http://www.w3.org/2000/svg" width="585.086" height="289.156" viewBox="0 0 585.086 289.156"><defs><style>.a{fill:#dbe9fd;}.b{fill:#75aaf5;opacity:0.26;}</style></defs><g transform="translate(-72.863 -2246.137)"><g transform="translate(0 141.158)"><path class="a" d="M40,46.5c22.091,0,40-25.681,40,0S62.091,93,40,93,0,72.181,0,46.5,17.909,46.5,40,46.5Z" transform="translate(547 2181)"/><path class="b" d="M585,86.542s-18.279,135.81-107.218,78.276c-45.552-24.816-41.214-62.968-141-86.056-71.584-11.974-68.71,4.692-117.129,0-31.311-3.034-53.909,22.321-79.719,0-11.51-9.954-32.82-51.908-64.85-76.636S0,2.126,0,2.126l-.073,262.15c0,11.236,6.893,16.016,16.763,16.016l550.438-.134c11.41,0,17.885-5.079,17.885-17.5Z" transform="translate(72.936 2113.843)"/></g></g></svg>