<svg xmlns="http://www.w3.org/2000/svg" width="20.669" height="20.615" viewBox="0 0 20.669 20.615"><defs><style>.a{opacity:0.5;}</style></defs><g class="a"><path d="M437.019,6504.875c.04-.2.068-.395.122-.586a2.908,2.908,0,0,1,2.557-2.1c.091-.008.182-.014.273-.014h7.095a.674.674,0,0,1,.695.487.662.662,0,0,1-.59.843c-.056,0-.113,0-.168,0h-7.011a1.587,1.587,0,0,0-1.61,1.313,1.731,1.731,0,0,0-.03.335q0,7.02,0,14.042a1.6,1.6,0,0,0,1.352,1.624,1.667,1.667,0,0,0,.284.017q7.364,0,14.728,0a1.625,1.625,0,0,0,1.639-1.643q0-3.321,0-6.642a.666.666,0,1,1,1.33-.092c0,.032,0,.063,0,.1,0,2.214.012,4.428,0,6.642a2.866,2.866,0,0,1-1.781,2.738,2.5,2.5,0,0,1-.916.222c-.042,0-.083.012-.124.019H439.845l-.229-.025a2.927,2.927,0,0,1-2.491-2.15c-.046-.171-.071-.348-.106-.523Z" transform="translate(-437.019 -6501.571)"/><path d="M442.1,6517.157a2.51,2.51,0,0,1,.061-.257c.4-1.215.806-2.43,1.219-3.643a1,1,0,0,1,.229-.37q5.6-5.615,11.215-11.222a.671.671,0,0,1,1.03,0l2.414,2.417a.674.674,0,0,1,0,1.045q-5.6,5.606-11.214,11.208a1,1,0,0,1-.379.236c-1.212.412-2.43.807-3.641,1.221a.678.678,0,0,1-.911-.46C442.117,6517.283,442.114,6517.229,442.1,6517.157Zm10.711-11.6c-.092.094-.184.192-.278.286q-3.923,3.924-7.847,7.851a.4.4,0,0,0-.1.144q-.37,1.1-.733,2.2c-.007.024-.01.05-.015.08.023,0,.033,0,.043-.008q1.112-.371,2.225-.745a.411.411,0,0,0,.146-.1q3.959-3.957,7.917-7.917c.074-.073.156-.14.228-.206Zm.985-.957,1.547,1.547,1.538-1.538-1.548-1.547Z" transform="translate(-438.006 -6501.425)"/></g></svg>